<?xml version="1.0" encoding="utf-8"?>
<!-- Generator: Adobe Illustrator 25.2.3, SVG Export Plug-In . SVG Version: 6.00 Build 0)  -->
<svg version="1.1" id="Layer_1" xmlns="http://www.w3.org/2000/svg" xmlns:xlink="http://www.w3.org/1999/xlink" x="0px" y="0px"
	 viewBox="0 0 150 150" style="enable-background:new 0 0 150 150;" xml:space="preserve">
<style type="text/css">
	.st0{fill:#231F20;}
</style>
<g>
	<path class="st0" d="M106,118.7c-0.2,0.2-0.5,0.3-0.7,0.3l0.3,1.1c0.3,0,0.9-0.3,1.4-0.7c0.6-0.5,1.1-1.3,1.7-2.5l1.5-3.1h-1.3
		l-0.8,1.9c-0.2,0.5-0.3,0.7-0.4,1h0c0-0.3-0.1-0.6-0.1-1l-0.3-1.9h-1.3l0.9,3.9c0,0.1,0,0.2,0,0.2
		C106.6,118.2,106.3,118.5,106,118.7 M101.3,115.2l-0.5,2.9h1.3l0.4-1.9c0.2-1,0.7-1.5,1.1-1.5c0.3,0,0.4,0.2,0.4,0.5
		c0,0.2,0,0.3,0,0.5l-0.4,2.4h1.3l0.5-2.5c0-0.2,0.1-0.5,0.1-0.7c0-0.7-0.4-1.2-1.1-1.2c-0.6,0-1.1,0.2-1.5,0.8h0l0.1-0.7h-1.1
		C101.5,114.2,101.4,114.7,101.3,115.2 M97.3,116.5c0-0.8,0.6-1.8,1.4-1.8c0.1,0,0.2,0,0.3,0l-0.2,1c-0.2,1.1-0.7,1.5-1,1.5
		C97.4,117.2,97.3,116.9,97.3,116.5 M95.9,116.7c0,0.9,0.5,1.5,1.3,1.5c0.5,0,1-0.2,1.4-1h0c0,0.3-0.1,0.6-0.1,0.9h1.2
		c0-0.5,0.1-1.4,0.2-1.9l0.5-2.3c-0.4-0.1-0.9-0.2-1.4-0.2C96.9,113.7,95.9,115.3,95.9,116.7 M92.3,117.1l0.2-0.9
		c0.2-0.8,0.6-1.4,1.1-1.4c0.4,0,0.6,0.4,0.6,0.7c0,0.8-0.5,1.8-1.2,1.8C92.7,117.3,92.5,117.2,92.3,117.1 M91.4,115.5l-0.8,4.4h1.3
		l0.4-1.8h0c0.1,0.1,0.4,0.2,0.8,0.2c1.5,0,2.5-1.4,2.5-2.9c0-0.9-0.4-1.6-1.4-1.6c-0.5,0-1,0.3-1.4,0.7h0l0.1-0.6h-1.1
		C91.6,114.3,91.5,115,91.4,115.5 M84.1,115.2l-0.5,2.9h1.2l0.4-1.9c0.2-0.8,0.6-1.5,1-1.5c0.3,0,0.4,0.2,0.4,0.5
		c0,0.2,0,0.3-0.1,0.5l-0.4,2.4h1.2l0.4-2c0.2-0.9,0.6-1.4,1-1.4c0.3,0,0.4,0.2,0.4,0.5c0,0.2,0,0.4-0.1,0.5l-0.4,2.4h1.2l0.5-2.5
		c0-0.2,0.1-0.6,0.1-0.7c0-0.7-0.4-1.2-1.1-1.2c-0.6,0-1.1,0.3-1.5,0.8c0-0.4-0.3-0.8-1-0.8c-0.6,0-1.1,0.2-1.5,0.8h0l0.1-0.7h-1.1
		C84.3,114.2,84.2,114.7,84.1,115.2 M80.1,116.4c0-0.7,0.4-1.7,1.1-1.7c0.5,0,0.7,0.4,0.7,0.8c0,0.7-0.4,1.8-1.1,1.8
		C80.3,117.3,80.1,116.9,80.1,116.4 M78.8,116.5c0,1.1,0.7,1.8,1.8,1.8c1.5,0,2.6-1.2,2.6-2.7c0-1-0.7-1.8-1.8-1.8
		C79.8,113.7,78.8,115,78.8,116.5 M75,116.5c0,1.1,0.7,1.8,1.8,1.8c0.5,0,1-0.1,1.2-0.2l0-1c-0.2,0.1-0.5,0.2-0.9,0.2
		c-0.5,0-0.8-0.3-0.8-0.9c0-0.8,0.6-1.6,1.5-1.6c0.3,0,0.4,0,0.6,0.1l0.3-1c-0.2-0.1-0.5-0.1-0.9-0.1C76.2,113.7,75,114.9,75,116.5
		 M69.8,117.8c0,0.2,0.3,0.2,0.3,0.2h2.4c0.2,0,0.3-0.1,0.3-0.2s-0.1-0.2-0.2-0.2c-0.2-0.1-0.3-0.2-0.3-0.2v-3.2
		c0-0.4-0.4-0.3-0.4-0.3l-1.9,0.6c-0.2,0.1-0.2,0.2-0.2,0.2c0,0.1,0.2,0.2,0.2,0.2c0.3,0.1,0.4,0.4,0.4,0.4v2.1
		c-0.1,0.1-0.2,0.1-0.5,0.2C69.8,117.7,69.8,117.8,69.8,117.8 M72.4,112.5c0-0.4-0.4-0.8-1-0.8c-0.5,0-1,0.3-1,0.8
		c0,0.4,0.4,0.8,1,0.8C71.9,113.3,72.4,113,72.4,112.5 M66.9,116.6c0.1-0.5,0.5-0.6,0.6-0.7c0.1,0,0.2,0.1,0.2,0.1v0.9
		c-0.2,0.4-0.4,0.3-0.4,0.3C66.8,117.1,66.9,116.6,66.9,116.6 M65.4,117.2c0,0.5,0.5,0.9,1.1,0.9c0.6,0,1.1-0.5,1.1-0.5
		c0.1,0,0.1,0,0.1,0c0.5,0.6,1,0.5,1,0.5c0.9,0,1.3-0.6,1.3-0.8c0-0.2-0.2-0.2-0.4-0.1c-0.2,0.1-0.2-0.1-0.2-0.1v-2.2
		c0-0.9-0.8-1.2-1.9-1.2c-1.1,0-2.1,0.6-2.1,1.3c0,0.6,0.5,0.8,0.9,0.8c0.4,0,0.7-0.2,0.7-0.4c0.1-0.4,0.1-0.7,0.1-0.8
		c0-0.1,0.1-0.3,0.3-0.3c0.2,0,0.3,0.2,0.3,0.2s0,0.1,0,0.4c0,0.3,0,0.4,0,0.4s-1.3,0.6-1.6,0.8C65.8,116.3,65.4,116.7,65.4,117.2
		 M47.7,112.6c0,0,0-0.1,0.3-0.1c0.3,0,1.2,0.3,1.2,1.2S48.3,115,48,115c0,0-0.2,0-0.2-0.1V112.6z M45,117.7c0,0.1,0.2,0.3,0.3,0.3
		H48c0.2,0,0.3-0.1,0.3-0.2c0-0.1-0.1-0.1-0.3-0.2c-0.2-0.1-0.3-0.2-0.3-0.2v-1.4c0-0.2,0.1-0.1,0.1-0.1l1.7,2.1h7.6
		c0.2,0,0.2-0.1,0.2-0.2c0-0.1-0.1-0.2-0.2-0.2c-0.1-0.1-0.1-0.1-0.1-0.1v-2.6c0-0.1,0.1-0.4,0.4-0.4c0.3,0,0.4,0.4,0.4,0.4v2.6
		c0,0-0.2,0.1-0.2,0.1c-0.2,0.1-0.2,0.2-0.2,0.2c0,0.2,0.2,0.2,0.2,0.2h4.8c0.2,0,0.2-0.1,0.2-0.2c0-0.1-0.2-0.2-0.2-0.2
		c-0.1-0.1-0.2-0.2-0.2-0.2v-2.7c0,0,0-0.4,0.4-0.4s0.4,0.4,0.4,0.4v2.7l-0.2,0.1c-0.1,0.1-0.1,0.2-0.1,0.2c0,0.2,0.2,0.2,0.2,0.2
		h1.9c0.1,0,0.3,0,0.3-0.2c0-0.2-0.2-0.2-0.2-0.2c-0.2-0.1-0.2-0.1-0.2-0.1v-2.8c-0.1-1.1-1.3-1-1.3-1c-0.6,0-1.1,0.3-1.1,0.3
		c-0.1,0.1-0.1-0.1-0.1-0.1c-0.1-0.3-0.4-0.2-0.4-0.2s-1.5,0.5-1.6,0.6c-0.1,0-0.2,0.1-0.2,0.2c0,0.1,0.2,0.2,0.2,0.2
		c0.2,0.1,0.2,0.1,0.2,0.1v2.4c-0.1,0.3-0.5,0.3-0.5,0.3c-0.3,0-0.5-0.3-0.5-0.3v-2.7c0-0.5-0.5-1-1.2-1c-0.6,0-1,0.2-1.1,0.3
		c-0.1,0.1-0.2,0-0.2,0l0-0.1c-0.1-0.2-0.3-0.1-0.3-0.1s-1.6,0.5-1.7,0.6c-0.2,0.1-0.2,0.3-0.2,0.3c0,0.1,0.2,0.2,0.2,0.2
		c0.1,0.1,0.2,0.1,0.2,0.1v2.4c-0.2,0.3-0.5,0.3-0.5,0.3c-0.3,0-0.5-0.3-0.5-0.3v-3.3c0-0.4-0.4-0.3-0.4-0.3l-1.9,0.6
		c-0.2,0.1-0.2,0.2-0.2,0.2c0,0.1,0.2,0.2,0.2,0.2c0.3,0.1,0.4,0.4,0.4,0.4v2.2c-0.2,0.5-0.6,0.1-0.6,0.1l-1.7-2.1
		c-0.1-0.1-0.1-0.2-0.1-0.2c1-0.5,0.9-1.6,0.9-1.6c0-1.4-1.9-1.5-1.9-1.5h-3.5c-0.5,0-0.4,0.2-0.4,0.2c0,0.2,0.2,0.2,0.2,0.2
		c0.3,0.1,0.3,0.3,0.3,0.3v4.6c0,0.1-0.1,0.1-0.1,0.1c-0.1,0.1-0.2,0.1-0.3,0.1C45,117.6,45,117.7,45,117.7 M54.3,112.5
		c0-0.4-0.4-0.8-1-0.8c-0.5,0-1,0.3-1,0.8c0,0.4,0.4,0.8,1,0.8C53.8,113.3,54.3,113,54.3,112.5 M38.9,116.4c0-0.8,0.6-1.8,1.4-1.8
		c0.1,0,0.3,0,0.3,0l-0.2,1c-0.2,1.1-0.7,1.5-1.1,1.5C39.1,117.2,38.9,116.9,38.9,116.4 M37.6,116.7c0,0.9,0.5,1.5,1.3,1.5
		c0.5,0,1.1-0.2,1.5-1h0c0,0.3-0.1,0.6-0.1,0.9h1.2c0-0.5,0.1-1.4,0.2-2l0.5-2.3c-0.4-0.1-0.9-0.2-1.5-0.2
		C38.6,113.6,37.6,115.2,37.6,116.7 M49.5,94.8c0-2.1-0.7-3.1-2.2-3.1c-1.5,0-2.2,1-2.2,3.1c0,2,0.8,3.1,2.2,3.1
		C48.6,98,49.5,96.8,49.5,94.8 M100.8,91.4c0,1,0.9,1,2.6,1.3c4,0.9,5.8,1.6,5.8,4.6c0,3.1-2.4,4.7-7.1,4.7c-4.3,0-6.6-1.6-6.9-4.7
		h5.2c0,1.1,0.6,1.7,1.8,1.7c1.1,0,1.7-0.4,1.7-1.1c0-1-0.8-1.1-2.2-1.4c-4.2-0.9-6.1-1.6-6.1-4.5c0-2.9,2.3-4.4,6.6-4.4
		c4,0,6.2,1.4,6.6,4.2h-4.8c-0.1-0.8-0.7-1.3-1.7-1.3C101.3,90.4,100.8,90.8,100.8,91.4 M95.1,83.3c0,1.8-1.4,3.2-3.2,3.2
		c-1.8,0-3.2-1.4-3.2-3.2c0-1.7,1.4-3.2,3.2-3.2C93.7,80.2,95.1,81.6,95.1,83.3 M88.1,88l-4.4,13.5h-6L73,88h5.3l2.3,8.1L83,88H88.1
		z M72.7,83.3c0,1.8-1.4,3.2-3.2,3.2c-1.8,0-3.2-1.4-3.2-3.2c0-1.7,1.4-3.2,3.2-3.2C71.3,80.2,72.7,81.6,72.7,83.3 M65.6,93
		c-0.4-0.1-0.8-0.1-1.1-0.1c-2.2,0-3.1,0.9-3.1,3v5.5H56V88h5v2.5c0.7-2,2-2.8,4.2-2.8h0.5V93z M54.8,94.8c0,4.4-2.4,7.1-5.8,7.1
		c-1.8,0-3.2-0.7-4.4-2.1v1.7h-4.7V83.2h5.2v6.2c1.1-1.2,2.3-1.8,3.8-1.8C52.5,87.6,54.8,90.4,54.8,94.8 M66.7,88h5.4v13.5h-5.4V88z
		 M89.1,88h5.4v13.5h-5.4V88z M114.7,26.4H34.4v80.2h80.3V26.4z"/>
</g>
</svg>
