<?xml version="1.0" encoding="utf-8"?>
<!-- Generator: Adobe Illustrator 25.2.3, SVG Export Plug-In . SVG Version: 6.00 Build 0)  -->
<svg version="1.1" id="Layer_1" xmlns="http://www.w3.org/2000/svg" xmlns:xlink="http://www.w3.org/1999/xlink" x="0px" y="0px"
	 viewBox="0 0 150 150" style="enable-background:new 0 0 150 150;" xml:space="preserve">
<style type="text/css">
	.st0{fill:#231F20;}
</style>
<g>
	<path class="st0" d="M24.4,81.4c0-0.5,0.1-1,0.1-1.5v-9.7c0-0.5,0-1-0.1-1.5c1.4,1.8,2.2,4,2.2,6.4C26.6,77.3,25.9,79.6,24.4,81.4
		 M22.1,77.3c0,0.1-0.1,0.2-0.2,0.2H11.2c-0.1,0-0.2-0.1-0.2-0.2v-4.7c0-0.1,0.1-0.2,0.2-0.2h10.8c0.1,0,0.2,0.1,0.2,0.2V77.3z
		 M8.7,81.4c-1.4-1.8-2.2-4-2.2-6.4c0-2.3,0.8-4.6,2.2-6.4c0,0.5-0.1,1-0.1,1.5v9.7C8.6,80.4,8.6,80.9,8.7,81.4 M23,64.3
		c-0.1-0.1-0.2-0.1-0.3-0.1c-0.3,0-0.6,0.3-0.6,0.6v5c0,0.1-0.1,0.2-0.2,0.2H11.2c-0.1,0-0.2-0.1-0.2-0.2v-5c0-0.3-0.3-0.6-0.6-0.6
		c-0.1,0-0.2,0-0.3,0.1c-3.8,2.3-6,6.3-6,10.7c0,4.4,2.2,8.4,6,10.7c0.1,0.1,0.2,0.1,0.3,0.1c0.3,0,0.6-0.3,0.6-0.6v-5
		c0-0.1,0.1-0.2,0.2-0.2h10.8c0.1,0,0.2,0.1,0.2,0.2v5c0,0.3,0.3,0.6,0.6,0.6c0.1,0,0.2,0,0.3-0.1c3.8-2.3,6-6.3,6-10.7
		C29,70.6,26.8,66.6,23,64.3 M16.6,89.5C8.5,89.5,2,83,2,75c0-8,6.5-14.5,14.5-14.5c8,0,14.5,6.5,14.5,14.5
		C31.1,83,24.6,89.5,16.6,89.5 M16.6,58.4C7.4,58.4,0,65.9,0,75c0,9.1,7.4,16.6,16.6,16.6S33.1,84.1,33.1,75
		C33.1,65.9,25.7,58.4,16.6,58.4 M144.1,63.9v8.2h-6.7v-8.2h-5.8v22.2h5.8v-8.8h6.7v8.8h5.9V63.9H144.1z M121.1,81.3
		c-2.4,0-5-2-5-6.5c0-4,2.4-6.2,4.9-6.2c2,0,3.1,0.9,4,2.5l4.5-3c-2.2-3.4-4.9-4.8-8.6-4.8c-6.7,0-10.4,5.2-10.4,11.5
		c0,6.6,4,11.8,10.3,11.8c4.4,0,6.5-1.5,8.8-4.8l-4.5-3.1C124.2,80.3,123.2,81.3,121.1,81.3 M59.5,81.5h-4.1v-4.4h4
		c2,0,2.9,0.9,2.9,2.2C62.3,80.9,61.1,81.5,59.5,81.5 M55.4,68.5h4.1c1.3,0,2.1,0.9,2.1,2.1c0,1-0.8,2-2.2,2h-4V68.5z M64.2,74.6
		c0,0,3.1-1.1,3.1-4.6c0-4.1-2.9-6.1-6.9-6.1H49.9v22.2h11.4c3.5,0,6.9-2.5,6.9-6.2C68.2,75.5,64.2,74.6,64.2,74.6 M80,81.3
		c-3.2,0-4.7-2.8-4.7-6.3c0-3.5,1.6-6.3,4.7-6.3c3.2,0,4.8,2.8,4.8,6.3C84.8,78.5,83.2,81.3,80,81.3 M80,63.3
		c-6.4,0-10.2,5.2-10.2,11.7c0,6.5,3.8,11.7,10.2,11.7c6.5,0,10.2-5.1,10.2-11.7C90.3,68.5,86.5,63.3,80,63.3 M101.9,72.6l-0.8-0.2
		c-1.9-0.4-3.4-0.9-3.4-2.2c0-1.5,1.4-2.1,2.7-2.1c1.9,0,3.5,0.9,4.6,2.1l3.5-3.4c-1.6-1.8-4.1-3.5-8.1-3.5c-4.7,0-8.2,2.6-8.2,7
		c0,4,2.9,6,6.4,6.7l0.8,0.2c2.9,0.6,4,1.1,4,2.5c0,1.3-1.2,2.2-3,2.2c-2.2,0-4.1-1-5.6-2.9l-3.5,3.5c2,2.3,4.4,4.2,9.2,4.2
		c4.2,0,8.6-2.4,8.6-7.3C108.9,74.3,105.1,73.3,101.9,72.6"/>
</g>
</svg>
