<?xml version="1.0" encoding="utf-8"?>
<!-- Generator: Adobe Illustrator 25.2.3, SVG Export Plug-In . SVG Version: 6.00 Build 0)  -->
<svg version="1.1" id="Layer_1" xmlns="http://www.w3.org/2000/svg" xmlns:xlink="http://www.w3.org/1999/xlink" x="0px" y="0px"
	 viewBox="0 0 150 150" style="enable-background:new 0 0 150 150;" xml:space="preserve">
<style type="text/css">
	.st0{fill:#231F20;}
</style>
<g>
	<path class="st0" d="M1.9,75.8h3.3c7.8,0,15.3,6.4,15.3,14.2c-1,0.2-2.2,0.3-3.2,0.3C9,90.4,2.2,83.8,1.9,75.8 M20.5,60
		c0,7.8-7.5,14.2-15.3,14.2l-3.3,0c0.5-8,7.2-14.6,15.3-14.6C18.3,59.6,19.5,59.8,20.5,60 M22.1,60.4c6.1,2,10.5,7.8,10.5,14.6
		c0,6.7-4.3,12.5-10.5,14.6V60.4z M0,92.2h34.4V57.8H0V92.2z M48.4,83.3h5.4v-2.8h-5.4c-0.9,0-2.4-0.5-2.4-2.6v-2.2h7.2v-2.8H46v-4
		h7.6v-2.8H43v5.9v5.7c0,2.9,1.2,4.9,4.2,5.4c0.1,0,0.1,0,0.2,0h0.1C47.7,83.3,48,83.3,48.4,83.3 M55.9,83.3h2.9v-9.1v-8h-2.9v8.1
		V83.3z M70.3,75.8h-6.6c0.1-1.5,1.6-2.7,3.5-2.7C68.9,73.1,70.3,74.4,70.3,75.8 M73.3,77.9c0.1-0.5,0.1-1,0.1-1
		c0-3.5-2.4-6.2-6.1-6.2c-3.7,0-6.5,2.6-6.5,6.5v0.1c0,3.9,2.7,6.4,6.6,6.4c1.9,0,3.6-0.5,5.2-2.2l-1.8-1.7
		c-0.9,0.9-1.8,1.4-3.3,1.4c-2.2,0-3.6-1.3-3.7-3.2H73.3z M77.8,77.1c0-2.2,1.6-3.9,3.8-3.9c1.3,0,2.3,0.5,3.1,1.4l1.8-1.9
		c-1.4-1.5-3.1-2.1-5-2.1c-3.7,0-6.7,2.8-6.7,6.6s3,6.6,6.7,6.6c1.8,0,3.5-0.6,5-2.1l-1.8-1.9c-0.8,0.9-1.8,1.4-3.1,1.4
		C79.4,81,77.8,79.4,77.8,77.1 M91.3,78v-4.4H94V71h-2.7v-4.7h-2.9v6.1v5.8h0c0.1,2.8,1.3,4.7,4.2,5.1c0.1,0,0.1,0,0.2,0h0.1
		c0.3,0,0.6,0.1,0.9,0.1H94l0-2.8h-0.3C92.8,80.6,91.3,80.1,91.3,78L91.3,78z M102.7,73.6c0.5,0,0.9,0,1.2,0.1v-2.8
		c-0.1,0-0.6-0.1-0.9-0.1c-1.8,0-3.1,0.8-3.7,2.1V71h-2.9v6v6.3h2.9v-6.5C99.3,74.8,100.6,73.6,102.7,73.6 M114.9,77.2
		c0,2.2-1.7,3.9-3.8,3.9c-2.2,0-3.8-1.7-3.8-3.9c0-2.2,1.6-3.9,3.8-3.9C113.2,73.3,114.9,75,114.9,77.2 M117.8,77.2
		c0-3.7-3-6.5-6.7-6.5c-3.7,0-6.7,2.8-6.7,6.5c0,3.7,3,6.5,6.7,6.5C114.8,83.7,117.8,80.9,117.8,77.2 M119.6,83.3h2.9v-9.2v-7.9
		h-2.9v7.8V83.3z M136.1,78.4v-3.8V71h-3v7.2c0,2-1.1,2.8-2.7,2.8c-1.5,0-2.7-0.8-2.7-2.8V71h-3v3.6v3.9c0,3.5,2.6,5.2,5.6,5.2
		C133.5,83.7,136.1,81.9,136.1,78.4 M147.6,73.7l2-2.7h-3.2l-2.7,3.7L141,71h-3.2l1.8,2.5l2.4,3.3l-2.5,3.6l-2.1,3h3.2l3.1-4.4
		l3.1,4.4h3.2l-2.8-3.9l-1.9-2.6L147.6,73.7z"/>
</g>
</svg>
