<?xml version="1.0" encoding="utf-8"?>
<!-- Generator: Adobe Illustrator 25.1.0, SVG Export Plug-In . SVG Version: 6.00 Build 0)  -->
<svg version="1.1" id="Layer_1" xmlns="http://www.w3.org/2000/svg" xmlns:xlink="http://www.w3.org/1999/xlink" x="0px" y="0px"
	 viewBox="0 0 200 37" style="enable-background:new 0 0 200 37;" xml:space="preserve">
<style type="text/css">
	.st0{fill:#1478D2;}
</style>
<g>
	<path class="st0" d="M33.1,15.8C33,15.7,33,15.6,33,15.6c-0.2-0.2-0.4-0.5-0.7-0.7c-1.7-1.5-3.8-2.1-6-2.3c-1-0.1-1.9,0-2.9,0.2
		c-2,0.4-3.8,1.2-5.4,2.5c-1,0.7-1.8,1.5-2.8,2.2c-1.8,1.4-3.7,2.5-6,3.1c-1,0.3-2,0.5-3,0.5c-0.6,0.1-1.2,0-1.8,0.1
		c-0.1,0-0.2,0-0.4,0c0.1,0.1,0.1,0.2,0.2,0.3c0.2,0.2,0.4,0.4,0.6,0.6c1.7,1.4,3.6,2.1,5.8,2.2c0.8,0.1,1.6,0,2.4-0.1
		c1.6-0.2,3.1-0.8,4.5-1.5c1.2-0.6,2.2-1.4,3.2-2.3c1.4-1.2,3-2.3,4.7-3.1c0.8-0.4,1.7-0.7,2.6-1c1.1-0.3,2.3-0.5,3.5-0.6
		c0.5,0,0.9,0,1.4,0C32.9,15.8,33,15.8,33.1,15.8 M37.1,18.6c-0.3-0.1-0.5-0.2-0.7-0.3c-1-0.5-2.1-0.7-3.2-0.9
		c-1.6-0.2-3.2,0-4.8,0.5c-1,0.3-2,0.8-2.9,1.3C24.1,20,22.9,21,21.7,22c-1.1,0.9-2.3,1.7-3.5,2.3c-1.3,0.7-2.7,1.1-4.1,1.4
		c-0.8,0.2-1.7,0.3-2.5,0.3c-0.4,0-0.8,0-1.1,0c-0.1,0-0.1,0-0.2,0c0.1,0.1,0.2,0.2,0.2,0.3c0.7,0.8,1.6,1.4,2.6,1.9s2,0.7,3.1,0.9
		c1,0.1,2,0.1,3.1-0.1c0.8-0.1,1.6-0.3,2.3-0.6c0.8-0.3,1.6-0.7,2.4-1.1c1.3-0.7,2.4-1.7,3.6-2.7s2.5-1.8,3.8-2.5
		c1.6-0.8,3.2-1.3,4.9-1.5c0.2,0,0.4,0,0.6-0.1c0,0.1,0,0.2,0,0.3c-0.3,1.9-0.8,3.8-1.7,5.5c-1,2-2.2,3.7-3.8,5.2
		c-1.9,1.9-4.2,3.3-6.7,4.2c-1.2,0.4-2.4,0.7-3.6,0.9c-0.7,0.1-1.3,0.1-2,0.2c-0.9,0.1-1.8,0-2.7-0.1c-2.4-0.3-4.6-0.9-6.7-2.1
		c-1.8-1-3.4-2.2-4.8-3.7c-2.3-2.5-3.8-5.4-4.6-8.7c-0.2-0.9-0.3-1.8-0.4-2.8c0-0.3,0-0.6,0-1c0-0.1,0-0.1,0-0.3
		c0.1,0.1,0.2,0.1,0.3,0.1c1.1,0.6,2.2,0.9,3.4,1c1.8,0.2,3.5,0,5.2-0.6c0.9-0.3,1.8-0.7,2.6-1.1c1.3-0.7,2.5-1.7,3.7-2.7
		s2.5-1.8,3.9-2.5c1.6-0.8,3.3-1.3,5.1-1.5c0.8-0.1,1.6-0.1,2.4-0.2c0.1,0,0.2,0,0.4,0c-0.1-0.2-0.2-0.3-0.2-0.3
		c-0.6-0.7-1.3-1.2-2.1-1.7C23.4,8.4,22.3,8,21,7.9c-0.9-0.1-1.7-0.1-2.6,0c-1.3,0.1-2.5,0.5-3.7,0.9c-1.7,0.7-3.2,1.8-4.6,3
		c-1,0.8-1.9,1.6-3,2.3c-1.8,1.1-3.8,1.9-5.9,2.2c-0.3,0-0.5,0.1-0.8,0.1c-0.1,0-0.1,0-0.2,0c-0.1-0.3,0-0.5,0-0.8
		c0.5-3,1.6-5.7,3.4-8.1c2-2.7,4.6-4.7,7.6-6c1.5-0.6,3-1,4.6-1.3C17,0,18.1,0,19.2,0c3.3,0.2,6.4,1.1,9.2,2.9
		C31,4.5,33,6.6,34.6,9.3c1.1,1.9,1.8,3.9,2.2,6.1c0.1,0.8,0.2,1.6,0.2,2.4C37,18,37,18.3,37.1,18.6"/>
	<path class="st0" d="M57.3,20.5c-0.1,0.8-0.2,1.5-0.5,2.3c-0.5,1.2-1.4,2-2.6,2.3c-1.2,0.3-2.5,0.3-3.7,0c-1.3-0.3-2.1-1.2-2.6-2.4
		c-0.3-0.8-0.5-1.6-0.6-2.5c0-0.6-0.1-1.1-0.1-1.7c0-1.1,0.1-2.1,0.3-3.1c0.1-0.5,0.3-0.9,0.5-1.4c0.5-1.1,1.3-1.7,2.5-2
		c1.3-0.3,2.5-0.3,3.8,0s2.1,1.2,2.6,2.4c0.3,0.7,0.4,1.4,0.5,2.1C57.4,17.8,57.4,19.1,57.3,20.5 M62.4,15.9
		c-0.1-1.1-0.4-2.2-0.8-3.3c-0.9-2.3-2.5-4-4.8-4.9C55.7,7.3,54.6,7,53.4,7c-1.6-0.1-3.2,0-4.8,0.4c-1.7,0.5-3.2,1.4-4.4,2.8
		c-0.9,1.1-1.5,2.4-1.8,3.8c-0.4,1.5-0.5,3-0.5,4.5c0,0.7,0.1,1.5,0.1,2.2c0.1,1.2,0.4,2.4,0.8,3.5c1,2.4,2.6,4.2,5.1,5.1
		c1.2,0.5,2.5,0.7,3.8,0.7s2.7-0.1,4-0.4c1.6-0.4,2.9-1.2,4.1-2.3c1-1,1.7-2.2,2.1-3.6c0.5-1.6,0.7-3.2,0.7-4.9
		C62.6,17.9,62.6,16.9,62.4,15.9 M85.2,7.7c0-0.1,0.1-0.2,0.1-0.3h-5.4c-0.5,1.3-1,2.6-1.5,4c-0.5,1.3-1,2.7-1.5,4s-1,2.6-1.5,4
		c-0.5,1.3-1,2.6-1.5,4c0,0,0,0-0.1,0c-2-5.3-4.1-10.6-6.1-15.8h-5.4c2.9,7.4,5.9,14.8,8.8,22.2h0.3c1.6,0,3.2,0,4.8,0
		c0.3,0,0.3,0,0.4-0.3c1.1-2.6,2.1-5.3,3.2-7.9C81.6,16.8,83.4,12.3,85.2,7.7 M99.9,16.5c-0.2,0.1-9.3,0.1-9.6,0c-0.1-0.3,0-0.6,0-1
		c0.1-0.8,0.3-1.6,0.8-2.2c0.5-0.7,1.2-1.1,2-1.3c1.2-0.4,2.5-0.4,3.8,0c1.6,0.5,2.5,1.5,2.9,3.1C99.9,15.6,100,16.1,99.9,16.5
		 M105.2,20.3c0-1.5,0-3.1-0.2-4.6c-0.1-1.2-0.4-2.3-0.9-3.5c-1-2.3-2.7-3.9-5.1-4.7c-0.9-0.3-2-0.5-3.2-0.6c-1.4-0.1-2.7,0-4.1,0.4
		c-1.6,0.4-2.9,1.1-4,2.3c-1,1.1-1.7,2.4-2.1,3.8c-0.4,1.3-0.6,2.7-0.6,4c0,1.4,0,2.7,0.2,4.1c0.2,1.3,0.6,2.6,1.2,3.7
		c0.9,1.6,2.2,2.8,3.9,3.6c1.7,0.8,3.5,1.1,5.3,1.1c1.1,0,2.3,0,3.4-0.1c1.9-0.2,3.7-0.5,5.5-1c0.1,0,0.2-0.1,0.4-0.1
		c-0.5-1.5-1-3.1-1.5-4.6c-0.3,0.1-0.6,0.2-0.8,0.2c-2.3,0.6-4.7,0.8-7,0.7c-1,0-2-0.3-2.9-0.8c-1.6-0.8-2.3-2.4-2.2-4h0.4
		c4.7,0,9.4,0,14.1,0c0.1,0,0.3,0,0.4,0C105.2,20.3,105.2,20.3,105.2,20.3 M120.5,12.2c0.5-1.6,1-3.1,1.6-4.7
		c-0.8-0.2-1.7-0.4-2.5-0.5c-1.6-0.2-3.1-0.2-4.7-0.1c-1.5,0.1-2.9,0.3-4.3,0.6c-0.6,0.1-1.1,0.3-1.7,0.5c-0.1,0.4,0,21.3,0,21.5
		h5.1V12.1C116.2,11.7,118.3,11.6,120.5,12.2 M137.6,16.6H128c0-0.1,0-0.1,0-0.2c0-0.8,0.1-1.7,0.5-2.4c0.5-0.9,1.2-1.5,2.2-1.8
		c1.3-0.5,2.7-0.5,4.1,0c1.6,0.5,2.4,1.6,2.8,3.2C137.6,15.7,137.6,16.1,137.6,16.6 M142.8,20.4c0-0.1,0-0.1,0-0.2
		c0-1.5,0.1-2.9-0.1-4.3c-0.1-1.1-0.4-2.2-0.8-3.3c-0.5-1.2-1.2-2.4-2.1-3.3c-1.1-1-2.4-1.7-3.8-2c-2-0.5-4.1-0.5-6.1-0.1
		c-1.4,0.3-2.7,0.8-3.8,1.7c-1.3,1-2.1,2.3-2.7,3.8c-0.6,1.6-0.8,3.3-0.8,5c0,1,0,2.1,0.1,3.1c0.1,1.1,0.3,2.2,0.7,3.3
		c0.8,2.3,2.3,4,4.6,5c1.6,0.7,3.3,1,5.1,1.1c1.7,0,3.3,0,5-0.3c1.4-0.2,2.7-0.5,4-0.9c0.1,0,0.2-0.1,0.3-0.1
		c-0.5-1.5-1-3.1-1.5-4.6c-0.4,0.1-0.8,0.2-1.3,0.3c-2.1,0.5-4.3,0.7-6.4,0.6c-1,0-1.9-0.2-2.8-0.6c-1.2-0.6-2-1.4-2.4-2.7
		c-0.1-0.5-0.2-1-0.1-1.5C127.9,20.4,142.8,20.4,142.8,20.4z M160.6,16.6H151c-0.1-1.8,0.6-3.8,2.7-4.5c1.3-0.5,2.7-0.5,4.1,0
		c1.5,0.5,2.4,1.5,2.7,3C160.6,15.6,160.6,16.1,160.6,16.6 M165.9,20.2c0-1.5,0-3.1-0.2-4.6c-0.2-1.2-0.4-2.3-0.9-3.4
		c-0.9-2.2-2.4-3.7-4.6-4.5c-1.1-0.4-2.3-0.7-3.6-0.7c-1.3-0.1-2.6,0-3.9,0.3c-2.9,0.7-5,2.3-6.1,5.1c-0.6,1.5-0.9,3.1-0.9,4.7
		c-0.1,1.3-0.1,2.7,0.1,4c0.1,1.2,0.4,2.3,0.8,3.3c0.9,2.1,2.3,3.6,4.3,4.6c1.3,0.6,2.8,0.9,4.2,1.1c1.3,0.1,2.6,0.1,3.9,0
		c1.7-0.1,3.5-0.4,5.2-0.8c0.4-0.1,0.8-0.2,1.2-0.3c-0.5-1.6-1-3.1-1.5-4.6c-0.4,0.1-0.7,0.2-1,0.3c-2.2,0.5-4.4,0.8-6.6,0.7
		c-0.9,0-1.7-0.2-2.5-0.5c-1.7-0.7-2.7-2-2.8-3.8c0-0.1,0-0.3,0-0.5h14.9C165.9,20.3,165.9,20.3,165.9,20.2 M200,29.6V15.5
		c0-0.1,0-0.2-0.1-0.3c0-1-0.3-2.1-0.7-3c-0.8-2.2-2.3-3.7-4.5-4.5C193.5,7.2,192.3,7,191,7c-1,0-2,0-2.9,0.2
		c-1.2,0.2-2.4,0.5-3.5,1c-0.4,0.2-0.7,0.4-1.1,0.6l-0.1-0.1c-1.1-0.9-2.4-1.3-3.7-1.6c-1.2-0.2-2.5-0.2-3.7-0.1
		c-1.1,0.1-2.1,0.2-3.2,0.3c-1.3,0.1-2.5,0.4-3.8,0.7c-0.1,0-0.3,0.1-0.4,0.1v21.5c0.3,0.1,4.9,0.1,5.1,0V12.1c0.1,0,0.2,0,0.2-0.1
		c1.2-0.2,2.5-0.3,3.8-0.3c0.4,0,0.8,0.1,1.1,0.1c1.4,0.3,2.3,1.1,2.7,2.5c0.1,0.5,0.2,1,0.2,1.5c0,0.7,0,1.3,0,2
		c0,3.8,0,7.5,0,11.3c0,0.1,0,0.2,0,0.4h5.1v-0.4c0-4.2,0-8.4,0-12.6c0-0.3,0-0.6,0-0.9c-0.1-1-0.3-2-0.6-2.9c0-0.1-0.1-0.2-0.1-0.3
		c0.2-0.1,0.4-0.1,0.5-0.2c1-0.3,2.1-0.4,3.1-0.5c0.8,0,1.5,0,2.3,0.1c1.4,0.3,2.3,1.2,2.7,2.6c0.1,0.5,0.2,1.1,0.2,1.6
		c0,4.4,0,8.7,0,13.1v0.4h0.4c1.5,0,2.9,0,4.4,0C199.8,29.6,199.9,29.6,200,29.6"/>
</g>
</svg>
