<svg width="129" height="40" viewBox="0 0 129 40" fill="none" xmlns="http://www.w3.org/2000/svg">
<g clip-path="url(#clip0_7771_13746)">
<path d="M99.9264 16.7271C99.658 16.7211 99.198 16.7448 98.9394 16.7646C99.0855 17.5088 99.0756 19.6841 99.0677 21.3798C98.5683 20.7778 98.0018 20.1184 97.1707 19.1768C96.5075 18.4247 95.9804 17.7891 95.2717 17.11C94.9164 16.7705 94.8197 16.7567 94.3499 16.7705C94.0853 16.7784 93.6076 16.8514 93.0213 16.9442C93.0194 16.9758 93.0194 17.037 93.0391 17.0784C93.3313 17.0844 93.5069 17.2008 93.7813 17.4239C93.8406 17.4732 93.9037 17.5265 93.9689 17.5838C94.0143 18.403 94.034 19.5479 94.0202 20.5211C94.0064 21.4726 93.9629 22.3945 93.8998 23.2986C94.1426 23.2946 94.5295 23.263 94.7565 23.2315C94.6677 22.4616 94.6716 21.3127 94.6578 20.2882C94.6479 19.6624 94.644 18.8906 94.6479 18.2293C95.1533 18.7406 95.7534 19.3979 96.4561 20.1855C96.9852 20.7738 98.2367 22.205 99.0283 23.2433C99.2671 23.2907 99.5869 23.2927 99.731 23.2591C99.6817 21.2969 99.6915 18.1582 99.9284 16.7251L99.9264 16.7271Z" fill="black"/>
<path d="M81.509 19.2459C80.5339 18.5036 80.445 18.2036 80.4668 17.8542C80.4944 17.4002 80.9326 17.1356 81.4044 17.1356C81.7518 17.1356 82.0341 17.1949 82.3263 17.3745C82.5395 17.5087 82.6836 17.7022 82.7487 18.02C82.7862 18.0259 82.8474 18.022 82.8849 18.0141C82.9185 17.6509 82.952 17.1791 82.9599 16.7922C82.5257 16.7448 82.1091 16.6718 81.6235 16.6718C80.4016 16.6718 79.5429 17.2442 79.5429 18.4286C79.5429 19.2696 80.0858 19.8124 80.8951 20.4303C81.7439 21.0797 82.1684 21.4094 82.1723 22.0391C82.1743 22.3964 81.9019 22.9037 81.0728 22.9037C80.6306 22.9037 80.2417 22.807 79.9614 22.5662C79.7581 22.3905 79.6239 22.1161 79.6041 21.8397C79.5706 21.8299 79.4995 21.8338 79.4699 21.8397C79.4166 22.3234 79.3732 22.8109 79.3633 23.1505C79.8094 23.3025 80.3799 23.3992 80.8102 23.3992C82.35 23.3992 83.108 22.5326 83.108 21.5515C83.108 20.5704 82.7092 20.1559 81.509 19.2459Z" fill="black"/>
<path d="M111.461 16.502C113.774 16.502 114.805 18.2609 114.805 19.8953C114.805 22.2425 113.267 23.4979 111.299 23.4979C109.043 23.4979 107.838 21.7371 107.838 19.9269C107.838 18.7445 108.407 17.4851 109.579 16.9245C110.118 16.6461 110.772 16.502 111.463 16.502H111.461ZM111.06 16.96C109.941 16.96 109.092 17.8878 109.092 19.4966C109.092 21.4528 110.266 23.0182 111.593 23.0182C112.619 23.0182 113.514 22.201 113.514 20.5251C113.514 18.3951 112.46 16.96 111.058 16.96H111.06Z" fill="black"/>
<path d="M122.979 23.1308C122.584 23.113 122.241 22.9432 121.781 22.4162C120.948 21.4667 120.385 20.6731 119.971 20.0868C120.67 19.5677 121.066 18.8866 121.066 18.2135C121.066 17.2502 120.328 16.6915 119.079 16.6915C118.68 16.6915 118.036 16.7211 117.878 16.731C117.529 16.7547 117.012 16.7764 116.534 16.7705C116.528 16.804 116.528 16.8672 116.532 16.9047C116.799 16.9264 116.826 17.1001 116.874 17.7279C116.917 18.3023 116.951 19.4315 116.954 20.0158C116.962 21.1094 116.935 22.2681 116.879 23.2512C117.245 23.2512 117.786 23.2393 118.182 23.2176C118.143 22.4557 118.115 21.5358 118.099 20.5764C118.39 20.5803 118.731 20.5764 119.013 20.5527C119.304 21.0225 119.983 22.1181 120.593 22.8623C120.883 23.2176 121.049 23.2709 121.489 23.3005C121.895 23.3282 122.381 23.3084 122.977 23.2591C122.983 23.2235 122.987 23.1564 122.977 23.1268L122.979 23.1308ZM119.246 20.1322C118.903 20.1836 118.459 20.1855 118.093 20.1599C118.08 19.1097 118.078 18.0339 118.08 17.0784C118.23 17.0686 118.407 17.0646 118.538 17.0705C119.386 17.108 119.813 17.5621 119.813 18.5609C119.813 19.238 119.582 19.8342 119.244 20.1322H119.246ZM119.963 20.0928C119.963 20.0967 119.963 20.0967 119.963 20.0928V20.0928Z" fill="black"/>
<path d="M128.988 16.6066C128.52 16.6303 128.177 16.6856 127.803 16.7488C127.555 16.7922 127.383 16.9225 127.231 17.1594C126.862 17.7377 126.329 18.7188 125.871 19.6012C125.435 18.7859 124.718 17.5996 124.079 16.8988C123.885 16.6876 123.782 16.658 123.546 16.6698C123.176 16.6895 122.643 16.8001 122.195 16.8869C122.195 16.9225 122.199 16.9777 122.219 17.0212C122.478 17.0014 122.673 17.1001 122.874 17.2995C123.204 17.6292 123.575 18.0674 123.865 18.4543C124.333 19.0761 124.767 19.8203 125.071 20.4718C125.113 21.2929 125.081 22.3609 125.006 23.2531C125.368 23.2591 126.021 23.2492 126.37 23.2235C126.285 22.3175 126.234 21.0284 126.282 20.0572C126.803 19.1117 127.557 17.9371 128.115 17.3271C128.494 16.9126 128.773 16.7665 128.998 16.7152C129.002 16.6895 128.998 16.6283 128.988 16.6066Z" fill="black"/>
<path d="M107.659 16.6718C107.197 16.8001 106.611 16.8001 105.989 16.808C104.641 16.8238 103.302 16.7724 102.165 16.8021C101.94 16.808 101.729 16.8692 101.601 17.0626C101.484 17.2383 101.392 17.4456 101.208 17.7772C101.222 17.8068 101.277 17.8384 101.313 17.8483C101.553 17.5344 101.642 17.4811 102.584 17.487C102.809 17.487 103.166 17.487 103.581 17.487C103.612 19.2696 103.575 21.3877 103.488 23.2531C103.804 23.261 104.52 23.263 104.838 23.2334C104.738 21.4489 104.741 19.2952 104.818 17.4831C105.245 17.4831 105.655 17.4791 105.989 17.4772C106.348 17.4732 106.642 17.4436 106.866 17.3212C107.122 17.1771 107.466 16.9501 107.701 16.7488C107.699 16.7211 107.677 16.6816 107.659 16.6698V16.6718Z" fill="black"/>
<path d="M91.4481 23.0893C91.1224 23.0834 91.0572 23.0143 91.0197 22.7063C90.9368 22.0273 90.9408 21.1251 90.9408 19.9624C90.9408 18.7307 90.9802 17.6252 91.0414 16.7803C90.6841 16.7744 90.1452 16.7843 89.7919 16.808C89.7978 17.945 89.7919 18.8905 89.7958 20.069C89.7899 20.6948 89.7879 21.2673 89.7879 21.7864C89.2372 22.4931 88.7239 22.7892 88.1238 22.7892C87.4665 22.7892 87.0105 22.5405 86.7223 22.0509C86.5012 21.6779 86.4538 21.1409 86.4499 20.4599C86.444 19.4808 86.4499 17.8325 86.4953 16.7408C86.1715 16.7408 85.38 16.7724 84.9674 16.7981C84.9634 16.8238 84.9575 16.8968 84.9634 16.9304C85.2102 16.9481 85.2615 17.11 85.2892 17.5916C85.3405 18.5194 85.3188 19.9763 85.3188 20.9494C85.3188 21.5417 85.4135 22.0312 85.6366 22.424C86.0038 23.0735 86.665 23.4209 87.6244 23.4209C88.4851 23.4209 89.1878 23.0537 89.7919 22.4833C89.7998 22.7695 89.8156 22.9985 89.8333 23.2334C90.1808 23.2492 91.0138 23.2433 91.4481 23.2215C91.454 23.19 91.458 23.1288 91.452 23.0873L91.4481 23.0893Z" fill="black"/>
<path d="M75.3084 17.3863C75.4052 17.2245 75.5394 16.8771 75.5611 16.7349C74.4576 16.7961 72.9396 16.7862 71.7078 16.7665C71.7039 16.8099 71.7039 16.8553 71.7098 16.9007C71.998 16.9264 72.0138 17.2344 72.0454 17.7417C72.0849 18.3655 72.0928 19.0958 72.0947 19.8361C72.0987 20.987 72.0513 22.2148 71.9743 23.2551C72.3257 23.2551 72.8883 23.2433 73.2752 23.2215C73.2555 22.6728 73.2436 21.9996 73.2377 21.3304C73.2377 20.9929 73.2377 20.6474 73.2377 20.298C73.8062 20.298 74.4596 20.3079 75.0479 20.3296C75.1485 20.1737 75.2729 19.8361 75.2966 19.7038C74.6077 19.7512 73.8338 19.7571 73.2397 19.7473C73.2456 18.9458 73.2574 18.1404 73.2712 17.3824C73.8792 17.3804 74.6195 17.3725 75.3065 17.3863H75.3084Z" fill="black"/>
<path d="M66.615 16.502C68.9285 16.502 69.959 18.2609 69.959 19.8953C69.959 22.2425 68.4212 23.4979 66.4531 23.4979C64.1968 23.4979 62.9927 21.7351 62.9927 19.9269C62.9927 18.7445 63.5612 17.4851 64.7338 16.9245C65.2727 16.6461 65.9261 16.502 66.615 16.502ZM66.2143 16.96C65.097 16.96 64.2462 17.8878 64.2462 19.4966C64.2462 21.4528 65.4207 23.0182 66.7492 23.0182C67.7757 23.0182 68.6699 22.201 68.6699 20.527C68.6699 18.3971 67.6158 16.962 66.2143 16.962V16.96Z" fill="black"/>
<path d="M30.4569 23.1189C30.0838 23.1051 30.0838 22.9491 30.0562 22.6215C29.995 21.9148 30.0088 20.5014 30.0068 19.846C30.0127 18.8254 30.0424 17.6193 30.1055 16.7646C29.7245 16.7567 29.2073 16.7606 28.8086 16.7803C28.8422 17.3666 28.8599 18.405 28.8599 19.5321C27.8848 19.5894 26.3904 19.5913 25.5495 19.5578C25.5574 18.5767 25.5732 17.5956 25.589 16.7389C25.206 16.7389 24.448 16.7705 24.0591 16.7843C24.0552 16.8218 24.0552 16.883 24.0591 16.9166C24.3374 16.9264 24.3769 17.2028 24.4085 17.7121C24.446 18.3339 24.444 19.0998 24.446 19.8381C24.45 20.9889 24.4026 22.2168 24.3276 23.2531C24.679 23.2531 25.2001 23.2413 25.5811 23.2216C25.5515 22.3648 25.5436 21.2851 25.5475 20.1697C26.5345 20.1362 27.9321 20.1362 28.8599 20.1599C28.854 21.2831 28.8343 22.428 28.7987 23.2551C29.1521 23.2689 30.0759 23.265 30.4549 23.2472C30.4668 23.2196 30.4687 23.1485 30.4589 23.1169L30.4569 23.1189Z" fill="black"/>
<path d="M51.2908 19.2439C50.3156 18.5036 50.2268 18.2016 50.2485 17.8542C50.2741 17.4002 50.7143 17.1337 51.1861 17.1337C51.5336 17.1337 51.8158 17.1929 52.108 17.3745C52.3212 17.5087 52.4653 17.7002 52.5304 18.02C52.5679 18.0259 52.6291 18.022 52.6666 18.0141C52.7002 17.6489 52.7338 17.1791 52.7417 16.7922C52.3074 16.7468 51.8909 16.6718 51.4052 16.6718C50.1814 16.6718 49.3246 17.2442 49.3246 18.4286C49.3246 19.2676 49.8675 19.8124 50.6768 20.4303C51.5257 21.0778 51.9501 21.4094 51.954 22.0391C51.956 22.3984 51.6836 22.9037 50.8545 22.9037C50.4123 22.9037 50.0234 22.809 49.7431 22.5662C49.5398 22.3905 49.4036 22.1161 49.3858 21.8417C49.3523 21.8318 49.2812 21.8358 49.2536 21.8417C49.2003 22.3234 49.1568 22.8129 49.147 23.1505C49.5931 23.3044 50.1636 23.3992 50.5939 23.3992C52.1337 23.3992 52.8917 22.5326 52.8917 21.5515C52.8917 20.5704 52.4929 20.1559 51.2927 19.2439H51.2908Z" fill="black"/>
<path d="M58.9082 22.2109C58.7582 22.4991 58.4186 22.6274 57.7652 22.6689C57.5382 22.6827 57.2243 22.6748 57.0664 22.661C56.5828 22.6195 56.4268 22.5425 56.3913 21.9404C56.3617 21.4331 56.3637 20.679 56.3676 20.1382C56.9381 20.1382 57.5935 20.1421 58.1936 20.1638C58.2765 20.0493 58.4127 19.6999 58.4463 19.5381C57.7475 19.5854 56.9638 19.5953 56.3716 19.5874C56.3775 18.8274 56.3874 18.099 56.4012 17.3844C57.0092 17.3824 57.7475 17.3824 58.4423 17.3943C58.5331 17.2561 58.6535 16.9383 58.7009 16.7429C57.5007 16.7942 55.9018 16.7823 54.8358 16.7665C54.8318 16.81 54.8318 16.8751 54.8338 16.9028C55.12 16.9284 55.1398 17.2324 55.1714 17.7397C55.2089 18.3635 55.2187 19.0821 55.2207 19.8223C55.2247 20.912 55.1635 22.2464 55.0924 23.263C56.1446 23.2078 57.4277 23.2393 58.7858 23.263C58.8865 22.9906 59.0049 22.4951 59.0345 22.2227C59.0089 22.2109 58.9358 22.205 58.9042 22.2109H58.9082Z" fill="black"/>
<path d="M47.2855 23.0913C46.9598 23.0854 46.8946 23.0163 46.8571 22.7083C46.7742 22.0293 46.7782 21.1271 46.7782 19.9645C46.7782 18.7327 46.8176 17.6272 46.8788 16.7823C46.5215 16.7764 45.9807 16.7863 45.6293 16.81C45.6352 17.947 45.6293 18.8926 45.6332 20.0711C45.6273 20.6968 45.6253 21.2693 45.6253 21.7884C45.0746 22.4951 44.5613 22.7912 43.9612 22.7912C43.3039 22.7912 42.8479 22.5425 42.5597 22.053C42.3386 21.6799 42.2912 21.1429 42.2873 20.4619C42.2814 19.4828 42.2873 17.8345 42.3327 16.7429C42.0089 16.7448 41.2193 16.7744 40.8048 16.8001C40.8008 16.8258 40.7949 16.8988 40.8008 16.9324C41.0476 16.9501 41.0989 17.112 41.1266 17.5937C41.1779 18.5214 41.1562 19.9783 41.1562 20.9515C41.1562 21.5437 41.2509 22.0332 41.474 22.4261C41.8412 23.0755 42.5024 23.4229 43.4618 23.4229C44.3225 23.4229 45.0252 23.0558 45.6313 22.4853C45.6392 22.7715 45.655 23.0005 45.6727 23.2354C46.0201 23.2512 46.8532 23.2453 47.2855 23.2236C47.2914 23.19 47.2954 23.1308 47.2894 23.0893L47.2855 23.0913Z" fill="black"/>
<path d="M35.7766 16.502C38.0902 16.502 39.1206 18.2609 39.1206 19.8953C39.1206 22.2425 37.5828 23.4979 35.6147 23.4979C33.3584 23.4979 32.1543 21.7351 32.1543 19.9269C32.1543 18.7445 32.7228 17.4851 33.8954 16.9245C34.4343 16.6461 35.0877 16.502 35.7766 16.502ZM35.3759 16.96C34.2586 16.96 33.4078 17.8878 33.4078 19.4966C33.4078 21.4528 34.5823 23.0182 35.9108 23.0182C36.9373 23.0182 37.8316 22.201 37.8316 20.527C37.8316 18.3971 36.7774 16.962 35.3759 16.962V16.96Z" fill="black"/>
<path d="M13.5673 23.1149C13.1922 23.1011 13.1922 22.9452 13.1626 22.6194C13.1014 21.9147 13.1152 20.4994 13.1132 19.844C13.1192 18.8234 13.1488 17.6153 13.2119 16.7606C12.8329 16.7527 12.3138 16.7566 11.917 16.7764C11.9506 17.3626 11.9663 18.401 11.9683 19.5301C10.9951 19.5874 9.50277 19.5893 8.65987 19.5558C8.66776 18.5747 8.68356 17.5936 8.69935 16.7369C8.31441 16.7369 7.55837 16.7685 7.16751 16.7823C7.16356 16.8178 7.16356 16.883 7.16751 16.9165C7.44585 16.9264 7.48533 17.2027 7.51889 17.7101C7.55639 18.3319 7.55442 19.0978 7.55639 19.8381C7.56034 20.9889 7.51099 22.2148 7.434 23.2531C7.78735 23.2531 8.30652 23.2432 8.68948 23.2195C8.65987 22.3628 8.65197 21.283 8.65592 20.1677C9.64293 20.1342 11.0386 20.1342 11.9663 20.1578C11.9604 21.2811 11.9407 22.428 11.9052 23.2551C12.2565 23.2689 13.1823 23.265 13.5633 23.2472C13.5752 23.2176 13.5771 23.1465 13.5673 23.1149Z" fill="black"/>
<path d="M19.7679 22.2089C19.6179 22.4971 19.2784 22.6254 18.625 22.6668C18.398 22.6807 18.0841 22.6728 17.9262 22.6589C17.4425 22.6175 17.2866 22.5405 17.2511 21.9384C17.2214 21.4311 17.2234 20.677 17.2274 20.1362C17.7979 20.1362 18.4532 20.1401 19.0533 20.1618C19.1362 20.0473 19.2725 19.6979 19.306 19.5361C18.6072 19.5834 17.8255 19.5933 17.2313 19.5854C17.2372 18.8254 17.2471 18.097 17.2609 17.3824C17.8689 17.3804 18.6072 17.3804 19.3021 17.3923C19.3929 17.2541 19.5133 16.9363 19.5607 16.7408C18.3605 16.7922 16.7635 16.7803 15.6955 16.7645C15.6916 16.808 15.6896 16.8731 15.6936 16.9007C15.9798 16.9264 15.9995 17.2304 16.0311 17.7377C16.0706 18.3595 16.0785 19.0801 16.0805 19.8203C16.0844 20.91 16.0232 22.2444 15.9522 23.261C17.0043 23.2057 18.2874 23.2373 19.6455 23.261C19.7462 22.9886 19.8647 22.4931 19.8943 22.2207C19.8686 22.2089 19.7956 22.2029 19.764 22.2089H19.7679Z" fill="black"/>
<path d="M6.45107 16.6718C5.98717 16.8001 5.40286 16.8001 4.78105 16.808C3.43477 16.8238 2.09441 16.7744 0.957377 16.802C0.730365 16.808 0.521119 16.8692 0.394782 17.0626C0.278315 17.2383 0.185537 17.4456 0.00195312 17.7772C0.0157712 17.8068 0.0710437 17.8384 0.106576 17.8483C0.347406 17.5344 0.436237 17.4811 1.37784 17.487C1.60288 17.487 1.96018 17.487 2.37472 17.487C2.40631 19.2696 2.3688 21.3857 2.28194 23.2531C2.59976 23.261 3.31435 23.263 3.63217 23.2334C3.53149 21.4489 3.53544 19.2952 3.6144 17.4831C4.03882 17.4831 4.45139 17.4791 4.78302 17.4772C5.14229 17.4732 5.43642 17.4436 5.65948 17.3212C5.91611 17.1771 6.25959 16.9501 6.49449 16.7507C6.49252 16.7231 6.47081 16.6836 6.45304 16.6718H6.45107Z" fill="black"/>
</g>
<defs>
<clipPath id="clip0_7771_13746">
<rect width="129" height="6.99591" fill="white" transform="translate(0 16.502)"/>
</clipPath>
</defs>
</svg>
