<?xml version="1.0" encoding="UTF-8"?> <svg xmlns="http://www.w3.org/2000/svg" width="184" height="78" viewBox="0 0 184 78" fill="none"><path d="M96.6057 28.1358C98.7052 29.3923 101.407 29.9925 102.107 30.1695C99.2199 27.6479 96.3419 25.0874 93.2194 22.9177C92.5202 22.4298 92.5631 23.112 92.5631 23.1617C92.5781 24.0317 92.5738 24.2454 92.6039 25.1824C92.6103 25.3918 92.7668 24.5067 93.1336 25.435C93.8906 27.3435 94.9994 29.4937 97.2705 30.0767C97.2812 30.081 97.2919 30.0788 97.2898 30.0788C97.3563 30.0097 97.0131 29.3577 96.8266 29.008C96.4877 28.3733 96.4062 28.1876 96.477 28.125C96.5092 28.1013 96.5499 28.1034 96.6057 28.1358ZM93.6912 20.4933C93.7641 20.4674 94.2766 20.2687 95.662 19.7031C95.8722 19.5757 95.9837 19.3793 96.0588 19.1569C96.5842 17.6457 96.9166 16.8102 97.5815 15.6573C98.0983 14.7614 98.9175 13.5351 99.5631 12.963C99.5888 12.9824 99.5995 12.9932 99.6252 13.0148C98.731 14.2864 97.2062 17.6262 96.996 18.9453C96.9788 19.0468 97.0346 19.0943 97.1611 19.0684C100.665 17.6565 103.833 15.6314 107.245 14.0338C106.846 13.9388 105.386 13.574 101.043 14.1461C101.024 14.1482 101.006 14.1396 100.996 14.1266C100.985 14.1137 100.981 14.0899 100.985 14.0748C101.236 12.5334 102.726 10.5688 102.793 10.042C99.7925 10.26 97.4013 12.9803 95.8443 15.3745C95.8272 15.3939 95.7993 15.3982 95.7779 15.3853C95.7543 15.3702 95.7478 15.3421 95.7607 15.3162C97.0646 12.65 98.4564 9.24104 98.5101 6.14733C98.4972 6.12574 98.4843 6.13006 98.4693 6.1279C96.9745 6.3956 96.0395 7.04328 95.557 7.39302C95.4819 7.44699 95.4133 7.49449 95.3532 7.53335C95.3361 7.54414 95.3168 7.53982 95.2996 7.53119C95.2846 7.52471 95.2696 7.50096 95.2717 7.48153C95.2739 7.47722 95.2739 7.47506 95.2717 7.46642C95.1516 5.00311 92.5138 1.55749 91.9712 0.896866C92.0548 5.08946 92.1235 9.29286 92.2457 13.4768C92.25 13.6301 92.4044 13.7121 92.5031 13.615C93.8005 12.3628 94.9393 10.8386 95.9559 9.45261C95.9773 9.46988 95.9902 9.47636 96.0138 9.49363C95.4712 10.4695 94.8814 11.4949 94.238 12.501C93.7212 13.3106 93.1572 14.0835 92.546 14.7959C92.3851 14.9837 92.295 15.2385 92.3015 15.4997C92.3615 17.2506 92.3873 18.0796 92.4194 19.4073C92.3186 21.3201 93.4917 20.5602 93.6912 20.4933ZM103.747 19.0857C103.679 19.0403 103.595 19.0144 103.591 18.9496C103.584 18.8741 106.196 16.9505 107.485 14.2627C104.054 15.9876 100.925 18.2199 97.4013 19.7787C97.3413 19.8629 97.3584 19.9665 97.5922 20.0528C99.1041 20.6163 101.452 20.4242 102.879 20.4393V20.5105C100.607 20.9272 98.4264 20.9013 96.6271 20.3098C96.4791 20.2623 96.3119 20.2687 96.1682 20.3313C94.5447 21.0373 94.0686 21.1582 93.9678 21.1971C93.7405 21.2877 92.5588 21.4669 93.5539 22.1902C96.2153 24.1267 98.6902 26.4087 101.208 28.6475C101.017 28.2006 100.485 26.9894 99.6295 25.4307C99.5781 25.3379 99.6017 25.2796 99.6274 25.245C99.7067 25.1436 99.9877 25.1306 100.322 25.1587C100.839 25.2062 101.495 25.3594 101.761 25.4285C101.515 24.9881 100.095 23.2523 99.0505 22.8918C99.0441 22.8875 99.0376 22.8853 99.0312 22.881C99.0162 22.8681 99.0012 22.8551 98.984 22.8422C98.9283 22.7947 98.9004 22.7731 98.9175 22.7385C98.9325 22.704 98.9754 22.7083 99.0569 22.7191C101.549 23.0278 104.74 21.7325 106.569 20.1219C106.638 20.0615 106.621 19.9471 106.535 19.919C105.538 19.5995 104.165 19.3555 103.747 19.0857ZM86.7277 18.9453C86.5175 17.6262 84.9584 14.2864 84.062 13.0148C84.0877 12.9932 84.1006 12.9824 84.1241 12.963C84.7697 13.5351 85.5996 14.7614 86.1293 15.6573C86.8092 16.8102 87.1587 17.6457 87.6842 19.1569C87.7614 19.3793 87.8707 19.5757 88.0852 19.7031C89.4942 20.2687 89.6615 20.3249 89.7323 20.3551C90.3091 20.5904 91.4544 21.3201 91.3879 19.4073C91.4458 18.0796 91.4672 17.2506 91.4972 15.4997C91.4994 15.2385 91.4029 14.9837 91.2378 14.7959C90.6094 14.0835 90.0218 13.3106 89.4878 12.501C88.8251 11.4949 88.2203 10.4695 87.6756 9.49363C87.6992 9.47636 87.7099 9.46988 87.7335 9.45261C88.7522 10.8386 89.9274 12.3628 91.2549 13.615C91.3579 13.7121 91.5101 13.6301 91.5123 13.4768C91.5316 9.28422 91.6324 5.08946 91.716 0.896866C91.1734 1.55749 88.5377 5.00311 88.4155 7.46642C88.4133 7.47506 88.4155 7.47722 88.4155 7.48153C88.4176 7.50096 88.4047 7.52471 88.3876 7.53119C88.3704 7.53982 88.3511 7.54414 88.334 7.53335C88.2739 7.49449 88.2053 7.44699 88.1302 7.39302C87.6477 7.04328 86.7127 6.3956 85.2179 6.1279C85.205 6.13006 85.19 6.12574 85.1771 6.14733C85.1707 9.09424 86.6505 12.8054 87.9823 15.3162C87.9973 15.3421 87.9887 15.3702 87.9673 15.3853C87.9437 15.3982 87.9158 15.3939 87.8986 15.3745C86.1186 13.1184 84.0062 10.273 80.8944 10.042C80.9609 10.5688 82.4535 12.5334 82.7023 14.0748C82.7066 14.0899 82.7023 14.1137 82.6916 14.1266C82.6808 14.1396 82.6637 14.1482 82.6465 14.1461C78.3037 13.574 76.8433 13.9388 76.4444 14.0338C79.865 15.6357 83.0325 17.6759 86.5583 19.0684C86.6869 19.0943 86.7448 19.0468 86.7277 18.9453ZM91.6066 32.581C91.6753 31.7023 91.7439 30.7934 91.8104 29.8802C91.7932 27.3931 91.761 25.0399 91.7632 23.058C91.7632 22.9933 91.4887 22.106 90.2877 23.017C87.5641 25.0853 84.8748 27.4277 82.1854 29.6621C82.8846 29.4873 85.5889 28.8677 87.6863 27.5939C87.7421 27.5594 87.7828 27.5594 87.815 27.581C87.8858 27.6436 87.8043 27.8314 87.4654 28.4726C87.2788 28.8245 86.9357 29.483 87.0022 29.552C87 29.552 87.0108 29.552 87.0215 29.5499C88.5592 29.1893 90.0218 27.0304 90.8003 24.8068C90.8539 24.6556 91.0726 24.6902 91.0662 24.8499C91.004 26.2921 90.9976 28.3301 90.9697 28.8482C90.8989 30.1824 90.7166 31.3094 90.2941 32.527C90.3928 32.6932 90.4678 32.8811 90.7981 32.989C91.1284 33.097 91.6903 33.2502 92.1556 32.9307C91.9819 32.8293 91.8061 32.7278 91.6302 32.6263C91.6238 32.6112 91.6152 32.5939 91.6066 32.581ZM84.7718 22.7385C84.7547 22.704 84.7139 22.7083 84.6303 22.7191C82.1383 23.0257 78.9492 21.7325 77.1199 20.1219C77.0513 20.0615 77.0663 19.9471 77.1521 19.919C78.1515 19.5995 79.524 19.3555 79.94 19.0857C80.0087 19.0403 80.0945 19.0144 80.0987 18.9496C80.103 18.8741 77.4909 16.9505 76.202 14.2627C79.6484 15.9747 82.7366 18.3041 86.3116 19.7787C86.3717 19.8629 86.3524 19.9665 86.1143 20.0528C84.5767 20.6163 82.2348 20.4242 80.8086 20.4393V20.5105C83.0797 20.9272 85.2586 20.9013 87.0944 20.3098C87.2467 20.2623 87.4161 20.2687 87.5619 20.3313C89.2068 21.0373 89.6786 21.1582 89.7794 21.1971C90.0068 21.2877 91.1477 21.4972 90.1333 22.2225C87.4633 24.1332 84.9949 26.4108 82.4792 28.6475C82.6701 28.2006 83.202 26.9894 84.0598 25.4307C84.1113 25.3379 84.0855 25.2796 84.0598 25.245C83.9805 25.1436 83.7017 25.1306 83.365 25.1587C82.8481 25.2062 82.1919 25.3594 81.9259 25.4285C82.1726 24.9881 83.5923 23.2523 84.6367 22.8918C84.6431 22.8875 84.6496 22.8853 84.656 22.881C84.671 22.8681 84.6882 22.8551 84.7032 22.8422C84.7589 22.7947 84.7868 22.7731 84.7718 22.7385Z" fill="white"></path><path d="M96.6057 28.1358C98.7052 29.3923 101.407 29.9925 102.107 30.1695C99.2199 27.6479 96.3419 25.0874 93.2194 22.9177C92.5202 22.4298 92.5631 23.112 92.5631 23.1617C92.5781 24.0317 92.5738 24.2454 92.6039 25.1824C92.6103 25.3918 92.7668 24.5067 93.1336 25.435C93.8906 27.3435 94.9994 29.4937 97.2705 30.0767C97.2812 30.081 97.2919 30.0788 97.2898 30.0788C97.3563 30.0097 97.0131 29.3577 96.8266 29.008C96.4877 28.3733 96.4062 28.1876 96.477 28.125C96.5092 28.1013 96.5499 28.1034 96.6057 28.1358ZM93.6912 20.4933C93.7641 20.4674 94.2766 20.2687 95.662 19.7031C95.8722 19.5757 95.9837 19.3793 96.0588 19.1569C96.5842 17.6457 96.9166 16.8102 97.5815 15.6573C98.0983 14.7614 98.9175 13.5351 99.5631 12.963C99.5888 12.9824 99.5995 12.9932 99.6253 13.0148C98.731 14.2864 97.2062 17.6262 96.996 18.9453C96.9788 19.0468 97.0346 19.0943 97.1611 19.0684C100.665 17.6565 103.833 15.6314 107.245 14.0338C106.846 13.9388 105.386 13.574 101.043 14.1461C101.024 14.1482 101.006 14.1396 100.996 14.1266C100.985 14.1137 100.981 14.0899 100.985 14.0748C101.236 12.5334 102.726 10.5688 102.793 10.042C99.7925 10.26 97.4013 12.9803 95.8443 15.3745C95.8272 15.3939 95.7993 15.3982 95.7779 15.3853C95.7543 15.3702 95.7478 15.3421 95.7607 15.3162C97.0646 12.65 98.4564 9.24104 98.5101 6.14733C98.4972 6.12574 98.4843 6.13006 98.4693 6.1279C96.9745 6.3956 96.0395 7.04327 95.557 7.39302C95.4819 7.44699 95.4133 7.49449 95.3532 7.53335C95.3361 7.54414 95.3168 7.53982 95.2996 7.53119C95.2846 7.52471 95.2696 7.50096 95.2717 7.48153C95.2739 7.47722 95.2739 7.47506 95.2717 7.46642C95.1516 5.00311 92.5138 1.55749 91.9712 0.896867C92.0548 5.08946 92.1235 9.29286 92.2457 13.4768C92.25 13.6301 92.4044 13.7121 92.5031 13.615C93.8005 12.3628 94.9393 10.8386 95.9559 9.45261C95.9773 9.46989 95.9902 9.47636 96.0138 9.49363C95.4712 10.4695 94.8814 11.4949 94.238 12.501C93.7212 13.3106 93.1572 14.0835 92.546 14.7959C92.3851 14.9837 92.295 15.2385 92.3015 15.4997C92.3615 17.2506 92.3873 18.0796 92.4194 19.4073C92.3186 21.3201 93.4917 20.5602 93.6912 20.4933ZM103.747 19.0857C103.679 19.0403 103.595 19.0144 103.591 18.9496C103.584 18.8741 106.196 16.9505 107.485 14.2627C104.054 15.9876 100.925 18.2199 97.4013 19.7787C97.3413 19.8629 97.3584 19.9665 97.5922 20.0528C99.1041 20.6163 101.452 20.4242 102.879 20.4393V20.5105C100.607 20.9272 98.4264 20.9013 96.6271 20.3098C96.4791 20.2623 96.3119 20.2687 96.1682 20.3313C94.5447 21.0373 94.0686 21.1582 93.9678 21.1971C93.7405 21.2877 92.5588 21.4669 93.5539 22.1902C96.2153 24.1267 98.6902 26.4087 101.208 28.6475C101.017 28.2006 100.485 26.9894 99.6295 25.4307C99.5781 25.3379 99.6017 25.2796 99.6274 25.245C99.7067 25.1436 99.9877 25.1306 100.322 25.1587C100.839 25.2062 101.495 25.3594 101.761 25.4285C101.515 24.9881 100.095 23.2523 99.0505 22.8918C99.0441 22.8875 99.0376 22.8853 99.0312 22.881C99.0162 22.8681 99.0012 22.8551 98.984 22.8422C98.9283 22.7947 98.9004 22.7731 98.9175 22.7385C98.9325 22.704 98.9754 22.7083 99.0569 22.7191C101.549 23.0278 104.74 21.7325 106.569 20.1219C106.638 20.0615 106.621 19.9471 106.535 19.919C105.538 19.5995 104.165 19.3555 103.747 19.0857ZM86.7277 18.9453C86.5175 17.6262 84.9584 14.2864 84.062 13.0148C84.0877 12.9932 84.1006 12.9824 84.1241 12.963C84.7697 13.5351 85.5996 14.7614 86.1293 15.6573C86.8092 16.8102 87.1587 17.6457 87.6842 19.1569C87.7614 19.3793 87.8707 19.5757 88.0852 19.7031C89.4942 20.2687 89.6615 20.3249 89.7323 20.3551C90.3091 20.5904 91.4544 21.3201 91.3879 19.4073C91.4458 18.0796 91.4672 17.2506 91.4972 15.4997C91.4994 15.2385 91.4029 14.9837 91.2378 14.7959C90.6094 14.0835 90.0218 13.3106 89.4878 12.501C88.8251 11.4949 88.2203 10.4695 87.6756 9.49363C87.6992 9.47636 87.7099 9.46989 87.7335 9.45261C88.7522 10.8386 89.9274 12.3628 91.2549 13.615C91.3579 13.7121 91.5101 13.6301 91.5123 13.4768C91.5316 9.28422 91.6324 5.08946 91.716 0.896867C91.1734 1.55749 88.5377 5.00311 88.4155 7.46642C88.4133 7.47506 88.4155 7.47722 88.4155 7.48153C88.4176 7.50096 88.4048 7.52471 88.3876 7.53119C88.3704 7.53982 88.3511 7.54414 88.334 7.53335C88.2739 7.49449 88.2053 7.44699 88.1302 7.39302C87.6477 7.04327 86.7127 6.3956 85.2179 6.1279C85.205 6.13006 85.19 6.12574 85.1771 6.14733C85.1707 9.09424 86.6505 12.8054 87.9823 15.3162C87.9973 15.3421 87.9887 15.3702 87.9673 15.3853C87.9437 15.3982 87.9158 15.3939 87.8986 15.3745C86.1186 13.1184 84.0062 10.273 80.8944 10.042C80.9609 10.5688 82.4535 12.5334 82.7023 14.0748C82.7066 14.0899 82.7023 14.1137 82.6916 14.1266C82.6808 14.1396 82.6637 14.1482 82.6465 14.1461C78.3037 13.574 76.8433 13.9388 76.4444 14.0338C79.865 15.6357 83.0325 17.6759 86.5583 19.0684C86.6869 19.0943 86.7448 19.0468 86.7277 18.9453ZM91.6066 32.581C91.6753 31.7023 91.7439 30.7934 91.8104 29.8802C91.7932 27.3931 91.761 25.0399 91.7632 23.058C91.7632 22.9933 91.4887 22.106 90.2877 23.017C87.5641 25.0853 84.8748 27.4277 82.1854 29.6621C82.8846 29.4873 85.5889 28.8677 87.6863 27.5939C87.7421 27.5594 87.7828 27.5594 87.815 27.581C87.8858 27.6436 87.8043 27.8314 87.4654 28.4726C87.2788 28.8245 86.9357 29.483 87.0022 29.552C87 29.552 87.0108 29.552 87.0215 29.5499C88.5592 29.1893 90.0218 27.0304 90.8003 24.8068C90.8539 24.6556 91.0726 24.6902 91.0662 24.8499C91.004 26.2921 90.9976 28.3301 90.9697 28.8482C90.8989 30.1824 90.7166 31.3094 90.2941 32.527C90.3928 32.6932 90.4678 32.8811 90.7981 32.989C91.1284 33.097 91.6903 33.2502 92.1556 32.9307C91.9819 32.8293 91.8061 32.7278 91.6302 32.6263C91.6238 32.6112 91.6152 32.5939 91.6066 32.581ZM84.7718 22.7385C84.7547 22.704 84.7139 22.7083 84.6303 22.7191C82.1383 23.0257 78.9492 21.7325 77.1199 20.1219C77.0513 20.0615 77.0663 19.9471 77.1521 19.919C78.1515 19.5995 79.524 19.3555 79.94 19.0857C80.0087 19.0403 80.0945 19.0144 80.0987 18.9496C80.103 18.8741 77.4909 16.9505 76.202 14.2627C79.6484 15.9747 82.7366 18.3041 86.3116 19.7787C86.3717 19.8629 86.3524 19.9665 86.1143 20.0528C84.5767 20.6163 82.2348 20.4242 80.8086 20.4393V20.5105C83.0797 20.9272 85.2586 20.9013 87.0944 20.3098C87.2467 20.2623 87.4161 20.2687 87.5619 20.3313C89.2068 21.0373 89.6786 21.1582 89.7794 21.1971C90.0068 21.2877 91.1477 21.4972 90.1333 22.2225C87.4633 24.1332 84.9948 26.4108 82.4792 28.6475C82.6701 28.2006 83.202 26.9894 84.0598 25.4307C84.1113 25.3379 84.0855 25.2796 84.0598 25.245C83.9805 25.1436 83.7017 25.1306 83.365 25.1587C82.8481 25.2062 82.1919 25.3594 81.9259 25.4285C82.1726 24.9881 83.5923 23.2523 84.6367 22.8918C84.6431 22.8875 84.6496 22.8853 84.656 22.881C84.671 22.8681 84.6882 22.8551 84.7032 22.8422C84.7589 22.7947 84.7868 22.7731 84.7718 22.7385Z" stroke="url(#paint0_linear_1733_1869)" stroke-width="0.000938237"></path><path d="M26.7449 55.1532C26.5883 55.1532 26.4275 55.1683 26.2623 55.1964C23.9226 55.6044 23.1613 58.1973 23.9333 63.1239C24.6582 67.7569 25.9836 70.0108 27.9823 70.0108C28.1389 70.0108 28.2997 69.9957 28.467 69.9676C30.6759 69.5833 31.4094 66.9624 30.7059 61.9538C30.0733 57.4417 28.7393 55.1532 26.7449 55.1532ZM27.3475 73.532C23.0648 73.532 20.131 70.1641 19.0865 64.0458C17.907 57.1459 20.3368 52.6446 25.7541 51.6947C26.3396 51.5953 26.9143 51.5435 27.459 51.5435C31.9326 51.5435 34.8257 54.9568 35.6106 61.155C36.4813 68.0419 34.0579 72.5 28.9624 73.3852C28.4091 73.4823 27.8665 73.532 27.3475 73.532Z" fill="white"></path><path d="M26.7449 55.1532C26.5883 55.1532 26.4275 55.1683 26.2623 55.1964C23.9226 55.6044 23.1613 58.1973 23.9333 63.1239C24.6582 67.7569 25.9836 70.0108 27.9823 70.0108C28.1389 70.0108 28.2997 69.9957 28.467 69.9676C30.6759 69.5833 31.4094 66.9624 30.7059 61.9538C30.0733 57.4417 28.7393 55.1532 26.7449 55.1532ZM27.3475 73.532C23.0648 73.532 20.131 70.1641 19.0865 64.0458C17.907 57.1459 20.3368 52.6446 25.7541 51.6947C26.3396 51.5953 26.9143 51.5435 27.459 51.5435C31.9326 51.5435 34.8257 54.9568 35.6106 61.155C36.4813 68.0419 34.0579 72.5 28.9624 73.3852C28.4091 73.4823 27.8665 73.532 27.3475 73.532Z" stroke="white" stroke-width="0.000938237"></path><path d="M78.9037 65.6656L78.9895 68.3621C81.34 68.2865 83.7312 68.2304 86.1031 68.1958L86.0645 65.5015L84.9729 64.5602C84.722 64.3465 84.574 64.0335 84.5697 63.7053L84.5397 61.9868L84.5097 60.2726L84.5075 60.2208L84.529 60.1733C85.8865 57.2437 87.2977 54.2644 88.7217 51.3218C88.8332 51.0973 88.9983 50.9008 89.1999 50.7497L90.3151 49.9164L90.3022 47.1918C88.0976 47.2026 85.8801 47.2285 83.7033 47.2717L83.7291 48.5779L83.7569 49.9855L84.4411 50.4C84.7477 50.5835 84.8657 50.9419 84.7327 51.2571C84.0615 52.954 83.3966 54.6573 82.7404 56.3629L82.5452 56.8724L82.3265 56.3715C81.5952 54.6984 80.8553 53.0274 80.1069 51.3564C79.961 51.0541 80.064 50.6914 80.3513 50.4993L81.0269 50.0481L80.9926 48.6491L80.9583 47.3343C78.5735 47.3948 76.1501 47.4768 73.7524 47.5783L73.8061 48.8844L73.8661 50.3007L75.0177 51.0822C75.2279 51.2247 75.3952 51.4082 75.5196 51.6241C77.0766 54.4803 78.6357 57.4035 80.1562 60.3158L80.1798 60.3633L80.1819 60.4151L80.2784 63.8132C80.2891 64.1349 80.1605 64.4501 79.9267 64.6768C79.5836 65.005 79.2426 65.3353 78.9037 65.6656Z" fill="white" stroke="white" stroke-width="0.000938237"></path><path d="M5.01335 74.8556L5.84116 73.8819C6.07492 73.6099 6.16714 73.2537 6.09636 72.9018L2.92237 57.2109C2.8516 56.859 2.61998 56.5675 2.28972 56.4099L1.10376 55.8529L0.634094 53.5731C5.22995 52.6189 9.9073 51.7208 14.5375 50.909H14.5525C14.7241 50.909 14.8248 50.9889 14.8441 51.099L15.8114 56.7186C14.9299 56.8719 14.0485 57.0295 13.1692 57.1893L12.3586 55.6392C12.0776 55.1189 11.7088 54.8771 11.1962 54.8771C11.0182 54.8771 10.8295 54.9052 10.6343 54.9419C9.63494 55.1275 8.63342 55.3175 7.63404 55.5097L7.41529 55.5528L8.89506 63.3206L9.1138 63.2774C10.0081 63.1047 10.9024 62.9341 11.7988 62.7679C12.2084 62.6923 12.5559 62.4074 12.7017 62.0231L13.122 60.9263C13.7761 60.8076 14.4281 60.6889 15.0801 60.5723L16.1373 66.6064C15.494 66.7187 14.8527 66.8353 14.2115 66.954L13.4394 66.0753C13.2185 65.8249 12.8969 65.6824 12.558 65.6824C12.4851 65.6824 12.4122 65.6889 12.3393 65.7018C11.4493 65.8681 10.5593 66.0365 9.6714 66.207L9.4505 66.2502L10.5357 71.9476C10.6107 72.3405 10.8917 72.6708 11.267 72.8111L12.6974 73.3487L13.1135 75.5853C10.57 76.0668 8.00076 76.5763 5.47443 77.103L5.01335 74.8556Z" fill="white" stroke="white" stroke-width="0.000938237"></path><path d="M60.3831 66.6523L61.3632 65.6203C61.5862 65.385 61.702 65.0633 61.6784 64.7417L60.7605 51.8163L59.1907 51.9307C58.7703 51.9631 58.5623 52.1013 58.3586 52.4769L57.6359 54.2407C56.8681 54.3012 56.0982 54.3638 55.3304 54.4286L54.8758 49.0097C54.8715 48.9493 54.8908 48.891 54.9294 48.8435C54.9766 48.7895 55.0452 48.755 55.1203 48.7485C60.2415 48.3189 65.4379 47.9756 70.5634 47.723C70.7179 47.723 70.8315 47.8223 70.838 47.9497L71.0953 53.3837C70.3125 53.4204 69.5298 53.4614 68.7491 53.5024L67.8548 51.9113C67.6554 51.5702 67.4023 51.4126 67.0528 51.4126L65.3735 51.5097L66.1434 64.3854C66.167 64.7676 66.3236 65.0698 66.5745 65.2727L67.6811 66.1687L67.8334 68.8609C65.4357 68.999 62.9995 69.1609 60.5847 69.3423L60.3831 66.6523Z" fill="white" stroke="white" stroke-width="0.000938237"></path><path d="M45.4376 53.1994C45.3089 53.1994 45.1781 53.2059 45.0409 53.221L43.4239 53.398L44.1337 59.8985L45.6178 59.7344C47.4257 59.5401 48.4229 58.1692 48.2234 56.1549C48.0369 54.2767 47.0225 53.1994 45.4376 53.1994ZM39.2097 68.7673L40.1662 67.6856C40.385 67.4374 40.4879 67.1071 40.4472 66.7789L39.0274 54.9762C38.9888 54.648 38.8066 54.3544 38.5256 54.1666L37.3032 53.3548L36.9665 50.6389C39.6365 50.3064 42.343 49.9934 45.0151 49.7084C45.5384 49.6523 46.0403 49.6242 46.5056 49.6242C50.2501 49.6242 52.1523 51.4226 52.4912 55.2827C52.7185 57.8885 51.4339 60.164 49.2185 61.0751L48.6524 61.3061L49.2335 61.4982C49.9305 61.7249 50.501 62.174 50.9771 62.8648C51.5905 63.6118 52.1888 64.3437 52.7828 65.0798C53.7994 66.3558 54.58 66.8134 55.9011 66.8782L56.1391 69.6977C55.4057 69.7604 54.6722 69.8251 53.9388 69.892C53.6192 69.9201 53.3276 69.9374 53.0595 69.9374C51.509 69.9374 50.7476 69.4344 49.3579 67.4892C48.4186 66.2089 47.4728 64.9309 46.5206 63.6571C46.1882 63.1131 45.6671 62.8303 44.983 62.8303C44.8822 62.8303 44.7814 62.8346 44.6806 62.8475L44.4575 62.8713L44.85 66.468C44.8865 66.8026 45.0688 67.1049 45.3497 67.297L46.3019 67.9426L46.585 70.6218C44.2517 70.8722 41.884 71.1485 39.5421 71.4421L39.2097 68.7673Z" fill="white"></path><path d="M45.4376 53.1994C45.3089 53.1994 45.1781 53.2059 45.0409 53.221L43.4239 53.398L44.1337 59.8985L45.6178 59.7344C47.4257 59.5401 48.4229 58.1692 48.2234 56.1549C48.0369 54.2767 47.0225 53.1994 45.4376 53.1994ZM39.2097 68.7673L40.1662 67.6856C40.385 67.4374 40.4879 67.1071 40.4472 66.7789L39.0274 54.9762C38.9888 54.648 38.8066 54.3544 38.5256 54.1666L37.3032 53.3548L36.9665 50.6389C39.6365 50.3064 42.343 49.9934 45.0151 49.7084C45.5384 49.6523 46.0403 49.6242 46.5056 49.6242C50.2501 49.6242 52.1523 51.4226 52.4912 55.2827C52.7185 57.8885 51.4339 60.164 49.2185 61.0751L48.6524 61.3061L49.2335 61.4982C49.9305 61.7249 50.501 62.174 50.9771 62.8648C51.5905 63.6118 52.1888 64.3437 52.7828 65.0798C53.7994 66.3558 54.58 66.8134 55.9011 66.8782L56.1391 69.6977C55.4057 69.7604 54.6722 69.8251 53.9388 69.892C53.6192 69.9201 53.3276 69.9374 53.0595 69.9374C51.509 69.9374 50.7476 69.4344 49.3579 67.4892C48.4186 66.2089 47.4728 64.9309 46.5206 63.6571C46.1882 63.1131 45.6671 62.8303 44.983 62.8303C44.8822 62.8303 44.7814 62.8346 44.6806 62.8475L44.4575 62.8713L44.85 66.468C44.8865 66.8026 45.0688 67.1049 45.3497 67.297L46.3019 67.9426L46.585 70.6218C44.2517 70.8722 41.884 71.1485 39.5421 71.4421L39.2097 68.7673Z" stroke="white" stroke-width="0.000938237"></path><path d="M120.087 58.0893L121.577 58.1865C121.661 58.1908 121.745 58.193 121.826 58.193C123.518 58.193 124.612 57.0401 124.751 55.11C124.829 54.0435 124.595 53.1605 124.076 52.5604C123.613 52.025 122.954 51.7249 122.118 51.6687L120.497 51.563L120.087 58.0893ZM127.355 69.5725C124.831 69.3675 124.247 69.0954 123.257 66.44C122.733 65.0324 122.202 63.6248 121.668 62.2172C121.376 61.4853 120.9 61.1377 120.123 61.0902L119.9 61.0751L119.673 64.6869C119.652 65.0237 119.78 65.354 120.025 65.5894L120.85 66.3903L120.672 69.0782C118.333 68.9227 115.956 68.7845 113.604 68.668L113.733 65.9758L114.856 65.0755C115.114 64.8705 115.272 64.5639 115.29 64.2336L115.903 52.3596C115.92 52.0293 115.789 51.7076 115.545 51.4744C115.193 51.1377 114.837 50.8009 114.481 50.4641L114.614 47.7309C117.29 47.8626 120.008 48.0223 122.691 48.2037C125.221 48.3764 126.952 49.05 127.981 50.2568C128.912 51.3492 129.279 52.895 129.103 54.9848C128.88 57.6187 127.134 59.6956 124.758 60.1532L124.207 60.2612L124.681 60.5656C125.296 60.9628 125.766 61.5047 126.075 62.174C126.422 62.9836 126.77 63.7996 127.115 64.6179C127.762 66.1334 128.131 66.4357 129.44 66.9452L129.201 69.7258C128.588 69.674 127.97 69.6222 127.355 69.5725Z" fill="white"></path><path d="M120.087 58.0893L121.577 58.1865C121.661 58.1908 121.745 58.193 121.826 58.193C123.518 58.193 124.612 57.0401 124.751 55.11C124.829 54.0435 124.595 53.1605 124.076 52.5604C123.613 52.025 122.954 51.7249 122.118 51.6687L120.497 51.563L120.087 58.0893ZM127.355 69.5725C124.831 69.3675 124.247 69.0954 123.257 66.44C122.733 65.0324 122.202 63.6248 121.668 62.2172C121.376 61.4853 120.9 61.1377 120.123 61.0902L119.9 61.0751L119.673 64.6869C119.652 65.0237 119.78 65.354 120.025 65.5894L120.85 66.3903L120.672 69.0782C118.333 68.9227 115.956 68.7845 113.604 68.668L113.733 65.9758L114.856 65.0755C115.114 64.8705 115.272 64.5639 115.29 64.2336L115.903 52.3596C115.92 52.0293 115.789 51.7076 115.545 51.4744C115.193 51.1377 114.837 50.8009 114.481 50.4641L114.614 47.7309C117.29 47.8626 120.008 48.0223 122.691 48.2037C125.221 48.3764 126.952 49.05 127.981 50.2568C128.912 51.3492 129.279 52.895 129.103 54.9848C128.88 57.6187 127.134 59.6956 124.758 60.1532L124.207 60.2612L124.681 60.5656C125.296 60.9628 125.766 61.5047 126.075 62.174C126.422 62.9836 126.77 63.7996 127.115 64.6179C127.762 66.1334 128.131 66.4357 129.44 66.9452L129.201 69.7258C128.588 69.674 127.97 69.6222 127.355 69.5725Z" stroke="white" stroke-width="0.000938237"></path><path d="M176.688 55.1638L176.184 57.8451L176.304 57.9833L176.568 58.197C176.806 58.4734 176.724 58.8771 176.471 59.134C174.702 60.9172 172.697 62.9725 171.002 64.7363L172.025 58.9289C172.085 58.6029 172.285 58.3179 172.574 58.1495C172.999 57.9012 173.421 57.6573 173.846 57.4112L174.116 55.9388L174.341 54.7212C171.837 54.257 169.274 53.8036 166.717 53.374L166.271 56.0727L167.187 57.1996C167.397 57.4565 167.485 57.789 167.432 58.1085L167.374 58.4626L165.499 69.8529C165.446 70.1725 165.257 70.4553 164.982 70.6301C164.584 70.8849 164.185 71.1418 163.786 71.3987L163.346 74.0606C165.776 74.4687 168.214 74.9005 170.597 75.343L170.738 74.5809L171.086 72.6919C170.79 72.3119 170.492 71.9341 170.194 71.5542C169.988 71.2929 169.904 70.9583 169.962 70.6345L170.097 69.8745L170.745 66.1958C171.566 66.3015 172.257 66.5153 172.553 67.9941C172.917 69.4902 173.278 70.9972 173.634 72.5019C174.133 74.9026 174.496 76.0792 177.219 76.6276C177.992 76.783 178.764 76.9406 179.536 77.1025L179.814 75.7424L180.119 74.2636C178.987 73.7195 178.686 73.0201 178.002 70.6107C177.713 69.5896 177.421 68.5684 177.127 67.5494C176.816 66.5282 176.486 65.6409 175.585 65.1638L175.311 65.0192L175.534 64.8011C177.074 63.3223 178.674 61.8045 180.293 60.289C180.546 60.0386 181.058 59.6521 181.416 59.555C181.933 59.4146 182.287 59.406 182.783 59.3434L183.366 56.4936C181.142 56.0338 178.897 55.5869 176.688 55.1638Z" fill="white" stroke="white" stroke-width="0.000938237"></path><path d="M131.409 69.9216C135.602 70.3059 139.839 70.7549 144.011 71.2622L144.041 71.2644C144.163 71.2644 144.266 71.1737 144.281 71.0528L144.92 65.7592C144.384 65.6944 143.009 65.5304 142.572 65.4785L141.709 66.8494C141.497 67.1905 141.128 67.3935 140.723 67.3935C140.678 67.3935 140.635 67.3913 140.592 67.3849C139.64 67.2791 138.69 67.1754 137.74 67.0761L137.517 67.0524L137.54 66.8279L137.793 64.4034L138.113 61.3162L138.139 61.0916L138.36 61.1154C138.924 61.1737 139.488 61.2341 140.052 61.2967C140.365 61.3313 140.656 61.491 140.852 61.7372L141.308 62.3136L141.48 62.5295C142.074 62.5986 142.67 62.6655 143.266 62.7367L143.777 58.3498C143.172 58.2807 142.567 58.2095 141.965 58.1426L141.173 58.7514C140.967 58.9111 140.708 58.9975 140.444 58.9975C140.399 58.9975 140.356 58.9953 140.311 58.991C139.741 58.9284 139.17 58.868 138.602 58.8075L138.379 58.7838L138.4 58.5592L138.722 55.485L138.945 53.339L138.969 53.1145L139.192 53.1382C140.14 53.2375 141.088 53.3412 142.035 53.447C142.499 53.4988 142.891 53.8097 143.039 54.2393L143.494 55.5778C144.298 55.6706 145.102 55.7656 145.904 55.8628L146.492 50.9836L146.526 50.6944C146.541 50.5648 146.436 50.4418 146.292 50.4245C141.982 49.9042 137.607 49.44 133.281 49.0449L133.163 50.3468L133.037 51.7673C133.367 52.1041 133.695 52.4409 134.023 52.7777C134.257 53.0195 134.375 53.3498 134.345 53.6801L133.266 65.2842L133.24 65.5649C133.21 65.8866 133.043 66.1823 132.784 66.3788C132.406 66.6638 132.027 66.9488 131.649 67.2359L131.645 67.3007L131.409 69.9216Z" fill="white" stroke="white" stroke-width="0.000938237"></path><path d="M147.364 71.6844C151.548 72.2263 155.77 72.8373 159.922 73.5001L159.961 73.5044C160.081 73.5044 160.18 73.418 160.199 73.3015L160.263 72.8999L161.035 68.0359C160.499 67.9495 159.129 67.7336 158.693 67.6667L157.782 69.0031C157.565 69.3204 157.205 69.5104 156.819 69.5104C156.761 69.5104 156.701 69.5061 156.643 69.4975C155.695 69.355 154.747 69.2146 153.802 69.0786L153.581 69.0463L153.611 68.8239L153.999 66.095L154.389 63.3381L154.421 63.1136L154.644 63.146C155.204 63.2258 155.766 63.3079 156.328 63.3921C156.641 63.4374 156.926 63.608 157.113 63.8606L157.274 64.0808L157.711 64.6788C158.305 64.7695 158.897 64.8601 159.491 64.9508L160.165 60.5876C159.562 60.4948 158.959 60.402 158.359 60.3113L157.87 60.6589L157.544 60.8899C157.342 61.0345 157.104 61.1101 156.853 61.1101C156.793 61.1101 156.733 61.1058 156.673 61.0971C156.105 61.013 155.537 60.9309 154.968 60.8489L154.747 60.8165L154.78 60.5941L155.155 57.9473L155.517 55.3976L155.547 55.1753L155.77 55.2055C156.714 55.3415 157.66 55.4818 158.603 55.6222C159.064 55.6912 159.448 56.0172 159.577 56.4533L159.984 57.807C160.784 57.93 161.584 58.0552 162.384 58.1826L163.199 53.0423C163.208 52.984 163.193 52.9235 163.156 52.8739C163.113 52.8134 163.049 52.7746 162.974 52.7638C158.676 52.0794 154.316 51.449 150.008 50.892L149.663 53.6036C149.98 53.9533 150.297 54.3009 150.61 54.6507C150.838 54.9011 150.945 55.2336 150.9 55.5639L149.356 67.399C149.313 67.7207 149.137 68.01 148.871 68.1956L147.737 68.9858L147.705 69.0095L147.531 70.3632L147.364 71.6844Z" fill="white" stroke="white" stroke-width="0.000938237"></path><path d="M104.039 43.8429C98.7442 43.8429 95.5659 48.6659 95.5359 56.7445C95.5059 64.5576 98.3496 68.5947 103.992 68.7415C104.076 68.7437 104.157 68.7458 104.241 68.7458C106.473 68.7458 108.676 67.9471 110.304 66.5567V66.5243L110.471 62.5066C109.864 62.485 109.255 62.4656 108.648 62.4462C107.706 64.1431 106.089 65.3175 104.676 65.3175H104.603C102.536 65.2592 100.097 63.5947 100.222 55.9867C100.348 48.2816 103.503 47.1309 105.373 47.1309L105.513 47.1331C105.971 47.1482 106.439 47.2216 106.861 47.3489C107.232 47.4569 107.428 47.6706 107.496 48.0398C107.721 49.3071 107.947 50.5743 108.165 51.8416C109.055 51.8762 109.943 51.915 110.831 51.956L111.138 44.551C110.243 44.4841 109.349 44.4215 108.457 44.361C107.792 44.3373 107.1 44.2488 106.407 44.0998C105.725 43.953 104.983 43.8645 104.264 43.845C104.189 43.8429 104.114 43.8429 104.039 43.8429Z" fill="white"></path><path d="M104.039 43.8429C98.7442 43.8429 95.5659 48.6659 95.5359 56.7445C95.5059 64.5576 98.3496 68.5947 103.992 68.7415C104.076 68.7437 104.157 68.7458 104.241 68.7458C106.473 68.7458 108.676 67.9471 110.304 66.5567V66.5243L110.471 62.5066C109.864 62.485 109.255 62.4656 108.648 62.4462C107.706 64.1431 106.089 65.3175 104.676 65.3175H104.603C102.536 65.2592 100.097 63.5947 100.222 55.9867C100.348 48.2816 103.503 47.1309 105.373 47.1309L105.513 47.1331C105.971 47.1482 106.439 47.2216 106.861 47.3489C107.232 47.4569 107.428 47.6706 107.496 48.0398C107.721 49.3071 107.947 50.5743 108.165 51.8416C109.055 51.8762 109.943 51.915 110.831 51.956L111.138 44.551C110.243 44.4841 109.349 44.4215 108.457 44.361C107.792 44.3373 107.1 44.2488 106.407 44.0998C105.725 43.953 104.983 43.8645 104.264 43.845C104.189 43.8429 104.114 43.8429 104.039 43.8429Z" stroke="white" stroke-width="0.000938237"></path><path d="M179.522 37.1973V38.0674C159.369 34.1965 139.117 31.6425 118.836 30.3903L119.076 26.9231C139.495 28.1839 159.137 30.658 179.522 37.1973ZM64.5844 26.9231L64.8246 30.3903C44.5432 31.6425 24.294 34.1965 4.13913 38.0674V37.1973C23.7536 30.848 44.1679 28.1839 64.5844 26.9231Z" fill="#F1F4F5"></path><defs><linearGradient id="paint0_linear_1733_1869" x1="76.0123" y1="16.928" x2="107.672" y2="16.928" gradientUnits="userSpaceOnUse"><stop stop-color="#3F4656"></stop><stop offset="0.14" stop-color="#3F4656"></stop><stop offset="0.83" stop-color="#3F4656"></stop><stop offset="1" stop-color="#3F4656"></stop></linearGradient></defs></svg> 