<?xml version="1.0" encoding="UTF-8"?> <svg xmlns="http://www.w3.org/2000/svg" height="250" viewBox="0 0 250 250" width="250"><path d="m68.3 164.8c-2 .2-3.8-.2-5.7-.8-.7-.2-1.5-.2-2.1-.4-.9-.3-1.7-.8-2.5-1.2-.9-.4-1.6-.9-2.5-1.4-.3-.1-.6-.3-.9-.5-1-.8-2-1.6-3.1-2.5s-2.1-1.8-3.2-2.6c-.7-.6-1.4-1.1-2.1-1.6-.9-.7-1.6-1.5-2.5-2.2-.7-.6-1.4-1.1-2.1-1.7-.4-.3-.7-.3-1 0-.6.4-1.1.9-1.6 1.4-.4.4-.8.8-1.1 1.1-1.5 1.4-3.1 2.6-4.6 4-1.9 1.8-4 3.2-6.3 4.4-1.4.7-2.8 1.5-4.3 2.1s-3 .9-4.6.9c-.9 0-1.8.1-2.6.1-1.4.1-2.6-.5-3.8-.9-1.6-.6-2.6-1.9-3.6-3.1-.1-.1-.3-.4-.3-.6-.3-1.1-.6-2.3-.8-3.4-.1-1.4-.1-2.8.4-4.1.3-.7.6-1.3 1.1-1.9.5-.9 1.1-1.8 1.6-2.6.7-1.1 1.7-2.1 2.7-2.9 1.1-.9 2.1-2 3.2-2.8 1.4-.9 2.8-1.6 4.3-2.3 1.1-.6 2.3-1 3.5-1.4.5-.2 1.1-.3 1.6-.4.9-.2 1.8-.4 2.8-.6s2-.3 3.1-.4c2-.4 3.9.1 5.8.2.7.1 1.4.4 2.1.6.9.3 1.1.4 1.5-.5.6-1.1 1.2-2.4 1.7-3.6.5-1.1.9-2.3 1.3-3.6.5-1.6.9-3.3 1.4-4.9.4-1.3.8-2.6 1.1-3.8.3-1 .6-2 .9-3 .1-.6-.1-.7-.6-.6-.9.2-1.7.5-2.6.7-.9.3-1.8.6-2.8.8-1.6.4-3.3.8-4.9 1-1.1.1-2.3.4-3.4.1-.4-.1-.9-.1-1.4 0-.8.2-1.4 0-2.2-.2-.4-.1-.6-.1-1-.2-1.2-.3-2.5-.4-3.6-.8-1.4-.6-3-1.1-4.1-2.4-.6-.7-1.4-1.2-2-1.9-.6-.8-1.1-1.7-1.8-2.6-.9-1.1-1.1-2.4-1.4-3.7-.4-1.6-.6-3.2-.4-4.9.1-1.1.2-2.3.6-3.3.9-2.3 2.2-4.3 4-6 1.8-1.8 3.6-3.4 5.5-5 .4-.3.7-.5 1.1-.8 1.2-.8 2.3-1.6 3.6-2.3.9-.6 1.9-1.1 2.9-1.5.7-.4 1.5-.5 2.2-.9 1.4-.6 2.8-1.2 4.2-1.6 1.6-.4 3.1-.9 4.6-1 .9-.1 1.8.1 2.8.3.4.1.6.5.6.9 0 .5-.3.6-.7.8-1.2.4-2.4.7-3.6 1.2-.6.2-1.1.7-1.7 1-1.2.6-2.4 1.1-3.6 1.7-.7.4-1.5.8-2.1 1.2-1.2.9-2.4 1.8-3.6 2.7-.6.4-1.1.9-1.6 1.4-1.6 1.3-2.6 2.9-3.7 4.6-.5.8-.8 1.6-1.1 2.5-.5 1.3-.7 2.6-.8 3.9-.1 1.1-.1 2.3.1 3.4.1.6.4 1.3.6 1.9.1.2.2.4.3.7.6 1.9 2.1 3.1 3.8 4.1.4.2.8.4 1.1.6.4.1.8.4 1.2.4 1.2.2 2.3.4 3.6.5.9.1 1.7 0 2.6 0 2.1.1 4.1-.6 6-1 .2-.1.4-.1.6-.1 1.6-.2 2.8-1.1 4.2-1.7.4-.1.6-.5.8-.9.8-1.6 1.6-3.3 2.3-5 .9-2.3 2-4.5 3.2-6.7.6-1.1 1.1-2.2 1.6-3.3.8-1.4 1.5-2.8 2.3-4.3 1.1-1.8 2.2-3.8 3.4-5.5.9-1.4 1.8-2.7 2.7-4.1 1.4-2 3-3.6 4.4-5.5.9-1.1 1.8-2.2 3.1-3 .5-.4.9-.8 1.4-1.2.9-.6 1.7-1.4 2.7-1.8 1.1-.5 2-1.1 3.1-1.6 1.3-.5 2.6-.9 4-.5 1.7.4 3.3 1.2 4.1 2.9.4.7.6 1.4.6 2.2 0 .7.3 1.4.3 2.1 0 2.1-.2 4.1-.9 6-.9 2.5-2.1 4.8-3.5 7-.2.4-.6.8-.9 1.1-.4.6-.9 1.1-1.1 1.7-.6 1.3-1.6 2.3-2.6 3.3-.6.6-1 1.2-1.6 1.8-2.3 2.2-4.7 4.5-7 6.6-1.5 1.4-3.1 2.6-4.7 3.9-.7.6-1.5 1.1-2.2 1.6-1.4 1.1-2.8 2.1-4.1 3.1-.4.4-.7.7-.7 1.3 0 .4-.1.7-.2 1.1-.1.6-.3 1.3-.4 1.9-.1.3-.1.6-.1.9-.2 1-.4 2.1-.7 3.1-.1.6-.2 1.1-.4 1.6-.4 1.3-.6 2.6-1 3.8-.5 1.6-1.1 3.2-1.8 4.8-.6 1.6-1.4 3.1-2.2 4.6-.6 1.1-1.4 2.1-2.1 3.1-.6 1-1.4 2-2 3-.5.7-.4 1 .4 1.6.9.7 1.7 1.6 2.6 2.3.4.3.7.6 1.1.9.1.1.2.1.3.2 1.1 1.5 2.6 2.5 4 3.6 1.1.9 2.3 1.8 3.4 2.7 1.4 1.1 2.9 1.9 4.5 2.6 2.6 1.1 5.3 1.5 8 1.8 1.8.2 3.4-.1 5.2-.3 3.9-.4 7.3-2.1 10.6-4.1.1-.1.4-.2.5-.3.9-.3 1.6-.9 2.3-1.4 1.4-1.1 3-2.1 4.5-3.3.1-.1.3-.1.4-.2.9-1.2 2.3-1.7 3.5-2.6.4-.4.7-.7 1.1-1 .2-.1.6-.2.9-.2.6.1.8.6.5 1.1-1.2 2.3-2.6 4.6-4.5 6.3-.8.7-1.6 1.5-2.3 2.3-1.4 1.6-3.2 2.8-5 3.8-2.5 1.6-5 3-7.5 4.4-1 .6-2.1 1-3.1 1.4-2.3.9-4.8 1.6-7.3 2.1-1.4.1-2.8.5-4.2.2zm-51.7-5.9v.1c.9-.1 1.8-.2 2.7-.5 1.7-.6 3.5-1.3 5-2.2 1.8-1.1 3.6-2.4 5.3-3.7.6-.5 1.4-.9 1.8-1.5 1.2-1.5 2.3-3.1 3.5-4.7.3-.4.5-1 .6-1.5.2-.8.1-.9-.6-1.1-.4-.1-.6-.2-1-.3-2-.6-4.1-.7-6.1-.4-1.4.2-2.8.6-4.2 1.1-2.2.9-4.4 1.9-6.3 3.4-1.1.9-2.1 1.8-3 2.9-.8 1-1.2 2.2-1.6 3.4-.5 1.6-.1 2.9 1 4.1.4.4 1.1 1 1.8.8.6 0 .9.1 1.1.1zm65.1-81.8c-.1-.6-.7-1.3-1.4-1.3-.4 0-.9 0-1.3.1-2.3.4-3.7 2.1-5.2 3.6-1 1.1-1.8 2.3-2.6 3.6-.4.6-.9 1.2-1.4 1.8-.6 1-1.2 2-1.8 3-.1.2-.2.4-.4.6-.4.6-.9 1.3-1.3 1.9-.1.2-.3.5-.4.7-.1.3-.2.6-.4.9-.4.7-.9 1.4-1.2 2.2-.9 2-2 3.8-2.4 6 0 .1-.1.1-.1.1-.8 1.1-.9 2.4-1.3 3.7-.1.5.2.8.7.6.4-.1.7-.4 1.1-.7s.7-.6 1.1-.9c.8-.6 1.6-1 2.3-1.6 2-1.8 4-3.8 5.8-5.7 1.1-1.1 2.1-2.4 2.9-3.8 1.2-1.8 2.3-3.6 3.5-5.3 1-1.6 1.8-3.4 2.5-5.3.6-1.3.9-2.8 1.3-4.2z"></path><path d="m137.6 145.4c.1 0 .1.1.2.1 1.8.2 3.6.4 5.4.6.5.1.9.2 1.4.4 1 .2 2.1.4 3.1.7.9.2 1.7.4 2.5.7.6.2 1.1.4 1.6.2.4-.1.7.1 1.1.1 1.3.1 2.6.4 3.8.4.6.1 1.3-.1 1.9-.1 1.9.1 3.8-.3 5.8-.6 1.4-.2 2.9-.6 4.3-1.1 1.1-.4 2.2-1.1 3.3-1.6 2.1-1.1 3.9-2.5 5.8-4 .7-.6 1.4-1.1 1.8-1.8.4-.6 1-1 1.8-.9.6.1.8.4.5.9-.4.7-.9 1.4-1.3 2-.4.8-.9 1.6-1.3 2.3-.8 1.5-1.7 2.8-2.8 4-.2.2-.4.5-.6.8-.7 1.4-1.8 2.5-2.9 3.6-.7.7-1.6 1.4-2.5 1.9-1.3.7-2.6 1.4-4 2-.9.4-1.8.8-2.8 1.1-.6.2-1.1.2-1.8.3-.2 0-.4 0-.6.1-1.2.6-2.5.4-3.8.4-2.1.1-4.1-.1-6-.7-2.2-.6-4.4-1.3-6.6-2-.4-.1-.9-.4-1.2-.6-1.3-.7-2.7-1-4.1-1.3s-2.7-.6-4.1-.9c-.4-.1-.8-.1-1.2-.1-.6-.1-1.1.1-1.4.8-1.2 1.9-2.4 3.8-3.7 5.6-.7 1.1-1.6 2.1-2.3 3.1-.9 1.2-1.8 2.3-2.9 3.3-.6.6-1.2 1.4-1.8 2-2.4 2.5-5.1 4.6-8 6.5-1.6 1.1-3.3 1.9-5 2.8-.5.3-1.1.4-1.6.5-.9.2-1.8.5-2.8.6-1.3.2-2.6-.1-3.8-.6-.8-.3-1.6-.6-2-1.3-.1-.2-.4-.4-.6-.5-.4-.2-.6-.4-.6-.9 0-.3-.2-.5-.3-.8-.6-1.1-.9-2.1-.8-3.3.1-1.9.9-3.7 1.7-5.4.8-1.6 1.7-3.1 2.7-4.6 1-1.4 2.1-2.6 3.3-3.9.4-.4.9-.7 1.4-1.1.6-.4 1.1-.9 1.6-1.4 2.2-1.7 4.7-3 7.3-4.2.8-.4 1.6-.7 2.3-1.1 1.7-.8 3.4-1.4 5.3-1.8.9-.1 1.7-.6 2.6-.9 1.4-.3 2.7-.5 4-.8.5-.1.9-.3 1-.8.3-1 .6-2.1.9-3.1.6-2.2 1.3-4.3 1.9-6.5.1-.1.1-.4.1-.7-.4.2-.6.3-.7.4-1.2 1.1-2.6 2.1-4.1 2.8-.3.1-.6.2-.9.4-1.8.9-3.3.5-4.8-.6-2.1-1.6-2.6-3.7-2.4-6.2 0-.2.1-.4.1-.7-.6.5-1.3.9-1.8 1.4-1.1.9-2.3 1.9-3.3 2.8-.4.4-.9.9-1.3 1.2-1.7 1.4-3.4 2.6-5.4 3.6-1.2.6-2.5.7-3.8.4-1.1-.4-2.2-1.1-2.8-2.2-.1-.2-.1-.4-.1-.6-.1-2.6.4-5 1.6-7.3 1.2-2.4 2.5-4.8 3.8-7.1.5-.9 1-1.6 1.6-2.4 1.1-1.5 1.8-3.1 2.3-4.9-.3-.4-.7-.4-1-.2-.9.4-1.8.9-2.6 1.4-1.8 1.3-3.6 2.6-5 4.3-.6.6-1.1 1.3-1.6 2-1.3 2.1-2.6 4.3-3.8 6.5-.5.9-1 1.6-1.5 2.5s-.9 1.8-1.4 2.7c-.5 1.1-.9 2.3-1.4 3.5-.4 1.1-.4 1.1-1.6 1-.8-.1-1.6-.1-2.3 0-1 .1-2 .2-3 .2-.4 0-.9-.1-1.3-.1s-.5-.4-.3-.8c1.7-2.4 3.1-5 4.5-7.6.9-1.8 2-3.6 3-5.4.4-.6.6-1.4 1-2.1 1-1.8 2.1-3.7 3.1-5.5.5-.9.9-2 1.3-3 .1-.2.1-.6-.1-.7-.1-.1-.5-.1-.7-.1-1.1.4-2.1.9-3.1 1.4-2.1 1.1-3.9 2.5-5.8 3.9-.9.7-1.5 1.6-2.3 2.3-.1.1-.2.4-.3.5-1.1 2.6-2.4 5.1-4.1 7.5-.5.8-1 1.6-1.5 2.3-.4.6-.9 1.1-1.3 1.7-.6.7-1.4 1.4-2.1 2.1-.6.6-1.1 1.2-1.8 1.7-1.8 1.4-3.8 2-6 2.1-1.4.1-2.5-.5-3.7-1-.4-.2-.9-.6-1.1-1.1-.9-1.4-1.7-2.9-1.8-4.6 0-1.2.1-2.4.2-3.6.4-2.7 1.5-5.2 2.8-7.5 1.4-2.6 3.1-5 5-7.2 1.3-1.5 2.7-3 4.5-4 .4-.2.5-.5.2-1 .3.1.4.1.6.1.3 0 .6.1.9 0 2.2-.7 4.4-.6 6.6 0 .2.1.4.1.6.1.6.1 1.1.5 1.5 1 .9 1.1 1.6 2.3 1.8 3.7.1.2.1.4.3.7.4-.3.8-.6 1.2-.9s.9-.5 1.2-.8c1.6-1.1 3.3-2.1 5-3 .6-.3 1.4-.4 2.1-.6.7-.1 1.4-.4 2.1-.4 1.4 0 2.6.4 3.6 1.3 1.1 1.1 1.1 1.1 1.8 3.6.3-.1.6-.2.8-.4.9-1 2.1-1.4 3.1-2.1.4-.3.9-.6 1.3-.9 1.8-1.2 3.7-1.9 5.9-1.9 1.6 0 3 1.4 3.1 2.9 0 .3.1.6.1.9.1 1.4-.2 2.6-.6 3.8-1.2 3.1-2.9 5.8-4.6 8.5-.9 1.4-1.6 2.9-2.4 4.4-.4.7-.8 1.4-1.1 2.2-.3.6-.4 1.3-.7 2 .1.1.1.1.1.1.3-.1.6-.1.8-.2.7-.4 1.4-1 2.1-1.4 2.4-1.7 4.5-3.8 6.5-5.8 1.1-1.1 1.9-2.3 2.7-3.7.4-.7.9-1.4 1.4-2 1.1-1.6 2.1-3.1 3.3-4.6 1.4-1.6 2.8-3.1 4.6-4.3 1.1-.8 2.3-1.6 3.4-2.3.2-.1.4-.2.6-.3 1.2-.4 2.4-.9 3.7-.9.9 0 1.7.2 2.5.4.9.1 1.6.7 2.3 1.3.4.3.6.9.9 1.3.1.2.2.4.4.8.4-.6.9-1.2 1.1-1.8.3-.7.8-.9 1.5-.9.9.1 1.7.1 2.6.1.5 0 1-.1 1.5-.2 1-.1 2.1-.2 3.1-.4h.3c.1.1.4.2.4.4 0 .1-.1.3-.3.4-.9.5-1.7 1.1-2.3 1.9-.1.2-.4.4-.5.7-.9 1.6-1.7 3.1-2.6 4.7-.4.7-.7 1.4-1 2.1-1.1 2.6-2.3 5.3-3.4 7.9-.6 1.4-1.1 2.8-1.6 4.3-.7 2.1-1.4 4.3-2.1 6.5-.5 1.5-1.2 3-1.7 4.6-.3 1.8-.5 2.7-.8 3.6zm-10.5 7.4c-.1-.1-.1-.2-.1-.3-.5 0-.9-.1-1.4-.1-1.3.2-2.5.4-3.8.7-1.4.4-2.8.6-4.2 1.2-1.6.6-3.1 1.6-4.6 2.3-.9.5-1.8 1-2.7 1.6-.9.7-1.8 1.4-2.7 2.2-1 .9-2 1.8-2.8 2.8-.8.9-1.4 1.8-2 2.8-1 1.4-1.4 2.9-1.2 4.6.1 1.2 1.1 2.1 2.2 2.3 1.5.3 2.9-.2 4.3-.9 2-.9 3.8-2.2 5.7-3.4 2.1-1.3 3.7-3 5.3-4.8.5-.6 1-1.1 1.4-1.6l2.1-3c.4-.6.9-1.1 1.3-1.8.6-.9 1.2-1.8 1.8-2.8.5-.4.9-1.1 1.4-1.8zm-1.5-21.1c0 .7-.1 1.5.6 1.9.8.4 1.4-.1 2-.6.6-.4 1.1-.9 1.8-1.2 1-.4 1.7-1.1 2.3-1.9.9-1 1.6-2 2.4-3.1.9-1.1 2-2.2 2.6-3.6.2-.4.4-.8.6-1.1 1.1-1.4 1.4-3.1 2.1-4.6.1-.1.1-.4.1-.5.1-.6.1-1.1.1-1.7.1-.6.1-1.3-.1-1.9s-.6-.9-1.1-1.1c-1.6-.4-3.6.3-4.6 1.7-.1.1-.3.3-.4.4-.9.9-1.9 1.8-2.6 2.8-.9 1.2-1.6 2.6-2.4 3.9-.3.5-.7 1-.9 1.5-.6 1.3-1.3 2.5-1.5 4 0 .1-.1.3-.1.4-.7 1.5-.9 3.1-.9 4.7zm-45.9-18.8c-.1 0-.1 0 0 0-.3 0-.6.1-.9.1-1.2.4-2.2 1-3.1 1.9-1.1 1.1-2.1 2.5-2.8 3.9-1 1.7-1.9 3.5-2.9 5.2-1.4 2.3-2.3 4.9-2.8 7.6-.1.5-.2 1-.3 1.5-.1.9 0 1.6.6 2.2s1.4.6 2 .3 1.3-.6 1.8-1.1c.7-.6 1.4-1.2 2-1.8s1.1-1.1 1.6-1.7c1.9-2.4 3.1-5.2 4.3-8 .1-.2.1-.6 0-.7-.8-.8-.9-1.8-.9-2.8 0-1.1.3-2 1.1-2.7.6-.5 1.1-1 1.6-1.6.4-.4.6-.9.4-1.5s-.7-.6-1.2-.7c-.3-.1-.4-.1-.5-.1z"></path><path d="m200 113.4c.6-.4.9-.6 1.4-.9 1.4-.9 2.6-2 4-2.8 1.6-1 3.1-1.9 4.8-2.6.2-.1.4-.1.6-.1.6 0 1.1.1 1.6-.1 1.3-.2 2.2.5 3.1 1.2s1.7 1.6 1.7 2.9c0 1.1.1 2.1-.4 3.2-.6 1.4-1.1 2.6-2 3.8-.4.5-.6 1.1-.9 1.6-.6 1.1-1.4 2.1-2 3.3-.7 1.4-1.6 2.7-2 4.3-.3 1-.7 1.9-.9 2.9 0 .3 0 .6.1.8.1.1.6.1.8 0 .7-.4 1.5-.6 2-1.4.1-.1.3-.3.4-.4 1.6-1 2.6-2.5 3.8-3.8.4-.4.7-.9 1.1-1.4.9-1.3 2-2.6 2.8-4 1-1.7 1.8-3.6 2.7-5.4.6-1.4 1.3-2.7 1.9-4.1.4-.9.9-1.8 1.2-2.6.2-.4.5-.7 1-.7s.9-.1 1.4-.1c1.4-.1 2.7-.2 4.1-.3.1 0 .4-.1.5 0 .6.1.7.4.4.9-.4.8-1 1.6-1.4 2.3-.6 1.3-1.1 2.7-1.6 4-.3.6-.6 1.2-.8 1.8-.5 1.1-1 2.3-1.5 3.5-1.1 2.7-2.3 5.4-3.3 8.1-.6 1.5-.6 3-.1 4.5.3.8.9 1.1 1.6 1.1 1.5 0 2.8-.4 3.8-1.6 1.6-1.8 2.8-3.8 3.7-6 .2-.5.4-.9.6-1.4.6-1.1.9-2.4 1.2-3.7.5-2.3 1.2-4.6 1.6-7 .2-1.4.4-3 .4-4.5-.1-1.6-.1-3.3-.6-4.8-.2-.8-.6-1.5-.9-2.2-.3-.9-.5-1.6-1.1-2.3-.5-.6-.7-1.6-.9-2.4-.2-.6.2-1.1.9-.9 1.2.4 2.4.9 3.3 2.1.5.8 1.4 1.4 1.8 2.2.6 1 1.3 2.1 1.7 3.2.5 1.6.8 3.3 1 4.9s0 3.2-.1 4.8c0 .4-.1.9-.1 1.3-.4 2.6-.9 5-1.6 7.5-.8 2.5-1.9 4.8-3.7 6.8-.4.5-.8 1.1-1.2 1.6-.1.1-.1.1-.1.2-.9.9-1.8 1.7-2.6 2.5-.1.1-.1.1-.1.1-.4.9-1.2 1.1-1.8 1.6-.3.2-.7.4-1.1.5-.9.3-1.6.6-2.5.7-2.1.4-4.1.1-5.9-1-1.6-.9-2.8-2.3-3.1-4.2-.1-.9-.3-1.6-.5-2.6-.2.1-.4.2-.6.4-.6.6-1.1 1.1-1.7 1.7-1.2 1.1-2.4 2.3-3.7 3.3-.8.6-1.7 1-2.6 1.4-1 .4-2.1.7-3.1 1.1-.9.3-1.8.1-2.8 0-.4 0-.7-.4-.9-.6-.4-.4-.8-1-1.1-1.5-.1-.1-.1-.4-.2-.6-.4-1.5-.1-2.9.3-4.3.7-2.3 1.8-4.3 2.9-6.5.5-.9.9-1.9 1.4-2.8s1-1.7 1.5-2.6c.7-1.1 1.4-2.2 2.1-3.3.4-.6.5-1.3.7-1.9.1-.2 0-.5 0-.9-1.1.1-2.1.3-2.8.8-.9.6-1.8 1.1-2.6 1.7-1.7 1.3-3.6 2.3-4.9 4-.1.2-.3.5-.4.7-.6 2.4-1.6 4.6-2.8 6.8-.7 1.2-1.3 2.4-2.1 3.6-.7 1.1-1.5 2.2-2.4 3.1-.6.6-1.2 1.4-1.8 1.9-1.5 1.3-3.2 2.1-5.2 2.2-.4 0-.7.1-1 .1-1.6.4-2.9-.1-4.1-1.2-.4-.4-.9-.7-1.2-1.2-.6-.9-.8-1.9-.9-2.9-.1-.7-.1-1.5-.1-2.2 0-.8.1-1.5.2-2.3.1-.4.1-.6.2-1.1-.6.5-1.1.9-1.6 1.3-.7.7-1.4 1.5-2.1 2.2-.1.1-.1.1-.1.2-.9.9-1.9 1.6-2.8 2.5-.9 1.1-2.1 1.7-3.1 2.6-.6.5-1.3.9-2 1.3-.5.4-1.1.6-1.6 1-.2.1-.4.2-.6.3-1.2.3-2.3.8-3.6.6-.5-.1-1-.3-1.4-.5-1-.5-1.6-1.3-2.1-2.3-.4-1-.6-2-.5-3.1.2-1.9.9-3.7 1.7-5.4 1.1-2.3 2.2-4.5 3.3-6.7.7-1.5 1.5-3 2.2-4.5.4-.7.8-1.4 1.2-2.2-.7-.1-1.4-.3-1.9-.4-.4-.1-.8-.1-1.1-.1-.2 0-.5.1-.6.3-1 1.1-2 2.1-3 3.3-.8.9-1.5 1.8-2.3 2.8-.5.6-1 1.1-1.5 1.6-.1.1-.2.1-.3.1-.6.1-1.2.2-1.8.4-.4.1-.8.2-1.2.3-.3 0-.6 0-.9-.2-.1-.1 0-.6.1-.7 1.1-1.4 2.2-2.8 3.3-4.2 1.6-1.9 3.3-3.8 4.8-5.8.4-.5.6-1.2.6-1.8.1-1-.1-2.1-.1-3.1 0-.9 0-1.8.1-2.7.4-2.1 1.1-4.3 2.2-6.1 1.2-2.1 2.8-3.6 5-4.5.9-.4 1.7-.3 2.6 0 .5.1.7.5.6 1-.1.4-.1.8-.3 1.1-.4.9-.7 1.7-1 2.6-.1.2-.2.5-.3.7-.4.7-.7 1.5-1 2.2-.9 2.1-1.8 4.3-2.9 6.3-.6.9-.9 2-1.5 3.1 1 .1 1.8.4 2.6.4 1.8.1 3.7.1 5.5-.2.9-.1 1.6-.6 2.5-.9.2-.1.4-.3.5-.3.3 0 .6 0 .9.2.1.1 0 .5-.1.7-.4.8-1 1.6-1.4 2.4-.9 1.6-1.7 3.1-2.6 4.6-1 2-2 4-3 6-.4.7-.9 1.4-1.2 2.2-.6 1.2-1.1 2.4-1.6 3.6-.3.6-.6 1.2-.8 1.8-.1.3-.1.6-.2.9-.1 1.1.3 1.4 1.3 1.1.6-.1 1.2-.5 1.7-.9 1.3-1.1 2.6-2.2 3.8-3.3.4-.4.9-.9 1.2-1.3.2-.2.4-.5.7-.7 1.8-1.7 3.6-3.6 5.2-5.5 1.8-2.1 3.5-4.3 5.3-6.5.1-.1.3-.4.5-.5 1.2-1.2 2.4-2.4 3.7-3.5 1.6-1.4 3.4-2.3 5.6-2.4 1.1 0 2.2 0 3.3.2 1.4.4 2.5 1.2 3 2.7.6 1.3.8 2.5.6 3.9zm-5.7-3.2c-.6.2-1.2.4-1.6.7-1.2.9-2.4 1.8-3.1 3.2l-.1.1c-.6.9-1.3 1.8-1.8 2.8-.7 1.4-1.4 2.8-2 4.1-1.2 2.5-2.2 5-2.5 7.7-.1 1.4 1.1 3.5 3.1 2.8 1.2-.4 2.3-1 3.2-1.9 1.4-1.4 2.3-3.2 3.2-5 .6-1.3 1.1-2.6 1.8-4 .2-.5.2-.9-.1-1.4-.2-.2-.4-.5-.6-.8-.4-.6-.9-1.4-.6-2.2.5-1.5 1.1-2.9 2.4-3.9.6-.5.6-1.5-.1-1.9-.3 0-.7-.1-1.2-.3z"></path><path d="m77.3 41.9c.2 1.5.4 3 .7 4.6.4 2.2.8 4.4 1.2 6.6.1.3.1.6-.2.9-.4.2-.7 0-1-.3-2.3-2-4.5-4-6.8-5.9-.5-.4-.9-.9-1.4-1.3-.1.1-.1.1-.1.1.1.1.1.3.2.4.8 1.4 1.6 2.6 2.3 4 .6 1 1.2 1.9 1.8 2.9.4.6.8.7 1.4.5.1 0 .1-.1.1-.1.6-.1 1 0 1.1.4s-.1.6-.7 1c-1 .6-2 1.2-3 1.8-.4.3-.8.3-1.1-.1-.4-.4-.1-.7.1-1.1.8-.9.7-1.5.1-2.5-.8-1.2-1.5-2.5-2.2-3.7-.9-1.6-1.8-3.1-2.8-4.7-.4-.7-.7-.8-1.5-.5s-.8.2-1.4-.6c.3-.3.6-.6.9-.9 1.1-.7 2.1-1.4 3.2-2 .8-.5 1.1-.4 1.8.2 1.8 1.6 3.6 3.2 5.5 4.8.1.1.4.2.6.4.4-.4.2-.9.1-1.3-.4-2.3-.9-4.7-1.4-7-.1-.6 0-1 .6-1.3 1.1-.6 2.3-1.4 3.3-2 .1-.1.1-.1.2-.1.4-.1.7-.1 1 .3.2.3.1.6-.1.9-.8.9-.7 1-.1 2.1 1.2 1.9 2.3 3.8 3.4 5.8.7 1.1 1.4 2.3 2.1 3.5.2.4.5.5.9.3.1-.1.3-.1.4-.1.4-.1.9 0 1 .4s-.1.7-.4.9c-.9.6-1.9 1.1-2.8 1.6-.5.3-1 .6-1.5.9-.1.1-.4.3-.4.2-.4-.1-.7-.2-.9-.4-.1-.1.1-.5.1-.7 0-.1.1-.1.2-.3.4-.4.4-.9.1-1.4-1.4-2.3-2.8-4.7-4.1-7-.1-.1-.2-.2-.3-.3-.1.1-.1.1-.2.1z"></path><path d="m159.8 211.2c.1-.3.1-.5.1-.8 0-.7 0-1.4 0-2.1.1-2 .1-4 .1-6 0-.5.1-.8.6-.9 1.1-.4 2.2-.9 3.3-1.3.4-.1.8-.3 1.2-.1.5.3.5.7.1 1-.2.2-.6.4-.6.6-.1.4-.1.9.1 1.4.7 2.2 1.4 4.3 2.1 6.5.4 1.2.8 2.5 1.1 3.8.3.9.3.9 1.2.9.3 0 .6.1.8.3.4.4.2.7-.2.9-1.6.6-3.3 1.2-4.9 1.8-.3.1-.6.1-.9.1-.1 0-.4-.2-.4-.4-.1-.1.1-.5.2-.6 1-.4.9-1.3.6-2.1-.1-.6-.4-1.3-.6-1.9-.6-1.8-1.1-3.6-1.8-5.4-.1-.3-.2-.6-.4-.9-.1 0-.1 0-.2 0v1.7c-.1 3.3-.2 6.6-.4 9.9v.4c-.1.2-.3.6-.4.6-.2.1-.5-.2-.6-.4-1.4-1.9-2.8-3.9-4.2-5.9-.8-1.1-1.6-2.1-2.6-3.3-.1.3-.1.4-.1.4.9 2.7 1.7 5.3 2.6 8 .3.9.6 1.1 1.5 1h.3c.4 0 .8.2.8.6 0 .2-.3.6-.5.6-.8.4-1.6.6-2.5.9-.4.1-.7.3-1.1.4-.3.1-.6.1-.8-.1-.5-.2-.5-.6-.1-.9 1.2-.8.9-1.8.6-2.9-.7-2.3-1.5-4.6-2.3-7-.3-.9-.5-1.7-.8-2.5-.2-.7-.5-.9-1.2-.7-.2 0-.4.1-.6 0-.3-.1-.6-.3-.7-.5-.1-.4.2-.6.6-.7.9-.3 1.6-.6 2.5-.9.6-.2 1.2-.4 1.8-.7.5-.2.9-.1 1.1.4 1.1 1.6 2.3 3.2 3.4 4.8.5.7 1 1.4 1.5 2 .6.1.7 0 .7 0z"></path><path d="m180.7 50.4c1.4-1 2.7-2 4-3.1.8-.6.9-1.6 1-2.6 0-.1-.1-.4-.3-.5-.2-.3-.4-.6-.1-.9s.7-.3 1-.1c.5.4 1 .7 1.5 1.1.7.5 1.4 1 2.1 1.6.1.1.2.1.4.2.3.2.5.5.4.9s-.5.4-.9.4c-.9-.1-.9-.1-1.1.6-.6 1.6-1.1 3.3-1.6 4.9-.1.4-.1.8-.2 1.3.2-.1.4-.1.6-.2 1.6-1.2 3.1-2.4 4.6-3.6.4-.3.6-.8.2-1.3-.1-.1-.1-.3-.1-.5-.1-.6.3-.8.8-.6.4.1.7.4 1 .6.6.5 1.3.9 1.9 1.4.3.2.6.4.4.9-.1.4-.4.4-.8.3-1-.4-1.7.1-2.4.7-1 .7-1.9 1.4-2.8 2.1-2.3 1.8-4.7 3.6-7 5.3-.1.1-.3.2-.4.3-.6.3-1.1 0-1.1-.6 0-.1 0-.4.1-.5.5-1.6 1-3.1 1.5-4.6.4-1.1.7-2.3 1-3.4.1-.2.1-.4.1-.7-.7.5-1.4.9-1.9 1.3-1.8 1.4-3.7 2.8-5.6 4.1-.2.1-.6.2-.9.1-.4-.1-.4-.6-.4-.9.1-.7.4-1.4.6-2.1.8-2.5 1.5-4.9 2.3-7.4.4-1.3.8-2.5 1.2-3.8.1-.4.2-.9-.2-1.3-.3-.3-.3-.6 0-.8.2-.1.6-.1.9 0 1.1.7 2.1 1.5 3.1 2.2.3.2.6.4.9.6.4.2.5.4.4.9-.1.4-.4.4-.8.4-.9-.1-1-.1-1.2.8-.6 1.9-1.1 3.8-1.7 5.7-.1.2-.1.5-.2.7-.4.1-.3.1-.3.1z"></path><path d="m109.8 33.1c1.2 0 2.1.4 2.8 1.1 1.2 1 1.8 2.9 1.2 4.3-.6 1.7-1.8 2.8-3.6 3.3-2.6.7-5.2 1.2-7.8 1.8-.4.1-.8-.1-1-.4-.2-.4.1-.7.4-.9.8-.4.9-1.1.7-1.8-.6-3-1.4-6-2-9-.1-.5-.2-1-.3-1.5s-.4-.7-.9-.8c-.1 0-.2 0-.4-.1-.4-.1-.8-.2-.8-.7s.4-.6.8-.6c2.2-.5 4.3-1 6.5-1.4 1.5-.3 3-.4 4.3.6 1.1.8 1.8 1.8 1.7 3.1-.1.8-.3 1.5-.9 2.1.1.2-.2.5-.7.9zm.4 4.3c-.1-.4-.3-1.1-.6-1.6-.2-.4-.7-.8-1.1-1-.9-.3-1.7-.4-2.6-.1-.4.1-.6.4-.5.8.2.9.4 1.7.6 2.6.1.7.3 1.4.4 2.1s.4.9 1.1.8c.4-.1.6-.2.9-.4 1.4-.6 1.6-1.8 1.8-3.2zm-2.3-7c0-.6-.1-1.2-.7-1.8-.8-.7-1.7-.7-2.6-.5-.4.1-.6.4-.5.9.3 1.2.5 2.4.8 3.7.1.6.4.8 1.1.6 1.3-.4 1.9-1.3 1.9-2.9z"></path><path d="m136.7 217c-.1 2.3-.7 4.1-2.1 5.5-.6.6-1.4 1.2-2.1 1.8-1.1.8-2.3.9-3.6.9-1.7.1-3.5.1-5.2.2-.5 0-1.1.1-1.5-.1-.3-.1-.6-.4-.6-.6-.1-.4.3-.5.7-.6.6-.1.9-.4.9-1.1.1-.8.1-1.6 0-2.3-.1-1.5-.1-3-.1-4.5 0-.9-.1-1.8-.1-2.6s-.1-1.5 0-2.3c0-.5-.1-.8-.7-.9-.1 0-.2-.1-.4-.1-.3-.1-.6-.3-.5-.6.1-.4.4-.5.6-.5.9-.1 1.8-.1 2.6-.1 1.4-.1 2.9-.1 4.3-.1 2.2 0 4.1.8 5.5 2.4 1.1 1.1 1.7 2.6 2 4.1.2.5.2 1.1.3 1.5zm-9.9 5.4c.1.3.1.6.1.9 0 .4.2.5.6.6 1 .1 1.9.1 2.8-.6.8-.6 1.3-1.4 1.6-2.3 1-2.6.9-5.3-.1-7.8-.6-1.6-1.8-2.6-3.5-2.8-1.1-.1-1.5.2-1.5 1.4z"></path><path d="m159.8 42.6c.3-3.6 1.7-6.3 4.8-7.9.7-.4 1.5-.6 2.3-.9 1.8-.5 3.5.2 5 1.2 2.1 1.4 2.9 3.4 3 5.8.1 2.6-1 4.8-2.6 6.7-1.2 1.4-2.6 2.3-4.3 2.6-1.6.3-3.1.1-4.6-.8-1.6-.9-2.8-2.3-3.2-4.1-.3-.8-.4-1.7-.4-2.6zm3.3 3.2v.7c.1 1.1.9 1.8 1.9 1.8 1 .1 1.8-.4 2.5-1.1.4-.5.9-1 1.2-1.6 1.3-2.1 2.3-4.2 2.8-6.5.1-.9.1-1.6-.1-2.3-.1-.4-.6-.9-1.1-1-1.1-.2-2.1-.1-2.9.7-.4.4-.9.9-1.1 1.4-.7 1.2-1.4 2.4-2 3.6-.7 1.3-1.1 2.8-1.2 4.3z"></path><path d="m199.9 67.9c.4-.3.7-.5.9-.7 1.1-1.1 2.3-2.2 3.3-3.4.3-.4.6-.7.8-1.1s.3-.9-.1-1.2c-.3-.2-.3-.6 0-.8.3-.3.6-.2.9 0s.5.5.8.8c.6.6 1.1 1.1 1.7 1.8.3.3.6.5.2.9-.3.4-.6.4-.9.1s-.8-.2-1.1 0c-.4.2-.8.6-1.1.9-2.1 2.1-4.1 4.1-6.2 6.1-.7.7-1.5 1.5-2.2 2.2-.1.1-.2.2-.3.3-.6.5-1.1.3-1.2-.5-.1-.3-.1-.5 0-.8l.6-4.5c.1-1.4.3-2.8.4-4.3.1-1.4.4-2.8.6-4.1.1-.4.1-.8.1-1.3-.2.1-.3.1-.4.1-1.8 1.8-3.7 3.5-5.6 5.3-.3.3-.5.6-.7.9-.3.4-.3.9.1 1.4.1.1.2.3.2.4-.1.3-.1.6-.4.7-.2.1-.6-.1-.7-.2-.5-.5-1-1-1.5-1.5-.4-.4-.8-.8-1.2-1.2-.3-.3-.5-.6-.2-1 .3-.3.6-.2.9-.1.9.5 1.1.4 1.8-.3.8-.8 1.6-1.6 2.4-2.4 1.6-1.6 3.2-3.1 4.8-4.6.6-.6.9-1.2.5-2.1-.1-.4-.5-.9 0-1.1.5-.4.9.1 1.2.4.8.8 1.6 1.6 2.3 2.5.2.2.3.6.3.9-.1 1.4-.4 2.8-.5 4.1-.3 2.3-.6 4.6-.8 6.8.2.2.2.4.3.6z"></path><path d="m119.7 24.6h6.8c.7 0 .8.1 1 .8.3.9.5 1.8.8 2.6 0 .1.1.2.1.4-.1.3-.1.6-.3.9-.3-.1-.6-.1-.9-.4s-.4-.6-.6-1c-.9-1.1-2.1-1.7-3.4-1.8-.9-.1-1.1.1-1.3 1.1-.1.5 0 1.1 0 1.6 0 .9.1 1.7.1 2.6 0 .6.1.8.8.6.6-.1 1.1-.6 1.4-1.2.1-.4.3-.9.4-1.3s.1-.7.6-.7c.4 0 .8.3.9.8.1.3.1.6.1.9v4.8.6c-.1.4-.2.7-.6.7-.5 0-.8-.2-.9-.7-.1-.4-.1-.9-.2-1.3-.1-.8-1-1.4-1.8-1.3-.4.1-.6.3-.6.6 0 1.4.1 2.8.1 4.2 0 .9.3 1.1 1.2 1.1 2-.1 3.7-.8 4.9-2.5.2-.3.4-.6.6-.8.3-.1.6-.3.9-.2.4.1.4.4.4.8 0 .3-.1.6-.2.9-.2.8-.5 1.6-.7 2.4s-.4 1.1-1.3 1.1c-3.4 0-6.8 0-10.2 0-.3 0-.6-.1-.9-.2-.1-.1-.4-.4-.3-.6 0-.2.3-.5.5-.5 1 0 1.1-.6 1.1-1.4s0-1.5 0-2.3c0-2.6 0-5.2 0-7.7 0-.4 0-.7 0-1 0-.4-.1-.7-.6-.7-.1 0-.4 0-.4-.1-.2-.2-.6-.5-.6-.8-.1-.4.4-.6.7-.7h.6c.5-.3 1.1-.3 1.8-.3z"></path><path d="m107.7 208.8c-.3-.1-.6-.2-.8-.3-.4-.1-.5-.4-.4-.7.1-.4.4-.5.6-.5s.5 0 .8.1c2.5.4 4.9.9 7.4 1.3.4.1.7.1 1 .1.5 0 .9.3.9.9.1 1.1.1 2.3.2 3.4 0 .2-.1.6-.4.6-.1.1-.5-.1-.6-.3-.1-.1-.2-.4-.3-.6-.4-1.4-1.3-2.1-2.4-2.8-.2-.1-.5-.2-.8-.2-1-.1-1.2 0-1.4 1-.3 1.4-.5 2.8-.7 4.3-.1.6 0 .6.6.7.6 0 1.1-.1 1.4-.7.2-.5.4-1.1.7-1.6.3-.6.5-.7.9-.6.5.1.6.5.5 1-.3 2-.6 3.9-.9 5.9-.1.6-.5.9-.9.9-.5-.1-.6-.5-.6-.9s0-.9 0-1.4-.3-.9-.6-1.1c-.7-.5-1.3-.3-1.4.6-.2 1.4-.4 2.8-.6 4.2-.1.9.1 1.2 1.1 1.3 1.4.1 2.8 0 3.9-.8.5-.4.9-.8 1.4-1.2.2-.2.4-.5.7-.6s.7-.1.9.1c.1.1.1.6 0 .9-.4.8-.8 1.6-1.2 2.3-.1.1-.1.3-.2.4-.4 1.1-.5 1.1-1.6 1-1.5-.3-3.1-.5-4.6-.7-1.8-.3-3.5-.6-5.3-.9-.4-.1-.7-.3-.7-.8 0-.4.4-.5.7-.6.8-.1.9-.3 1.1-1.2.2-1 .4-2 .5-2.9.4-2.6.8-5.1 1.2-7.7-.2-.9-.2-1.4-.1-1.9z"></path><path d="m72.7 195.3c-.1-.5 0-1.2-.1-1.9-.1-.6-.4-1.3-.8-1.8-.4-.6-.9-.9-1.6-.7-.2.1-.5.1-.6.4-.9 1.1-1.7 2.3-2.6 3.4-.5.6-.4.9.4 1.2s1.4.2 1.9-.3c.3-.3.5-.6.8-.8.4-.4.8-.4 1.1 0 .3.2.4.5.1.8-1.3 1.7-2.6 3.4-3.8 5.1-.3.4-.8.4-1.2.1s-.3-.6-.1-1c.3-.6.5-1.2.7-1.8.2-.5-.1-.9-.4-1.3-.4-.4-.8-.4-1.1 0-.9 1.1-1.8 2.1-2.6 3.3-.7 1-.6 1.4.4 2.1 1 .6 2 1.1 3.1 1.2.9.1 1.8-.2 2.7-.4.3-.1.6-.1.9-.1.2.1.5.2.6.4.1.1-.1.4-.2.6-.1.1-.2.1-.3.2-.9.6-1.8 1.3-2.7 1.9-.6.4-.7.5-1.4 0-1.7-1.3-3.3-2.6-5-3.9-1.1-.9-2.2-1.7-3.3-2.6-.4-.2-.6-.6-.4-.9.1-.2.4-.3.7-.4.1 0 .3.1.4.1.6.3.8.3 1.3-.2.1-.1.2-.3.3-.4 1.3-1.7 2.6-3.5 3.8-5.2.8-1 1.7-1.9 2.5-2.9.4-.4.5-1 .7-1.5.1-.1-.1-.4-.3-.6-.4-.4-.4-.8-.1-1.1.4-.3.7-.1 1 .1 1.2 1 2.5 2 3.7 3s2.5 1.9 3.7 2.8c.4.3.6.6.4 1-.4 1-.9 1.9-1.3 2.8-.1.4-.4.7-.8.6-.5-.1-.5-.5-.5-.9 0 .1 0 0 0-.4z"></path><path d="m92.7 29.7c2.3-.2 4.7 2.3 4.7 4.4 0 1.6-.7 2.8-2 3.6-.9.6-1.8.9-2.8 1.4-.6.3-.7.5-.5 1.1.5 1.2 1 2.4 1.5 3.6.3.6.4.6 1.1.5.5-.1 1-.3 1.5 0 .2.1.5.4.5.6s-.2.5-.4.6c-.4.4-.9.5-1.5.5-.4 0-.8.1-1.1.3-1.1.4-2.1.9-3.2 1.3-.2.1-.6.1-.9.1-.6-.1-.6-.8-.2-1.2.8-.6.9-1 .5-1.9-1.2-3.1-2.5-6.1-3.7-9.2-.1-.3-.2-.6-.4-.9-.1-.1-.5-.2-.7-.3-.4-.1-.9-.2-1.1-.4-.4-.3-.3-.7.1-.9 2.4-1 4.9-2 7.3-3 .4-.1.9-.1 1.3-.2zm-1.3 8.2c.4-.2.9-.4 1.1-.6 1-.9 1.2-1.9.9-3.1-.4-1.7-1.6-2.5-3.3-2.1-.8.1-1.1.6-.8 1.3.8 1.4 1.4 2.9 2.1 4.5z"></path><path d="m59.5 189.3c-1-.1-2.1-.6-3.1-1.4-.5-.5-.9-1.1-1.4-1.6-.6-.6-.7-.7-1.4-.1s-1.4 1.3-2.1 1.9c-.2.2-.4.4-.6.5-.6.6-.7 1.1-.3 1.8.1.1.2.2.2.4 0 .3-.1.6-.2.7s-.5.1-.6-.1c-.4-.3-.8-.7-1.1-1.1-1-1.1-1.9-2.3-2.9-3.4-.3-.3-.4-.6-.1-.9s.6-.1.9 0c.9.5.9.5 1.6-.2 1.1-1 2.3-2 3.3-3 1.6-1.5 3.3-3.1 4.9-4.6.5-.4.5-.9.2-1.5-.1-.3-.2-.6.1-.9.3-.2.6-.1.9.1s.5.5.8.8c1.4 1.6 2.8 3.1 4.3 4.8 1.1 1.2 1.6 2.6 1.1 4.3-.4 1.5-2.1 3.5-4.5 3.5zm-1.9-3.1c1.6 0 3-1.4 3.4-2.8.1-.5.1-1.1.1-1.6-.3-1.1-1.1-1.3-1.9-.5-1.1 1-2.1 1.9-3.2 2.9-.4.4-.4.7-.1 1.1.3.6.9.9 1.7.9z"></path><path d="m54.8 69c-.1-1-.4-1.8-.9-2.6-.4-.5-.4-.9-.1-1.1s.8-.3 1.2.2c1.8 2.1 2.5 4.8.8 7.5-.8 1.2-1.8 2.3-3.3 3-1.6.8-3.3.9-5 .4-1.9-.5-3.6-1.6-4.7-3.1-2-2.6-2.8-5.5-1.4-8.8.8-1.8 2.3-3.1 4.1-3.8.8-.3.8-.3.8-1.1 0-.6.4-.9.9-.6s.9.7 1.3 1.1l1.9 1.9c.1.1.2.2.3.4.1.3.1.6.1.8-.1.1-.5.3-.7.3-.4-.1-.8-.2-1.1-.4-1.3-.4-2.5-.5-3.7.1-1.1.6-1.7 1.7-1.6 3 .1 1.2.5 2.3 1.4 3.3 1.1 1.5 2.5 2.7 4.3 3.5 2.2 1 4.1.2 5.1-2.1 0-.7.2-1.3.3-1.9z"></path><path d="m85.4 198.7c-.1.8-.1 1.4-.2 1.9-.3 2.3-.6 4.6-.9 6.8-.2 2.2-.4 4.4-.6 6.6-.1.5.1.9.6 1.2.3.1.4.4.3.7-.2.4-.5.4-.8.3-.4-.1-.6-.3-1-.5-1.4-.7-2.7-1.4-4-2.1-.1-.1-.4-.1-.4-.3-.1-.2-.3-.6-.2-.7s.4-.3.7-.3c.9.1 1.1.1 1.2-.9.2-1.1.3-2.2.4-3.3 0-.2-.1-.5-.3-.6-.9-.5-1.8-1-2.8-1.5-.4-.2-.7-.1-1 .1-.6.6-1.4 1.3-1.9 2-.5.6-.4 1.2.3 1.7.3.3.5.6.2.9s-.6.4-1 .1c-1.1-.6-2.3-1.2-3.4-1.8-.1-.1-.3-.2-.4-.3-.1-.2-.3-.6-.2-.6.1-.2.5-.4.7-.4 1.1.3 1.8-.2 2.5-.9 2-1.8 4.1-3.6 6.1-5.5.6-.5 1.2-1.1 1.8-1.6.2-.3.4-.6.5-1s.4-.6.9-.7c.7-.1 1.5-.2 2.2-.3.3.3.7.6.7 1zm-4.3 3.3c-1.1 1-2.2 1.7-2.9 2.9.9.4 1.6.8 2.3 1.1.3-.5.7-3 .6-4z"></path><path d="m55.1 55.3c-.2.4-.3.6-.4.8-.4.5-1.1.4-1.2-.2-.1-.4-.1-.9 0-1.3.1-.8.4-1.5.5-2.2.2-1.1 1.2-1.4 2.1-.6.7.6 1.5.9 2.3 1.4 3.2 1.7 6.5 3.4 9.7 5 .6.3 1.1.4 1.8.1.1-.1.4-.1.5-.1.3.1.6.2.7.4s.1.6-.1.8c-.5.5-1.1 1-1.6 1.4-.9.8-1.8 1.5-2.7 2.2-.3.3-.6.4-1 .1s-.4-.6-.1-1c.1-.1.2-.4.2-.6s-.1-.6-.2-.6c-.9-.6-1.9-1.1-2.9-1.6-.2-.1-.6 0-.8.1-.7.5-1.4 1.1-2 1.6s-.8 1.1-.4 1.8c.3.6.6 1.3.9 1.9.4.7.7.8 1.4.4.1 0 .1-.1.1-.1.4-.2.8-.2 1.1.2s.1.8-.2 1.1c-.7.6-1.4 1.2-2.1 1.8-.3.3-.6.6-.9.8-.2.1-.6.2-.8.1-.3-.1-.5-.5-.4-.9.6-1.1.4-2.3-.1-3.3-.9-2.2-1.7-4.4-2.6-6.6-.1-.9-.4-1.9-.8-2.9zm2.2 1c-.2.8.8 2.9 1.4 3.5.4-.4.9-.6 1.4-1s.5-.8 0-1c-.9-.5-1.8-1-2.8-1.5z"></path><path d="m94.2 204.7c-1.4 0-2.6.7-3.6 1.6-.2.1-.4.4-.6.5-.4.2-.8.3-1-.1-.1-.2-.1-.6 0-.9.3-.6.7-1.2 1.1-1.8.3-.5.6-.9.8-1.4.2-.4.6-.6 1.1-.4.7.3 1.4.5 2.1.8 2.1.9 4.2 1.6 6.3 2.5.9.4 1.9.7 2.9 1.1.6.2.7.3.6 1-.1 1-.3 2-.4 3.1-.1.4-.1.7-.3 1-.1.2-.4.4-.6.4-.1 0-.4-.3-.5-.4-.1-.3-.1-.6-.2-1-.2-.9-.4-1.7-.7-2.4-.3-.5-.8-.9-1.3-1.4-.4-.3-.9-.1-1 .4-.6 1.6-1.2 3.2-1.8 4.8-.6 1.4-1.1 2.8-1.6 4.2-.3.8-.5 1.6-.8 2.4-.1.4 0 .8.4 1 .1.1.2.1.3.1.3.1.5.4.3.7-.1.1-.5.3-.7.3-.4 0-.6-.1-1-.3-1.4-.5-2.8-1.1-4.2-1.6-.1 0-.1-.1-.2-.1-.3-.1-.6-.3-.5-.7s.4-.6.8-.4c.7.2 1.1-.1 1.3-.8.4-1 .8-2 1.1-3.1.9-2.4 1.8-4.9 2.8-7.3.1-.2.1-.4.2-.6 0-.9-.3-1.2-1.1-1.2z"></path><path d="m152.1 30c.1-.6-.1-.7-.5-.8-.9-.1-1.6.3-2.4.6-.4.2-.9.6-1.3.9-.3.2-.6.5-.9.7s-.6.4-.9.1c-.4-.3-.4-.6-.1-1 .2-.4.5-.9.7-1.4.4-.6.7-1.2 1.1-1.8s.6-.6 1.1-.5c2.6.8 5.3 1.6 7.9 2.3 1.1.4 2.2.6 3.3 1 .8.2.9.5.8 1.3-.1 1-.2 2-.3 3-.1.9-.2 1.2-.6 1.3s-.6-.3-.8-1.1c-.3-1.4-.6-2.6-1.8-3.5-.8-.6-1.5-.4-1.8.6-1 3.5-2.1 7-3.1 10.5-.3.9-.2 1 .6 1.5.4.2.6.5.4.9-.1.4-.5.4-.9.3-1.4-.4-2.8-.8-4.2-1.2-.2-.1-.4-.1-.6-.1-.3-.1-.6-.1-.8-.4-.1-.2-.3-.6-.2-.9.1-.1.5-.4.6-.3.6.2.9-.1 1.1-.6.1-.4.4-.9.5-1.4.9-3.1 1.8-6.1 2.7-9.2.3-.5.4-.7.4-.8z"></path><path d="m175.1 206.6c.3 1.1.4 2 .8 2.9.2.6.6.8 1.3.6.1 0 .1-.1.2-.1.4-.1.9-.1 1 .4.2.5-.1.7-.5.9-.6.4-1.3.6-1.8 1-.4.2-.7.5-1.1.7-.2.1-.4.3-.7.3-.6.1-.9-.4-.6-.9.9-1.4.5-2.9.2-4.4-.4-2.1-.9-4.2-1.3-6.3-.1-.9-.4-1.8-.6-2.7-.1-.2-.2-.5-.4-.6-.5-.3-.5-.7-.4-1.2.2-.6.4-1.1.6-1.6.3-.7.7-.9 1.4-.4.7.6 1.4 1.1 2.1 1.7 1.4 1.1 2.9 2.3 4.3 3.4 1.5 1.1 3 2.3 4.5 3.4.6.5 1.4.9 2.3.7.1 0 .3-.1.4 0 .2.1.6.2.6.4s-.1.6-.3.7c-.1.1-.4.2-.6.4-1.2.7-2.3 1.4-3.6 2.1-.3.2-.6.4-1 .6-.3.1-.5.1-.7-.1s-.3-.6-.1-.9c.1-.1.3-.4.4-.6.1-.4.1-.7-.2-1-.9-.6-1.6-1.3-2.6-1.8-.2-.1-.7-.1-.9 0-.9.5-1.7 1-2.6 1.6.1.1.1.5-.1.8zm-1-6.2c-.1.1-.1.1-.2.2.4 1.2.4 2.5 1 3.7.6-.4 1.1-.6 1.6-.9.6-.4.6-.7.1-1.1-.6-.5-1.1-.9-1.7-1.4-.3-.3-.6-.4-.8-.5z"></path><path d="m193.6 183c.1.8.3 1.5.4 2.1.1.1.1.4.1.5.1.4.1.8-.3.9s-.7-.1-1-.5c-.3-.6-.6-1.1-1-1.6s-.7-1-1.1-1.4-.4-.9 0-1.3c.1-.1.2-.3.4-.4 1.8-1.8 3.5-3.6 5.3-5.5.9-.9 1.6-1.8 2.3-2.6.4-.5.6-.6 1.1-.2 1.2.7 2.3 1.5 3.5 2.3.2.1.4.5.4.6-.1.2-.4.4-.6.4-.3.1-.6-.1-.9-.1-1.1-.4-2.3-.3-3.5 0-.2.1-.4.1-.6.2-.8.4-.9.9-.2 1.6 1.8 1.8 3.6 3.6 5.5 5.4l2.3 2.3c.6.6.8.6 1.6.2.2-.1.6-.2.9-.1.4.1.5.5.3.9-.1.2-.3.4-.4.5-1.1 1.2-2.2 2.3-3.3 3.6-.4.4-.8.5-1.1.2-.4-.3-.3-.6-.1-1 .5-1 .4-1.1-.4-1.9-1.3-1.1-2.5-2.3-3.7-3.6-1.1-1.1-2.3-2.3-3.4-3.3-.2-.2-.4-.4-.6-.5-.6-.5-1.1-.4-1.4.3-.2.5-.3 1.3-.5 2z"></path><path d="m134.5 24.8c.4.1.8.1 1.1.1 1.3.2 2.6.4 3.8.6.2.1.6.1.7.2s.3.4.3.6c0 .1-.3.3-.4.4s-.2 0-.4 0c-.8.1-.9.1-1 .9s-.3 1.6-.4 2.4c-.1 1.2-.3 2.3-.4 3.6-.2 1.6-.4 3.3-.6 5-.1.9.3 1.2 1.1 1.3.6 0 1.1.1 1.6 0 1.1-.1 1.9-.5 2.6-1.3.5-.5.9-1 1.4-1.4.4-.4.7-.5 1.1-.2s.3.6.1 1.1c-.5 1.1-.9 2.3-1.4 3.5-.1.4-.4.7-.9.6-1.8-.5-3.8-.4-5.6-.7-1.5-.2-3.1-.4-4.6-.6-.3-.1-.6-.1-.9-.2-.2-.1-.4-.4-.5-.6-.1-.4.2-.6.5-.7s.8-.1.9-.4c.2-.4.4-.9.4-1.4.1-.9.3-1.9.4-2.8.2-2 .4-3.9.6-5.9.1-.6.1-1.3.2-1.9 0-.4-.1-.7-.6-.8-.1 0-.3-.1-.4-.1-.1-.2-.4-.4-.4-.6s.3-.4.4-.6c.8-.1 1.1-.1 1.3-.1z"></path><path d="m196.9 193.3c-.1-.5-.1-.9-.1-1.4 0-.4-.1-.9.4-1s.9.1 1.1.6c.4 1 .9 2 1.3 3 .4.8.3 1.4-.5 1.9-1.8 1.4-3.4 2.8-5.1 4.2-.8.7-1.6 1.4-2.3 2.1-.4.3-.6.6-1.1.4-.4-.1-.6-.4-.4-.9.1-.1.1-.2.2-.3.5-.7.5-1.1-.1-1.8-.6-.9-1.4-1.7-2.1-2.5-1.6-2-3.3-4-5-5.9-.5-.6-.7-.6-1.4-.3-.1.1-.4.2-.5.2-.2 0-.6-.1-.6-.3-.1-.1-.1-.5.1-.7.2-.4.5-.6.9-.9 1-.9 1.9-1.6 2.9-2.4.3-.2.6-.5 1-.6.3-.1.7.1.9.3.3.3 0 .6-.1.8-.6.9-.6.9.1 1.7 2.1 2.6 4.3 5.3 6.5 8 .9 1 1.6 1 2.5 0 .8-1.4 1.4-2.7 1.4-4.2z"></path></svg> 