<?xml version="1.0" encoding="UTF-8"?> <svg xmlns="http://www.w3.org/2000/svg" viewBox="0 0 486.36 512.74" xml:space="preserve"><path d="M164.47 74.97h144.92v370.6H164.47V74.97zm110.55 145.55c.35.15.47.18.57.25.42.31 1.08.57 1.16.95.08.36-.48.85-.72 1.3-.27.51-.69 1.04-.71 1.58-.13 3.26-.12 6.53-.24 9.8-.04 1.04.48 1.58 1.33 1.64 1.34.09 2.74.19 4.02-.12 6.62-1.59 12.42-4.95 18.1-8.56.4-.25.9-.37 1.23-.67.32-.3.68-.75.7-1.15.05-1.35-.1-2.72-.06-4.07.22-7.86.46-15.73.71-23.59.02-.59.22-1.18.26-1.77.1-1.37.32-2.76.2-4.11-.18-1.85-.97-3.7-.9-5.52.18-4.18.73-8.34 1.12-12.5.04-.39.1-.81 0-1.18-.91-3.63-.47-7.3-.32-10.96.04-.99.27-1.99.21-2.97-.33-5.22-.76-10.43-1.06-15.65-.06-.95.33-1.93.47-2.9.17-1.17.47-2.36.4-3.51-.24-3.82-.73-7.63-.92-11.45-.2-3.95-.21-7.91-.22-11.87 0-.95-.34-1.47-1.22-1.55-1.01-.1-2.04-.12-3.06-.09-3.79.11-7.31 1.25-10.56 3.13-2.9 1.67-5.76 3.44-8.55 5.29-6.85 4.53-13.11 9.7-17.43 16.86-.05.08-.2.11-.3.16l.3-.33c-.85-.67-1.74-1.29-2.52-2.03-.45-.42-.7-1.04-1.05-1.57-.34-.51-.61-1.09-1.04-1.5-2.15-2.02-4.37-3.97-6.5-6.02-.53-.51-.82-1.28-1.34-2.12 1.91 0 3.5-.03 5.08.01 3.03.08 6.07.23 9.1.29.47.01 1.06-.13 1.4-.42 1.19-.99 2.23-2.15 3.44-3.12 2.34-1.87 4.96-3.42 6.64-6.18-.38-.06-.79-.21-1.19-.19-2.78.14-5.56.3-8.34.49-.91.06-1.81.35-2.72.38-5.19.16-10.39.28-15.58.41-.67.02-1.33 0-2.03 0-.09-.99-.23-1.82-.22-2.65.02-.92.17-1.71 1.21-2.25.6-.31 1.1-1.25 1.23-1.98.27-1.56.53-1.99 2.14-2.17.63-.07 1.28-.08 1.92-.05 2.07.12 4.14.31 6.22.39 2.59.1 5.24.45 7.76.06 2.86-.44 5.65-.35 8.46-.02 5.35.62 10.63.76 15.94-.64 3.11-.82 6.35-1.15 9.55-1.57 1.36-.18 2.75-.03 4.2-.03 0-1.23-.01-2.18 0-3.12.02-1.57-1.13-2.76-2.74-2.73-5.02.08-9.99.35-15.04-.36-3.78-.53-7.72.12-11.6.25-3.63.12-7.27.28-10.9.35-2.67.05-5.34-.05-8-.01-2.75.04-5.5.19-8.24.25-.82.02-1.41-.33-1.94-1.1-2.46-3.6-6.49-4.21-9.53-.99-.55.58-1.07 1.19-1.65 1.74-.27.25-.65.5-.99.51-2.79.13-5.59.22-8.39.29-.35.01-.71-.07-1.04-.19-3.84-1.39-7.77-1.66-11.78-1.03-1.06.17-2.14.24-3.21.25-1.79.02-3.61-.25-5.37-.04-5.12.63-10.2.07-15.31-.06-4.13-.11-8.26-.02-12.5-.02.2 2.33.41 4.77.62 7.32h1.46c3.35.01 6.7-.02 10.04.04 3.39.06 6.78.29 10.18.31 1.83.01 3.66-.25 5.49-.35 1.86-.11 3.73-.29 5.59-.25 2.91.07 5.82.46 8.72.45 4.27-.01 8.55-.26 12.82-.39 1.33-.04 1.67.27 1.26 1.52-.52 1.57.09 2.45 1.31 3.31 1.22.87 2.09 2.05 2.13 3.68.02.77-.16 1.08-1.04.89-4.6-1-9.19-.45-13.79.15-1.97.26-3.97.43-5.95.33-3.47-.17-6.92-.6-10.39-.85-1.7-.13-3.42-.05-5.12-.16-2.14-.14-4.29-.56-6.42-.53-4.83.07-9.66.36-14.48.55-.62.02-1.25 0-1.8 0-.14.82-.28 1.48-.35 2.14-.21 1.8-.43 3.61-.57 5.42-.08 1.03.28 1.45 1.54 1.43 4.83-.09 9.66 0 14.48.06 4.26.06 8.51.19 12.77.26 1.59.03 3.18-.07 4.76-.04 3.91.06 7.82.23 11.73.24 3.03.01 6.07-.15 9.4-.24-.53.8-.83 1.35-1.23 1.83-1.16 1.37-2.44 2.65-3.52 4.08-1.54 2.04-3.31 2.96-6.02 2.75-4.21-.33-8.46-.12-12.7-.23-4.75-.12-9.5-.36-14.24-.49-5.39-.15-10.78-.25-16.17-.31-.27 0-.76.52-.79.83-.17 1.87-.22 3.74-.35 5.62-.07 1.05.35 1.3 1.36 1.15 4.57-.7 9.12-1.22 13.81-1.08 7.99.23 15.36 2.17 22.27 6.11.86.49.84 1.01.53 1.75-.98 2.36-4.53 3.8-6.9 2.83-1.62-.66-3.26-1.32-4.93-1.84-4.58-1.42-9.19-2.91-14.07-2.28-3.31.43-6.57 1.25-9.87 1.84-1.09.19-1.31.69-1.3 1.78.02 2.5-.17 5.01-.32 7.51-.16 2.65-.5 5.3-.49 7.95.01 1.89.69 3.79.69 5.68-.04 8.67-.22 17.33-.33 26-.13 9.46-.65 18.95 1.31 28.31.06.3.04.64-.03.95-.88 3.82-.87 7.71-.56 11.57.45 5.69.5 11.34-.56 16.9 1.71 0 3.4.16 5.05-.03 4.31-.51 8.04-2.52 11.6-4.87 2.63-1.74 5.1-3.78 7.88-5.22 1.83-.95 2.48-1.91 2.43-3.96-.12-4.54.09-9.1.14-13.64 0-.36-.09-.86-.34-1.06-1.15-.95-1.57-2.14-1.35-3.68.31-.03.66-.11 1.01-.09.65.04.83-.29.82-.87-.05-2.67-.07-5.33-.15-8-.01-.29-.32-.58-.54-.84-1.03-1.18-2.77-1.85-2.7-3.85.27-.03.54-.08.82-.1 1.84-.11 1.95-.1 2.15-1.88.35-3.01.59-6.04.77-9.07.03-.56-.3-1.23-.65-1.72-.82-1.17-.77-1.44.59-1.82.3-.08.61-.13.93-.19.09-.36.22-.71.24-1.06.13-1.9 1.33-3.83-.57-5.63-1.05-1-.66-1.74.82-1.91.69-.08.93-.33 1.02-1.01 1.07-7.43 2.22-14.85 3.25-22.29.3-2.18 1.1-4.35.49-6.62-.09-.34.07-.8.22-1.15.61-1.39 2.35-2.1 3.96-1.66 1.65.46 2.68 1.82 2.58 3.36-.04.67-.08 1.36.03 2.01.3 1.81.71 3.6 1.01 5.4.24 1.48.39 2.98.58 4.47.12.02.24.05.36.07.47-1.03.97-2.05 1.4-3.09 2.08-5.01 4.04-10.07 6.25-15.02.82-1.83 2.14-3.45 3.37-5.06.48-.64 1.33-1 2.01-1.48.2.51.18.78.11 1.04-2.31 9.45-3.58 19.06-4.35 28.75-.28 3.5-2.34 6.56-6.41 6.87-.3.02-.59.14-.92.22.18 1.71.35 3.32.52 4.9 1.73.44 2.32 1.68 1.25 2.68-.86.8-.89 1.57-.63 2.57.17.65.27 1.34.27 2.01 0 .92.22 1.54 1.18 1.93.98.4 1.09 1.91.19 2.39-.84.44-.87 1.06-.76 1.78.47 2.99 1 5.98 1.45 8.98.16 1.09.69 1.38 1.75 1.38 10.47-.01 20.94.03 31.42.05.19 0 .37-.07.58-.12.11-1.05.22-2.03.32-3.02.27-2.62.57-5.23.79-7.85.03-.38-.24-.9-.53-1.16-.77-.69-.71-2.04.27-2.26 1.25-.29 1.53-1.11 1.64-2.16.11-1.03.26-2.06.33-3.1.02-.31-.11-.82-.32-.92-1.01-.49-1.36-1.35-1.01-2.26.19-.48 1.04-.71 1.81-1.2.1-1.31.22-2.92.35-4.64-1.07-.27-2.08-.49-3.06-.79-.52-.16-1.07-.38-1.47-.73-1.62-1.42-2.54-3.22-2.83-5.38-1.06-7.83-2.17-15.66-3.25-23.5-.29-2.08-.54-4.16-.82-6.38.37.12.62.12.71.24 5.39 7.47 9.11 15.78 12.39 24.54.22-.53.46-.91.52-1.31.46-2.83.89-5.67 1.3-8.51.05-.34.04-.75-.09-1.06-1.28-3.16 1.13-5.16 4.4-4.67 1.1.16 2.17 1.64 2.16 2.79-.01 1.15-.15 2.33.03 3.45.81 5.2 1.74 10.39 2.58 15.59.59 3.69 1.1 7.39 1.64 11.07.76.06 1.3.11 1.9.16.06 1.01.3 1.95-.81 2.55-.19.1-.28.61-.24.91.19 1.46.43 2.92.69 4.37.05.28.21.72.4.77 1.4.38.74 1.3.57 2.07-.08.37-.4.74-.37 1.08.32 3.42.69 6.83 1.04 10.25.09.88.38 1.38 1.44 1.23.56-.08 1.18.23 2 .41-.57.73-1 1.27-1.41 1.82-.62.84-1.66 1.66-1.76 2.56-.4 2.92-.36 5.87-.46 8.72zm-57.26 68.35v1.54c-.14 21.78-.32 43.57-.39 65.35-.03 9.55.2 19.1.27 28.66.01.96.33 1.28 1.24 1.23.58-.03 1.16.06 1.73.09v2.41c-.97.09-1.88.17-2.84.26v4.19h9.34v-1.47c.08-6.79.04-13.59.29-20.38.23-6.22 6.78-11.43 12.94-10.55 5.75.81 9.74 5.38 9.77 11.23.03 6.6.03 13.19.04 19.79v1.45h6.76c.08-1.45.15-2.79.2-3.76-.64-.59-1.34-.94-1.33-1.28.04-1.15.43-2.21 1.94-2.46v-96.35h12.71v-35.23c-.66-.07-1.33-.21-1.99-.21-3 0-5.99.07-8.99.05-.71 0-.92.29-.93.91-.02 3.47-.08 6.95-.06 10.42.02 4.59.08 9.19.14 13.78.01.84-.31 1.22-1.2 1.22-1.32 0-2.63.19-3.95.18-11.59-.07-23.18-.16-34.77-.25-.58 0-1.17-.08-1.89-.14-.67-8.72-.85-17.35-.45-26.08h-11.5v35.42c4.38-.02 8.57-.02 12.92-.02zm32.41 115.67c-.29.04-.45.08-.6.08-7.15.02-14.31.03-21.46.07-.66 0-1-.24-1.01-.87-.05-1.87-.07-3.75-.09-5.62-.01-.66 0-1.31 0-1.89h-21.14v41.44h63.63v-41.29c-6.48-.85-12.88-.09-19.32-.23-.01 2.86-.01 5.53-.01 8.31zm20.25-154.43c-.14-8.68-.27-17.08-.41-25.48h-65.05v25.31c2.76 0 5.5-.08 8.23.04 1.25.05 1.69-.28 1.95-1.53 2.65-13.05 16.58-21.23 29.08-16.84 8.39 2.94 14.32 8.32 15.27 17.82.03.28.51.72.8.74 1.07.06 2.14-.04 3.21-.04 2.25-.02 4.52-.02 6.92-.02zm-50.94 26.75c12.07.36 23.99.42 36.1.09 0-1.98.06-3.77-.01-5.56-.26-6.23-.58-12.45-.84-18.68-.09-2.13-.05-2.14 1.85-2.78-.1-2.82-1.55-6.34-3.71-8.9-3.49-4.12-8.04-6.36-13.25-7.32-1.43-.26-3-.47-4.38-.15-4.97 1.16-9.29 3.6-12.77 7.38-2.05 2.23-3.38 4.83-3.52 7.94-.03.73.15 1.2.96 1.36.4.08.75.39 1.22.64-1.63 1.23-1.7 1.23-1.82 2.92-.59 7.62-.31 15.24.17 23.06zM172.83 90.81c1.38-.11 2.49-.27 3.6-.26 5.7.02 11.39.47 17.12.01 3.31-.26 6.69.36 10.04.55.82.05 1.76.19 2.45-.13 2.22-1.03 4.57-.92 6.7-.35 5.32 1.42 10.67 1.16 16.04.97 2.18-.08 4.36-.39 6.53-.66 1.14-.14 2.27-.62 3.39-.6 2.35.05 4.72.18 7.04.57 3.67.61 7.24 1.02 10.98.19 2.81-.62 5.8-.52 8.71-.63 4.55-.17 9.1-.31 13.65-.35 4.83-.04 9.66-.05 14.49.15 2.07.09 4.11.76 6.34 1.19.26-2.71 1.33-5.31 1.32-8.07-2.54 0-4.89-.02-7.23 0-3.87.04-7.74.18-11.6.15-4.51-.03-9.02-.25-13.53-.27-1.42-.01-2.84.47-4.26.53-5.42.24-10.84.4-16.26.59-.43.01-.88.01-1.3-.06-1.85-.31-3.68-.78-5.54-.94-3.68-.33-7.36-.3-10.86 1.13-1.52.62-2.93.56-4.39-.08-.98-.42-1.96-.85-2.98-1.14-.51-.14-1.11-.04-1.65.06-.88.16-1.75.6-2.62.59-2.51-.03-5.03-.09-7.52-.4-3.66-.45-7.28-.98-10.94-.04-2.21.57-4.42.36-6.66.08a81.35 81.35 0 0 0-7.64-.61c-1.37-.04-2.87.01-4.11.51-2.04.83-3.93 1.24-6.03.3-.58-.26-1.34-.14-2-.23-1.23-.18-1.73.5-1.69 1.57.07 1.89.26 3.75.41 5.68zm33.04 212.46v82.25h9.38v-82.25h-9.38zm54.07.02v82.22h9.42v-82.22h-9.42zm-11.85 89.22c.06-.71.15-1.34.15-1.97.01-5.99.07-11.98-.03-17.97-.02-1.48-.36-3.03-.88-4.42-1.34-3.59-3.95-5.82-7.85-6.07-3.74-.24-6.64 1.52-8.33 4.78-.95 1.82-1.69 3.96-1.79 5.99-.27 5.54-.16 11.09-.19 16.64-.01.98 0 1.96 0 3.02h18.92zm-43.07-180.4c0 2.35.05 4.65-.02 6.96-.04 1.25.41 1.58 1.65 1.58 20.62-.04 41.24-.03 61.85-.03h1.39v-8.23c-.7-.07-1.25-.17-1.8-.18-1.53-.02-1.79.21-1.85 1.75-.04.96.08 1.92-.02 2.87-.04.35-.47.9-.76.93-1.21.11-2.44.04-3.72.04 0-1.46.03-2.77-.01-4.08-.05-1.63-.22-1.75-1.93-1.48-.03.21-.12.44-.1.67.12 1.15.26 2.3.41 3.44.18 1.36-.02 1.66-1.41 1.66-1.07 0-2.15-.14-3.41-.23v-5.87c-.88.09-1.54.15-2.46.24.14 1.93.28 3.8.41 5.69-1.26.09-2.37.14-3.48.26-.81.09-1.11-.29-1.06-1.03.08-1.27.15-2.55.29-3.82.18-1.62-1.04-1.12-1.83-1.23-.94-.14-1.18.37-1.08 1.22.18 1.49.32 2.99.48 4.55-1.34.06-2.67.12-4.17.19v-5.85h-2.65v5.68h-4.95v-5.68h-2.67v5.59h-4.14c.09-1.89.17-3.72.26-5.54-2.23-.2-2.34-.11-2.26 1.8.04.96.16 1.92.11 2.87-.01.32-.4.87-.64.88-1.26.09-2.53.04-3.9.04v-5.48h-2.32v5.4c-1.49.07-2.86.13-4.42.2.13-2.04.25-3.85.37-5.72h-2.4v5.6c-1.08 0-2.26-.03-3.43.01-.69.02-.92-.29-.9-.93.02-1.2-.01-2.4.03-3.59.03-.8-.27-1.2-1.1-1.18-.73.05-1.44.03-2.36.03zm4.98-49.58c-.06.61-.1 1.22-.19 1.82-1.38 9.76-2.8 19.51-4.13 29.27-.54 3.95-.87 7.93-1.31 11.9-.11.98.25 1.32 1.27 1.3 3.19-.04 6.39.02 9.58.03.34 0 .68-.05 1.06-.08-1.08-14.94-4.19-29.49-6.28-44.24zm48.5 44.28c.47.02.78.05 1.09.05 3.04-.02 6.07-.03 9.11-.06 1.73-.01 1.84-.03 1.65-1.8-.55-5.16-1.13-10.32-1.83-15.46-1.03-7.63-2.17-15.25-3.25-22.88-.1-.71-.16-1.43-.25-2.14-.08-.66-.18-1.32-.27-1.98-2.05 14.75-5.17 29.29-6.25 44.27zm-52.6 93.94h9.33v-7.74h-3.19c.28 1.69.55 3.27.82 4.93h-4.52c.2-1.68.39-3.28.59-4.94h-3.03v7.75zm63.43 0v-7.78h-3.17c.29 1.69.57 3.3.85 4.95h-4.56c.21-1.69.42-3.28.62-4.93h-3v7.77c3.14-.01 6.16-.01 9.26-.01zm-54.1 91.89v-4.36h-9.33v4.36h9.33zm54.09.04v-4.38h-9.3v4.31c.31.03.54.07.77.07h8.53zm-13-218.02c.96-2.72-1.5-11.84-3.79-13.84.05.39.07.68.12.97.55 3.5 1.2 6.99 1.59 10.51.16 1.46.76 2.13 2.08 2.36zm-34.26-13.8c-2.78 4.16-3.85 8.79-3.64 13.86.79-.39 1.79-.85 1.89-1.46.69-4.11 1.19-8.26 1.75-12.4zM324.16 74.97h85.18v370.6h-85.18V74.97zm7.89 140.71.51.24c.63-.59 1.33-1.12 1.89-1.78 1.73-2.02 4.03-3.12 6.46-3.96 8.46-2.94 17.26-4.08 26.14-4.25 9.42-.18 18.69 1.46 27.88 3.44 1.85.4 3.68.87 5.59 1.32.06-.88.25-1.65.15-2.37-1.02-7.26-.57-14.51.03-21.77.2-2.46.5-4.92.56-7.38.03-1.42-.31-2.85-.52-4.27-.32-2.23-.05-4.57-2.07-6.35-1.59-1.39-2.92-3.12-4.97-3.85-2.89-1.03-5.8-2.02-8.76-2.8-1.39-.36-2.94-.4-4.38-.23-6.51.76-12.65 2.85-18.63 5.48-.76.33-1.64.65-2.22-.07-.45-.55-.79-1.42-.73-2.1.13-1.43.62-2.82.86-4.25.5-2.89 1.25-5.79 1.33-8.7.21-7.88-2.29-15.09-6.1-21.88-2.91-5.2-6.65-9.67-11.84-12.78-3.39-2.03-7.08-2.96-11.08-2.94-.19 1.8-.39 3.55-.57 5.29-.48 4.85-.92 9.71-.38 14.59.3 2.73.9 5.45.94 8.18.09 5.63-.03 11.27-.21 16.9-.35 11.09-.88 22.18-1.16 33.27-.13 5.38.07 10.78.3 16.16.11 2.3.64 4.58.98 6.86zm67.83-125.35c.13-1.85.33-4.02.42-6.2.03-.72-.17-1.4-1.21-1.4-4.99-.02-9.98-.12-14.97-.12-2.39 0-4.79.19-7.18.2-6.07.03-12.14-.03-18.21.02-1.14.01-2.26.49-3.4.52-2.07.06-4.17.11-6.23-.14-4.55-.54-9.08-.33-13.63.05-1.14.09-2.29.01-3.53.01-.27 2.22-.54 4.22-.75 6.23-.16 1.47.01 1.69 1.46 1.9.71.1 1.44.09 2.15.06 1.24-.06 2.47-.28 3.7-.24 4.22.12 8.43.34 12.65.5 1.3.05 2.63-.11 3.9.08 3.77.56 7.44.09 11.14-.6 1.92-.36 3.95-.24 5.92-.11 1.73.11 3.43.71 5.16.76 2.67.08 5.35-.05 8.01-.25 4.75-.36 9.51-.82 14.6-1.27zm.81 8.25c-1.88-.2-3.82-.65-5.75-.57-5.86.24-11.71.69-17.56 1.03-.95.06-1.92.04-2.87-.09-2.29-.3-4.56-.84-6.85-.98-1.94-.12-3.9.17-5.85.31-3.57.25-7.14.56-10.71.77-1.02.06-2.05-.19-3.08-.21-3.34-.07-6.67-.11-10.01-.13-2.21-.02-4.42 0-6.69 0v7c1.54.14 2.96.35 4.38.39 3.23.1 6.46.12 9.69.16 2.79.03 5.58.07 8.37.03 2.19-.03 4.37-.21 6.55-.22 1.91-.01 3.83.2 5.74.17 2.35-.04 4.7-.37 7.05-.32 7.94.17 15.88.46 23.83.67 1.25.03 2.51-.14 3.76-.22v-7.79zm-48.41 16.09c-.07.15-.13.3-.2.44.45.67.82 1.43 1.37 2.01 1.35 1.41 2.8 2.73 4.19 4.11.82.81 1.76 1.57 2.38 2.52.64.98 1.43 1.28 2.48 1.3 3.23.06 6.47.22 9.7.17 1.48-.02 2.95-.41 4.43-.63 1.63-.24 3.28-.72 4.9-.65 1.69.07 3.35.69 5.03.99.84.15 1.73.26 2.56.13 2.29-.34 4.52-.73 6.89-.27 1.58.31 3.27.06 5.21.06-.41-3.61-.79-6.97-1.21-10.33-.03-.21-.41-.53-.63-.53-2.75.01-5.51-.1-8.24.17-2.52.25-5.01 1.2-7.57.76-3.78-.66-7.55-1.14-11.38-.85-4.36.32-8.72.62-13.09.92-.59.04-1.18.07-1.76.03-1.69-.1-3.37-.23-5.06-.35zm17.07 28.35c1.47-1.26 3.04-1.61 4.66-1.53 2.55.14 5.09.53 7.64.6 2.04.05 4.09-.2 6.14-.36 1.52-.12 3.03-.45 4.55-.42 1.87.03 3.73.35 5.6.5.77.06 1.55.01 2.27.01.13-3.15.25-6.08.38-9.03-2.14-.28-4.14-.58-6.16-.79-1.73-.18-3.49-.43-5.22-.34-4.1.22-8.2.59-12.29.97-3.07.28-5.99-.48-8.97-.97-1.15-.19-2.36.04-3.73.09 2.05 3.77 2.83 7.77 5.13 11.27zm31 17.44c.15-.03.31-.06.46-.1 0-3.23.02-6.45-.03-9.68-.01-.32-.44-.84-.75-.91-1.01-.22-2.05-.33-3.08-.37-3.7-.12-7.39-.39-11.08.24-1.58.27-3.32.42-4.85.04-2.28-.57-4.48-.42-6.73-.2-1.21.12-2.44.04-3.66.15-.54.05-1.45.23-1.52.51-.48 1.89-.81 3.82-1.11 5.74-.12.77.38 1.09 1.12.95 1.33-.25 2.68-.47 3.99-.78 4.66-1.12 9.28-1.86 14.04-.34 4.45 1.44 9.15 2.16 13.2 4.75zM152.67 445.59H67.5V74.99h85.17v370.6zm-8.81-286.62c-.18-.11-.36-.22-.53-.33-1.09.8-2.21 1.56-3.25 2.42-2 1.67-4.21 3.18-5.89 5.14-6.52 7.59-11.4 16.14-13.89 25.89-.57 2.22-1.51 4.48-1.1 6.89.03.19 0 .4-.03.6-.21 1.33-1.2 2-2.54 1.83-1.73-.21-3.49-.56-5.21-.48-2.21.1-4.43.5-6.62.89-5.62 1.01-10.83 2.96-15.2 6.81-2.4 2.11-4.94 4.05-7.37 6.13-2.15 1.84-3.97 3.79-5.12 6.58-1.44 3.48-2.12 7.01-2.48 10.66-.27 2.73-.27 5.48-.36 8.23-.01.42.15.85.23 1.27.29 1.43.73 2.84.83 4.28.11 1.57-.23 3.16-.16 4.74.33 7.47.59 14.94.45 22.41-.03 1.67-.09 3.35-.1 5.02 0 .85.07 1.7.13 2.89.92-1.26 1.56-2.26 2.32-3.15 4.97-5.74 10.77-10.5 17.28-14.39 1.01-.61 2.06-1.06 2.83-2.08.46-.61 1.35-1.01 2.12-1.24 3.94-1.17 7.89-2.28 11.85-3.35 9.54-2.57 19.2-3.66 29.06-2.28 2 .28 3.27-.85 3.31-2.98.05-2.51.06-5.04-.13-7.54-.24-3.17-.98-6.33-1.02-9.5-.12-8.06.01-16.13.08-24.2.05-6.03.16-12.05.26-18.07.04-2.43.12-4.85.15-7.28.05-3.11.08-6.21.1-9.32.02-2.18.01-4.36.01-6.53-.01-3.31-.01-6.63-.01-9.96zm-68.73-34.94c5.39.11 10.77.24 16.16.32.98.01 1.96-.22 2.94-.24 2.14-.05 4.28-.09 6.42-.03.86.02 1.7.42 2.56.44 1.55.04 3.11-.08 4.67-.1 2.86-.04 5.7.01 8.57.24 3.77.3 7.62-.16 11.42-.55 4.5-.45 8.92.29 13.37.55.67.04 1.33.08 2.01.11v-10.51c-.41-.05-.68-.11-.95-.11-5.31-.08-10.62-.16-15.94-.21-2.51-.02-5.04.14-7.54.01-3.95-.21-7.88-.34-11.8.32-2.31.39-4.58.12-6.89-.18-2.78-.35-5.63-.26-8.45-.28-5.54-.03-11.08-.01-16.59-.01-.27 3.54-1.13 6.78.04 10.23zm-.13 8.86c-.02.09-.14.51-.15.93-.04 2.11 0 4.23-.09 6.34-.04.99.41 1.5 1.25 1.71.95.24 1.94.52 2.91.49 2.35-.08 4.69-.49 7.03-.49 3.95.01 7.9.32 11.84.34 3.02.02 6.04-.28 9.05-.31 4.03-.05 8.07.01 12.1.05 2.76.03 5.51.09 8.27.16 1.86.04 3.72.16 5.58.16 1.14 0 2.29-.3 3.42-.22 1.98.13 3.95.42 5.92.68 1.26.17 1.53-.08 1.56-1.34.05-2.03.19-4.05.26-6.07.03-.86.01-1.72.01-2.74-3.54-.11-6.96-.31-10.39-.3-2.86.01-5.71.3-8.57.35-1.02.02-2.04-.45-3.05-.44-3.18.05-6.36.23-9.54.35-2.58.1-5.18.37-7.75.24-3.65-.19-7.28-.86-10.94-.98-3.42-.11-6.86.17-10.29.37-2.7.16-5.42.46-8.43.72zm.41-35.23c-.14 2.04-.24 3.99-.41 5.94-.09 1.04.22 1.49 1.35 1.55 2.71.14 5.41.52 8.12.59 4.31.1 8.63.24 12.92-.04 3.04-.2 6.04-.29 9.07.01 3.37.34 6.78.9 10.13.7 7.23-.42 14.44-.78 21.66-.12 1.53.14 3.07.26 4.84.4-.19-2.87-.37-5.59-.56-8.36-1.31 0-2.38.02-3.45 0-6.71-.13-13.42-.07-20.11-.48-4.32-.26-8.6-.38-12.92-.24-2.62.09-5.25-.09-7.88-.21-2.71-.12-5.41-.47-8.12-.43-4.7.07-9.39.36-14.09.57-.15.01-.3.06-.55.12zm67.78-14.36c-2.93-.7-6.03-.78-9.14-.35-1.65.23-3.36.88-4.93.62-3.83-.63-7.64-.67-11.46-.44-6.36.39-12.69-.05-19.04-.45-3.96-.25-7.96-.94-11.86.57-.42.16-.95.06-1.42.07-3.34.1-6.68.21-10.23.31.12 2.51.22 4.76.34 7.12.4-.03.75-.04 1.09-.07 1.21-.13 2.42-.36 3.63-.37 1.11-.01 2.21.32 3.32.33 2.75.02 5.5-.07 8.24-.09 1.99-.01 3.98.08 5.97.03 1.79-.05 3.59-.38 5.37-.32 10.34.31 20.68.69 31.02 1.07 2.35.09 4.7.29 7.05.4.82.04 1.93.04 1.99-.99.16-2.41.06-4.85.06-7.44zM75.3 150.23c-.81 1.9-.51 4.04-.53 6.12 0 .28.77.8 1.21.82 3.07.16 6.15.11 9.21.32 5.51.38 11.02-1.06 16.56.15 2.41.53 4.99.39 7.49.33 5.42-.14 10.84-.47 16.27-.64 2.19-.07 4.41-.1 6.57.17 1.02.13 1.76.25 2.59-.49 1.72-1.53 3.49-3.02 5.33-4.41.93-.71 2.03-1.18 3.03-1.74-4.98-1.75-10.05-2.23-15.23-1.47-4.17.61-8.36.95-12.51.27-3.54-.58-7.07-.69-10.62-.6-3.46.08-6.92.44-10.38.64-3.66.21-7.32.41-10.98.53-2.6.06-5.18 0-8.01 0zm50.75 14.95c-.55-.11-1.08-.35-1.6-.31-3.09.24-6.2.42-9.26.87-3.26.48-6.51.95-9.74.19-3.29-.77-6.6-1.06-9.96-1.03-5.23.04-10.46.1-15.69.14-1.5.01-3 0-4.4 0-.11 1.13-.21 2.08-.29 3.03-.1 1.23-.19 2.46-.29 3.69-.06.8.32 1.14 1.11 1.21 1.75.14 3.49.45 5.24.5 3.38.08 6.76-.02 10.14.05 5.66.12 11.32.33 16.97.48 2.55.07 5.11.05 7.67.15 1.05.04 2.3.71 3.09.33.87-.43 1.27-1.76 1.94-2.65 1.67-2.23 3.38-4.43 5.07-6.65zM74.5 181.02c.12 1.94.24 3.92.35 5.9.14 2.33.14 2.33 2.33 2.76.59.11 1.16.3 1.75.41.77.15 1.55.37 2.32.38 2.67.02 5.36-.21 8.01.01 1.87.15 3.64.13 5.51-.1 4.47-.55 8.98-.83 13.49-1 3.3-.13 4.42-.98 4.94-4.21.11-.7.61-1.41 1.1-1.96.61-.68.6-1.48-.25-1.75-.87-.27-1.79-.53-2.69-.54-3.9-.04-7.8.01-11.71.04-4.55.04-9.11-.08-13.63.25-2.45.18-4.84.71-7.32.19-1.29-.27-2.65-.25-4.2-.38zm.54 28.87c.79-.46 1.7-.87 2.46-1.46 2.02-1.57 3.95-3.24 5.96-4.82 3.12-2.47 6.26-4.89 10.8-5.02-1.97-.88-3.72-.76-5.46-.54-1.74.22-3.46.57-5.19.87-2.85.5-5.62.31-8.56-1.18-.01 4.15-.01 8.01-.01 12.15z"></path><path d="M258 150.67c-.51-.54-.99-.96-1.36-1.45-2.48-3.28-4.86-6.65-7.45-9.84-1.78-2.19-3.65-4.39-5.84-6.15-4.6-3.71-7.16-3.74-12.13-.1-3.23 2.37-5.59 5.57-7.89 8.8-1.53 2.15-3.02 4.32-4.54 6.48-.23.33-.49.64-.75.93-1.11 1.24-1.27 1.2-2.21-.18-.67-.98-1.45-1.88-2.24-2.9 5.18-6.25 9.55-13.32 16.27-18.33 1.54-1.15 1.81-2.98.8-4.67-.48-.81-.21-1.56.47-1.99 1.22-.78 2.53-1.41 3.81-2.11l.19.28.51-1.7c.17-.55.17-.92-.52-1.2-1.18-.49-1.34-1.76-.28-2.44 1.31-.84.84-1.93.63-2.98-.18-.87-.52-1.66-1.65-1.78-.68-.07-1.39-.33-1.37-1.22.01-.9.57-1.4 1.42-1.5.87-.1 1.14-.6 1.33-1.39.41-1.7.94-3.38 1.46-5.05.15-.48.43-.92.83-1.76.47.98.9 1.63 1.11 2.35.43 1.49.76 3.02 1.11 4.53.15.63.41.96 1.12 1.16.67.19 1.59.76 1.71 1.32.2.87-.62 1.39-1.51 1.68-1.74.57-2.4 3.35-1.17 4.68.8.86.71 1.68-.32 2.22-.64.33-.65.7-.57 1.34.17 1.26.6 2.07 1.99 2.37.91.2 1.75.77 2.57 1.26.88.52 1.03 1.28.48 2.01-1.14 1.51-.88 3.09.52 4.34 2.92 2.61 5.94 5.12 8.59 7.99 2.56 2.77 4.71 5.92 7.03 8.91.19.25.31.56.45.84.89 1.81.89 1.8-.64 3.03-.37.3-.73.62-1.06.97-.23.32-.47.69-.9 1.25zm-22.69-27.72v2.67c-.01 1.7-.01 1.7 1.72 1.87.4.04.8.08 1.18.16.88.2 1.18-.24 1.14-1.02-.05-1.07-.15-2.13-.24-3.39-1.22-.09-2.42-.19-3.8-.29z"></path><path d="M231.18 168.55c.24-10.24 2.83-19.93 5.18-29.67.14-.58.25-1.17.43-1.74.1-.3.34-.55.52-.83.22.27.55.52.63.83.73 2.94 1.5 5.88 2.08 8.85 1.23 6.26 2.4 12.53 3.51 18.81.28 1.6.22 3.27.41 4.89.3 2.53-1.84 5.5-4.02 6.18-3.08.95-5.66.21-7.59-2.18-1.29-1.61-1.54-3.35-1.15-5.14zm6.99 3.49c2.55-1.95 2.9-14.77.53-18.73-1.45 6.34-.83 12.42-.53 18.73zM227.87 203.97c-.08-4.22-.51-8.28.49-12.3.54-2.17 1.52-4.11 3.15-5.68 3.93-3.79 10.13-3.2 13.38 1.38.86 1.21 1.52 2.66 1.88 4.09 1.02 4.08.27 8.24.41 12.51h-19.31zm17.34-2.15c0-2.79.09-5.5-.04-8.19-.06-1.25-.38-2.54-.87-3.69-1.19-2.81-3.27-4.64-6.43-4.79-3.11-.15-5.44 1.38-6.78 4.06-.85 1.71-1.38 3.66-1.6 5.56-.27 2.3-.06 4.65-.06 7.04 5.26.01 10.4.01 15.78.01zM237.29 295.54c5.46.02 9.92 4.4 9.93 9.76.01 5.39-4.52 9.83-10.01 9.82-5.5-.01-10.03-4.47-9.99-9.85.03-5.4 4.53-9.75 10.07-9.73zm.58 6.14h.1c0-.72.09-1.45-.03-2.15-.07-.42-.46-.78-.7-1.17-.21.38-.61.76-.6 1.13.04 1.77.19 3.53.3 5.3.04.59.22 1.27-.8 1.16-1.33-.13-2.66-.27-3.99-.32-.66-.03-1.33.11-1.99.22-.17.03-.43.32-.41.42.06.21.26.49.45.53.62.12 1.25.21 1.88.2 1.75-.01 3.5-.07 5.25-.15.19-.01.52-.33.52-.52.04-1.54.02-3.09.02-4.65z"></path><path d="M239.29 294.17c-3.14-.27-5.99.49-8.6 2.13-4.18 2.63-5.96 6.72-4.94 11.24 1.12 4.93 4.7 8.25 9.48 8.9 3.45.47 6.66-.16 9.73-1.98.13.28.26.52.35.76.09.26.15.53.22.78-5.84 3.38-13.26 3.48-18.39-1.63-3.55-3.53-4.31-7.66-2.97-12.33 1.3-4.54 4.23-7.47 8.8-8.56 1.8-.43 3.71-.39 5.58-.53.79-.06 1.1.3.74 1.22zM260.9 228.41c1.62.02 2.94 1.37 2.94 3a2.996 2.996 0 0 1-2.97 2.97c-1.67.01-3.04-1.4-3-3.06.04-1.62 1.41-2.93 3.03-2.91zM210.01 230.96a2.968 2.968 0 0 1 3.24-2.79c1.62.13 2.8 1.53 2.68 3.2-.11 1.61-1.56 2.88-3.16 2.75-1.62-.13-2.86-1.55-2.76-3.16zM224.27 270.03v-6.86c0-3.95-.1-7.91.03-11.85.08-2.43 1.38-4.31 3.49-5.5 1.46-.83 3.4-.45 4.63.8 1.19 1.21 1.91 2.71 1.92 4.39.04 5.91-.02 11.81-.01 17.72 0 .94-.24 1.35-1.28 1.32-2.87-.06-5.73-.02-8.78-.02zM240.85 269.92v-4.11c0-4.75-.03-9.5.01-14.25.02-2.42 1.24-4.26 3.17-5.6 1.54-1.07 3.7-.74 5.04.64 1.16 1.19 1.86 2.66 1.87 4.29.04 6.03-.02 12.05-.05 18.08 0 .27-.05.54-.1.94-3.3.01-6.55.01-9.94.01zM237.11 245.98c-2.28-.01-4.12-1.86-4.12-4.12 0-2.31 1.9-4.15 4.24-4.12 2.26.03 4.09 1.91 4.06 4.18a4.134 4.134 0 0 1-4.18 4.06zM240.5 374.25h5.02v14.32h-5.02v-14.32zM232.26 374.24h4.92v14.32h-4.92v-14.32zM245.45 371.7c-.22.03-.37.08-.52.08-1.43.01-2.86 0-4.4 0v-5.82c2.24-.27 4.78 2.6 4.92 5.74zM237.2 365.88v5.81h-4.85c-.36-2.53 2.25-5.7 4.85-5.81z"></path><path d="M237.87 301.68c0 1.56.02 3.12-.02 4.67 0 .18-.33.51-.52.52a115 115 0 0 1-5.25.15c-.63.01-1.26-.08-1.88-.2-.19-.04-.39-.32-.45-.53-.03-.1.24-.39.41-.42.66-.12 1.33-.25 1.99-.22 1.33.05 2.66.19 3.99.32 1.02.1.83-.58.8-1.16-.11-1.77-.26-3.53-.3-5.3-.01-.37.39-.75.6-1.13.24.39.63.75.7 1.17.12.7.03 1.43.03 2.15-.03-.02-.06-.02-.1-.02z" fill="#fff"></path><path d="M238.77 200.02v-5.4h4.17v5.4h-4.17zM236.03 200.03h-4.1v-5.44h4.1v5.44zM242.91 192.81h-4.08v-5.09c2.03-.06 4.08 2.42 4.08 5.09zM236.05 187.64v5.14h-4.03c-.19-2.38 1.67-4.8 4.03-5.14z"></path><path fill="none" d="M51.59 61.7h371.76v394.08H51.59z"></path><path d="M25.39 24.58c.51.24.79.45 1.09.49 8.42 1.14 13.81 6.05 16.85 13.75.98 2.48 1.54 5.12 2.5 7.6.67 1.74 1.56 3.43 2.61 4.97.9 1.32 2.32 2.08 4 2.14.68.03 1.12.24 1.09 1-.02.81-.52 1.05-1.23 1.05h-14c-.36-2.03-.64-4.18-1.14-6.29-2.02-8.46-6.34-15.45-13.43-20.64-1.01-.74-1.72-.91-2.51.21-.37.53-.84 1.04-1.37 1.41-2.36 1.68-2.66 4.01-2.52 6.69.18 3.64.07 7.29.08 10.93v.99c.01 3.67.51 4.21 4.15 4.69.38.05.93.51 1.01.88.21.88-.18 1.31-1.21 1.29-4.36-.11-8.72-.16-13.09-.19-1.56-.01-3.13.16-4.69.14-.42-.01-1.19-.46-1.17-.63.06-.49.36-1.03.72-1.39.25-.25.76-.28 1.16-.34 2.67-.4 3.4-1.28 3.47-4.06.06-2.32.26-4.64.29-6.97.09-5.97.12-11.94.2-17.9.07-5.76.19-11.52.26-17.29.01-.69-.08-1.4-.26-2.07-.36-1.3-1.33-1.95-2.68-1.92-.29.01-.6.13-.85.05-.44-.14-.84-.4-1.26-.61.32-.56.59-1.17.99-1.66.15-.18.62-.14.95-.14 5.02.08 10.03.19 15.05.24.72.01 1.45-.24 2.17-.35.75-.11 1.7-.25 1.77.72.04.53-.6 1.24-1.11 1.65-.36.29-1.02.33-1.54.31-1.58-.05-2.69.73-3.12 2.12-.45 1.45-.55 3.01-.81 4.51-.09.52-.32 1.04-.32 1.55-.04 4.48-.06 8.97-.03 13.45.01.89.66 1.13 1.39.66.79-.51 1.59-1.05 2.23-1.73 4.38-4.69 8.76-9.39 13.04-14.17 1.08-1.2 1.92-2.67 2.61-4.14.67-1.42.19-2.06-1.33-2.55-.67-.22-1.8-.08-1.59-1.27C34 .67 34.91.69 35.85.69c4.32.03 8.64 0 12.95-.01.5 0 1.17-.25 1.19.61.02.72.14 1.63-.88 1.76-2.36.29-4.17 1.62-5.73 3.18-5.97 6.02-11.87 12.11-17.99 18.35M67.65 37.96c0-3.46-.02-6.92 0-10.38.04-6.59.12-13.19.16-19.78.01-.69-.04-1.41-.21-2.08-.42-1.68-1.21-2.31-2.93-2.47-.62-.06-1.23-.11-1.85-.09-.78.03-1.38-.26-1.34-1.05.04-.82.44-1.32 1.51-1.3C68.83.9 74.68.9 80.53.92c.62 0 1.24-.01 1.85-.07.71-.08 1.24.21 1.12.9-.08.49-.5 1.18-.92 1.31-.8.26-1.71.15-2.57.25-2.25.29-3.18 1.21-3.43 3.49-.11 1.06-.09 2.14-.1 3.2-.03 8.69-.03 17.37-.08 26.06-.02 2.65-.29 5.3-.26 7.95.04 2.42.29 4.83.54 7.24.13 1.23.84 2.01 2.17 2.12.94.07 1.88.26 2.82.33 1.21.1 1.08 1 .98 1.73-.11.88-.78.56-1.35.46-.6-.11-1.23-.15-1.84-.15-5.89.01-11.77.01-17.66.06-.67 0-1.13-.05-1.15-.85-.02-.77.18-1.29 1.09-1.22.32.02.65-.06.98-.1 3.64-.47 4.64-1.47 4.76-5.16.11-3.5.02-7 .02-10.5h.15zM120.51 3.15c-1.86 0-3.63-.03-5.39.01-3.16.08-4.44 1.34-4.44 4.48-.02 14-.01 27.99 0 41.99 0 1.89.38 2.23 2.24 2.24 4.65.01 9.29.06 13.88-.95 2.14-.47 3.71-1.54 4.59-3.53.61-1.37 1.05-2.82 1.64-4.2.14-.32.59-.67.92-.7.59-.04 1.2.15 1.94.27-.06.38-.09.68-.15.98-.69 3.54-1.44 7.08-2.05 10.64-.2 1.14-.79 1.41-1.77 1.39-4.85-.08-9.71-.21-14.56-.21-6.67 0-13.34.1-20 .16-.76.01-1.81.25-1.9-.81-.08-1.04.86-1.34 1.79-1.43 2.85-.29 3.45-.72 3.94-3.57.31-1.79.28-3.64.36-5.47.14-3.52.26-7.03.37-10.55.02-.77-.08-1.54-.08-2.31-.01-7.82 0-15.64-.01-23.46 0-.78-.02-1.57-.2-2.33-.42-1.85-1.31-2.54-3.19-2.65-1.46-.09-2.33-.63-2.26-1.4C96.25.95 97.35.47 98.72.5c6.24.15 12.49.27 18.73.38.53.01 1.07-.05 1.59-.17 1.39-.32 1.88.13 1.6 1.54-.07.24-.08.48-.13.9M166.71 24.96c.51.24.79.45 1.09.49 8.42 1.14 13.81 6.05 16.85 13.75.98 2.48 1.54 5.12 2.5 7.6.67 1.74 1.56 3.43 2.61 4.97.9 1.32 2.32 2.08 4 2.14.68.03 1.12.24 1.09 1-.02.81-.52 1.05-1.23 1.05h-14c-.36-2.03-.64-4.18-1.14-6.29-2.02-8.46-6.34-15.45-13.43-20.64-1.01-.74-1.72-.91-2.51.21-.37.53-.84 1.04-1.37 1.41-2.36 1.68-2.66 4.01-2.52 6.69.18 3.64.07 7.29.08 10.93v.99c.01 3.67.51 4.21 4.15 4.69.38.05.93.51 1.01.88.21.88-.18 1.31-1.21 1.29-4.36-.11-8.72-.16-13.09-.19-1.56-.01-3.13.16-4.69.14-.42-.01-1.19-.46-1.17-.63.06-.49.36-1.03.72-1.39.25-.25.76-.28 1.16-.34 2.67-.4 3.4-1.28 3.47-4.06.06-2.32.26-4.65.29-6.97.09-5.97.12-11.94.2-17.9.07-5.76.19-11.52.26-17.29.01-.69-.08-1.4-.26-2.07-.36-1.3-1.33-1.95-2.68-1.92-.29.01-.6.13-.85.05-.44-.14-.84-.4-1.26-.61.32-.56.59-1.17.99-1.66.15-.18.62-.14.95-.14 5.02.08 10.03.19 15.05.24.72.01 1.45-.24 2.17-.35.75-.11 1.7-.25 1.77.72.04.53-.6 1.24-1.11 1.65-.36.29-1.02.33-1.54.31-1.58-.05-2.69.73-3.12 2.12-.45 1.45-.55 3.01-.81 4.51-.09.52-.32 1.04-.32 1.55-.04 4.48-.06 8.97-.03 13.45.01.89.66 1.13 1.39.66.79-.51 1.59-1.05 2.23-1.73 4.38-4.69 8.76-9.39 13.04-14.17 1.08-1.2 1.92-2.67 2.61-4.14.67-1.42.19-2.06-1.33-2.55-.67-.22-1.8-.08-1.59-1.27.19-1.09 1.1-1.07 2.04-1.07 4.32.03 8.64 0 12.95-.01.5 0 1.17-.25 1.19.61.02.72.14 1.63-.88 1.76-2.36.29-4.17 1.62-5.73 3.18-5.98 6.02-11.87 12.11-17.99 18.35M219.29 23.77c.35-.15.71-.23.98-.43 2.81-2.05 5.87-2.13 9.06-1.17 2.63.79 5.22 1.79 7.9 2.36 3.66.78 6.96.05 9.36-3.17.21-.28.97-.51 1.2-.36.57.38 1.22.83.8 1.8-1.15 2.62-2.72 4.93-5.03 6.6-1.23.89-2.71 1.6-4.18 1.97-2.89.72-5.63-.04-8.15-1.55-1.06-.63-2.06-1.36-3.12-1.99-2.22-1.32-4.57-1.5-7.01-.68-1.68.57-1.98.96-1.98 2.78-.01 6.84 0 13.67 0 20.51v.25c-.05 1.08.4 1.52 1.54 1.53 3.31.01 6.61.25 9.92.18 2.08-.05 4.16-.46 6.24-.77 2.41-.36 4.14-1.7 5.22-3.89.4-.81.85-1.6 1.17-2.44.39-1.01 1.1-.98 1.91-.72.93.29.62.93.45 1.59-.7 2.66-1.39 5.33-2 8.01-.46 2.02-.65 2.2-2.67 2.19-9.72-.05-19.43-.1-29.15-.11-1.27 0-2.53.3-3.8.35-.96.04-1.94-.03-2.88-.19-.29-.05-.73-.6-.69-.86.06-.45.38-.93.72-1.27.18-.18.63-.11.95-.13 2.2-.19 2.92-.69 3.41-2.85.37-1.64.64-3.32.71-5 .23-5.41.36-10.82.5-16.23.11-3.86.26-7.73.24-11.59-.01-3.09-.36-6.19-.3-9.28.02-1.24-.25-2.3-.55-3.44-.25-.93-.73-1.42-1.65-1.57-.57-.09-1.13-.25-1.7-.28-.97-.05-1.27-.58-1.21-1.46.07-.93.6-1.05 1.44-1.05 11.73.05 23.47.07 35.2.09.68 0 1.37-.13 2.26-.21-.12 1.13-.24 2.14-.32 3.14-.17 2.22-.31 4.43-.49 6.65-.11 1.39-1.19.84-1.9.85-.87.02-.63-.7-.53-1.19.64-3.13-1.35-4.85-3.53-4.95-5.13-.23-10.26-.29-15.39-.31-2.09-.01-3.09 1.15-3.11 3.35-.04 3.91-.05 7.82-.03 11.74-.01 1 .11 2.02.19 3.2M278.48 30.17c.39.07.79.21 1.18.2 2.39-.08 4.31.97 6 2.5 4.22 3.81 6.96 8.59 9.07 13.8.64 1.58 1.41 3.16 2.38 4.56 1.14 1.64 2.88 2.54 4.87 2.89 1.52.27 1.53.27 1.25 2.07h-10.8c-.37 0-.75-.02-1.11.03-1.96.31-2.13.22-2.76-1.7-1.9-5.78-4.22-11.34-8.12-16.09-2.7-3.29-5.92-5.81-10.24-6.64-3.61-.69-3.95-.39-4.01 3.24-.04 2.38-.35 4.75-.32 7.12.04 3.21.24 6.42.46 9.62.08 1.13.72 1.88 1.98 1.98 1.11.09 2.2.33 3.31.37.89.03 1.14.43 1.1 1.23-.04.81-.47 1-1.22.99-4.98-.09-9.96-.16-14.94-.19-1.44-.01-2.88.07-4.32.19-.85.07-1.11-.4-1.17-1.07-.06-.72.23-1.15 1.07-1.12.57.01 1.14-.14 1.7-.25 1.79-.33 2.94-1.39 3.08-3.2.21-2.7.31-5.41.35-8.12.03-2.17-.26-4.35-.12-6.5.56-9.2.02-18.4.17-27.6.02-1.07-.27-2.18-.57-3.23-.33-1.17-1.48-1.27-2.45-1.53-.31-.08-.65-.04-.98-.03-.95.03-1.38-.54-1.36-1.37.02-.79.59-1.08 1.38-1.04 1.69.1 3.37.23 5.06.2 5.47-.09 10.94-.3 16.42-.33 1.96-.01 3.96.21 5.87.61 7.5 1.58 11.9 7.88 10.95 15.49-.7 5.58-5.92 11-11.54 12.01-.56.1-1.11.28-1.67.42.01.17.03.33.05.49m-7.6-2.18c3.14.49 5.87-.44 7.89-2.82 1.19-1.41 2.22-3.1 2.78-4.84 1.07-3.29.75-6.69-.39-9.93-1.09-3.08-3.16-5.18-6.61-5.46-1.65-.13-3.33-.3-4.96-.13-1.91.2-3.24.95-3.21 2.85.01.86-.18 1.72-.18 2.57-.02 3.54-.02 7.07-.01 10.61 0 1.75-.01 3.5.06 5.25.05 1.35.58 1.84 1.91 1.9.91.03 1.82 0 2.72 0M337.2 29.44c.39.07.79.21 1.18.2 2.39-.08 4.31.97 6 2.5 4.22 3.81 6.96 8.59 9.07 13.8.64 1.58 1.41 3.16 2.38 4.56 1.14 1.64 2.88 2.54 4.87 2.89 1.52.27 1.53.27 1.25 2.07h-10.8c-.37 0-.75-.02-1.11.03-1.96.31-2.13.22-2.76-1.7-1.9-5.78-4.22-11.34-8.12-16.09-2.7-3.29-5.92-5.81-10.24-6.64-3.61-.69-3.95-.39-4.01 3.24-.04 2.38-.35 4.75-.32 7.12.04 3.21.24 6.42.46 9.62.08 1.13.72 1.88 1.98 1.98 1.11.09 2.2.33 3.31.37.89.03 1.14.43 1.1 1.23-.04.81-.47 1-1.22.99-4.98-.09-9.96-.16-14.94-.19-1.44-.01-2.88.07-4.32.19-.85.07-1.11-.4-1.17-1.07-.06-.72.23-1.15 1.07-1.12.57.01 1.14-.14 1.7-.25 1.79-.33 2.94-1.39 3.08-3.2.21-2.7.31-5.41.35-8.12.03-2.17-.26-4.35-.12-6.5.56-9.2.02-18.4.17-27.6.02-1.07-.27-2.18-.57-3.23-.35-1.17-1.5-1.27-2.47-1.52-.31-.08-.65-.04-.98-.03-.95.03-1.38-.54-1.36-1.37.02-.79.59-1.08 1.38-1.04 1.69.1 3.37.23 5.06.2 5.47-.09 10.94-.3 16.42-.33 1.96-.01 3.96.21 5.87.61 7.5 1.58 11.9 7.88 10.95 15.49-.7 5.58-5.92 11-11.54 12.01-.56.1-1.11.28-1.67.42.03.17.05.32.07.48m-7.6-2.18c3.14.49 5.87-.44 7.89-2.82 1.19-1.41 2.22-3.1 2.78-4.84 1.07-3.29.75-6.69-.39-9.93-1.09-3.08-3.16-5.18-6.61-5.46-1.65-.13-3.33-.3-4.96-.13-1.91.2-3.24.95-3.21 2.85.01.86-.18 1.72-.18 2.58-.02 3.53-.02 7.07-.01 10.61 0 1.75-.01 3.5.06 5.25.05 1.35.58 1.84 1.91 1.9.91.02 1.82-.01 2.72-.01M401.87 36.93c-6.2 3.55-11.96 3.19-17.23-1.6-.18.12-.33.17-.36.25-1.26 3.34-2.62 6.66-3.71 10.06-.53 1.65-.67 3.45-.78 5.2-.11 1.67.56 2.43 2.19 2.77 1 .21 2.04.28 3.06.34.77.05 1.13.39 1.1 1.16-.03.78-.41 1.02-1.19 1.01-5.06-.03-10.13-.02-15.19 0-.68 0-1.13-.11-1.15-.9-.01-.7.14-1.25.98-1.24 2.2.02 3.36-1.17 4.17-3.14 2.42-5.89 4.99-11.72 7.62-17.86-1.16-.3-2.16-.77-3.16-.77-2.55-.01-5.06.26-6.56 2.81-.11.18-.49.42-.55.38-.65-.51-1.33-1.01-1.84-1.64-.15-.18.06-.92.32-1.15 3.84-3.39 7.91-6.15 13.44-4.68.07.02.16-.03.35-.07 1.49-3.62 3.01-7.3 4.53-10.98 2.16-5.25 4.33-10.49 6.45-15.75.4-.99.84-1.33 1.93-1 .72.22 1.56-.02 2.33.08.36.05.88.34.97.64 1.32 4.1 2.49 8.25 3.88 12.33 4.06 11.95 8.21 23.86 12.33 35.79.23.66.52 1.3.75 1.96.7 1.96 2.03 3.05 4.17 3 .92-.02 1.38.35 1.34 1.32-.04 1.04-.75.86-1.41.86-6.5 0-13.01-.01-19.51.03-.9.01-1.44-.19-1.46-1.17-.02-.71.32-1 1.03-1.09 1.05-.14 2.11-.33 3.13-.63 1.09-.32 1.7-1.1 1.7-2.29 0-1.98.06-3.93-.76-5.86-1.11-2.61-1.92-5.34-2.91-8.17m-4.77-3.57c2.32.07 3.38-1.24 2.64-3.46-1.68-5.07-3.43-10.11-5.18-15.15-.12-.35-.45-.82-.73-.86-.27-.03-.64.39-.9.67-.19.2-.3.49-.41.75-1.85 4.48-3.7 8.96-5.5 13.45-.11.27.03.88.24 1 3.08 1.74 6.12 3.6 9.84 3.6M439.4 1.1c-.16 1.96.69 3.46 1.71 4.88 1.93 2.67 4.35 4.82 7.06 6.66 4.97 3.37 10 6.66 14.91 10.12 4.02 2.83 7.72 6.05 10.58 10.11.55.78.93 1.67 1.66 2.47.06-.33.18-.66.17-.98-.08-3.38-.2-6.76-.28-10.14-.12-4.92-.18-9.85-.34-14.77-.04-1.12-.25-2.28-.64-3.32-.57-1.49-1.77-2.33-3.42-2.43-.94-.06-1.89-.19-2.83-.19-.97 0-1.41-.45-1.57-1.36-.13-.74.06-1.05.88-1.04 4.44.09 8.89.16 13.34.17 1.1 0 2.2-.21 3.3-.35 1.23-.15 1.93.53 1.66 1.73-.07.31-.5.63-.84.77-.36.15-.81.07-1.21.15-2.5.47-3.36 1.5-3.47 3.95-.05 1.08-.27 2.16-.42 3.24-.15 1.05-.42 2.1-.43 3.16-.16 12.27-.26 24.54-.42 36.81-.01.78-.33 1.55-.46 2.34-.05.29.09.61.1.92.03.75.13 1.51.03 2.24-.1.73-.62 1-1.38.79-.35-.1-.78-.22-1.09-.1-1.17.44-1.49-.17-1.55-1.15-.65-10.64-6.36-18.39-14.36-24.71-3.25-2.57-6.88-4.66-10.25-7.08-3.41-2.44-6.75-4.96-10.04-7.56-.84-.66-1.36-1.72-2.04-2.57-.12-.16-.34-.24-.68-.46.07.99.16 1.78.16 2.57.01 9.64-.02 19.27.03 28.91.01 2.13.26 4.27.47 6.39.11 1.14.71 1.79 1.99 1.93 1.71.19 3.4.61 5.08.99.52.12 1.19.22 1.01 1.1-.15.74-.6.85-1.26.83-4.61-.13-9.22-.26-13.83-.33-1.02-.02-2.04.15-3.06.28-.75.09-1.42.15-1.54-.87-.11-.92.33-1.2 1.2-1.28 3.37-.33 4.35-1.12 4.92-4.57.52-3.16.95-6.37.99-9.56.12-10.38.05-20.75.04-31.13 0-3.26-1.69-5.01-4.96-5.17-.79-.04-1.36-.14-1.26-1.18.09-.94.44-1.2 1.41-1.19 3.45.03 6.89-.07 10.34-.11.16 0 .31.05.59.09M33.31 408.23c.14 3.08-1.19 5.63-2.58 8.19-1.6 2.93-.94 7.03 1.31 9.52.23.25.29.64.44.97-.45.06-.96.28-1.33.14-1.4-.51-2.4-1.54-3.19-2.77-2.34-3.65-2.79-7.56-1.5-11.68.29-.92.63-1.83 1.01-2.71 1.89-4.35 2.14-8.68-.19-13.15.76-.25 1.48-.55 2.23-.71.19-.04.56.32.7.58.35.68.63 1.39.9 2.11.68 1.78 1.36 2.27 3.29 2.27H48c1.57 0 1.58 0 1.93 1.52 1.22 5.21 2.01 10.47 2.01 15.83.01 12.05-8.51 21.28-20.53 22.34-3.96.35-7.87.25-11.69-.9-7.09-2.14-11.55-6.98-13.7-13.92-2.37-7.67-1.88-15.33.75-22.87.68-1.94.86-1.99 2.91-1.99 1.83 0 3.67-.02 5.5.02.31.01.87.33.87.48-.02.39-.2 1-.48 1.12-5.14 2.15-7.39 6.24-7.62 11.54-.1 2.33.11 4.74.59 7.03 1.08 5.09 4.23 8.62 9.15 10.24 7.73 2.55 15.43 2.27 22.87-1.2 2.92-1.36 5.35-3.38 7.1-6.13 2.54-3.98 2.46-8.15.62-12.32-1.11-2.52-3.22-3.75-6.03-3.58-.81.05-1.61.37-2.42.35-1.28-.02-2.55-.25-3.83-.33-.82-.04-1.66.01-2.69.01M8.78 370.96c0 1.51-.03 2.94.01 4.37.06 2.56 1.08 3.59 3.63 3.6 11.33.02 22.67.01 34 0 1.53 0 1.81-.31 1.81-1.81.01-3.76.05-7.52-.77-11.24-.38-1.73-1.25-3-2.86-3.71-1.11-.49-2.28-.85-3.4-1.33-.26-.11-.55-.48-.56-.74-.03-.48.12-.98.22-1.57.3.05.55.07.79.12 2.87.56 5.73 1.17 8.61 1.66.93.16 1.14.64 1.13 1.43-.06 3.93-.17 7.86-.17 11.79 0 5.4.08 10.8.13 16.2.01.62.2 1.47-.66 1.54-.84.07-1.08-.69-1.16-1.45-.23-2.31-.58-2.79-2.89-3.19-1.45-.25-2.95-.23-4.43-.29-2.85-.12-5.7-.21-8.54-.3-.62-.02-1.25.06-1.87.06-6.33.01-12.67 0-19 .01-.63 0-1.27.02-1.88.16-1.5.34-2.06 1.06-2.15 2.58-.07 1.18-.51 1.88-1.13 1.83-.64-.06-1.03-.95-1-2.05.12-5.06.22-10.11.31-15.17.01-.43-.04-.87-.13-1.28-.26-1.13.1-1.52 1.25-1.3.17.04.37.05.71.08M25.07 338.15c-.12-.29-.19-.58-.35-.8-1.66-2.28-1.72-4.75-.95-7.34.64-2.13 1.45-4.23 1.91-6.4.63-2.96.04-5.63-2.57-7.58-.23-.17-.42-.78-.29-.97.31-.46.67-.99 1.46-.65 2.12.93 3.99 2.2 5.34 4.07.72 1 1.3 2.2 1.59 3.39.58 2.34-.03 4.56-1.26 6.6-.51.86-1.1 1.67-1.61 2.53-1.07 1.8-1.22 3.7-.55 5.67.46 1.36.78 1.6 2.25 1.61 5.54.01 11.07 0 16.61 0h.2c.87.04 1.23-.32 1.23-1.25.01-2.68.2-5.36.14-8.03-.04-1.69-.37-3.37-.62-5.05-.29-1.96-1.38-3.35-3.15-4.23-.66-.33-1.3-.69-1.98-.95-.82-.32-.79-.89-.58-1.54.24-.76.75-.5 1.29-.36 2.15.57 4.31 1.13 6.49 1.62 1.63.37 1.78.53 1.78 2.16-.04 7.87-.08 15.74-.09 23.6 0 1.03.24 2.05.28 3.08.03.78-.02 1.57-.16 2.33-.04.23-.48.59-.7.56-.37-.05-.75-.31-1.02-.58-.15-.15-.09-.51-.11-.77-.15-1.78-.56-2.37-2.31-2.76-1.33-.3-2.69-.52-4.05-.58-4.38-.19-8.76-.29-13.14-.41-3.13-.09-6.26-.21-9.39-.2-2.51.01-5.01.3-7.51.25-1-.02-1.86.2-2.78.45-.76.2-1.15.59-1.27 1.33-.07.46-.21.91-.23 1.38-.04.79-.47 1.03-1.18.98-.75-.06-.85-.48-.85-1.16.04-9.5.06-19 .07-28.5 0-.55-.1-1.11-.17-1.83.92.1 1.73.2 2.54.26 1.79.14 3.59.25 5.38.39 1.13.09.68.97.69 1.54.01.7-.57.51-.96.43-2.53-.51-3.93 1.1-4.01 2.86-.18 4.15-.24 8.31-.25 12.47 0 1.69.93 2.5 2.71 2.52 3.17.03 6.33.04 9.5.03.84-.01 1.67-.11 2.63-.17M6.94 297.21c1.59.13 2.8-.56 3.95-1.38 2.16-1.56 3.9-3.52 5.39-5.72 2.73-4.02 5.39-8.1 8.2-12.08 2.29-3.25 4.9-6.25 8.19-8.56.63-.44 1.35-.75 2-1.35-.26-.05-.53-.15-.8-.14-2.74.07-5.47.16-8.21.22-3.99.1-7.98.15-11.96.28-.9.03-1.85.2-2.69.52-1.21.46-1.89 1.43-1.97 2.77-.05.76-.15 1.53-.15 2.29 0 .79-.37 1.14-1.1 1.27-.6.1-.85-.05-.84-.71.07-3.6.13-7.2.14-10.8 0-.89-.17-1.78-.28-2.67-.12-.99.43-1.56 1.4-1.35.25.06.51.41.63.68.12.29.06.66.12.98.38 2.02 1.21 2.72 3.2 2.81.88.04 1.75.22 2.62.34.85.12 1.7.34 2.56.35 9.94.13 19.87.21 29.81.34.63.01 1.26.27 1.89.37.24.04.49-.07.74-.08.61-.02 1.22-.1 1.81-.02.59.08.81.5.64 1.11-.08.28-.18.63-.08.88.35.95-.13 1.2-.93 1.25-8.61.53-14.89 5.15-20.01 11.63-2.08 2.63-3.77 5.57-5.73 8.3-1.97 2.76-4.02 5.47-6.12 8.13-.53.68-1.39 1.1-2.09 1.65-.13.1-.19.28-.37.55.8-.05 1.45-.13 2.09-.13 7.8-.01 15.61.02 23.41-.02 1.73-.01 3.45-.21 5.17-.38.92-.09 1.45-.57 1.57-1.61.16-1.38.5-2.75.8-4.11.1-.42.18-.96.89-.81.6.12.69.49.68 1.02-.11 3.73-.21 7.46-.27 11.2-.01.83.12 1.66.22 2.48.08.61.12 1.15-.7 1.25-.74.09-.97-.27-1.04-.97-.27-2.73-.91-3.52-3.7-3.99-2.56-.42-5.15-.77-7.74-.8-8.4-.1-16.81-.04-25.21-.04-2.64 0-4.06 1.37-4.19 4.02-.03.64-.11 1.1-.96 1.02-.76-.07-.97-.36-.96-1.14.03-2.79-.06-5.58-.09-8.37-.01-.12.03-.25.07-.48M33.31 220.03c.14 3.08-1.19 5.63-2.58 8.19-1.6 2.93-.94 7.03 1.31 9.52.23.25.29.64.44.97-.45.06-.96.28-1.33.14-1.4-.51-2.4-1.54-3.19-2.77-2.34-3.65-2.79-7.56-1.5-11.68.29-.92.63-1.83 1.01-2.71 1.89-4.35 2.14-8.68-.19-13.15.76-.25 1.48-.55 2.23-.71.19-.04.56.32.7.58.35.68.63 1.39.9 2.11.68 1.78 1.36 2.27 3.29 2.27H48c1.57 0 1.58 0 1.93 1.52 1.22 5.21 2.01 10.47 2.01 15.83.01 12.05-8.51 21.28-20.53 22.34-3.96.35-7.87.25-11.69-.9-7.09-2.14-11.55-6.98-13.7-13.92-2.36-7.66-1.88-15.32.76-22.86.68-1.94.86-1.99 2.91-1.99 1.83 0 3.67-.02 5.5.02.31.01.87.33.87.48-.02.39-.2 1-.48 1.12-5.14 2.15-7.39 6.24-7.62 11.54-.1 2.33.11 4.74.59 7.03 1.08 5.09 4.23 8.62 9.15 10.24 7.73 2.55 15.43 2.27 22.87-1.2 2.92-1.36 5.35-3.38 7.1-6.13 2.54-3.98 2.46-8.15.62-12.32-1.11-2.52-3.22-3.75-6.03-3.58-.81.05-1.61.37-2.42.35-1.28-.02-2.55-.25-3.83-.33-.83-.04-1.67 0-2.7 0M52.03 174.89l-.45 2c-.02.1-.04.2-.04.3.02 3.81.03 7.62.06 11.43.01.83.03 1.67.07 2.5.04.69-.3.96-.94.99-.66.02-.75-.37-.72-.91.02-.29-.03-.6-.08-.89-.55-3.19-1.54-4.15-4.79-4.39-2.19-.16-4.4-.09-6.59-.22-1.68-.1-3.38-.12-5.05-.19-1.46-.06-3.04.64-4.42 1.3-4.96 2.35-9.87 4.81-14.8 7.25-1.22.6-2.43 1.24-3.64 1.87-1.17.61-1.82 1.51-1.68 2.9.03.29-.2.86-.33.87-.49.02-1.07-.03-1.47-.28-.21-.13-.16-.73-.15-1.12.01-.32.19-.63.19-.95-.01-4.1-.02-8.2-.08-12.29-.01-.73.29-.94.93-.96.63-.02 1.01.12.98.88-.03.69.07 1.39.13 2.09.08.91.65 1.23 1.46 1.03.93-.23 1.88-.49 2.74-.9 4.4-2.07 8.77-4.19 13.15-6.3.18-.09.36-.17.53-.28.95-.58 1.02-1.19.12-1.85a50.46 50.46 0 0 0-3.14-2.1c-2.32-1.44-4.63-2.89-7.01-4.24-2.94-1.67-6.08-2.55-9.49-1.78-3.24.73-4.84 2.87-4.67 6.21.01.23.12.49.06.69-.11.34-.25.79-.52.93-.22.12-.7-.07-.95-.27-.27-.22-.44-.58-.57-.92-.83-2.19-1.1-4.44-.52-6.75.85-3.37 3.65-5.47 7.49-5.59 2.36-.07 4.56.6 6.61 1.67 1.56.82 3.06 1.75 4.54 2.72 3.51 2.3 7.03 4.59 10.47 6.99 2.17 1.52 4.56 2.15 7.14 2.18 3.47.03 6.93.03 10.4.02 1.96-.01 2.38-.39 2.66-2.33.14-.96.23-1.92.27-2.88.03-.56.23-.99.78-.88.41.08.92.41 1.08.77.21.49.13 1.11.18 1.67 0-.02.03-.01.06.01M8.47 136.54c0 1.51-.03 2.94.01 4.37.06 2.56 1.08 3.59 3.63 3.6 11.33.02 22.67.01 34 0 1.53 0 1.81-.31 1.81-1.81.01-3.76.05-7.52-.77-11.24-.38-1.73-1.25-3-2.86-3.71-1.11-.49-2.28-.85-3.4-1.33-.26-.11-.55-.48-.56-.74-.03-.48.12-.98.22-1.57.3.05.55.07.79.12 2.87.56 5.73 1.17 8.61 1.66.93.16 1.14.64 1.13 1.43-.06 3.93-.17 7.86-.17 11.79 0 5.4.08 10.8.13 16.2.01.62.2 1.47-.66 1.54-.84.07-1.08-.69-1.16-1.45-.23-2.31-.58-2.79-2.89-3.19-1.45-.25-2.95-.23-4.43-.29-2.85-.12-5.7-.21-8.54-.3-.62-.02-1.25.06-1.87.06-6.33.01-12.67 0-19 .01-.63 0-1.27.02-1.88.16-1.5.34-2.06 1.06-2.15 2.58-.07 1.18-.51 1.88-1.13 1.83-.64-.06-1.03-.95-1-2.06.12-5.06.22-10.11.31-15.17.01-.43-.04-.87-.13-1.28-.26-1.13.1-1.52 1.25-1.3.17.04.37.05.71.09M25.04 104.12c-.12-.29-.19-.58-.35-.8-1.66-2.28-1.72-4.75-.95-7.34.64-2.13 1.45-4.23 1.91-6.4.63-2.96.04-5.63-2.57-7.58-.23-.17-.42-.78-.29-.97.31-.46.67-.99 1.46-.65 2.12.93 3.99 2.2 5.34 4.07.72 1 1.3 2.2 1.59 3.39.58 2.34-.03 4.56-1.26 6.6-.51.86-1.1 1.67-1.61 2.53-1.07 1.8-1.22 3.7-.55 5.67.46 1.36.78 1.6 2.25 1.61 5.54.01 11.07 0 16.61 0h.2c.87.04 1.23-.32 1.23-1.25.01-2.68.2-5.36.14-8.03-.04-1.69-.37-3.37-.62-5.05-.29-1.96-1.38-3.35-3.15-4.23-.66-.33-1.3-.69-1.98-.95-.82-.32-.79-.89-.58-1.54.24-.76.75-.5 1.29-.36 2.15.57 4.31 1.13 6.49 1.62 1.63.37 1.78.53 1.78 2.16-.04 7.87-.08 15.74-.09 23.6 0 1.03.24 2.05.28 3.08.03.78-.02 1.57-.16 2.33-.04.23-.48.59-.7.56-.37-.05-.75-.31-1.02-.58-.15-.15-.09-.51-.11-.77-.15-1.78-.56-2.37-2.31-2.76-1.33-.3-2.69-.52-4.05-.58-4.38-.19-8.76-.29-13.14-.41-3.13-.09-6.26-.21-9.39-.2-2.51.01-5.01.3-7.51.25-1-.02-1.86.2-2.78.45-.76.2-1.15.59-1.27 1.33-.07.46-.21.91-.23 1.38-.04.79-.47 1.03-1.18.98-.75-.06-.85-.48-.85-1.16.04-9.5.06-19 .07-28.5 0-.55-.1-1.11-.17-1.83.92.1 1.73.2 2.54.26 1.79.14 3.59.25 5.38.39 1.13.09.68.97.69 1.54.01.7-.57.51-.96.43-2.53-.51-3.93 1.1-4.01 2.86-.18 4.15-.24 8.31-.25 12.47 0 1.69.93 2.5 2.71 2.52 3.17.03 6.33.04 9.5.03.85 0 1.67-.1 2.63-.17M480.08 425.62c.12 4.36.22 8.72.38 13.07.02.65-.4.86-.74.84-.36-.02-.84-.35-1.01-.67-.22-.42-.16-.98-.26-1.47-.25-1.18-.9-2.03-2.16-2.16-1.56-.17-3.12-.31-4.69-.32-4.52-.04-9.04-.02-13.57-.02-4.74 0-9.48-.01-14.21 0-3.08.01-3.11.01-3.58 3-.13.82-.5.97-1.19.92-.8-.06-.71-.58-.7-1.15.04-4.71.06-9.42.09-14.13.01-2.48-.29-5.01.1-7.42 1.21-7.47 5.18-12.96 12.49-15.5 7.61-2.63 14.9-1.7 21.7 2.68 4.24 2.73 6.41 6.74 6.97 11.62.41 3.55.51 7.13.74 10.7-.11 0-.23 0-.36.01m-8.19 2.67v.16c1.13 0 2.28.12 3.39-.04.72-.11 1.86-.48 1.99-.97.56-2.01.74-4.09.63-6.21-.36-6.58-4.21-11.79-10.49-13.73-5.55-1.71-11.17-1.61-16.71 0-9.09 2.65-11.09 10.1-9.35 17.92.33 1.48 1.27 2.42 2.91 2.48.78.03 1.56.17 2.35.17 8.42.08 16.85.15 25.28.22M466.94 389.76c-2.64 0-5.28.02-7.92 0-5.03-.03-10.06-.09-15.09-.12-.53 0-1.07.03-1.58.16-1.28.32-1.77.92-1.89 2.24-.04.47-.09.94-.07 1.41.02.6-.2 1.06-.81 1.03-.63-.03-1.01-.33-.99-1.15.07-4.46.07-8.92.08-13.38 0-.47 0-.94-.06-1.41-.06-.54.16-.94.69-.86.37.06.9.38 1 .7.2.61.11 1.3.19 1.96.22 1.72.93 2.43 2.66 2.61.81.09 1.63.07 2.45.07 6.63.02 13.26.02 19.89.06 2.02.01 4.05.22 6.07.2 1.85-.03 3.69-.22 5.53-.42.94-.1 1.54-.64 1.62-1.66.06-.72.2-1.43.26-2.15.07-.92.76-.82 1.32-.75.67.09.43.59.35 1.03-.08.46-.12.93-.11 1.4 0 4.49.01 8.98.04 13.48 0 .51-.04.86-.65.88-.59.02-.98-.13-.93-.83.02-.25-.05-.5-.08-.75-.36-2.78-1.12-3.54-3.93-3.63-2.67-.08-5.34-.02-8.01-.02v-.1zM438.66 351.74c.32-2.55.64-5.1.95-7.66.05-.37.02-.76.1-1.12.14-.64.41-1.23 1.2-1.2.85.04 1.7.15 2.55.22.25.02.5.02.75.02 1.48-.03 2.95-.07 4.43-.1.49-.01 1.05-.11 1.09.67.03.68-.14 1.05-.89 1.28-1.07.33-2.15.75-3.07 1.36-3.84 2.55-5.21 8.14-3.08 12.24 1.8 3.47 6.09 4.43 8.99 1.81 1.39-1.26 2.41-2.94 3.51-4.5.54-.76.9-1.65 1.31-2.5 1.27-2.61 2.54-5.2 4.27-7.59 1.56-2.16 3.44-3.63 5.89-4.4 8.03-2.51 16.13 4.09 15.41 12.47-.2 2.37-.89 4.54-2.12 6.56-.57.94-1.14 1.88-1.63 2.86a8.95 8.95 0 0 0-.71 1.93c-.85 3.54.72 5.74 4.36 6.16.4.05.81.07 1.22.11.91.09 1.06.33.74 1.21-.29.81-.9 1.16-1.72 1.24-4.91.46-9.64-3.55-10.05-8.46-.18-2.18.23-4.19 1.43-6.02.99-1.53 2.04-3.02 3.02-4.55.51-.79 1.02-1.6 1.37-2.46 1.43-3.46-.39-6.29-4.15-6.51-2.34-.13-4.3.75-5.63 2.64-1.31 1.87-2.45 3.86-3.57 5.86-1.15 2.05-2.15 4.19-3.25 6.26-.22.42-.63.75-.96 1.11-.1.11-.27.19-.32.32-1.1 2.89-3.5 4.13-6.27 4.54-4.76.71-8.98-.54-12.23-4.27-2.04-2.35-2.53-5.26-2.79-8.23-.04-.44-.01-.88-.01-1.32-.04.03-.09.02-.14.02M439.22 314.65c-.12-5.79-.24-11.85-.4-17.91-.02-.66.22-.84.8-.81 2.51.14 5.01.29 7.52.41.84.04.78.64.82 1.21.04.61-.1.88-.81 1.06-1.29.32-2.56.82-3.76 1.41-.45.23-.89.88-.97 1.4-.24 1.5-.33 3.02-.4 4.53-.05.9.05 1.82.07 2.72.02 1.03.42 1.57 1.44 1.6 1.91.05 3.83-.02 5.75-.02.96 0 1.93.06 2.89.06 7.38.01 14.77.01 22.15-.01.96 0 1.94-.17 2.89-.34.88-.16 1.45-.74 1.61-1.63.18-.99.36-1.98.47-2.97.08-.65.4-.86 1.01-.81.67.06.82.49.77 1.06-.46 5.23-.14 10.47-.08 15.7 0 .28 0 .57.03.85.07.66-.28.94-.88.94-.61 0-1-.24-1.05-.94-.06-.77-.17-1.55-.32-2.31-.28-1.41-1.01-2.29-2.6-2.34-1.13-.03-2.25-.38-3.37-.38-8.39-.04-16.78-.04-25.17-.04-.49 0-.98.19-1.46.18-1.04-.02-2.09-.13-3.13-.18-.6-.03-.99.25-.95.89.13 2.32.19 4.64.44 6.94.21 1.93 1.36 3.26 3.15 4.02.84.35 1.7.67 2.49 1.1.27.15.59.66.52.89-.16.52-.23 1.17-1.2 1.07-2.54-.26-5.11-.37-7.66-.49-.8-.04-1-.41-.98-1.14.13-5.14.24-10.29.37-15.72M467.06 285.98c-2.64 0-5.28.02-7.92 0-5.03-.03-10.06-.09-15.09-.12-.53 0-1.07.03-1.58.16-1.28.32-1.77.92-1.89 2.24-.04.47-.09.94-.07 1.41.02.6-.2 1.06-.81 1.03-.63-.03-1.01-.33-.99-1.15.07-4.46.07-8.92.08-13.38 0-.47 0-.94-.06-1.41-.06-.54.16-.94.69-.86.37.06.9.38 1 .7.2.61.11 1.3.19 1.96.22 1.72.93 2.43 2.66 2.61.81.09 1.63.07 2.45.07 6.63.02 13.26.02 19.89.06 2.02.01 4.05.22 6.07.2 1.85-.03 3.69-.22 5.53-.42.94-.1 1.54-.64 1.62-1.66.06-.72.2-1.43.26-2.15.07-.92.76-.82 1.32-.75.67.09.43.59.35 1.03-.08.46-.12.93-.11 1.4 0 4.49.01 8.98.04 13.48 0 .51-.04.86-.65.88-.59.02-.98-.13-.93-.83.02-.25-.05-.5-.08-.75-.36-2.78-1.12-3.54-3.93-3.63-2.67-.08-5.34-.02-8.01-.02v-.1zM440.93 246.24c0 1.42-.03 2.77.01 4.12.06 2.41 1.02 3.39 3.42 3.39 10.68.02 21.36.01 32.04 0 1.44 0 1.7-.29 1.71-1.71.01-3.55.05-7.09-.73-10.59-.36-1.63-1.18-2.83-2.69-3.5-1.05-.46-2.15-.8-3.2-1.25-.24-.1-.52-.45-.53-.7-.03-.45.12-.92.21-1.48.29.04.52.07.75.11 2.7.53 5.4 1.1 8.12 1.57.87.15 1.08.6 1.06 1.35-.06 3.7-.16 7.41-.16 11.11 0 5.09.08 10.18.12 15.26.01.58.19 1.38-.62 1.45-.79.06-1.02-.65-1.09-1.37-.22-2.18-.55-2.63-2.72-3.01-1.37-.24-2.78-.22-4.18-.27-2.68-.11-5.37-.2-8.05-.28-.59-.02-1.18.06-1.76.06-5.97.01-11.94 0-17.9.01-.59 0-1.2.02-1.77.15-1.41.32-1.94 1-2.03 2.43-.07 1.11-.48 1.77-1.07 1.72-.61-.05-.97-.9-.95-1.94.11-4.76.2-9.53.29-14.29.01-.4-.04-.82-.13-1.21-.25-1.06.1-1.43 1.18-1.22.16.05.35.05.67.09M456.03 182.19c-.12-.27-.18-.54-.33-.75-1.56-2.14-1.62-4.48-.89-6.91.61-2.01 1.37-3.98 1.8-6.03.59-2.79.03-5.31-2.42-7.14-.22-.16-.39-.74-.27-.91.29-.44.63-.93 1.37-.61 2 .87 3.76 2.08 5.03 3.84.68.94 1.22 2.07 1.5 3.19.55 2.2-.03 4.29-1.18 6.22-.48.81-1.04 1.58-1.51 2.38-1 1.7-1.15 3.49-.52 5.35.43 1.28.73 1.51 2.12 1.51 5.22.01 10.43 0 15.65 0h.19c.82.04 1.16-.3 1.16-1.18.01-2.52.19-5.05.13-7.57-.03-1.59-.35-3.18-.59-4.76-.28-1.84-1.3-3.16-2.97-3.98-.62-.31-1.22-.65-1.87-.9-.77-.3-.74-.84-.55-1.46.23-.71.71-.47 1.22-.34 2.03.53 4.07 1.06 6.11 1.53 1.54.35 1.68.49 1.67 2.04-.04 7.41-.08 14.83-.09 22.24 0 .97.23 1.93.27 2.9.03.73-.02 1.48-.15 2.2-.04.22-.45.55-.66.53-.35-.05-.71-.29-.97-.55-.14-.14-.08-.48-.1-.73-.14-1.68-.53-2.23-2.18-2.6-1.25-.28-2.54-.49-3.81-.54-4.12-.17-8.25-.27-12.38-.38-2.95-.08-5.9-.2-8.84-.19-2.36.01-4.72.28-7.08.23-.94-.02-1.76.19-2.62.42-.71.19-1.09.56-1.2 1.26-.07.43-.19.86-.22 1.3-.04.74-.44.97-1.12.92-.71-.05-.8-.45-.8-1.09.04-8.95.06-17.91.07-26.86 0-.52-.1-1.04-.16-1.72.86.09 1.63.19 2.4.25 1.69.13 3.38.24 5.07.37 1.06.08.64.91.65 1.45.01.66-.54.48-.91.41-2.39-.48-3.7 1.03-3.78 2.69-.17 3.91-.22 7.83-.23 11.75 0 1.59.88 2.36 2.55 2.37 2.98.03 5.97.03 8.95.03.81-.03 1.59-.12 2.49-.18M461.08 135.57c.05-.3.16-.6.15-.9-.06-1.82.74-3.29 1.91-4.58 2.91-3.22 6.55-5.31 10.53-6.92 1.21-.49 2.41-1.08 3.48-1.81 1.25-.87 1.94-2.2 2.21-3.71.2-1.16.2-1.17 1.58-.96v8.24c0 .28-.02.57.03.85.24 1.5.17 1.63-1.3 2.11-4.41 1.45-8.65 3.22-12.28 6.2-2.51 2.06-4.44 4.52-5.07 7.81-.53 2.75-.3 3.01 2.47 3.06 1.81.03 3.62.27 5.44.25 2.45-.03 4.9-.18 7.34-.35.86-.06 1.44-.55 1.51-1.51.07-.84.25-1.68.28-2.52.02-.68.33-.87.94-.84.62.03.77.36.76.93-.07 3.8-.12 7.6-.15 11.4-.01 1.1.05 2.2.14 3.29.05.65-.3.85-.82.89-.55.05-.87-.17-.86-.81.01-.43-.11-.87-.19-1.3-.25-1.37-1.06-2.24-2.44-2.35-2.06-.16-4.13-.24-6.2-.27-1.65-.02-3.32.2-4.96.1-7.02-.43-14.04-.01-21.06-.13-.82-.01-1.66.21-2.46.44-.89.26-.97 1.13-1.16 1.87-.06.24-.03.5-.02.75.02.73-.42 1.05-1.04 1.04-.6-.02-.83-.45-.79-1.05.07-1.29.17-2.57.15-3.86-.07-4.18-.23-8.35-.25-12.53-.01-1.5.16-3.02.47-4.48 1.2-5.72 6.01-9.08 11.82-8.35 4.26.53 8.4 4.52 9.17 8.8.08.43.21.85.32 1.27.11-.03.23-.05.35-.07m-1.66 5.8c.38-2.4-.33-4.48-2.15-6.02-1.07-.91-2.37-1.69-3.69-2.13-2.51-.82-5.1-.57-7.58.3-2.35.83-3.95 2.41-4.16 5.05-.1 1.26-.23 2.54-.1 3.78.15 1.46.72 2.47 2.17 2.45.65-.01 1.31.14 1.96.14 2.7.02 5.4.01 8.09.01 1.34 0 2.67.01 4.01-.05 1.03-.04 1.41-.44 1.45-1.46.03-.69 0-1.38 0-2.07M481.52 91.01c-.14.63-.29 1.25-.43 1.88-.02.09-.04.19-.04.28.02 3.59.03 7.18.05 10.77.01.79.02 1.57.07 2.35.04.65-.28.91-.89.93-.63.02-.71-.35-.68-.85.01-.28-.03-.56-.08-.84-.52-3.01-1.45-3.91-4.51-4.14-2.06-.15-4.14-.09-6.21-.21-1.58-.09-3.18-.12-4.76-.18-1.38-.06-2.86.6-4.17 1.22-4.68 2.21-9.3 4.54-13.94 6.83-1.15.57-2.29 1.17-3.43 1.76-1.1.58-1.71 1.42-1.58 2.74.03.27-.19.81-.31.82-.47.02-1-.03-1.39-.26-.19-.12-.15-.69-.14-1.06.01-.3.18-.59.18-.89-.01-3.86-.02-7.72-.08-11.58-.01-.69.27-.88.87-.9.59-.02.95.11.92.83-.03.65.06 1.31.12 1.97.07.86.61 1.16 1.37.97.88-.22 1.77-.46 2.58-.85 4.14-1.95 8.26-3.95 12.39-5.93.17-.08.34-.16.5-.26.9-.55.96-1.12.12-1.74-.96-.7-1.95-1.36-2.96-1.98-2.19-1.35-4.37-2.73-6.6-3.99-2.77-1.57-5.73-2.4-8.94-1.68-3.06.69-4.56 2.71-4.4 5.85.01.22.11.46.05.65-.1.32-.24.74-.49.88-.2.11-.66-.06-.89-.25-.25-.2-.42-.55-.54-.87-.78-2.07-1.04-4.18-.49-6.36.8-3.18 3.44-5.16 7.06-5.27 2.22-.07 4.29.56 6.23 1.58 1.47.77 2.89 1.65 4.28 2.56 3.31 2.16 6.62 4.33 9.87 6.59 2.05 1.43 4.29 2.03 6.73 2.05 3.27.03 6.53.03 9.8.02 1.85-.01 2.25-.37 2.51-2.2.13-.9.21-1.81.26-2.72.03-.53.21-.94.74-.83.38.08.87.39 1.01.72.2.46.13 1.05.17 1.58.01-.01.04 0 .07.01M440.74 210.66c0 1.42-.03 2.77.01 4.12.06 2.41 1.02 3.39 3.42 3.39 10.68.02 21.36.01 32.04 0 1.44 0 1.7-.29 1.71-1.71.01-3.55.05-7.09-.73-10.59-.36-1.63-1.18-2.83-2.69-3.5-1.05-.46-2.15-.8-3.2-1.25-.24-.1-.52-.45-.53-.7-.03-.45.12-.92.21-1.48.29.04.52.07.75.11 2.7.53 5.4 1.1 8.12 1.57.87.15 1.08.6 1.06 1.35-.06 3.7-.16 7.41-.16 11.11 0 5.09.08 10.18.12 15.26.01.58.19 1.38-.62 1.45-.79.06-1.02-.65-1.09-1.37-.22-2.18-.55-2.63-2.72-3.01-1.37-.24-2.78-.22-4.18-.27-2.68-.11-5.37-.2-8.05-.28-.59-.02-1.18.06-1.76.06-5.97.01-11.94 0-17.9.01-.59 0-1.2.02-1.77.15-1.41.32-1.94 1-2.03 2.43-.07 1.11-.48 1.77-1.07 1.72-.61-.05-.97-.9-.95-1.94.11-4.76.2-9.53.29-14.29.01-.4-.04-.82-.13-1.21-.25-1.06.1-1.43 1.18-1.22.17.05.36.05.67.09M68.4 497.01c-4.83 2.77-9.32 2.49-13.43-1.25-.14.09-.25.13-.28.2-.98 2.61-2.04 5.19-2.89 7.84-.41 1.29-.52 2.69-.61 4.05-.08 1.3.43 1.89 1.71 2.16.78.16 1.59.22 2.39.27.6.04.88.31.86.9-.02.61-.32.79-.93.79-3.95-.02-7.89-.02-11.84 0-.53 0-.88-.09-.89-.7-.01-.55.11-.98.77-.97 1.71.01 2.62-.91 3.25-2.45 1.89-4.59 3.89-9.13 5.94-13.92-.91-.23-1.68-.6-2.46-.6-1.98-.01-3.94.21-5.11 2.19-.08.14-.39.33-.43.29-.51-.39-1.03-.79-1.43-1.28-.12-.14.04-.71.25-.89 2.99-2.64 6.16-4.8 10.48-3.65.05.01.12-.02.27-.05 1.16-2.82 2.35-5.69 3.53-8.56 1.68-4.09 3.38-8.17 5.03-12.27.31-.77.66-1.04 1.51-.78.56.17 1.21-.01 1.81.06.28.04.68.27.76.5 1.03 3.2 1.94 6.43 3.02 9.61 3.17 9.31 6.4 18.6 9.61 27.9.18.51.4 1.01.58 1.53.55 1.53 1.58 2.38 3.25 2.34.71-.01 1.08.27 1.05 1.03-.03.81-.59.67-1.1.67-5.07 0-10.14-.01-15.21.02-.7 0-1.12-.15-1.14-.91-.01-.55.25-.78.8-.85.82-.11 1.65-.26 2.44-.49.85-.25 1.33-.86 1.33-1.79 0-1.55.04-3.06-.59-4.57-.9-2.04-1.53-4.16-2.3-6.37m-3.72-2.78c1.81.06 2.63-.97 2.06-2.69-1.31-3.95-2.67-7.88-4.04-11.81-.09-.27-.35-.64-.57-.67-.21-.03-.5.3-.7.52-.15.16-.24.38-.32.59-1.44 3.49-2.88 6.98-4.29 10.48-.08.21.02.69.19.78 2.4 1.35 4.77 2.81 7.67 2.8M95.94 476.21c-.07.12-.13.17-.13.23-.06 3.46-.16 6.92-.16 10.38.01 5.2.06 10.39.15 15.59.02 1.47.12 2.95.35 4.4.42 2.63.73 2.88 3.37 3.15.5.05.84.13.92.72.15 1.1-.23 1.44-1.36 1.3-1.64-.21-3.29-.47-4.94-.48-1.95-.02-3.9.23-5.85.29-.42.01-1.14-.19-1.23-.46-.19-.56.19-1.02.86-1.11.19-.02.36-.18.54-.18 2.14.05 2.96-1.33 3.22-3.12.39-2.66.85-5.33.9-8.01.12-7.57.05-15.15.03-22.72 0-.96-.12-1.92-.26-2.87-.2-1.33-1.08-2.07-2.51-2.24-1.45-.17-2.03-.57-1.87-1.38.24-1.22 1.24-.86 2.02-.86 2.5 0 5.01-.01 7.51.05.37.01.84.26 1.08.56 5.03 6.2 10.04 12.43 15.05 18.66.18.22.33.46.56.81.39-.52.65-.84.88-1.18 4.04-5.86 8.11-11.71 12.11-17.59.76-1.12 1.59-1.49 2.96-1.39 2.59.18 5.19.1 7.79.11.31 0 .63-.15.94-.15.41 0 .97-.05 1.19.18.25.26.24.82.24 1.24 0 .15-.3.32-.49.44-.09.06-.25.01-.38.02-2.5.21-3.36 1.09-3.37 3.61-.02 8.99 0 17.97-.03 26.96-.01 1.51-.26 3.02-.3 4.53-.03 1.24.15 2.59 1.02 3.46.54.54 1.63.6 2.49.72.85.12 1.05.6.82 1.26-.09.25-.57.45-.91.51-.28.05-.61-.2-.91-.2-3.43.01-6.86.04-10.3.08-.82.01-1.64.13-2.46.12-1.48-.02-1.6-.27-.86-1.59.3 0 .62.01.93 0 1.58-.08 2.54-.69 2.82-2.24.38-2.1.68-4.25.71-6.38.1-6.87.17-13.74-.02-20.6-.06-2.08.07-4.13.06-6.19 0-.3-.04-.6-.08-1.21-.41.48-.65.71-.84.98-3.9 5.34-7.79 10.68-11.7 16-.46.62-.48 1.04.03 1.66 2.14 2.6 3.83 5.44 4.42 8.84.86 4.95-1.82 9.54-6.37 10.76-4.37 1.17-8.89-1.4-9.79-5.6-.46-2.17-.02-4.22 1.13-6.09 1.18-1.91 2.42-3.78 3.66-5.65.33-.49.39-.87-.02-1.36-4.5-5.52-8.98-11.06-13.47-16.59 0-.08-.06-.11-.15-.18m16.29 19.69c-1.22 2.04-2.5 3.79-3.35 5.72-.52 1.2-.59 2.69-.5 4.03.16 2.35 2 3.78 4.34 3.65 2.24-.12 3.84-1.67 3.96-3.92.19-3.84-2.26-6.43-4.45-9.48M145.37 512.17c-.16-1.2.22-1.65 1.24-1.75 2.55-.26 3.34-.43 3.82-3.34.16-.98.16-1.98.16-2.97.01-7.12-.01-14.25.02-21.37 0-1.31.27-2.62.26-3.93-.01-2.09-.12-4.18-.24-6.26-.05-.91-.76-1.17-1.55-1.27-.7-.09-1.4-.17-2.09-.32-.58-.13-1.02-.46-.85-1.16.16-.67.66-.6 1.22-.59 3.01.05 6.03.03 9.04.06.93.01 1.85.12 2.78.11.46-.01.92-.25 1.39-.26 3.05-.1 6.1-.1 9.08.68 2.41.64 4.26 2.02 5.49 4.21 1.89 3.39 2.77 6.98 1.87 10.83-1.15 4.94-5.47 8.53-10.79 9.21-2.46.31-4.86.13-7.25-.44-1.08-.26-1.31-.11-1.42.99-.03.32-.03.64-.03.96 0 3.63-.01 7.25 0 10.88 0 .58.05 1.16.13 1.72.16 1.1.72 1.86 1.9 1.96 1.31.12 2.62.19 3.93.29.28.02.68.01.79.17.21.31.38.76.31 1.11-.04.2-.56.46-.86.45-2.95-.01-5.9-.1-8.85-.1-2.86 0-5.71.08-8.56.12-.33.02-.64.01-.94.01m12.13-29.95c0 1.92.11 3.85-.04 5.77-.11 1.4.55 2.17 1.63 2.74.53.28 1.11.51 1.7.63 3.85.77 7.24-1.22 8.61-5.05.99-2.78 1.1-5.66.52-8.53-.56-2.76-2.16-4.75-4.96-5.43-1.53-.37-3.17-.41-4.75-.42-.98 0-2.02.29-2.26 1.52-.18.93-.39 1.86-.42 2.8-.08 2-.03 3.98-.03 5.97M202.46 489.25c.42.23.76.5 1.14.6 1.23.31 2.52.43 3.7.86 2.39.88 4.44 2.33 5.3 4.82.53 1.54.76 3.25.82 4.89.1 3-1.19 5.5-3.02 7.85-2.26 2.92-5.4 3.83-8.76 4.06-3.38.24-6.78.12-10.17.16-3.37.04-6.73.07-10.1.12-.58.01-1.13.06-1.14-.75-.01-.67.33-.92 1-1 2.53-.3 3.22-.88 3.35-3.44.19-3.48.15-6.98.19-10.47.04-3.82.06-7.64.06-11.47 0-3.69-.03-7.38-.06-11.07-.02-2.07-.27-2.33-2.32-2.65-.35-.05-.7-.12-1.04-.16-.69-.08-.66-.62-.63-1.09.03-.49.23-.82.85-.8 3.14.1 6.28.25 9.42.23 2.16-.01 4.31-.38 6.47-.4 1.69-.02 3.38.23 5.07.41.95.1 1.91.24 2.84.47 5.68 1.41 7.78 5.54 6.35 11.05-1.12 4.3-4.44 6.3-8.47 7.37-.18.05-.37.08-.55.13-.06.03-.08.06-.3.28m-6.67 2.48v.09c-.83 0-1.67-.03-2.5.01-.72.03-1.31.26-1.38 1.14-.05.6-.21 1.19-.23 1.79-.12 3.26-.23 6.52-.31 9.78-.03 1.28-.04 2.57.03 3.85.05.86.38 1.72 1.4 1.78 1.69.1 3.4.27 5.07.08 3.53-.39 6.08-2.23 7.3-5.68.7-1.98.78-4.04.5-6.08-.49-3.68-2.97-6.09-6.62-6.54-1.08-.12-2.17-.14-3.26-.22m-3.98-9.29h.08v5.39c0 .77.35 1.18 1.16 1.18 1.19 0 2.37.06 3.56.06 3.39-.01 6.35-2.06 7.6-5.22.79-2 .83-4.08.5-6.16-.51-3.21-2.13-5.13-4.73-5.62-2.07-.39-4.12-.01-6.14.38-.34.06-.72.47-.88.81-.31.69-.61 1.44-.68 2.18-.21 2.32-.32 4.66-.47 7M230.33 487.14c.28-.12.55-.18.77-.34 2.19-1.6 4.57-1.66 7.06-.91 2.05.62 4.07 1.4 6.16 1.84 2.85.61 5.42.04 7.3-2.47.16-.22.75-.4.93-.28.44.3.95.65.62 1.4-.89 2.04-2.12 3.85-3.92 5.14-.96.69-2.11 1.25-3.26 1.53-2.25.56-4.39-.03-6.35-1.21-.82-.5-1.61-1.06-2.43-1.55-1.73-1.03-3.56-1.17-5.46-.53-1.31.44-1.54.75-1.55 2.17-.01 5.33 0 10.65 0 15.98v.19c-.04.84.31 1.19 1.2 1.19 2.58.01 5.15.2 7.73.14 1.62-.04 3.25-.36 4.86-.6 1.88-.28 3.23-1.33 4.07-3.03.31-.63.66-1.25.92-1.9.3-.79.86-.76 1.49-.56.73.23.48.72.35 1.24-.55 2.07-1.08 4.15-1.56 6.24-.36 1.57-.51 1.72-2.08 1.71-7.57-.04-15.15-.08-22.72-.09-.99 0-1.97.23-2.96.27-.75.03-1.51-.02-2.24-.15-.22-.04-.57-.46-.54-.67.05-.35.29-.72.56-.99.14-.14.49-.08.75-.1 1.72-.15 2.28-.54 2.66-2.22.29-1.28.5-2.59.56-3.9.18-4.21.28-8.43.39-12.65.08-3.01.2-6.02.19-9.03-.01-2.41-.28-4.82-.24-7.23.02-.96-.19-1.79-.43-2.68-.19-.73-.57-1.11-1.28-1.22-.44-.07-.88-.2-1.33-.22-.76-.04-.99-.45-.94-1.14.05-.72.47-.82 1.12-.82 9.15.04 18.29.06 27.44.07.53 0 1.07-.1 1.76-.17-.09.88-.19 1.66-.25 2.45-.13 1.73-.24 3.46-.38 5.18-.08 1.08-.93.65-1.48.66-.68.01-.49-.55-.42-.93.5-2.44-1.05-3.78-2.75-3.86-3.99-.18-8-.23-12-.24-1.63 0-2.41.9-2.42 2.61-.03 3.05-.04 6.1-.03 9.15-.03.82.07 1.61.13 2.53M277.53 471.54c-1.45 0-2.83-.03-4.2.01-2.46.06-3.46 1.04-3.46 3.49-.02 10.91-.01 21.82 0 32.72 0 1.47.29 1.74 1.74 1.74 3.62.01 7.24.05 10.82-.74 1.67-.37 2.89-1.2 3.58-2.75.47-1.07.82-2.2 1.28-3.27.11-.25.46-.53.71-.54.46-.03.94.12 1.51.21-.04.29-.07.53-.12.76-.54 2.76-1.12 5.52-1.6 8.29-.15.89-.62 1.1-1.38 1.09-3.78-.06-7.57-.16-11.35-.16-5.2 0-10.39.08-15.59.12-.59 0-1.41.19-1.48-.63-.07-.81.67-1.04 1.4-1.12 2.22-.22 2.69-.56 3.07-2.78.24-1.4.22-2.84.28-4.27.11-2.74.2-5.48.29-8.22.02-.6-.06-1.2-.06-1.8-.01-6.1 0-12.19-.01-18.29 0-.61-.02-1.23-.15-1.81-.33-1.44-1.02-1.98-2.49-2.07-1.14-.07-1.81-.49-1.76-1.09.06-.62.92-.99 1.98-.97 4.87.12 9.73.21 14.6.3.41.01.84-.04 1.24-.13 1.09-.25 1.46.1 1.25 1.2-.06.2-.06.39-.1.71M308.88 469.47c5.91-.13 12.1-.25 18.29-.41.68-.02.86.22.82.82-.15 2.56-.29 5.12-.42 7.68-.04.86-.65.8-1.24.83-.62.04-.9-.1-1.08-.83-.32-1.32-.84-2.62-1.44-3.84-.23-.47-.9-.91-1.43-.99-1.53-.24-3.08-.33-4.63-.41-.92-.05-1.85.05-2.78.07-1.05.02-1.61.43-1.64 1.47-.05 1.95.02 3.91.02 5.87 0 .98-.06 1.97-.06 2.95-.01 7.54-.02 15.09.01 22.63 0 .99.17 1.98.35 2.95.16.9.75 1.48 1.67 1.65 1.01.19 2.02.36 3.04.48.66.08.88.41.82 1.03-.06.68-.5.84-1.08.79-5.34-.47-10.69-.14-16.04-.08-.29 0-.58 0-.86.03-.67.07-.96-.29-.96-.9 0-.62.25-1.02.96-1.07.79-.06 1.58-.18 2.36-.33 1.44-.28 2.34-1.03 2.39-2.65.03-1.15.38-2.3.39-3.45.04-8.57.04-17.14.04-25.71 0-.5-.19-1-.18-1.5.02-1.07.13-2.13.18-3.19.03-.61-.26-1.01-.91-.97-2.37.13-4.74.2-7.09.45-1.97.21-3.33 1.38-4.1 3.22-.36.86-.68 1.73-1.12 2.55-.15.28-.67.6-.91.53-.54-.16-1.2-.23-1.09-1.22.26-2.6.38-5.22.51-7.83.04-.81.42-1.02 1.17-1 5.23.14 10.49.25 16.04.38M37.98 507.53c-.36.29-.71.61-1.09.89-11.48 8.08-29.78 3.09-33.26-12.89-1.22-5.58-1.1-11.17 1.01-16.55 2.59-6.62 7.69-10.35 14.47-11.84 6.76-1.49 13.38-.55 19.91 1.48.89.28 1.14.75 1.09 1.69-.14 2.27-.11 4.54-.22 6.81-.02.38-.38.75-.58 1.13-.32-.3-.84-.54-.92-.89-.84-3.62-3.78-7.2-9.68-7.95-3.05-.39-6.01.04-8.91.97-2.96.95-5.05 2.82-6.43 5.66-1.06 2.18-2.03 4.4-2.36 6.75-.41 2.93-.49 5.94-.39 8.91a21.7 21.7 0 0 0 2.58 9.58c2.16 4.02 5.2 7.08 9.82 7.94 4.58.85 8.68-.6 12.35-3.35 1.18-.89 1.31-.84 1.73.54.11.38.54.7.88 1.12M372.06 488.95c-.07 3.31-.47 6.58-1.44 9.76-2.5 8.13-10.38 13.93-18.9 13.87-8.61-.06-16.42-5.92-18.82-14.12-.44-1.5-.95-2.98-1.28-4.51-.17-.79.06-1.66-.02-2.49-.32-3.43-.06-6.86 1-10.09 2.52-7.72 7.96-12.38 15.94-13.71 8.79-1.47 16.93 2.67 21.16 10.41 1.6 2.91 2.37 6.47 2.36 10.88m-33.1-.68c-.09.01-.18.02-.27.04.44 3.01.76 6.03 1.34 9.01.67 3.44 1.99 6.62 4.59 9.13 4.2 4.05 10 4.11 14.24.11 1.96-1.85 3.23-4.13 4.03-6.68 1.41-4.52 1.99-9.14 1.71-13.86-.24-4.06-1.23-7.91-3.44-11.38-2.68-4.21-7.28-5.93-12.05-4.5-.65.19-1.25.56-1.9.77-2.67.86-4.44 2.74-5.65 5.16-1.91 3.83-2.68 7.93-2.6 12.2M407.87 481.1c-.34.53-.78 1.01-1.01 1.58-3.75 9.23-7.49 18.46-11.18 27.72-.4.99-.93 1.6-1.98 1.84-1.13.25-1.41.14-1.77-.95-4.01-12.07-8.01-24.14-12.03-36.21-.27-.82-.61-1.62-1-2.39-.51-1-1.27-1.67-2.52-1.56-.28.02-.81-.21-.83-.38-.06-.44 0-.97.22-1.34.11-.2.66-.19 1.01-.18.4.01.8.21 1.2.2 4.62-.03 9.24-.08 13.86-.15.49-.01.86.01.97.62.13.71-.4.76-.79.83-1 .19-2.03.32-3.04.45-1.55.19-2.26.94-2.18 2.48.04.73.21 1.46.43 2.15 2.63 7.94 5.27 15.87 7.93 23.8.15.46.49.85.74 1.27.31-.41.73-.78.91-1.24 3.65-9.17 7.29-18.34 10.89-27.53.31-.79.48-1.66.57-2.51.08-.73.27-1.17 1.07-1.12.13.01.26-.02.38-.04 1.8-.34 1.82-.35 2.19 1.4 1.83 8.81 4.99 17.22 7.88 25.71.54 1.58 1.09 3.15 1.64 4.72.11.32.28.61.51 1.1.24-.4.42-.63.51-.88 1.96-4.98 3.99-9.93 5.84-14.95 1.61-4.37 2.77-8.88 2.78-13.59 0-.83-.08-1.67-.23-2.49-.62-3.41-2.76-5.12-6.27-5.11-.63 0-1.49.32-1.71-.59-.22-.9.61-1.18 1.22-1.49 2.53-1.31 5.15-1.98 7.96-.95 3.05 1.12 4.68 3.37 5.01 6.56.33 3.29-.55 6.37-1.85 9.33-4.5 10.27-9.03 20.53-12.86 31.08-.32.87-.62 1.75-.86 2.65-.19.69-.58 1.04-1.27 1.11-.13.01-.25.05-.38.08-1.86.39-1.86.39-2.42-1.42-2.96-9.48-5.91-18.96-8.87-28.44-.11-.36-.25-.71-.38-1.07-.1-.02-.19-.06-.29-.1M450.32 468.51c-.12 1.53.53 2.7 1.33 3.8 1.5 2.08 3.39 3.76 5.5 5.19 3.87 2.63 7.8 5.19 11.62 7.89 3.13 2.2 6.01 4.71 8.24 7.88.43.6.72 1.3 1.3 1.92.05-.25.14-.51.13-.77-.06-2.63-.15-5.27-.22-7.9-.09-3.84-.14-7.68-.27-11.51-.03-.87-.19-1.78-.5-2.59-.44-1.16-1.38-1.82-2.66-1.9-.74-.04-1.47-.15-2.21-.14-.76 0-1.1-.35-1.22-1.06-.1-.58.04-.82.68-.81 3.46.07 6.93.12 10.39.13.86 0 1.71-.17 2.57-.27.95-.11 1.5.41 1.3 1.35-.05.24-.39.49-.66.6-.28.12-.63.06-.95.12-1.95.37-2.62 1.17-2.71 3.08-.04.84-.21 1.68-.33 2.52-.11.82-.33 1.64-.34 2.46-.12 9.56-.21 19.13-.33 28.69-.01.61-.26 1.21-.36 1.82-.04.23.07.48.08.72.02.58.1 1.18.02 1.75-.08.57-.48.78-1.07.62-.27-.08-.61-.17-.85-.08-.91.34-1.16-.13-1.21-.9-.51-8.29-4.96-14.33-11.19-19.26-2.53-2-5.36-3.63-7.99-5.51-2.65-1.9-5.26-3.87-7.83-5.89-.65-.51-1.06-1.34-1.59-2.01-.1-.12-.27-.19-.53-.36.05.77.12 1.39.12 2.01.01 7.51-.02 15.02.02 22.53.01 1.66.2 3.32.37 4.98.09.89.55 1.39 1.55 1.51 1.33.15 2.65.48 3.96.77.41.09.92.17.78.85-.12.57-.47.66-.98.65-3.59-.1-7.18-.2-10.78-.26-.79-.01-1.59.12-2.39.21-.58.07-1.11.12-1.2-.67-.08-.71.26-.93.93-1 2.62-.26 3.39-.87 3.84-3.56.41-2.46.74-4.96.77-7.45.1-8.09.04-16.18.03-24.26 0-2.54-1.31-3.91-3.87-4.03-.62-.03-1.06-.11-.98-.92.07-.73.35-.93 1.1-.93 2.69.03 5.37-.05 8.06-.09.18.01.31.05.53.08"></path></svg> 