<?xml version="1.0" encoding="UTF-8"?>
<svg xmlns="http://www.w3.org/2000/svg" xmlns:xlink="http://www.w3.org/1999/xlink" width="195px" height="132px" viewBox="0 0 195 132" version="1.1">
<g id="surface1">
<path style=" stroke:none;fill-rule:nonzero;fill:rgb(100%,100%,100%);fill-opacity:1;" d="M 104.621094 34.578125 L 101.570312 34.578125 L 101.570312 30.53125 L 92.960938 30.53125 L 92.960938 46.957031 L 89.59375 46.957031 L 89.59375 22.898438 L 92.960938 22.898438 L 92.960938 27.179688 L 101.570312 27.179688 L 101.570312 15.152344 C 101.578125 14.449219 100.820312 14.074219 100.070312 14.089844 C 99.671875 14.09375 94.753906 14.050781 93.894531 14.140625 C 93.351562 14.195312 92.984375 14.519531 92.953125 15.152344 L 92.953125 16.359375 L 89.628906 16.359375 L 89.511719 16.246094 L 89.511719 14.921875 C 89.511719 11.910156 90.71875 11.464844 92.171875 10.953125 C 93.574219 10.460938 97.558594 10.542969 99.183594 10.597656 C 100.917969 10.65625 104.621094 10.554688 104.621094 13.285156 Z M 104.621094 34.578125 "/>
<path style=" stroke:none;fill-rule:nonzero;fill:rgb(100%,100%,100%);fill-opacity:1;" d="M 99.84375 18.070312 L 99.84375 21.417969 L 84.578125 21.417969 L 84.578125 36.171875 L 87.9375 36.242188 C 88.027344 36.242188 88.039062 36.246094 88.097656 36.328125 C 88.097656 36.328125 88.070312 39.636719 88.058594 39.636719 L 81.445312 39.636719 L 81.445312 18.070312 Z M 99.84375 18.070312 "/>
<path style=" stroke:none;fill-rule:nonzero;fill:rgb(100%,100%,100%);fill-opacity:1;" d="M 94.445312 39.636719 L 94.445312 36.289062 L 108.886719 36.289062 C 110.679688 36.175781 110.339844 33.957031 110.335938 33.214844 C 110.328125 30.605469 110.328125 23.335938 110.328125 23.335938 C 110.328125 22.167969 109.785156 21.796875 109.261719 21.613281 C 108.355469 21.289062 107.347656 21.445312 106.417969 21.417969 L 106.417969 18.070312 L 110.21875 18.070312 C 110.316406 18.070312 113.414062 18.070312 113.523438 22.066406 C 113.59375 24.792969 113.507812 30.019531 113.464844 32.746094 C 113.410156 36.210938 113.980469 39.636719 109.511719 39.636719 Z M 94.445312 39.636719 "/>
<path style=" stroke:none;fill-rule:nonzero;fill:rgb(100%,100%,100%);fill-opacity:1;" d="M 101.570312 41.117188 L 104.621094 41.117188 L 104.621094 46.957031 L 101.570312 46.957031 Z M 101.570312 41.117188 "/>
<path style=" stroke:none;fill-rule:nonzero;fill:rgb(100%,100%,100%);fill-opacity:1;" d="M 84.359375 54.53125 L 110.640625 54.53125 L 121.144531 44.085938 L 121.144531 13.421875 L 110.640625 2.976562 L 84.359375 2.976562 L 73.855469 13.421875 L 73.855469 44.085938 Z M 111.863281 57.472656 L 83.136719 57.472656 L 70.902344 45.304688 L 70.902344 12.207031 L 83.136719 0.0390625 L 111.863281 0.0390625 L 124.097656 12.207031 L 124.097656 45.304688 Z M 111.863281 57.472656 "/>
<path style=" stroke:none;fill-rule:nonzero;fill:rgb(100%,100%,100%);fill-opacity:1;" d="M 7.582031 127.453125 L 9.566406 127.453125 C 10.847656 127.453125 11.890625 127.1875 12.695312 126.652344 C 13.503906 126.121094 14.09375 125.3125 14.472656 124.230469 C 14.851562 123.144531 15.039062 121.734375 15.039062 120.003906 C 15.039062 118.269531 14.828125 116.878906 14.40625 115.765625 C 13.988281 114.648438 13.351562 113.816406 12.503906 113.273438 C 11.652344 112.734375 10.589844 112.460938 9.308594 112.460938 L 5.53125 112.460938 L 5.53125 127.453125 Z M 0 108.488281 L 8.652344 108.488281 C 11.484375 108.488281 13.789062 108.910156 15.574219 109.742188 C 17.355469 110.578125 18.675781 111.835938 19.523438 113.527344 C 20.375 115.21875 20.796875 117.363281 20.796875 119.972656 C 20.796875 122.582031 20.414062 124.816406 19.636719 126.5 C 18.859375 128.175781 17.636719 129.433594 15.96875 130.257812 C 14.300781 131.078125 12.125 131.492188 9.441406 131.492188 L 0 131.492188 Z M 0 108.488281 "/>
<path style=" stroke:none;fill-rule:nonzero;fill:rgb(100%,100%,100%);fill-opacity:1;" d="M 23.601562 108.488281 L 29.550781 108.488281 L 29.550781 131.492188 L 23.601562 131.492188 Z M 23.601562 108.488281 "/>
<path style=" stroke:none;fill-rule:nonzero;fill:rgb(100%,100%,100%);fill-opacity:1;" d="M 39.347656 131.476562 C 37.859375 131.152344 36.53125 130.730469 35.371094 130.210938 C 34.207031 129.6875 33.308594 129.125 32.679688 128.519531 L 35.257812 124.703125 C 35.488281 124.847656 35.78125 125.027344 36.136719 125.234375 C 36.9375 125.691406 37.714844 126.089844 38.464844 126.425781 C 39.21875 126.761719 40.070312 127.042969 41.015625 127.273438 C 41.957031 127.503906 42.953125 127.617188 44 127.617188 C 45.300781 127.617188 46.324219 127.503906 47.070312 127.273438 C 47.8125 127.042969 48.339844 126.730469 48.644531 126.332031 C 48.949219 125.9375 49.101562 125.464844 49.101562 124.925781 C 49.101562 124.214844 48.894531 123.660156 48.484375 123.265625 C 48.078125 122.867188 47.5625 122.582031 46.945312 122.402344 C 46.328125 122.222656 45.523438 122.085938 44.539062 121.980469 C 42.269531 121.792969 40.332031 121.492188 38.71875 121.085938 C 37.105469 120.679688 35.769531 119.980469 34.722656 118.992188 C 33.675781 118 33.148438 116.625 33.148438 114.875 C 33.148438 113.519531 33.503906 112.328125 34.214844 111.292969 C 34.929688 110.261719 36.007812 109.453125 37.457031 108.871094 C 38.902344 108.285156 40.667969 107.996094 42.742188 107.996094 C 44.675781 107.996094 46.535156 108.160156 48.328125 108.496094 C 50.121094 108.828125 51.667969 109.246094 52.96875 109.746094 L 51.046875 113.6875 C 50.082031 113.335938 49.269531 113.0625 48.609375 112.875 C 47.949219 112.6875 47.125 112.507812 46.144531 112.339844 C 45.15625 112.175781 44.109375 112.089844 42.996094 112.089844 C 41.484375 112.089844 40.394531 112.304688 39.726562 112.746094 C 39.050781 113.1875 38.71875 113.808594 38.71875 114.625 C 38.71875 115.082031 38.832031 115.496094 39.066406 115.863281 C 39.296875 116.226562 39.695312 116.515625 40.261719 116.722656 C 40.808594 116.914062 41.417969 117.070312 42.085938 117.195312 C 42.757812 117.316406 43.546875 117.433594 44.449219 117.539062 C 46.546875 117.792969 48.28125 118.125 49.652344 118.542969 C 51.027344 118.960938 52.144531 119.632812 53.003906 120.5625 C 53.863281 121.492188 54.296875 122.746094 54.296875 124.332031 C 54.296875 126 53.855469 127.40625 52.976562 128.539062 C 52.09375 129.675781 50.867188 130.535156 49.292969 131.105469 C 47.71875 131.675781 45.894531 131.96875 43.816406 131.96875 C 42.328125 131.96875 40.835938 131.804688 39.347656 131.480469 "/>
<path style=" stroke:none;fill-rule:nonzero;fill:rgb(100%,100%,100%);fill-opacity:1;" d="M 58.996094 112.570312 C 58.15625 112.621094 56.910156 112.683594 55.253906 112.742188 L 55.253906 108.484375 L 76.304688 108.484375 L 76.304688 112.742188 C 74.585938 112.65625 73.304688 112.597656 72.46875 112.554688 C 71.628906 112.511719 70.382812 112.460938 68.726562 112.394531 L 68.726562 131.484375 L 62.84375 131.484375 L 62.84375 112.394531 C 61.121094 112.460938 59.84375 112.515625 59.003906 112.566406 "/>
<path style=" stroke:none;fill-rule:nonzero;fill:rgb(100%,100%,100%);fill-opacity:1;" d="M 78.496094 108.488281 L 84.445312 108.488281 L 84.445312 131.492188 L 78.496094 131.492188 Z M 78.496094 108.488281 "/>
<path style=" stroke:none;fill-rule:nonzero;fill:rgb(100%,100%,100%);fill-opacity:1;" d="M 99.070312 127.234375 C 100.539062 127.191406 102.742188 127.148438 105.679688 127.109375 L 105.679688 131.488281 L 88.5 131.488281 L 92.335938 127.359375 C 95.359375 127.316406 97.601562 127.273438 99.070312 127.234375 M 87.714844 108.488281 L 93.664062 108.488281 L 93.664062 131.492188 L 87.714844 131.492188 Z M 87.714844 108.488281 "/>
<path style=" stroke:none;fill-rule:nonzero;fill:rgb(100%,100%,100%);fill-opacity:1;" d="M 119.421875 127.234375 C 120.890625 127.191406 123.09375 127.148438 126.03125 127.109375 L 126.03125 131.488281 L 108.851562 131.488281 L 112.6875 127.359375 C 115.710938 127.316406 117.957031 127.273438 119.421875 127.234375 M 108.066406 108.488281 L 114.015625 108.488281 L 114.015625 131.492188 L 108.066406 131.492188 Z M 108.066406 108.488281 "/>
<path style=" stroke:none;fill-rule:nonzero;fill:rgb(100%,100%,100%);fill-opacity:1;" d="M 128.417969 108.488281 L 146.886719 108.488281 L 146.886719 112.804688 L 133.578125 112.492188 L 133.578125 118.878906 L 144.75 118.460938 L 144.75 121.644531 L 133.578125 121.226562 L 133.578125 127.484375 L 147.328125 127.175781 L 147.328125 131.488281 L 128.417969 131.488281 Z M 128.417969 108.488281 "/>
<path style=" stroke:none;fill-rule:nonzero;fill:rgb(100%,100%,100%);fill-opacity:1;" d="M 164.355469 128.5 C 164.050781 127.84375 163.597656 126.871094 162.988281 125.578125 C 162.628906 124.804688 161.949219 123.324219 160.9375 121.132812 L 165.972656 121.039062 L 167.390625 123.230469 L 172.519531 131.523438 L 165.753906 131.523438 C 165.125 130.167969 164.660156 129.160156 164.355469 128.5 M 167.535156 109.195312 C 168.929688 109.664062 169.929688 110.394531 170.539062 111.382812 C 171.148438 112.375 171.453125 113.683594 171.453125 115.3125 C 171.453125 116.9375 171.144531 118.304688 170.527344 119.410156 C 169.910156 120.515625 168.894531 121.359375 167.492188 121.945312 C 166.085938 122.53125 164.230469 122.820312 161.921875 122.820312 L 155.722656 122.820312 L 155.347656 120.320312 L 161.324219 120.320312 C 163.023438 120.320312 164.238281 119.988281 164.972656 119.332031 C 165.707031 118.675781 166.078125 117.574219 166.078125 116.03125 C 166.078125 115.21875 165.914062 114.554688 165.585938 114.046875 C 165.261719 113.535156 164.773438 113.152344 164.125 112.890625 C 163.472656 112.628906 162.625 112.5 161.574219 112.5 L 155.34375 112.5 L 155.71875 108.496094 L 161.953125 108.496094 C 164.28125 108.496094 166.140625 108.730469 167.535156 109.199219 M 150.808594 108.488281 L 156.757812 108.488281 L 156.757812 131.492188 L 150.808594 131.492188 Z M 150.808594 108.488281 "/>
<path style=" stroke:none;fill-rule:nonzero;fill:rgb(100%,100%,100%);fill-opacity:1;" d="M 180.492188 123.757812 L 171.777344 108.484375 L 178.667969 108.484375 L 184.757812 121.683594 C 185.492188 118.824219 187.605469 111.28125 188.296875 108.484375 L 195 108.484375 L 186.09375 123.382812 L 186.09375 131.488281 L 180.492188 131.488281 Z M 180.492188 123.757812 "/>
<path style=" stroke:none;fill-rule:nonzero;fill:rgb(100%,100%,100%);fill-opacity:1;" d="M 26.78125 89.734375 C 26.445312 88.605469 26.046875 87.210938 25.585938 85.542969 C 24.910156 82.832031 24.515625 81.003906 24.386719 80.066406 L 23.726562 80.066406 C 23.472656 81.402344 23.179688 82.796875 22.847656 84.257812 C 22.257812 86.28125 21.765625 87.921875 21.367188 89.1875 C 20.964844 90.449219 20.535156 91.71875 20.074219 92.992188 L 27.875 92.992188 C 27.476562 91.949219 27.113281 90.859375 26.773438 89.738281 M 20.203125 77.933594 L 28.695312 77.933594 L 36.308594 100.9375 L 29.828125 100.9375 C 29.683594 100.519531 29.554688 100.132812 29.453125 99.765625 C 29.347656 99.398438 29.230469 99.007812 29.105469 98.589844 C 28.789062 97.507812 28.515625 96.609375 28.285156 95.902344 L 19.660156 95.871094 L 18.121094 100.941406 L 12.394531 100.941406 L 20.199219 77.9375 Z M 20.203125 77.933594 "/>
<path style=" stroke:none;fill-rule:nonzero;fill:rgb(100%,100%,100%);fill-opacity:1;" d="M 46.089844 96.902344 L 48.074219 96.902344 C 49.351562 96.902344 50.394531 96.636719 51.203125 96.101562 C 52.007812 95.570312 52.601562 94.761719 52.980469 93.679688 C 53.355469 92.59375 53.546875 91.183594 53.546875 89.453125 C 53.546875 87.71875 53.335938 86.328125 52.914062 85.214844 C 52.496094 84.097656 51.859375 83.265625 51.007812 82.722656 C 50.160156 82.183594 49.09375 81.910156 47.816406 81.910156 L 44.039062 81.910156 L 44.039062 96.902344 Z M 38.511719 77.933594 L 47.164062 77.933594 C 49.996094 77.933594 52.300781 78.351562 54.085938 79.1875 C 55.867188 80.019531 57.1875 81.28125 58.035156 82.972656 C 58.886719 84.664062 59.308594 86.808594 59.308594 89.417969 C 59.308594 92.027344 58.925781 94.261719 58.148438 95.945312 C 57.371094 97.621094 56.152344 98.878906 54.480469 99.699219 C 52.8125 100.523438 50.636719 100.9375 47.953125 100.9375 L 38.515625 100.9375 L 38.515625 77.933594 Z M 38.511719 77.933594 "/>
<path style=" stroke:none;fill-rule:nonzero;fill:rgb(100%,100%,100%);fill-opacity:1;" d="M 95.492188 96.683594 C 96.960938 96.640625 99.160156 96.601562 102.101562 96.558594 L 102.101562 100.9375 L 84.921875 100.9375 L 88.761719 96.808594 C 91.78125 96.765625 94.027344 96.722656 95.496094 96.683594 M 84.128906 77.933594 L 90.078125 77.933594 L 90.078125 100.9375 L 84.128906 100.9375 Z M 84.128906 77.933594 "/>
<path style=" stroke:none;fill-rule:nonzero;fill:rgb(100%,100%,100%);fill-opacity:1;" d="M 118.683594 89.734375 C 118.351562 88.605469 117.949219 87.210938 117.492188 85.542969 C 116.816406 82.832031 116.421875 81.003906 116.292969 80.066406 L 115.632812 80.066406 C 115.378906 81.402344 115.089844 82.796875 114.753906 84.257812 C 114.164062 86.28125 113.671875 87.921875 113.273438 89.1875 C 112.875 90.449219 112.445312 91.71875 111.980469 92.992188 L 119.785156 92.992188 C 119.382812 91.949219 119.019531 90.859375 118.679688 89.738281 M 112.109375 77.933594 L 120.601562 77.933594 L 128.21875 100.9375 L 121.738281 100.9375 C 121.589844 100.519531 121.460938 100.132812 121.359375 99.765625 C 121.257812 99.398438 121.140625 99.007812 121.011719 98.589844 C 120.699219 97.507812 120.421875 96.609375 120.191406 95.902344 L 111.570312 95.871094 L 110.027344 100.941406 L 104.300781 100.941406 L 112.105469 77.9375 Z M 112.109375 77.933594 "/>
<path style=" stroke:none;fill-rule:nonzero;fill:rgb(100%,100%,100%);fill-opacity:1;" d="M 130.363281 77.933594 L 136.3125 77.933594 L 136.3125 100.9375 L 130.363281 100.9375 Z M 130.363281 77.933594 "/>
<path style=" stroke:none;fill-rule:nonzero;fill:rgb(100%,100%,100%);fill-opacity:1;" d="M 147.601562 96.902344 L 149.582031 96.902344 C 150.863281 96.902344 151.90625 96.636719 152.710938 96.101562 C 153.519531 95.570312 154.109375 94.761719 154.488281 93.679688 C 154.867188 92.59375 155.054688 91.183594 155.054688 89.453125 C 155.054688 87.71875 154.84375 86.328125 154.425781 85.214844 C 154.003906 84.097656 153.367188 83.265625 152.519531 82.722656 C 151.667969 82.183594 150.605469 81.910156 149.324219 81.910156 L 145.546875 81.910156 L 145.546875 96.902344 Z M 140.015625 77.933594 L 148.667969 77.933594 C 151.5 77.933594 153.804688 78.351562 155.589844 79.1875 C 157.371094 80.019531 158.691406 81.28125 159.539062 82.972656 C 160.390625 84.664062 160.816406 86.808594 160.816406 89.417969 C 160.816406 92.027344 160.425781 94.261719 159.652344 95.945312 C 158.875 97.621094 157.652344 98.878906 155.984375 99.699219 C 154.316406 100.523438 152.140625 100.9375 149.457031 100.9375 L 140.019531 100.9375 L 140.019531 77.933594 Z M 140.015625 77.933594 "/>
<path style=" stroke:none;fill-rule:nonzero;fill:rgb(100%,100%,100%);fill-opacity:1;" d="M 163.6875 77.925781 L 182.160156 77.925781 L 182.160156 82.246094 L 168.847656 81.933594 L 168.847656 88.316406 L 180.019531 87.898438 L 180.019531 91.082031 L 168.847656 90.664062 L 168.847656 96.921875 L 182.601562 96.609375 L 182.601562 100.929688 L 163.6875 100.929688 Z M 163.6875 77.925781 "/>
<path style=" stroke:none;fill-rule:nonzero;fill:rgb(100%,100%,100%);fill-opacity:1;" d="M 61.699219 77.957031 L 80.171875 77.957031 L 80.171875 82.277344 L 66.863281 81.964844 L 66.863281 88.347656 L 78.035156 87.929688 L 78.035156 91.113281 L 66.863281 90.695312 L 66.863281 96.957031 L 80.609375 96.640625 L 80.609375 100.960938 L 61.699219 100.960938 Z M 61.699219 77.957031 "/>
</g>
</svg>
