<svg width="22" height="51" viewBox="0 0 22 51" fill="none" xmlns="http://www.w3.org/2000/svg">
<path d="M2.5077 50.1537H19.2256C19.8907 50.1537 20.5285 49.8895 20.9988 49.4192C21.4691 48.9489 21.7333 48.3111 21.7333 47.646V44.3024C21.7324 44.0103 21.6547 43.7235 21.508 43.4709C21.3613 43.2182 21.1507 43.0086 20.8974 42.863V23.1727C21.1507 23.0271 21.3613 22.8175 21.508 22.5649C21.6547 22.3122 21.7324 22.0254 21.7333 21.7333V19.7346C21.7346 19.4251 21.6492 19.1214 21.4867 18.858C21.3242 18.5945 21.091 18.3819 20.8138 18.2442L15.1498 15.4147C14.9756 15.3313 14.8347 15.1914 14.7499 15.0179C14.6651 14.8443 14.6413 14.6472 14.6825 14.4585C15.2473 12.0412 15.1573 9.51699 14.4217 7.14607C14.6159 6.99063 14.7729 6.79364 14.8809 6.56956C14.989 6.34549 15.0454 6.10004 15.0461 5.85127V1.67179C15.0461 1.2284 14.87 0.803178 14.5565 0.489656C14.2429 0.176135 13.8177 0 13.3743 0L8.35896 0C7.91558 0 7.49035 0.176135 7.17683 0.489656C6.86331 0.803178 6.68717 1.2284 6.68717 1.67179V5.85127C6.68798 6.10027 6.74475 6.34591 6.85326 6.57002C6.96177 6.79414 7.11926 6.99101 7.31409 7.14607C6.57853 9.51699 6.4885 12.0412 7.05329 14.4585C7.09417 14.6472 7.0703 14.8442 6.98553 15.0177C6.90076 15.1911 6.76003 15.331 6.58603 15.4147L0.929525 18.2401C0.649535 18.3788 0.414032 18.5932 0.249735 18.859C0.0854387 19.1248 -0.0010743 19.4314 1.007e-05 19.7438V21.7333C0.000891057 22.0254 0.0785861 22.3122 0.225302 22.5649C0.372018 22.8175 0.582595 23.0271 0.835905 23.1727V42.863C0.582595 43.0086 0.372018 43.2182 0.225302 43.4709C0.0785861 43.7235 0.000891057 44.0103 1.007e-05 44.3024V47.646C1.007e-05 48.3111 0.264212 48.9489 0.734494 49.4192C1.20478 49.8895 1.84262 50.1537 2.5077 50.1537ZM20.0615 47.646C20.0615 47.8677 19.9734 48.0803 19.8167 48.2371C19.6599 48.3939 19.4473 48.4819 19.2256 48.4819H2.5077C2.286 48.4819 2.07339 48.3939 1.91663 48.2371C1.75987 48.0803 1.6718 47.8677 1.6718 47.646V44.3024H20.0615V47.646ZM2.5077 23.4051H19.2256V42.6307H2.5077V23.4051ZM8.43169 12.5384C8.38594 12.122 8.36167 11.7035 8.35896 11.2846C8.3638 10.0085 8.56106 8.74035 8.94409 7.52306H12.7892C13.1722 8.74035 13.3695 10.0085 13.3743 11.2846C13.3716 11.7035 13.3473 12.122 13.3016 12.5384H8.43169ZM8.35896 1.67179H13.3743V5.85127H8.35896V1.67179ZM1.67682 19.7355L7.33332 16.9102C7.82263 16.6686 8.22038 16.2749 8.46682 15.7881C8.71325 15.3012 8.79508 14.7475 8.70001 14.2102H13.0333C12.9379 14.7476 13.0196 15.3013 13.2661 15.7882C13.5126 16.2752 13.9105 16.6689 14.4 16.9102L20.0615 19.7346V21.7333H1.6718L1.67682 19.7355Z" fill="#F9F8F6"/>
<path d="M5.01558 26.7488C4.79389 26.7488 4.58128 26.8368 4.42451 26.9936C4.26775 27.1504 4.17969 27.363 4.17969 27.5847V40.1231C4.17969 40.3448 4.26775 40.5574 4.42451 40.7142C4.58128 40.8709 4.79389 40.959 5.01558 40.959C5.23728 40.959 5.44989 40.8709 5.60665 40.7142C5.76341 40.5574 5.85148 40.3448 5.85148 40.1231V27.5847C5.85148 27.363 5.76341 27.1504 5.60665 26.9936C5.44989 26.8368 5.23728 26.7488 5.01558 26.7488Z" fill="#F9F8F6"/>
</svg>
