<svg width="32" height="55" viewBox="0 0 32 55" fill="none" xmlns="http://www.w3.org/2000/svg">
<path d="M0 13.3333V53.3333C0 53.5691 0.0936514 53.7952 0.26035 53.9619C0.427049 54.1286 0.653142 54.2222 0.88889 54.2222H4.44445C4.65841 54.2222 4.8652 54.1451 5.02685 54.0049C5.18851 53.8647 5.29417 53.6709 5.32445 53.4591L7.04756 41.3969L11.5678 47.4238C11.6436 48.4953 12.105 49.5032 12.8666 50.2608C13.6282 51.0185 14.6384 51.4746 15.7103 51.5449C16.7823 51.6152 17.8434 51.2949 18.6974 50.6432C19.5514 49.9915 20.1404 49.0525 20.3556 48H23.1111C23.3469 48 23.573 47.9063 23.7397 47.7397C23.9064 47.573 24 47.3469 24 47.1111C24 46.8754 23.9064 46.6493 23.7397 46.4826C23.573 46.3159 23.3469 46.2222 23.1111 46.2222H21.3333L24.9524 41.3969L26.6756 53.4591C26.7058 53.6709 26.8115 53.8647 26.9731 54.0049C27.1348 54.1451 27.3416 54.2222 27.5556 54.2222H31.1111C31.3469 54.2222 31.573 54.1286 31.7397 53.9619C31.9064 53.7952 32 53.5691 32 53.3333V13.3333C32 13.2051 31.9722 13.0784 31.9185 12.962C31.8648 12.8455 31.7864 12.7421 31.6889 12.6589L25.7778 7.59122V5.33333H26.6667C26.9024 5.33333 27.1285 5.23968 27.2952 5.07298C27.4619 4.90628 27.5556 4.68019 27.5556 4.44444V0.888889C27.5556 0.653141 27.4619 0.427048 27.2952 0.260349C27.1285 0.0936505 26.9024 0 26.6667 0H5.33333C5.09759 0 4.87149 0.0936505 4.70479 0.260349C4.53809 0.427048 4.44445 0.653141 4.44445 0.888889V4.44444C4.44445 4.68019 4.53809 4.90628 4.70479 5.07298C4.87149 5.23968 5.09759 5.33333 5.33333 5.33333H6.22222V7.59122L0.310445 12.6584C0.212951 12.7418 0.134704 12.8453 0.0811063 12.9618C0.0275082 13.0783 -0.000164011 13.2051 0 13.3333ZM7.43989 8.88889H24.5601L28.7082 12.4444H3.29178L7.43989 8.88889ZM16 42.6667C15.1808 42.6675 14.3778 42.8945 13.6794 43.3226C12.981 43.7508 12.4144 44.3634 12.0421 45.0931L8.06867 39.7952C10.22 40.4399 12.8484 40.8889 16 40.8889C19.1516 40.8889 21.78 40.4399 23.9313 39.7952L19.9579 45.0931C19.5856 44.3634 19.019 43.7508 18.3206 43.3226C17.6222 42.8945 16.8192 42.6675 16 42.6667ZM16 39.1111C10.7318 39.1111 7.08889 37.7466 4.96033 36.6019C3.22878 35.6706 2.19011 34.7296 1.77778 34.3158V14.2222H30.2222V34.3156C29.8082 34.731 28.7699 35.6711 27.0397 36.6019C24.9111 37.7466 21.2682 39.1111 16 39.1111ZM3.67356 52.4444H1.77778V36.6722C2.95913 37.5679 4.24561 38.3157 5.60856 38.899L3.67356 52.4444ZM16 49.7778C15.5111 49.7778 15.0316 49.6435 14.6139 49.3895C14.1962 49.1354 13.8563 48.7714 13.6316 48.3372C13.4068 47.9031 13.3056 47.4155 13.3393 46.9277C13.3729 46.44 13.5399 45.9709 13.8222 45.5717C14.1044 45.1725 14.491 44.8585 14.9396 44.6642C15.3882 44.4698 15.8816 44.4026 16.3659 44.4697C16.8502 44.5369 17.3066 44.7359 17.6855 45.0449C18.0643 45.354 18.3508 45.7613 18.5138 46.2222H16C15.7643 46.2222 15.5382 46.3159 15.3715 46.4826C15.2048 46.6493 15.1111 46.8754 15.1111 47.1111C15.1111 47.3469 15.2048 47.573 15.3715 47.7397C15.5382 47.9063 15.7643 48 16 48H18.5138C18.3294 48.5195 17.9889 48.9692 17.5388 49.2875C17.0888 49.6058 16.5512 49.7771 16 49.7778ZM28.3264 52.4444L26.3914 38.899C27.7544 38.3157 29.0409 37.5679 30.2222 36.6722V52.4444H28.3264ZM6.22222 1.77778H25.7778V3.55556H6.22222V1.77778ZM24 5.33333V7.11111H8V5.33333H24Z" fill="#F9F8F6"/>
<path d="M0 13.3333V53.3333C0 53.5691 0.0936514 53.7952 0.26035 53.9619C0.427049 54.1286 0.653142 54.2222 0.88889 54.2222H4.44445C4.65841 54.2222 4.8652 54.1451 5.02685 54.0049C5.18851 53.8647 5.29417 53.6709 5.32445 53.4591L7.04756 41.3969L11.5678 47.4238C11.6436 48.4953 12.105 49.5032 12.8666 50.2608C13.6282 51.0185 14.6384 51.4746 15.7103 51.5449C16.7823 51.6152 17.8434 51.2949 18.6974 50.6432C19.5514 49.9915 20.1404 49.0525 20.3556 48H23.1111C23.3469 48 23.573 47.9063 23.7397 47.7397C23.9064 47.573 24 47.3469 24 47.1111C24 46.8754 23.9064 46.6493 23.7397 46.4826C23.573 46.3159 23.3469 46.2222 23.1111 46.2222H21.3333L24.9524 41.3969L26.6756 53.4591C26.7058 53.6709 26.8115 53.8647 26.9731 54.0049C27.1348 54.1451 27.3416 54.2222 27.5556 54.2222H31.1111C31.3469 54.2222 31.573 54.1286 31.7397 53.9619C31.9064 53.7952 32 53.5691 32 53.3333V13.3333C32 13.2051 31.9722 13.0784 31.9185 12.962C31.8648 12.8455 31.7864 12.7421 31.6889 12.6589L25.7778 7.59122V5.33333H26.6667C26.9024 5.33333 27.1285 5.23968 27.2952 5.07298C27.4619 4.90628 27.5556 4.68019 27.5556 4.44444V0.888889C27.5556 0.653141 27.4619 0.427048 27.2952 0.260349C27.1285 0.0936505 26.9024 0 26.6667 0H5.33333C5.09759 0 4.87149 0.0936505 4.70479 0.260349C4.53809 0.427048 4.44445 0.653141 4.44445 0.888889V4.44444C4.44445 4.68019 4.53809 4.90628 4.70479 5.07298C4.87149 5.23968 5.09759 5.33333 5.33333 5.33333H6.22222V7.59122L0.310445 12.6584C0.212951 12.7418 0.134704 12.8453 0.0811063 12.9618C0.0275082 13.0783 -0.000164011 13.2051 0 13.3333ZM7.43989 8.88889H24.5601L28.7082 12.4444H3.29178L7.43989 8.88889ZM16 42.6667C15.1808 42.6675 14.3778 42.8945 13.6794 43.3226C12.981 43.7508 12.4144 44.3634 12.0421 45.0931L8.06867 39.7952C10.22 40.4399 12.8484 40.8889 16 40.8889C19.1516 40.8889 21.78 40.4399 23.9313 39.7952L19.9579 45.0931C19.5856 44.3634 19.019 43.7508 18.3206 43.3226C17.6222 42.8945 16.8192 42.6675 16 42.6667ZM16 39.1111C10.7318 39.1111 7.08889 37.7466 4.96033 36.6019C3.22878 35.6706 2.19011 34.7296 1.77778 34.3158V14.2222H30.2222V34.3156C29.8082 34.731 28.7699 35.6711 27.0397 36.6019C24.9111 37.7466 21.2682 39.1111 16 39.1111ZM3.67356 52.4444H1.77778V36.6722C2.95913 37.5679 4.24561 38.3157 5.60856 38.899L3.67356 52.4444ZM16 49.7778C15.5111 49.7778 15.0316 49.6435 14.6139 49.3895C14.1962 49.1354 13.8563 48.7714 13.6316 48.3372C13.4068 47.9031 13.3056 47.4155 13.3393 46.9277C13.3729 46.44 13.5399 45.9709 13.8222 45.5717C14.1044 45.1725 14.491 44.8585 14.9396 44.6642C15.3882 44.4698 15.8816 44.4026 16.3659 44.4697C16.8502 44.5369 17.3066 44.7359 17.6855 45.0449C18.0643 45.354 18.3508 45.7613 18.5138 46.2222H16C15.7643 46.2222 15.5382 46.3159 15.3715 46.4826C15.2048 46.6493 15.1111 46.8754 15.1111 47.1111C15.1111 47.3469 15.2048 47.573 15.3715 47.7397C15.5382 47.9063 15.7643 48 16 48H18.5138C18.3294 48.5195 17.9889 48.9692 17.5388 49.2875C17.0888 49.6058 16.5512 49.7771 16 49.7778ZM28.3264 52.4444L26.3914 38.899C27.7544 38.3157 29.0409 37.5679 30.2222 36.6722V52.4444H28.3264ZM6.22222 1.77778H25.7778V3.55556H6.22222V1.77778ZM24 5.33333V7.11111H8V5.33333H24Z" stroke="#F9F8F6"/>
<path d="M4.44455 16C4.2088 16 3.98271 16.0936 3.81601 16.2603C3.64931 16.427 3.55566 16.6531 3.55566 16.8889V20.4444C3.55566 20.6802 3.64931 20.9063 3.81601 21.073C3.98271 21.2397 4.2088 21.3333 4.44455 21.3333C4.6803 21.3333 4.90639 21.2397 5.07309 21.073C5.23979 20.9063 5.33344 20.6802 5.33344 20.4444V16.8889C5.33344 16.6531 5.23979 16.427 5.07309 16.2603C4.90639 16.0936 4.6803 16 4.44455 16Z" fill="#F9F8F6"/>
<path d="M4.44455 16C4.2088 16 3.98271 16.0936 3.81601 16.2603C3.64931 16.427 3.55566 16.6531 3.55566 16.8889V20.4444C3.55566 20.6802 3.64931 20.9063 3.81601 21.073C3.98271 21.2397 4.2088 21.3333 4.44455 21.3333C4.6803 21.3333 4.90639 21.2397 5.07309 21.073C5.23979 20.9063 5.33344 20.6802 5.33344 20.4444V16.8889C5.33344 16.6531 5.23979 16.427 5.07309 16.2603C4.90639 16.0936 4.6803 16 4.44455 16Z" stroke="#F9F8F6"/>
<path d="M4.44455 23.1111C4.2088 23.1111 3.98271 23.2047 3.81601 23.3714C3.64931 23.5381 3.55566 23.7642 3.55566 24V32.8889C3.55566 33.1246 3.64931 33.3507 3.81601 33.5174C3.98271 33.6841 4.2088 33.7778 4.44455 33.7778C4.6803 33.7778 4.90639 33.6841 5.07309 33.5174C5.23979 33.3507 5.33344 33.1246 5.33344 32.8889V24C5.33344 23.7642 5.23979 23.5381 5.07309 23.3714C4.90639 23.2047 4.6803 23.1111 4.44455 23.1111Z" fill="#F9F8F6"/>
<path d="M4.44455 23.1111C4.2088 23.1111 3.98271 23.2047 3.81601 23.3714C3.64931 23.5381 3.55566 23.7642 3.55566 24V32.8889C3.55566 33.1246 3.64931 33.3507 3.81601 33.5174C3.98271 33.6841 4.2088 33.7778 4.44455 33.7778C4.6803 33.7778 4.90639 33.6841 5.07309 33.5174C5.23979 33.3507 5.33344 33.1246 5.33344 32.8889V24C5.33344 23.7642 5.23979 23.5381 5.07309 23.3714C4.90639 23.2047 4.6803 23.1111 4.44455 23.1111Z" stroke="#F9F8F6"/>
<path d="M16 21.3333C15.1264 21.3324 14.266 21.5461 13.4943 21.9556C12.7226 22.3652 12.0634 22.958 11.5745 23.682C11.0856 24.406 10.782 25.239 10.6905 26.1078C10.599 26.9766 10.7222 27.8546 11.0495 28.6646C11.3768 29.4746 11.898 30.1918 12.5674 30.7531C13.2367 31.3145 14.0338 31.7028 14.8884 31.884C15.743 32.0652 16.629 32.0337 17.4686 31.7922C18.3082 31.5507 19.0756 31.1067 19.7034 30.4992C19.7507 30.4606 19.794 30.4173 19.8327 30.37C20.5611 29.6177 21.0517 28.6676 21.2433 27.6382C21.435 26.6088 21.3192 25.5458 20.9103 24.5818C20.5015 23.6179 19.8178 22.7957 18.9445 22.218C18.0712 21.6402 17.0471 21.3326 16 21.3333ZM12.4445 26.6666C12.444 26.1197 12.5697 25.58 12.8119 25.0895C13.054 24.5991 13.4061 24.1711 13.8406 23.8389C14.2751 23.5067 14.7804 23.2793 15.3172 23.1742C15.854 23.0692 16.4078 23.0894 16.9355 23.2333C17.4632 23.3772 17.9506 23.6409 18.3597 24.0039C18.7689 24.3669 19.0887 24.8194 19.2945 25.3262C19.5002 25.833 19.5863 26.3804 19.5459 26.9259C19.5055 27.4714 19.3399 28.0002 19.0618 28.4712L16.6285 26.0379C16.4618 25.8712 16.2357 25.7775 15.9999 25.7775C15.7642 25.7775 15.5381 25.8712 15.3714 26.0379C15.2047 26.2046 15.111 26.4307 15.111 26.6664C15.111 26.9022 15.2047 27.1283 15.3714 27.295L17.8047 29.7283C17.2649 30.0472 16.6504 30.2175 16.0235 30.2221C15.3966 30.2267 14.7797 30.0653 14.2353 29.7544C13.691 29.4434 13.2386 28.994 12.924 28.4517C12.6095 27.9094 12.4441 27.2936 12.4445 26.6666Z" fill="#F9F8F6"/>
<path d="M16 21.3333C15.1264 21.3324 14.266 21.5461 13.4943 21.9556C12.7226 22.3652 12.0634 22.958 11.5745 23.682C11.0856 24.406 10.782 25.239 10.6905 26.1078C10.599 26.9766 10.7222 27.8546 11.0495 28.6646C11.3768 29.4746 11.898 30.1918 12.5674 30.7531C13.2367 31.3145 14.0338 31.7028 14.8884 31.884C15.743 32.0652 16.629 32.0337 17.4686 31.7922C18.3082 31.5507 19.0756 31.1067 19.7034 30.4992C19.7507 30.4606 19.794 30.4173 19.8327 30.37C20.5611 29.6177 21.0517 28.6676 21.2433 27.6382C21.435 26.6088 21.3192 25.5458 20.9103 24.5818C20.5015 23.6179 19.8178 22.7957 18.9445 22.218C18.0712 21.6402 17.0471 21.3326 16 21.3333ZM12.4445 26.6666C12.444 26.1197 12.5697 25.58 12.8119 25.0895C13.054 24.5991 13.4061 24.1711 13.8406 23.8389C14.2751 23.5067 14.7804 23.2793 15.3172 23.1742C15.854 23.0692 16.4078 23.0894 16.9355 23.2333C17.4632 23.3772 17.9506 23.6409 18.3597 24.0039C18.7689 24.3669 19.0887 24.8194 19.2945 25.3262C19.5002 25.833 19.5863 26.3804 19.5459 26.9259C19.5055 27.4714 19.3399 28.0002 19.0618 28.4712L16.6285 26.0379C16.4618 25.8712 16.2357 25.7775 15.9999 25.7775C15.7642 25.7775 15.5381 25.8712 15.3714 26.0379C15.2047 26.2046 15.111 26.4307 15.111 26.6664C15.111 26.9022 15.2047 27.1283 15.3714 27.295L17.8047 29.7283C17.2649 30.0472 16.6504 30.2175 16.0235 30.2221C15.3966 30.2267 14.7797 30.0653 14.2353 29.7544C13.691 29.4434 13.2386 28.994 12.924 28.4517C12.6095 27.9094 12.4441 27.2936 12.4445 26.6666Z" stroke="#F9F8F6"/>
</svg>
