<?xml version="1.0" encoding="UTF-8"?><svg id="Layer_1" xmlns="http://www.w3.org/2000/svg" viewBox="0 0 570.36 55.21"><path id="Bruichladdich" d="M0,1.47H25.55c10.57,0,17.69,3.67,17.69,13.44,0,6.68-3.82,10.2-10.94,11.82v.15c7.12,.51,12.85,4.26,12.85,11.97,0,10.79-8.08,14.9-21.36,14.9H0V1.47ZM12.48,22.03h10.87c4.18,0,6.83-1.62,6.83-5.43,0-4.41-2.5-5.43-6.83-5.43H12.48v10.87Zm.15,22.03h10.65c6.9,0,8.81-2.72,8.81-6.09,0-4.33-1.62-6.24-6.46-6.24H12.63v12.33ZM49.46,1.47h26.14c11.75,0,18.94,5.43,18.94,17.18,0,6.75-4.26,12.19-10.79,14.1l11.97,21h-14.61l-10.28-18.79h-8.3v18.79h-13.07V1.47Zm13.07,23.79h11.97c4.18-.07,6.97-2.2,6.97-7.05s-2.79-6.97-6.97-7.05h-11.97v14.1Zm79.54,10.28c0,14.32-12.11,19.68-22.17,19.68s-22.1-5.36-22.1-19.68V1.47h13.07V34.43c0,5.87,2.28,10.2,9.03,10.2s9.1-4.33,9.1-10.2V1.47h13.07V35.53ZM147.79,1.47h13.07V53.74h-13.07V1.47Zm54.01,17.4c-1.84-4.85-6.31-7.86-10.87-7.86-7.2,0-12.92,4.85-12.92,16.59,0,7.64,3.08,16.59,13.36,16.59,3.52,0,8.66-2.64,10.72-7.34l10.35,4.99c-4.48,8.15-12.26,13.36-21.07,13.36-16.67,0-26.43-12.92-26.43-27.6S174.05,0,190.35,0c10.28,0,17.03,4.99,21.88,13.66l-10.43,5.21ZM216.52,1.47h13.07V20.26h19.46V1.47h13.07V53.74h-13.07V31.72s-19.46,0-19.46,0v22.03h-13.07V1.47Zm51.3,0h13.07V42.73h19.28l-4.08,11.01h-28.27V1.47Zm50.25,0h13.51l19.75,52.27h-14.02l-2.64-8.22h-19.31l-2.64,8.22h-13.95L318.07,1.47Zm13.49,34.36l-6.46-21.58h-.15l-6.46,21.58h13.07ZM353.7,1.47h20.26c15.93,0,26.65,7.56,26.65,26.14s-10.72,26.14-26.65,26.14h-20.26V1.47Zm13.07,41.26h7.49c9.76,0,13.29-6.68,13.29-15.12s-3.52-15.12-13.36-15.12h-7.41v30.25ZM404.91,1.47h20.26c15.93,0,26.65,7.56,26.65,26.14s-10.72,26.14-26.65,26.14h-20.26V1.47Zm13.07,41.26h7.49c9.76,0,13.29-6.68,13.29-15.12s-3.52-15.12-13.36-15.12h-7.41v30.25ZM456.36,1.47h13.07V53.74h-13.07V1.47Zm53.84,17.4c-1.84-4.85-6.31-7.86-10.87-7.86-7.2,0-12.92,4.85-12.92,16.59,0,7.64,3.08,16.59,13.36,16.59,3.52,0,8.66-2.64,10.72-7.34l10.35,4.99c-4.48,8.15-12.26,13.36-21.07,13.36-16.67,0-26.43-12.92-26.43-27.6S482.44,0,498.74,0c10.28,0,17.03,4.99,21.88,13.66l-10.43,5.21Zm14.58-17.4h13.07V20.26h19.46V1.47h13.07V53.74h-13.07V31.72h-19.46v22.03h-13.07V1.47Z" fill="#fff"/></svg>