<?xml version="1.0" encoding="UTF-8"?> <svg xmlns="http://www.w3.org/2000/svg" width="22" height="20" viewBox="0 0 22 20" fill="none"><g id="Vector"><g id="Vector_2"><path fill-rule="evenodd" clip-rule="evenodd" d="M7.64835 3.75239C6.84258 3.12568 6.44178 2.86659 5.9336 2.86659V0.199921C7.43122 0.199921 8.50472 1.03797 9.20231 1.58257C9.23067 1.60471 9.25841 1.62636 9.28552 1.64745C10.0913 2.27416 10.4921 2.53325 11.0003 2.53325V5.19992C9.50266 5.19992 8.42915 4.36187 7.73156 3.81727C7.7032 3.79513 7.67547 3.77348 7.64835 3.75239Z" fill="#8C6E2D"></path><path fill-rule="evenodd" clip-rule="evenodd" d="M14.3521 3.75239C15.1579 3.12568 15.5587 2.86659 16.0669 2.86659V0.199921C14.5693 0.199921 13.4958 1.03797 12.7982 1.58257C12.7698 1.60471 12.7421 1.62636 12.7149 1.64745C11.9092 2.27416 11.5084 2.53325 11.0003 2.53325V5.19992C12.4979 5.19992 13.5713 4.36187 14.2689 3.81727C14.2973 3.79513 14.325 3.77348 14.3521 3.75239Z" fill="#8C6E2D"></path><path fill-rule="evenodd" clip-rule="evenodd" d="M19.8131 4.55973C18.2099 3.40434 17.4637 2.86659 16.0669 2.86659V0.199921C18.3711 0.199921 19.827 1.26374 21.3449 2.37286C21.5312 2.50905 21.7186 2.64593 21.9085 2.78161L20.3585 4.95157C20.1657 4.81383 19.9845 4.68325 19.8131 4.55973Z" fill="#8C6E2D"></path><path fill-rule="evenodd" clip-rule="evenodd" d="M2.26984 4.50576C3.78172 3.42713 4.56742 2.86659 5.9336 2.86659V0.199921C3.65815 0.199921 2.1485 1.29467 0.696372 2.3477C0.496978 2.49229 0.298668 2.6361 0.0996094 2.77618L1.63426 4.957C1.86059 4.79773 2.07146 4.64728 2.26984 4.50576Z" fill="#8C6E2D"></path></g><g id="Vector_3"><path fill-rule="evenodd" clip-rule="evenodd" d="M7.64835 11.019C6.84258 10.3923 6.44178 10.1332 5.9336 10.1332V7.46655C7.43121 7.46655 8.50472 8.30461 9.20231 8.8492C9.23067 8.87134 9.2584 8.89299 9.28552 8.91408C10.0913 9.54079 10.4921 9.79989 11.0003 9.79989V12.4666C9.50265 12.4666 8.42915 11.6285 7.73156 11.0839C7.7032 11.0618 7.67546 11.0401 7.64835 11.019Z" fill="#8C6E2D"></path><path fill-rule="evenodd" clip-rule="evenodd" d="M14.3521 11.019C15.1579 10.3923 15.5587 10.1332 16.0669 10.1332V7.46655C14.5693 7.46655 13.4958 8.30461 12.7982 8.8492C12.7698 8.87134 12.7421 8.89299 12.7149 8.91408C11.9092 9.54079 11.5084 9.79989 11.0003 9.79989V12.4666C12.4979 12.4666 13.5713 11.6285 14.2689 11.0839C14.2973 11.0618 14.325 11.0401 14.3521 11.019Z" fill="#8C6E2D"></path><path fill-rule="evenodd" clip-rule="evenodd" d="M19.8131 11.8264C18.2099 10.671 17.4637 10.1332 16.0669 10.1332V7.46655C18.3711 7.46655 19.827 8.53037 21.3448 9.63949C21.5312 9.77569 21.7186 9.91256 21.9085 10.0482L20.3585 12.2182C20.1657 12.0805 19.9845 11.9499 19.8131 11.8264Z" fill="#8C6E2D"></path><path fill-rule="evenodd" clip-rule="evenodd" d="M2.26984 11.7724C3.78171 10.6938 4.56742 10.1332 5.9336 10.1332V7.46655C3.65815 7.46655 2.1485 8.5613 0.696372 9.61433C0.496977 9.75892 0.298668 9.90273 0.0996094 10.0428L1.63426 12.2236C1.86059 12.0644 2.07146 11.9139 2.26984 11.7724Z" fill="#8C6E2D"></path></g><g id="Vector_4"><path fill-rule="evenodd" clip-rule="evenodd" d="M7.64835 18.3525C6.84258 17.7257 6.44178 17.4667 5.9336 17.4667V14.8C7.43121 14.8 8.50472 15.638 9.20231 16.1826C9.23067 16.2048 9.2584 16.2264 9.28552 16.2475C10.0913 16.8742 10.4921 17.1333 11.0003 17.1333V19.8C9.50265 19.8 8.42915 18.9619 7.73156 18.4173C7.7032 18.3952 7.67546 18.3735 7.64835 18.3525Z" fill="#8C6E2D"></path><path fill-rule="evenodd" clip-rule="evenodd" d="M14.3521 18.3525C15.1579 17.7257 15.5587 17.4667 16.0669 17.4667V14.8C14.5693 14.8 13.4958 15.638 12.7982 16.1826C12.7698 16.2048 12.7421 16.2264 12.7149 16.2475C11.9092 16.8742 11.5084 17.1333 11.0003 17.1333V19.8C12.4979 19.8 13.5713 18.9619 14.2689 18.4173C14.2973 18.3952 14.325 18.3735 14.3521 18.3525Z" fill="#8C6E2D"></path><path fill-rule="evenodd" clip-rule="evenodd" d="M19.8131 19.1598C18.2099 18.0044 17.4637 17.4667 16.0669 17.4667V14.8C18.3711 14.8 19.827 15.8638 21.3448 16.9729C21.5312 17.1091 21.7186 17.246 21.9085 17.3817L20.3585 19.5516C20.1657 19.4139 19.9845 19.2833 19.8131 19.1598Z" fill="#8C6E2D"></path><path fill-rule="evenodd" clip-rule="evenodd" d="M2.26984 19.1058C3.78171 18.0272 4.56742 17.4667 5.9336 17.4667V14.8C3.65815 14.8 2.1485 15.8947 0.696372 16.9478C0.496977 17.0924 0.298668 17.2362 0.0996094 17.3762L1.63426 19.5571C1.86059 19.3978 2.07146 19.2473 2.26984 19.1058Z" fill="#8C6E2D"></path></g></g></svg> 