<svg xmlns="http://www.w3.org/2000/svg" fill="none" viewBox="0 0 498 142" height="142" width="498">
<mask height="142" width="498" y="0" x="0" maskUnits="userSpaceOnUse" style="mask-type:luminance" id="mask0_689_56813">
<path fill="white" d="M497.189 0.282349H0.188721V141.282H497.189V0.282349Z"></path>
</mask>
<g mask="url(#mask0_689_56813)">
<path fill="#FAFAFA" d="M0.180923 82.8299C2.52899 81.8492 2.77945 79.8484 2.77945 77.6672C2.75597 63.113 2.74814 48.5587 2.74032 34.0044C2.74032 33.3767 2.70901 32.7491 2.74032 32.1292C2.87337 29.8147 2.41159 27.7825 0.196576 26.6449C0.31398 25.6798 0.760113 25.3895 1.66021 25.3974C8.07043 25.4601 14.4728 25.3974 20.8831 25.5072C23.9512 25.5543 26.9567 26.1663 29.6648 27.7198C33.8679 30.1285 35.9185 33.9338 36.2238 38.6492C36.5838 44.2905 34.3845 48.7627 29.5866 51.8618C29.4848 51.9246 29.4066 52.0109 29.3674 52.0423C30.8858 52.9211 32.4825 53.6507 33.8444 54.6786C38.0788 57.8719 39.5972 62.3441 39.4641 67.491C39.4015 69.884 38.9006 72.1829 37.9927 74.3876C35.7855 79.8014 31.5433 82.6181 25.9705 83.5517C23.5207 83.9597 21.0161 84.1088 18.5272 84.148C12.9388 84.2343 7.35036 84.148 1.76978 84.203C0.783594 84.2108 0.321807 83.897 0.173096 82.8299M12.6413 56.5616V77.0396C15.4825 76.8983 18.2689 76.867 21.0318 76.5845C22.9181 76.3962 24.6243 75.5567 25.9862 74.1679C28.483 71.6259 29.1404 68.511 28.7726 65.0823C28.3343 61.0887 25.6809 58.0445 21.8145 57.0637C18.8089 56.3027 15.7564 56.64 12.6413 56.5537M12.6413 49.7984C14.2224 49.7984 15.7643 49.8611 17.2905 49.7748C18.3315 49.7199 19.3881 49.563 20.3821 49.2805C24.8513 47.9938 26.5576 43.4196 26.1271 39.63C25.7357 36.1464 23.8495 33.7533 20.39 33.1178C17.8775 32.6549 15.2555 32.7569 12.6335 32.6V49.7984H12.6413Z"></path>
<path fill="#FAFAFA" d="M189.717 32.9687C189.78 32.035 190.226 31.7604 191.126 31.7761C194.382 31.831 197.638 31.831 200.886 31.7761C201.778 31.7604 202.146 32.0742 202.177 33.0471C199.594 33.8082 199.696 36.0364 199.688 38.0999C199.649 51.3753 199.665 64.6507 199.673 77.9261C199.673 78.5852 199.728 79.2442 199.798 79.8954C199.962 81.4018 200.776 82.4297 202.177 82.8847C202.13 83.8812 201.723 84.195 200.8 84.1793C196.988 84.1244 193.169 84.1244 189.357 84.1793C188.41 84.195 188.05 83.8263 187.964 82.869C190.578 81.9668 190.5 79.6757 190.507 77.4945C190.531 71.8925 190.476 66.2983 190.46 60.6963C190.453 58.4288 190.46 56.1692 190.351 53.8468C188.065 60.1314 185.78 66.4082 183.487 72.6928C183.346 72.7085 183.205 72.7242 183.064 72.7399L175.691 53.7134L175.582 53.737V58.0052C175.613 64.8861 175.636 71.7748 175.675 78.6558C175.675 79.1501 175.691 79.6444 175.762 80.1308C175.981 81.5195 176.795 82.4375 178.102 82.8847C178.047 83.8184 177.695 84.195 176.748 84.1793C173.061 84.1244 169.383 84.1244 165.704 84.1793C164.78 84.195 164.366 83.8812 164.287 82.9397C164.561 82.7749 164.859 82.5944 165.156 82.4061C166.017 81.8726 166.542 81.1115 166.659 80.0994C166.737 79.4168 166.831 78.7264 166.831 78.0359C166.839 64.6585 166.839 51.2812 166.831 37.9116C166.831 37.127 166.753 36.3346 166.62 35.5578C166.393 34.2397 165.532 33.4237 164.319 33.0236C164.35 32.0428 164.773 31.7604 165.688 31.7682C169.242 31.8231 172.795 31.7682 176.341 31.8153C176.67 31.8153 177.077 32.0742 177.311 32.3331C177.695 32.749 177.233 33.0157 177.061 33.3845C176.763 34.02 176.458 34.8752 176.654 35.4872C177.421 37.9587 178.344 40.3831 179.276 42.7997C180.693 46.4716 182.156 50.1199 183.69 53.9959C184.434 52.1128 185.107 50.4102 185.772 48.6998C187.212 44.9965 188.66 41.3011 190.085 37.5978C190.296 37.0486 190.421 36.468 190.578 35.8952C190.907 34.7183 190.766 33.6826 189.701 32.9608"></path>
<path fill="#FAFAFA" d="M142.521 82.9397C144.431 82.2179 145.018 80.7037 145.018 78.7892C145.002 72.7949 145.018 66.8006 145.018 60.7278H133.536C133.52 60.9161 133.489 61.1044 133.489 61.2927C133.457 66.9889 133.418 72.6851 133.403 78.3891C133.395 80.3584 133.684 82.1865 135.876 82.9554C135.852 83.8891 135.524 84.2814 134.569 84.2657C130.655 84.2029 126.742 84.1794 122.836 84.2108C121.944 84.2186 121.6 83.8891 121.482 83.0025C124.308 82.0139 124.042 79.5424 124.049 77.3063C124.089 65.1529 124.073 52.9917 124.065 40.8383C124.065 39.5829 124.042 38.3354 124.002 37.0879C123.948 35.2755 123.541 33.6592 121.553 33.055C121.584 32.1057 121.96 31.7762 122.891 31.7918C126.804 31.8468 130.718 31.8546 134.624 31.7918C135.539 31.7762 135.954 32.09 136.048 33.055C133.872 33.7298 133.528 35.5422 133.528 37.5037C133.512 42.8704 133.528 48.237 133.528 53.6978H145.112V37.8097C145.112 37.1193 145.057 36.4288 144.963 35.7462C144.767 34.3496 143.906 33.463 142.646 33.0237C142.685 31.9801 143.186 31.7683 144.063 31.784C147.874 31.8311 151.694 31.8389 155.506 31.784C156.382 31.784 156.875 32.0037 156.954 33.0237C154.613 33.8004 154.433 35.7697 154.433 37.8646C154.433 51.1086 154.418 64.3526 154.41 77.5966V78.5852C154.394 80.5389 154.731 82.2964 156.86 82.9868C156.836 84.0068 156.39 84.2736 155.482 84.2579C151.639 84.1872 147.788 84.1716 143.945 84.1951C143.069 84.1951 142.576 83.9833 142.537 82.9319"></path>
<path fill="#FAFAFA" d="M44.3716 32.8667C44.4264 31.831 44.896 31.5878 45.7882 31.5956C49.6313 31.6584 53.4821 31.6662 57.3251 31.627C58.2174 31.627 58.7026 31.8545 58.7339 32.8981C56.6911 33.4944 56.2998 35.1656 56.2528 37.0486C56.245 37.4409 56.198 37.841 56.198 38.2333C56.1902 49.1392 56.1824 60.0373 56.198 70.9432C56.198 71.822 56.3154 72.7242 56.5267 73.5716C57.3799 76.9846 59.9314 78.2164 63.0544 77.9339C66.7095 77.6044 68.4001 75.5331 68.7602 71.2806C68.815 70.6607 68.8306 70.0331 68.8306 69.4054C68.8385 58.931 68.8385 48.4566 68.8463 37.9823V37.1898C68.8619 35.2911 68.4628 33.6356 66.4434 32.9295C66.4278 31.8938 66.9052 31.6113 67.8444 31.6349C71.6874 31.7133 75.5305 31.7447 79.3735 31.7212C80.2266 31.7212 80.6805 31.9566 80.7823 32.9295C78.5125 33.6591 78.2699 35.55 78.2777 37.637C78.3012 43.1998 78.2777 48.7705 78.2542 54.3333C78.2229 60.0922 78.2386 65.859 78.082 71.6101C77.8942 78.4753 73.0337 83.7871 66.193 84.7443C62.6161 85.2464 59.0627 85.1601 55.5875 84.0224C50.727 82.4375 47.9093 78.9932 47.1971 74.0502C46.7353 70.849 46.8762 67.5616 46.7588 64.3055C46.7353 63.6151 46.7744 62.9246 46.7744 62.2342C46.8057 54.0979 46.8371 45.9695 46.8605 37.8332C46.8605 37.1114 46.8214 36.3817 46.7197 35.6677C46.524 34.279 45.7491 33.3296 44.3794 32.8667"></path>
<path fill="#FAFAFA" d="M87.4587 69.782C88.891 71.6415 89.9946 73.5088 91.5052 74.9525C94.4559 77.777 98.072 78.7186 102.064 77.628C104.717 76.8983 106.455 74.0659 106.204 71.3119C105.946 68.5109 104.568 66.2984 102.525 64.5566C100.279 62.6422 97.8606 60.9317 95.4891 59.1585C92.7418 57.1029 90.0807 54.9923 88.3823 51.8932C83.8818 43.6784 88.0222 33.7297 96.9762 31.3446C100.021 30.5364 103.019 30.8503 105.969 31.8624C106.431 32.0193 106.893 32.2076 107.355 32.3567C108.865 32.8275 110.219 32.7098 111.159 31.274C112.121 31.3759 112.403 31.8702 112.387 32.7961C112.309 36.3817 112.301 39.9751 112.286 43.5607C112.286 44.0629 112.231 44.4238 111.659 44.5964C111.025 44.7847 110.955 44.3218 110.767 43.953C109.264 41.0736 107.214 38.8218 103.926 38.0215C102.471 37.6684 101.007 37.6449 99.5591 38.0999C96.8118 38.963 95.4186 41.513 96.1466 44.3218C96.6866 46.401 98.0094 47.9466 99.6373 49.2098C102.181 51.187 104.795 53.0622 107.37 55.0002C110.83 57.605 113.585 60.7277 114.892 64.9803C117.146 72.2849 114.07 80.2171 107.597 83.481C103.731 85.4347 99.6452 85.521 95.4891 84.6658C94.2759 84.4147 93.0941 83.9989 91.8809 83.7164C90.5268 83.3948 89.2197 83.3869 88.1162 84.4853C87.9283 84.6736 87.3961 84.6815 87.1065 84.5638C86.8717 84.4696 86.6134 84.0617 86.6134 83.7871C86.5899 79.5032 86.5899 75.2271 86.6682 70.9432C86.676 70.496 87.263 70.0644 87.4743 69.782"></path>
<path fill="#FAFAFA" d="M312.545 31.2505C313.499 31.3368 313.734 31.8311 313.726 32.7098C313.679 36.2641 313.679 39.8261 313.726 43.3803C313.734 44.212 313.484 44.6122 312.709 44.6122C311.903 43.4274 311.206 42.1878 310.298 41.1286C308.122 38.5865 305.352 37.4096 301.978 37.8882C298.339 38.4138 296.499 41.5679 297.791 45.0202C298.605 47.1857 300.256 48.6371 302.017 49.9788C304.843 52.1286 307.786 54.1215 310.525 56.3811C315.347 60.3512 317.53 65.5138 316.998 71.8063C316.435 78.4911 310.846 84.2265 304.232 84.9876C300.875 85.372 297.634 84.964 294.418 84.0225C293.549 83.7714 292.617 83.6067 291.725 83.6145C291.154 83.6145 290.434 83.8656 290.042 84.2579C289.424 84.8777 288.915 84.9091 288.211 84.3756C288.211 79.8955 288.187 75.3527 288.25 70.8099C288.25 70.4254 288.813 70.041 289.127 69.6487C290.081 71.1237 290.778 72.4811 291.733 73.6344C294.598 77.0867 298.276 78.5852 302.753 77.8399C306.487 77.22 308.561 73.5403 307.418 69.6408C306.667 67.0517 304.953 65.1608 302.91 63.568C300.476 61.6693 297.947 59.8883 295.466 58.0445C292.202 55.6122 289.643 52.67 288.532 48.6293C286.317 40.5636 291.435 32.3881 299.615 31.0622C302.174 30.6463 304.718 30.9366 307.175 31.784C307.637 31.9488 308.107 32.1057 308.569 32.2626C310.134 32.804 311.551 32.749 312.545 31.2426"></path>
<path fill="#FAFAFA" d="M231.99 33.0393C232.1 32.0193 232.538 31.7682 233.391 31.7761C237.273 31.831 241.147 31.831 245.03 31.7761C245.891 31.7761 246.321 32.0114 246.384 33C245.037 33.4786 244.161 34.4594 244.004 35.9815C243.926 36.7661 243.871 37.5585 243.871 38.3431C243.863 51.0301 243.871 63.7092 243.871 76.3883C243.871 76.7099 243.895 77.0316 243.918 77.471C246.329 77.471 248.685 77.4396 251.041 77.4867C252.528 77.5181 253.937 77.2513 255.197 76.5138C256.183 75.941 257.06 75.1878 258.03 74.4817C258.852 74.8818 258.977 75.4938 258.531 76.4746C257.459 78.797 256.512 81.1821 255.541 83.5516C255.361 83.991 255.173 84.2107 254.633 84.2107C247.566 84.1793 240.498 84.1636 233.43 84.2029C232.522 84.2029 232.076 83.9361 232.013 82.9475C232.201 82.8377 232.444 82.6964 232.687 82.5473C233.641 81.9746 234.268 81.1743 234.362 80.0288C234.424 79.2756 234.526 78.5224 234.526 77.7691C234.534 64.5565 234.526 51.3518 234.526 38.1391C234.526 37.7468 234.51 37.3467 234.487 36.9544C234.385 35.1812 233.939 33.612 231.982 33.0471"></path>
<path fill="#FAFAFA" d="M259.736 33.0393C259.862 32.0742 260.229 31.7604 261.114 31.7761C264.988 31.8388 268.87 31.831 272.752 31.7761C273.653 31.7761 274.106 32.0193 274.138 33.0393C271.993 33.6356 271.641 35.4087 271.641 37.2996C271.618 50.5044 271.633 63.717 271.633 76.9218C271.633 77.0552 271.649 77.1807 271.665 77.369C271.813 77.4004 271.962 77.471 272.111 77.471C274.474 77.471 276.846 77.5495 279.21 77.4553C281.62 77.3533 283.569 76.1686 285.174 74.4425C286.097 74.9054 286.285 75.4624 285.847 76.4197C284.782 78.7421 283.835 81.1272 282.849 83.4889C282.661 83.9361 282.489 84.2107 281.879 84.2107C275.007 84.1715 268.142 84.1636 261.27 84.195C260.386 84.195 259.783 84.0538 259.768 82.8926C261.059 82.3669 262.037 81.4176 262.163 79.8405C262.233 78.9539 262.288 78.0673 262.288 77.1807C262.296 64.3996 262.296 51.6264 262.288 38.8453C262.288 37.9273 262.241 37.0015 262.155 36.0914C262.006 34.5849 261.247 33.51 259.744 33.055"></path>
<path fill="#FAFAFA" d="M224.335 82.8848C224.257 83.897 223.842 84.2108 222.927 84.1951C219.084 84.1402 215.233 84.1402 211.39 84.1951C210.451 84.2108 209.981 83.9127 209.918 82.8927C212.11 82.1002 212.446 80.2643 212.446 78.2086C212.431 64.6429 212.446 51.0773 212.431 37.5116C212.431 35.5579 212.165 33.7063 209.856 33.0158C210.036 32.5529 210.184 32.1998 210.341 31.8075C214.732 31.8075 219.099 31.784 223.467 31.8468C223.811 31.8468 224.148 32.4117 224.703 32.906C221.901 33.7847 221.854 35.8404 221.862 37.9588C221.87 51.297 221.862 64.6273 221.862 77.9654V78.954C221.87 80.7664 222.387 82.2728 224.328 82.8927"></path>
<path fill="#FAFAFA" d="M325.146 35.8325C325.162 38.3197 323.44 40.0772 320.974 40.0929C318.501 40.1086 316.622 38.2569 316.654 35.8325C316.685 33.4081 318.493 31.6271 320.927 31.6271C323.361 31.6271 325.13 33.3532 325.138 35.8404M322.962 38.0922C323.267 37.4645 323.698 36.8603 323.839 36.1934C324.128 34.8125 323.134 33.2512 321.843 32.8354C320.458 32.396 318.986 33.0158 318.352 34.3183C317.64 35.7776 318.047 37.6136 319.252 38.4923C320.207 39.1906 322.234 39.2063 322.993 38.0686L322.962 38.0922Z"></path>
<path fill="#FAFAFA" d="M322.993 38.0608C321.373 38.6414 321.295 37.0016 320.371 36.0443C320.324 36.8917 320.301 37.4409 320.262 38.0608H319.26V33.6121C320.113 33.6121 320.966 33.5022 321.772 33.6592C322.179 33.7376 322.649 34.2398 322.806 34.6634C323.064 35.3696 322.649 35.9188 321.859 36.2483C322.234 36.8839 322.594 37.488 322.962 38.0921L322.993 38.0608ZM320.34 35.5736C320.911 35.3304 321.311 35.1656 321.702 35.0008C321.592 34.8282 321.514 34.5536 321.365 34.5065C321.06 34.4045 320.708 34.4202 320.34 34.3731V35.5736Z"></path>
<path fill="#FAFAFA" d="M0.72876 110.11V108.376C0.72876 104.351 2.29414 102.311 5.09617 102.311C7.8982 102.311 9.46358 104.351 9.46358 108.376V110.11C9.46358 114.135 7.8982 116.175 5.09617 116.175C2.29414 116.175 0.72876 114.135 0.72876 110.11ZM7.43641 110.11V108.376C7.43641 105.261 6.75547 104.014 5.09617 104.014C3.43687 104.014 2.74027 105.261 2.74027 108.376V110.11C2.74027 113.225 3.43687 114.473 5.09617 114.473C6.75547 114.473 7.43641 113.225 7.43641 110.11Z"></path>
<path fill="#FAFAFA" d="M13.5023 115.948V102.539H19.6621V104.202H15.4825V108.455H19.2316V110.134H15.4825V115.948H13.5023Z"></path>
<path fill="#FAFAFA" d="M23.6538 115.948V102.539H29.8136V104.202H25.6262V108.455H29.3753V110.134H25.6262V115.948H23.6538Z"></path>
<path fill="#FAFAFA" d="M35.895 102.539H33.9148V115.948H35.895V102.539Z"></path>
<path fill="#FAFAFA" d="M40.0746 110.11V108.376C40.0746 104.32 41.6791 102.311 44.3716 102.311C46.7431 102.311 48.2146 104.085 48.2928 107.333H46.3126C46.2578 105.01 45.5769 104.014 44.3324 104.014C42.8062 104.014 42.0861 105.277 42.0861 108.376V110.11C42.0861 113.186 42.8218 114.473 44.3637 114.473C45.6786 114.473 46.3205 113.28 46.3439 110.942H48.3241C48.2302 114.324 46.837 116.175 44.3872 116.175C41.6791 116.175 40.0746 114.214 40.0746 110.11Z"></path>
<path fill="#FAFAFA" d="M54.3117 102.539H52.3315V115.948H54.3117V102.539Z"></path>
<path fill="#FAFAFA" d="M64.8389 115.948L64.0875 112.527H60.7924L60.0176 115.948H58.0374L61.3873 102.539H63.5162L66.8896 115.948H64.8389ZM61.1681 110.848H63.7119L62.4282 105.167L61.1681 110.848Z"></path>
<path fill="#FAFAFA" d="M70.5134 115.948V102.539H72.4858V114.245H75.9375V115.948H70.5134Z"></path>
<path fill="#FAFAFA" d="M86.9499 115.948L84.6332 102.539H86.6525L88.1161 112.566L89.7754 102.539H91.7948L93.3915 112.629L94.8629 102.539H96.7805L94.4481 115.948H92.3035L90.7382 105.96L89.1571 115.948H86.9499Z"></path>
<path fill="#FAFAFA" d="M100.436 115.948V102.539H102.416V108.204H106.126V102.539H108.106V115.948H106.126V109.891H102.416V115.948H100.436Z"></path>
<path fill="#FAFAFA" d="M114.618 102.539H112.638V115.948H114.618V102.539Z"></path>
<path fill="#FAFAFA" d="M118.704 111.852H120.621C120.731 113.814 121.435 114.535 122.547 114.535C123.509 114.535 124.143 113.971 124.143 112.519V112.276C124.143 111.068 123.729 110.518 121.96 109.953C119.737 109.216 119.001 108.157 119.001 106.219V106.03C119.001 103.763 120.394 102.327 122.429 102.327C124.464 102.327 125.803 103.559 125.967 106.274H124.026C123.932 104.65 123.384 103.951 122.445 103.951C121.56 103.951 120.934 104.555 120.934 105.897V106.148C120.934 107.356 121.271 107.772 122.969 108.321C125.114 109.004 126.116 110.055 126.116 112.15V112.339C126.116 114.685 124.668 116.191 122.5 116.191C120.206 116.191 118.79 114.739 118.696 111.868"></path>
<path fill="#FAFAFA" d="M130.139 115.948V102.539H132.111V107.976L135.469 102.539H137.613L134.146 107.976L137.786 115.948H135.641L132.87 109.734L132.111 110.926V115.948H130.139Z"></path>
<path fill="#FAFAFA" d="M141.433 115.948V102.539H147.874V104.202H143.413V108.282H147.483V109.922H143.413V114.245H147.968V115.948H141.433Z"></path>
<path fill="#FAFAFA" d="M154.355 115.948V111.609L151.326 102.539H153.416L155.357 109.13L157.274 102.539H159.309L156.312 111.625V115.948H154.355Z"></path>
<path fill="#FAFAFA" d="M168.107 110.11V108.376C168.107 104.351 169.672 102.311 172.474 102.311C175.276 102.311 176.842 104.351 176.842 108.376V110.11C176.842 114.135 175.276 116.175 172.474 116.175C169.672 116.175 168.107 114.135 168.107 110.11ZM174.807 110.11V108.376C174.807 105.261 174.126 104.014 172.467 104.014C170.807 104.014 170.111 105.261 170.111 108.376V110.11C170.111 113.225 170.807 114.473 172.467 114.473C174.126 114.473 174.807 113.225 174.807 110.11Z"></path>
<path fill="#FAFAFA" d="M180.873 115.948V102.539H187.032V104.202H182.853V108.455H186.602V110.134H182.853V115.948H180.873Z"></path>
<path fill="#FAFAFA" d="M198.499 115.948V104.226H196.018V102.539H202.944V104.226H200.463V115.948H198.499Z"></path>
<path fill="#FAFAFA" d="M206.866 115.948V102.539H208.838V108.204H212.548V102.539H214.528V115.948H212.548V109.891H208.838V115.948H206.866Z"></path>
<path fill="#FAFAFA" d="M218.95 115.948V102.539H225.392V104.202H220.931V108.282H225.001V109.922H220.931V114.245H225.494V115.948H218.95Z"></path>
<path fill="#FAFAFA" d="M235.168 115.948V102.539H238.745C240.74 102.539 242.228 103.92 242.228 106.47V106.791C242.228 109.357 240.74 110.722 238.745 110.722H237.124V115.956H235.168V115.948ZM237.124 109.035H238.666C239.551 109.035 240.208 108.337 240.208 106.791V106.47C240.208 104.924 239.551 104.218 238.666 104.218H237.124V109.035Z"></path>
<path fill="#FAFAFA" d="M245.812 110.11V108.376C245.812 104.32 247.432 102.311 250.141 102.311C252.496 102.311 253.944 104.108 254.038 107.239H252.058C252.003 105.065 251.322 104.014 250.101 104.014C248.56 104.014 247.824 105.277 247.824 108.376V110.11C247.824 113.186 248.56 114.473 250.156 114.473C251.98 114.473 252.418 113.037 252.418 110.887V110.565H250.062V108.902H254.109V115.948H252.676L252.543 114.512C252.113 115.422 251.26 116.175 249.734 116.175C247.511 116.175 245.797 114.214 245.797 110.11"></path>
<path fill="#FAFAFA" d="M264.401 115.948L263.65 112.527H260.355L259.58 115.948H257.6L260.95 102.539H263.078L266.452 115.948H264.401ZM260.723 110.848H263.266L261.983 105.167L260.723 110.848Z"></path>
<path fill="#FAFAFA" d="M277.543 115.948V104.226H275.054V102.539H281.988V104.226H279.499V115.948H277.543Z"></path>
<path fill="#FAFAFA" d="M285.002 110.11V108.376C285.002 104.351 286.567 102.311 289.369 102.311C292.171 102.311 293.744 104.351 293.744 108.376V110.11C293.744 114.135 292.179 116.175 289.369 116.175C286.559 116.175 285.002 114.135 285.002 110.11ZM291.709 110.11V108.376C291.709 105.261 291.036 104.014 289.369 104.014C287.702 104.014 287.013 105.261 287.013 108.376V110.11C287.013 113.225 287.71 114.473 289.369 114.473C291.028 114.473 291.709 113.225 291.709 110.11Z"></path>
<path fill="#FAFAFA" d="M297.712 112.174V102.547H299.669V112.119C299.669 113.437 300.045 114.465 301.461 114.465C302.776 114.465 303.27 113.555 303.27 112.103V102.547H305.226V112.158C305.226 114.59 303.927 116.183 301.461 116.183C298.996 116.183 297.712 114.614 297.712 112.182"></path>
<path fill="#FAFAFA" d="M309.617 115.948V102.539H313.343C315.323 102.539 316.787 103.92 316.787 106.47V106.791C316.787 108.753 315.941 110.016 314.642 110.471L316.92 115.948H314.806L312.638 110.714H311.566V115.948H309.609H309.617ZM311.574 109.035H313.139C314.086 109.035 314.799 108.321 314.799 106.791V106.47C314.799 104.924 314.118 104.218 313.139 104.218H311.574V109.035Z"></path>
<path fill="#003A78" d="M399.47 117.752C399.47 126.391 406.452 133.389 415.069 133.389H474.953C483.57 133.389 490.552 126.391 490.552 117.752V23.6006C490.552 14.9622 483.57 7.96357 474.953 8.18326H415.069C406.452 7.96357 399.47 14.97 399.47 23.6006V117.752Z"></path>
<path fill="white" d="M415.069 11.5334H474.953C481.598 11.5334 486.99 16.9393 486.99 23.6006V117.752C486.99 124.413 481.598 129.819 474.953 129.819H415.069C408.424 129.819 403.031 124.413 403.031 117.752V23.6006C403.031 16.9393 408.424 11.5334 415.069 11.5334Z"></path>
<path fill="#003A78" d="M414.999 13.3695H474.882C480.517 13.3695 485.088 17.9516 485.088 23.6007V117.752C485.088 123.401 480.517 127.983 474.882 127.983H414.991C409.355 127.983 404.784 123.401 404.784 117.752V23.6007C404.784 17.9516 409.355 13.3695 414.991 13.3695H414.999Z"></path>
<path fill="#003A78" d="M493.807 129.866C494.332 129.866 495.099 129.953 495.099 129.2C495.099 128.619 494.629 128.556 494.175 128.556H493.119V129.866H493.807ZM495.537 131.922H494.997L493.94 130.22H493.111V131.922H492.657V128.227H494.269C495.248 128.227 495.576 128.595 495.576 129.2C495.576 129.929 495.068 130.196 494.418 130.22L495.537 131.922ZM496.664 130.07C496.664 128.462 495.498 127.207 493.894 127.207C492.289 127.207 491.107 128.462 491.107 130.07C491.107 131.679 492.281 132.958 493.894 132.958C495.506 132.958 496.664 131.702 496.664 130.07ZM490.583 130.07C490.583 128.25 492.062 126.767 493.894 126.767C495.725 126.767 497.189 128.25 497.189 130.07C497.189 131.891 495.717 133.389 493.894 133.389C492.07 133.389 490.583 131.906 490.583 130.07Z"></path>
<path fill="white" d="M414.748 36.3268C414.748 36.7034 414.521 36.931 414.114 36.931H413.12V38.2648H419.546V36.931H418.45C418.043 36.931 417.816 36.7034 417.816 36.3268V33.9417H419.609C422.606 33.9417 424.195 33.1571 424.195 31.0857C424.195 29.0144 422.614 28.2455 419.937 28.2455H413.104V29.5793H414.114C414.521 29.5793 414.748 29.8068 414.748 30.1834V36.3347V36.3268ZM417.816 29.5636H419.476C420.391 29.5636 421.127 30.1521 421.127 31.0936C421.127 32.0351 420.36 32.6078 419.217 32.6078H417.816V29.5715V29.5636Z"></path>
<path fill="white" d="M437.18 34.2946H436.429C436.022 34.2946 435.795 34.5222 435.795 34.8988V38.3745H434.378L434.018 37.637C433.071 38.3196 431.866 38.555 430.801 38.555C427.404 38.555 425.025 36.774 425.025 33.3845C425.025 29.995 427.326 27.9237 430.801 27.9237C431.748 27.9237 432.922 28.214 433.736 28.9437L434.065 28.0963H435.536V31.627H434.026C433.979 30.1284 433.008 29.336 431.365 29.336C429.471 29.336 428.578 30.6384 428.578 33.2511C428.578 35.8638 429.471 37.1192 431.365 37.1192C431.983 37.1192 432.734 36.8917 432.734 36.1777V34.8909C432.734 34.5143 432.507 34.2868 432.1 34.2868H431.255V32.953H437.196V34.2868H437.18V34.2946Z"></path>
<path fill="white" d="M441.493 34.2398L442.988 30.8739L444.357 34.2398H441.485H441.493ZM449.617 37.1114C448.521 36.9309 448.49 36.6877 448.075 35.7776L444.858 28.3396H442.401L439.325 35.2127C438.847 36.217 438.55 37.0016 437.149 37.1271V38.2883H442.048V37.1271L441.884 37.1114C441.5 37.0565 440.632 37.0565 440.632 36.5622C440.632 36.3817 440.741 36.0914 440.819 35.911L441.007 35.4402H444.882L445.101 35.911C445.163 36.1071 445.32 36.4759 445.32 36.6799C445.32 37.1192 444.342 37.0879 444.005 37.1349V38.2961H449.781V37.1349L449.609 37.1192H449.617V37.1114Z"></path>
<path fill="white" d="M462.594 61.0102C462.508 60.7199 461.952 59.2841 461.694 58.523C461.663 58.421 466.234 55.4238 466.234 55.4238C466.234 55.4238 466.296 55.667 466.327 55.9652C466.327 55.9652 463.244 60.5865 462.594 61.0102ZM477.755 42.3132C479.304 40.7362 479.336 36.9544 479.336 36.9544C477.778 34.1142 474.514 33.259 474.514 33.259C473.786 32.7411 473.199 33.2197 472.965 33.4786H472.949L446.745 17.4493C444.835 16.4607 442.197 19.8423 441.54 21.0899C441.274 21.5371 442.127 22.204 442.706 22.5649C445.085 24.1262 446.22 20.1248 447.097 18.7047L472.44 34.734C472.385 34.7497 472.526 36.06 472.589 36.1149C472.573 38.2019 474.24 39.928 473.254 42.9487C472.988 47.1777 468.417 48.0251 465.928 50.6535C463.635 52.9053 459.127 52.615 457.233 54.4666L457.186 54.5137L457.17 54.4352C455.542 50.1592 454.571 49.9238 454.07 48.1977C452.075 47.4445 449.719 47.264 447.809 48.2918C445.977 49.4923 445.062 51.7598 445.367 53.7683C445.406 55.8161 448.294 58.0365 449.805 58.931C448.834 60.3433 448.365 62.0615 448.349 62.7755C448.106 65.8041 450.509 68.7149 451.175 69.9153C454.008 74.1286 455.612 77.4789 456.239 78.6636C456.34 78.8912 456.489 79.0794 456.348 79.3854C456.309 79.4717 453.898 83.7007 457.882 89.7735C459.502 92.8962 461.835 99.8713 461.858 99.9105C462.782 100.899 460.598 100.287 460.379 102.57C458.814 103.182 446.972 112.276 444.303 114.677C443.238 114.99 441.861 114.943 441.414 116.277C441.344 116.379 440.937 117.564 440.679 117.846C439.536 119.165 438.205 121.503 437.963 123.794C437.704 124.971 437.994 127.254 439.364 127.858C439.982 128.132 440.24 127.936 440.405 127.858C440.585 127.772 441.352 125.677 441.454 125.441C442.401 123.142 443.778 122.53 446.971 119.345C448.568 119.784 449.265 120.734 450.908 121.134C455.346 116.999 459.823 113.209 464.183 108.965C463.518 115.532 462.891 122.279 462.915 124.084C462.633 125.237 462.602 127.207 463.408 128.18C463.408 128.18 470.663 128.603 472.065 128.501C472.761 128.446 472.8 128.03 472.8 128.03C472.8 128.03 473.45 127.05 471.689 125.739C471.18 125.363 469.959 123.841 469.004 123.213C470.257 122.931 471.571 122.719 471.869 122.719C471.532 119.267 471.462 111.805 471.211 102.045C470.131 91.9312 470.045 88.5338 465.02 67.8126C468.574 63.7641 468.441 61.2456 471.853 57.0637C473.693 53.4702 476.534 46.1656 477.755 42.2975"></path>
<path fill="white" d="M423.295 107.772V105.426H425.51C426.136 105.426 426.598 105.905 426.598 106.564C426.598 107.309 426.034 107.772 425.526 107.772H423.295ZM423.655 115.657C423.279 115.657 423.264 115.312 423.264 115.312V113.147H424.68C425.119 113.147 425.338 113.21 425.338 113.704C425.338 113.837 425.346 114.739 425.346 114.739C425.346 115.022 425.322 115.367 425.346 115.657H423.655ZM426.308 71.3042C426.308 74.7015 425.565 76.4276 424.101 76.4276C423.381 76.4276 421.886 76.4276 421.886 71.3042C421.886 66.1807 423.436 66.1807 424.101 66.1807C425.033 66.1807 426.308 66.1807 426.308 71.3042ZM423.632 86.2193H426.927C426.927 86.2193 427.209 86.2272 427.209 86.4783V95.0696C427.209 95.6816 426.676 96.1837 425.33 96.1837C423.984 96.1837 423.303 95.6894 423.303 95.0775V86.494C423.303 86.2664 423.639 86.2272 423.639 86.2272M434.026 115.697C433.877 115.697 433.282 115.642 433.29 114.983V114.292C433.29 113.233 433.22 112.119 432.703 111.13C432.586 110.887 432.437 110.683 432.288 110.487C432.343 110.448 432.406 110.416 432.46 110.377L432.492 110.354L432.523 110.33C433.681 109.334 434.268 108.015 434.268 106.391C434.268 105.285 433.994 104.14 433.494 103.167L433.47 103.127L433.447 103.088C432.726 101.88 431.678 101.08 430.292 100.656C432.186 99.534 433.149 97.6274 433.149 94.9362V86.2351H435.419L435.388 80.5389H430.058C433.149 78.8128 434.926 75.5959 434.926 71.3199C434.926 66.628 432.914 63.7328 430.167 62.1714H432.226V56.8754H428.226V47.3975C429.118 47.4367 429.729 48.3468 429.784 49.767L429.854 51.5166L435.364 51.5323V41.6699H412.995V51.5323L418.505 51.5166L418.568 49.7591C418.622 48.3468 419.241 47.4367 420.125 47.3975V56.8754H416.126V62.1714H417.84C415.092 63.7328 413.081 66.628 413.081 71.3199C413.081 75.5959 414.858 78.8049 417.949 80.5389H413.12V86.2272H415.398V95.4855C415.398 97.2351 416.204 99.0475 418.168 100.287H413.058L413.042 105.889C413.042 105.889 414.732 105.905 415.218 105.897C415.218 105.96 415.601 105.897 415.546 106.297C415.539 107.874 415.539 113.516 415.539 115.265C415.539 115.736 415.202 115.595 415.202 115.681C414.74 115.673 413.05 115.681 413.05 115.681V121.236H426.629V119.604C427.678 120.765 429.197 121.361 431.161 121.361H435.826V115.728L434.026 115.712V115.697Z"></path>
<path fill="#E73037" d="M433.525 43.1371H414.458V50.0337H417.073L417.088 49.6963C417.19 47.0679 418.716 45.891 420.188 45.891C421.143 45.891 421.612 46.0872 421.612 46.4873V57.1421C421.612 57.7149 421.237 58.3504 420.704 58.3504H417.613V60.6807H430.746V58.3504H427.655C427.122 58.3504 426.747 57.7149 426.747 57.1421V46.4873C426.747 46.0872 427.209 45.891 428.163 45.891C429.635 45.891 431.161 47.0679 431.263 49.6963L431.278 50.0258H433.885V43.1371H433.525Z"></path>
<path fill="#E73037" d="M433.9 82.006H426.066V84.7286H427.529C428.022 84.7286 428.343 84.8149 428.516 84.9796C428.688 85.1601 428.696 85.4268 428.688 85.8584V95.5482C428.625 96.0032 428.203 97.643 425.33 97.643C423.131 97.643 421.824 96.7957 421.824 95.3834V85.9212C421.824 84.8227 422.332 84.7364 422.81 84.7364H424.563V82.006H414.599V84.7286H415.726C416.22 84.7286 416.54 84.8149 416.705 84.9796C416.893 85.1758 416.885 85.5053 416.877 85.8505V95.4619C416.877 97.8235 418.975 100.35 424.876 100.35C430.778 100.35 431.662 97.4469 431.662 94.9126V85.9133C431.662 84.8149 432.171 84.7286 432.648 84.7286H433.924L433.908 81.9982H433.9V82.006Z"></path>
<path fill="#E73037" d="M424.093 77.9105C422.512 77.9105 420.407 77.3534 420.407 71.3042C420.407 66.7692 421.612 64.6979 424.093 64.6979C426.715 64.6979 427.78 66.5103 427.78 71.3042C427.78 75.7136 426.504 77.9105 424.093 77.9105ZM423.992 62.1244C419.429 62.1244 414.552 64.4311 414.552 71.3042C414.552 77.1337 418.082 80.4761 423.992 80.4761C429.901 80.4761 433.431 77.1337 433.431 71.3042C433.431 64.4311 428.555 62.1244 423.992 62.1244Z"></path>
<path fill="#E73037" d="M421.816 103.959C422.364 103.959 424.25 103.967 425.612 103.967C426.848 103.967 427.717 104.508 427.976 105.458C428.124 106.046 428.14 106.98 427.874 107.709C427.514 108.706 426.715 109.208 425.596 109.208H421.816V103.951V103.959ZM434.073 117.101C433.407 117.101 431.889 117.054 431.889 114.975V114.277C431.889 113.461 431.858 112.527 431.459 111.774C431.083 110.958 430.136 110.487 429.619 110.252C430.277 110.04 431.028 109.655 431.631 109.192C432.429 108.51 432.852 107.6 432.852 106.376C432.852 105.505 432.633 104.595 432.241 103.826C431.396 102.406 429.956 101.754 427.702 101.754L414.592 101.731V104.398C414.592 104.398 415.539 104.391 416.282 104.391C417.026 104.391 417.104 105.128 417.104 105.128C417.104 105.128 417.127 113.453 417.127 116.152C417.127 116.591 416.72 117.054 416.321 117.054H414.576V119.722H425.432V117.054H422.732C422.34 117.054 421.886 116.528 421.886 116.089V111.672H425.103C425.463 111.672 426.856 111.852 426.825 113.515L426.794 114.661C426.809 115.673 426.708 116.481 427.146 117.619C427.874 119.125 429.204 119.847 431.216 119.847H434.409V117.085H434.057L434.073 117.101Z"></path>
<path stroke-linecap="round" stroke-miterlimit="10" stroke-width="1.7" stroke="#FAFAFA" d="M358.856 133.044V8.52063"></path>
</g>
</svg>
