<svg xmlns="http://www.w3.org/2000/svg" fill="none" viewBox="0 0 392 116" height="116" width="392">
<path fill="black" d="M360.095 113.57H352.257C352.165 113.459 352.055 113.349 351.963 113.22C352.183 113.146 352.441 113.109 352.625 112.98C353.692 112.205 354.097 111.062 354.263 109.808C354.299 109.605 354.281 109.421 354.281 109.218C354.342 106.231 353.619 103.446 352.11 100.864C350.509 98.1348 348.908 95.4055 347.344 92.6393C346.369 90.8873 345.192 89.3198 343.646 88.0289C343.462 87.8814 343.205 87.8261 343.002 87.7339C343.094 87.6232 343.168 87.5126 343.26 87.4019H350.969C350.896 87.5863 350.896 87.7892 350.785 87.8998C349.902 88.8772 349.994 90.0021 350.564 90.998C352.349 94.2068 354.226 97.3787 356.139 100.698C356.379 100.329 356.544 100.09 356.691 99.8314C358.182 97.2127 359.654 94.594 361.126 91.9754C361.365 91.5697 361.549 91.1271 361.751 90.6845C362.193 89.7071 362.248 88.7666 361.402 87.9552C361.273 87.8261 361.218 87.6417 361.07 87.3651H368.761C368.504 87.697 368.357 87.9367 368.136 88.1396C365.836 90.3894 364.272 93.1372 362.745 95.9218C361.291 98.5589 359.801 101.178 358.329 103.796C358.219 103.999 358.016 104.22 358.016 104.423C357.961 106.821 357.409 109.255 358.55 111.542C358.899 112.224 359.488 112.777 360.077 113.533L360.095 113.57Z"></path>
<path fill="black" d="M293.968 99.2228C292.275 100.846 290.619 102.432 289 104.054C288.816 104.239 288.706 104.608 288.706 104.903C288.687 106.452 288.669 108.001 288.706 109.55C288.724 110.656 289.092 111.652 289.828 112.501C290.086 112.796 290.306 113.109 290.638 113.552H283.223C283.223 113.552 283.167 113.386 283.204 113.367C284.584 112.187 285.026 110.638 285.026 108.904C285.026 103.464 285.026 98.0425 285.026 92.6024C285.026 90.6476 284.547 88.9325 282.818 87.4388H290.601C290.325 87.8076 290.067 88.0474 289.92 88.3424C289.497 89.2276 288.853 90.1128 288.816 91.0164C288.669 93.801 288.761 96.6226 288.761 99.6469C289.497 98.9093 290.141 98.2823 290.748 97.6553C293.085 95.2395 295.421 92.8052 297.758 90.3894C298.629 89.4919 298.776 88.5145 298.2 87.4572H306.277C302.321 89.7071 299.727 93.3953 296.415 96.4013C297.353 97.9503 298.237 99.4441 299.138 100.919C300.555 103.261 301.972 105.585 303.37 107.946C304.584 109.993 305.909 111.966 307.823 113.552H299.782C301.125 111.837 301.162 111.265 300.021 109.329C298.145 106.157 296.249 103.003 294.354 99.8498C294.226 99.6285 294.06 99.4072 293.95 99.2597L293.968 99.2228Z"></path>
<path fill="black" d="M320.757 101.675C320.757 104.202 320.721 106.526 320.757 108.868C320.776 110.011 321.144 110.398 322.266 110.398C324.879 110.398 327.492 110.361 330.104 110.269C332.018 110.195 333.361 109.218 334.134 107.429C334.263 107.134 334.631 106.968 334.888 106.728C335.054 107.042 335.348 107.355 335.367 107.669C335.422 109.458 335.367 111.247 335.403 113.017C335.403 113.791 335.035 113.939 334.355 113.847C333.379 113.736 332.386 113.625 331.411 113.625C326.461 113.607 321.512 113.625 316.562 113.625H315.09C315.33 113.312 315.44 113.109 315.587 112.962C316.47 112.132 316.93 111.117 317.004 109.919C317.059 109.052 317.096 108.185 317.096 107.3C317.096 102.579 317.096 97.8581 317.096 93.1372C317.096 91.2377 317.059 89.3936 315.606 87.9367C315.514 87.8445 315.477 87.6601 315.33 87.3097H316.673C321.659 87.3097 326.645 87.3097 331.631 87.3097C332.717 87.3097 333.711 87.2359 334.318 85.8528C334.428 86.277 334.502 86.4245 334.52 86.5905C334.52 88.7297 334.539 90.8689 334.52 93.0081C334.52 93.3216 334.226 93.6351 334.079 93.9486C333.821 93.7642 333.471 93.6351 333.324 93.3769C332.202 91.3115 330.472 90.4079 328.154 90.4632C326.332 90.5001 324.511 90.4632 322.689 90.4632C321.181 90.4632 320.757 90.8873 320.739 92.3442C320.721 94.2068 320.739 96.0693 320.739 98.061C323.26 98.3376 325.744 98.522 328.191 98.0057C328.835 97.8766 329.387 97.1758 329.883 96.6594C330.233 96.3091 330.435 95.7927 330.859 95.387V104.442C330.527 103.944 330.27 103.612 330.086 103.243C329.552 102.247 328.688 101.675 327.62 101.639C325.376 101.565 323.131 101.62 320.757 101.62V101.675Z"></path>
<path fill="black" d="M272.385 86.3876C272.385 89.0801 272.385 91.4959 272.367 93.9117C272.367 94.1514 272.146 94.5387 271.925 94.594C271.741 94.6494 271.373 94.4281 271.208 94.2436C270.637 93.5429 270.196 92.713 269.57 92.086C267.601 90.0759 265.191 89.6702 262.56 90.371C261.364 90.6845 260.444 91.4037 260.094 92.6946C259.726 94.0408 260.058 95.2026 261.253 95.8849C262.339 96.4935 263.553 96.9361 264.713 97.3971C266.461 98.1163 268.282 98.6696 269.975 99.5179C270.895 99.9789 271.76 100.735 272.348 101.583C275.568 106.267 272.808 112.759 267.252 113.773C264.713 114.234 262.229 114.013 259.745 113.367C257.666 112.832 257.666 112.888 256.47 114.658C256.414 114.75 256.322 114.824 256.138 115.027V105.29C256.138 105.29 256.249 105.235 256.304 105.216C256.838 105.972 257.39 106.728 257.905 107.503C259.91 110.454 263.222 111.634 266.645 110.601C269.662 109.697 270.38 107.023 269.754 104.571C269.496 103.538 268.779 102.819 267.84 102.413C266.35 101.786 264.823 101.251 263.314 100.68C262.247 100.274 261.143 99.9236 260.113 99.4441C257.794 98.3929 256.433 96.641 256.359 94.0224C256.286 91.3115 257.482 89.2829 259.818 87.992C261.879 86.8671 264.105 86.7011 266.387 87.0331C267.325 87.1622 268.245 87.4019 269.165 87.6416C270.177 87.9183 271.042 87.8076 271.704 86.9224C271.815 86.7749 271.98 86.6827 272.348 86.3692L272.385 86.3876Z"></path>
<path fill="black" d="M239.009 87.4019H246.46C244.381 89.3567 244.473 91.6987 244.492 94.0408C244.528 98.6327 244.547 103.243 244.492 107.835C244.473 109.919 244.547 111.892 246.534 113.515H239.045C239.156 113.312 239.211 113.109 239.358 112.962C240.481 111.763 240.867 110.343 240.848 108.72C240.812 103.888 240.848 99.0568 240.848 94.2252C240.848 91.6926 240.247 89.4182 239.045 87.4019H239.009Z"></path>
<path fill="black" d="M229.367 113.552H221.364C223.59 111.744 223.535 109.421 223.535 107.116C223.535 105.382 223.535 103.649 223.535 101.768H212.219C212.182 102.063 212.109 102.358 212.109 102.653C212.109 104.349 212.164 106.065 212.164 107.761C212.145 109.974 212.127 112.187 214.685 113.386C214.593 113.441 214.519 113.496 214.427 113.552H206.791C206.791 113.552 206.736 113.367 206.754 113.349C208.208 112.003 208.539 110.269 208.521 108.37C208.484 103.261 208.466 98.1348 208.521 93.0265C208.539 90.9242 208.245 88.9879 206.294 87.4204H213.93C211.041 90.6476 212.569 94.4649 212.035 98.1901H223.645C223.553 95.4976 223.59 92.879 223.296 90.2972C223.185 89.3198 222.357 88.4346 221.805 87.4019H228.76C228.76 87.4019 228.815 87.5495 228.797 87.5679C227.141 89.3936 227.031 91.6065 227.067 93.9117C227.123 98.5036 227.104 103.095 227.067 107.706C227.049 109.956 227.454 111.984 229.515 113.33C229.478 113.404 229.441 113.478 229.404 113.533L229.367 113.552Z"></path>
<path fill="black" d="M178.751 87.4019H183.718C183.884 88.6559 183.958 89.8546 184.234 90.9979C185.485 96.5857 186.791 102.173 188.134 107.982C188.3 107.577 188.41 107.319 188.484 107.06C189.753 102.081 191.023 97.102 192.293 92.1044C192.734 90.3894 192.992 88.7112 191.041 87.5125C191.115 87.4757 191.207 87.4203 191.281 87.3835H198.217C198.217 87.3835 198.291 87.5679 198.254 87.6048C196.451 89.5595 195.604 91.9569 194.96 94.4834C193.599 99.8867 192.109 105.272 190.729 110.675C190.508 111.56 190.508 112.482 190.397 113.533H185.706C185.595 112.574 185.577 111.634 185.374 110.749C184.031 104.94 182.633 99.1306 181.216 93.174C181.051 93.4506 180.903 93.5982 180.867 93.7826C179.56 99.4994 178.254 105.198 177.003 110.915C176.819 111.726 176.874 112.593 176.819 113.552H171.612C172.2 112.501 171.851 111.505 171.575 110.49C170.066 104.958 168.576 99.4072 167.067 93.8748C166.441 91.5696 165.742 89.3013 163.773 87.4388H171.078C169.164 89.9099 170.342 92.3626 170.931 94.7784C171.98 99.0752 173.157 103.354 174.316 107.761C174.464 107.558 174.592 107.448 174.629 107.3C175.935 101.602 177.242 95.8849 178.511 90.1681C178.695 89.3014 178.659 88.3977 178.732 87.4203L178.751 87.4019Z"></path>
<path fill="black" d="M122.503 87.4388C122.264 87.7892 121.97 88.0842 121.841 88.4346C121.455 89.3751 120.884 90.3156 120.829 91.293C120.682 93.5429 120.774 95.7927 120.774 98.2085H132.126C132.126 95.7374 132.218 93.4138 132.071 91.0717C132.016 90.2234 131.446 89.3936 131.059 88.5822C130.875 88.1949 130.599 87.8629 130.286 87.4019H137.444C137.37 87.5679 137.352 87.7339 137.278 87.8261C135.972 89.3198 135.659 91.0717 135.677 93.0081C135.751 97.8028 135.696 102.598 135.696 107.392C135.696 110.712 135.861 111.117 138.161 113.515H130.36C130.36 113.515 130.305 113.349 130.36 113.33C131.887 111.874 132.255 110.029 132.2 108.019C132.145 105.972 132.2 103.925 132.2 101.749H120.939C120.939 104.645 120.903 107.392 120.939 110.158C120.958 111.652 122.025 112.537 123.331 113.515H115.401C115.475 113.367 115.512 113.164 115.622 113.072C116.855 111.929 117.186 110.435 117.186 108.849C117.186 103.261 117.186 97.6737 117.186 92.086C117.186 90.2972 116.579 88.7481 114.996 87.4388H122.54H122.503Z"></path>
<path fill="black" d="M88.3173 105.032C88.906 105.88 89.4212 106.526 89.8444 107.208C91.8316 110.417 94.7387 111.376 98.3266 110.73C100.534 110.324 101.804 108.923 102.08 106.599C102.338 104.442 101.546 103.04 99.3937 102.118C97.9402 101.51 96.413 101.067 94.9411 100.514C94.0211 100.182 93.0827 99.8313 92.1811 99.4256C89.918 98.4114 88.6485 96.6594 88.5197 94.1699C88.3909 91.7356 89.3292 89.7439 91.3716 88.3793C93.9475 86.6642 96.7994 86.6458 99.7249 87.2359C99.9641 87.2913 100.185 87.3466 100.406 87.4019C101.878 87.8629 103.294 88.1396 104.398 86.2585C104.49 86.8118 104.546 87.0515 104.546 87.2913C104.546 89.3567 104.546 91.4221 104.546 93.4691C104.546 93.9117 104.73 94.5571 104.049 94.594C103.754 94.594 103.368 94.2067 103.166 93.8932C101.234 90.7767 98.5289 89.5042 95.1434 90.2419C94.4443 90.3894 93.7451 90.7767 93.1563 91.2193C91.9052 92.1413 91.4452 94.926 93.5243 95.9402C95.0515 96.6779 96.6522 97.2311 98.2346 97.8581C99.2649 98.2638 100.314 98.6142 101.326 99.0568C104.564 100.458 106.165 103.391 105.686 106.931C105.098 111.283 102.448 113.644 97.8298 113.976C95.7874 114.123 93.8187 113.847 91.85 113.33C89.8076 112.796 89.8076 112.832 88.6669 114.566C88.6117 114.658 88.5197 114.75 88.3173 114.953V104.995V105.032Z"></path>
<path fill="black" d="M78.3263 113.589H71.2057C71.2425 113.423 71.2425 113.293 71.2977 113.22C72.7513 111.708 73.0457 109.863 73.0273 107.853C72.9537 102.929 72.9905 98.0241 73.0273 93.1003C73.0273 91.0164 72.8065 89.0616 70.8929 87.4388H78.5471C76.4312 89.4673 76.6152 91.9569 76.6152 94.4096C76.6152 98.7249 76.6336 103.059 76.6152 107.374C76.6152 109.568 76.4864 111.781 78.5471 113.367C78.4735 113.441 78.3999 113.515 78.3263 113.57V113.589Z"></path>
<path fill="black" d="M39.9083 87.4572C41.4907 87.4572 42.981 87.4572 44.4714 87.4572C46.9921 87.4204 49.5312 87.2913 52.052 87.3466C53.4503 87.3835 54.9039 87.5863 56.247 87.9552C59.0069 88.7297 60.5709 90.6476 60.8285 93.5244C61.0677 96.3828 60.1845 98.7618 57.6454 100.329C57.3694 100.495 57.0934 100.624 56.6518 100.883C59.4669 102.487 59.5405 105.272 59.9453 107.927C60.0557 108.591 60.1845 109.255 60.2949 109.919C60.5525 111.302 61.2333 112.482 62.5212 113.57C60.8285 113.57 59.4669 113.607 58.1054 113.57C57.2406 113.552 56.8542 112.888 56.6886 112.169C56.4494 111.044 56.339 109.9 56.1918 108.775C56.0814 107.909 56.0446 107.042 55.9342 106.175C55.695 104.349 54.7015 103.095 52.9351 102.579C50.58 101.897 48.1697 102.118 45.7593 102.302C45.7593 105.087 45.6121 107.798 45.8329 110.454C45.9249 111.486 46.8081 112.464 47.3601 113.496H40.4787C40.4787 113.496 40.4051 113.367 40.4419 113.33C41.8587 111.726 42.0243 109.808 41.9875 107.761C41.9139 102.8 41.9139 97.8581 41.9875 92.8974C42.0059 90.998 41.7667 89.2645 40.2579 87.9367C40.1107 87.8076 40.0371 87.6232 39.9083 87.4388V87.4572ZM45.6673 98.7802C48.4089 99.1306 51.0032 99.0568 53.5791 98.5773C54.1127 98.4851 54.6463 98.2639 55.1431 98.0241C56.7254 97.2311 57.3326 95.9218 57.167 93.8379C57.0566 92.418 56.1918 91.4037 54.5727 90.9611C52.0519 90.2603 49.476 90.4263 46.9185 90.7582C46.1273 90.8689 45.6673 91.3668 45.6673 92.2335C45.6673 94.3727 45.6673 96.5119 45.6673 98.7618V98.7802Z"></path>
<path fill="black" d="M22.8705 87.3835H29.9358C29.9542 87.4941 30.0094 87.6047 29.9726 87.6416C28.5191 89.2645 28.2799 91.2008 28.2983 93.2847C28.3535 97.9872 28.3351 102.708 28.2983 107.429C28.2983 109.624 28.1695 111.818 30.359 113.552H22.8889C22.8889 113.552 22.8521 113.367 22.8889 113.33C24.3608 111.8 24.692 109.937 24.6552 107.853C24.5816 102.911 24.6184 97.9503 24.6552 93.0081C24.6552 90.9611 24.4344 89.0432 22.7233 87.6048L22.8521 87.4019L22.8705 87.3835Z"></path>
<path fill="black" d="M133.175 39.1963C141.124 47.2736 140.94 59.7584 133.819 66.8952C128.594 72.1509 120.388 73.4049 111.464 70.5097C109.256 69.7536 107.011 69.7536 105.668 71.6899C105.668 71.6899 104.306 71.1735 104.288 71.1551L104.343 54.1707L105.705 53.5436C110.857 65.7149 122.706 64.5715 125.595 61.6394C128.833 58.3384 129.146 52.7507 123.994 47.6055C120.075 43.7329 113.709 40.3581 109.495 36.0613C105.907 32.373 104.196 27.5598 104.251 23.0786C104.398 13.7104 112.145 6.66585 120.811 6.66585C124.73 6.66585 127.122 7.66168 128.925 8.30712C130.728 8.97101 132.936 8.91569 133.856 7.03467L135.217 7.58791L135.162 22.802C135.162 22.802 133.856 23.2261 133.838 23.2077C131.814 18.7265 128.226 14.8353 122.522 14.8353C115.383 14.8169 113.065 21.8062 118.124 27.1357C121.97 31.1559 128.759 34.6782 133.138 39.1779L133.175 39.1963ZM189.109 9.13698L188.594 7.79077L172.348 7.73544L171.796 9.1001C174.445 10.0406 174.868 11.6819 174.887 15.2964L174.831 34.3094L160.737 34.2725L160.793 15.3333C160.829 11.7188 161.253 10.0775 163.939 9.15542L163.387 7.79077L146.883 7.75388L146.349 9.11854C149.017 10.0775 149.44 11.6819 149.44 15.3148V63.3175C149.44 66.9505 148.999 68.5549 146.312 69.5507C146.294 69.5507 146.846 70.8969 146.846 70.8969L163.203 70.9522L163.773 69.5876C160.995 68.3336 160.664 66.9874 160.664 63.3544L160.719 42.442L174.831 42.4789V63.3175C174.813 66.932 174.463 68.2783 171.685 69.5323L172.237 70.8969L188.521 70.9338C188.521 70.9338 189.091 69.5876 189.073 69.5876C186.386 68.5918 185.945 66.9874 185.963 63.3544L186 15.3517C186 11.7188 186.46 10.1144 189.128 9.15542L189.109 9.13698ZM80.3503 7.62479L79.8168 8.97101C82.4663 9.91152 82.8895 11.5528 82.8895 15.1673L82.7791 54.2444C82.7791 61.8607 78.4736 63.4835 75.1801 63.4651C71.8498 63.4651 67.4155 62.2295 67.4339 54.3735L67.5443 15.1304C67.5443 11.4975 67.9675 9.89308 70.6538 8.93413L70.1571 7.58791L53.8184 7.53259L53.248 8.8788C55.9159 9.81931 56.3575 11.479 56.3575 15.0751L56.2287 53.4514C56.2287 58.9285 57.535 63.5204 60.5158 66.7292C63.4965 69.9564 68.4459 71.819 74.9961 71.8374C80.6079 71.8374 85.4102 70.4359 89.0349 66.9874C92.0524 64.0921 94.0027 59.7768 94.0211 53.6543L94.0947 15.1857C94.0947 11.5528 94.5547 9.92996 97.2226 8.98945L96.6706 7.64324L80.3319 7.60635L80.3503 7.62479ZM42.0795 64.5715C37.9396 68.7946 32.5118 70.7678 22.8889 70.7863H0.551983C0.551983 70.7863 0.0919972 69.5876 0 69.3847C2.46552 68.057 3.1831 66.8767 3.1831 63.2438C3.1831 63.2438 3.1463 8.91569 3.1463 7.64324C3.1463 4.0103 2.35513 2.9407 0 1.33631L0.607181 0.0269775H21.6745C31.2054 0.0269775 35.9709 2.29526 39.1724 5.67002C45.2442 12.0507 45.8698 25.937 34.7013 32.2808C51.7576 37.9792 48.7033 57.8589 42.0795 64.5715ZM14.9403 29.5146H19.4114C23.8825 29.5146 26.5504 28.4266 28.4823 26.398C32.015 22.802 32.5302 15.4255 29.1447 11.8663C27.268 9.78243 24.6736 8.73127 20.1842 8.74971C19.3562 8.71283 16.2283 8.71283 14.9587 8.74971C14.9219 16.0156 14.9219 22.1934 14.9587 29.4962L14.9403 29.5146ZM31.371 41.0773C29.0527 38.6984 25.9064 37.5366 20.589 37.5366H14.8667C14.8483 46.1671 14.8483 53.5805 14.8667 62.2111H20.589C25.9248 62.2111 29.0527 61.0677 31.371 58.6703C35.7501 54.1522 35.7501 45.5586 31.371 41.0589V41.0773ZM361.218 27.1541C356.139 21.843 358.439 14.8353 365.56 14.8353C371.282 14.8353 374.87 18.6896 376.912 23.1708C376.912 23.1708 378.219 22.7651 378.237 22.7467V7.55103L376.876 6.99779C375.956 8.8788 373.748 8.93413 371.945 8.28868C370.141 7.64324 367.75 6.66585 363.83 6.66585C355.146 6.66585 347.437 13.7657 347.308 23.1155C347.253 27.5783 349.001 32.3915 352.57 36.0613C356.802 40.3581 363.15 43.7144 367.106 47.5871C372.276 52.6953 372 58.2831 368.743 61.6025C365.873 64.5347 354.042 65.7334 348.853 53.5621L347.492 54.2075V71.192L348.853 71.7268C350.196 69.7904 352.423 69.8089 354.649 70.5465C363.573 73.3865 371.779 72.1325 376.986 66.8583C384.088 59.703 384.235 47.2183 376.268 39.1594C371.889 34.6597 365.082 31.1743 361.218 27.1726V27.1541ZM240.646 63.2253V15.2964C240.646 11.6634 241.069 10.0406 243.756 9.1001L243.222 7.75388H229.165L228.613 9.1001C230.968 10.0775 229.588 13.7842 228.963 15.2595L221.4 34.7151V34.7888H221.364L221.4 34.7151L213.691 15.1857C213.102 13.5998 211.649 10.0222 213.967 9.11854L213.433 7.77232H198.512L197.96 9.11854C200.646 10.059 201.087 11.6819 201.106 15.3148V63.2438C201.106 66.8767 200.775 68.2045 197.941 69.4585L198.493 70.8232H214.151C214.151 70.8232 214.721 69.4769 214.703 69.4769C212.017 68.4811 211.575 66.8767 211.594 63.2438V53.5068C211.594 46.9048 211.63 37.8685 211.373 32.9078C212.109 35.0655 218.825 52.2159 220.462 56.5865C220.701 57.2319 221.106 57.0106 221.272 56.5865C223.572 50.3164 229.864 32.9447 229.864 32.9447C229.515 37.7948 229.643 47.0154 229.643 53.4146V63.2438C229.643 66.8767 229.294 68.2045 226.515 69.4585L227.067 70.8232H243.222C243.222 70.8232 243.793 69.4769 243.774 69.4769C241.069 68.4811 240.628 66.8767 240.646 63.2438V63.2253ZM267.325 63.2253V15.2964C267.325 11.6634 267.767 10.0406 270.453 9.1001L269.92 7.75388H253.563L253.029 9.1001C255.679 10.0406 256.12 11.6634 256.139 15.2964V63.2253C256.139 66.8583 255.789 68.186 253.011 69.4401L253.563 70.8047H269.92C269.92 70.8047 270.49 69.4585 270.472 69.4585C267.767 68.4627 267.325 66.8583 267.344 63.2253H267.325ZM303.591 62.875H293.931V15.2964C293.931 11.6634 294.373 10.0406 297.04 9.1001L296.507 7.75388H280.15L279.616 9.1001C282.266 10.0406 282.707 11.6634 282.726 15.2964V63.2253C282.726 66.8583 282.376 68.186 279.598 69.4401L280.15 70.8047H304.566C306.59 70.8047 307.602 70.9522 307.602 70.9522L312.073 60.2932L310.895 59.1314C308.724 61.8976 305.283 62.8934 303.554 62.8934L303.591 62.875ZM336.489 62.875H327.4V15.2964C327.4 11.6634 327.841 10.0406 330.527 9.1001L329.994 7.75388H313.637L313.085 9.1001C315.753 10.0406 316.176 11.6634 316.194 15.2964V63.2253C316.176 66.8583 315.845 68.186 313.048 69.4401L313.6 70.8047H337.464C339.488 70.8047 340.5 70.9522 340.5 70.9522L344.989 60.2932L343.812 59.1314C341.622 61.8976 338.182 62.8934 336.471 62.8934L336.489 62.875ZM389.203 11.4975C389.203 10.2619 388.375 9.85619 386.977 9.85619H384.953V15.2779H386.112V12.9912H386.664L387.915 15.2779H389.295L387.897 12.899C388.615 12.8437 389.203 12.4933 389.203 11.479V11.4975ZM387.143 12.0876H386.131V10.7783H386.94C387.382 10.7783 387.989 10.8151 387.989 11.3868C387.989 11.9954 387.676 12.0876 387.161 12.0876H387.143ZM386.959 7.55103C384.291 7.55103 381.899 9.39516 381.899 12.5855C381.899 15.7759 384.272 17.62 386.959 17.62C389.645 17.62 392 15.7574 392 12.5855C392 9.4136 389.608 7.55103 386.959 7.55103ZM386.959 16.4582C384.971 16.4582 383.352 14.9091 383.352 12.5855C383.352 10.2619 384.971 8.71283 386.959 8.71283C388.946 8.71283 390.546 10.2619 390.546 12.5855C390.546 14.9091 388.891 16.4582 386.959 16.4582Z"></path>
</svg>
