<svg viewBox="0 0 566.93 784.13" xmlns:xlink="http://www.w3.org/1999/xlink" xmlns="http://www.w3.org/2000/svg" data-name="Layer 1" id="Layer_1"><defs><style>.cls-1{fill:url(#New_Gradient_Swatch_6);}.cls-2{fill:url(#New_Gradient_Swatch_7);}.cls-3{fill:#1d1d1b;}</style><linearGradient gradientUnits="userSpaceOnUse" y2="729.83" x2="621.23" y1="54.3" x1="-54.3" id="New_Gradient_Swatch_6"><stop stop-color="#fc0" offset="0.07"></stop><stop stop-color="#fff" offset="0.16"></stop><stop stop-color="#ffdf00" offset="0.39"></stop><stop stop-color="#e96e24" offset="0.53"></stop><stop stop-color="#f3c500" offset="0.71"></stop><stop stop-color="#fff" offset="0.84"></stop><stop stop-color="#f7a600" offset="1"></stop></linearGradient><linearGradient gradientUnits="userSpaceOnUse" y2="709.99" x2="601.39" y1="74.14" x1="-34.46" id="New_Gradient_Swatch_7"><stop stop-color="#f7a600" offset="0.01"></stop><stop stop-color="#fc0" offset="0.1"></stop><stop stop-color="#fff" offset="0.26"></stop><stop stop-color="#fd0" offset="0.35"></stop><stop stop-color="#fc0" offset="0.49"></stop><stop stop-color="#fff" offset="0.75"></stop><stop stop-color="#f7a600" offset="1"></stop></linearGradient></defs><title>WGinAXX-Australian-Sloe</title><rect height="784.13" width="566.93" class="cls-1"></rect><rect height="744.45" width="527.24" y="19.84" x="19.84" class="cls-2"></rect><path d="M68,461.14l-5.7,14.37H39.47l31.79-82.68H94.73l31.14,82.68H103l-5.38-14.37Zm15-42.76h-.22L73.9,444.69H91.77Z" class="cls-3"></path><path d="M149.66,446.23h.21l17.33-53.4h17.1l16.23,53.4h.22l15.57-53.4h22.36l-26.42,82.68H190.33l-14.47-47.92h-.22l-16.22,47.92H137.6l-24.67-82.68H135.3Z" class="cls-3"></path><path d="M251.94,461.14l-5.69,14.37H223.44l31.8-82.68H278.7l31.14,82.68H286.92l-5.37-14.37Zm15-42.76h-.22l-8.88,26.31h17.87Z" class="cls-3"></path><path d="M385.26,475.51H358.52l-20.29-31.8H338v31.8h-21.5V392.83h32.13c16.34,0,28.73,7.79,28.73,25.45,0,11.39-6.37,21.26-18.1,23.35ZM338,429.9h2.08c7,0,14.9-1.32,14.9-10.31s-7.88-10.31-14.9-10.31H338Z" class="cls-3"></path><path d="M391.07,392.83h30.49c23,0,42,18.1,42,41.34s-19.08,41.34-42,41.34H391.07Zm21.5,64.48h4.82c12.83,0,23.79-7,23.79-23.14,0-14.8-9.75-23.14-23.56-23.14h-5.05Z" class="cls-3"></path><path d="M514.53,414.11a22.61,22.61,0,0,0-14.25-5.48c-3.95,0-9.2,2.3-9.2,6.9,0,4.83,5.81,6.69,9.53,7.9l5.49,1.64c11.5,3.4,20.38,9.21,20.38,22.58,0,8.23-2,16.68-8.55,22.26s-15.13,7.79-23.46,7.79a51,51,0,0,1-29.05-9.43l9.21-17.33c5.36,4.72,11.72,8.56,19.07,8.56,5.05,0,10.42-2.52,10.42-8.33,0-6-8.44-8.11-13-9.44-13.49-3.83-22.37-7.34-22.37-23.35,0-16.77,11.94-27.74,28.51-27.74a56.35,56.35,0,0,1,25.86,6.81Z" class="cls-3"></path><rect height="19.84" width="487.56" y="489.68" x="39.68" class="cls-3"></rect><rect height="19.84" width="487.56" y="48.19" x="39.68" class="cls-3"></rect><path d="M236.5,273.72c-.5,27.4-2.49,50.82-19.19,74.24-18.43,25.66-46.08,36.87-77.48,36.87-59,0-100.15-40.11-100.15-99.16,0-61,41.36-101.14,101.9-101.14,38.61,0,68.51,17.43,84.71,52.56l-46.35,19.44c-6.72-17.94-20.92-29.9-40.6-29.9-32.14,0-48.83,30.64-48.83,59.29,0,29.15,17.43,58.8,49.57,58.8,21.18,0,37.38-11,39.37-32.64H139.58V273.72Z" class="cls-3"></path><path d="M307.76,378.6H258.93V190.75h48.83Z" class="cls-3"></path><path d="M339.65,190.75h48.83L477.92,305.6h.49V190.75h48.83V378.6H478.41L389,263.5h-.5V378.6H339.65Z" class="cls-3"></path><path d="M81.62,143.16h.26l19.77-61h19.54l18.52,61H140l17.77-61h25.54L153.11,176.6h-25l-16.53-54.72h-.25L92.77,176.6H67.85L39.68,82.19H65.22Z" class="cls-3"></path><path d="M371.45,176.6H340.91l-23.17-36.31h-.24V176.6H293V82.19h36.69c18.66,0,32.81,8.89,32.81,29.05,0,13-7.27,24.29-20.66,26.67ZM317.5,124.51h2.37c8,0,17-1.5,17-11.77s-9-11.77-17-11.77H317.5Z" class="cls-3"></path><path d="M405.15,155.81h29.42V176.6h-54V82.19h24.55Z" class="cls-3"></path><path d="M442.44,80.91h35.67c26.93,0,49.13,21,49.13,47.86s-22.32,47.85-49.13,47.85H442.44Zm25.15,74.64h5.64c15,0,27.84-8.12,27.84-26.78,0-17.14-11.42-26.79-27.58-26.79h-5.9Z" class="cls-3"></path><path d="M210,523.71h8.93c9.87,0,18.15,3.6,18.15,14.69,0,4.39-1.66,8.13-5.33,10.58,6.48,1.58,10.3,7.42,10.3,13.9,0,10.8-8.72,15.12-19.44,15.12H210Zm6.05,23.9h2.31c6.84,0,12.67-.79,12.67-9.21,0-8.21-5.18-9.08-12.6-9.08H216Zm0,24.77h6.05c6.77,0,13.9-1.65,13.9-9.93,0-8.43-8.07-9.65-14.69-9.65H216Z" class="cls-3"></path><path d="M250.88,523.71H279v5.61h-22.1v16.13h21.46v5.62H256.93v21.31H279V578H250.88Z" class="cls-3"></path><path d="M314,534.29c-2.16-3.74-4.75-5.9-9.36-5.9-4.82,0-9,3.45-9,8.42,0,4.68,4.83,6.84,8.5,8.5l3.6,1.58c7.06,3.1,13,6.63,13,15.27a16.77,16.77,0,0,1-17.06,16.78c-8.72,0-15.2-5.62-16.92-14.05l5.9-1.65c.79,5.54,5,10.08,10.87,10.08s11.16-4.47,11.16-10.59c0-6.33-5-8.49-10-10.8l-3.32-1.44c-6.33-2.88-11.81-6.12-11.81-13.89,0-8.43,7.13-13.83,15.2-13.83a15.59,15.59,0,0,1,14,8.42Z" class="cls-3"></path><path d="M344,578h-6.05V529.32H324.82v-5.61h32.41v5.61H344Z" class="cls-3"></path><path d="M94.64,631,88.09,646.4H81.46l25.06-56.89,24.41,56.89h-6.7L117.83,631Zm11.74-27.36-9.29,21.74h18.36Z" class="cls-3"></path><path d="M138.41,624.44c0,4-.14,8.64,2.38,12.09s7,5.19,11,5.19a14.35,14.35,0,0,0,10.65-4.83c2.88-3.45,2.67-8.2,2.67-12.45V592.11h6.05v34c0,5.91-.44,10.59-4.76,15a20,20,0,0,1-14.61,6.19,20.34,20.34,0,0,1-14.05-5.54c-4.75-4.54-5.32-9.5-5.32-15.7v-34h6Z" class="cls-3"></path><path d="M205,602.69c-2.16-3.74-4.76-5.9-9.36-5.9-4.83,0-9,3.45-9,8.42,0,4.68,4.83,6.84,8.5,8.5l3.6,1.58c7.06,3.1,13,6.63,13,15.27a16.76,16.76,0,0,1-17.06,16.77c-8.71,0-15.19-5.61-16.92-14l5.9-1.65c.79,5.54,5,10.08,10.88,10.08s11.16-4.47,11.16-10.59c0-6.33-5-8.49-10-10.8l-3.31-1.44c-6.34-2.88-11.81-6.12-11.81-13.89,0-8.43,7.12-13.83,15.19-13.83a15.59,15.59,0,0,1,14,8.42Z" class="cls-3"></path><path d="M233.6,646.4h-6V597.72H214.44v-5.61h32.41v5.61H233.6Z" class="cls-3"></path><path d="M259.08,646.4h-6V592.11h7.84c10.3,0,19.88,2.73,19.88,15,0,8.36-5.26,14.26-13.61,15l17.28,24.34H277L260.6,622.56h-1.52Zm0-29.16H261c6.84,0,13.75-1.3,13.75-9.72,0-8.93-6.55-9.8-13.83-9.8h-1.8Z" class="cls-3"></path><path d="M298.76,631,292.2,646.4h-6.62l25.06-56.89,24.41,56.89h-6.7L321.94,631Zm11.73-27.36-9.29,21.74h18.37Z" class="cls-3"></path><path d="M347,640.78h15v5.62H341V592.11H347Z" class="cls-3"></path><path d="M374.14,646.4h-6.05V592.11h6.05Z" class="cls-3"></path><path d="M393.29,631l-6.55,15.41h-6.63l25.06-56.89,24.41,56.89h-6.69L416.48,631ZM405,603.63l-9.29,21.74H414.1Z" class="cls-3"></path><path d="M435.84,589.8l42.34,44.36v-42h6.05v56.74l-42.34-44.29V646.4h-6.05Z" class="cls-3"></path><path d="M206.57,679.84a24.64,24.64,0,0,0-6.4-3.85,17.09,17.09,0,0,0-6.2-1.25,10,10,0,0,0-6.2,1.8,5.61,5.61,0,0,0-2.4,4.7,4.65,4.65,0,0,0,1.2,3.3,10.34,10.34,0,0,0,3.15,2.25,25.58,25.58,0,0,0,4.4,1.65q2.44.7,4.85,1.5,9.6,3.21,14.05,8.55t4.45,14a27.13,27.13,0,0,1-1.95,10.5,21.83,21.83,0,0,1-5.7,8,26.18,26.18,0,0,1-9.2,5.2A38.43,38.43,0,0,1,188.27,738a45.37,45.37,0,0,1-26.5-8.5l8.4-15.8a33.79,33.79,0,0,0,8.7,5.8,20.83,20.83,0,0,0,8.5,1.9q4.8,0,7.15-2.2a6.7,6.7,0,0,0,2.35-5,6.78,6.78,0,0,0-.6-3,6.45,6.45,0,0,0-2-2.3,16.17,16.17,0,0,0-3.65-2c-1.5-.6-3.32-1.26-5.45-2q-3.81-1.2-7.45-2.65a23.19,23.19,0,0,1-6.5-3.85,17.74,17.74,0,0,1-4.6-6,21.32,21.32,0,0,1-1.75-9.25,26.63,26.63,0,0,1,1.85-10.15,22.48,22.48,0,0,1,5.2-7.8,23.18,23.18,0,0,1,8.2-5,31,31,0,0,1,10.85-1.8,47.69,47.69,0,0,1,11.7,1.55,52.16,52.16,0,0,1,11.7,4.55Z" class="cls-3"></path><path d="M245.37,660.54v58.8h23.5v16.6h-43.1v-75.4Z" class="cls-3"></path><path d="M269.57,698.24a39.35,39.35,0,0,1,3.1-15.65,38.93,38.93,0,0,1,8.6-12.65,39.33,39.33,0,0,1,13.15-8.45,47.93,47.93,0,0,1,33.65,0,39.88,39.88,0,0,1,13.25,8.45A38.76,38.76,0,0,1,350,682.59a41.05,41.05,0,0,1,0,31.3,38.65,38.65,0,0,1-8.65,12.65A39.72,39.72,0,0,1,328.07,735a47.93,47.93,0,0,1-33.65,0,39,39,0,0,1-24.85-36.75Zm20.5,0a20,20,0,0,0,1.7,8.3,20.76,20.76,0,0,0,11.35,11,21.81,21.81,0,0,0,23.1-4.35,20.66,20.66,0,0,0,4.65-6.6,21.11,21.11,0,0,0,0-16.6,20.88,20.88,0,0,0-4.65-6.6,22,22,0,0,0-23.1-4.35,20.76,20.76,0,0,0-11.35,11A20,20,0,0,0,290.07,698.24Z" class="cls-3"></path><path d="M404.37,677.14h-23.3v12.6h22v16.6h-22v13h23.3v16.6h-42.9v-75.4h42.9Z" class="cls-3"></path><path d="M231.48,79.29c-26.95,0-51.79,19.87-51.79,48.19,0,30.31,21.74,51.67,51.79,51.67s51.79-21.36,51.79-51.67C283.27,99.16,258.43,79.29,231.48,79.29Zm-3.09,73.31h-37.6l11.58-12q4.59-4.77,7.19-8.09a45.23,45.23,0,0,0,3.87-5.6,14.78,14.78,0,0,0,1.58-3.72,12.11,12.11,0,0,0,.31-2.42,6.42,6.42,0,0,0-.34-2,5.14,5.14,0,0,0-2.67-3,5.12,5.12,0,0,0-2.26-.47,4.86,4.86,0,0,0-3.87,1.61,6,6,0,0,0-1.39,4,15.76,15.76,0,0,0,.18,2H191.72a19.89,19.89,0,0,1,1.33-7.43,16.9,16.9,0,0,1,3.75-5.76,16.6,16.6,0,0,1,5.73-3.72,19.68,19.68,0,0,1,7.28-1.3A20.33,20.33,0,0,1,217,105.9a17.25,17.25,0,0,1,5.73,3.47,15.91,15.91,0,0,1,3.78,5.29,16.23,16.23,0,0,1,1.36,6.66,15.53,15.53,0,0,1-1.64,7.09,24.91,24.91,0,0,1-5.23,6.66l-7.75,7.25h15.12Zm38.27-5.48a17.87,17.87,0,0,1-6.26,5,19.08,19.08,0,0,1-16,0,18.29,18.29,0,0,1-6.25-5,23.71,23.71,0,0,1-4.09-7.8,35.87,35.87,0,0,1,0-20.26,23.35,23.35,0,0,1,4.09-7.77,18.44,18.44,0,0,1,6.25-5,18.31,18.31,0,0,1,22.27,5,23.87,23.87,0,0,1,4.06,7.77,36.11,36.11,0,0,1,0,20.26A24.23,24.23,0,0,1,266.66,147.12Z" class="cls-3"></path><path d="M258.05,119.19a8.12,8.12,0,0,0-2.45-2.85,5.5,5.5,0,0,0-6.41,0,8.52,8.52,0,0,0-2.44,2.85,15.77,15.77,0,0,0-1.58,4.39,28.53,28.53,0,0,0,0,11.25,16.38,16.38,0,0,0,1.58,4.39,8.45,8.45,0,0,0,2.44,2.88,5.5,5.5,0,0,0,6.41,0,8.05,8.05,0,0,0,2.45-2.88,17.1,17.1,0,0,0,1.55-4.39,28.53,28.53,0,0,0,0-11.25A16.45,16.45,0,0,0,258.05,119.19Z" class="cls-3"></path></svg>