<svg xmlns="http://www.w3.org/2000/svg" fill="none" viewBox="0 0 392 116" height="116" width="392">
<path fill="#FAFAFA" d="M360.095 114.517H352.257C352.165 114.406 352.055 114.295 351.963 114.166C352.183 114.093 352.441 114.056 352.625 113.927C353.692 113.152 354.097 112.009 354.263 110.755C354.299 110.552 354.281 110.367 354.281 110.165C354.342 107.177 353.619 104.392 352.11 101.811C350.509 99.0813 348.908 96.352 347.344 93.5858C346.369 91.8339 345.192 90.2664 343.646 88.9755C343.462 88.8279 343.205 88.7726 343.002 88.6804C343.094 88.5698 343.168 88.4591 343.26 88.3485H350.969C350.896 88.5329 350.896 88.7357 350.785 88.8464C349.902 89.8238 349.994 90.9487 350.564 91.9445C352.349 95.1533 354.226 98.3252 356.139 101.645C356.379 101.276 356.544 101.036 356.691 100.778C358.182 98.1592 359.654 95.5406 361.126 92.9219C361.365 92.5162 361.549 92.0736 361.751 91.631C362.193 90.6536 362.248 89.7131 361.402 88.9017C361.273 88.7726 361.218 88.5882 361.07 88.3116H368.761C368.504 88.6435 368.357 88.8833 368.136 89.0861C365.836 91.336 364.272 94.0837 362.745 96.8683C361.291 99.5055 359.801 102.124 358.329 104.743C358.219 104.946 358.016 105.167 358.016 105.37C357.961 107.767 357.409 110.201 358.55 112.488C358.899 113.17 359.488 113.724 360.077 114.48L360.095 114.517Z"></path>
<path fill="#FAFAFA" d="M293.968 100.169C292.275 101.792 290.619 103.378 289 105.001C288.816 105.185 288.706 105.554 288.706 105.849C288.687 107.398 288.669 108.947 288.706 110.496C288.724 111.603 289.092 112.599 289.828 113.447C290.086 113.742 290.306 114.056 290.638 114.498H283.223C283.223 114.498 283.167 114.332 283.204 114.314C284.584 113.134 285.026 111.584 285.026 109.851C285.026 104.411 285.026 98.9891 285.026 93.5489C285.026 91.5941 284.547 89.8791 282.818 88.3853H290.601C290.325 88.7541 290.067 88.9939 289.92 89.2889C289.497 90.1741 288.853 91.0593 288.816 91.9629C288.669 94.7476 288.761 97.5691 288.761 100.593C289.497 99.8558 290.141 99.2288 290.748 98.6018C293.085 96.186 295.421 93.7517 297.758 91.3359C298.629 90.4385 298.776 89.4611 298.2 88.4038H306.277C302.321 90.6536 299.727 94.3419 296.415 97.3478C297.353 98.8969 298.237 100.391 299.138 101.866C300.555 104.208 301.972 106.532 303.37 108.892C304.584 110.939 305.909 112.912 307.823 114.498H299.782C301.125 112.783 301.162 112.211 300.021 110.275C298.145 107.103 296.249 103.95 294.354 100.796C294.226 100.575 294.06 100.354 293.95 100.206L293.968 100.169Z"></path>
<path fill="#FAFAFA" d="M320.757 102.622C320.757 105.148 320.721 107.472 320.757 109.814C320.776 110.957 321.144 111.345 322.266 111.345C324.879 111.345 327.492 111.308 330.104 111.216C332.018 111.142 333.361 110.165 334.134 108.376C334.263 108.081 334.631 107.915 334.888 107.675C335.054 107.988 335.348 108.302 335.367 108.615C335.422 110.404 335.367 112.193 335.403 113.963C335.403 114.738 335.035 114.885 334.355 114.793C333.379 114.683 332.386 114.572 331.411 114.572C326.461 114.554 321.512 114.572 316.562 114.572H315.09C315.33 114.258 315.44 114.056 315.587 113.908C316.47 113.078 316.93 112.064 317.004 110.865C317.059 109.999 317.096 109.132 317.096 108.247C317.096 103.526 317.096 98.8047 317.096 94.0837C317.096 92.1842 317.059 90.3401 315.606 88.8832C315.514 88.791 315.477 88.6066 315.33 88.2562H316.673C321.659 88.2562 326.645 88.2562 331.631 88.2562C332.717 88.2562 333.711 88.1825 334.318 86.7994C334.428 87.2235 334.502 87.3711 334.52 87.537C334.52 89.6762 334.539 91.8154 334.52 93.9546C334.52 94.2681 334.226 94.5816 334.079 94.8951C333.821 94.7107 333.471 94.5816 333.324 94.3234C332.202 92.258 330.472 91.3544 328.154 91.4097C326.332 91.4466 324.511 91.4097 322.689 91.4097C321.181 91.4097 320.757 91.8339 320.739 93.2907C320.721 95.1533 320.739 97.0159 320.739 99.0075C323.26 99.2841 325.744 99.4686 328.191 98.9522C328.835 98.8231 329.387 98.1223 329.883 97.606C330.233 97.2556 330.435 96.7392 330.859 96.3335V105.388C330.527 104.89 330.27 104.558 330.086 104.19C329.552 103.194 328.688 102.622 327.62 102.585C325.376 102.511 323.131 102.567 320.757 102.567V102.622Z"></path>
<path fill="#FAFAFA" d="M272.385 87.3342C272.385 90.0266 272.385 92.4424 272.367 94.8582C272.367 95.098 272.146 95.4852 271.925 95.5406C271.741 95.5959 271.373 95.3746 271.208 95.1902C270.637 94.4894 270.196 93.6595 269.57 93.0325C267.601 91.0224 265.191 90.6167 262.56 91.3175C261.364 91.631 260.444 92.3502 260.094 93.6411C259.726 94.9873 260.058 96.1491 261.253 96.8314C262.339 97.44 263.553 97.8826 264.713 98.3436C266.461 99.0628 268.282 99.6161 269.975 100.464C270.895 100.925 271.76 101.682 272.348 102.53C275.568 107.214 272.808 113.705 267.252 114.72C264.713 115.181 262.229 114.959 259.745 114.314C257.666 113.779 257.666 113.834 256.47 115.605C256.414 115.697 256.322 115.771 256.138 115.974V106.237C256.138 106.237 256.249 106.181 256.304 106.163C256.838 106.919 257.39 107.675 257.905 108.449C259.91 111.4 263.222 112.58 266.645 111.548C269.662 110.644 270.38 107.97 269.754 105.517C269.496 104.485 268.779 103.765 267.84 103.36C266.35 102.733 264.823 102.198 263.314 101.626C262.247 101.22 261.143 100.87 260.113 100.391C257.794 99.3395 256.433 97.5876 256.359 94.9689C256.286 92.258 257.482 90.2295 259.818 88.9386C261.879 87.8137 264.105 87.6477 266.387 87.9796C267.325 88.1087 268.245 88.3484 269.165 88.5882C270.177 88.8648 271.042 88.7542 271.704 87.869C271.815 87.7214 271.98 87.6292 272.348 87.3157L272.385 87.3342Z"></path>
<path fill="#FAFAFA" d="M239.009 88.3484H246.46C244.381 90.3032 244.473 92.6453 244.492 94.9873C244.528 99.5792 244.547 104.19 244.492 108.781C244.473 110.865 244.547 112.839 246.534 114.461H239.045C239.156 114.258 239.211 114.056 239.358 113.908C240.481 112.709 240.867 111.289 240.848 109.667C240.812 104.835 240.848 100.003 240.848 95.1717C240.848 92.6391 240.247 90.3647 239.045 88.3484H239.009Z"></path>
<path fill="#FAFAFA" d="M229.367 114.498H221.364C223.59 112.691 223.535 110.367 223.535 108.062C223.535 106.329 223.535 104.595 223.535 102.714H212.219C212.182 103.009 212.109 103.304 212.109 103.599C212.109 105.296 212.164 107.011 212.164 108.708C212.145 110.921 212.127 113.134 214.685 114.332C214.593 114.388 214.519 114.443 214.427 114.498H206.791C206.791 114.498 206.736 114.314 206.754 114.295C208.208 112.949 208.539 111.216 208.521 109.316C208.484 104.208 208.466 99.0813 208.521 93.9731C208.539 91.8707 208.245 89.9344 206.294 88.3669H213.93C211.041 91.5941 212.569 95.4115 212.035 99.1366H223.645C223.553 96.4442 223.59 93.8255 223.296 91.2437C223.185 90.2663 222.357 89.3812 221.805 88.3484H228.76C228.76 88.3484 228.815 88.496 228.797 88.5144C227.141 90.3401 227.031 92.5531 227.067 94.8582C227.123 99.4501 227.104 104.042 227.067 108.652C227.049 110.902 227.454 112.931 229.515 114.277C229.478 114.351 229.441 114.424 229.404 114.48L229.367 114.498Z"></path>
<path fill="#FAFAFA" d="M178.751 88.3485H183.718C183.884 89.6025 183.958 90.8012 184.234 91.9445C185.485 97.5322 186.791 103.12 188.134 108.929C188.3 108.523 188.41 108.265 188.484 108.007C189.753 103.028 191.023 98.0486 192.293 93.051C192.734 91.336 192.992 89.6578 191.041 88.4591C191.115 88.4222 191.207 88.3669 191.281 88.33H198.217C198.217 88.33 198.291 88.5144 198.254 88.5513C196.451 90.5061 195.604 92.9035 194.96 95.4299C193.599 100.833 192.109 106.218 190.729 111.621C190.508 112.507 190.508 113.429 190.397 114.48H185.706C185.595 113.521 185.577 112.58 185.374 111.695C184.031 105.886 182.633 100.077 181.216 94.1206C181.051 94.3972 180.903 94.5447 180.867 94.7292C179.56 100.446 178.254 106.144 177.003 111.861C176.819 112.673 176.874 113.539 176.819 114.498H171.612C172.2 113.447 171.851 112.451 171.575 111.437C170.066 105.905 168.576 100.354 167.067 94.8214C166.441 92.5162 165.742 90.2479 163.773 88.3853H171.078C169.164 90.8565 170.342 93.3092 170.931 95.725C171.98 100.022 173.157 104.3 174.316 108.708C174.464 108.505 174.592 108.394 174.629 108.247C175.935 102.548 177.242 96.8315 178.511 91.1147C178.695 90.2479 178.659 89.3443 178.732 88.3669L178.751 88.3485Z"></path>
<path fill="#FAFAFA" d="M122.503 88.3853C122.264 88.7357 121.97 89.0308 121.841 89.3812C121.455 90.3217 120.884 91.2622 120.829 92.2396C120.682 94.4894 120.774 96.7392 120.774 99.1551H132.126C132.126 96.6839 132.218 94.3603 132.071 92.0183C132.016 91.17 131.446 90.3401 131.059 89.5287C130.875 89.1414 130.599 88.8095 130.286 88.3484H137.444C137.37 88.5144 137.352 88.6804 137.278 88.7726C135.972 90.2664 135.659 92.0183 135.677 93.9546C135.751 98.7493 135.696 103.544 135.696 108.339C135.696 111.658 135.861 112.064 138.161 114.461H130.36C130.36 114.461 130.305 114.295 130.36 114.277C131.887 112.82 132.255 110.976 132.2 108.966C132.145 106.919 132.2 104.872 132.2 102.696H120.939C120.939 105.591 120.903 108.339 120.939 111.105C120.958 112.599 122.025 113.484 123.331 114.461H115.401C115.475 114.314 115.512 114.111 115.622 114.019C116.855 112.875 117.186 111.382 117.186 109.796C117.186 104.208 117.186 98.6203 117.186 93.0325C117.186 91.2437 116.579 89.6947 114.996 88.3853H122.54H122.503Z"></path>
<path fill="#FAFAFA" d="M88.3173 105.978C88.906 106.827 89.4212 107.472 89.8444 108.154C91.8316 111.363 94.7387 112.322 98.3266 111.677C100.534 111.271 101.804 109.869 102.08 107.546C102.338 105.388 101.546 103.987 99.3937 103.065C97.9402 102.456 96.413 102.013 94.9411 101.46C94.0211 101.128 93.0827 100.778 92.1811 100.372C89.918 99.3579 88.6485 97.606 88.5197 95.1164C88.3909 92.6821 89.3292 90.6905 91.3716 89.3258C93.9475 87.6108 96.7994 87.5923 99.7249 88.1825C99.9641 88.2378 100.185 88.2931 100.406 88.3484C101.878 88.8095 103.294 89.0861 104.398 87.2051C104.49 87.7583 104.546 87.9981 104.546 88.2378C104.546 90.3032 104.546 92.3686 104.546 94.4156C104.546 94.8582 104.73 95.5037 104.049 95.5405C103.754 95.5405 103.368 95.1533 103.166 94.8398C101.234 91.7232 98.5289 90.4507 95.1434 91.1884C94.4443 91.3359 93.7451 91.7232 93.1563 92.1658C91.9052 93.0879 91.4452 95.8725 93.5243 96.8868C95.0515 97.6244 96.6522 98.1776 98.2346 98.8047C99.2649 99.2104 100.314 99.5607 101.326 100.003C104.564 101.405 106.165 104.337 105.686 107.878C105.098 112.23 102.448 114.59 97.8298 114.922C95.7874 115.07 93.8187 114.793 91.85 114.277C89.8076 113.742 89.8076 113.779 88.6669 115.512C88.6117 115.605 88.5197 115.697 88.3173 115.9V105.941V105.978Z"></path>
<path fill="#FAFAFA" d="M78.3263 114.535H71.2057C71.2425 114.369 71.2425 114.24 71.2977 114.166C72.7513 112.654 73.0457 110.81 73.0273 108.8C72.9537 103.876 72.9905 98.9706 73.0273 94.0468C73.0273 91.9629 72.8065 90.0081 70.8929 88.3853H78.5471C76.4312 90.4139 76.6152 92.9034 76.6152 95.3561C76.6152 99.6714 76.6336 104.005 76.6152 108.32C76.6152 110.515 76.4864 112.728 78.5471 114.314C78.4735 114.388 78.3999 114.461 78.3263 114.517V114.535Z"></path>
<path fill="#FAFAFA" d="M39.9083 88.4038C41.4907 88.4038 42.981 88.4038 44.4714 88.4038C46.9921 88.3669 49.5312 88.2378 52.052 88.2931C53.4503 88.33 54.9039 88.5329 56.247 88.9017C59.0069 89.6762 60.5709 91.5941 60.8285 94.471C61.0677 97.3294 60.1845 99.7083 57.6454 101.276C57.3694 101.442 57.0934 101.571 56.6518 101.829C59.4669 103.433 59.5405 106.218 59.9453 108.874C60.0557 109.538 60.1845 110.201 60.2949 110.865C60.5525 112.248 61.2333 113.429 62.5212 114.517C60.8285 114.517 59.4669 114.554 58.1054 114.517C57.2406 114.498 56.8542 113.834 56.6886 113.115C56.4494 111.99 56.339 110.847 56.1918 109.722C56.0814 108.855 56.0446 107.988 55.9342 107.122C55.695 105.296 54.7015 104.042 52.9351 103.526C50.58 102.843 48.1697 103.065 45.7593 103.249C45.7593 106.034 45.6121 108.745 45.8329 111.4C45.9249 112.433 46.8081 113.41 47.3601 114.443H40.4787C40.4787 114.443 40.4051 114.314 40.4419 114.277C41.8587 112.673 42.0243 110.755 41.9875 108.708C41.9139 103.747 41.9139 98.8047 41.9875 93.844C42.0059 91.9445 41.7667 90.211 40.2579 88.8833C40.1107 88.7542 40.0371 88.5697 39.9083 88.3853V88.4038ZM45.6673 99.7267C48.4089 100.077 51.0032 100.003 53.5791 99.5239C54.1127 99.4317 54.6463 99.2104 55.1431 98.9706C56.7254 98.1777 57.3326 96.8683 57.167 94.7845C57.0566 93.3645 56.1918 92.3502 54.5727 91.9076C52.0519 91.2069 49.476 91.3728 46.9185 91.7048C46.1273 91.8154 45.6673 92.3133 45.6673 93.1801C45.6673 95.3193 45.6673 97.4585 45.6673 99.7083V99.7267Z"></path>
<path fill="#FAFAFA" d="M22.8705 88.33H29.9358C29.9542 88.4407 30.0094 88.5513 29.9726 88.5882C28.5191 90.211 28.2799 92.1474 28.2983 94.2312C28.3535 98.9338 28.3351 103.655 28.2983 108.376C28.2983 110.57 28.1695 112.765 30.359 114.498H22.8889C22.8889 114.498 22.8521 114.314 22.8889 114.277C24.3608 112.746 24.692 110.884 24.6552 108.8C24.5816 103.858 24.6184 98.8969 24.6552 93.9546C24.6552 91.9076 24.4344 89.9897 22.7233 88.5513L22.8521 88.3485L22.8705 88.33Z"></path>
<path fill="#FAFAFA" d="M133.175 40.1428C141.124 48.2201 140.94 60.7049 133.819 67.8417C128.594 73.0975 120.388 74.3515 111.464 71.4562C109.256 70.7001 107.011 70.7001 105.668 72.6364C105.668 72.6364 104.306 72.1201 104.288 72.1016L104.343 55.1172L105.705 54.4902C110.857 66.6614 122.706 65.5181 125.595 62.5859C128.833 59.2849 129.146 53.6972 123.994 48.5521C120.075 44.6794 113.709 41.3046 109.495 37.0078C105.907 33.3196 104.196 28.5064 104.251 24.0251C104.398 14.657 112.145 7.61238 120.811 7.61238C124.73 7.61238 127.122 8.60821 128.925 9.25366C130.728 9.91754 132.936 9.86222 133.856 7.98121L135.217 8.53445L135.162 23.7485C135.162 23.7485 133.856 24.1727 133.838 24.1542C131.814 19.673 128.226 15.7819 122.522 15.7819C115.383 15.7634 113.065 22.7527 118.124 28.0822C121.97 32.1024 128.759 35.6247 133.138 40.1244L133.175 40.1428ZM189.109 10.0835L188.594 8.7373L172.348 8.68198L171.796 10.0466C174.445 10.9871 174.868 12.6284 174.887 16.2429L174.831 35.2559L160.737 35.219L160.793 16.2798C160.829 12.6653 161.253 11.024 163.939 10.102L163.387 8.7373L146.883 8.70042L146.349 10.0651C149.017 11.024 149.44 12.6284 149.44 16.2614V64.2641C149.44 67.897 148.999 69.5014 146.312 70.4972C146.294 70.4972 146.846 71.8435 146.846 71.8435L163.203 71.8988L163.773 70.5341C160.995 69.2801 160.664 67.9339 160.664 64.3009L160.719 43.3885L174.831 43.4254V64.2641C174.813 67.8786 174.463 69.2248 171.685 70.4788L172.237 71.8435L188.521 71.8803C188.521 71.8803 189.091 70.5341 189.073 70.5341C186.386 69.5383 185.945 67.9339 185.963 64.3009L186 16.2982C186 12.6653 186.46 11.0609 189.128 10.102L189.109 10.0835ZM80.3503 8.57133L79.8168 9.91755C82.4663 10.8581 82.8895 12.4993 82.8895 16.1138L82.7791 55.191C82.7791 62.8072 78.4736 64.43 75.1801 64.4116C71.8498 64.4116 67.4155 63.176 67.4339 55.32L67.5443 16.0769C67.5443 12.444 67.9675 10.8396 70.6538 9.88066L70.1571 8.53445L53.8184 8.47912L53.248 9.82534C55.9159 10.7658 56.3575 12.4256 56.3575 16.0216L56.2287 54.398C56.2287 59.875 57.535 64.4669 60.5158 67.6757C63.4965 70.9029 68.4459 72.7655 74.9961 72.784C80.6079 72.784 85.4102 71.3824 89.0349 67.9339C92.0524 65.0386 94.0027 60.7233 94.0211 54.6008L94.0947 16.1323C94.0947 12.4993 94.5547 10.8765 97.2226 9.93598L96.6706 8.58977L80.3319 8.55289L80.3503 8.57133ZM42.0795 65.5181C37.9396 69.7411 32.5118 71.7144 22.8889 71.7328H0.551983C0.551983 71.7328 0.0919972 70.5341 0 70.3313C2.46552 69.0035 3.1831 67.8232 3.1831 64.1903C3.1831 64.1903 3.1463 9.86222 3.1463 8.58977C3.1463 4.95683 2.35513 3.88724 0 2.28284L0.607181 0.973511H21.6745C31.2054 0.973511 35.9709 3.24179 39.1724 6.61655C45.2442 12.9972 45.8698 26.8835 34.7013 33.2274C51.7576 38.9257 48.7033 58.8054 42.0795 65.5181ZM14.9403 30.4612H19.4114C23.8825 30.4612 26.5504 29.3731 28.4823 27.3446C32.015 23.7485 32.5302 16.372 29.1447 12.8128C27.268 10.729 24.6736 9.67781 20.1842 9.69625C19.3562 9.65937 16.2283 9.65937 14.9587 9.69625C14.9219 16.9621 14.9219 23.14 14.9587 30.4427L14.9403 30.4612ZM31.371 42.0239C29.0527 39.6449 25.9064 38.4831 20.589 38.4831H14.8667C14.8483 47.1137 14.8483 54.5271 14.8667 63.1576H20.589C25.9248 63.1576 29.0527 62.0142 31.371 59.6169C35.7501 55.0987 35.7501 46.5051 31.371 42.0054V42.0239ZM361.218 28.1007C356.139 22.7896 358.439 15.7819 365.56 15.7819C371.282 15.7819 374.87 19.6361 376.912 24.1173C376.912 24.1173 378.219 23.7116 378.237 23.6932V8.49756L376.876 7.94432C375.956 9.82534 373.748 9.88066 371.945 9.23522C370.141 8.58977 367.75 7.61238 363.83 7.61238C355.146 7.61238 347.437 14.7123 347.308 24.062C347.253 28.5248 349.001 33.338 352.57 37.0078C356.802 41.3046 363.15 44.661 367.106 48.5336C372.276 53.6419 372 59.2296 368.743 62.549C365.873 65.4812 354.042 66.6799 348.853 54.5086L347.492 55.1541V72.1385L348.853 72.6733C350.196 70.737 352.423 70.7554 354.649 71.4931C363.573 74.333 371.779 73.079 376.986 67.8048C384.088 60.6496 384.235 48.1648 376.268 40.106C371.889 35.6063 365.082 32.1209 361.218 28.1191V28.1007ZM240.646 64.1719V16.2429C240.646 12.61 241.069 10.9871 243.756 10.0466L243.222 8.70042H229.165L228.613 10.0466C230.968 11.024 229.588 14.7307 228.963 16.206L221.4 35.6616V35.7354H221.364L221.4 35.6616L213.691 16.1323C213.102 14.5463 211.649 10.9687 213.967 10.0651L213.433 8.71886H198.512L197.96 10.0651C200.646 11.0056 201.087 12.6284 201.106 16.2614V64.1903C201.106 67.8232 200.775 69.151 197.941 70.405L198.493 71.7697H214.151C214.151 71.7697 214.721 70.4235 214.703 70.4235C212.017 69.4276 211.575 67.8232 211.594 64.1903V54.4533C211.594 47.8513 211.63 38.8151 211.373 33.8544C212.109 36.012 218.825 53.1624 220.462 57.533C220.701 58.1784 221.106 57.9571 221.272 57.533C223.572 51.263 229.864 33.8912 229.864 33.8912C229.515 38.7413 229.643 47.962 229.643 54.3611V64.1903C229.643 67.8232 229.294 69.151 226.515 70.405L227.067 71.7697H243.222C243.222 71.7697 243.793 70.4235 243.774 70.4235C241.069 69.4276 240.628 67.8232 240.646 64.1903V64.1719ZM267.325 64.1719V16.2429C267.325 12.61 267.767 10.9871 270.453 10.0466L269.92 8.70042H253.563L253.029 10.0466C255.679 10.9871 256.12 12.61 256.139 16.2429V64.1719C256.139 67.8048 255.789 69.1326 253.011 70.3866L253.563 71.7512H269.92C269.92 71.7512 270.49 70.405 270.472 70.405C267.767 69.4092 267.325 67.8048 267.344 64.1719H267.325ZM303.591 63.8215H293.931V16.2429C293.931 12.61 294.373 10.9871 297.04 10.0466L296.507 8.70042H280.15L279.616 10.0466C282.266 10.9871 282.707 12.61 282.726 16.2429V64.1719C282.726 67.8048 282.376 69.1326 279.598 70.3866L280.15 71.7512H304.566C306.59 71.7512 307.602 71.8988 307.602 71.8988L312.073 61.2397L310.895 60.0779C308.724 62.8441 305.283 63.8399 303.554 63.8399L303.591 63.8215ZM336.489 63.8215H327.4V16.2429C327.4 12.61 327.841 10.9871 330.527 10.0466L329.994 8.70042H313.637L313.085 10.0466C315.753 10.9871 316.176 12.61 316.194 16.2429V64.1719C316.176 67.8048 315.845 69.1326 313.048 70.3866L313.6 71.7512H337.464C339.488 71.7512 340.5 71.8988 340.5 71.8988L344.989 61.2397L343.812 60.0779C341.622 62.8441 338.182 63.8399 336.471 63.8399L336.489 63.8215ZM389.203 12.444C389.203 11.2084 388.375 10.8027 386.977 10.8027H384.953V16.2245H386.112V13.9377H386.664L387.915 16.2245H389.295L387.897 13.8455C388.615 13.7902 389.203 13.4398 389.203 12.4256V12.444ZM387.143 13.0341H386.131V11.7248H386.94C387.382 11.7248 387.989 11.7617 387.989 12.3334C387.989 12.9419 387.676 13.0341 387.161 13.0341H387.143ZM386.959 8.49756C384.291 8.49756 381.899 10.3417 381.899 13.532C381.899 16.7224 384.272 18.5665 386.959 18.5665C389.645 18.5665 392 16.7039 392 13.532C392 10.3601 389.608 8.49756 386.959 8.49756ZM386.959 17.4047C384.971 17.4047 383.352 15.8556 383.352 13.532C383.352 11.2084 384.971 9.65936 386.959 9.65936C388.946 9.65936 390.546 11.2084 390.546 13.532C390.546 15.8556 388.891 17.4047 386.959 17.4047Z"></path>
</svg>
