<?xml version="1.0" encoding="UTF-8"?>
<svg width="30px" height="30px" viewBox="0 0 30 30" version="1.1" xmlns="http://www.w3.org/2000/svg" xmlns:xlink="http://www.w3.org/1999/xlink">
    <g id="Page-1" stroke="none" stroke-width="1" fill="none" fill-rule="evenodd">
        <g id="icon-instagram" transform="translate(2.000000, 2.000000)" fill="#FFFFFF" fill-rule="nonzero">
            <path d="M22.9902344,25.2304688 C23.6933594,25.2304688 24.2890625,24.9863281 24.7773438,24.4980469 C25.265625,24.0097656 25.5097656,23.4335938 25.5097656,22.7695312 L25.5097656,22.7695312 L25.5097656,2.73046875 C25.5097656,2.06640625 25.265625,1.49023438 24.7773438,1.00195312 C24.2890625,0.513671875 23.6933594,0.26953125 22.9902344,0.26953125 L22.9902344,0.26953125 L3.00976562,0.26953125 C2.30664062,0.26953125 1.7109375,0.513671875 1.22265625,1.00195312 C0.734375,1.49023438 0.490234375,2.06640625 0.490234375,2.73046875 L0.490234375,2.73046875 L0.490234375,22.7695312 C0.490234375,23.4335938 0.734375,24.0097656 1.22265625,24.4980469 C1.7109375,24.9863281 2.30664062,25.2304688 3.00976562,25.2304688 L3.00976562,25.2304688 L22.9902344,25.2304688 Z M22.3457031,6.48046875 L19.8847656,6.48046875 C19.4550781,6.48046875 19.2402344,6.28515625 19.2402344,5.89453125 L19.2402344,5.89453125 L19.2402344,3.375 C19.2402344,2.9453125 19.4550781,2.73046875 19.8847656,2.73046875 L19.8847656,2.73046875 L22.3457031,2.73046875 C22.7753906,2.73046875 22.9902344,2.9453125 22.9902344,3.375 L22.9902344,3.375 L22.9902344,5.89453125 C22.9902344,6.28515625 22.7753906,6.48046875 22.3457031,6.48046875 L22.3457031,6.48046875 Z M13,17.7304688 C11.6132812,17.7304688 10.4316406,17.2421875 9.45507812,16.265625 C8.47851562,15.2890625 7.99023438,14.1171875 7.99023438,12.75 C7.99023438,11.3828125 8.47851562,10.2109375 9.45507812,9.234375 C10.4316406,8.2578125 11.6132812,7.76953125 13,7.76953125 C14.3867188,7.76953125 15.5683594,8.2578125 16.5449219,9.234375 C17.5214844,10.2109375 18.0097656,11.3828125 18.0097656,12.75 C18.0097656,14.1171875 17.5214844,15.2890625 16.5449219,16.265625 C15.5683594,17.2421875 14.3867188,17.7304688 13,17.7304688 Z M22.3457031,22.7695312 L3.59570312,22.7695312 C3.20507812,22.7695312 3.00976562,22.5546875 3.00976562,22.125 L3.00976562,22.125 L3.00976562,11.5195312 L5.58789062,11.5195312 C5.50976562,11.9101562 5.47070312,12.3203125 5.47070312,12.75 C5.47070312,14.8203125 6.203125,16.5878906 7.66796875,18.0527344 C9.1328125,19.5175781 10.9003906,20.25 12.9707031,20.25 C15.0410156,20.25 16.8085938,19.5175781 18.2734375,18.0527344 C19.7382812,16.5878906 20.4707031,14.8203125 20.4707031,12.75 C20.4707031,12.3984375 20.4316406,11.9882812 20.3535156,11.5195312 L20.3535156,11.5195312 L22.9902344,11.5195312 L22.9902344,22.125 C22.9902344,22.5546875 22.7753906,22.7695312 22.3457031,22.7695312 L22.3457031,22.7695312 Z" id=""></path>
        </g>
    </g>
</svg>