<?xml version="1.0" encoding="UTF-8"?>
<svg width="30px" height="30px" viewBox="0 0 30 30" version="1.1" xmlns="http://www.w3.org/2000/svg" xmlns:xlink="http://www.w3.org/1999/xlink">
    <g id="Page-1" stroke="none" stroke-width="1" fill="none" fill-rule="evenodd">
        <g id="icon-facebook" transform="translate(8.000000, 2.000000)" fill="#FFFFFF" fill-rule="nonzero">
            <path d="M8.93359375,25.2304688 L8.93359375,13.8632812 L12.8007812,13.8632812 L13.3867188,9.41015625 L8.93359375,9.41015625 L8.93359375,6.5390625 C8.93359375,5.8359375 9.08984375,5.30859375 9.40234375,4.95703125 C9.71484375,4.60546875 10.3007812,4.4296875 11.1601562,4.4296875 L11.1601562,4.4296875 L13.5625,4.37109375 L13.5625,0.4453125 C12.6640625,0.328125 11.5117188,0.26953125 10.1054688,0.26953125 C8.34765625,0.26953125 6.94140625,0.77734375 5.88671875,1.79296875 C4.83203125,2.80859375 4.3046875,4.25390625 4.3046875,6.12890625 L4.3046875,6.12890625 L4.3046875,9.41015625 L0.4375,9.41015625 L0.4375,13.8632812 L4.3046875,13.8632812 L4.3046875,25.2304688 L8.93359375,25.2304688 Z" id=""></path>
        </g>
    </g>
</svg>