<?xml version="1.0" encoding="UTF-8"?>
<svg width="30px" height="30px" viewBox="0 0 30 30" version="1.1" xmlns="http://www.w3.org/2000/svg" xmlns:xlink="http://www.w3.org/1999/xlink">
    <g id="Page-1" stroke="none" stroke-width="1" fill="none" fill-rule="evenodd">
        <g id="icon-youtube" transform="translate(2.000000, 7.000000)" fill="#FFFFFF" fill-rule="nonzero">
            <path d="M14.3769531,17.4804688 C15.3144531,17.4804688 16.515625,17.4609375 17.9804688,17.421875 C19.4453125,17.3828125 20.7050781,17.3242188 21.7597656,17.2460938 C22.8535156,17.0898438 23.6738281,16.7382812 24.2207031,16.1914062 C24.7285156,15.6835938 25.0605469,14.8632812 25.2167969,13.7304688 L25.2167969,13.7304688 L25.5097656,9.6875 L25.5097656,7.8125 C25.5097656,6.484375 25.4121094,5.13671875 25.2167969,3.76953125 L25.2167969,3.76953125 L25.2167969,3.59375 C25.1777344,3.4765625 25.1386719,3.3203125 25.0996094,3.125 C25.0605469,2.9296875 25.0019531,2.72460938 24.9238281,2.50976562 C24.8457031,2.29492188 24.7480469,2.08007812 24.6308594,1.86523438 C24.5136719,1.65039062 24.3769531,1.46484375 24.2207031,1.30859375 C23.6738281,0.72265625 22.8535156,0.37109375 21.7597656,0.25390625 C19.4160156,0.09765625 16.4863281,0.01953125 12.9707031,0.01953125 L12.9707031,0.01953125 L11.5644531,0.01953125 C10.6269531,0.01953125 9.43554688,0.0390625 7.99023438,0.078125 C6.54492188,0.1171875 5.29492188,0.17578125 4.24023438,0.25390625 C3.10742188,0.37109375 2.26757812,0.72265625 1.72070312,1.30859375 C1.21289062,1.81640625 0.880859375,2.63671875 0.724609375,3.76953125 L0.724609375,3.76953125 L0.490234375,7.8125 L0.490234375,9.6875 C0.490234375,11.015625 0.568359375,12.3632812 0.724609375,13.7304688 L0.724609375,13.7304688 L0.841796875,14.140625 C0.880859375,14.453125 0.98828125,14.8144531 1.1640625,15.2246094 C1.33984375,15.6347656 1.53515625,15.9570312 1.75,16.1914062 C1.96484375,16.4257812 2.21875,16.6210938 2.51171875,16.7773438 C2.8046875,16.9335938 3.04882812,17.03125 3.24414062,17.0703125 C3.43945312,17.109375 3.69335938,17.1484375 4.00585938,17.1875 C4.31835938,17.2265625 4.47460938,17.2460938 4.47460938,17.2460938 C5.80273438,17.3632812 8.63476562,17.4414062 12.9707031,17.4804688 L12.9707031,17.4804688 L14.3769531,17.4804688 Z M10.4511719,12.03125 L10.4511719,5 L17.1894531,8.515625 L16.3691406,8.92578125 L10.4511719,12.03125 Z" id=""></path>
        </g>
    </g>
</svg>