<?xml version="1.0" encoding="utf-8"?>
<!-- Generator: Adobe Illustrator 25.2.3, SVG Export Plug-In . SVG Version: 6.00 Build 0)  -->
<svg version="1.1" id="Layer_1" xmlns="http://www.w3.org/2000/svg" xmlns:xlink="http://www.w3.org/1999/xlink" x="0px" y="0px"
	 viewBox="0 0 150 150" style="enable-background:new 0 0 150 150;" xml:space="preserve">
<style type="text/css">
	.st0{fill:#231F20;}
</style>
<g>
	<path class="st0" d="M34.6,70.2c-0.1,2.4,1.5,3,3.1,3.6c1.9,0.8,4,1.2,5.8,2.1c3.8,1.9,5.5,5.4,4.9,9c-0.7,3.9-3.7,6.6-8,7.2
		c-0.2,0-0.4,0-0.5,0C33,92.8,32,91.9,32,85.1c0-8.2,0-16.4,0-24.7c0-3.7,0.9-4.7,4.5-4.7c2,0,4.2,0.1,6,0.9c3.9,1.6,4.7,6.2,1.5,9
		c-1.9,1.7-4.5,2.7-6.9,3.9C36.4,69.9,35.5,70,34.6,70.2 M51.6,72.5c-0.6-0.2-1.2-0.5-2-0.8c1.4-0.9,2.6-1.6,3.6-2.4
		c6.3-5,5.8-13-1.2-16.3c-2-1-4.4-1.5-6.7-1.5c-8.4-0.2-16.8-0.1-25.2-0.1c-0.6,0-1.1,0.2-1.9,0.3c0.8,1.9,1.8,3.5,2.2,5.2
		c0.4,1.9,0.1,3.9,0.1,5.9c0,7.7,0,15.4,0,23c0,3.5,0.7,7.2-2.1,10.1c-0.1,0.1,0,0.5,0,1c0.5,0.1,0.9,0.2,1.2,0.2
		c8.8,0,17.7,0,26.5-0.1c1.5,0,3-0.3,4.5-0.7c6.3-1.6,10-5.9,10.3-11.8C61,79.1,57.6,74.6,51.6,72.5 M74.9,55.8
		C74.8,52.7,72.2,50,69,50c-3.4,0-6.1,2.8-6.1,6.2c0.1,3.3,2.9,5.9,6.1,5.8C72.3,61.9,74.9,59.1,74.9,55.8 M62.5,96.8h14.6
		C77,96,77,95.4,76.7,95.1c-2-1.7-1.8-3.9-1.8-6.2c0-6.7,0-13.4,0-20.1c0-1.8-0.5-3-2.6-2.8c-3.4,0.5-6.9,1-10.6,1.5
		c0.3,0.8,0.4,1.7,0.9,2c2,1.5,2,3.6,2,5.8c-0.1,4.1,0,8.2,0,12.3c0,2.7,0.5,5.6-1.9,7.7C62.4,95.7,62.5,96.3,62.5,96.8 M95.5,96.7
		c-4.2-3.9-2.8-8.4-2.9-12.5c-0.1-10.5-0.1-20.9-0.1-31.4c0-1.8-0.3-3.3-2.6-3c-3.4,0.4-6.9,1-10.7,1.5c0.4,0.9,0.5,1.6,0.9,1.9
		c2.3,1.7,2.1,4.1,2.1,6.5c-0.1,9.2,0,18.4-0.1,27.6c0,2.8,0.6,5.8-1.9,8c-0.2,0.2-0.1,0.8-0.2,1.3H95.5z M98,96.7h14.6
		c-0.2-0.8-0.2-1.4-0.5-1.7c-1.9-1.6-1.8-3.7-1.7-5.9c0.1-5.7,0-11.4,0-17.1c0-6.4,0-12.8,0-19.3c0-1.7-0.2-3.2-2.4-3
		c-3.5,0.4-7,1-10.8,1.5c0.4,1,0.5,1.9,1,2.2c2.1,1.4,1.9,3.4,1.9,5.5c0,9.7,0,19.5,0,29.2c0,2.5,0.4,5.2-1.9,7.2
		C97.9,95.6,98,96.3,98,96.7 M127.9,56.1c0.1-3.2-2.7-6.1-5.9-6.1c-3.2,0-6,2.7-6.1,5.9c-0.1,3.2,2.6,6,5.9,6.1
		C125,62.1,127.8,59.4,127.9,56.1 M127.9,85.7c0-5.5,0-11.1,0-16.6c0-1.7-0.4-3.2-2.5-3c-3.5,0.4-7,1-10.8,1.5
		c0.4,0.9,0.5,1.8,1,2.1c2.1,1.6,2,3.8,2,6c-0.1,4.3-0.1,8.6,0,12.9c0,2.3,0.2,4.6-1.8,6.5c-0.3,0.3-0.2,1.1-0.3,1.8h15.4
		C127.2,93.3,127.9,89.4,127.9,85.7"/>
</g>
</svg>
