<?xml version="1.0" encoding="utf-8"?>
<!-- Generator: Adobe Illustrator 25.2.3, SVG Export Plug-In . SVG Version: 6.00 Build 0)  -->
<svg version="1.1" id="Layer_1" xmlns="http://www.w3.org/2000/svg" xmlns:xlink="http://www.w3.org/1999/xlink" x="0px" y="0px"
	 viewBox="0 0 150 150" style="enable-background:new 0 0 150 150;" xml:space="preserve">
<style type="text/css">
	.st0{fill:#231F20;}
</style>
<g>
	<path class="st0" d="M108.9,96.2c0.5,0,1,0.1,1,0.6c0,0.8-0.8,0.7-1.3,0.7h-0.7v-1.3H108.9z M109,95.8h-1.6v3.7h0.5v-1.7h0.8
		l1.1,1.7h0.5l-1.1-1.7c0.7,0,1.2-0.3,1.2-1c0-0.3-0.1-0.6-0.4-0.8C109.7,95.9,109.4,95.8,109,95.8 M105.7,97.7
		c0-1.6,1.3-2.9,2.9-2.9c1.6,0,2.9,1.3,2.9,2.9c0,1.6-1.3,2.9-2.9,2.9C107,100.6,105.7,99.3,105.7,97.7 M105.3,97.7
		c0,1.8,1.5,3.3,3.3,3.3c1.8,0,3.3-1.5,3.3-3.3c0-1.8-1.5-3.3-3.3-3.3C106.8,94.4,105.3,95.9,105.3,97.7 M82.9,76.2l-3.9,0
		c0.2-3.2,0.8-4.7,2-4.7C82.4,71.5,82.8,72.8,82.9,76.2 M86.7,80.1c0-0.5,0-1.1,0-1.7C86.8,68,84,66,81,66c-2.6,0-6.1,4.4-6.1,12.5
		c0,11.8,3,13.6,6.5,13.6c2.4,0,5.1-2.1,5.3-9.3l-3.7,0c-0.1,2.3-0.5,3.8-1.9,3.8c-1.5,0-2-2.2-2-6.4H86.7z M96.5,76.2l-3.9,0
		c0.2-3.2,0.8-4.7,2-4.7C96,71.5,96.4,72.8,96.5,76.2 M100.4,80.1c0-0.5,0-1.1,0-1.7c0-10.5-2.8-12.5-5.8-12.5
		c-2.6,0-6.1,4.4-6.1,12.5c0,11.8,3,13.6,6.5,13.6c2.4,0,5.1-2.1,5.3-9.3l-3.7,0c-0.1,2.3-0.5,3.8-1.9,3.8c-1.5,0-2-2.2-2-6.4H100.4
		z M115.1,65.6c-2.3,0-3.1,1-3.7,1.9c-0.5-0.8-1.2-1.9-2.5-1.9c-1.2,0-3,0.6-3.3,1.2V66h-3.8v25.2h3.7V71.7c0-1.1,0.7-1.7,1.4-1.7
		c0.7,0,1.5,0.5,1.5,1.7v19.5h3.5V71.8c0-1.2,0.6-1.7,1.5-1.7s1.4,0.8,1.4,1.7v19.4h3.7V69.9C118.5,68.3,117.3,65.6,115.1,65.6
		 M44.9,50.5c4.6,0,9.5,4.5,9.5,14.3s-6.6,12.9-8.2,13.6c-1.7,0.7-2.6,0-2.9-1V51.6C43.3,50.8,44,50.4,44.9,50.5 M122.4,75
		c0,26.2-21.2,47.4-47.4,47.4S27.6,101.2,27.6,75c0-10.5,3.4-20.2,9.2-28c0.6-0.5,1,0.2,1,0.5v54.7h5.6V85.5c0-0.8,0.5-1.4,1.1-0.8
		l18,21.1h7.1l-20.4-24c11.8-7.5,11-21.7,7-28.8c-4.5-8.1-13.1-7-17.7-7.1c-0.4,0-0.6-0.4-0.4-0.7c5.7-7,13.4-12.4,22.2-15.3v61.3h4
		V72.6c0-1.8,1.3-2.3,2.3-2.3c1,0,2,0.6,2,2.3v18.6h4.1V71.8c0-2.3-1.2-8-8.3-6l0-37c3.4-0.8,7-1.2,10.6-1.2
		C101.2,27.6,122.4,48.8,122.4,75 M125.9,75c0-28.1-22.8-50.9-50.9-50.9S24.1,46.9,24.1,75s22.8,50.9,50.9,50.9
		S125.9,103.1,125.9,75"/>
</g>
</svg>
