<?xml version="1.0" encoding="utf-8"?>
<!-- Generator: Adobe Illustrator 25.2.3, SVG Export Plug-In . SVG Version: 6.00 Build 0)  -->
<svg version="1.1" id="Layer_1" xmlns="http://www.w3.org/2000/svg" xmlns:xlink="http://www.w3.org/1999/xlink" x="0px" y="0px"
	 viewBox="0 0 150 150" style="enable-background:new 0 0 150 150;" xml:space="preserve">
<style type="text/css">
	.st0{fill:#231F20;}
</style>
<g>
	<path class="st0" d="M7.2,77.8L7.2,77.8c0.2,0.2,0.2,0.4,0.2,0.7c0,0.9-0.8,1.2-2.2,1.2c-0.9,0-1.8-0.2-2.7-0.5
		c-0.7-0.3-1.3-0.6-2.3-1.3v3.1c0.4,0.3,0.5,0.3,1.3,0.6c1.5,0.6,2.6,0.8,3.8,0.8c3.4,0,5.7-1.7,5.7-4.3c0-0.1,0-0.2,0-0.3h0
		c0-0.7-0.2-1.3-0.5-1.8c-0.6-1.1-1.7-1.8-3.5-2.5l-1.1-0.4c-1.6-0.5-2.3-1.1-2.3-1.7c0-0.8,1-1.1,2.2-1.2c0.9-0.1,2.3,0,3.4,0.4
		v-2.7c-1.1-0.4-2.6-0.4-3.7-0.4c-3.1,0-5.3,1.5-5.3,4c0,1.1,0.2,2,0.9,2.8c0.4,0.4,0.8,0.7,1.3,1c0.7,0.4,1.3,0.6,2.3,1l0.9,0.3
		C6.4,77.1,6.9,77.4,7.2,77.8 M17.2,82.2V70.6h3.5v-2.8H10v2.8h3.5v11.7H17.2z M0.1,66.3H150v-2.7H0.1V66.3z M25.6,67.8H22v14.4h3.6
		V67.8z M31.7,79.6v-3.4h4.9v-2.7h-4.9v-2.9h5.2v-2.8h-8.8v14.4h9v-2.6H31.7z M46.9,77.9c0,1.2-0.7,1.6-2.2,1.7h-2.1v-3.4h2.1
		C46.2,76.3,46.9,76.8,46.9,77.9 M45.9,72c0,0.9-0.5,1.3-1.2,1.5c-0.3,0-0.6,0.1-1,0.1h-1.2v-3.1h1.3c0.3,0,0.6,0,0.9,0.1
		C45.5,70.7,45.9,71.1,45.9,72 M47.5,74.3c1.1-0.6,1.8-1.6,1.8-2.9c0-1.5-1.1-2.8-2.6-3.3c-0.6-0.2-1-0.3-2-0.3h-5.6v14.4l5.6,0.1
		h0.4c1.2,0,1.9-0.2,2.6-0.3c1.7-0.6,2.6-2.1,2.6-3.9C50.3,76.2,49.4,75,47.5,74.3 M55.8,79.6v-3.4h4.8v-2.7h-4.8v-2.9h5.2v-2.8
		h-8.8v14.4h9v-2.6H55.8z M67.2,79.6V67.8h-3.7v14.4h8.6v-2.7H67.2z M82.1,79.6v-3.4H87v-2.7h-4.9v-2.9h5.1v-2.8h-8.8v14.4h9v-2.6
		H82.1z M103.4,82.2V70.6h3.5v-2.8H96.2v2.8h3.5v11.7H103.4z M89.6,82.2h8.6v-2.7h-5V67.8h-3.6V82.2z M111.9,73.7v-3.3h1.8
		c1.3,0,2,0.5,2,1.7c0,0.9-0.7,1.6-1.6,1.6l-0.4,0l-0.3,0H111.9z M111.9,82.2v-5.9h0.5c0.6,0,0.7,0,1,0.1c0.7,0.2,1.4,1,1.9,2.2
		l0.6,1.2l0.4,0.9l0.3,0.7l0.3,0.6l0.1,0.1h4l-0.1-0.2l-0.4-0.8l-0.4-1l-0.4-0.8l-0.6-1.2c-0.7-1.5-1.3-2.3-2.1-2.7
		c0.6-0.3,0.9-0.4,1.2-0.8c0.8-0.7,1.2-1.7,1.2-2.8c0-1.4-0.7-2.7-1.9-3.4c-0.9-0.6-1.7-0.7-3.8-0.7h-5.5v14.4H111.9z M124.4,75
		c0-2.7,1.4-4.4,3.7-4.4c2.2,0,3.7,1.7,3.7,4.5c0,2.5-1.6,4.3-3.7,4.3C125.9,79.4,124.4,77.7,124.4,75 M120.8,75
		c0,4.2,3.1,7.4,7.2,7.4h0.1c4.1,0,7.3-3.2,7.3-7.4c0-4.2-3.2-7.3-7.3-7.3C123.9,67.6,120.8,70.8,120.8,75 M140.6,82.3v-8.9l6.5,8.9
		h2.8V67.9h-3.3v8.5l-6.4-8.5h-3v14.4H140.6z M150,83.7H0.1v2.7H150V83.7z"/>
</g>
</svg>
