<?xml version="1.0" encoding="utf-8"?>
<!-- Generator: Adobe Illustrator 25.2.3, SVG Export Plug-In . SVG Version: 6.00 Build 0)  -->
<svg version="1.1" id="Layer_1" xmlns="http://www.w3.org/2000/svg" xmlns:xlink="http://www.w3.org/1999/xlink" x="0px" y="0px"
	 viewBox="0 0 150 150" style="enable-background:new 0 0 150 150;" xml:space="preserve">
<style type="text/css">
	.st0{fill:#231F20;}
</style>
<g>
	<path class="st0" d="M48.5,65.3c0-0.2,0.1-0.4,0.1-0.7c0-0.2,0-0.4,0-0.7c0-0.2-0.1-0.4-0.1-0.6c-0.1-0.2-0.1-0.4-0.2-0.6
		c-0.1-0.2-0.2-0.4-0.3-0.6c-0.1-0.2-0.3-0.4-0.4-0.5c-0.2-0.2-0.3-0.3-0.5-0.5c-0.2-0.2-0.4-0.3-0.6-0.4c-0.2-0.1-0.5-0.2-0.7-0.3
		c-0.3-0.1-0.5-0.2-0.8-0.2C44.3,60,44,60,43.7,60c-0.3,0-0.6,0-0.9,0c-0.3,0-0.6,0.1-0.8,0.1c-0.3,0.1-0.5,0.1-0.8,0.2
		c-0.2,0.1-0.5,0.2-0.7,0.4c-0.2,0.1-0.4,0.3-0.6,0.4c-0.2,0.2-0.3,0.3-0.5,0.5c-0.1,0.2-0.3,0.4-0.4,0.6c-0.1,0.2-0.2,0.4-0.3,0.6
		c-0.1,0.2-0.1,0.4-0.2,0.6c0,0.2-0.1,0.4-0.1,0.7c0,0.2,0,0.4,0,0.7c0,0.2,0.1,0.4,0.1,0.7c0.1,0.2,0.1,0.4,0.2,0.6
		c0.1,0.2,0.2,0.4,0.3,0.6c0.1,0.2,0.3,0.4,0.4,0.5c0.2,0.2,0.4,0.3,0.5,0.5c0.2,0.2,0.4,0.3,0.6,0.4c0.2,0.1,0.5,0.2,0.8,0.3
		c0.3,0.1,0.6,0.2,0.9,0.2c0.3,0.1,0.7,0.1,1,0.1l1,0c0.3-0.1,0.6-0.1,0.9-0.2c0.3-0.1,0.5-0.2,0.8-0.3c0.2-0.1,0.5-0.2,0.7-0.4
		c0.2-0.1,0.4-0.3,0.6-0.4c0.2-0.2,0.3-0.3,0.5-0.5c0.1-0.2,0.3-0.4,0.4-0.6c0.1-0.2,0.2-0.4,0.3-0.6C48.4,65.7,48.5,65.5,48.5,65.3
		 M21.6,71.1c-0.2,3.8-3.1,6.8-6.8,7c-0.5,0-0.5-0.8-0.5-1l-0.1-10.7c0-0.8,0.6-1.5,1.4-1.5C19.3,64.7,21.8,67.6,21.6,71.1
		 M105.6,92.3c-0.2-0.1-0.3-0.8-0.3-1.5l-0.1-14.6c0-3.8-3.5-5.4-6.8-5.4c-3.7,0-4.2,1-5.8,1.3c-0.8-0.5-0.9-1.1-1.6-1.1
		c-0.6,0-1,0.1-1.3,0.2l-8.7,3c-0.6,0.2-1.2,0.7-1.2,1.3c0,1,1.2,1,1.8,1.5c0.5,0.4,0.5,0.8,0.5,1.4l0,12.4c0,1.2-1.5,1.5-2.4,1.4
		c-1.4,0-2.1-0.4-2.1-1.6L77.5,76c0-2.9-1.9-4.7-4.7-5.1c-3-0.4-5.5,0.5-8.3,1.2c-0.1-0.1-0.2-0.3-0.3-0.4c-0.1-0.2-0.2-0.5-0.4-0.7
		c-0.1-0.1-0.3-0.2-0.5-0.2c-0.3,0-0.5,0.1-0.8,0.2c-3.1,1-6.1,2-9.2,3.1c-0.6,0.2-1.2,0.7-1.2,1.4c0,0.8,0.6,1,1.2,1.2
		c0.6,0.2,1,0.1,1,0.9l0,12.5c0,1.3,0.3,2-1.3,1.9L50,92c-0.3,0-0.8,0-1-0.3c-0.2-0.3-0.2-0.8-0.2-1.2L49,72.5
		c0-0.4,0.1-1.3-0.3-1.6c-0.4-0.3-1.1,0-1.4,0.2l-9.7,3.4c-0.5,0.2-1.2,0.5-1.3,1.1c-0.2,0.9,0.8,1.3,1.4,1.6c0.5,0.2,1,0.4,1,0.4
		l0.1,12.3c-0.1,1.2,0.2,2.1-1.2,2.1c-0.9-0.1-1.5-0.5-2.1-1.2l-8.4-11c2.8-1.9,5.5-5.1,5.3-8.5c-0.3-5-5-9.6-11.3-9.6
		c-6.2,0-12.4-0.1-18.6-0.1c-0.7,0-1.7,0.4-1.9,1.1c-0.2,1,0.7,1.2,1.3,1.6c1,0.8,1.1,2.3,1.1,3.5c0,7.5,0,15-0.1,22.5
		c0,1.5-1.5,1.6-2.4,2.4C0.2,93.1-0.1,93.5,0,94c0.1,0.4,0.5,0.7,0.9,0.7l15.7,0c0.4,0,0.6-0.4,0.6-0.7c-0.1-1.3-0.9-1.5-1.9-1.8
		c-0.8-0.2-0.8-0.6-0.8-1.4l0-7.6l7.6,10.2c0.3,0.4,0.5,0.7,0.9,1c0.6,0.4,1.5,0.3,2.2,0.3c13.2,0,25.9,0,39.1,0
		c0.9,0,1.3-0.5,1.3-1c0-1.7-1.4-0.9-1.4-3.3l0-13.5c0-0.9,1-1.7,1.8-1.7c1,0,1.5,0.8,1.5,1.7c0,4.5,0,9,0.1,13.5
		c0,1.1-1.4,2.1-1.4,3.4c0,0.6,0.4,0.9,1,0.9h24.5c0.7,0,1.6,0,1.6-0.8c0-1.7-1.5-1-1.5-3.9c0-4.6,0-8.4,0-13c0-0.9,0.6-2.1,1.7-2
		c1.3,0.1,1.8,1.1,1.8,2.2l-0.1,12.4c0,2-1.8,3.2-1.5,4.4c0.1,0.6,0.9,0.7,1.4,0.7l9.9,0C106.4,94.7,106.6,93.2,105.6,92.3
		 M118.8,84.4l-0.1,3.9c0,0.9-1.3,1.7-2.1,1.7c-1.7,0-1.5-2.3-1.1-3.4c0.3-0.7,1.8-3.1,2.6-3.1C118.8,83.6,118.8,84,118.8,84.4
		 M129.5,89.6c-0.6,0.1-1.7,0.8-1.7-0.5c-0.1-4.3-0.1-8.6-0.2-13c-0.1-4.6-5.1-6-9.1-6c-1.9,0-3.8,0.4-5.6,1c-3,1-6.8,3.4-6.5,7
		c0.2,2,1.9,3.5,3.9,3.8c4.6,0.7,4.9-2.7,5.4-6.2c0.1-1,0.9-2,2-2c0.5,0,0.9,0.4,0.9,0.9l-0.1,3.9c0,0.3,0,0.7-0.3,0.9
		c-0.3,0.4-0.9,0.6-1.3,0.8c-3,1.5-6.5,2.7-8.9,5.2c-1.5,1.8-2.1,4.1-1.3,6.5c0.7,2.1,3.2,2.9,5.2,3.1c3.2,0,4.1-1.7,6.6-2.9
		c2.1,1.3,3.8,2.5,6.3,2.7c2.6-0.1,4.9-0.9,5.7-3.5c0.2-0.6,0.3-1.4,0.1-2C130.4,89,129.9,89.6,129.5,89.6 M142.7,65
		c0-0.2,0.1-0.4,0.1-0.6c0-0.2,0-0.4,0-0.6c0-0.2-0.1-0.4-0.1-0.6c-0.1-0.2-0.2-0.4-0.3-0.6c-0.1-0.2-0.2-0.4-0.4-0.6
		c-0.2-0.2-0.3-0.4-0.5-0.6c-0.2-0.2-0.4-0.4-0.7-0.5c-0.3-0.2-0.5-0.3-0.8-0.4c-0.3-0.1-0.6-0.2-0.8-0.3c-0.3-0.1-0.5-0.1-0.8-0.2
		c-0.3,0-0.5,0-0.8,0c-0.3,0-0.5,0.1-0.8,0.1c-0.2,0-0.5,0.1-0.7,0.2c-0.2,0.1-0.5,0.2-0.7,0.3c-0.2,0.1-0.4,0.2-0.6,0.4
		c-0.2,0.1-0.4,0.3-0.5,0.5c-0.2,0.2-0.3,0.3-0.5,0.5c-0.1,0.2-0.3,0.4-0.4,0.6c-0.1,0.2-0.2,0.4-0.3,0.6c-0.1,0.2-0.1,0.4-0.2,0.6
		c0,0.2-0.1,0.4-0.1,0.7c0,0.2,0,0.4,0,0.7c0,0.2,0.1,0.4,0.2,0.6c0.1,0.2,0.2,0.4,0.3,0.6c0.1,0.2,0.3,0.4,0.4,0.6
		c0.2,0.2,0.4,0.4,0.6,0.6c0.2,0.2,0.5,0.3,0.7,0.5c0.3,0.2,0.6,0.3,0.9,0.4c0.3,0.1,0.5,0.2,0.8,0.3c0.3,0.1,0.5,0.1,0.8,0.1
		c0.3,0,0.5,0,0.8,0c0.2,0,0.5-0.1,0.7-0.1c0.2-0.1,0.5-0.1,0.7-0.2c0.2-0.1,0.4-0.2,0.6-0.3c0.2-0.1,0.4-0.2,0.6-0.4
		c0.2-0.1,0.4-0.3,0.5-0.5c0.2-0.2,0.3-0.3,0.5-0.5c0.1-0.2,0.3-0.4,0.4-0.6c0.1-0.2,0.2-0.4,0.3-0.6
		C142.5,65.4,142.6,65.2,142.7,65 M145.8,94.2c0-0.1,0-0.3-0.1-0.4c-0.4-0.6-0.9-0.9-1.4-1.3c-0.5-0.4-1.3-1.1-1.3-1.8l0.1-18.6
		c0-0.3,0-0.9-0.2-1.2c-0.3-0.5-1.2,0-1.5,0.1c-3.2,1.1-6.5,2.2-9.7,3.2c-0.7,0.2-1.8,1.1-1.1,1.9c0.7,0.8,1.7,1.3,2.3,2.1
		c0.3,0.4,0.5,0.9,0.5,1.5l0.1,10.1c0,0.5-0.3,1.2-0.7,1.5c-0.5,0.5-1.4,0.7-1.9,1.3c-0.7,0.8-1.1,2,0.2,2l13.2-0.1
		C145.4,94.7,145.7,94.7,145.8,94.2 M148.3,56.5c-0.1,0-0.2,0-0.4,0h-0.3V56h0.3c0.2,0,0.3,0,0.3,0c0.1,0,0.1,0,0.2,0.1
		c0,0,0.1,0.1,0.1,0.2c0,0.1,0,0.1,0,0.2C148.4,56.4,148.3,56.5,148.3,56.5 M148.6,57c-0.1-0.1-0.1-0.1-0.2-0.2
		c0.2,0,0.3-0.1,0.4-0.2s0.1-0.2,0.1-0.4c0-0.1,0-0.2-0.1-0.3c-0.1-0.1-0.1-0.2-0.3-0.2c-0.1,0-0.3-0.1-0.5-0.1h-0.9v2.2h0.4v-0.9
		h0.1c0.1,0,0.2,0,0.2,0c0,0,0.1,0,0.1,0.1c0,0,0.1,0.2,0.2,0.3l0.3,0.5h0.5l-0.3-0.4C148.7,57.2,148.6,57.1,148.6,57 M149.7,56.7
		c0,0.5-0.2,0.9-0.5,1.2c-0.3,0.3-0.7,0.5-1.2,0.5h0h0c-0.5,0-0.9-0.2-1.2-0.5c-0.3-0.3-0.5-0.7-0.5-1.2v0c0-0.5,0.2-0.9,0.5-1.2v0
		c0.3-0.3,0.7-0.5,1.2-0.5h0h0c0.5,0,0.9,0.2,1.2,0.5C149.5,55.8,149.7,56.2,149.7,56.7L149.7,56.7L149.7,56.7z M150,56.7L150,56.7
		L150,56.7c0-0.6-0.2-1.1-0.6-1.4s-0.9-0.6-1.4-0.6h0h0c-0.6,0-1.1,0.2-1.4,0.6c-0.4,0.4-0.6,0.9-0.6,1.4v0c0,0.6,0.2,1.1,0.6,1.4
		c0.4,0.4,0.9,0.6,1.4,0.6h0h0c0.6,0,1.1-0.2,1.4-0.6C149.8,57.7,150,57.2,150,56.7"/>
</g>
</svg>
