<?xml version="1.0" encoding="utf-8"?>
<!-- Generator: Adobe Illustrator 25.2.3, SVG Export Plug-In . SVG Version: 6.00 Build 0)  -->
<svg version="1.1" id="Layer_1" xmlns="http://www.w3.org/2000/svg" xmlns:xlink="http://www.w3.org/1999/xlink" x="0px" y="0px"
	 viewBox="0 0 150 150" style="enable-background:new 0 0 150 150;" xml:space="preserve">
<style type="text/css">
	.st0{fill:#231F20;}
</style>
<g>
	<path class="st0" d="M12.1,84.1h3.8V65.9h-3.8v7.3H3.8v-7.3H0v18.3h3.8v-7.7h8.3V84.1z M21.5,84.1h3.8V65.9h-3.8V84.1z M46.9,76.2
		v-1.6h-7.2v3h3.5c-0.4,2.1-1.9,3.5-4.2,3.5c-3.1,0-4.9-2.5-4.9-6.1c0-3.5,1.8-6.1,4.9-6.1c2.1,0,3.2,1.1,3.9,2.8h3.8
		c-0.7-3.7-3.3-6.2-7.7-6.2c-5,0-8.7,3.8-8.7,9.4c0,5.6,3.7,9.4,8.8,9.4C43.5,84.4,46.9,81.2,46.9,76.2 M64.1,84.1h3.8V65.9h-3.8
		v7.3h-8.3v-7.3H52v18.3h3.8v-7.7h8.3V84.1z M73.5,84.1h12.3v-3.4h-8.5V65.9h-3.8V84.1z M104.6,84.1h3.9l-7-18.3h-3.8l-7,18.3h3.8
		l5-13.7L104.6,84.1z M125.9,84.1h3V65.8h-3.7v11.6l-8.1-11.6h-3.6v18.3h3.7V72L125.9,84.1z M146.2,75c0,3.5-1.9,5.8-5.4,5.8h-2.5
		V69.2h2.5C144.3,69.2,146.2,71.4,146.2,75 M150,75c0-5.6-3.5-9.1-9-9.1h-6.5v18.3h6.5C146.5,84.1,150,80.6,150,75"/>
</g>
</svg>
