<?xml version="1.0" encoding="utf-8"?>
<!-- Generator: Adobe Illustrator 25.2.3, SVG Export Plug-In . SVG Version: 6.00 Build 0)  -->
<svg version="1.1" id="Layer_1" xmlns="http://www.w3.org/2000/svg" xmlns:xlink="http://www.w3.org/1999/xlink" x="0px" y="0px"
	 viewBox="0 0 150 150" style="enable-background:new 0 0 150 150;" xml:space="preserve">
<style type="text/css">
	.st0{fill:#231F20;}
</style>
<g>
	<path class="st0" d="M38.7,71.7c0-2.5-3.8-2.3-3.8-2.3V74C34.9,74,38.7,74.2,38.7,71.7 M3.4,65.1h19v6.3h-4.3v-2h-4.6v3.4h3.8v4.4
		h-3.8v4.1h2.3v4.3H3.4v-4.2h1.9V69.8H3.4V65.1z M24.4,65.1h14.9c0,0,7.1,0.5,7.6,5.8c0.2,2.6-3.2,4.5-3.2,4.5l3,6h2.1v4.3h-8
		l-3.6-8.5h-2.2v4.2h2v4.3H24.7v-4.3h1.9V69.7h-2.3V65.1z M0,99.2h50V50.8H0V99.2z M62.2,69.8l-2.1,5.8h4.2L62.2,69.8z M52.7,81.3
		l0.9,0l3.9-11.9h-2.1v-4.4h15.5v4.3h-2.3l3.5,12h2.2v4.3H63.1v-4.3H65l-0.4-2.3h-5.3l-0.4,2.3h2v4.3h-8.2V81.3z M75.9,81.4h1.6
		l0-12l-1.6,0v-4.3H84l8,10.1v-5.7h-1.8v-4.4h8.1v4.3h-1.5v16.3h-6.7l-7.6-10.8v6.5h1.8v4.3h-8.6V81.4z M51.3,99.2h48.2V50.8H51.3
		V99.2z M146.9,85.6h-19V81h2.4v-12h-2.4v-3.9h19v6.2h-4.7v-2.4h-4.2v4.3h3.5v3.9h-3.6V81h4.3v-2.4h4.7V85.6z M126.7,85.6h-11.3
		v-4.3h1.9l-5.1-5.4v5.4h1.7v4.3h-12v-4.3h2.3v-12l-2.3,0v-4.3h12V69H112v5l4.9-5l-1.5,0v-3.9h9.7v3.9h-1.5l-5.5,5.9l6.3,6.2h2.2
		V85.6z M150,50.8h-49.2v48.5H150V50.8z"/>
</g>
</svg>
