<?xml version="1.0" encoding="utf-8"?>
<!-- Generator: Adobe Illustrator 25.2.3, SVG Export Plug-In . SVG Version: 6.00 Build 0)  -->
<svg version="1.1" id="Layer_1" xmlns="http://www.w3.org/2000/svg" xmlns:xlink="http://www.w3.org/1999/xlink" x="0px" y="0px"
	 viewBox="0 0 150 150" style="enable-background:new 0 0 150 150;" xml:space="preserve">
<style type="text/css">
	.st0{fill:#231F20;}
</style>
<g>
	<path class="st0" d="M5.8,93l-1.1-2.1H4.2l1.4,2.6c-0.2,0.5-0.4,0.7-0.8,0.7c-0.1,0-0.3,0-0.5-0.1v0.4c0.2,0.1,0.3,0.1,0.5,0.1
		c0.5,0,0.8-0.3,0.9-0.6l1.6-3H6.8L5.8,93z M2.2,93.2H0.4v-1.3h1.8c0.6,0,1,0.2,1,0.7C3.2,93.1,2.7,93.2,2.2,93.2 M0.4,90.2h1.4
		c0.7,0,1.3,0,1.3,0.6c0,0.5-0.6,0.6-1.1,0.6H0.4V90.2z M3,91.6c0.2-0.1,0.6-0.3,0.6-0.8c0-1-1-1-1.4-1H0v3.7h1.9c0.8,0,1.8,0,1.8-1
		C3.7,91.9,3.2,91.7,3,91.6 M75.6,90.2v-2.1h2.6c1.1,0,1.8,0.1,1.8,1c0,0.9-0.8,1-1.8,1H75.6z M80.8,89.2c0-1.5-1.4-1.7-2.4-1.7
		h-3.5v6h0.7v-2.7H78l1.9,2.7h0.9l-2-2.7C79.6,90.8,80.8,90.5,80.8,89.2 M87.8,92.5l-4.5-5h-1v6H83v-5.4l4.8,5.4h0.7v-6h-0.7V92.5z
		 M147.9,90.7L147.9,90.7l0.1-0.1l0-0.1l-0.1-0.1h-0.2l-0.1,0l0,0.1L147.9,90.7L147.9,90.7z M147.9,90.1L147.9,90.1l0.2,0.2l0.1,0
		l0.1-0.1l0,0.1v0.1l0,0.1l0.1,0l0.1-0.1l0-0.1l0-0.2v-0.2l0-0.1l0-0.2l0,0l0-0.1l-0.1-0.1l0,0.1l0-0.1l0-0.1l0-0.1h-0.1l0,0.1
		l0,0.1l0,0.1l0,0.1l-0.1,0v0.1l-0.1,0.1l0,0l-0.1,0.1l-0.1,0.1l-0.1,0.1l0,0.1L147.9,90.1L147.9,90.1z M59.2,92.5l-4.5-5h-1v6h0.7
		v-5.4l4.8,5.4H60v-6h-0.7V92.5z M69.2,90.7h3.9v-0.6h-3.9v-1.9h4.6v-0.6h-5.4v6h5.5v-0.6h-4.7V90.7z M60.9,88.2h2.9v5.4h0.7v-5.4
		h2.9v-0.6h-6.6V88.2z M119,92.5l-4.5-5h-1v6h0.7v-5.4l4.8,5.4h0.7v-6H119V92.5z M129.4,87.5h-0.7v6h5.5v-0.6h-4.8V87.5z M51.4,93.6
		h0.7v-6h-0.7V93.6z M114.5,76.3c0,1.9-1.9,2.7-3.4,2.7c-1.5,0-2.1-1.1-2.1-2.4c0-1.5,0.9-2.4,3.1-2.8c0.7-0.1,1.6-0.4,2.3-0.9V76.3
		z M119.8,69.1c0-3.1-1.2-5.3-7.8-5.3c-4.1,0-7.5,1.3-7.5,5.3v0.4h4.9v-0.5c0-1.3,0.9-2.2,2.5-2.2c1.8,0,2.5,0.8,2.5,2.1
		c0,1.2-0.6,1.7-2.2,2l-3.1,0.7c-3.8,0.8-5.4,2.1-5.4,5.4c0,2.3,1.4,4.9,5.2,4.9c2.6,0,4.2-0.4,5.5-2.2h0.1c0.2,0.6,0.3,1.2,0.7,1.8
		h5.3c-0.6-1-0.7-1.7-0.7-3.3V69.1z M132.5,68c0.6,0,1.2,0,1.7,0.1v-4.2c-0.3,0-0.7-0.1-1-0.1c-2.3,0-3.8,1.1-4.9,2.8h-0.1v-2.3
		h-5.3v17.2h5.5V71.2C128.4,68.8,130.6,68,132.5,68 M103.4,93.6h0.7v-6h-0.7V93.6z M97.1,63.8c-2.6,0-4.6,0.9-5.4,2.8h-0.1
		c-0.6-1.8-2.4-2.8-4.9-2.8c-2.3,0-4,0.6-5.4,2.2h-0.1v-1.8h-5.3v17.2h5.5V70.2c0-2,1.1-3,2.9-3c1.6,0,2.1,0.8,2.1,2.2v12.1h5.5
		V70.2c0-2,1.1-3,2.9-3c1.6,0,2.2,0.8,2.2,2.2v12.1h5.5V69C102.4,65.6,100.7,63.8,97.1,63.8 M95.8,88.2h2.9v5.4h0.7v-5.4h2.9v-0.6
		h-6.6V88.2z M108.8,93.1c-1.5,0-2.8-0.8-2.8-2.6c0-1.3,1-2.5,2.8-2.5s2.8,1.1,2.8,2.5C111.6,92.3,110.3,93.1,108.8,93.1
		 M108.8,87.4c-2,0-3.5,1.2-3.5,3.2c0,2.1,1.8,3.1,3.5,3.1c1.7,0,3.5-1,3.5-3.1C112.3,88.6,110.8,87.4,108.8,87.4 M91.4,91.3
		l1.6-3.2l1.6,3.2H91.4z M92.6,87.5l-3.1,6h0.8l0.8-1.6H95l0.8,1.6h0.8l-3.1-6H92.6z M135.6,62.9h0.2v-1.9h0.6v-0.2h-1.5v0.2h0.6
		V62.9z M45.6,89.9l-2-2.4h-1.7l3,3.6v2.4h1.4v-2.4l3-3.6h-1.7L45.6,89.9z M146.1,96.1L146.1,96.1L146,96l-0.1-0.1l-0.1-0.1l0-0.1
		l-0.1-0.1h-0.1l-0.1,0.1l-0.1,0.1l-0.1,0l-0.1,0l-0.1,0l-0.1-0.1l-0.1,0l-0.1,0h-0.1l-0.1,0l-0.1,0l-0.1,0.1l-0.1,0l-0.1-0.1
		l-0.1,0l-0.1,0l-0.1,0l-0.1,0l-0.1,0h-0.1l-0.1,0h-0.1l-0.1,0l-0.1-0.1l0-0.1l-0.1-0.1h-0.1l-0.1,0l-0.1,0.1l-0.1,0l-0.1,0l-0.1,0
		l-0.1-0.1l-0.1-0.1l-0.1-0.1l-0.1-0.1l-0.1,0l-0.1,0l-0.1,0l-0.1,0l-0.1,0.1l-0.1,0.1l-0.1,0.1l-0.1,0.1l-0.1,0l-0.1,0l-0.1,0
		l-0.1,0l-0.1,0.1l-0.1,0l-0.1,0l-0.1,0l-0.1,0.1l-0.1,0.1l-0.1,0.1l-0.1,0.1l-0.1,0.1l-0.1,0l-0.1,0l-0.1,0l-0.1,0l-0.1-0.1
		l-0.1-0.1l-0.1-0.1l-0.1-0.1l-0.1-0.1l0-0.1l-0.1-0.1l-0.1-0.1l-0.1,0h-0.1l-0.1,0l-0.1,0l-0.1,0l-0.1,0l-0.1,0l0,0.1h-0.1l-0.1,0
		l0,0.1l0,0.2H140l-0.1,0l-0.1,0l-0.1,0l-0.1,0h-0.1l-0.1,0v-0.1l-0.1,0l0,0.1l0,0.1l-0.1,0l-0.1,0l-0.1-0.1l-0.1,0.1l0,0.1l0,0.1
		c-0.5-0.2-0.9-0.5-1.4-0.9c-1.2-1-2.1-2.3-2.4-3.8c0.4,0.1,0.8,0.3,1.2,0.4c0.5,0.2,1,0.4,1.7,0.6v0l0,0.1l0,0.1l0,0.2l0.1,0.1
		l0.1,0.1l0.1,0.1l0.1,0.1l0.1,0.1l0.1,0.1l0.1,0.1l0.1,0.1l0.1,0.1l0.1,0.1l0.1,0.1l0.1,0.1l0,0l0.1,0.1l0.1,0l0.1,0l0.1,0l0.1,0
		l0.1,0l0.1,0l0-0.1l0-0.1l0,0l0-0.1l0-0.1l-0.1-0.1l-0.1-0.1l0-0.3l0-0.3l0-0.2l0.1-0.2l0.1-0.1l0.1,0l0.1-0.1l0.1,0l0.1-0.1l0.1,0
		c1,0.2,2.1,0.4,3.5,0.5c0,0.1,0.1,0.6,0.1,0.6l2.7-1.4l-2.2-0.7l0,0l0-0.1l0-0.1l0.1-0.1l0.1-0.1l0.1-0.1l0-0.1l0-0.2l0-0.2v-0.2
		l0-0.2c0.2,0,0.4,0,0.7,0c0,0.2,0.1,0.7,0.1,0.7l2.5-1.3l0,0l0,0.1l0.1,0.1l0-0.1l0-0.1l0-0.1l0,0l0,0l0,0l0-0.1l0-0.1l0-0.1l0-0.1
		l0-0.1l-0.1-0.1l-0.1,0l0,0.1l0.1,0.2l0,0.1l-2.6-0.8l0,0l0-0.1l0-0.1l0-0.1l0.1-0.1l0-0.1l0-0.1v-0.1l0-0.1l-0.1,0l-0.1,0l-0.1,0
		l-0.1,0l-0.1-0.1l-0.1-0.1l-0.1-0.1l-0.1-0.1l-0.1-0.1l-0.1-0.1l-0.1-0.1l-0.1,0l-0.1,0.1l-0.1,0.1l0,0.1l0,0l-0.1,0l-0.1,0l-0.1,0
		l-0.1,0l0,0l-0.1,0l-0.1-0.1l0-0.1V88c0.5,0,1,0.1,1.5,0.1l0,0.1l0,0.1l0,0.1l0,0.2l0,0.2l0.1,0.2l0.1,0l0-0.1l0-0.1l0-0.2l0-0.2
		l0-0.1l0-0.1l0.1-0.2l0,0c0.2,0,0.3,0,0.5,0l0,0l0.1,0.1l0,0.1l0,0.2l0,0.2l0,0.2l0,0.2h0.1l0.1,0.1l0,0.1l0.1,0.1l0.1,0.1l0,0l0,0
		l0,0l0,0l0-0.2l0-0.2l0-0.2l0-0.2l0.1,0l0.1,0l0.1,0h0.1v-0.2l0-0.2l0,0c0.7-0.4,2.3-1.2,2.3-1.2c0.3,0.8,0.5,1.7,0.5,2.6
		C149.7,92.5,148.3,94.9,146.1,96.1 M144.5,89.8L144.5,89.8l0.1-0.2l0-0.1l0-0.1l0.1-0.1l0,0c0,0.1,0,0.3,0,0.5
		C144.7,89.8,144.6,89.8,144.5,89.8 M139.5,89.2L139.5,89.2L139.5,89.2l-0.1-0.1l-0.1,0l-0.1,0l-0.1-0.1l0,0l-0.1-0.1l-0.1,0
		l-0.1-0.1l-0.1,0l-0.1,0l-0.1,0l-0.1,0l-0.1,0l-0.1,0l-0.1,0l-0.1,0l-0.1,0l-0.1,0l0-0.1l0-0.1l-0.1,0l-0.1,0.1H138l-0.1-0.1
		l-0.1-0.1l0-0.1l0-0.1l0,0l0,0l0-0.1l0-0.1v-0.1l0-0.1l-0.1,0l-0.1-0.1v-0.1l0-0.1l0-0.1l0-0.1l-0.1,0l-0.1,0l-0.1,0l-0.1,0
		l-0.1,0.1l-0.1,0l-0.1,0l-0.1,0.1l0-0.1v-0.2l0-0.1l0-0.1l0-0.1l0-0.1l0-0.1l0.1,0l0.1,0v0l0.1,0h0.1l0.1,0l0.1,0l0.1,0l0,0
		c0,0,0,0,0.1,0l0,0l0,0l0,0.1l0,0.1l0,0.1l0,0.1h0.1l0.1,0l0.1-0.1v-0.1l0,0c0.8,0.2,1.7,0.5,2.8,0.6l-0.1,0.2l0,0.1l-0.1,0.1
		l0,0.1v0.1l0,0.1l0.1,0.1l0,0.1l0,0.1l0,0.1l0,0.1l0,0.1l0,0.1l0.1,0.1l0.1,0.1l0.1,0.1l0.1,0.1l0.1,0l0.1,0l0.1,0l0.1,0l0.1,0
		l0.1,0l0.1,0l0.1,0l0.1,0l0.1,0l0.1,0l0.1-0.1l0.1,0l0.1,0l0.1,0.1l0,0.1l0,0.1v0.2l0,0C141.2,89.5,140.3,89.4,139.5,89.2
		 M136.8,88.3c-0.4-0.2-0.9-0.3-1.3-0.4c0.2-0.5,0.4-1.1,0.6-1.5c0,0,0.1,0,0.2,0.1v0h0c0,0,0,0,0,0l0,0.1l0,0.1l0,0.1l0,0.1V87l0,0
		l0,0l0,0.1l0.1,0.1l0,0.1l0.1,0.1l0.1,0.1l0-0.1l0-0.1v0.1l0,0.1l0.1,0.1l0.1,0.1l0.1,0.1l0.1,0.1l0.1,0.1l0.1,0.1l0.1,0.1l0.1,0
		l0,0l0.1,0.1l0.1,0l0.1,0l0.1,0l0.1,0l0.1,0.1l0.1,0.1l0,0C137.4,88.6,137.1,88.4,136.8,88.3 M147.2,86.7L147.2,86.7l0-0.2l0-0.1
		l-0.1-0.1l-0.1-0.1l-0.1-0.1l0-0.1l0-0.1V86l0-0.1h0.1l0.1,0L147,86l0.1,0.1l0.1,0.1l0.1,0h0.1l0-0.2l-0.1-0.1l-0.1-0.1l-0.1-0.1
		l0-0.1l0-0.1l0-0.1l0-0.1l0-0.1l0-0.1l0.1-0.1l0-0.1l0-0.1l0-0.1l0-0.1l0-0.1l0-0.1l-0.1-0.1l-0.1-0.1l0.1-0.1l-0.2-0.1l-0.1-0.1
		l-0.1,0l-0.1,0l0-0.1l0-0.1l0.1-0.1l0.1,0l0,0c1.1,0.8,2,2,2.5,3.3C149.2,87.3,148,86.9,147.2,86.7 M140.3,92.1L140.3,92.1l0.1-0.1
		h0.1l0.1,0l0.1-0.1l0-0.1l0-0.1v-0.1l0-0.1l0-0.1l0-0.1l0-0.1l0-0.1l0.1-0.1l0,0l0,0l0-0.1l0-0.1l0-0.1v0c0.5,0.1,1,0.1,1.6,0.2
		l0,0l0,0l0,0.1l0,0.2l0,0.1l0,0.1l0,0.1v0.1l0,0.1l0,0.1l0,0.1l0,0.1l0,0.2l0,0.1C141.8,92.3,141,92.2,140.3,92.1 M136.8,91.1
		c-0.5-0.2-1-0.4-1.5-0.5c0-0.2,0-0.5,0-0.7c0-0.3,0-0.6,0.1-0.9c0.5,0.1,0.9,0.3,1.4,0.5c0.2,0.1,0.4,0.1,0.6,0.2l-0.1,0.1
		l-0.1,0.1l0,0.1l0,0.1V90l0,0.1l0,0.1l0,0.1l0,0.1l0,0.1l0,0.1l0-0.1l0-0.1l0,0.1l0,0.1l0,0.1l0,0.1l0,0.1l0,0.1l0,0.1l0,0.1
		l0.1,0.1l0.1,0.1l0.1,0.1l0,0C137.4,91.3,137.1,91.2,136.8,91.1 M142.9,86.9l0-0.1l0-0.1l-0.1,0h-0.1l-0.1,0l0-0.1v-0.1l0-0.1
		l0-0.1l0-0.1l0-0.1l0-0.1l-0.1,0l-0.1,0l-0.1,0l-0.1,0.1l-0.1,0.1l-0.1,0.1l-0.1,0.1l-0.1,0l-0.1,0l-0.1,0l-0.1,0l-0.1,0.1
		l-0.1,0.1l0,0.1c-1-0.2-1.8-0.3-2.6-0.5l0,0l0.1-0.1l0.1,0h0.1L139,86l0.1-0.1l0.1-0.1l0.1-0.1l0.1-0.1v-0.1l0-0.1l0,0.1l0,0.1
		l0.1,0l0.1,0l0.1,0l0.1,0l0.1-0.1l0-0.1l0-0.1l0-0.1h0.1l0.1,0l0.1,0l0.1,0h0.1l0.1-0.1l0.1,0l0-0.1l0-0.3l0-0.1l0,0
		c0.3,0.1,0.6,0.1,0.9,0.2l0,0.1l0,0.1l-0.1,0.1l-0.1,0.1l0,0.1l0,0.1l0,0.1l0,0.1l0,0.2v0.1l0,0.1l0.1,0.1l0,0.1l0.1,0l0.1,0h0.1
		l0.1,0l0-0.1l0.1-0.1l0.1-0.1l0.1-0.1l0-0.1l0.1,0l0.1-0.1l0.1-0.1l0.1,0l0.1,0.1l0.1,0.1l0,0.1l0,0.1l0.1,0l0.1,0l0.1,0l0,0.1
		l0,0.1l0.1,0l0.1,0l0-0.1l0-0.1l0.1,0l0.1,0.1l0.1,0.1l0,0.1l0,0.1l0,0.1l0.1,0l0.1,0l0.1,0l0.1,0.2v0.2l0,0.1l0.1,0.1l0.1,0l0-0.1
		h0.1l0.1,0l0.1,0l0.1,0l0.1,0h0.1l0.1,0l0.1-0.1l0,0.1l0,0.1l0,0.1C143.5,86.9,143.2,86.9,142.9,86.9 M143.4,82.7L143.4,82.7
		l-0.1,0.1l-0.1,0l-0.1,0l-0.1,0l-0.1,0l-0.1,0l-0.1,0l-0.1,0.1l-0.1,0.1l-0.1,0.1l-0.1,0l-0.1,0.1l-0.1-0.1l-0.1-0.1l-0.1-0.1
		l-0.1-0.1l-0.1,0l-0.1-0.1l-0.1-0.1l-0.1-0.1l-0.1,0l-0.1,0l-0.1,0l-0.1,0.1l-0.1,0.1l-0.1,0l0,0.1l0,0.1l0,0.1l0,0.1l0,0.1l0,0.1
		l0,0.1l0,0.1l-0.1,0.1l-0.1,0l0,0.1l0,0.1l0,0c-0.2,0-0.4-0.1-0.7-0.1l0,0l0-0.1l-0.1-0.1l-0.1-0.1l-0.1-0.1l-0.1-0.1l-0.1-0.1
		l-0.1-0.1l-0.1,0l-0.1,0l-0.1,0l-0.1,0l-0.1,0.1l-0.1,0.1l-0.1,0.1l0,0.1h-0.1l-0.1-0.1l-0.1,0l0,0.1l-0.1,0h-0.1l0-0.1l0,0
		c1-0.5,2.1-0.7,3.2-0.7C142.8,82.6,143.1,82.6,143.4,82.7L143.4,82.7z M142,84c-0.1,0-0.2,0-0.2,0l0,0l0-0.1l0-0.1l0.1-0.1l0.1,0.1
		l0.1,0.1L142,84L142,84z M142.5,82.3c-1.3,0-2.7,0.4-3.8,1l-0.3,0.2l0.3,0.1c1.6,0.5,3.4,0.7,5.6,0.8l0.2,0c0,0,0-0.3-0.1-0.5
		c0.3,0.1,1.3,0.4,1.8,0.5c-0.4,0.2-1.4,0.7-1.6,0.9c0-0.1,0-0.4,0-0.4l-0.1,0c-3.3-0.1-5.2-0.7-6.5-1.1l-0.1,0l-0.1,0
		c-0.6,0.4-1,0.9-1.5,1.5l-0.1,0.2l0.4,0.2c1.9,0.7,4.3,1.6,9.9,1.6h0.2c0,0,0-0.3,0-0.4c0.3,0.1,1.3,0.4,1.8,0.5
		c-0.4,0.2-1.4,0.7-1.6,0.9c0-0.2,0-0.5,0-0.5h-0.1c-5.6,0-8-0.8-9.9-1.5L136,86l-0.1,0.1c-0.3,0.6-0.6,1.2-0.8,1.9l0,0.1l0.1,0
		c0.5,0.1,0.9,0.3,1.4,0.5c1.7,0.6,3.8,1.4,8.2,1.5l0.2,0c0,0,0-0.3,0-0.4c0.3,0.1,1.3,0.4,1.8,0.5c-0.4,0.2-1.4,0.7-1.6,0.9
		c0-0.2-0.1-0.5-0.1-0.5l-0.1,0c-4.4-0.1-6.5-0.9-8.2-1.5c-0.5-0.2-1.1-0.4-1.6-0.5l-0.2,0l0,0.2c-0.1,0.4-0.1,0.8-0.1,1.1
		c0,0.3,0,0.5,0,0.8l0,0.1l0.1,0c0.5,0.1,1.1,0.3,1.6,0.5c1.5,0.5,3.3,1.2,6.7,1.5l0.2,0c0,0,0-0.3,0-0.5c0.3,0.1,1.3,0.4,1.8,0.5
		c-0.4,0.2-1.4,0.7-1.6,0.9c0-0.1,0-0.4,0-0.4l-0.1,0c-3.4-0.2-5.2-0.9-6.7-1.4c-0.5-0.2-1-0.4-1.5-0.5l-0.2-0.1l0.1,0.2
		c0.4,1.6,1.3,3.1,2.6,4.2c1.3,1.1,3,1.7,4.7,1.7c4.2,0,7.5-3.4,7.5-7.5C150,85.7,146.6,82.3,142.5,82.3 M19.4,58.9v0.5
		c0,3.7-4.2,5.9-4.2,6c-0.1,0-0.1,0.1-0.1,0.2c0,0,0.1,0.1,0.1,0.1c0,0,0,0,0,0c0.1,0,6.1-1.7,6.1-6.4c0-4.8-6-6.4-6.1-6.4
		c-0.1,0-0.1,0-0.1,0.1c0,0.1,0,0.1,0.1,0.2C15.2,52.9,19.4,55.2,19.4,58.9 M8.4,80.2v-9.5c0-2.6,2.2-3.1,4-3.1c1.8,0,5.5,1,5.5,6.3
		c0,5.2-4.2,6.3-5.1,6.3C11.7,80.2,8.4,80.2,8.4,80.2 M8.3,53.9c0,0,7.3-1.2,7.3,5.5c0,2.7-0.8,3.7-3.6,5.1
		c-2.8,1.3-3.7,2.3-3.7,2.3V53.9z M25.4,73.9c0-6.1-6.3-7.2-6.3-7.2c-4-0.9-8-0.8-8-0.8s6.6-1.9,6.6-6.4c0-4.8-5-6.7-7.3-6.7
		C8.1,52.7,0,52.8,0,52.8v28.7h15.4C17.7,81.5,25.4,80,25.4,73.9 M137,60.9L137,60.9l0.6,1.9h0.2l0.6-1.9h0v1.9h0.2v-2.1h-0.4
		l-0.5,1.7h0l-0.5-1.7h-0.4v2.1h0.2V60.9z M149.6,90.7L149.6,90.7l0-0.2l-0.1-0.1l0-0.1l-0.1-0.1l-0.1-0.1l-0.1-0.1l-0.1,0l-0.1,0
		l-0.1,0l-0.1,0l0,0.1l0,0.1l0,0.1l0,0.1l0.1,0h0.1l0.1,0.1l0,0.1v0.1l0,0.1l0.1,0l0.1,0l0.1,0.1l0,0.1l0.1,0l0-0.1L149.6,90.7
		L149.6,90.7z M22.9,58.9v0.5c0,3.7-4.9,6-4.9,6c-0.1,0-0.1,0.1-0.1,0.2c0,0,0.1,0.1,0.1,0.1c0,0,0,0,0,0c0.1,0,7.1-1.8,7-6.5v-0.1
		c0.1-4.6-7-6.5-7-6.5c-0.1,0-0.1,0-0.1,0.1c0,0.1,0,0.1,0.1,0.2C18,52.9,22.9,55.2,22.9,58.9 M62.9,70.3c0-1.6,0.6-3.4,2.8-3.4
		c2.3,0,2.7,1.5,2.8,4.1h-5.6V70.3z M65.7,82c5.2,0,7.6-2.2,7.8-6.3h-4.9c-0.3,2.1-1.1,3.2-2.9,3.2c-2,0-2.7-2-2.7-4v-1.4h10.9v-1
		c0-5.3-1.4-8.8-7.8-8.8c-7.4,0-8.5,4.3-8.5,8.9C57.4,77,57.8,82,65.7,82 M32.9,71.2c0-2.3,2.2-3.1,4.1-3.1c0.6,0,1.2,0,1.7,0.1
		v-4.2c-0.3,0-0.7-0.1-1-0.1c-2.3,0-3.8,1.1-4.9,2.8h-0.1v-2.3h-5.3v17.2h5.5V71.2z M24.5,91h3.6v-1.2h-3.6v-1.1h4.2v-1.2h-5.6v6
		h5.7v-1.2h-4.3V91z M30.9,87.5h-1.3v6h5.7v-1.2h-4.4V87.5z M147.8,93.8L147.8,93.8l-0.1,0.1l0,0.1l0.1,0l0.1,0L147.8,93.8
		L147.8,93.8L147.8,93.8z M122.6,91.3l1.6-3.2l1.6,3.2H122.6z M123.8,87.5l-3.1,6h0.8l0.8-1.6h3.9l0.8,1.6h0.8l-3.1-6H123.8z
		 M37.4,91H41v-1.2h-3.6v-1.1h4.2v-1.2h-5.6v6h5.7v-1.2h-4.3V91z M13.7,89.9l-1.4-0.2C11,89.6,11,89.3,11,89.2
		c0-0.5,0.8-0.7,1.5-0.7c1.5,0,1.8,0.5,2,0.9l0,0.1l1.2-0.4l0-0.1c-0.1-0.4-0.6-1.6-3.2-1.6c-1.8,0-2.8,0.7-2.8,1.8
		c0,0.9,0.8,1.6,2.2,1.8l1.4,0.2c0.5,0.1,1.2,0.2,1.2,0.7c0,0.4-0.7,0.7-1.6,0.7c-1.4,0-1.9-0.5-2.1-1l0-0.1l-1.3,0.4l0,0.1
		c0.1,0.4,0.7,1.7,3.3,1.7c1.9,0,3-0.7,3-2C15.8,90.7,15.1,90.2,13.7,89.9 M149.1,91.6l0-0.2l0-0.2l0-0.2l-0.1,0.1l-0.1,0.1l0,0.1
		l0,0.1l-0.1,0.2l-0.1,0l0-0.1l0-0.1l-0.1-0.1l0-0.1l0-0.1l-0.1-0.1l-0.1,0l-0.1,0.1l-0.1,0l-0.1,0l-0.1,0l-0.1,0l-0.1,0l-0.1,0
		l-0.1,0l-0.1,0.1l-0.1,0.1l-0.1,0.1l-0.1,0.1l-0.1,0.1l-0.1,0.1l-0.1,0.1L147,92l-0.1,0.1l-0.1,0.1l-0.1,0l-0.1,0l-0.1,0.1l0,0.1
		v0.1l0,0.1l0,0.1l0,0.1l0,0.1l-0.1,0l0,0l0,0l0,0.1l0,0.1v0.1l0.1,0.1l0.1,0l0.1,0l0.1,0l0.1,0l0.1,0l0.1,0l0.1,0l0.1,0l0.1,0
		l0.1,0l0.1,0h0.1l0.1,0.1l0.1,0.1l0.1,0.1l0,0.1l0,0.1l0,0.1l0,0.1l0.1,0.1l0.1,0l0.1,0l0.1-0.1l0.1-0.1l0.1-0.1l0.1-0.1l0.1-0.1
		l0.1-0.1l0.1-0.1l0.1-0.1l0.1-0.1l0.1-0.1l0.1-0.1l0.1-0.1l0,0l0.1-0.1l0-0.2l0-0.2l0-0.2l0-0.2l0-0.2L149.1,91.6z M18,91h3.6v-1.2
		H18v-1.1h4.2v-1.2h-5.6v6h5.7v-1.2H18V91z M49.8,76.3c0,1.9-1.9,2.7-3.4,2.7c-1.5,0-2.1-1.1-2.1-2.4c0-1.5,0.9-2.4,3.1-2.8
		c0.7-0.1,1.6-0.4,2.3-0.9V76.3z M55.1,78.2v-9.1c0-3.1-1.2-5.3-7.8-5.3c-4.1,0-7.5,1.3-7.5,5.3v0.4h4.9v-0.5c0-1.3,0.9-2.2,2.5-2.2
		c1.8,0,2.5,0.8,2.5,2.1c0,1.2-0.6,1.7-2.2,2l-3.1,0.7c-3.8,0.8-5.4,2.1-5.4,5.4c0,2.3,1.4,4.9,5.2,4.9c2.6,0,4.2-0.4,5.5-2.2h0.1
		c0.2,0.6,0.3,1.2,0.7,1.8h5.3C55.2,80.5,55.1,79.8,55.1,78.2"/>
</g>
</svg>
