<svg xmlns="http://www.w3.org/2000/svg" id="Layer_1" data-name="Layer 1" viewBox="0 0 280 87"><defs><style>.cls-1{fill:#5b5c64;fill-rule:evenodd;}.cls-2{fill:none;stroke:#c3942c;stroke-width:0.71px;}</style></defs><g id="_14-Col-grid-artboards" data-name="14-Col-grid-artboards"><g id="Launceston-Distillery-PROCESS"><g id="Group-3"><path id="Fill-1" class="cls-1" d="M0,80.87H53.07V80H0Zm235,0h44.78V80H235Zm-126-26L91.24,37.64l-.07-.06h-.42V60.7h.77V43.47L109.25,61l.07,0h.42V37.9H109ZM79,51.6c0,4.92-2.73,8-7.14,8s-6.79-2.74-6.79-8.16V37.9H60.77V51.76c0,5.71,3.77,9.25,9.83,9.25,5.67,0,9.2-3.55,9.2-9.28V37.9H79ZM219.38,37.9H198v.77h8.57v22h4.29v-22h8.56ZM139.11,54.79a7.46,7.46,0,0,1-7.34,5.29c-4.71,0-7.52-4-7.52-10.78s2.81-10.79,7.52-10.79A7.38,7.38,0,0,1,139,43.84l.07.21.71-.29-.06-.19c-1.33-3.86-4.45-6-8.8-6-6.55,0-11.49,5.08-11.49,11.81A11.3,11.3,0,0,0,130.94,61c4.4,0,7.56-2.11,8.89-5.95l.07-.19-.72-.29Zm46.24-7.39L182,46.51c-3-.8-4.9-1.52-4.9-4.12,0-2.43,2.13-4.07,5.29-4.07,3.55,0,6.42,1.63,7.67,4.35l.12.25.62-.5-.07-.15c-1.38-2.94-4.52-4.69-8.4-4.69-4.74,0-8.17,2.82-8.17,6.7,0,4.06,3.45,5.49,6.45,6.28l3.36.89h0c2.44.62,4.7,1.57,4.7,4.3s-2.3,4.49-5.87,4.49c-4,0-7.29-1.87-8.59-4.89l-.1-.22-.68.41.07.17C175,59,178.49,61,183,61c5.74,0,8.75-3.62,8.75-7.2C191.71,50.55,189.75,48.57,185.35,47.4Zm44.8,1.9c0-7.29,2.31-11,6.85-11s6.89,3.69,6.89,11-2.32,11-6.89,11S230.15,56.58,230.15,49.3Zm18.51,0A11.66,11.66,0,1,0,237,61,11.57,11.57,0,0,0,248.66,49.3ZM38,43l4.62,9.77H33.51ZM33.16,53.5H43l3.33,7.07.06.13H51l-11-23L40,37.58h-.39L29.05,60.7h.85ZM166,59.92H153.8V49.32h8.57v-.78H153.8V38.67h11.7V37.9h-16V60.7H166Zm-147.74,0H5.06V35H.24V60.7h18ZM259.49,41.69,279.07,61l.06.06h.44V35.63h-.81V54.39L259.18,35.33l-.06-.06h-.44V60.7h.81ZM218.13,80.08l-3.76-5.79h-2.72l4.76,7.25v5.28h2.32V81.54l4.74-7.25h-1.61ZM179.54,81h4.85V79.72h-4.85V75.57h6.6V74.29h-8.93V86.82h9.21V85.53h-6.88ZM71.29,85.62H69.52V75.5h1.63c3,0,4.77,1.84,4.77,5C75.92,84,74.19,85.62,71.29,85.62Zm0-11.33H67.19V86.82h4.37c4,0,6.87-2.18,6.87-6.32C78.43,76.57,75.62,74.29,71.33,74.29Zm91.46,0h-2.32V86.82h8.66V85.53h-6.34Zm36.34,5.87h-2.29V75.51h2.29c1.82,0,2.93.72,2.93,2.28C202.06,79.52,200.86,80.16,199.13,80.16Zm4.52,2.92a3,3,0,0,0-2.86-2.24v0c1.86,0,3.76-.93,3.76-3.11,0-2.47-2.15-3.39-4.73-3.39h-5.31V86.82h2.33V81.38h2a2.07,2.07,0,0,1,2.38,1.68l.73,2a8.3,8.3,0,0,0,.83,1.75h2.61a6.41,6.41,0,0,1-1.09-2ZM102.83,79.55l-1.74-.48c-1.48-.39-2.14-.84-2.14-1.89s1-1.83,2.39-1.83a4.21,4.21,0,0,1,3.71,2l1-1a5.31,5.31,0,0,0-4.64-2.25c-2.65,0-4.56,1.52-4.56,3.67,0,1.95,1.25,2.84,3.36,3.43l1.72.47c1.4.39,2.2.85,2.2,2,0,1.34-1.18,2-2.7,2a4.8,4.8,0,0,1-4.2-2.29l-1,.93A5.88,5.88,0,0,0,101.38,87c2.68,0,4.83-1.52,4.83-4C106.21,81.06,104.89,80.11,102.83,79.55Zm10-4h4.72V86.82h2.33V75.55h4.72V74.29H112.87ZM86.28,86.82h2.33V74.29H86.28Zm46.21,0h2.32V74.29h-2.32Zm13.56-12.53h-2.33V86.82h8.66V85.53h-6.33Z"></path><g id="Group"><path id="Stroke-7" class="cls-2" d="M179.39,48.31a.64.64,0,0,1-.63-.7,4.69,4.69,0,0,1,1-2.36c1.9-2.8,7.13-7.13,10.76-9.93l-2.76,4.26S182.32,48.31,179.39,48.31Zm23.06-23.15c-3,2.76-7.6,6.66-10.23,8.69,3.83-5.69,8.86-13.22,8.79-13.16h-.86l-3.3,5c-2.46,3.34-5.26,6.17-6.8,6.17a.55.55,0,0,1-.6-.6c0-1,1.94-3.4,4.73-7.87a5.82,5.82,0,0,0,.94-2.23c0-.33-.17-.56-.64-.56a7.69,7.69,0,0,0-2.36,1,8.58,8.58,0,0,1-3,1.2.71.71,0,0,1-.57-.2,4.74,4.74,0,0,0,.4-1.47c0-.23-.06-.4-.26-.4s-.57.3-.57,1a1.52,1.52,0,0,0,.2.86c-2,4.37-6.9,9.3-8.86,9.3-.47,0-.77-.34-.77-1.07s1.53-3.23,2.27-4.26L192,9.83h-.87s-10.26,15.59-10.86,16.56c-.23.4-1.93,2.77-1.93,4.43,0,.87.5,1.37,1.1,1.37,2,0,7-4.93,9-9.33a.85.85,0,0,0,.66.2,8.55,8.55,0,0,0,3.07-1.2,6.92,6.92,0,0,1,2.06-1c.2,0,.27.1.27.27a5.88,5.88,0,0,1-1,2c-2.6,3.8-4.34,6-4.34,7.63,0,.87.3,1.27.9,1.27,1.24,0,3.37-1.77,5.37-4.17l-4.57,6.93c-3.56,2.73-9.19,7.3-11.19,10.27a5.49,5.49,0,0,0-1.1,2.49.82.82,0,0,0,.83.9c2.83,0,8.2-7.79,8.86-8.76l3.67-5.43a117.12,117.12,0,0,0,10.66-9l.5-.5-.13-.13ZM174,20.66c.3,0,.47.13.47.33,0,1-3,3.83-6.37,4.8C169.86,23.22,172.19,20.66,174,20.66Zm-7.7,11.49c2.27,0,6.6-4.26,9.2-6.86l.5-.5-.13-.13-.5.5c-2.6,2.6-6.87,6.79-9.07,6.79-.53,0-.8-.3-.8-1.19,0-.64,1-2.64,2.4-4.7,3.67-1,6.8-3.93,6.8-5.1,0-.3-.2-.5-.7-.5-3.27,0-8.86,6.6-8.86,10.13C165.1,31.62,165.6,32.15,166.26,32.15Zm-10.79-.3c-.57,0-.8-.39-.8-1.06,0-1,5.33-10.1,8.83-10.1a.5.5,0,0,1,.57.57,10.54,10.54,0,0,1-2.24,5C159.9,29,157.3,31.85,155.47,31.85Zm17.19-22c-4.59,7.06-7.26,11.1-9.33,14.23a7.17,7.17,0,0,0,.94-2.8.73.73,0,0,0-.84-.8c-3.33,0-9.13,7-9.13,10.33a1.13,1.13,0,0,0,1.17,1.26c1.63,0,3.9-2.3,5.7-4.66l-.84,1.33a4.45,4.45,0,0,0-.66,2.17c0,.66.26,1.16.86,1.16,2.14,0,5.83-5.09,7.5-6.76l.5-.5-.13-.13-.5.5c-1.73,1.73-5.33,6.69-7.37,6.69-.4,0-.53-.2-.53-.53a7.14,7.14,0,0,1,1-2.46c9-13.6,12.53-19,12.53-19Zm-28,22c-.56,0-.8-.39-.8-1.06,0-1,5.34-10.1,8.83-10.1a.5.5,0,0,1,.57.57,10.5,10.5,0,0,1-2.23,5C149.1,29,146.51,31.85,144.67,31.85Zm4.87-3.13a4.47,4.47,0,0,0-.67,2.17c0,.66.27,1.16.87,1.16,2.13,0,5.83-5.09,7.5-6.76l.49-.5-.13-.13-.5.5c-1.73,1.73-5.33,6.69-7.36,6.69-.4,0-.53-.2-.53-.53a7.14,7.14,0,0,1,1-2.46c2.89-4.34,5.49-8.23,5.46-8.17h-.87s-1,1.4-2.3,3.4a7.44,7.44,0,0,0,1-2.83.73.73,0,0,0-.83-.8c-3.33,0-9.13,7-9.13,10.33a1.13,1.13,0,0,0,1.16,1.26c1.64,0,3.9-2.26,5.7-4.66ZM140.11,9.23l-.27.33c-1.46,1.54-3.46,3.7-5.19,5.7-3,3.43-6.87,7.83-10.8,11.6-5.1,4.9-8.76,5.19-9.59,5.19-1.87,0-2.5-.66-2.5-1.36a1.24,1.24,0,0,1,.1-.5c.73-.1,1.46-.37,1.46-.74a.39.39,0,0,0-.43-.43c-.77,0-1.33.9-1.33,1.67s.7,1.56,2.7,1.56c.83,0,4.66-.46,9.72-5.26,4.13-4,7.7-8,10.8-11.6,1.4-1.59,2.83-3.23,4.13-4.59a109.33,109.33,0,0,0-6.6,9.86A99.07,99.07,0,0,1,125,32l.13.14,1.8-2.27c8.1-9.16,15.23-16.16,18.12-18.92-2.89,3.33-13.06,14-13.06,18.42,0,2,1,2.93,2.44,2.93,3.53,0,10-4.86,10-9.06,0-.83-.47-1.33-1.57-1.33-1.63,0-6.09,2.53-8.59,8.33l.2.07c2.49-5.7,6.83-8.2,8.39-8.2,1,0,1.37.43,1.37,1.13,0,4.13-6.3,8.86-9.76,8.86-1.34,0-2-1-2-2.46,0-2.3,8.09-12.86,11.76-17.43a33.26,33.26,0,0,1,2.23-2.56l-.13-.14s-8.23,7.63-18.16,18.79a79.71,79.71,0,0,0,5-7.29c2.26-3.73,4.2-7.83,7.06-11.6ZM120.82,22c-2.83,0-4.07-1.26-4.07-2.86,0-2.77,2.77-6,8-6,1.9,0,3.64.87,5.43.87a4.59,4.59,0,0,0,.74,0C128.45,18.29,124.42,22,120.82,22ZM136.75,11.3l-.14-.14a9.66,9.66,0,0,1-5.13,2.27,15.48,15.48,0,0,0,2.2-7.23c0-3.93-2.53-5.7-6.16-5.7-9.43,0-26.46,12-26.46,28.79,0,7.26,4.8,13.09,16.59,13.09,7,0,16.33-1.66,25.29-3.33,9.6-1.76,20.26-3.7,28.72-3.7,8.13,0,15,1.64,19.13,6.47l.13-.14c-4.2-4.89-11.06-6.53-19.26-6.53-8.76,0-19,1.9-28.79,3.7-9.19,1.7-18.09,3.33-25.22,3.33-11.66,0-16.39-5.76-16.39-12.89C101.26,12.6,118.15.7,127.52.7c3.49,0,6,1.7,6,5.5a16.18,16.18,0,0,1-2.2,7.26,9.84,9.84,0,0,1-1.07,0c-2,0-3.66-.54-5.43-.54-5.4,0-8.23,3.33-8.23,6.17,0,1.73,1.3,3.06,4.27,3.06,3.66,0,7.79-3.83,10.36-8.23A11,11,0,0,0,136.75,11.3Z"></path></g></g></g></g></svg>