<svg width="24" height="24" viewBox="0 0 24 24" fill="none" xmlns="http://www.w3.org/2000/svg">
    <path
        d="M12 2.5C6.775 2.5 2.5 6.775 2.5 12C2.5 17.225 6.775 21.5 12 21.5C17.225 21.5 21.5 17.225 21.5 12C21.5 6.775 17.225 2.5 12 2.5ZM6.775 18.9268C4.71692 17.3831 3.37058 14.9287 3.33125 12.1974L4.55808 12.3162L5.50808 13.1474L5.94375 13.5037L5.50808 14.8492L6.81433 16.868V17.6992L6.97242 18.1742L6.775 18.9268ZM12 20.7081C10.6937 20.7081 9.46692 20.4312 8.35808 19.9162L8.51617 18.9662H9.10992L9.22867 18.1349L9.07058 17.6599L9.74375 17.4224L10.3375 16.6305L9.94192 15.7992L10.575 15.3242L8.79375 14.018L8.71434 13.3055L7.92242 13.3849V12.5537L7.01175 12.7518L6.89374 12H5.31066L4.99374 11.05L5.74557 10.2982L6.53749 9.94191L6.89374 8.67499L7.64557 8.59558L8.31874 7.64558L9.07057 7.13125L8.59557 6.10183L7.64557 5.78565L9.1099 5.4294L10.2974 5.98382L10.8518 5.35074L12.1974 4.95516L12.593 3.72833L11.8411 3.29266H11.9992C13.5823 3.29266 15.0867 3.72833 16.393 4.48016L15.8386 4.71766L14.2154 5.90516L14.4529 6.85516L13.5831 7.68567L12.6331 7.84376L13.0286 8.95184L12.9492 9.78309L12.118 11.3268V12.5938L13.1867 13.5438L14.968 13.425V14.7313L15.3242 15.4831L15.0867 16.9081L15.7599 18.9662L16.8286 18.6492L17.2643 17.8974L17.4625 16.8287L18.2143 16.3143V14.5724L19.2036 12.6331L18.9268 12.2375L20.55 11.0107C20.5893 11.3669 20.6294 11.7232 20.6294 12.0794C20.7081 16.7893 16.7893 20.7081 12 20.7081Z"
        fill="white" />
</svg>