<svg width="90" height="39" viewBox="0 0 90 39" fill="none" xmlns="http://www.w3.org/2000/svg">
<path d="M39.7095 17.8341V15.1056H38.5838V13.8679H38.1335V13.896V15.1056V18.2279V20.8721H38.5838H39.7095V18.2842H38.5838V17.8341H39.7095Z" fill="white"/>
<path d="M43.4243 17.8342V15.1056H40.8071H40.6382V13.0803H40.5538H40.4693H40.2161V15.1056V20.8722H40.5538H40.6382H44.5782H44.8033H45.0566H45.3099H49.2218H49.3062H49.6439V15.1056V13.0803H49.3625H49.3062H49.2218V15.1056H49.0248H46.4356V17.8342H49.2218V18.2842H45.3099H45.0566H44.8033H44.5782H40.6382V17.8342H43.4243Z" fill="white"/>
<path d="M24.2873 15.1056H20.7131V18.228H24.2873V15.1056Z" fill="white"/>
<path d="M28.3116 15.1056H26.9326V18.228H28.3116V15.1056Z" fill="white"/>
<path d="M37.627 15.1056H36.2761V18.228H37.627V15.1056Z" fill="white"/>
<path d="M33.5744 15.1056H30.0002V18.228H33.5744V15.1056Z" fill="white"/>
<path d="M42.3831 36.3434V29.0579H40.8071H40.5538V34.74H40.6945V36.3434H42.3831Z" fill="white"/>
<path d="M6.72614 10.0423H37.8802V9.87348H44.8878H51.9798V10.0423H83.1057L83.4434 9.7047H70.6384C70.6666 8.97333 70.9761 8.55139 71.1169 8.41074C71.8767 8.35448 71.9893 7.82002 71.9893 7.82002H49.9816L48.8278 7.31369H72.9461L69.9067 6.55419V3.65684L70.7228 2.7567L70.8354 2.16598H70.2163L69.0343 1.09705V0H67.5427L67.2332 0.140648V1.12518L65.4883 2.58792V3.37555L66.6984 4.13505V5.7103L56.7359 3.20677H44.8878H33.0115L23.1615 5.68217V4.13505L24.3717 3.37555V2.61605L22.6268 1.15331V0.168777L22.2891 0.0281291H20.8257V1.12518L19.6155 2.19411H18.9964L19.1371 2.78483L19.9532 3.68497V6.52606L16.8013 7.31369H40.9196L39.7658 7.82002H17.8425C17.8425 7.82002 17.9551 8.35448 18.715 8.41074C18.8838 8.57952 19.1934 8.97333 19.1934 9.7047H6.38843L6.72614 10.0423ZM67.993 4.07879H69.2031V6.32915L67.993 6.01973V4.07879ZM20.6568 4.07879H21.867V6.01973L20.6568 6.32915V4.07879ZM20.9382 9.7047C20.9664 8.97333 21.3041 8.57952 21.473 8.41074H22.2047C22.3735 8.57952 22.6831 8.97333 22.6831 9.7047H20.9382ZM22.7112 9.7047C22.7394 8.97333 23.0771 8.57952 23.246 8.41074H23.9777C24.1465 8.57952 24.4561 8.97333 24.4561 9.7047H22.7112ZM24.4842 9.7047C24.5124 8.97333 24.8501 8.57952 25.019 8.41074H25.7507C25.9195 8.57952 26.2291 8.97333 26.2291 9.7047H24.4842ZM26.2572 9.7047C26.2854 8.97333 26.6231 8.57952 26.792 8.41074H27.5237C27.6925 8.57952 28.0021 8.97333 28.0021 9.7047H26.2572ZM28.0021 9.7047C28.0302 8.97333 28.3679 8.57952 28.5368 8.41074H29.2685C29.4374 8.57952 29.7469 8.97333 29.7469 9.7047H28.0021ZM29.7751 9.7047C29.8032 8.97333 30.1409 8.57952 30.3098 8.41074H31.0415C31.2104 8.57952 31.5199 8.97333 31.5199 9.7047H29.7751ZM31.5481 9.7047C31.5762 8.97333 31.9139 8.57952 32.0828 8.41074H32.8145C32.9834 8.57952 33.2929 8.97333 33.2929 9.7047H31.5481ZM33.3211 9.7047C33.3492 8.97333 33.6869 8.57952 33.8558 8.41074H34.5875C34.7564 8.57952 35.0659 8.97333 35.0659 9.7047H33.3211ZM35.6006 8.41074H36.3324C36.4449 8.52326 36.6419 8.77643 36.7264 9.14211L35.4599 9.7047H35.0378C35.0941 8.97333 35.4318 8.57952 35.6006 8.41074ZM54.2593 9.7047L53.0773 9.17024C53.1899 8.77643 53.3869 8.52326 53.4995 8.41074H54.2312C54.4 8.57952 54.7377 8.97333 54.7659 9.7047H54.2593ZM54.7659 9.7047C54.794 8.97333 55.1036 8.57952 55.2443 8.41074H55.976C56.1449 8.57952 56.4826 8.97333 56.5107 9.7047H54.7659ZM56.5389 9.7047C56.567 8.97333 56.8766 8.57952 57.0173 8.41074H57.749C57.9179 8.57952 58.2556 8.97333 58.2837 9.7047H56.5389ZM58.2837 9.7047C58.3119 8.97333 58.6214 8.57952 58.7622 8.41074H59.4939C59.6627 8.57952 60.0004 8.97333 60.0286 9.7047H58.2837ZM60.0567 9.7047C60.0849 8.97333 60.3944 8.57952 60.5352 8.41074H61.2669C61.4357 8.57952 61.7734 8.97333 61.8016 9.7047H60.0567ZM61.8297 9.7047C61.8579 8.97333 62.1674 8.57952 62.3082 8.41074H63.0399C63.2087 8.57952 63.5464 8.97333 63.5746 9.7047H61.8297ZM63.6027 9.7047C63.6309 8.97333 63.9404 8.57952 64.0812 8.41074H64.8129C64.9817 8.57952 65.3194 8.97333 65.3476 9.7047H63.6027ZM65.3476 9.7047C65.3757 8.97333 65.6853 8.57952 65.826 8.41074H66.5577C66.7266 8.57952 67.0643 8.97333 67.0924 9.7047H65.3476ZM67.1206 9.7047C67.1487 8.97333 67.4583 8.57952 67.599 8.41074H68.3307C68.4996 8.57952 68.8373 8.97333 68.8654 9.7047H67.1206ZM68.8936 9.7047C68.9217 8.97333 69.2313 8.57952 69.372 8.41074H70.1037C70.2726 8.57952 70.6103 8.97333 70.6384 9.7047H68.8936ZM52.4582 8.41074C52.5707 8.52326 52.7677 8.7483 52.8803 9.08585L51.3325 8.41074H52.4582ZM44.8878 6.49793L50.2349 9.19837H44.8878H39.5125L44.8878 6.49793ZM36.9515 9.05772C37.0641 8.72017 37.2611 8.52326 37.3736 8.41074H38.3868L36.9515 9.05772ZM19.7281 8.41074H20.4598C20.6287 8.57952 20.9382 8.97333 20.9382 9.7047H19.1653C19.1934 8.97333 19.5311 8.57952 19.7281 8.41074Z" fill="white"/>
<path d="M10.638 11.6738H9.93445V13.4178H10.638V11.6738Z" fill="white"/>
<path d="M9.06202 11.6738H8.44287V13.4178H9.06202V11.6738Z" fill="white"/>
<path d="M37.3173 11.6738H11.0601V12.4051H18.4053V13.0802H19.1089V13.6991H20.4879V13.0802H21.0789V12.4051H27.7487V13.0802H28.4523V13.5303V13.6991H28.4805H29.8313V13.0802H30.4223V12.4051H37.3173V11.6738Z" fill="white"/>
<path d="M37.9646 10.5767V12.9959V13.1084V13.6147H38.5837V12.9677V12.4333C38.5837 11.6456 39.4562 11.7019 39.4562 11.7019C40.1316 11.7019 40.3005 12.2645 40.3286 12.5177C40.3286 12.5739 40.3286 12.6302 40.3286 12.6302C40.3567 12.5739 40.3567 12.5458 40.3849 12.5177C40.413 12.4614 40.4412 12.4051 40.4693 12.3489C40.4693 12.3489 40.4693 12.3208 40.4975 12.3208C41.2292 11.2237 43.3399 11.0268 43.3399 11.0268H38.5837V10.6049H37.9646V10.5767Z" fill="white"/>
<path d="M7.88003 11.4487V11.3925H37.3174V10.5767H7.14832L7.88003 11.4487Z" fill="white"/>
<path d="M37.036 23.5445V22.5037H7.14832L7.9926 23.5445H37.036Z" fill="white"/>
<path d="M10.5255 23.8258H9.8219V25.3729H10.5255V23.8258Z" fill="white"/>
<path d="M29.8313 25.6261V25.0354H30.4223V24.4165H37.0359V23.8258H10.9475V24.3321H18.4053V25.0354H19.1089V25.6261H20.4879V25.0354H21.0789V24.3321H27.7488V25.0354H28.4523V25.6261H29.8313Z" fill="white"/>
<path d="M8.97753 23.8258H8.3584V25.3729H8.97753V23.8258Z" fill="white"/>
<path d="M69.1187 15.1056H65.5446V18.228H69.1187V15.1056Z" fill="white"/>
<path d="M62.8991 15.1056H61.5201V18.228H62.8991V15.1056Z" fill="white"/>
<path d="M53.5839 15.1056H52.2612V18.228H53.5839V15.1056Z" fill="white"/>
<path d="M59.8598 15.1056H56.2856V18.228H59.8598V15.1056Z" fill="white"/>
<path d="M47.4487 36.3434H49.1936V34.74H49.278V29.0579H49.0247H47.4487V36.3434Z" fill="white"/>
<path d="M79.9536 11.6738H79.25V13.4178H79.9536V11.6738Z" fill="white"/>
<path d="M82.6835 10.5767H52.5426V11.3925H81.98V11.4206L82.6835 10.5767Z" fill="white"/>
<path d="M81.417 11.6738H80.7979V13.4178H81.417V11.6738Z" fill="white"/>
<path d="M52.5426 12.4051H59.4376V13.0802H60.0286V13.6991H61.3794H61.4357V13.5303V13.0802H62.1112V12.4051H68.781V13.0802H69.372V13.6991H70.7791V13.0802H71.4546V12.4051H78.828V11.6738H52.5426V12.4051Z" fill="white"/>
<path d="M51.8954 13.1084V12.9959V10.5767H51.2762V10.9987H46.4919C46.4919 10.9987 48.6026 11.1956 49.3344 12.2926C49.3625 12.3489 49.4188 12.4051 49.4469 12.4614C49.4751 12.4895 49.4751 12.5458 49.5032 12.5739C49.5032 12.5739 49.5032 12.5458 49.5032 12.4614C49.5314 12.2082 49.7002 11.6456 50.3756 11.6456C50.3756 11.6456 51.2762 11.5894 51.2762 12.377V12.9115V13.5585H51.8954V13.1084Z" fill="white"/>
<path d="M52.7959 22.5037V23.5445H81.8393L82.6835 22.5037H52.7959Z" fill="white"/>
<path d="M80.038 23.8258H79.3345V25.3729H80.038V23.8258Z" fill="white"/>
<path d="M81.5298 23.8258H80.9106V25.3729H81.5298V23.8258Z" fill="white"/>
<path d="M70.7791 25.6261V25.0354H71.4546V24.3321H78.9124V23.8258H52.7959V24.4165H59.4376V25.0354H60.0286V25.6261H61.4357V25.0354H62.1112V24.3321H68.781V25.0354H69.372V25.6261H70.7791Z" fill="white"/>
<path d="M50.1786 18.2842V20.8721H51.3043H51.7264V18.2279V15.1056V13.896V13.8679H51.3043V15.1056H50.1786V17.8341H51.3043V18.2842H50.1786Z" fill="white"/>
<path d="M7.31709 21.9973H37.0359H36.867L36.9233 21.8285L36.9796 21.6598L37.261 20.9003H37.5987L37.6269 20.8721V18.7061H29.9157V21.6598H29.4936V13.9522H28.79V18.6499H20.7131V21.6598H20.1221V13.9522H19.4466V18.6499H11.0882V21.6598H10.6098V13.8679H9.93436V21.6598H9.06194V13.8679H8.4428V21.6598H6.97937L7.31709 21.9973Z" fill="white"/>
<path d="M81.4172 21.6598V13.8679H80.798V21.6598H79.9537V13.8679H79.2502V21.6598H78.7436V18.6499H70.4133V13.9522H69.7379V21.6598H69.1188V18.6499H61.0699V13.9522H60.3945V21.6598H59.9442V18.7061H52.2612V20.8721V20.9003H52.5708L52.8522 21.6598L52.9085 21.8285L52.9929 21.9973H52.7959H82.5147L82.8525 21.6598H81.4172Z" fill="white"/>
<path d="M51.5858 36.3434H52.0924H53.9217L54.6252 36.3997L70.5541 37.3561H82.4866V35.4995H81.4453H53.8935H52.0642V34.74H81.3046V34.2618H52.0642V33.643H81.4172V33.4179H81.5016V25.7948H80.8825V33.1929H80.01V25.7948H79.3065V33.1929H76.8299V26.5262L76.4922 26.695V33.1929H74.6629V27.5951L74.3252 27.7639V33.1648H72.8618V28.4953L72.5241 28.664V33.1648H70.4415V25.8511H69.7379V33.1648H69.1188V29.0578H65.5446V33.221H62.8992V29.0578H61.5202V33.221H61.0699V25.9073H60.3664V33.221H59.8316V29.0578H56.2857V33.221H53.5839V29.0578H52.0642V27.1169V26.8637V26.695H52.205L52.2331 24.4446H52.2612V23.1506H45.5351H45.0567H44.8034H44.6627H37.5988V24.4165H37.627L37.6551 26.6668H37.824V26.8356V27.0888V29.0297H36.3043V33.1929H33.6026V29.0578H30.0284V33.221H29.5219V25.9073H28.8183V33.221H28.368V29.0578H26.989V33.221H24.3436V29.0578H20.7694V33.221H20.1785V25.9073H19.4749V33.221H17.3923V28.7203L17.0546 28.5515V33.221H15.5912V27.8201L15.2535 27.6514V33.2491H13.4242V26.7512L13.0865 26.5824V33.2773H10.5818V25.8792H9.87819V33.2773H9.00576V25.8792H8.38662V33.5023H8.4429V33.7274H37.824V34.3462H8.27405V34.8244H37.7958V35.5839H35.9384H8.38662H7.34534V37.4405H19.2779L35.2067 36.484L35.9103 36.4278H37.7677H38.2743V35.5839V34.8244H38.3587V29.0578V26.92V26.695H38.612V25.1197H38.8653V24.4165H39.203V25.1197H39.4563V25.9073V26.6106V27.0325V27.145V29.086H38.8371V34.7681H38.8653V36.3997H39.4563H39.6814H39.991V34.7681H40.0473V29.0578V27.0606V26.5824H40.1317C40.779 23.8257 43.8465 23.7132 44.5783 23.7132H44.6627C44.719 23.7132 44.719 23.7132 44.719 23.7132H44.9722C44.9722 23.7132 45.0004 23.7132 45.0285 23.7132H45.3381C46.3231 23.7414 48.9404 24.0508 49.5314 26.5824H49.644V27.0606V29.0578V34.74H49.7284V36.3715H49.9817H50.235H50.826V29.0578H50.235V27.1169V27.0044V26.5824V25.8792V25.1197H50.4882V24.4165H50.826V25.1197H51.0792V26.6668H51.3325V26.8919V29.0297V34.7119H51.4451V35.4714V36.3434H51.5858Z" fill="white"/>
<path d="M63.9404 37.356L53.8935 36.7653H47.2799H44.8878H42.5519H42.4956H35.9384L25.8914 37.356L0 38.9313H35.9384H42.4956H42.5519H44.8878H47.2799H53.8935H89.8599L63.9404 37.356Z" fill="white"/>
<path d="M37.4862 21.2941H37.458H37.3455V21.5472V21.6597V21.9973V22.5036V22.8693H37.5987H44.6626H44.8033H45.0566H45.535H52.2611H52.5144V22.5036V21.9973V21.5191V21.2941H52.43H52.3737H52.1486H51.7546H38.1053H37.6832H37.4862Z" fill="white"/>
<path d="M13.396 18.2842V14.768L13.0302 14.5992V18.2842H13.396Z" fill="white"/>
<path d="M15.5349 18.2842V15.8651L15.1971 15.6963V18.2842H15.5349Z" fill="white"/>
<path d="M17.3641 18.2843V16.7653L17.0264 16.5965V18.2843H17.3641Z" fill="white"/>
<path d="M76.8299 18.2842V14.5992L76.4922 14.768V18.2842H76.8299Z" fill="white"/>
<path d="M74.6629 18.2842V15.6963L74.3252 15.8651V18.2842H74.6629Z" fill="white"/>
<path d="M72.8336 18.2843V16.5965L72.4958 16.7653V18.2843H72.8336Z" fill="white"/>
</svg>
