<?xml version="1.0" encoding="UTF-8"?><svg id="B_corp_logo" xmlns="http://www.w3.org/2000/svg" viewBox="0 0 100 168.57"><path id="Path_3053" d="M36.77,99.18h18.99c6.54,0,10.69-3.99,10.69-10.21,0-7.42-5.98-9.5-12.37-9.5h-17.32v19.71Zm0-26.09h15.18c8.62,0,12.13-3.11,12.13-9.1,0-7.9-5.59-9.01-12.13-9.01h-15.18v18.11Zm-7.56-24.49h20.67c5.03,0,11.65,0,15.08,2.09,4.22,2.46,6.78,7.01,6.7,11.89,.2,5.63-3.2,10.76-8.45,12.76v.16c7.03,1.43,10.85,6.7,10.85,13.73,0,8.38-5.99,16.35-17.32,16.35H29.21V48.6Z" fill="#ebebf5" opacity=".6"/><path id="Path_3054" d="M50.08,27.16C22.51,27.17,.16,49.52,.17,77.09c0,27.57,22.35,49.91,49.92,49.91,27.57,0,49.91-22.35,49.91-49.92S77.65,27.16,50.08,27.16h0m43.34,49.94c0,23.93-19.4,43.33-43.33,43.33S6.75,101.04,6.75,77.11c0-23.93,19.4-43.33,43.33-43.33,23.93,0,43.34,19.39,43.34,43.33h0" fill="#ebebf5" opacity=".6"/><path id="Path_3055" d="M.27,137.53H99.89v6.55H.27v-6.55Z" fill="#ebebf5" opacity=".6"/><path id="Path_3056" d="M93.69,129.31c.16-.35,.38-.66,.64-.93,.28-.27,.6-.48,.95-.62,.36-.15,.75-.23,1.15-.23,.4,0,.79,.07,1.16,.23,.35,.15,.66,.36,.93,.62,.27,.27,.49,.59,.64,.93,.16,.37,.24,.78,.24,1.18,0,.4-.07,.81-.24,1.18-.15,.35-.37,.68-.64,.95-.27,.27-.58,.48-.93,.63-.37,.15-.76,.22-1.16,.22-.39,0-.78-.07-1.15-.22-.36-.14-.68-.36-.95-.63-.27-.27-.49-.59-.64-.95-.16-.37-.24-.77-.23-1.18,0-.41,.07-.81,.23-1.18m.49,2.18c.11,.31,.29,.59,.52,.82,.22,.23,.48,.4,.77,.52,.92,.39,1.99,.19,2.7-.52,.7-.76,.9-1.85,.52-2.82-.12-.3-.3-.57-.52-.8-.22-.22-.49-.4-.77-.52-.62-.26-1.31-.26-1.93,0-.29,.12-.55,.3-.77,.52-.23,.23-.41,.5-.52,.8-.25,.64-.25,1.36,0,2m2.44-2.73c.32-.02,.64,.06,.91,.24,.21,.19,.32,.47,.3,.75,.02,.26-.08,.51-.27,.7-.19,.15-.42,.24-.66,.26l.99,1.53h-.58l-.95-1.5h-.57v1.5h-.51v-3.44l1.32-.03Zm-.24,1.54h.35c.1,0,.19-.02,.28-.06,.08-.04,.15-.1,.2-.17,.06-.1,.08-.21,.07-.32,0-.09-.02-.19-.07-.27-.04-.07-.1-.13-.17-.16-.08-.04-.16-.07-.25-.08h-.98v1.11l.56-.04Z" fill="#ebebf5" opacity=".6"/><path id="Path_3057" d="M12.34,5.23c-.24-.38-.54-.71-.89-.99-.36-.29-.77-.51-1.2-.67-.45-.16-.93-.24-1.4-.24-.79-.02-1.57,.16-2.27,.52-.61,.33-1.13,.81-1.52,1.39-.4,.61-.68,1.28-.84,1.98-.18,.75-.27,1.52-.27,2.3,0,.74,.09,1.48,.27,2.2,.16,.69,.45,1.34,.84,1.93,.39,.57,.91,1.04,1.52,1.38,.7,.36,1.48,.54,2.27,.52,1.06,.06,2.1-.35,2.84-1.11,.72-.82,1.15-1.84,1.25-2.93h3.84c-.08,1.05-.34,2.09-.78,3.05-.4,.88-.97,1.67-1.67,2.32-.7,.63-1.51,1.11-2.4,1.42-.98,.35-2.02,.53-3.06,.52-1.27,.02-2.54-.23-3.71-.72-1.06-.45-2.01-1.12-2.79-1.98-.77-.86-1.37-1.87-1.75-2.96C.22,12,.01,10.76,.02,9.52c-.01-1.27,.19-2.54,.6-3.75,.38-1.11,.97-2.14,1.74-3.02,.77-.87,1.72-1.56,2.79-2.02C7.23-.13,9.55-.23,11.69,.43c.86,.27,1.66,.7,2.37,1.25,.71,.56,1.3,1.25,1.73,2.03,.47,.86,.76,1.8,.85,2.77h-3.84c-.06-.44-.22-.87-.45-1.25" fill="#ebebf5" opacity=".6"/><path id="Path_3058" d="M26,8.43c-.52-.51-1.23-.76-1.95-.71-.49-.02-.98,.08-1.43,.29-.35,.17-.66,.42-.91,.72-.22,.27-.38,.58-.48,.91-.08,.28-.14,.56-.16,.85h5.83c-.1-.76-.41-1.47-.89-2.07m-4.05,6.86c1.21,.95,2.88,1.05,4.19,.24,.44-.26,.78-.67,.96-1.15h3.14c-.36,1.36-1.18,2.54-2.32,3.36-1.14,.7-2.45,1.05-3.79,1.01-.95,.02-1.89-.15-2.77-.49-.79-.3-1.51-.78-2.09-1.4-.58-.63-1.04-1.37-1.32-2.17-.32-.89-.48-1.83-.47-2.77,0-.93,.16-1.85,.48-2.72,.6-1.64,1.86-2.96,3.47-3.63,.86-.36,1.78-.54,2.71-.52,1-.02,2,.2,2.9,.64,.8,.41,1.5,1,2.03,1.73,.54,.74,.93,1.58,1.15,2.48,.23,.95,.32,1.93,.25,2.9h-9.42c-.04,.92,.28,1.83,.89,2.52" fill="#ebebf5" opacity=".6"/><path id="Path_3059" d="M35.49,5.38v2.42h.05c.17-.41,.4-.79,.68-1.13,.28-.34,.61-.64,.98-.89,.37-.24,.76-.43,1.18-.57,.42-.14,.87-.21,1.31-.2,.26,0,.53,.05,.78,.13v3.33c-.2-.04-.4-.07-.61-.09-.23-.02-.45-.04-.68-.04-.57-.02-1.14,.09-1.67,.32-.43,.2-.81,.51-1.09,.89-.29,.4-.49,.85-.6,1.32-.12,.54-.18,1.09-.17,1.64v5.88h-3.58V5.38h3.4Z" fill="#ebebf5" opacity=".6"/><path id="Path_3060" d="M50.08,5.38v2.4h-2.62v6.45c-.05,.43,.06,.86,.31,1.21,.35,.25,.78,.36,1.21,.3l.58-.03c.18-.02,.35-.04,.52-.07v2.77c-.33,.05-.67,.09-1.01,.1l-1.08,.03c-.53,0-1.05-.04-1.57-.11-.46-.06-.9-.21-1.31-.44-.38-.22-.69-.54-.89-.93-.24-.49-.35-1.03-.33-1.57V7.79h-2.17v-2.4h2.15V1.49h3.58v3.91l2.64-.02Z" fill="#ebebf5" opacity=".6"/><path id="Path_3061" d="M55.75,18.43h-3.58V5.38h3.58v13.05ZM52.17,.41h3.58V3.36h-3.58V.41Z" fill="#ebebf5" opacity=".6"/><path id="Path_3062" d="M57.17,7.78v-2.4h2.15v-1.01c-.04-1.06,.35-2.09,1.08-2.85,.9-.8,2.08-1.2,3.28-1.11l.96,.04,.93,.06V3.18c-.43-.05-.87-.07-1.31-.07-.38-.04-.76,.09-1.05,.34-.24,.33-.35,.74-.31,1.15v.79h2.47v2.4h-2.47v10.65h-3.59V7.78h-2.15Z" fill="#ebebf5" opacity=".6"/><path id="Path_3063" d="M71.38,18.43h-3.58V5.38h3.58v13.05ZM67.8,.41h3.58V3.36h-3.58V.41Z" fill="#ebebf5" opacity=".6"/><path id="Path_3064" d="M81.09,8.43c-.52-.51-1.23-.76-1.95-.71-.49-.02-.98,.08-1.42,.29-.35,.17-.66,.42-.91,.72-.22,.27-.38,.58-.48,.91-.08,.28-.14,.56-.16,.85h5.83c-.1-.76-.41-1.48-.9-2.07m-4.05,6.86c1.21,.95,2.88,1.05,4.19,.24,.44-.26,.78-.67,.96-1.15h3.14c-.36,1.36-1.18,2.55-2.32,3.36-1.14,.7-2.45,1.05-3.79,1.01-.95,.02-1.89-.15-2.77-.49-.79-.3-1.51-.78-2.09-1.4-.58-.63-1.04-1.37-1.32-2.17-.32-.89-.48-1.83-.47-2.77,0-.93,.16-1.85,.48-2.72,.6-1.64,1.86-2.96,3.47-3.63,.86-.36,1.78-.54,2.71-.52,1-.02,2,.2,2.9,.64,.8,.41,1.5,1.01,2.04,1.73,.54,.74,.93,1.58,1.14,2.48,.24,.95,.33,1.93,.26,2.9h-9.42c-.04,.92,.28,1.83,.89,2.52" fill="#ebebf5" opacity=".6"/><path id="Path_3065" d="M96.29,10.31c-.09-.47-.27-.91-.52-1.31-.24-.37-.57-.69-.95-.92-.45-.25-.95-.37-1.47-.35-.99-.05-1.94,.44-2.46,1.29-.25,.41-.43,.86-.52,1.32-.11,.52-.17,1.04-.16,1.57,0,.51,.06,1.02,.17,1.51,.11,.48,.3,.94,.57,1.35,.25,.39,.59,.72,.98,.96,.43,.26,.92,.38,1.42,.37,.51,.02,1.03-.1,1.48-.35,.39-.23,.72-.56,.95-.95,.25-.42,.43-.87,.52-1.35,.1-.52,.16-1.04,.15-1.57,0-.53-.05-1.05-.15-1.57m.15,6.44c-.38,.67-.96,1.21-1.65,1.53-.72,.32-1.51,.48-2.3,.47-.89,.02-1.77-.17-2.58-.57-.72-.36-1.35-.89-1.83-1.53-.49-.68-.86-1.43-1.08-2.24-.24-.85-.36-1.73-.36-2.62,0-.86,.12-1.71,.36-2.53,.23-.78,.59-1.51,1.08-2.16,.49-.62,1.1-1.13,1.81-1.5,.78-.39,1.65-.59,2.52-.57,.76,0,1.52,.16,2.21,.49,.68,.31,1.25,.82,1.65,1.45h.05V.41h3.55V18.43h-3.41v-1.67h-.02Z" fill="#ebebf5" opacity=".6"/><path id="Path_3066" d="M9.01,156.93c-.26-1.32-1.43-2.26-2.77-2.22-2.5,0-3.45,2.13-3.45,4.36,0,2.09,.95,4.25,3.45,4.25,1.58,.01,2.87-1.26,2.88-2.83,0,0,0,0,0-.01h2.7c-.09,2.96-2.56,5.29-5.52,5.2-.02,0-.04,0-.06,0-3.93,0-6.23-2.93-6.23-6.59s2.31-6.7,6.23-6.7c2.75-.19,5.17,1.82,5.48,4.57h-2.7Z" fill="#ebebf5" opacity=".6"/><path id="Path_3067" d="M17.64,163.7c1.72,0,2.24-1.48,2.24-2.93s-.52-2.95-2.24-2.95-2.23,1.48-2.23,2.95,.52,2.93,2.23,2.93m0-7.78c2.67,0,4.84,2.17,4.84,4.84s-2.17,4.84-4.84,4.84c-2.67-.06-4.79-2.28-4.73-4.96,.06-2.59,2.14-4.67,4.73-4.73" fill="#ebebf5" opacity=".6"/><path id="Path_3068" d="M23.97,156.15h2.39v1.71h.04c.51-1.17,1.66-1.94,2.93-1.95,.18,0,.35,.03,.52,.09v2.35c-.3-.06-.6-.09-.91-.09-1.85,0-2.49,1.33-2.49,2.95v4.14h-2.49v-9.19Z" fill="#ebebf5" opacity=".6"/><path id="Path_3069" d="M37.69,160.79c0-1.47-.59-2.97-2.2-2.97s-2.18,1.48-2.18,2.97,.57,2.91,2.2,2.91,2.19-1.42,2.19-2.91m-6.8-4.62h2.4v1.17h.04c.59-.93,1.63-1.47,2.73-1.42,2.88,0,4.19,2.32,4.19,4.93,0,2.45-1.35,4.75-4.03,4.75-1.09,.03-2.13-.49-2.75-1.39h-.06v4.35h-2.53v-12.4Z" fill="#ebebf5" opacity=".6"/><path id="Path_3070" d="M45.74,163.7c1.72,0,2.24-1.48,2.24-2.93s-.52-2.95-2.24-2.95-2.22,1.48-2.22,2.95,.52,2.93,2.22,2.93m0-7.78c2.67-.06,4.89,2.07,4.94,4.74,.06,2.67-2.07,4.89-4.74,4.94-2.67,.06-4.89-2.07-4.94-4.74,0-.03,0-.06,0-.1-.19-2.48,1.67-4.65,4.15-4.84,.2-.02,.4-.02,.59,0" fill="#ebebf5" opacity=".6"/><path id="Path_3071" d="M52.07,156.15h2.4v1.71h.04c.51-1.17,1.66-1.93,2.93-1.95,.19,0,.39,.03,.57,.1v2.35c-.3-.06-.6-.09-.91-.09-1.85,0-2.49,1.33-2.49,2.95v4.14h-2.53l-.02-9.2Z" fill="#ebebf5" opacity=".6"/><path id="Path_3072" d="M64.55,160.86c-.65,.33-1.37,.51-2.09,.52-.78,.13-1.5,.43-1.5,1.35s.73,1.17,1.57,1.17c1.03,.1,1.94-.64,2.05-1.67,.01-.14,.01-.29,0-.43l-.02-.95Zm-5.83-1.87c.14-2.37,2.26-3.07,4.32-3.07,1.83,0,4.03,.41,4.03,2.62v4.8c-.05,.7,.06,1.39,.32,2.04h-2.57c-.09-.29-.15-.59-.18-.89-.83,.79-1.95,1.2-3.09,1.14-1.74,0-3.14-.87-3.14-2.76,0-2.09,1.57-2.58,3.14-2.79s2.98-.18,2.98-1.21-.75-1.24-1.63-1.24c-.81-.11-1.55,.46-1.66,1.27,0,.04,0,.08-.01,.12l-2.52-.03Z" fill="#ebebf5" opacity=".6"/><path id="Path_3073" d="M72.18,156.17h1.85v1.69h-1.85v4.54c0,.85,.21,1.05,1.05,1.05,.26,0,.53-.02,.79-.07v1.97c-.49,.07-.98,.1-1.48,.09-1.54,0-2.89-.36-2.89-2.19v-5.4h-1.53v-1.69h1.53v-2.75h2.52l.02,2.75Z" fill="#ebebf5" opacity=".6"/><path id="Path_3074" d="M75.92,156.17h2.52v9.19h-2.52v-9.19Zm2.52-1.42h-2.52v-2.09h2.52v2.09Z" fill="#ebebf5" opacity=".6"/><path id="Path_3075" d="M84.89,163.7c1.73,0,2.24-1.48,2.24-2.93s-.52-2.95-2.24-2.95-2.23,1.48-2.23,2.95,.52,2.93,2.23,2.93m0-7.78c2.67-.06,4.89,2.07,4.94,4.74,.06,2.67-2.07,4.89-4.74,4.94s-4.89-2.07-4.94-4.74c0-.03,0-.06,0-.1-.19-2.48,1.67-4.65,4.15-4.84,.2-.01,.39-.02,.59,0" fill="#ebebf5" opacity=".6"/><path id="Path_3076" d="M91.28,156.17h2.4v1.28h.05c.61-.96,1.66-1.54,2.8-1.53,2.69,0,3.36,1.51,3.36,3.79v5.65h-2.52v-5.16c0-1.51-.45-2.26-1.62-2.26-1.37,0-1.96,.76-1.96,2.62v4.82h-2.52v-9.2Z" fill="#ebebf5" opacity=".6"/></svg>