<?xml version="1.0" encoding="UTF-8"?><svg id="Layer_1" xmlns="http://www.w3.org/2000/svg" viewBox="0 0 593.07 95.72"><g id="Octomore"><path d="M4.13,16.27C13.71-.15,34.79-5.69,51.21,3.89c5.13,2.99,9.39,7.26,12.38,12.38,3.07,5.59,4.13,8.39,4.13,31.19s-1.06,25.6-4.13,31.2c-9.59,16.42-30.68,21.96-47.1,12.36-5.12-2.99-9.38-7.25-12.36-12.36-3.06-5.6-4.13-8.4-4.13-31.2S1.07,21.86,4.13,16.27Zm15.07,58.12c6.67,8.1,18.65,9.26,26.75,2.58,.94-.78,1.81-1.64,2.58-2.58,3.73-4.8,4.8-7.46,4.8-26.93s-1.07-22.13-4.8-26.93c-6.67-8.1-18.65-9.26-26.75-2.58-.94,.78-1.81,1.64-2.58,2.58-3.74,4.8-4.8,7.47-4.8,26.93s1.06,22.13,4.8,26.93h0Z" fill="#fff"/><path d="M142.5,68.39c-3.73,17.73-17.06,27.33-33.33,27.33-12.28,.15-23.66-6.39-29.73-17.06-3.06-5.6-4.13-8.4-4.13-31.2s1.07-25.6,4.13-31.19C85.5,5.59,96.89-.95,109.17-.8c18,0,30.4,12.67,33.33,28.13h-15.2c-2.38-8.05-9.73-13.62-18.13-13.73-5.7-.11-11.12,2.46-14.66,6.93-3.74,4.8-4.8,7.47-4.8,26.93s1.06,22.13,4.8,26.93c3.53,4.48,8.96,7.04,14.66,6.94,8,0,14.13-4.4,18.13-12.93h15.2Z" fill="#fff"/><path d="M167.23,12.8h-26V0h66.4V12.8h-26V94.92h-14.4V12.8Z" fill="#fff"/><path d="M213.35,16.27C222.93-.15,244.01-5.69,260.43,3.9c5.12,2.99,9.38,7.25,12.37,12.37,3.07,5.59,4.14,8.39,4.14,31.19s-1.07,25.6-4.14,31.2c-9.6,16.42-30.68,21.95-47.1,12.35-5.11-2.99-9.36-7.24-12.35-12.35-3.07-5.6-4.14-8.4-4.14-31.2s1.07-25.6,4.14-31.19Zm15.06,58.12c6.67,8.1,18.65,9.26,26.75,2.58,.94-.78,1.81-1.64,2.58-2.58,3.73-4.8,4.8-7.46,4.8-26.93s-1.07-22.13-4.8-26.93c-6.67-8.1-18.65-9.26-26.75-2.58-.94,.78-1.81,1.64-2.58,2.58-3.73,4.8-4.8,7.47-4.8,26.93s1.07,22.13,4.8,26.93Z" fill="#fff"/><path d="M287.03,0h13.6l27.19,61.86L354.49,0h13.59V94.92h-14.39V35.73h-.27l-19.87,45.6h-12l-19.86-45.6h-.26v59.19h-14.4V0Z" fill="#fff"/><path d="M382.39,16.27c9.58-16.42,30.66-21.96,47.08-12.38,5.13,2.99,9.39,7.26,12.38,12.38,3.06,5.59,4.13,8.39,4.13,31.19s-1.07,25.6-4.13,31.2c-9.59,16.42-30.68,21.96-47.1,12.36-5.12-2.99-9.38-7.25-12.36-12.36-3.07-5.6-4.13-8.4-4.13-31.2s1.06-25.6,4.13-31.19Zm15.06,58.12c6.67,8.1,18.65,9.26,26.75,2.58,.94-.78,1.81-1.64,2.58-2.58,3.74-4.8,4.8-7.46,4.8-26.93s-1.06-22.13-4.8-26.93c-6.67-8.1-18.65-9.26-26.75-2.58-.94,.78-1.81,1.64-2.58,2.58-3.73,4.8-4.8,7.47-4.8,26.93s1.07,22.13,4.8,26.93Z" fill="#fff"/><path d="M456.07,0h37.06c8,0,14.27,1.87,19.34,6.27,5.96,5.05,9.42,12.45,9.46,20.26,0,12.27-6.93,22.26-18.4,26.26l22,42.13h-17.06l-19.6-40.53h-18.4v40.53h-14.4V0Zm14.4,41.6h21.73c10.8,0,16.13-7.07,16.13-15.07,0-4.93-1.86-8.66-4.8-10.8-2.66-2-5.6-2.93-10.53-2.93h-22.53v28.8Z" fill="#fff"/><path d="M532.41,0h60.66V13.6h-46.26v27.06h39.46v12.8h-39.46v27.87h46.26v13.6h-60.66V0Z" fill="#fff"/></g></svg>