<?xml version="1.0" encoding="utf-8"?>
<!-- Generator: Adobe Illustrator 21.1.0, SVG Export Plug-In . SVG Version: 6.00 Build 0)  -->
<svg version="1.1" id="Layer_1" xmlns="http://www.w3.org/2000/svg" xmlns:xlink="http://www.w3.org/1999/xlink" x="0px" y="0px"
	 viewBox="0 0 100 100" style="enable-background:new 0 0 100 100;" xml:space="preserve" width="100" height="100">
<style type="text/css">
	.st0{fill:#ffffff;}
</style>
<g id="instagram">
	<path class="st0" d="M50,10.1c13,0,14.5,0,19.7,0.3c4.7,0.2,7.3,1,9,1.7c2.3,0.9,3.9,1.9,5.6,3.6s2.8,3.3,3.6,5.6
		c0.7,1.7,1.5,4.3,1.7,9c0.2,5.1,0.3,6.7,0.3,19.7s0,14.6-0.3,19.7c-0.2,4.8-1,7.3-1.7,9C87,81,86,82.6,84.3,84.3
		C82.6,86,81,87.1,78.7,88c-1.7,0.7-4.3,1.5-9,1.7C64.6,89.9,63,90,50,90s-14.6,0-19.7-0.3c-4.7-0.2-7.3-1-9-1.7
		c-2.3-0.9-3.9-1.9-5.6-3.6C14,82.6,12.9,81,12,78.7c-0.7-1.7-1.5-4.3-1.7-9C10.1,64.6,10,63,10,50s0-14.5,0.3-19.7
		c0.2-4.7,1-7.3,1.7-9c0.9-2.3,1.9-3.9,3.6-5.6s3.3-2.8,5.6-3.6c1.7-0.7,4.3-1.5,9-1.7C35.5,10.1,37,10.1,50,10.1 M50,1.3
		c-13.2,0-14.9,0.1-20.1,0.3s-8.7,1.1-11.8,2.3c-3.2,1.2-5.9,2.9-8.6,5.6s-4.4,5.4-5.6,8.6c-1.2,3.1-2,6.6-2.3,11.8
		C1.3,35.1,1.3,36.8,1.3,50s0.1,14.9,0.3,20.1s1.1,8.7,2.3,11.8c1.2,3.2,2.9,5.9,5.6,8.6s5.4,4.4,8.6,5.6c3.1,1.2,6.6,2,11.8,2.3
		c5.2,0.2,6.9,0.3,20.1,0.3s14.9-0.1,20.1-0.3c5.2-0.2,8.7-1.1,11.8-2.3c3.2-1.2,5.9-2.9,8.6-5.6s4.4-5.4,5.6-8.6
		c1.2-3.1,2-6.6,2.3-11.8c0.2-5.2,0.3-6.9,0.3-20.1s-0.1-14.9-0.3-20.1c-0.2-5.2-1.1-8.7-2.3-11.8c-1.2-3.2-2.9-5.9-5.6-8.6
		s-5.4-4.4-8.6-5.6c-3.1-1.2-6.6-2-11.8-2.3C64.9,1.3,63.2,1.3,50,1.3"/>
	<path class="st0" d="M50,25c-13.8,0-25,11.2-25,25s11.2,25,25,25s25-11.2,25-25S63.8,25,50,25 M50,66.2c-9,0-16.2-7.3-16.2-16.2
		S41,33.8,50,33.8S66.2,41,66.2,50S59,66.2,50,66.2"/>
	<path class="st0" d="M81.9,24c0,3.2-2.6,5.8-5.8,5.8c-3.2,0-5.8-2.6-5.8-5.8s2.6-5.8,5.8-5.8C79.2,18.1,81.9,20.8,81.9,24"/>
</g>
</svg>
