<svg width="356" height="2040" viewBox="0 0 356 1881" fill="none" xmlns="http://www.w3.org/2000/svg" opacity="0.1">
    <path d="M313.245 123.902c19.348 0 31.867-5.882 40.289-16.431H356v87.661h-2.466c-8.422-10.512-20.903-16.432-40.289-16.432H97.346C42.224 178.7.873 150.239.873 86.03.873 32.977 37.747 0 87.976 0c40.403 0 61.837 23.604 61.837 47.626 0 17.228-9.105 30.738-28.908 30.738-2.959 0-6.563-.455-9.826-1.214.835-2.088 1.252-5.427 1.252-7.97 0-15.824-13.96-26.146-39.226-26.146s-49.622 12.22-49.622 41.705c0 25.767 15.668 39.087 51.936 39.087h237.75l.076.076zM8.877 185.228c10.699 8.652 15.554 11.005 34.94 15.179l206.073 41.706c15.024 3.301 25.57 3.643 34.713-.911h2.845v60.718h-2.845c-9.181-4.327-19.689-3.719-34.713-.19L41.73 346.092c-15.553 3.681-22.344 5.768-32.815 14.117H5.956v-71.571h2.96c10.925 7.02 16.426 8.728 31.146 5.844l28.604-6.186v-55.709l-28.604-5.654c-13.05-2.656-19.348-2.96-31.147 5.958H5.956v-47.626h2.96l-.039-.037zm85.32 97.641 112.863-23.11-112.862-21.973v45.083zM8.877 937.179c10.699 8.652 15.554 11.005 34.94 15.18l206.073 41.705c15.024 3.302 25.57 3.643 34.713-.911h2.845v60.717h-2.845c-9.181-4.32-19.689-3.72-34.713-.19l-208.16 44.36c-15.553 3.68-22.344 5.77-32.815 14.12H5.956v-71.57h2.96c10.925 7.02 16.426 8.73 31.146 5.84l28.604-6.18v-55.711l-28.604-5.654c-13.05-2.657-19.348-2.96-31.147 5.958H5.956v-47.626h2.96l-.039-.038zm85.32 97.641 112.863-23.11-112.862-21.972v45.082zM148.713 600.879l-35.054-21.137H38.734c-15.137 0-19.766 2.163-29.895 11.423H5.88v-72.482h2.96c10.09 8.424 14.719 11.308 29.894 11.308h212.901c18.096 0 23.559-3.377 32.816-10.094h2.959v70.015h-2.959c-9.257-6.717-14.72-10.17-32.816-10.17h-93.818l83.12 49.827c10.774 6.147 20.638 10.967 29.098 10.967 4.932 0 8.953-.759 14.416-2.315h2.959v51.117h-2.959c-9.484-9.108-20.865-17.191-42.072-29.904l-72.346-44.4M356 811.19c0 24.819-.455 54.191-21.017 80.413-29.97 37.911-90.176 50.396-145.83 50.396-58.422 0-118.21-8.576-153-40.984C10.168 876.803 5.88 847.773 5.88 813.847v-51.535h3.377c10.926 8.842 20.637 13.282 34.94 13.282h269.921c15.136 0 29.249-3.491 39.378-14.42h2.466v50.016H356zm-171.664 72.634c86.685 0 148.333-14.573 148.333-47.057 0-4.212-2.163-6.299-6.601-6.299H34.295c-4.514 0-5.842 2.277-5.842 5.465 0 34.609 62.748 47.891 155.883 47.891zM287.41 1117.4v64.85h-2.959c-8.612-5.8-15.82-5.16-23.976-1.86l-150.23 58.97h144.312c13.467 0 19.765-.79 29.894-9.71h2.959v45.39h-2.959c-10.091-8.09-16.427-8.88-29.894-8.88H41.655c-16.389 0-23.142 1.63-32.816 6.87H5.88v-50.4h1.745c7.588 0 16.465-2.5 29.78-8.01l151.066-60.79H38.696c-10.092 0-19.765.8-29.895 9.71H5.842v-45.38h2.96c10.09 8.08 16.426 8.88 29.894 8.88h212.901c18.096 0 23.559-3.23 32.816-9.72h2.959l.038.08zM5.918 1302.09h2.96c10.09 8.43 14.719 10.93 29.894 10.93h212.902c18.095 0 23.558-3.37 32.815-10.09h2.959v71.65h-2.959c-9.257-6.72-14.72-10.17-32.815-10.17H38.772c-15.137 0-19.765 2.54-29.895 11.8H5.918v-74.12zM289.117 493.711l-79.857-.114v-2.694c46.321-21.631 60.927-37.114 60.927-51.876s-13.582-21.365-45.676-21.403l-142.795.076c-40.44 0-61.989 7.59-62.027 28.12 0 22.618 25.684 29.714 61.913 29.107 8.043 0 16.085-.532 21.435-1.139.493 1.784.607 5.161.645 6.945 0 11.992-6.184 21.251-26.822 21.593C34.523 503.047.228 484.452.228 445.82c.038-58.706 56.943-86.143 151.558-86.067 88.734.075 138.697 29.334 139 76.694 0 21.251-8.763 26.981-8.801 38.442 0 6.603 2.959 11.081 7.17 15.824v2.96l-.038.038z" fill="#ffffff"/>
    <path d="M174.168 616.058c-4.893 6.755-7.739 12.789-7.852 21.176-.038 2.39.227 5.92.986 8.083l-.721 1.518-130.579 30.207c-11.646 3.074-19.5 7.779-27.125 13.737H5.918v-54.874c5.805-4.288 12.178-6.982 21.473-9.259l120.791-27.93M29.629 1483.15c.152 14.57 4.552 20.94 34.864 46.48l-.076 2.62-58.499-8.57v-124.51h2.96c10.09 8.42 14.719 10.93 29.894 10.93h212.902c18.095 0 23.558-3.38 32.815-10.1h2.959v122.61h-6.677l-44.917 6.04v-2.05c18.096-16.13 28.035-28.88 28.035-45.62v-10.43c0-6.3-2.01-9.11-6.677-9.11h-82.626s-.076 5.92.114 10.47c.607 16.25 17.792 25.77 26.783 30.33v2.54H120.07v-2.54c12.444-5.89 30.236-13.59 30.464-30.33.076-4.44-.114-10.47-.114-10.47H36.95c-5.538 0-7.283 1.86-7.283 13.21v8.46l-.038.04zM251.635 1609.06H37.785c-5.311 0-7.625 2.47-7.587 12.67v5.36c.076 16.16 12.974 24.81 56.184 50.85v2.65l-80.502-9.33v-124.51h2.96c10.09 8.42 14.719 10.93 29.894 10.93h212.901c18.096 0 23.559-3.38 32.816-10.1h2.959v71.65h-2.959c-9.257-6.72-14.72-10.17-32.816-10.17zM346.971 1659.04c0 18.02-13.544 27.47-30.426 27.47-27.731 0-48.786-24.47-57.55-46.03l3.453-1.74c8.346 10.09 20.334 18.93 33.725 20.34.873-15.3 11.154-25.85 25.153-25.85 13.998 0 25.607 10.14 25.607 25.81h.038zM86.42 1696.27c-42.603 14.42-66.655 34.07-66.655 61.97 0 20.83 11.609 31.19 29.477 31.19 24.507 0 47.914-18.37 76.86-45.58 40.745-39.08 66.428-56.54 102.013-56.54 35.584 0 63.24 20.15 63.24 64.13 0 22.28-9.256 35.52-9.256 47.52 0 5.99 2.011 9.37 6.411 12.18v2.77l-82.475 3.37v-2.69c51.443-31.08 66.58-44.89 66.58-63.15 0-15.02-10.281-22.65-24.811-22.65-22.004 0-42.11 15.63-70.752 43.11-30.995 29.22-62.596 58.51-104.63 58.51-47.8 0-71.625-31.04-71.625-71.79 0-30.17 13.543-45.01 13.543-56.78 0-5.76-2.997-9.06-8.384-10.13v-7.13l80.502 8.95v2.74h-.038zM30.88 1853.52h-7.17v4.75c0 2.01.304 3.49.873 4.4.57.95 1.48 1.4 2.77 1.4s2.238-.45 2.769-1.36c.53-.91.797-2.47.797-4.75v-4.44h-.038zm-20.637 0v-3.87h23.862v8.35c0 2.92-.227 5.01-.683 6.23-.455 1.21-1.214 2.16-2.314 2.92-1.062.72-2.238 1.1-3.452 1.1-1.821 0-3.377-.65-4.628-1.94-1.252-1.29-1.973-2.96-2.125-4.97-.38.91-.986 1.79-1.82 2.58-.873.84-2.24 1.82-4.212 3.04l-4.666 2.92v-4.74l3.756-2.13c2.693-1.52 4.438-2.73 5.235-3.6.797-.88 1.176-2.09 1.176-3.57v-2.32H10.205h.038zm30.425 5.09c0-5.16-1.783-9.56-5.425-13.17-3.604-3.68-7.966-5.5-13.088-5.5-5.121 0-9.484 1.82-13.088 5.46-3.604 3.65-5.387 8.05-5.387 13.21s1.82 9.52 5.425 13.17c3.604 3.64 7.967 5.46 13.05 5.46 5.084 0 9.446-1.82 13.088-5.46 3.642-3.65 5.425-8.05 5.425-13.13v-.04zm3.68 0c0 3.98-.986 7.74-2.997 11.19-1.972 3.46-4.704 6.19-8.118 8.2-3.415 2.01-7.094 3-11.078 3-3.983 0-7.701-.99-11.078-3-3.414-1.97-6.107-4.7-8.08-8.2-1.973-3.45-2.997-7.17-2.997-11.19s.986-7.78 2.959-11.23c1.973-3.49 4.666-6.19 8.08-8.2 3.415-2.01 7.133-3 11.116-3 3.983 0 7.701.99 11.116 3 3.414 2.01 6.108 4.74 8.08 8.24 1.973 3.45 2.997 7.17 2.997 11.19z" fill="#ffffff"/>
</svg>
