<svg version="1.1" id="logo-twitter" xmlns="http://www.w3.org/2000/svg" xmlns:xlink="http://www.w3.org/1999/xlink" x="0px"
	 y="0px" viewBox="0 0 100 100" style="enable-background:new 0 0 100 100;" xml:space="preserve">
<style type="text/css">
	.st0{fill:#ffffff;}
</style>
<g>
	<path class="st0" d="M97.3,30.3c0-8.3-6.1-14.9-13.6-14.9c-10.2-0.5-20.5-0.7-31.1-0.7c-0.6,0-1.1,0-1.7,0c-0.6,0-1.1,0-1.7,0
		c-10.6,0-21,0.2-31.1,0.7c-7.5,0-13.6,6.7-13.6,14.9C4.2,36.9,4,43.4,4,50C4,56.5,4.2,63,4.6,69.6c0,8.3,6.1,15,13.6,15
		c10.7,0.5,21.6,0.7,32.8,0.7c11.2,0,22.1-0.2,32.8-0.7c7.5,0,13.6-6.7,13.6-15c0.4-6.6,0.6-13.1,0.6-19.6
		C98,43.4,97.8,36.9,97.3,30.3z M42,68V31.9l26.6,18L42,68z"/>
</g>
</svg>
