<svg width="47" height="48" viewBox="0 0 47 48" fill="none" xmlns="http://www.w3.org/2000/svg">
<path d="M44.1979 9.46595C47.0061 6.28016 46.0224 1.03009 45.9792 0.808095C45.8937 0.369869 45.5242 0.0440825 45.0787 0.0142908C44.8524 0.00131698 39.5206 -0.314859 36.713 2.87045C35.7425 3.97196 35.2318 5.3213 34.9724 6.62528C33.5898 4.10368 31.211 2.4682 31.0742 2.376C30.7042 2.12566 30.2122 2.15737 29.8758 2.45144C29.7085 2.59794 25.8525 6.03419 25.9793 10.1788C25.107 9.33453 24.3764 8.83101 24.3024 8.78122C23.9329 8.53087 23.4408 8.56258 23.1045 8.85666C22.9397 9.00093 19.2009 12.3357 19.2078 16.3951C18.66 15.9259 18.2565 15.6468 18.2028 15.6107C17.8333 15.3609 17.3412 15.3926 17.0049 15.6862C16.8408 15.8298 13.1304 19.1391 13.1081 23.1769C12.5112 22.6567 12.0661 22.3506 12.0095 22.3124C11.6395 22.0621 11.1465 22.0933 10.8111 22.3879C10.641 22.5368 6.64792 26.0844 6.91556 30.3225C7.10825 33.3735 9.44912 35.79 10.8124 36.9515C3.72779 43.8159 1.70748 45.0297 1.20565 45.2362C0.864963 45.1578 0.493048 45.264 0.245584 45.5446C-0.113357 45.9526 -0.0744361 46.5744 0.333518 46.9338C0.541579 47.1169 0.746758 47.2976 1.10954 47.2976C2.16697 47.2976 4.58166 45.7423 12.299 38.2518C13.5025 39.383 16.1058 41.4435 19.1124 41.4435C19.2479 41.4435 19.3848 41.4392 19.5218 41.4305C23.7565 41.1633 26.7727 36.7542 26.8991 36.5668C27.1484 36.1968 27.1172 35.7047 26.8231 35.3689C26.7866 35.3272 26.5428 35.0538 26.1362 34.671C30.1471 34.1524 32.9722 30.0399 33.0943 29.8588C33.3437 29.4888 33.3124 28.9968 33.0184 28.6609C32.9782 28.615 32.6829 28.2868 32.1996 27.8435C36.2382 27.3515 39.0782 23.2172 39.2006 23.0356C39.45 22.6656 39.4188 22.1735 39.1247 21.8377C39.0998 21.8092 38.972 21.6673 38.7693 21.4627C42.915 21.0885 45.8475 16.8154 45.972 16.6304C46.2214 16.2604 46.1901 15.7683 45.8961 15.4325C45.7758 15.2951 43.4313 12.6603 40.28 11.7972C41.6713 11.3909 43.1213 10.6881 44.1979 9.46595ZM16.873 30.1355C17.3177 30.5237 17.6723 30.789 17.8498 30.9157C17.9531 31.0281 18.1615 31.2476 18.4602 31.5283C17.8083 31.6143 17.1888 31.7883 16.6114 32.0301C16.7784 31.4248 16.8694 30.7889 16.873 30.1355ZM23.0671 23.3868C23.4663 23.7292 23.7839 23.968 23.9485 24.0856C24.067 24.2145 24.3274 24.4852 24.6953 24.8227C24.0294 24.9034 23.3966 25.0778 22.8073 25.3236C22.9774 24.7053 23.0682 24.055 23.0671 23.3868ZM29.1662 16.3676C29.8668 17.0466 30.4694 17.5018 30.7194 17.6804C30.7774 17.7436 30.8727 17.8436 30.9936 17.9654C30.2533 18.0339 29.5544 18.2253 28.9065 18.4955C29.093 17.8183 29.1889 17.1036 29.1662 16.3676ZM30.6076 4.49314C31.696 5.38881 33.8179 7.43627 33.9722 9.88111C34.1255 12.3101 32.276 14.618 31.3092 15.6492C30.2204 14.7516 28.0984 12.7017 27.9442 10.2622C27.7909 7.82836 29.6413 5.52191 30.6076 4.49314ZM23.8348 10.8998C24.9237 11.7998 27.0475 13.854 27.2013 16.2863C27.3546 18.7153 25.5051 21.0232 24.5383 22.0544C23.4495 21.1568 21.3275 19.1069 21.1733 16.6674C21.0195 14.235 22.8681 11.9295 23.8348 10.8998ZM17.7352 17.7293C18.8241 18.6293 20.9479 20.6835 21.1017 23.1158C21.255 25.5448 19.4055 27.8527 18.4387 28.8839C17.3499 27.9863 15.2279 25.9364 15.0737 23.4969C14.9199 21.0645 16.7684 18.759 17.7352 17.7293ZM8.87989 30.1986C8.72613 27.7643 10.5766 25.4583 11.5429 24.4295C12.6312 25.3252 14.7532 27.3727 14.9074 29.8175C15.0506 32.0847 13.4556 34.2334 12.4557 35.3498C12.3809 35.4241 12.3056 35.4973 12.2303 35.5706C11.1369 34.6627 9.03251 32.6152 8.87989 30.1986ZM19.3978 39.4662C17.0375 39.6245 14.7935 37.8743 13.7249 36.8867C14.0454 36.5429 14.4351 36.0873 14.8316 35.5474C15.8163 34.6286 17.3188 33.5434 19.0168 33.4362C21.451 33.2873 23.7517 35.1325 24.7805 36.0992C23.8814 37.1881 21.8282 39.3129 19.3978 39.4662ZM25.593 32.7587C23.2328 32.921 20.9872 31.1772 19.9149 30.1899C20.2392 29.8422 20.6352 29.3791 21.0373 28.8299C22.0221 27.9128 23.5173 26.8367 25.2053 26.7384C27.6419 26.5818 29.9484 28.4274 30.9772 29.3927C30.0815 30.4811 28.035 32.6045 25.593 32.7587ZM31.6869 25.9263C29.33 26.0864 27.0876 24.3475 26.0144 23.3605C26.3405 23.0109 26.739 22.5444 27.1434 21.9914C28.1285 21.0782 29.6177 20.0121 31.2996 19.906C33.743 19.7489 36.0538 21.6027 37.083 22.5695C36.1873 23.6574 34.1389 25.7779 31.6869 25.9263ZM38.4582 19.5211C36.1037 19.6766 33.8603 17.9401 32.7862 16.9543C33.1122 16.6048 33.5104 16.1387 33.9145 15.586C34.8991 14.6727 36.388 13.6074 38.0705 13.5008C40.5196 13.347 42.8251 15.1975 43.8544 16.1643C42.9582 17.2521 40.9098 19.3726 38.4582 19.5211ZM42.7213 8.16472C41.1126 9.99066 38.1728 10.315 36.7601 10.3607C36.6251 8.95564 36.5737 6.00578 38.1901 4.17167C39.8022 2.34237 42.7415 2.01994 44.1523 1.97574C44.2883 3.37835 44.3407 6.32677 42.7213 8.16472Z" fill="#F9F8F6"/>
</svg>
