<svg width="42" height="46" viewBox="0 0 42 46" fill="none" xmlns="http://www.w3.org/2000/svg">
<path d="M34.4546 1.00014C38.3164 7.68892 40.3495 15.2765 40.3495 23.0001C40.3495 30.7237 38.3164 38.3111 34.4546 45H6.89491C3.03311 38.3111 1 30.7237 1 23.0001C1 15.2765 3.03311 7.68892 6.89491 1.00014H34.4546Z" stroke="#F9F8F6" stroke-width="1.8" stroke-miterlimit="22.926" stroke-linecap="round" stroke-linejoin="round"/>
<path d="M11.4952 8.06198C11.9678 5.64074 12.5559 3.29193 13.2558 1.0449M10.4351 30.552C10.2011 28.0676 10.082 25.5413 10.082 23.0001C10.082 20.443 10.2026 17.901 10.4395 15.4017M13.2558 44.9553C12.5603 42.7227 11.9753 40.3896 11.5043 37.9847" stroke="#F9F8F6" stroke-width="1.8" stroke-miterlimit="22.926" stroke-linecap="round" stroke-linejoin="round"/>
<path d="M29.8553 8.06186C29.3828 5.64061 28.7947 3.29181 28.0947 1.04478M30.9155 30.5519C31.1495 28.0676 31.2685 25.5412 31.2685 23C31.2685 20.4429 31.1479 17.9009 30.911 15.4016M28.0947 44.9552C28.7901 42.7226 29.3753 40.3895 29.8462 37.9846" stroke="#F9F8F6" stroke-width="1.8" stroke-miterlimit="22.926" stroke-linecap="round" stroke-linejoin="round"/>
<path d="M20.6748 37.9846V44.4993M20.6748 15.4015V30.5518M20.6748 1.50068V8.06184" stroke="#F9F8F6" stroke-width="1.8" stroke-miterlimit="22.926" stroke-linecap="round" stroke-linejoin="round"/>
<path d="M39.4805 15.309H1.87012M3.79234 8.15451H37.5582" stroke="#F9F8F6" stroke-width="1.8" stroke-miterlimit="22.926" stroke-linecap="round" stroke-linejoin="round"/>
<path d="M37.5582 37.8455H3.79252M1.87012 30.691H39.4805" stroke="#F9F8F6" stroke-width="1.8" stroke-miterlimit="22.926" stroke-linecap="round" stroke-linejoin="round"/>
<path d="M15.7559 11.7317H15.7565" stroke="#F9F8F6" stroke-width="1.8" stroke-miterlimit="22.926" stroke-linecap="round" stroke-linejoin="round"/>
<path d="M6.8125 11.7317H6.81328" stroke="#F9F8F6" stroke-width="1.8" stroke-miterlimit="22.926" stroke-linecap="round" stroke-linejoin="round"/>
<path d="M25.5938 11.7317H25.5944" stroke="#F9F8F6" stroke-width="1.8" stroke-miterlimit="22.926" stroke-linecap="round" stroke-linejoin="round"/>
<path d="M34.5371 11.7317H34.5378" stroke="#F9F8F6" stroke-width="1.8" stroke-miterlimit="22.926" stroke-linecap="round" stroke-linejoin="round"/>
<path d="M15.7559 34.2683H15.7565" stroke="#F9F8F6" stroke-width="1.8" stroke-miterlimit="22.926" stroke-linecap="round" stroke-linejoin="round"/>
<path d="M6.8125 34.2683H6.81328" stroke="#F9F8F6" stroke-width="1.8" stroke-miterlimit="22.926" stroke-linecap="round" stroke-linejoin="round"/>
<path d="M25.5938 34.2683H25.5944" stroke="#F9F8F6" stroke-width="1.8" stroke-miterlimit="22.926" stroke-linecap="round" stroke-linejoin="round"/>
<path d="M34.5371 34.2683H34.5378" stroke="#F9F8F6" stroke-width="1.8" stroke-miterlimit="22.926" stroke-linecap="round" stroke-linejoin="round"/>
</svg>
