<svg width="48" height="48" viewBox="0 0 48 48" fill="none" xmlns="http://www.w3.org/2000/svg">
<path d="M45.563 42.0543V30.0005C45.563 29.483 45.1432 29.0633 44.6257 29.0633H42.1879V27.7554C42.1879 25.3669 40.5791 23.2821 38.2757 22.6859C33.3763 21.4181 29.869 17.1747 29.4753 12.1874H29.5941C30.1116 12.1874 30.5314 11.7676 30.5314 11.2501V6.75007C30.5314 6.23256 30.1116 5.81279 29.5941 5.81279H29.438V0.937275C29.438 0.41977 29.0183 0 28.5007 0H24.0007C23.4832 0 23.0634 0.41977 23.0634 0.937275V5.81209H22.9073C22.3898 5.81209 21.9701 6.23186 21.9701 6.74936V11.2494C21.9701 11.7669 22.3898 12.1867 22.9073 12.1867H23.0262C22.7098 16.1952 20.3824 19.7221 16.937 21.6108L13.4481 13.5944C12.8279 12.1698 11.4238 11.2494 9.86986 11.2494H7.65289C5.5013 11.2494 3.75051 13.0002 3.75051 15.1518V25.2649C3.75051 26.0145 3.14089 26.6241 2.39135 26.6241H0.937275C0.41977 26.6241 0 27.0439 0 27.5614C0 28.0789 0.41977 28.4986 0.937275 28.4986H2.39065C4.17379 28.4986 5.62506 27.0474 5.62506 25.2642V15.1511C5.62506 14.0331 6.5342 13.124 7.65218 13.124H9.86916C10.6764 13.124 11.4062 13.6021 11.7282 14.3425L15.2249 22.3779C14.8987 22.4939 14.5654 22.5966 14.2244 22.6851C11.9209 23.2814 10.3121 25.3662 10.3121 27.7547V29.0626H7.87437C7.35687 29.0626 6.9371 29.4823 6.9371 29.9998V42.0536C5.55123 42.318 4.49934 43.5379 4.49934 44.9997C4.49934 46.6542 5.84514 48 7.49961 48H44.9997C46.6542 48 48 46.6542 48 44.9997C48 43.5379 46.9488 42.3173 45.5622 42.0536L45.563 42.0543ZM24.938 1.87525H27.5628V5.81279H24.938V1.87525ZM23.8439 7.68734H28.6561V10.3121H28.5007H24.0007H23.8453V7.68734H23.8439ZM8.81235 30.9378H22.0312C22.5487 30.9378 22.9685 30.518 22.9685 30.0005C22.9685 29.483 22.5487 29.0633 22.0312 29.0633H12.1874V27.7554C12.1874 26.2219 13.2182 24.8831 14.6948 24.5013C20.4218 23.0191 24.5084 18.0311 24.9056 12.1881H27.5944C27.9917 18.0311 32.079 23.0191 37.8053 24.5013C39.2819 24.8831 40.3127 26.2212 40.3127 27.7554V29.0633H30.4688C29.9513 29.0633 29.5315 29.483 29.5315 30.0005C29.5315 30.518 29.9513 30.9378 30.4688 30.9378H43.6877V42.0002H8.81235V30.9378ZM45.0004 46.1255H7.50031C6.88015 46.1255 6.3753 45.6206 6.3753 45.0004C6.3753 44.3803 6.88015 43.8754 7.50031 43.8754H45.0004C45.6206 43.8754 46.1255 44.3803 46.1255 45.0004C46.1255 45.6206 45.6206 46.1255 45.0004 46.1255ZM27.169 29.817C27.1571 29.7572 27.1395 29.6982 27.1163 29.6412C27.0924 29.585 27.0635 29.5301 27.0298 29.4795C27.0129 29.4542 26.9946 29.4289 26.975 29.4057C26.9553 29.3818 26.9349 29.3586 26.9131 29.3375C26.7387 29.1624 26.4968 29.0626 26.25 29.0626C26.0032 29.0626 25.7621 29.1624 25.5877 29.3375C25.5659 29.3586 25.5448 29.3818 25.5251 29.4057C25.5061 29.4289 25.4878 29.4542 25.471 29.4795C25.4372 29.5301 25.4077 29.585 25.3845 29.6412C25.3613 29.6982 25.343 29.7572 25.331 29.817C25.3254 29.8465 25.3205 29.8775 25.3177 29.9077C25.3142 29.9387 25.3127 29.9696 25.3127 29.9998C25.3127 30.0301 25.3142 30.0617 25.3177 30.0919C25.3205 30.1229 25.3254 30.1531 25.331 30.1833C25.343 30.2431 25.3613 30.3022 25.3845 30.3584C25.4077 30.4154 25.4372 30.4695 25.471 30.5208C25.4878 30.5462 25.5061 30.5708 25.5251 30.5947C25.5448 30.6186 25.5659 30.6411 25.5877 30.6629C25.7621 30.8373 26.0032 30.9378 26.25 30.9378C26.4968 30.9378 26.7387 30.8373 26.9131 30.6629C26.9349 30.6411 26.9553 30.6186 26.975 30.5947C26.9946 30.5708 27.0129 30.5462 27.0298 30.5208C27.0635 30.4695 27.0924 30.4154 27.1163 30.3584C27.1395 30.3022 27.1571 30.2431 27.169 30.1833C27.1753 30.1531 27.1803 30.1229 27.1831 30.0919C27.1859 30.0617 27.188 30.0308 27.188 29.9998C27.188 29.9689 27.1859 29.9387 27.1831 29.9077C27.1803 29.8775 27.1753 29.8465 27.169 29.817Z" fill="white"/>
</svg>
