<svg width="24" height="34" viewBox="0 0 24 34" fill="none" xmlns="http://www.w3.org/2000/svg">
<path d="M22.8 31.3846H21.6V26.1661C21.6 26.162 21.6 26.1571 21.6 26.153C21.5933 21.214 17.5313 18.5423 14.7285 17.0008C17.532 15.4594 21.5933 12.7876 21.6 7.84861C21.6 7.84861 21.6 7.84861 21.6 7.84779C21.6 7.84697 21.6 7.84779 21.6 7.84697V2.61538H22.8C23.4623 2.61538 24 2.02938 24 1.30769C24 0.58601 23.4623 0 22.8 0H1.2C0.53775 0 0 0.58601 0 1.30769C0 2.02938 0.53775 2.61538 1.2 2.61538H2.4V7.84615C2.4 7.84615 2.4 7.84615 2.4 7.84697C2.4 7.84779 2.4 7.84697 2.4 7.84779C2.406 12.513 5.85525 15.1398 9.195 17C5.856 18.8602 2.406 21.4862 2.4 26.1522C2.4 26.1522 2.4 26.1522 2.4 26.153C2.4 26.1538 2.4 26.153 2.4 26.1538V31.3846H1.2C0.53775 31.3846 0 31.9706 0 32.6923C0 33.414 0.53775 34 1.2 34H22.8C23.4623 34 24 33.414 24 32.6923C24 31.9706 23.4623 31.3846 22.8 31.3846ZM4.8 7.84452V2.61538H19.2V7.84452C19.1955 11.4276 15.8715 13.4921 12.7553 15.1455C12.5003 15.2812 12.234 15.4177 11.9618 15.5575C8.5065 13.7937 4.80525 11.7357 4.8 7.84534V7.84452ZM19.2 31.3846H4.8V26.1555C4.80525 22.2643 8.5065 20.2055 11.9618 18.4434C12.234 18.5823 12.5003 18.7196 12.7553 18.8553C15.8708 20.5087 19.1947 22.574 19.2 26.1563V31.3854V31.3846Z" fill="#F9F8F6"/>
</svg>
