<svg width="187" height="126" viewBox="0 0 187 126" fill="none" xmlns="http://www.w3.org/2000/svg">
<path d="M141.77 54.5063C141.77 51.7484 139.944 48.6439 135.57 48.6439C135.504 48.6439 135.432 48.6439 135.366 48.649C134.746 47.1809 133.866 46.2888 132.386 46.2888C130.153 46.2888 129.212 48.8224 128.861 50.7289C127.793 51.0602 126.745 51.2285 126.063 51.2285C123.078 51.2183 121.282 49.4902 121.252 47.0331C121.252 47.0178 121.252 47.0076 121.252 46.9923C123.907 46.8037 126.567 45.514 126.567 43.8113C126.567 43.062 125.961 42.6746 125.026 42.6796C123.378 42.6898 121.511 43.9031 120.992 45.881C120.763 45.881 120.534 45.881 120.305 45.8657C119.09 45.779 117.849 45.5802 116.77 45.0705C116.247 44.8156 115.774 44.4638 115.468 43.9898C117.177 43.6431 118.897 42.5624 118.861 41.3441C118.841 40.6253 118.276 40.2022 117.381 40.2022C115.753 40.2022 114.639 41.4664 114.639 42.9192C114.639 42.96 114.639 43.0059 114.644 43.0518C114.141 43.0875 113.632 43.1028 113.134 43.0722C112.523 43.0416 111.918 42.9447 111.333 42.7969C110.748 42.644 110.184 42.4044 109.716 42.0526C109.543 41.9252 109.385 41.7723 109.253 41.6091C109.273 41.6091 109.288 41.5989 109.309 41.5938C110.748 41.186 111.745 40.3551 111.745 39.3763C111.745 38.7442 111.343 38.4027 110.672 38.4027C109.487 38.4027 108.449 39.3509 108.429 40.7578C108.429 40.8139 108.429 40.87 108.439 40.926C108.286 40.9362 108.134 40.9515 107.981 40.9566C105.916 40.9923 104.1 40.5794 103.409 39.7995C104.36 39.4579 105.275 38.836 105.275 37.9949C105.275 37.4902 104.919 37.22 104.334 37.22C103.454 37.22 102.666 37.8878 102.666 38.9227C102.666 39.0348 102.676 39.152 102.691 39.2642C101.644 39.4477 100.545 39.4987 99.4971 39.3407C98.2968 39.147 97.1116 38.6423 96.3232 37.6635L96.1401 37.4035L96.0588 37.7094C95.7943 38.678 95.0517 39.3662 93.7953 39.3967C93.4901 39.4018 93.2257 39.3713 92.9306 39.305C93.4037 38.9889 93.8309 38.4792 93.8309 37.791C93.8309 36.9549 93.2257 36.5063 92.4932 36.5063C91.7608 36.5063 91.2013 37.0671 91.2013 37.8216C91.2013 38.5046 91.5573 39.0042 92.0761 39.3254C91.832 39.3763 91.5522 39.4018 91.303 39.4018C89.9907 39.4018 89.1922 38.7595 88.9022 37.8521L88.8412 37.6227L88.6581 37.7961C87.0101 39.3662 84.6297 39.6261 82.4731 39.3203C82.29 39.2897 82.1119 39.2489 81.9339 39.203C81.9797 39.0195 82.0102 38.8258 82.0102 38.6576C82.0102 37.7043 81.3236 37.1792 80.6216 37.1792C80.1486 37.1792 79.8332 37.4851 79.8332 37.9184C79.8332 38.7289 80.6216 39.2795 81.2879 39.5905C80.7132 40.1818 79.7061 40.4418 78.7295 40.559C77.8343 40.6712 77.1629 40.7068 76.3491 40.6355C76.3593 40.5335 76.3694 40.4367 76.3694 40.3296C76.3694 39.3254 75.5963 38.2905 74.3501 38.2905C73.7093 38.2905 73.2922 38.627 73.2922 39.2438C73.2922 40.2226 74.4468 40.9464 75.5607 41.2931C74.9656 42.022 73.5923 42.7459 71.6696 42.853C71.3645 42.8683 71.0542 42.8683 70.749 42.853C70.7134 41.3084 69.4113 40.0238 67.8498 40.0238C66.9546 40.0238 66.4154 40.5131 66.4154 41.1911C66.4154 42.5471 68.3126 43.5055 69.9403 43.7909C69.1671 44.9175 67.2191 45.8912 64.0859 45.9677C63.9841 45.9677 63.8875 45.9677 63.7858 45.9728C63.3331 44.4027 61.8936 42.8581 59.8693 42.8581C58.9537 42.8581 58.3586 43.3118 58.3586 44.0407C58.3586 45.6822 60.7289 46.926 63.5467 47.1197C63.5467 47.1605 63.5518 47.2064 63.5518 47.2472C63.5823 49.5768 62.1836 51.1724 59.3911 51.1724C57.9263 51.1724 56.8785 50.8767 55.9884 50.5811C55.6171 48.5777 54.8083 46.0951 52.4127 46.0951C51.1105 46.0951 50.0017 47.0127 49.3151 48.8326C49.0607 48.8326 48.8064 48.8326 48.5572 48.8529C45.6325 49.0671 43.5166 50.9073 43.5166 54.7816C43.5166 57.1673 44.6102 60.1851 46.8431 62.3669C46.1971 63.0296 45.8462 64.0135 45.8462 65.1961C45.8462 68.4026 48.313 71.8129 50.6782 73.4952C50.6019 73.7144 50.5358 73.9897 50.5358 74.3159C50.5358 77.1808 54.0505 79.6634 57.5143 80.6472C57.499 80.688 57.4888 80.7237 57.4736 80.7645C57.4227 80.9531 57.3973 81.1519 57.4075 81.3456C57.4787 83.1859 59.9506 84.9497 64.5742 85.2301C65.1693 85.2657 65.7593 85.2708 66.3493 85.2606C66.334 85.3728 66.3188 85.49 66.3188 85.643C66.3188 87.1825 67.6819 88.5588 70.4591 88.5588C72.9056 88.5588 75.0775 87.626 77.3511 87.5036C77.9106 87.473 78.5871 87.5036 79.0754 87.6973C79.1568 87.733 79.1771 87.7636 79.1771 87.7891C79.1771 87.8146 79.1466 87.8299 79.1008 87.8401C77.1375 88.2071 75.5404 88.6659 75.5404 89.9352C75.5404 90.812 76.3745 91.3575 77.5139 91.3524C78.0988 91.3524 78.643 91.1943 79.1466 91.0108C80.2809 90.5979 81.2727 90.0372 82.3205 89.5988C83.353 89.14 84.4364 88.8035 85.5605 88.6557C86.6795 88.5282 87.8392 88.5741 88.9633 88.7271C89.5279 88.8035 90.1077 88.9259 90.6163 89.0788C90.7486 89.1196 90.9927 89.2062 91.0945 89.2572C91.1046 89.2623 91.1046 89.2776 91.0945 89.2776C91.0436 89.2776 90.9978 89.2623 90.9266 89.2521C90.8198 89.2368 90.5401 89.191 90.4231 89.1706C89.2837 88.987 88.124 88.8494 86.9593 88.8545C86.3031 88.8545 85.6419 88.9004 84.9908 89.0737C84.6704 89.1655 84.3449 89.2827 84.0549 89.5121C83.9125 89.6243 83.7752 89.7772 83.7091 89.9811C83.648 90.185 83.6531 90.4093 83.7192 90.603C83.8616 91.0006 84.1719 91.2708 84.4822 91.4747C84.7975 91.6786 85.1434 91.8061 85.4842 91.8927C86.181 92.0508 86.8677 92.0151 87.5391 91.9335C88.8972 91.7551 90.0924 91.174 91.3284 90.8936C91.949 90.7458 92.5797 90.6999 93.2053 90.7916C93.8309 90.8885 94.4464 91.0669 95.0618 91.2708C95.6773 91.4747 96.2876 91.6939 96.9489 91.8469C97.2795 91.9131 97.6152 91.9896 97.9814 91.9947C98.3273 92.01 98.663 91.9947 99.0038 91.959C99.6802 91.8672 100.382 91.6786 100.982 91.1689C101.13 91.0363 101.262 90.8732 101.349 90.6744C101.41 90.5316 101.43 90.394 101.43 90.2462C101.43 89.1094 99.6192 88.8392 98.0374 88.8392C97.5796 88.8392 97.1116 88.8647 96.7047 88.8851C96.0537 88.9259 95.3924 89.0278 94.7516 89.0941C94.5939 89.1094 93.9988 89.196 93.8258 89.1757C93.8258 89.1757 93.8208 89.1655 93.8258 89.1655C93.9632 89.1145 94.2785 89.0431 94.4311 89.0023C95.6671 88.7169 97.0353 88.5792 98.3171 88.5435C99.5989 88.5028 100.881 88.6251 102.076 89.0227C102.671 89.2164 103.251 89.456 103.81 89.7415C104.37 90.027 104.914 90.343 105.504 90.6489C106.084 90.9446 106.806 91.2708 107.579 91.2759C108.612 91.2759 109.37 90.6897 109.37 89.8842C109.37 89.196 108.902 88.7729 108.098 88.4773C107.513 88.2632 106.786 88.1816 106.165 88.0593C106.028 88.0338 105.942 88.0083 105.942 87.9777C105.942 87.9369 106.084 87.8452 106.231 87.7891C106.506 87.6769 106.822 87.6209 107.127 87.6005C107.742 87.5699 108.398 87.6565 109.019 87.7483C110.275 87.9522 111.521 88.3549 112.849 88.513C113.515 88.5894 114.156 88.6455 114.873 88.5996C115.57 88.5435 116.277 88.3753 116.918 88.0236C117.549 87.6769 118.139 87.1366 118.424 86.428C118.561 86.0763 118.627 85.7041 118.612 85.3473C118.612 85.3371 118.612 85.3218 118.612 85.3116C120.784 85.3728 122.94 85.0159 124.436 84.4756C126.338 83.7619 127.716 82.462 127.716 81.106C127.716 80.8104 127.645 80.5504 127.528 80.3159C128.174 80.112 128.82 79.8622 129.435 79.5818C130.046 79.3116 130.631 78.9905 131.195 78.6285C131.765 78.2717 132.314 77.8792 132.813 77.4051C133.306 76.931 133.759 76.3856 134.084 75.7433C134.344 75.2284 134.522 74.79 134.522 74.0253C134.522 73.7806 134.476 73.5411 134.385 73.3219C137.162 71.1706 139.054 67.6685 139.054 64.8648C139.054 63.7229 138.744 62.8971 138.24 62.3363C140.224 60.3635 141.78 57.6618 141.78 54.5114M139.166 50.0152C140.112 50.7544 140.498 51.9676 140.519 53.3185C140.554 55.4596 140.015 59.1197 137.701 61.8724C137.207 61.5564 136.607 61.4035 135.961 61.3933C136.328 59.0228 136.465 56.6218 136.409 54.2259C136.343 52.559 136.104 50.8156 135.631 49.3678C135.987 49.2964 136.363 49.2506 136.719 49.2557C137.635 49.2659 138.581 49.5513 139.166 50.0101M135.9 61.7552C136.526 61.7807 137.014 61.9489 137.375 62.2395C136.775 62.8818 136.149 63.3355 135.554 63.5649C135.687 62.9633 135.804 62.3567 135.905 61.7501M135.132 63.6974C134.98 63.728 134.832 63.7484 134.69 63.7484C134.054 63.7382 133.8 63.4629 133.8 63.0653C133.8 62.5606 134.415 61.847 135.514 61.7603C135.407 62.4077 135.28 63.0551 135.132 63.6974ZM132.38 46.5845C133.53 46.5845 134.385 47.2217 135.01 48.6745C133.215 48.8479 131.338 49.7858 129.883 50.367C129.7 50.4434 129.517 50.5097 129.334 50.576C129.781 47.7111 131.017 46.5845 132.38 46.5845ZM122.757 43.8827C123.245 43.5004 123.82 43.2251 124.42 43.1028C124.619 43.062 124.822 43.0365 125.026 43.0365C125.794 43.0212 126.155 43.3576 126.155 43.7706C126.155 44.8003 124.644 45.8249 121.404 45.881C121.628 45.096 122.086 44.3925 122.757 43.8827ZM117.355 40.4978C118.052 40.4978 118.474 40.8088 118.464 41.3237C118.454 41.864 117.854 42.7714 115.112 43.0212C115.102 42.9447 115.097 42.8683 115.097 42.7867C115.097 41.4919 116.069 40.4978 117.355 40.4978ZM110.646 38.6933C111.079 38.6933 111.374 38.9023 111.374 39.3152C111.374 40.0543 110.377 40.7068 108.907 40.8904C108.892 40.8088 108.881 40.7221 108.881 40.6304C108.881 39.5242 109.634 38.6831 110.652 38.6933M103.012 38.836C103.012 37.9439 103.643 37.4902 104.334 37.4902C104.706 37.4902 104.919 37.6584 104.919 37.9235C104.919 38.3364 104.467 38.8666 103.164 39.1724C103.129 39.1775 103.098 39.1877 103.063 39.1928C103.032 39.0807 103.012 38.9634 103.012 38.8411M91.5319 37.8063C91.5319 37.1996 91.9439 36.8224 92.4729 36.8173C93.0069 36.8173 93.4596 37.1894 93.4596 37.7859C93.4596 38.3262 93.1138 38.8564 92.4932 39.1571C91.8829 38.8921 91.5319 38.3874 91.5319 37.8012M80.1283 37.847C80.1283 37.5769 80.2961 37.4188 80.6013 37.4188C81.1048 37.4188 81.6643 37.8725 81.6643 38.5556C81.6643 38.7544 81.644 38.9379 81.5779 39.1113C80.4843 38.7697 80.1283 38.2752 80.1283 37.847ZM73.6126 39.1673C73.6126 38.7391 73.9178 38.5556 74.2789 38.5556C75.108 38.5556 75.9727 39.2285 75.9269 40.3449C75.9269 40.4214 75.9117 40.5029 75.8964 40.5794C74.4875 40.3806 73.6126 39.8351 73.6126 39.1673ZM66.7664 41.135C66.7664 40.6304 67.1885 40.3194 67.8599 40.3194C69.1621 40.3194 70.2455 41.548 70.2455 42.7612C70.2455 42.7867 70.2455 42.8071 70.2455 42.8326C68.1956 42.6746 66.7766 42.0068 66.7766 41.135M58.7299 44.005C58.7299 43.5106 59.1114 43.1588 59.8693 43.1741C61.3697 43.1945 62.8295 44.316 63.3382 45.9881C60.5407 45.9728 58.7452 45.045 58.735 44.0101M52.3669 46.3908C54.1573 46.3908 55.0881 48.0118 55.4899 50.423C54.3862 50.0356 53.2621 49.587 52.082 49.271C51.2886 49.0518 50.4544 48.8988 49.6152 48.8529C50.312 47.0688 51.2987 46.3908 52.372 46.3908M44.422 53.5275C44.422 51.9625 44.8035 51.0348 45.4545 50.4128C46.2276 49.6584 47.2195 49.4086 48.313 49.4086C48.6894 49.4086 48.9031 49.429 49.0913 49.4545C48.6793 50.8563 48.3944 52.9413 48.3944 55.3831C48.4046 57.519 48.5724 59.5071 48.9285 61.4697C48.3893 61.5003 47.9061 61.6278 47.4992 61.8572C45.6325 59.5173 44.4271 56.0968 44.4271 53.5224M49.3405 61.7756C50.3985 61.8062 51.1767 62.3312 51.1716 63.0296C51.1716 63.4068 50.8511 63.6719 50.3323 63.6923C50.1594 63.6923 49.9712 63.6821 49.7728 63.6362C49.6101 63.0194 49.4626 62.3975 49.3405 61.7807M49.3608 63.4884C48.7606 63.2233 48.2774 62.79 47.7586 62.1834C48.1096 61.954 48.5267 61.8266 48.9844 61.7909C49.0913 62.3567 49.2235 62.9226 49.3608 63.4884ZM46.721 64.3601C46.721 63.5904 46.8787 63.0908 47.1584 62.6983C47.7586 63.2386 48.5674 63.8249 49.5033 64.0186C49.8288 65.2318 50.2204 66.4451 50.7087 67.6889C51.3191 69.2488 52.0413 70.666 52.8552 71.9557C52.1685 72.0576 51.5225 72.3431 51.08 72.8121C49.137 71.0687 46.721 67.4493 46.721 64.3601ZM53.491 72.2156C54.8287 72.2156 55.8205 72.8885 55.8205 73.6481C55.8205 73.9947 55.6374 74.3057 55.1186 74.4179C54.5388 73.7195 53.9945 72.9854 53.491 72.2156ZM54.6507 74.4586C54.6507 74.4586 54.6252 74.4586 54.61 74.4586C54.0657 74.4433 53.5266 74.3006 53.023 74.0865C52.4228 73.8316 51.8786 73.4748 51.3699 73.0568C51.7107 72.598 52.3567 72.3176 53.0332 72.236C53.5418 73.0211 54.081 73.7603 54.6507 74.4535M51.1055 73.8928C51.1055 73.8673 51.1105 73.8367 51.1156 73.8112C51.6548 74.1477 52.2194 74.428 52.8297 74.632C53.4045 74.8155 54.0149 74.9174 54.6201 74.8817C54.7371 74.8766 54.849 74.8563 54.966 74.8359C56.0596 76.1205 57.2396 77.2471 58.4603 78.236C58.7859 78.5011 59.1216 78.7458 59.4573 78.9905C58.9079 79.1893 58.3027 79.5563 57.967 79.8826C55.3475 78.807 51.1207 75.6821 51.1055 73.8877M60.2507 79.1077C60.5254 79.0466 60.8153 79.016 61.1103 79.016C62.3463 79.016 62.977 79.4187 62.9821 79.8418C62.9821 80.1171 62.8295 80.3312 62.3718 80.4739C61.6444 80.0457 60.9374 79.592 60.2507 79.1077ZM61.8326 80.581C61.736 80.5912 61.6342 80.6013 61.5376 80.6064C60.4847 80.6421 59.4369 80.4127 58.4349 80.061C58.5672 79.9183 58.7197 79.7857 58.8927 79.6787C59.1724 79.5003 59.4725 79.3575 59.7879 79.2454C60.4491 79.7194 61.1358 80.1578 61.8326 80.581ZM58.0433 81.0041C58.0433 80.9429 58.0433 80.8766 58.0585 80.8053C59.1724 81.0652 60.561 81.2182 61.5783 81.0703C61.8326 81.0296 62.0869 80.9735 62.3311 80.8868C64.0197 81.8707 65.7949 82.7118 67.6107 83.4357C67.275 83.66 66.863 84.0219 66.5985 84.4858C61.8021 84.3685 58.0382 82.5843 58.0382 81.0041M70.3574 83.9607C70.3268 83.9913 70.2912 84.0117 70.2505 84.0372C69.6453 83.8282 69.0451 83.6039 68.45 83.3745C68.6127 83.3031 68.7755 83.2419 68.9484 83.2012C69.1112 83.1604 69.3197 83.1451 69.4876 83.1451C70.159 83.14 70.515 83.3388 70.515 83.6549C70.515 83.767 70.454 83.8843 70.3523 83.9658M69.7775 84.2462C69.7419 84.2564 69.7063 84.2666 69.6707 84.2768C69.1468 84.4093 68.5822 84.4501 68.0176 84.4756C67.743 84.4858 67.4683 84.4858 67.1936 84.4858C67.2801 84.3176 67.392 84.1544 67.5446 83.9964C67.687 83.8435 67.8549 83.716 68.0329 83.6039C68.6127 83.8282 69.1926 84.0474 69.7775 84.2513M118.062 85.3269C118.032 85.6175 117.945 85.8876 117.793 86.117C117.498 86.5809 116.994 86.8664 116.46 87.055C115.921 87.2385 115.346 87.3507 114.756 87.4068C114.461 87.4373 114.166 87.4374 113.851 87.4424C112.132 87.4424 109.817 87.1927 107.935 87.1927C107.325 87.1927 106.598 87.2589 106.084 87.4934C105.764 87.6413 105.616 87.7942 105.616 87.9726C105.616 88.1612 105.794 88.2581 106.079 88.3193C106.725 88.4467 107.356 88.5283 107.951 88.7322C108.241 88.8341 108.52 88.9921 108.698 89.2113C108.881 89.4254 108.927 89.7058 108.851 89.9403C108.698 90.3787 108.083 90.4297 107.559 90.3634C107.035 90.2921 106.486 90.0627 105.921 89.7823C104.797 89.2113 103.536 88.6404 102.229 88.3906C100.921 88.1255 99.5327 88.1051 98.2357 88.1714C96.9336 88.2479 95.601 88.3855 94.3192 88.6812C93.7546 88.8188 93.5105 88.9463 93.5105 89.1808C93.5105 89.349 93.6376 89.4866 94.014 89.4866C94.248 89.4866 94.6346 89.4254 94.7973 89.4102C95.4433 89.3388 96.0791 89.2674 96.72 89.2266C97.3558 89.1859 98.0068 89.1553 98.6325 89.191C100.011 89.298 100.982 89.558 100.993 90.1289C101.003 90.3634 100.84 90.552 100.606 90.6591C100.123 90.8732 99.4921 90.8834 98.8969 90.9293C98.5969 90.9497 98.2815 90.965 97.9865 90.97C97.7067 90.97 97.3965 90.9548 97.0913 90.9242C96.4708 90.8681 95.8299 90.7763 95.189 90.6897C94.5481 90.603 93.892 90.5062 93.2358 90.4501C92.5746 90.3838 91.9032 90.4297 91.2521 90.5062C89.2125 90.7814 88.0935 90.9649 86.6235 90.9599C85.4689 90.9599 84.0448 90.8732 84.0346 90.2054C84.0346 89.8791 84.5025 89.5835 85.0722 89.4152C85.6673 89.2419 86.3082 89.1808 86.944 89.1757C88.0884 89.1757 89.1972 89.3235 90.3569 89.5019C90.535 89.5274 90.891 89.5784 91.0741 89.5784C91.3488 89.5784 91.4556 89.4662 91.4556 89.3133C91.4556 89.0431 91.0436 88.8749 90.713 88.7627C89.7771 88.462 88.0782 88.1969 86.3845 88.1969C86.0895 88.1969 85.7996 88.1969 85.5045 88.2173C84.3296 88.2683 83.1597 88.5232 82.0356 88.8647C80.9116 89.2113 79.8333 89.6803 78.7956 90.0372C78.2717 90.2054 77.4935 90.4246 76.9391 90.4246C76.3084 90.4246 76.0185 90.1289 76.0185 89.7415C76.0185 89.14 76.8526 88.6659 78.2209 88.3549C78.2209 88.3549 78.8821 88.2173 79.1008 88.1663C79.4314 88.0899 79.5433 88.0083 79.5433 87.8503C79.5433 87.6667 79.3806 87.5087 79.0754 87.3864C78.582 87.1876 77.9157 87.1519 77.3308 87.1264C75.3064 87.0958 73.2871 87.4475 71.3746 87.4781C68.3788 87.524 66.9902 86.6115 66.9902 85.3269C66.9902 85.3014 66.9953 85.2759 66.9953 85.2453C68.2567 85.1689 69.6351 84.9344 70.3574 84.4552C74.4264 85.8214 78.6278 86.7237 82.8495 87.4068C82.941 87.4221 83.0224 87.3609 83.0377 87.2691C83.0529 87.1774 82.9919 87.0958 82.9003 87.0805C78.7193 86.3974 74.6706 85.5308 70.6625 84.185C70.7897 84.0321 70.8609 83.869 70.8609 83.6753C70.8609 83.1298 70.3268 82.8647 69.4978 82.8647C68.9637 82.8647 68.394 83.038 68.0176 83.2114C66.1967 82.4875 64.4216 81.6668 62.738 80.7033C62.9262 80.5912 63.0991 80.4382 63.2059 80.2241C63.2517 80.112 63.2822 79.9998 63.2822 79.8775C63.2822 79.1383 62.3158 78.7305 61.0595 78.7305C60.6373 78.7305 60.1795 78.807 59.8896 78.8681C59.4827 78.5725 59.0758 78.2666 58.6841 77.9505C57.4685 76.9616 56.3648 75.8911 55.3577 74.7186C55.8358 74.5147 56.1206 74.1324 56.1206 73.6634C56.1206 72.7611 55.1135 71.9098 53.4198 71.9098C53.374 71.9098 53.3282 71.9149 53.2824 71.9149C52.433 70.5742 51.6853 69.1265 51.0546 67.5462C50.5866 66.3686 50.2001 65.2165 49.8796 64.0695C49.9559 64.0746 50.0322 64.0899 50.1136 64.0899C50.8766 64.0899 51.4717 63.7025 51.4717 63.0245C51.4717 62.1324 50.5714 61.5105 49.2693 61.4697C48.9031 59.5173 48.72 57.5241 48.7047 55.3831C48.7047 53.1197 48.9641 50.9175 49.3812 49.5055C50.195 49.6431 50.9834 49.9133 51.7667 50.214C52.9213 50.6626 54.32 51.2794 55.6222 51.6771C55.6781 52.4876 55.6679 53.3134 55.6222 54.1189C55.5001 56.2956 55.2661 58.4876 55.2458 60.7102C55.2 62.9277 55.4187 65.1961 56.0443 67.3881C57.4939 72.3941 60.7594 75.5903 63.9536 78.0117C65.7237 79.3473 67.6412 80.4535 69.5944 81.4425C69.6707 81.4832 69.7673 81.4527 69.808 81.3762C69.8487 81.2997 69.8233 81.2029 69.7419 81.157C65.683 78.9446 62.326 76.2938 60.0422 72.7356C59.0046 71.1451 58.0687 69.1265 57.3363 66.9956C56.7208 64.9769 56.4258 62.8461 56.3139 60.6898C56.1969 58.5284 56.2783 56.3415 56.2529 54.1291C56.2427 53.3644 56.2122 52.5896 56.1257 51.8198C56.8887 52.0237 57.6872 52.1613 58.5061 52.1563C62.5243 52.141 64.096 49.5666 63.9384 47.1452C63.9841 47.1452 64.0299 47.1452 64.0757 47.1452C66.7918 47.1452 69.7368 45.9524 70.5201 43.8674C70.7643 43.8827 71.0593 43.8929 71.2576 43.8929C73.3125 43.8929 75.2911 43.0263 76.0541 41.4358C76.4356 41.5072 76.9645 41.5633 77.4833 41.5633C79.2127 41.5633 80.9624 40.8649 81.6542 39.7587C82.3307 40.0136 83.175 40.192 84.0905 40.192C86.1454 40.192 87.7171 39.3763 88.6734 38.1835C89.0345 39.2183 90.0874 39.7638 91.2928 39.7536C91.6031 39.7536 91.9134 39.7077 92.2135 39.6312C92.2948 39.6057 92.3813 39.5752 92.4729 39.5395C92.8493 39.6822 93.2714 39.7536 93.6885 39.7536C94.9499 39.7536 95.8604 39.0552 96.2164 38.0815C96.9438 39.1368 98.0221 39.7587 99.3395 40.034C100.006 40.1716 100.687 40.2073 101.354 40.1767C101.872 40.1563 102.391 40.0849 102.9 39.9524C103.485 40.977 105.087 41.8487 107.401 41.8487C107.854 41.8487 108.241 41.813 108.637 41.7468C109.334 43.1231 111.542 44.209 114.227 44.1274C114.426 44.1223 114.624 44.1019 114.822 44.0815C114.843 44.1427 114.863 44.2039 114.894 44.2599C115.631 45.8453 117.788 47.028 120.57 47.028C120.656 47.028 120.743 47.028 120.829 47.0229C120.829 47.0586 120.829 47.0942 120.829 47.1299C120.845 50.525 123.673 52.1715 126.74 52.1715C127.381 52.1715 128.032 52.0798 128.678 51.932C128.581 52.9209 128.571 53.9099 128.566 54.8784C128.53 57.05 128.566 59.2165 128.439 61.3474C128.327 63.4782 127.991 65.5428 127.294 67.5156C124.741 74.5198 119.761 78.5776 114.695 81.2844C114.619 81.3252 114.593 81.417 114.629 81.4883C114.67 81.5648 114.761 81.5954 114.838 81.5546C121.933 77.9913 126.577 73.3728 128.53 67.9489C129.298 65.8384 129.593 63.57 129.583 61.3729C129.568 59.1707 129.39 57.0143 129.257 54.8529C129.196 53.8232 129.125 52.8088 129.181 51.7994C131.521 51.1571 133.754 49.8572 135.275 49.4545C135.722 50.8359 135.982 52.5641 136.027 54.2463C136.048 56.6422 135.916 59.0534 135.549 61.4187C134.41 61.536 133.469 62.2497 133.469 63.0908C133.469 63.8452 134.115 64.0797 134.797 64.0797C134.873 64.0797 134.954 64.0695 135.03 64.0594C134.797 65.033 134.517 65.9965 134.176 66.9497C133.54 68.739 132.716 70.462 131.684 72.0525C130.158 72.0882 128.922 72.7713 128.917 73.7399C128.917 74.219 129.181 74.5555 129.629 74.7441C128.795 75.6974 127.899 76.5946 126.933 77.4102C126.338 77.9149 125.712 78.3788 125.076 78.8325C124.619 78.7407 124.146 78.6948 123.693 78.6948C122.64 78.6948 121.735 79.0618 121.735 79.7908C121.735 80.0967 121.897 80.3872 122.294 80.5962C120.565 81.5801 118.749 82.4212 116.898 83.1502C116.826 83.1145 116.755 83.0788 116.679 83.0482C116.236 82.8749 115.779 82.7781 115.229 82.7781C114.39 82.7781 113.932 83.1298 113.932 83.6498C113.932 83.8333 114.003 84.0066 114.136 84.1595C110.575 85.3524 106.898 86.2037 103.21 86.9123C103.114 86.9327 103.047 87.0244 103.068 87.1213C103.088 87.2181 103.18 87.2793 103.276 87.264C107.05 86.5402 110.809 85.6684 114.461 84.4348C114.934 84.7509 115.687 84.9854 116.552 85.123C117.045 85.2046 117.554 85.2555 118.057 85.2861C118.057 85.3014 118.057 85.3167 118.057 85.3269M129.944 74.3873C129.466 74.2955 129.293 74.0304 129.288 73.7297C129.288 73.0058 130.209 72.4603 131.45 72.4145C131.394 72.496 131.338 72.5827 131.282 72.6642C130.865 73.2607 130.412 73.8316 129.944 74.3873ZM131.592 72.8835C131.699 72.7305 131.801 72.5776 131.902 72.4247C132.477 72.4756 133.138 72.6642 133.449 73.0058C133.449 73.0058 133.459 73.016 133.464 73.0211C132.447 73.8979 131.501 74.3924 130.422 74.4179C130.829 73.9183 131.226 73.4085 131.592 72.8783M125.204 79.1995C125.646 79.332 126.084 79.5206 126.424 79.7908C126.109 79.903 125.794 80.0049 125.473 80.0916C124.868 80.2496 124.252 80.3669 123.632 80.3771C123.556 80.3771 123.484 80.3771 123.408 80.3771C124.019 80.0049 124.614 79.6124 125.199 79.2046M122.793 80.3159C122.335 80.219 122.101 80.0202 122.096 79.7704C122.091 79.2148 122.915 78.9803 123.632 78.9803C124.003 78.9803 124.359 79.016 124.715 79.0873C124.09 79.5206 123.449 79.9285 122.788 80.3159M115.712 83.6039C115.331 83.7415 114.95 83.8741 114.568 84.0066C114.41 83.8894 114.314 83.7568 114.314 83.6141C114.314 83.2878 114.614 83.0584 115.219 83.0584C115.687 83.0584 116.119 83.1502 116.496 83.3031C116.236 83.4051 115.977 83.507 115.712 83.6039ZM116.948 83.5223C117.401 83.7874 117.742 84.1391 117.915 84.5011C117.925 84.5266 117.935 84.547 117.945 84.5724C117.493 84.5775 117.05 84.5724 116.628 84.547C115.972 84.496 115.412 84.3889 115.011 84.236C115.285 84.1391 115.565 84.0474 115.84 83.9454C116.211 83.8078 116.582 83.6651 116.948 83.5172M127.04 80.8002C127.04 82.0083 125.789 82.8239 124.049 83.4866C122.472 84.0882 120.372 84.4807 118.429 84.5674C118.388 84.4756 118.342 84.3838 118.291 84.2972C118.052 83.8996 117.711 83.6039 117.34 83.3745C119.202 82.6302 121.023 81.7687 122.762 80.7645C123.103 80.8613 123.54 80.9123 124.1 80.9123C124.965 80.9123 125.956 80.7441 126.969 80.4637C127.014 80.5708 127.045 80.6829 127.045 80.8002M133.225 75.2335C132.889 75.7076 132.467 76.1358 132.009 76.5334C131.551 76.931 131.068 77.3184 130.554 77.6702C130.041 78.0219 129.502 78.338 128.952 78.6438C128.296 79.0007 127.615 79.3218 126.918 79.5971C126.552 79.3065 126.078 79.0873 125.565 78.9395C126.119 78.5419 126.663 78.129 127.182 77.6855C128.21 76.8138 129.176 75.8656 130.056 74.841C130.234 74.8766 130.417 74.8919 130.626 74.8919C131.79 74.8919 132.823 74.3618 133.728 73.7603C133.739 74.2547 133.53 74.7798 133.22 75.2233M135.793 70.2479C135.178 71.1859 134.649 71.8945 133.881 72.6388C133.494 72.3125 132.925 72.0933 132.152 72.0474C133.143 70.4875 133.942 68.8104 134.557 67.067C134.914 66.0525 135.214 65.0228 135.463 63.9829C136.282 63.7994 137.116 63.3049 137.797 62.7238C138.001 63.0806 138.108 63.519 138.113 64.0492C138.123 65.5887 137.37 67.8724 135.799 70.2428" fill="white"/>
<path fill-rule="evenodd" clip-rule="evenodd" d="M61.3693 64.085C61.9085 76.2939 75.3924 84.9549 92.6098 84.9855C109.827 84.96 123.311 76.2939 123.845 64.0799C124.41 52.0901 111.862 42.0375 92.6047 41.8438C73.3477 42.0477 60.7997 52.0952 61.3744 64.085M123.377 64.1054C122.914 74.836 110.209 83.4307 92.6047 83.4562C75.0059 83.4307 62.29 74.836 61.822 64.1054C61.3286 53.5684 72.9815 43.6636 92.5945 43.4852C112.213 43.6585 123.86 53.5633 123.372 64.1054" fill="white"/>
<path d="M53.8666 11.5176L56.1759 17.8336L55.9521 17.9254C52.9562 14.8719 51.1353 14.0307 50.0315 14.515C49.0804 14.933 48.7905 16.2125 49.7772 18.9245L53.9073 30.1904C55.0975 33.4478 56.4454 34.972 57.9357 34.4215C59.6448 33.7945 59.5074 31.475 58.4088 28.6203C58.0426 27.6671 57.9103 27.3867 57.6916 26.9534C57.8086 26.8718 57.9612 26.7903 58.0985 26.7393C59.1056 26.3671 59.9957 26.5354 60.6366 28.1972C61.9234 31.5311 61.3233 34.7681 58.4291 35.8285C54.3295 37.3323 50.3164 34.4776 47.3307 26.306C44.7621 19.2712 45.5199 14.464 49.2533 13.0673C50.9064 12.4606 51.7812 12.9398 52.6052 12.6238C53.124 12.425 53.3733 12.0681 53.6174 11.6093L53.8514 11.5278L53.8666 11.5176Z" fill="white"/>
<path d="M76.8673 30.2413C76.1959 29.8743 75.7177 29.4104 75.2498 28.5387L69.7362 17.9049L69.5938 17.8743C69.4361 17.9814 69.2479 18.0527 69.0495 18.0986C68.4493 18.2362 67.7881 18.1088 67.137 17.8998L68.8969 12.0578C69.8023 9.2694 70.1634 8.74434 70.6212 7.90832L70.5805 7.67383C69.4107 7.87774 67.7932 8.1887 66.5013 8.46397L66.547 8.70356C66.7251 9.00942 66.8878 9.35607 66.9895 9.92701C67.1218 10.6611 67.0099 11.65 66.6945 12.7001L64.5633 19.7859L62.7424 12.3586C62.3915 10.8956 62.5847 10.3909 62.9357 9.51919L62.8798 9.2796C61.1707 9.68741 58.7496 10.3399 57.0508 10.8395L57.1067 11.0791C57.8544 11.6959 58.2613 12.0731 58.6123 13.5311L63.0323 30.8275C63.3274 31.9592 63.2663 32.4741 62.778 33.4426L62.8391 33.6669C64.7465 33.0858 66.6386 32.5607 68.5968 32.107L68.5409 31.8675C67.5999 31.2914 67.3303 30.9295 66.9997 29.7162L65.4687 23.492L66.308 20.7443L70.8094 29.4104C71.2417 30.2362 71.7758 30.9703 72.2794 31.2965C73.9324 30.9703 75.26 30.7358 76.8927 30.486L76.8571 30.2413H76.8673Z" fill="white"/>
<path d="M93.2049 29.3088L93.2202 29.0692C93.9373 28.2383 94.2069 27.5399 94.6494 26.0667L99.4357 9.12705C99.7918 7.77616 99.8935 7.09817 99.5934 6.21627L99.6137 5.99707C100.753 6.02256 101.643 6.09393 102.569 6.17549C103.322 6.23666 104.074 6.30293 105 6.41508L104.98 6.62918C104.532 7.44991 104.517 8.12281 104.649 9.52467L106.546 27.1168C106.745 28.7837 106.902 29.4311 107.386 30.1601L107.35 30.4048C105.336 30.1091 103.23 29.8644 101.323 29.686L101.343 29.4413C102.142 28.6308 102.238 27.9426 102.131 26.8721L101.872 24.5068C101.028 24.3997 98.3828 24.1907 97.4978 24.1703L96.8722 26.5102C96.6331 27.3972 96.4856 28.3453 97.1926 29.161L97.1774 29.4108C95.799 29.3445 94.3951 29.3088 93.1846 29.3037M98.0827 22.1058C99.1 22.1465 100.651 22.2638 101.664 22.3708L100.687 12.517L98.0827 22.1058Z" fill="white"/>
<path d="M117.386 8.20928L117.335 8.44887C116.887 8.89237 116.847 9.499 117.045 10.6919L118.897 23.5227L121.77 11.9816C122.04 10.8907 122.187 10.3809 121.623 9.39705L121.684 9.15745C122.737 9.40214 124.303 9.79976 125.29 10.0801L125.224 10.3146C124.298 10.9213 124.212 11.431 123.896 12.5474L119.537 29.9203C119.242 31.2967 119.222 31.832 119.451 32.7088L119.385 32.9484C117.991 32.5711 116.811 32.2755 115.392 31.939L115.438 31.7351C115.55 31.2202 115.58 30.6544 115.473 29.8388L113.449 15.8048L111.12 28.2942C110.972 29.1251 110.931 29.9305 111.465 30.8736L111.42 31.103C110.219 30.8736 109.09 30.685 107.864 30.4913L107.905 30.2619C108.581 29.5788 108.704 29.0333 108.907 27.9628L112.157 10.3656C112.406 8.87198 112.274 8.35202 111.898 7.48031L111.949 7.24072C113.546 7.47522 115.804 7.88303 117.386 8.21948" fill="white"/>
<path d="M120.717 33.3254L120.793 33.0909C121.704 32.4945 122.019 32.1886 122.405 30.9856L127.726 13.9848C128.184 12.5421 128.082 11.961 127.792 11.0587L127.868 10.8242C129.374 11.2626 132.349 12.221 133.697 12.7002L133.621 12.9347C132.863 13.5056 132.38 13.8828 131.922 15.3204L126.398 32.2804C126.012 33.4885 126.093 33.9167 126.556 34.9516L126.475 35.181C124.76 34.5845 122.39 33.8148 120.722 33.3203" fill="white"/>
<path d="M149.785 39.29L145.792 44.4999C143.458 43.0266 140.121 41.166 137.288 39.7692L137.4 39.55C138.412 39.1575 138.794 38.9179 139.399 37.8066L147.908 22.1108C148.631 20.7854 148.615 20.2502 148.504 19.302L148.621 19.0879C150.009 19.7608 153.025 21.3768 154.027 21.9885L153.91 22.2026C153.061 22.6104 152.542 22.8398 151.784 24.2213L143.087 39.8202C142.751 40.437 142.853 40.5899 143.6 41.013C144.831 41.7114 145.787 41.2628 149.587 39.1422L149.785 39.2849V39.29Z" fill="white"/>
<path d="M158.875 18.8329C159.257 18.8329 159.572 18.9501 159.872 19.1081C160.854 19.6434 161.098 20.51 161.072 21.2339C161.001 23.4055 158.723 25.0265 155.808 25.0571C155.325 25.0418 154.791 24.9807 154.791 24.9807L154.811 24.6391C155.767 24.4658 157.034 23.9815 157.776 22.9671C157.069 22.5695 156.591 21.7844 156.647 20.9229C156.693 19.7046 157.721 18.7921 158.87 18.8329" fill="white"/>
<path d="M164.15 36.7818C164.241 32.0053 164.165 29.9305 162.863 28.9875C161.993 28.3604 160.742 28.4573 160.004 29.4819C158.875 31.052 159.363 33.3511 159.923 36.7003C160.543 40.289 161.057 44.2092 159.099 46.9364C157.39 49.3119 153.997 50.6017 150.808 48.3026C149.216 47.1556 149.048 45.9883 148.016 45.2338C147.629 44.9585 147.217 44.9942 146.8 45.4479L146.357 45.1216L150.457 39.6977L150.65 39.8455C149.867 42.8889 150.02 45.8353 151.698 47.0486C152.985 47.9763 154.546 47.7113 155.279 46.6917C156.469 45.035 156.25 42.2109 155.742 38.8515C154.923 34.1208 154.755 31.3222 156.489 28.911C158.315 26.3723 161.393 25.939 163.905 27.7538C165.187 28.6969 165.803 30.1344 166.672 30.7564C167.039 31.0214 167.486 30.996 167.796 30.8277L168 30.9552L164.317 36.8889L164.15 36.792V36.7818Z" fill="white"/>
<path d="M82.5642 0.0479321C84.5377 -0.0540216 86.8368 -0.140682 89.0341 1.4396C92.2131 3.73866 93.6525 8.95869 93.9068 13.5211C94.3036 20.6528 92.742 29.1914 85.3261 29.5737C85.3261 29.5737 83.3119 29.7369 82.6812 29.7878C81.8623 29.8541 79.5328 30.0886 79.5328 30.0886L79.5073 29.8439C80.016 29.4157 80.728 28.5644 80.6263 26.7394L79.2327 3.78964C79.1258 1.85251 78.4392 1.09296 77.778 0.618873L77.7627 0.374184C78.5511 0.297719 80.7891 0.139691 82.5642 0.0479321ZM89.0392 14.2807C88.6577 7.3988 87.381 1.73017 84.3241 1.8831C83.9731 1.89839 83.8104 2.12269 83.8358 2.55599L85.2041 27.1421C85.2244 27.5347 85.3719 27.6723 85.6873 27.657C88.6221 27.5092 89.4766 22.2382 89.0341 14.2807" fill="white"/>
<path d="M26.0751 21.6671C25.1952 20.2958 25.1036 19.2507 25.4343 18.1395L25.3071 17.9355C25.3071 17.9355 23.593 19.0061 22.0722 20.0154C20.6175 20.9789 19 22.1157 19 22.1157L19.1272 22.3196C20.2614 22.4572 21.1719 22.9619 22.0518 24.3331L33.191 41.5837C34.549 43.6942 34.4422 45.5854 32.6213 46.7936C30.953 47.8998 28.6844 46.9618 27.6163 45.2948C26.5278 43.5973 26.5736 42.1394 27.7485 41.3645C27.9266 41.2473 28.1504 41.1402 28.3335 41.1045C28.247 40.9057 28.2012 40.7681 28.0639 40.5591C27.1687 39.1623 25.6377 38.9482 24.4628 39.7231C22.8504 40.7936 22.4435 43.5514 24.2186 46.3144C26.5533 49.9541 30.7546 50.5098 33.9031 48.4248C38.1807 45.5905 38.5978 41.3441 36.2886 37.7503L26.065 21.6722L26.0751 21.6671Z" fill="white"/>
<path d="M144.277 21.6569C143.605 19.7045 142.934 18.5065 141.647 17.9305L140.783 17.5481C140.187 17.283 140.091 17.4207 139.882 17.9458L137.303 24.2618C137.303 24.2618 137.812 24.4861 138.173 24.6237C139.557 25.159 140.666 24.1598 141.22 23.6806L141.388 23.7571L138.972 29.6449L138.829 29.5838C138.738 28.6203 138.829 27.0808 137.38 26.4385C137.039 26.2856 136.561 26.097 136.561 26.097L132.939 34.972C132.731 35.492 132.965 35.6653 134.236 36.1955C135.208 36.6033 135.945 36.5217 138.89 35.0077L139.079 35.1046L136.464 39.3662C133.707 38.0204 130.518 36.6747 127.329 35.4971L127.416 35.2677C128.362 34.7528 128.687 34.4826 129.155 33.3051L135.686 16.6407C136.246 15.2389 136.159 14.7036 135.971 13.786L136.062 13.5566C139.297 14.7444 142.853 16.2635 145.604 17.5736L145.396 18.0936L144.435 21.7231L144.277 21.6518V21.6569Z" fill="white"/>
<path d="M39.9202 43.8523L39.8032 43.6382C39.9965 42.3994 39.8947 41.8846 39.4726 40.3298L34.7524 23.3698C34.3659 22.0342 34.1065 21.4276 33.3944 20.826L33.2825 20.6068C34.2641 20.0308 37.2041 18.5525 38.0535 18.165L38.1654 18.3842C38.2264 19.3324 38.5926 19.8983 39.4115 20.9841L50.1794 35.0078C50.9678 36.0171 51.4866 36.6289 52.4784 37.159L52.5751 37.3833C50.922 38.097 48.8874 39.0299 47.0614 39.9169L46.9495 39.6977C47.2089 38.5915 46.919 37.9594 46.2883 37.103L44.8387 35.2168C44.0605 35.5634 41.6953 36.7716 40.9375 37.2151L41.6241 39.5396C41.9191 40.5337 42.2396 41.2474 43.3382 41.5991L43.4552 41.8183C42.2803 42.4708 40.9731 43.2202 39.9354 43.8472M40.3373 35.1556C41.2274 34.6612 42.616 33.9475 43.5315 33.5142L37.5754 25.6128L40.3373 35.1556Z" fill="white"/>
<path d="M156.993 50.3822C156.561 50.3822 156.19 50.5352 155.885 50.841C155.574 51.1469 155.422 51.5139 155.422 51.9472C155.422 52.3805 155.574 52.7476 155.88 53.0534C156.185 53.3593 156.556 53.5071 156.993 53.5071C157.431 53.5071 157.797 53.3542 158.102 53.0483C158.408 52.7425 158.56 52.3754 158.56 51.9472C158.56 51.519 158.407 51.1469 158.097 50.841C157.792 50.5352 157.421 50.3822 156.993 50.3822ZM156.993 50.0713C157.329 50.0713 157.645 50.1529 157.934 50.3211C158.224 50.4893 158.453 50.7187 158.626 51.0093C158.794 51.2947 158.881 51.6108 158.881 51.9421C158.881 52.2735 158.799 52.5895 158.626 52.8801C158.458 53.1656 158.229 53.395 157.934 53.5632C157.645 53.7314 157.329 53.813 156.993 53.813C156.658 53.813 156.337 53.7314 156.047 53.5632C155.758 53.395 155.524 53.1707 155.361 52.8801C155.193 52.5895 155.106 52.2786 155.106 51.9421C155.106 51.6057 155.188 51.2947 155.361 51.0042C155.529 50.7187 155.758 50.4893 156.053 50.3211C156.342 50.1529 156.658 50.0713 156.993 50.0713Z" fill="white"/>
<path d="M156.266 50.9688H157.064C157.181 50.9688 157.293 50.9789 157.38 50.9993C157.675 51.0707 157.822 51.2644 157.822 51.555C157.822 51.8201 157.68 52.0087 157.43 52.1055L157.919 52.9059H157.537L157.095 52.1616H156.591V52.9059H156.266V50.9688ZM157.034 51.8812C157.146 51.8812 157.237 51.871 157.313 51.8405C157.43 51.7895 157.491 51.6926 157.491 51.555C157.491 51.4173 157.435 51.3256 157.308 51.2797C157.252 51.2593 157.166 51.2491 157.054 51.2491H156.596V51.8812H157.039H157.034Z" fill="white"/>
<path fill-rule="evenodd" clip-rule="evenodd" d="M87.8389 60.2108C87.8389 62.6271 89.9599 64.7121 93.0982 64.7121C95.9262 64.7121 98.3626 63.0451 98.3626 60.2108C98.3626 57.3765 95.7329 55.5566 93.0982 55.5566C90.4634 55.5566 87.8389 57.3357 87.8389 60.2108ZM94.8123 58.2533V62.1276C94.8123 63.1879 94.1561 64.0392 93.0982 64.0392C92.0402 64.0392 91.3942 63.1879 91.3942 62.1276V58.2533C91.3942 57.1369 91.7605 56.2601 93.0982 56.2601C94.5681 56.2601 94.8123 57.1369 94.8123 58.2533Z" fill="white"/>
<path fill-rule="evenodd" clip-rule="evenodd" d="M91.6025 67.5413C91.6025 68.2702 92.2739 68.8972 93.0928 68.8972C93.9117 68.8972 94.5984 68.3008 94.5984 67.5413C94.5984 66.7817 93.8914 66.1802 93.0928 66.1802C92.2943 66.1802 91.6025 66.8072 91.6025 67.5413Z" fill="white"/>
<path d="M87.0046 47.5735C85.4227 47.5735 84.5225 48.6593 84.5225 50.107C84.5225 51.5547 85.4482 52.6457 87.0046 52.6457C88.561 52.6457 89.5122 51.5598 89.5122 50.1325C89.5122 48.7051 88.5915 47.5684 87.0046 47.5684M86.9893 51.672C86.1755 51.672 85.5703 51.0858 85.5703 50.107C85.5703 49.1282 86.1399 48.5522 86.9893 48.5522C87.8388 48.5522 88.4644 49.113 88.4644 50.1631C88.4644 50.8717 88.0015 51.6669 86.9893 51.6669" fill="white"/>
<path d="M95.1078 51.6314L92.3103 51.6365V47.9916C92.3103 47.7775 92.4527 47.5991 92.4527 47.5991H91.1455C91.1455 47.5991 91.2879 47.7826 91.2879 47.9916V52.1666C91.2879 52.3706 91.1455 52.5592 91.1455 52.5592H95.3469L95.5096 51.6314L95.5401 51.4479C95.5401 51.4479 95.3214 51.6314 95.1129 51.6314" fill="white"/>
<path d="M98.6064 47.5938H96.582C96.582 47.5938 96.7244 47.7875 96.7244 47.9914V52.1664C96.7244 52.3703 96.582 52.5589 96.582 52.5589H98.6369C100.031 52.5589 101.18 51.779 101.18 50.0967C101.18 48.4145 100.188 47.5938 98.6064 47.5938ZM98.581 51.626H97.7417V48.5368H98.581C99.6898 48.5368 100.117 49.067 100.117 50.1018C100.117 51.0143 99.6491 51.6311 98.581 51.6311" fill="white"/>
<path d="M80.3979 74.0511C80.7793 73.8013 80.9421 73.4852 80.9472 73.0213C80.9574 71.9763 80.403 71.5379 79.3297 71.543C78.699 71.543 77.9818 71.543 77.3511 71.543H76.5322V76.3195C77.4173 76.5897 78.3074 76.8344 79.2077 77.0638C80.3623 77.3595 81.1506 76.8293 81.1506 75.6008C81.1506 74.7495 80.8506 74.3212 80.3979 74.0562M79.6909 73.0672C79.6909 73.4648 79.6603 73.7299 79.0907 73.7044C78.638 73.684 78.1344 73.6687 77.6563 73.6433V72.3841C77.6563 72.3841 78.6431 72.3943 79.0958 72.3994C79.6502 72.3994 79.6959 72.6798 79.6909 73.0672ZM79.2585 76.1054C78.7295 75.9882 77.6512 75.7435 77.6512 75.7435V74.4283C77.6512 74.4283 78.7397 74.5303 79.2687 74.571C79.8892 74.6169 79.9248 75.0145 79.9197 75.4835C79.9197 75.9168 79.8638 76.238 79.2534 76.1054" fill="white"/>
<path d="M86.374 75.2845C87.4269 74.9735 87.8795 74.321 87.8846 73.4289C87.8948 72.1035 87.1318 71.5428 85.9722 71.5479C85.0159 71.5479 83.8257 71.5479 82.8796 71.5479C82.8796 73.643 82.8796 75.728 82.8796 77.8231C83.2865 77.8996 83.6935 77.9659 84.1055 78.0321C84.1055 77.1604 84.1055 76.1664 84.1055 75.2998C84.3394 75.31 84.7718 75.3355 85.0057 75.3457C85.0057 75.3559 85.6721 75.4119 85.6771 75.4221M87.493 77.3593C87.1929 76.875 86.7504 75.7076 86.5317 75.1927L85.1939 75.2182C85.5652 76.1205 85.9009 77.033 86.2366 77.6345C86.6588 78.3992 87.0861 78.6082 87.6303 78.6439C88.0423 78.6694 88.2407 78.5776 88.2407 78.5776L88.2305 77.7722C87.9253 77.8384 87.7422 77.7569 87.4981 77.3643M85.667 74.3312C85.2143 74.3312 84.5531 74.3108 84.1055 74.3057V72.5929C84.548 72.6031 85.2245 72.6235 85.6721 72.6337C86.3028 72.6439 86.5723 72.9039 86.5673 73.4697C86.5673 74.0152 86.2773 74.3414 85.667 74.3363" fill="white"/>
<path d="M94.4817 78.7511C94.9038 78.746 95.5091 78.7154 95.9313 78.6797L93.2457 71.543H91.6689L89.1562 78.6186C89.5682 78.6644 90.082 78.695 90.5143 78.7052L91.2824 76.4673C91.6587 76.7528 92.0707 77.023 92.4675 77.2575C92.849 77.0281 93.2966 76.7273 93.6526 76.4673L94.4766 78.7409L94.4817 78.7511ZM92.4726 75.9831C92.1979 75.825 91.8825 75.6313 91.6435 75.4376L92.4319 73.1233L93.2762 75.4274C93.0422 75.6262 92.7371 75.8148 92.4675 75.978" fill="white"/>
<path d="M100.936 71.543C100.951 72.8786 100.961 74.2702 100.977 75.4172L98.3877 71.543H97.0703C97.0856 73.893 97.1008 76.243 97.111 78.588C97.4925 78.5574 97.9096 78.5268 98.2809 78.4911C98.2707 76.9057 98.2554 75.2235 98.2453 73.8573L101.17 78.1343C101.511 78.0833 101.851 78.0323 102.192 77.9762C102.167 75.8301 102.147 73.684 102.121 71.543H100.926" fill="white"/>
<path d="M106.506 71.5381L104.237 71.5483C104.237 71.5483 104.405 71.7828 104.405 72.0326C104.426 73.6944 104.441 75.3715 104.461 77.0334C104.461 77.2781 104.303 77.533 104.303 77.533C104.354 77.5228 104.41 77.5075 104.466 77.4973C104.853 77.4208 105.239 77.3342 105.626 77.2475C105.661 77.2424 105.692 77.2322 105.728 77.2271C105.972 77.171 105.997 77.1812 106.246 77.1201C108.194 76.6154 109.222 75.7946 109.227 73.9289C109.227 72.3333 108.373 71.5636 106.506 71.5432M106.17 76.0801C105.911 76.1311 105.87 76.1311 105.611 76.177C105.6 74.9994 105.585 73.7964 105.575 72.6188C105.834 72.6086 105.972 72.6035 106.231 72.5984C107.513 72.5729 108.006 72.9654 108.011 74.1022C108.011 75.1778 107.452 75.815 106.17 76.0801Z" fill="white"/>
<path fill-rule="evenodd" clip-rule="evenodd" d="M74.2888 59.1403L80.6874 68.2091H85.3923L84.7362 67.2508V58.1259C84.7362 56.8311 85.2194 56.1429 86.0434 55.888H86.1604V55.73H82.0557V55.888H82.1777C82.961 56.1531 83.49 56.7597 83.49 58.1259V65.3748L76.7099 55.73H71.4404C72.3255 56.724 73.0477 57.6977 73.0477 58.4929C73.0477 60.4759 73.0477 65.8285 73.0477 65.8285C73.0477 67.1233 72.5645 67.8115 71.7405 68.0664H71.6235V68.2244H75.7282V68.0664H75.6062C74.8229 67.8013 74.2939 67.1947 74.2939 65.8285V59.1454L74.2888 59.1403Z" fill="white"/>
<path d="M114.903 56.0666C114.903 55.7964 114.888 55.6231 114.664 55.4906C114.319 55.7098 114.003 55.9137 113.479 56.0462C111.801 56.398 110.077 55.6537 108.805 55.3937C108.027 55.2357 107.05 55.2357 106.308 55.409C104.685 55.8117 104.029 55.5976 103.927 55.1337C103.881 55.1337 103.535 55.1235 103.535 55.1235L102.533 60.0275C102.533 60.0275 102.92 60.0326 102.951 60.0377C103.363 59.1813 104.003 58.7786 104.873 58.7786C105.875 58.7786 106.826 59.3597 108.159 59.3597C108.881 59.3597 109.919 59.1966 110.972 58.7276C110.987 58.7225 111.007 58.7123 111.023 58.7021L111.094 58.7939C110.875 59.4668 104.827 61.669 104.827 65.5381C104.827 66.9604 105.662 68.7395 108.566 68.7395C112.396 68.7395 112.96 65.3648 112.208 64.386C111.811 64.804 111.414 64.9927 110.778 64.9927C110.143 64.9927 109.522 64.6154 109.522 63.6112C109.522 60.9502 114.898 57.7947 114.898 56.0717" fill="white"/>
<path d="M1.232 122V110.832H2.928V120.512H6.992V122H1.232ZM8.9095 112.096C8.24817 112.096 7.9175 111.813 7.9175 111.248V110.96C7.9175 110.395 8.24817 110.112 8.9095 110.112C9.57083 110.112 9.9015 110.395 9.9015 110.96V111.248C9.9015 111.813 9.57083 112.096 8.9095 112.096ZM8.0935 113.68H9.7415V122H8.0935V113.68ZM13.0718 122L10.5597 113.68H12.2237L13.4398 118.016L14.0318 120.576H14.2398L14.8158 118.016L16.0318 113.68H17.6478L15.1358 122H13.0718ZM21.3602 122.192C20.8376 122.192 20.3576 122.107 19.9202 121.936C19.4829 121.765 19.1096 121.504 18.8002 121.152C18.4909 120.789 18.2456 120.336 18.0642 119.792C17.8936 119.248 17.8082 118.597 17.8082 117.84C17.8082 117.083 17.8882 116.432 18.0482 115.888C18.2082 115.333 18.4376 114.88 18.7362 114.528C19.0456 114.176 19.4082 113.915 19.8242 113.744C20.2509 113.573 20.7309 113.488 21.2642 113.488C22.3202 113.488 23.1416 113.835 23.7282 114.528C24.3256 115.221 24.6242 116.325 24.6242 117.84V118.256H19.5362V118.784C19.5362 119.445 19.7016 119.952 20.0322 120.304C20.3736 120.656 20.8376 120.832 21.4242 120.832C21.9256 120.832 22.3362 120.72 22.6562 120.496C22.9869 120.272 23.2642 119.957 23.4882 119.552L24.4482 120.464C24.1496 120.987 23.7442 121.408 23.2322 121.728C22.7309 122.037 22.1069 122.192 21.3602 122.192ZM21.2642 114.8C20.7096 114.8 20.2829 114.971 19.9842 115.312C19.6856 115.643 19.5362 116.144 19.5362 116.816V117.152H22.8802V116.816C22.8802 115.472 22.3416 114.8 21.2642 114.8ZM28.8945 122V110.832H35.2145V112.32H30.5905V115.584H34.6865V117.056H30.5905V122H28.8945ZM36.1462 122V113.68H37.7942V115.328H37.9862C38.1036 114.795 38.3222 114.389 38.6422 114.112C38.9729 113.824 39.3889 113.68 39.8902 113.68H40.3062V115.36H39.6022C39.0156 115.36 38.5676 115.472 38.2582 115.696C37.9489 115.92 37.7942 116.277 37.7942 116.768V122H36.1462ZM44.1902 122.192C43.6676 122.192 43.1876 122.107 42.7502 121.936C42.3129 121.765 41.9396 121.504 41.6302 121.152C41.3209 120.789 41.0756 120.336 40.8942 119.792C40.7236 119.248 40.6382 118.597 40.6382 117.84C40.6382 117.083 40.7182 116.432 40.8782 115.888C41.0382 115.333 41.2676 114.88 41.5662 114.528C41.8756 114.176 42.2382 113.915 42.6542 113.744C43.0809 113.573 43.5609 113.488 44.0942 113.488C45.1502 113.488 45.9716 113.835 46.5582 114.528C47.1556 115.221 47.4542 116.325 47.4542 117.84V118.256H42.3662V118.784C42.3662 119.445 42.5316 119.952 42.8622 120.304C43.2036 120.656 43.6676 120.832 44.2542 120.832C44.7556 120.832 45.1662 120.72 45.4862 120.496C45.8169 120.272 46.0942 119.957 46.3182 119.552L47.2782 120.464C46.9796 120.987 46.5742 121.408 46.0622 121.728C45.5609 122.037 44.9369 122.192 44.1902 122.192ZM44.0942 114.8C43.5396 114.8 43.1129 114.971 42.8142 115.312C42.5156 115.643 42.3662 116.144 42.3662 116.816V117.152H45.7102V116.816C45.7102 115.472 45.1716 114.8 44.0942 114.8ZM51.7259 122.192C51.2032 122.192 50.7232 122.107 50.2859 121.936C49.8485 121.765 49.4752 121.504 49.1659 121.152C48.8565 120.789 48.6112 120.336 48.4299 119.792C48.2592 119.248 48.1739 118.597 48.1739 117.84C48.1739 117.083 48.2539 116.432 48.4139 115.888C48.5739 115.333 48.8032 114.88 49.1019 114.528C49.4112 114.176 49.7739 113.915 50.1899 113.744C50.6165 113.573 51.0965 113.488 51.6299 113.488C52.6859 113.488 53.5072 113.835 54.0939 114.528C54.6912 115.221 54.9899 116.325 54.9899 117.84V118.256H49.9019V118.784C49.9019 119.445 50.0672 119.952 50.3979 120.304C50.7392 120.656 51.2032 120.832 51.7899 120.832C52.2912 120.832 52.7019 120.72 53.0219 120.496C53.3525 120.272 53.6299 119.957 53.8539 119.552L54.8139 120.464C54.5152 120.987 54.1099 121.408 53.5979 121.728C53.0965 122.037 52.4725 122.192 51.7259 122.192ZM51.6299 114.8C51.0752 114.8 50.6485 114.971 50.3499 115.312C50.0512 115.643 49.9019 116.144 49.9019 116.816V117.152H53.2459V116.816C53.2459 115.472 52.7072 114.8 51.6299 114.8ZM57.8695 122C57.2935 122 56.8775 121.872 56.6215 121.616C56.3655 121.349 56.2375 120.939 56.2375 120.384V110.16H57.8855V120.64H58.8775V122H57.8695ZM64.3796 113.68H66.0116L62.7956 123.888C62.7103 124.144 62.6143 124.357 62.5076 124.528C62.4116 124.699 62.289 124.832 62.1396 124.928C62.001 125.035 61.8303 125.104 61.6276 125.136C61.425 125.179 61.1903 125.2 60.9236 125.2H59.7716V123.84H61.2756L61.6596 122.448L58.8916 113.68H60.5716L61.8196 118.048L62.3956 120.576H62.5716L63.1476 118.048L64.3796 113.68ZM66.8164 122.176C66.443 122.176 66.1657 122.096 65.9844 121.936C65.803 121.765 65.7124 121.525 65.7124 121.216V120.896C65.7124 120.587 65.803 120.352 65.9844 120.192C66.1657 120.021 66.443 119.936 66.8164 119.936C67.1897 119.936 67.467 120.021 67.6484 120.192C67.8297 120.352 67.9204 120.587 67.9204 120.896V121.216C67.9204 121.525 67.8297 121.765 67.6484 121.936C67.467 122.096 67.1897 122.176 66.8164 122.176ZM72.5858 110.832H76.2658C76.9271 110.832 77.5138 110.939 78.0258 111.152C78.5484 111.365 78.9858 111.701 79.3378 112.16C79.7004 112.608 79.9724 113.184 80.1538 113.888C80.3458 114.592 80.4418 115.435 80.4418 116.416C80.4418 117.397 80.3458 118.24 80.1538 118.944C79.9724 119.648 79.7004 120.229 79.3378 120.688C78.9858 121.136 78.5484 121.467 78.0258 121.68C77.5138 121.893 76.9271 122 76.2658 122H72.5858V110.832ZM76.2658 120.512C77.0018 120.512 77.5778 120.277 77.9938 119.808C78.4098 119.328 78.6178 118.629 78.6178 117.712V115.12C78.6178 114.203 78.4098 113.509 77.9938 113.04C77.5778 112.56 77.0018 112.32 76.2658 112.32H74.2818V120.512H76.2658ZM81.8687 122V113.68H83.5167V115.328H83.7087C83.8261 114.795 84.0447 114.389 84.3647 114.112C84.6954 113.824 85.1114 113.68 85.6127 113.68H86.0287V115.36H85.3247C84.7381 115.36 84.2901 115.472 83.9807 115.696C83.6714 115.92 83.5167 116.277 83.5167 116.768V122H81.8687ZM87.7676 112.096C87.1063 112.096 86.7756 111.813 86.7756 111.248V110.96C86.7756 110.395 87.1063 110.112 87.7676 110.112C88.429 110.112 88.7596 110.395 88.7596 110.96V111.248C88.7596 111.813 88.429 112.096 87.7676 112.096ZM86.9516 113.68H88.5996V122H86.9516V113.68ZM90.3619 122V113.68H92.0099V115.056H92.2019C92.5325 114.011 93.2152 113.488 94.2499 113.488C94.9965 113.488 95.5725 113.744 95.9779 114.256C96.3939 114.757 96.6019 115.499 96.6019 116.48V122H94.9539V116.704C94.9539 116.117 94.8419 115.669 94.6179 115.36C94.3939 115.051 94.0419 114.896 93.5619 114.896C93.1245 114.896 92.7565 115.029 92.4579 115.296C92.1592 115.552 92.0099 115.915 92.0099 116.384V122H90.3619ZM98.2881 110.16H99.9361V115.904L99.8241 117.584H100L101.056 116.032L102.88 113.68H104.784L102.128 116.976L104.96 122H103.072L100.96 118.016L99.9361 119.248V122H98.2881V110.16ZM110.48 122H108.784V110.832H113.2C114.16 110.832 114.88 111.12 115.36 111.696C115.851 112.261 116.096 113.077 116.096 114.144C116.096 115.008 115.936 115.707 115.616 116.24C115.296 116.773 114.816 117.131 114.176 117.312L116.304 122H114.416L112.48 117.44H110.48V122ZM113.056 116.016C113.461 116.016 113.765 115.915 113.968 115.712C114.181 115.499 114.288 115.157 114.288 114.688V113.648C114.288 113.179 114.181 112.843 113.968 112.64C113.765 112.427 113.461 112.32 113.056 112.32H110.48V116.016H113.056ZM120.575 122.192C120.053 122.192 119.573 122.107 119.135 121.936C118.698 121.765 118.325 121.504 118.015 121.152C117.706 120.789 117.461 120.336 117.279 119.792C117.109 119.248 117.023 118.597 117.023 117.84C117.023 117.083 117.103 116.432 117.263 115.888C117.423 115.333 117.653 114.88 117.951 114.528C118.261 114.176 118.623 113.915 119.039 113.744C119.466 113.573 119.946 113.488 120.479 113.488C121.535 113.488 122.357 113.835 122.943 114.528C123.541 115.221 123.839 116.325 123.839 117.84V118.256H118.751V118.784C118.751 119.445 118.917 119.952 119.247 120.304C119.589 120.656 120.053 120.832 120.639 120.832C121.141 120.832 121.551 120.72 121.871 120.496C122.202 120.272 122.479 119.957 122.703 119.552L123.663 120.464C123.365 120.987 122.959 121.408 122.447 121.728C121.946 122.037 121.322 122.192 120.575 122.192ZM120.479 114.8C119.925 114.8 119.498 114.971 119.199 115.312C118.901 115.643 118.751 116.144 118.751 116.816V117.152H122.095V116.816C122.095 115.472 121.557 114.8 120.479 114.8ZM127.519 122.192C126.826 122.192 126.223 122.064 125.711 121.808C125.21 121.541 124.772 121.157 124.399 120.656L125.455 119.68C125.732 120.075 126.036 120.373 126.367 120.576C126.698 120.768 127.087 120.864 127.535 120.864C127.972 120.864 128.308 120.768 128.543 120.576C128.778 120.373 128.895 120.08 128.895 119.696C128.895 119.397 128.82 119.157 128.671 118.976C128.522 118.795 128.25 118.667 127.855 118.592L127.135 118.464C126.292 118.315 125.674 118.053 125.279 117.68C124.884 117.307 124.687 116.752 124.687 116.016C124.687 115.152 124.938 114.517 125.439 114.112C125.94 113.696 126.628 113.488 127.503 113.488C128.143 113.488 128.687 113.6 129.135 113.824C129.594 114.037 129.994 114.352 130.335 114.768L129.343 115.744C129.119 115.435 128.847 115.205 128.527 115.056C128.218 114.896 127.882 114.816 127.519 114.816C126.687 114.816 126.271 115.195 126.271 115.952C126.271 116.283 126.356 116.528 126.527 116.688C126.698 116.848 126.97 116.96 127.343 117.024L128.079 117.168C128.943 117.317 129.556 117.584 129.919 117.968C130.292 118.341 130.479 118.859 130.479 119.52C130.479 120.363 130.223 121.019 129.711 121.488C129.199 121.957 128.468 122.192 127.519 122.192ZM131.748 113.68H133.396V115.04H133.588C133.726 114.549 133.972 114.171 134.324 113.904C134.686 113.627 135.113 113.488 135.604 113.488C136.585 113.488 137.316 113.867 137.796 114.624C138.286 115.371 138.532 116.443 138.532 117.84C138.532 119.237 138.286 120.315 137.796 121.072C137.316 121.819 136.585 122.192 135.604 122.192C135.113 122.192 134.686 122.059 134.324 121.792C133.972 121.515 133.726 121.131 133.588 120.64H133.396V125.2H131.748V113.68ZM135.012 120.784C135.577 120.784 136.014 120.608 136.324 120.256C136.633 119.904 136.788 119.408 136.788 118.768V116.912C136.788 116.272 136.633 115.776 136.324 115.424C136.014 115.072 135.577 114.896 135.012 114.896C134.542 114.896 134.153 115.019 133.844 115.264C133.545 115.509 133.396 115.845 133.396 116.272V119.408C133.396 119.835 133.545 120.171 133.844 120.416C134.153 120.661 134.542 120.784 135.012 120.784ZM142.758 122.192C142.225 122.192 141.745 122.107 141.318 121.936C140.902 121.765 140.539 121.504 140.23 121.152C139.931 120.8 139.702 120.352 139.542 119.808C139.382 119.253 139.302 118.597 139.302 117.84C139.302 117.083 139.382 116.432 139.542 115.888C139.702 115.333 139.931 114.88 140.23 114.528C140.539 114.176 140.902 113.915 141.318 113.744C141.745 113.573 142.225 113.488 142.758 113.488C143.281 113.488 143.755 113.573 144.182 113.744C144.609 113.915 144.971 114.176 145.27 114.528C145.579 114.88 145.814 115.333 145.974 115.888C146.134 116.432 146.214 117.083 146.214 117.84C146.214 118.597 146.134 119.253 145.974 119.808C145.814 120.352 145.579 120.8 145.27 121.152C144.971 121.504 144.609 121.765 144.182 121.936C143.755 122.107 143.281 122.192 142.758 122.192ZM142.758 120.816C143.313 120.816 143.734 120.651 144.022 120.32C144.321 119.989 144.47 119.488 144.47 118.816V116.864C144.47 116.192 144.321 115.691 144.022 115.36C143.734 115.029 143.313 114.864 142.758 114.864C142.203 114.864 141.777 115.029 141.478 115.36C141.19 115.691 141.046 116.192 141.046 116.864V118.816C141.046 119.488 141.19 119.989 141.478 120.32C141.777 120.651 142.203 120.816 142.758 120.816ZM147.444 122V113.68H149.092V115.056H149.284C149.614 114.011 150.297 113.488 151.332 113.488C152.078 113.488 152.654 113.744 153.06 114.256C153.476 114.757 153.684 115.499 153.684 116.48V122H152.036V116.704C152.036 116.117 151.924 115.669 151.7 115.36C151.476 115.051 151.124 114.896 150.644 114.896C150.206 114.896 149.838 115.029 149.54 115.296C149.241 115.552 149.092 115.915 149.092 116.384V122H147.444ZM157.802 122.192C157.109 122.192 156.506 122.064 155.994 121.808C155.493 121.541 155.055 121.157 154.682 120.656L155.738 119.68C156.015 120.075 156.319 120.373 156.65 120.576C156.981 120.768 157.37 120.864 157.818 120.864C158.255 120.864 158.591 120.768 158.826 120.576C159.061 120.373 159.178 120.08 159.178 119.696C159.178 119.397 159.103 119.157 158.954 118.976C158.805 118.795 158.533 118.667 158.138 118.592L157.418 118.464C156.575 118.315 155.957 118.053 155.562 117.68C155.167 117.307 154.97 116.752 154.97 116.016C154.97 115.152 155.221 114.517 155.722 114.112C156.223 113.696 156.911 113.488 157.786 113.488C158.426 113.488 158.97 113.6 159.418 113.824C159.877 114.037 160.277 114.352 160.618 114.768L159.626 115.744C159.402 115.435 159.13 115.205 158.81 115.056C158.501 114.896 158.165 114.816 157.802 114.816C156.97 114.816 156.554 115.195 156.554 115.952C156.554 116.283 156.639 116.528 156.81 116.688C156.981 116.848 157.253 116.96 157.626 117.024L158.362 117.168C159.226 117.317 159.839 117.584 160.202 117.968C160.575 118.341 160.762 118.859 160.762 119.52C160.762 120.363 160.506 121.019 159.994 121.488C159.482 121.957 158.751 122.192 157.802 122.192ZM162.863 112.096C162.201 112.096 161.871 111.813 161.871 111.248V110.96C161.871 110.395 162.201 110.112 162.863 110.112C163.524 110.112 163.855 110.395 163.855 110.96V111.248C163.855 111.813 163.524 112.096 162.863 112.096ZM162.047 113.68H163.695V122H162.047V113.68ZM165.457 110.16H167.105V115.04H167.297C167.436 114.549 167.681 114.171 168.033 113.904C168.396 113.627 168.822 113.488 169.313 113.488C170.305 113.488 171.041 113.867 171.521 114.624C172.001 115.371 172.241 116.443 172.241 117.84C172.241 119.237 172.001 120.315 171.521 121.072C171.041 121.819 170.305 122.192 169.313 122.192C168.822 122.192 168.396 122.059 168.033 121.792C167.681 121.515 167.436 121.131 167.297 120.64H167.105V122H165.457V110.16ZM168.721 120.784C169.286 120.784 169.724 120.608 170.033 120.256C170.342 119.904 170.497 119.408 170.497 118.768V116.912C170.497 116.272 170.342 115.776 170.033 115.424C169.724 115.072 169.286 114.896 168.721 114.896C168.252 114.896 167.862 115.019 167.553 115.264C167.254 115.509 167.105 115.845 167.105 116.272V119.408C167.105 119.835 167.254 120.171 167.553 120.416C167.862 120.661 168.252 120.784 168.721 120.784ZM175.171 122C174.595 122 174.179 121.872 173.923 121.616C173.667 121.349 173.539 120.939 173.539 120.384V110.16H175.187V120.64H176.179V122H175.171ZM181.682 113.68H183.314L180.098 123.888C180.012 124.144 179.916 124.357 179.81 124.528C179.714 124.699 179.591 124.832 179.442 124.928C179.303 125.035 179.132 125.104 178.93 125.136C178.727 125.179 178.492 125.2 178.226 125.2H177.074V123.84H178.578L178.962 122.448L176.194 113.68H177.874L179.122 118.048L179.698 120.576H179.874L180.45 118.048L181.682 113.68ZM184.118 122.176C183.745 122.176 183.468 122.096 183.286 121.936C183.105 121.765 183.014 121.525 183.014 121.216V120.896C183.014 120.587 183.105 120.352 183.286 120.192C183.468 120.021 183.745 119.936 184.118 119.936C184.492 119.936 184.769 120.021 184.95 120.192C185.132 120.352 185.222 120.587 185.222 120.896V121.216C185.222 121.525 185.132 121.765 184.95 121.936C184.769 122.096 184.492 122.176 184.118 122.176Z" fill="white"/>
</svg>
