<svg width="190" height="188" viewBox="0 0 190 188" fill="none" xmlns="http://www.w3.org/2000/svg">
<path d="M69.3712 64.9419C73.8702 63.7301 75.7068 59.6592 74.4819 55.2254C73.2569 50.7916 69.68 48.1789 65.0821 49.4174C60.4843 50.6559 58.8453 54.6734 60.0434 59.0097C61.2964 63.5451 64.8733 66.1578 69.3723 64.946L69.3712 64.9419ZM65.8333 52.1362C68.2846 51.4759 70.5251 52.8242 71.4717 56.2502C72.0847 58.4691 71.4501 61.3473 68.5908 62.1174C66.2383 62.7511 64.002 61.4017 63.1116 58.1789C62.2482 55.0537 63.3819 52.7965 65.8333 52.1362Z" fill="white"/>
<path d="M81.1133 61.3931L92.0712 58.44L91.8581 55.677L91.8219 55.1446C91.8219 55.1446 91.2431 55.8428 90.7313 55.9807L83.7645 57.8582L79.5659 42.6533C79.3985 42.0469 79.6677 41.4321 79.6677 41.4321L75.8789 42.4532C75.8789 42.4532 76.4269 42.8478 76.5943 43.4542L81.184 60.0754C81.3795 60.7836 81.1103 61.3983 81.1103 61.3983L81.1133 61.3931Z" fill="white"/>
<path d="M95.5235 57.4566L101.453 55.8593C105.541 54.7581 108.172 51.5558 106.723 46.3122C105.358 41.3693 101.769 39.519 97.2736 40.73L91.3438 42.3273C91.3438 42.3273 91.891 42.7214 92.0583 43.3271L95.5968 56.1354C95.7922 56.8426 95.5235 57.4566 95.5235 57.4566ZM95.4442 44.0441L97.8961 43.3836C101.065 42.53 102.767 43.9146 103.659 47.1421C104.494 50.1663 103.693 52.4434 100.627 53.2693L98.1753 53.9297L95.4453 44.0481L95.4442 44.0441Z" fill="white"/>
<path d="M108.864 81.8043C106.39 72.8484 97.0987 69.4296 89.3341 71.5213C81.5654 73.6142 75.3233 81.2176 77.7973 90.1735C79.8359 97.5536 87.795 102.283 97.1364 99.7661C105.535 97.5035 111.256 90.4638 108.864 81.8043ZM89.9924 93.5039L86.4043 80.5148C85.5347 77.367 86.2037 74.3764 89.8513 73.3938C93.5772 72.39 95.6131 74.6519 96.4826 77.7997L100.071 90.7889C101.049 94.3306 99.7686 97.0452 96.6191 97.8936C93.4697 98.7421 90.9707 97.0457 89.9924 93.5039Z" fill="white"/>
<path d="M95.2577 110.41C95.8513 112.559 98.3793 113.959 100.796 113.308C103.213 112.657 104.701 110.292 104.077 108.034C103.453 105.776 100.848 104.513 98.5385 105.136C96.2287 105.758 94.6338 108.151 95.2577 110.41Z" fill="white"/>
<path d="M146.089 57.543C145.889 56.8193 145.527 56.3751 145.008 56.0518C143.91 57.798 142.439 59.0767 139.867 59.7696C135.634 60.9098 131.119 60.4182 127.835 60.6478C125.446 60.8459 122.652 61.5987 120.594 62.5986C116.182 65.124 114.044 65.0315 113.467 63.7413C113.261 63.7968 112.301 63.9461 112.301 63.9461L113.253 79.0617C113.253 79.0617 114.418 78.8569 114.521 78.8291C115.075 76.0067 116.594 74.2607 119.075 73.5923C122.075 72.784 125.055 73.8728 129.448 72.6892C132.057 71.9864 134.652 70.4005 137.279 68.2423C137.382 68.2146 137.354 68.1129 137.457 68.0852L137.748 68.3387C137.67 70.4741 121.519 82.8412 125.013 95.4897C126.434 100.637 131.128 104.981 138.839 102.904C150.04 99.8861 148.8 89.8499 145.867 87.3114C145.074 88.862 144.108 89.677 142.566 90.0922C140.225 90.7229 138.206 89.7292 137.39 86.7734C134.87 77.6499 147.49 62.617 146.088 57.5389L146.089 57.543Z" fill="white"/>
<path d="M48.9587 117.586L42.8628 95.5182L68.3718 120.675L82.0511 116.99L79.1712 114.396L70.9654 84.6914C69.8959 80.8199 70.8295 78.434 73.0694 77.0449L73.3865 76.9595L73.2417 76.4354L60.9419 79.7489L61.0866 80.273L61.5108 80.1587C64.0434 80.2621 66.1577 81.7178 67.2553 85.6909L74.0167 110.167L47.0578 83.4935L31.5832 87.6622C35.0733 89.9825 37.9739 92.2347 38.6091 94.5341C40.2274 100.392 45.457 119.323 45.457 119.323C46.4973 123.089 45.5928 125.581 43.353 126.97L43.0359 127.055L43.1515 127.474L55.4513 124.16L55.3358 123.742L54.9116 123.856C52.3206 123.542 50.1782 121.984 48.9651 117.593L48.9587 117.586Z" fill="white"/>
<path d="M115.153 166.698C74.2981 177.714 31.9984 153.853 20.8631 113.51C9.72771 73.1669 33.9079 31.3817 74.7631 20.3663C115.618 9.35098 157.918 33.2119 169.053 73.5548C180.189 113.898 156.009 155.683 115.153 166.698ZM75.6955 23.7442C36.7255 34.2512 13.6623 74.1063 24.2827 112.583C34.9042 151.065 75.2499 173.823 114.22 163.316C153.19 152.809 176.249 112.955 165.627 74.4742C155.006 35.9929 114.661 13.2382 75.6955 23.7442Z" fill="white"/>
<path d="M78.2715 138.059C79.2727 137.293 79.4117 136.261 79.0865 135.063C78.425 132.323 76.8657 131.542 74.4437 132.205L68.5245 133.806L71.6309 145.093C73.8211 145.413 75.7741 145.671 77.9205 145.864C80.7595 146.139 82.1189 144.32 81.3668 141.587C80.7037 139.178 79.5826 138.499 78.2704 138.055L78.2715 138.059ZM71.3523 134.905C71.3523 134.905 73.3651 134.452 74.3905 134.222C75.6221 133.941 76.1007 134.767 76.3366 135.624C76.6325 136.7 76.6786 137.604 75.3714 137.818C74.3304 137.991 73.3301 138.136 72.2705 138.257C71.9512 137.097 71.673 136.086 71.3471 134.902L71.3523 134.905ZM77.3155 143.778C76.046 143.713 73.7257 143.545 73.7269 143.549C73.402 142.369 73.0938 141.249 72.7689 140.068C72.7689 140.068 75.0255 139.893 76.324 139.806C77.7305 139.713 78.2759 141.038 78.5562 142.056C78.8488 143.12 78.5314 143.84 77.3155 143.778ZM102.095 124.727L101.466 145.408C102.362 145.3 103.514 145.097 104.374 144.908L104.462 139.781C105.761 140.211 107.272 140.671 108.408 140.942C109.212 140.225 110.34 139.025 111.271 138.004L114.151 142.529C115.008 142.245 116.282 141.783 117.15 141.444L105.557 123.791L102.095 124.727ZM107.66 138.208C106.661 137.939 105.495 137.577 104.503 137.224L104.666 127.633L109.873 135.807C109.265 136.544 108.373 137.498 107.664 138.206L107.66 138.208ZM97.0541 143.196C96.0659 142.151 94.1107 139.018 93.2129 137.597C95.0744 136.338 95.646 134.364 94.9889 131.944C94.1074 128.677 91.7692 127.515 89.1738 128.222C87.0531 128.795 84.6247 129.452 82.582 130.004C84.1521 135.774 85.6655 141.337 86.9905 146.2C87.9335 146.231 88.9072 146.246 89.8808 146.261C89.329 144.255 88.5855 141.49 87.9009 138.986C88.5675 138.91 89.8091 138.713 90.4963 138.584C91.9588 140.856 93.3806 143.155 94.4468 144.387C95.8435 146.003 97.0328 146.433 98.3273 146.205C99.2181 146.046 99.532 145.762 99.5331 145.766C99.326 145.109 99.1189 144.453 98.9107 143.792C98.3232 144.108 97.857 144.047 97.0552 143.2L97.0541 143.196ZM90.5877 136.114C89.7696 136.296 87.305 136.789 87.305 136.789C86.9267 135.414 86.3909 133.435 85.8987 131.631L89.398 130.75C91.0302 130.339 91.7465 131.452 92.1348 132.863C92.5721 134.452 92.3914 135.717 90.5877 136.114ZM134.976 115.835L129.943 117.196C129.943 117.196 130.515 117.736 130.67 118.298C132.003 122.789 133.277 127.388 134.412 131.142C134.57 131.703 134.35 132.423 134.343 132.416C135.444 131.771 138.2 129.696 138.675 129.29C142.474 126.247 143.621 123.435 142.548 119.533C141.624 116.178 138.896 114.8 134.975 115.831L134.976 115.835ZM137.349 127.516C136.86 127.869 136.541 128.086 136.256 128.267C135.518 125.6 134.43 122.016 133.468 118.536C134.026 118.372 134.649 118.217 135.293 118.042C138 117.31 139.4 118.265 140.022 120.525C140.891 123.682 140.013 125.601 137.354 127.519L137.349 127.516ZM122.884 119.105L126.003 129.959C122.951 126.988 119.839 123.751 116.96 120.707L114.208 121.451C116.033 128.034 117.982 134.765 119.565 140.483C120.34 140.147 121.272 139.721 122.036 139.311C120.981 135.526 119.466 130.05 118.267 126.031C121.557 129.45 125.083 132.974 128.304 136.126C129.006 135.731 129.635 135.357 130.193 135.015C128.701 129.963 127.103 124.219 125.408 118.427C124.542 118.661 123.742 118.877 122.881 119.11L122.884 119.105Z" fill="white"/>
</svg>
