<svg xmlns="http://www.w3.org/2000/svg" viewBox="0 0 377.73 309.98"><defs><style>.cls-1{fill:#fff;}</style></defs><g id="Layer_2" data-name="Layer 2"><g id="Layer_1-2" data-name="Layer 1"><path class="cls-1" d="M59.89,13.65V81.8q0,10.74,6.23,17.35a20.93,20.93,0,0,0,16,6.62q9.73,0,15.77-6.69t6-18.55V13.63a5.78,5.78,0,0,1,2.52-5.1,3.35,3.35,0,0,0,1.72-2.72v-3c0-.93-.49-1.39-1.46-1.39H91.89c-1.15,0-1.72.51-1.72,1.52V5.8a3.32,3.32,0,0,0,1.72,2.71,5.78,5.78,0,0,1,2.52,5.1v66.5q0,16.15-10,16.16-9.15,0-9.14-13.78V13.61a5.78,5.78,0,0,1,2.52-5.1A3.33,3.33,0,0,0,79.5,5.8v-3c0-.93-.49-1.39-1.46-1.39H57.36c-1.15,0-1.72.51-1.72,1.52V5.79a3.35,3.35,0,0,0,1.72,2.72A5.89,5.89,0,0,1,59.89,13.65Zm44.63,191a1.47,1.47,0,0,0-1.66-1.66H100c-1.15,0-1.94.79-2.39,2.39q-2.85,10.53-4.77,12.89T86,220.58H77v-42h2.65a6.32,6.32,0,0,1,3.84,1q1.4,1,2.58,5.73a11,11,0,0,0,1.06,3.08,1.7,1.7,0,0,0,1.39.5h3a1.41,1.41,0,0,0,1.59-1.59v-25a1.5,1.5,0,0,0-1.72-1.66H88.53a2.08,2.08,0,0,0-1.19.2,8.84,8.84,0,0,0-.73,2.06Q85,168.75,84,169.85c-.71.73-2,1.09-3.91,1.09H77V133.43h8.35c3.8,0,6.33,1.22,7.59,3.68A27.87,27.87,0,0,1,95.56,146c.13,1.24.73,1.85,1.79,1.85H99.8a2.83,2.83,0,0,0,1.69-.3,3.19,3.19,0,0,0,.3-1.82V126.2c0-.8-.73-1.19-2.19-1.19-.4,0-1.37.07-2.92.2-1.72.13-2.89.2-3.51.2H59.1q-1.59,0-1.59,1.26v3.18a3.19,3.19,0,0,0,1.66,2.65,5.92,5.92,0,0,1,2.45,5.17v78.47a5.72,5.72,0,0,1-1.92,4.77C58.24,222,57.51,223,57.51,224v2.92a1.41,1.41,0,0,0,1.59,1.59h45.4V204.61ZM165,221.84a8.1,8.1,0,0,1-2.68-2.25,10.35,10.35,0,0,1-1.16-3.51l-18-89.88c-.18-.79-.58-1.19-1.2-1.19a1.32,1.32,0,0,0-.6.13l-11.23,5.23c-.66.31-1,.69-1,1.13,0,.18.1,1,.31,2.45l.62,4.5-15.41,77.09a8.18,8.18,0,0,1-3.58,5.63,2.57,2.57,0,0,0-1.46,2.25v3.45c0,1.06.77,1.59,2.32,1.59h13.85q1.92,0,1.92-1.59V224c0-.79-.64-1.72-1.91-2.78q-3-2.38-3-4.37a6.68,6.68,0,0,1,.2-1.26l2.77-13.33h17.32l2.77,13.85a9.86,9.86,0,0,1,.13,1.53,4.22,4.22,0,0,1-2.6,3.78q-2.13,1.06-2.13,2.58v2.92c0,1.06.6,1.59,1.79,1.59h22.14q1.26,0,1.26-1.59V224A2.56,2.56,0,0,0,165,221.84Zm-37.25-28.1,6.93-34,6.79,34ZM51.64,125.41h-15c-1.15,0-1.72.51-1.72,1.53v2.92a3.23,3.23,0,0,0,1.72,2.72,5.8,5.8,0,0,1,2.52,5.12v43.5L18.83,127.53a3.84,3.84,0,0,0-1.06-1.76,4,4,0,0,0-2-.37h-14c-1.14,0-1.72.51-1.72,1.53v2.91a3.23,3.23,0,0,0,1.72,2.72,5.78,5.78,0,0,1,2.52,5.1v78.47a6,6,0,0,1-2.52,5.17A3.3,3.3,0,0,0,0,224v3.12c0,.93.48,1.39,1.45,1.39h14.8c1.14,0,1.71-.51,1.71-1.52v-3a3.17,3.17,0,0,0-1.7-2.65,5.82,5.82,0,0,1-2.54-5.17V154.57l27.49,72.24A2.83,2.83,0,0,0,44,228.93h2.93c1.28,0,1.92-.71,1.92-2.12V137.67a5.83,5.83,0,0,1,2.58-5.1,3.36,3.36,0,0,0,1.66-2.72v-3A1.26,1.26,0,0,0,51.64,125.41Zm62.18-21h14.8c1.14,0,1.71-.51,1.71-1.52v-3a3.17,3.17,0,0,0-1.7-2.65,5.82,5.82,0,0,1-2.54-5.17V30.56l27.49,72.24a2.83,2.83,0,0,0,2.79,2.12h2.92c1.28,0,1.93-.71,1.93-2.12V13.66a5.83,5.83,0,0,1,2.58-5.1,3.39,3.39,0,0,0,1.66-2.72v-3c0-.93-.49-1.39-1.46-1.39H149c-1.15,0-1.72.51-1.72,1.53V5.85A3.23,3.23,0,0,0,149,8.57a5.8,5.8,0,0,1,2.52,5.12v43.5L131.19,3.52a3.84,3.84,0,0,0-1.06-1.76,4,4,0,0,0-2-.37h-14c-1.14,0-1.72.51-1.72,1.53V5.83a3.23,3.23,0,0,0,1.72,2.72,5.78,5.78,0,0,1,2.52,5.1V92.12a6,6,0,0,1-2.52,5.17,3.3,3.3,0,0,0-1.72,2.65v3.12A1.27,1.27,0,0,0,113.82,104.45Zm158.15,0h45.4V80.59a1.47,1.47,0,0,0-1.66-1.66h-2.85c-1.15,0-1.94.79-2.39,2.39q-2.85,10.53-4.77,12.89t-6.89,2.35h-8.95V54.61h2.65a6.28,6.28,0,0,1,3.84,1q1.39,1,2.58,5.73A11.35,11.35,0,0,0,300,64.45a1.69,1.69,0,0,0,1.39.5h3.05A1.41,1.41,0,0,0,306,63.36v-25a1.5,1.5,0,0,0-1.72-1.66h-2.92a2.08,2.08,0,0,0-1.19.2,8.35,8.35,0,0,0-.73,2.06q-1.59,5.76-2.65,6.86c-.71.73-2,1.09-3.91,1.09h-3V9.41h8.35c3.8,0,6.33,1.22,7.59,3.68a27.87,27.87,0,0,1,2.62,8.85c.13,1.24.73,1.85,1.79,1.85h2.45a2.83,2.83,0,0,0,1.69-.3,3.19,3.19,0,0,0,.3-1.82V2.18c0-.8-.73-1.19-2.19-1.19-.4,0-1.37.07-2.92.2-1.72.13-2.89.2-3.51.2H272q-1.59,0-1.59,1.26V5.83A3.19,3.19,0,0,0,272,8.48a5.92,5.92,0,0,1,2.45,5.17V92.12a5.72,5.72,0,0,1-1.92,4.77c-1.46,1.11-2.19,2.12-2.19,3v2.92A1.42,1.42,0,0,0,272,104.45Zm-73.1,1.33a16.81,16.81,0,0,0,14-7.12q5.4-7.12,6.06-19.45l-7.34-.8Q209,96.91,200.67,96.9q-7,0-9.75-11.59T188.13,49a220.92,220.92,0,0,1,1.13-22.38q1.13-11.06,3.25-15t6-4q6.63,0,10.67,15.31a17.07,17.07,0,0,0,1.36,4,2.12,2.12,0,0,0,1.89.73h2.92q1.26,0,1.26-1.86V4q0-1.92-1.26-1.92H211.6a1.57,1.57,0,0,0-1.13.74,2.37,2.37,0,0,1-1.33.8A3,3,0,0,1,208,3.2,21.65,21.65,0,0,0,197.55,0q-11.4,0-18.66,13.81t-7.26,39.31q0,25.83,7.46,39.24T198.87,105.78Zm172.34,18.31c-.26,0-1.72.2-4.37.6-1.72.31-3.18.55-4.37.73H339a57.81,57.81,0,0,1-8.22-.86,36.63,36.63,0,0,0-4.71-.53c-1.42,0-2.12.75-2.12,2.25v19.29q0,1.92,2.25,1.92h2.59a1.21,1.21,0,0,0,1.39-1.13q1.26-8.36,2.82-10.8a5.29,5.29,0,0,1,4.8-2.46h2.92v83.05a6,6,0,0,1-2.52,5.17,3.3,3.3,0,0,0-1.72,2.65v3.12c0,.93.48,1.39,1.46,1.39h20.68c1.15,0,1.72-.51,1.72-1.52v-3a3.18,3.18,0,0,0-1.72-2.65,5.85,5.85,0,0,1-2.52-5.17v-83h3q3.18,0,4.44,1.76c.84,1.17,1.65,3.66,2.45,7.46a42.54,42.54,0,0,0,1,4.31c.2.57.81.86,1.83.86h2.51c1.14,0,1.72-.64,1.72-1.92V125.76C373,124.64,372.41,124.09,371.21,124.09ZM302.62,166q-8-8.22-10.7-13.29a21.2,21.2,0,0,1-2.68-9.91,12.26,12.26,0,0,1,2.29-7.36,7.13,7.13,0,0,1,6.06-3.18q7,0,10.14,14.38a28.94,28.94,0,0,0,1.29,4.8,1.64,1.64,0,0,0,1.55.63h3.05c1,0,1.46-.55,1.46-1.66V128.44c0-1.19-.64-1.79-1.92-1.79h-2.45a3.88,3.88,0,0,0-2,.47,2.67,2.67,0,0,1-1.46.54,7.26,7.26,0,0,1-2.52-.94,17.72,17.72,0,0,0-7.82-2.07q-8,0-13.49,7.09t-5.53,18.1a32.69,32.69,0,0,0,1.76,10.94,34.36,34.36,0,0,0,4.64,8.91,123.52,123.52,0,0,0,9.71,11.1q8.81,9.35,11.89,14.85A24,24,0,0,1,309,207.57a18.83,18.83,0,0,1-2.88,10.6,9,9,0,0,1-7.92,4.38q-9.68,0-12.39-17.36a30.12,30.12,0,0,0-1-5.27,1.48,1.48,0,0,0-1.49-.76h-2.85c-1.19,0-1.79.84-1.79,2.52v25c0,1.19.55,1.79,1.66,1.79h3.32a2.78,2.78,0,0,0,1.26-.47,3.5,3.5,0,0,1,1.72-.67,7.47,7.47,0,0,1,2.45.73,26.4,26.4,0,0,0,9.48,2.14q9.09,0,15.68-7.89t6.59-20.48a38.74,38.74,0,0,0-3.94-17.33Q312.87,176.51,302.62,166Zm-29.23,38.64a1.47,1.47,0,0,0-1.66-1.66h-2.85c-1.15,0-1.94.79-2.39,2.39q-2.85,10.53-4.77,12.89t-6.89,2.35h-9v-42h2.65a6.32,6.32,0,0,1,3.84,1q1.4,1,2.58,5.73a11,11,0,0,0,1.06,3.08,1.7,1.7,0,0,0,1.39.5h3.05a1.41,1.41,0,0,0,1.59-1.59v-25a1.5,1.5,0,0,0-1.72-1.66H257.4a2.08,2.08,0,0,0-1.19.2,8.84,8.84,0,0,0-.73,2.06c-1.06,3.84-1.95,6.13-2.65,6.86s-2,1.09-3.91,1.09h-3V133.43h8.35c3.8,0,6.33,1.22,7.59,3.68a27.87,27.87,0,0,1,2.62,8.85c.13,1.24.73,1.85,1.79,1.85h2.45a2.83,2.83,0,0,0,1.69-.3,3.19,3.19,0,0,0,.3-1.82V126.2c0-.8-.73-1.19-2.19-1.19-.4,0-1.37.07-2.92.2-1.72.13-2.89.2-3.51.2H228q-1.59,0-1.59,1.26v3.18A3.19,3.19,0,0,0,228,132.5a5.92,5.92,0,0,1,2.45,5.17v78.47a5.72,5.72,0,0,1-1.92,4.77c-1.46,1.11-2.19,2.12-2.19,3.05v2.92a1.41,1.41,0,0,0,1.59,1.59h45.4V204.61Zm-53.65,14.68a19.56,19.56,0,0,1-1.82-5.47l-4.84-21q-1.52-6.5-4.34-9.84a25,25,0,0,0-8.25-6Q219,171.14,219,151.19q0-12.52-7.69-19.16t-22.4-6.63H171.53c-1.15,0-1.72.51-1.72,1.53v2.91a3.23,3.23,0,0,0,1.72,2.72,5.78,5.78,0,0,1,2.52,5.1v78.47a6,6,0,0,1-2.52,5.17,3.3,3.3,0,0,0-1.72,2.65v3.12c0,.93.48,1.39,1.46,1.39H192c1.15,0,1.72-.51,1.72-1.52v-3a3.18,3.18,0,0,0-1.72-2.65,5.85,5.85,0,0,1-2.52-5.17V180.22a6.26,6.26,0,0,1,4.48,1.86q1.76,1.78,3.21,7.82l9.07,36.44a2.4,2.4,0,0,0,2.45,2.13h13.21A1.29,1.29,0,0,0,223.3,227v-3.78a1.42,1.42,0,0,0-.59-1.26A8.67,8.67,0,0,1,219.74,219.29Zm-30.32-46.95v-38.9q7.1,0,10.51,3.55t3.41,14.81q0,11.53-3.38,16C197.71,170.83,194.19,172.34,189.42,172.34ZM266.8,80.73c0-1-.6-1.46-1.79-1.46H261.9c-.62,0-1,.14-1.16.43A19.56,19.56,0,0,0,260,83q-1.32,7.42-4.08,10.5a9.79,9.79,0,0,1-7.72,3.08h-5.63V13.65a5.87,5.87,0,0,1,2.52-5.1,3.35,3.35,0,0,0,1.72-2.72V2.78c0-.93-.49-1.39-1.46-1.39H224.65c-1.15,0-1.72.51-1.72,1.53V5.83a3.23,3.23,0,0,0,1.72,2.72,5.78,5.78,0,0,1,2.52,5.1V92.12a5.65,5.65,0,0,1-2.85,5.17,3.17,3.17,0,0,0-1.92,2.65v2.52c0,1.33.73,2,2.19,2h42.22V80.73Z"/><rect class="cls-1" x="56.45" y="258.34" width="93.23" height="0.9"/><rect class="cls-1" x="223.33" y="258.34" width="93.23" height="0.9"/><polygon class="cls-1" points="179.64 245.06 178.27 250.03 173.39 250.84 177.61 253.02 176.83 258.18 180.73 254.43 185.11 257.36 183.15 252.87 186.67 249.74 181.98 249.74 179.64 245.06"/><polygon class="cls-1" points="190.75 255.87 186.67 259.11 192.08 259.03 193.28 264.16 194.92 259.54 199.62 259.65 196.19 256.46 197.67 251.43 193.28 254.14 189.16 251.4 190.75 255.87"/><polygon class="cls-1" points="181.28 264.24 176.51 262.9 179.41 266.67 176.53 271.01 181.65 269.26 184.37 273.76 184.51 268.87 189.01 267.52 184.76 265.54 184.62 260.3 181.28 264.24"/><path class="cls-1" d="M372.27,217.74a5.74,5.74,0,0,1,2.69.7,5,5,0,0,1,2,2,5.51,5.51,0,0,1,.73,2.73,5.56,5.56,0,0,1-.72,2.72,5.1,5.1,0,0,1-2,2,5.48,5.48,0,0,1-5.43,0,5.1,5.1,0,0,1-2-2,5.54,5.54,0,0,1-.72-2.72,5.48,5.48,0,0,1,.73-2.73,5.08,5.08,0,0,1,2-2A5.59,5.59,0,0,1,372.27,217.74Zm0,.47a5.09,5.09,0,0,0-2.45.64,4.58,4.58,0,0,0-1.86,1.84,5,5,0,0,0-.67,2.49,5.07,5.07,0,0,0,.65,2.47,4.65,4.65,0,0,0,1.84,1.84,5,5,0,0,0,5,0,4.74,4.74,0,0,0,1.85-1.84,5,5,0,0,0,0-5,4.64,4.64,0,0,0-1.86-1.84A5.11,5.11,0,0,0,372.27,218.21Zm-3,1.63h3a2.57,2.57,0,0,1,1.7.5,1.56,1.56,0,0,1,.59,1.22,1.44,1.44,0,0,1-.4,1,2.68,2.68,0,0,1-1.31.68l1.61,2.29a2.22,2.22,0,0,0,.52.56.91.91,0,0,0,.41.11v.25h-1.42l-2.26-3.11h-.58v2.37a.52.52,0,0,0,.22.37,1.34,1.34,0,0,0,.69.12v.25h-2.82v-.25a1,1,0,0,0,.54-.1.64.64,0,0,0,.23-.3,3.84,3.84,0,0,0,0-.66v-4c0-.38,0-.6,0-.67a.46.46,0,0,0-.2-.27,1,1,0,0,0-.49-.1v-.27Zm1.83,3.21h.23a2.25,2.25,0,0,0,1.49-.4,1.27,1.27,0,0,0,.47-1,1.4,1.4,0,0,0-.44-1,1.53,1.53,0,0,0-1.11-.42,2,2,0,0,0-.64.12v2.74Z"/><path class="cls-1" d="M17.85,297.86c0-1.65,0-4.3,0-4.57-.05-.42-.32-.55-.87-.55h-1.3c-.1,0-.15-.05-.15-.18v-.62c0-.15.05-.2.15-.2.3,0,1.2.08,3.7.08.45,0,1.9-.08,2.75-.08,3,0,4.45.27,5.9,1.27a4.73,4.73,0,0,1,1.9,3.8c0,3.1-2.4,5.05-6.65,5.05a15.5,15.5,0,0,1-2.25-.1v1.1c0,1.2,0,4.6,0,4.92.08.55.33.8.77.8h1.4c.2,0,.2.1.2.17v.58c0,.15,0,.25-.2.25-.35,0-1.15-.08-3.85-.08-2.2,0-3.2.08-3.45.08s-.2-.1-.2-.17v-.62c0-.15,0-.2.15-.2h.8c.85,0,1.05-.1,1.12-.77,0-.25.08-4.15.08-7.05v-2.91Zm3.15,3a6.38,6.38,0,0,0,1.8.2,4.2,4.2,0,0,0,3-1.7,4.65,4.65,0,0,0,.6-2.6,3.92,3.92,0,0,0-3.95-4.17,3.51,3.51,0,0,0-1.45.17v8.1Z"/><path class="cls-1" d="M41.82,303c0,1.5,0,4.3.1,4.67s.25.95.65.95h1.25c.15,0,.2.08.2.17v.6c0,.18-.07.23-.27.23s-.82-.08-3.42-.08c-2.45,0-3,.08-3.3.08s-.2-.08-.2-.23v-.57c0-.12.05-.2.15-.2h.85c.55,0,1-.15,1-.83,0-2.5,0-4.85,0-7.2V294c0-.85-.35-1.25-.8-1.25h-1c-.12,0-.17-.05-.17-.15v-.67c0-.12,0-.17.17-.17s1,.08,3.42.08c1.4,0,3.7-.08,4.45-.08a6.72,6.72,0,0,1,4.55,1.57,3.83,3.83,0,0,1,1.35,2.8c0,3.15-1.9,4.45-4.65,4.9v.1a3.26,3.26,0,0,1,1.5,1.15c.3.4,1.85,2.75,2,3.05s1.75,2.5,2.12,2.85a2.64,2.64,0,0,0,1.77.47c.15,0,.2.08.2.17v.53c0,.17,0,.25-.2.25s-.85-.08-2.45-.08c-.7,0-1.65.05-2.2.08a6.94,6.94,0,0,1-1.1-1.42c-.45-.7-1.42-2.5-1.65-2.9s-.95-1.6-1.35-2.15c-.62-.88-1.2-1.55-2.25-1.55l-.8.05Zm0-2.25a6.83,6.83,0,0,0,1,.1,4.37,4.37,0,0,0,4.7-4.3,4,4,0,0,0-1.1-2.8,4.79,4.79,0,0,0-3.3-1.08,1.83,1.83,0,0,0-.9.15.84.84,0,0,0-.3.72Z"/><path class="cls-1" d="M65.23,302.26c0,1.35.07,3.8.07,4.25,0,1.3.45,1.8,1,1.95a7.92,7.92,0,0,0,2,.2c.45,0,1.6-.05,2.1-.1a4.27,4.27,0,0,0,2.05-.85c.45-.4,1.85-2,2.32-2.65.1-.12.17-.15.27-.1l.4.25c.08.05.1.12,0,.25l-1.2,3.75a.54.54,0,0,1-.55.38c-.25,0-2.2-.08-10.55-.08-1.85,0-2.75.08-3.2.08-.15,0-.2,0-.2-.2v-.6c0-.15,0-.2.25-.2h.85c1.15,0,1.25-.15,1.25-1.08v-8.4c0-2.05-.05-5.15-.1-5.5-.1-.67-.35-.87-1.1-.87h-1c-.1,0-.15-.05-.15-.18v-.65c0-.12,0-.17.15-.17.55,0,1.45.1,3.5.08h.7l8-.05,1,0a.17.17,0,0,1,.2.15c.1.33,1,3.72,1.15,4s0,.22-.07.27l-.45.2c-.07,0-.15,0-.22-.12a23.54,23.54,0,0,0-2.75-2.8,4.34,4.34,0,0,0-1.9-.65l-3.8-.1,0,7.22c.75,0,2.55-.05,2.85-.12a1.4,1.4,0,0,0,1.15-.9,4,4,0,0,0,.4-1.4.18.18,0,0,1,.2-.2l.65.05c.1,0,.17.05.15.2,0,.4,0,2.05,0,2.7,0,1,.1,2.2.15,2.75,0,.12,0,.15-.2.18l-.55.1c-.1,0-.15,0-.2-.17a9.71,9.71,0,0,0-.4-1.25,1.54,1.54,0,0,0-1.25-.9c-.9-.1-2.1-.15-2.9-.15Z"/><path class="cls-1" d="M99.68,300.46c0-.75,0-6.95-.05-7h-.1c-.2.35-3.35,7.65-3.65,8.3-.38.8-2.92,6.7-3,7s-.3.55-.55.55-.3-.15-.4-.45c-.1-.15-3.35-7.95-3.5-8.35-.45-1.15-2.75-6.75-3-7.05-.1.35-.12,6.65-.12,6.95s0,4.55.12,6.17c.1,1.15.4,2.1,1.2,2.1h1.1a.18.18,0,0,1,.2.17v.62c0,.1,0,.2-.25.2s-1-.08-2.85-.08c-2.15,0-3,.08-3.25.08s-.2-.05-.2-.23v-.62c0-.05,0-.15.15-.15h1.15c.85,0,1.12-.9,1.25-1.77.23-1.75.38-7.9.38-8.35v-4.27c0-.9-.12-1.45-1.22-1.45h-1.1a.18.18,0,0,1-.2-.18v-.67c0-.05,0-.15.2-.15s.9.08,3.55.08c1.2,0,1.9-.08,2.2-.08a.56.56,0,0,1,.6.42c.9,2.35,4.4,10.65,5.15,12.7.23-.45,2-4.57,2.65-6.05.45-1.05,2.7-6.2,2.82-6.7.08-.25.38-.3,1-.3,3.65,0,4.5-.08,4.8-.08.1,0,.15.1.15.22v.53c0,.15,0,.25-.2.25h-1.1c-.65,0-.7.45-.73,1s0,5.55,0,6.2v1.75c0,1.5,0,5.15,0,5.57,0,1,.25,1.35.7,1.35h1.35c.15,0,.15.1.15.17v.58c0,.15,0,.25-.2.25s-1.5-.08-3.7-.08c-2.45,0-3.4.08-3.75.08-.15,0-.2-.1-.2-.23v-.57c0-.15.05-.2.2-.2h1.55c.45,0,.65-.15.73-.88,0-.25.07-3.85.07-5.85v-1.37Z"/><path class="cls-1" d="M117.83,301.41c0,.25,0,6,0,6.27,0,.8.4.9,1,.9h1.05c.1,0,.2.05.2.17v.62c0,.15-.1.2-.25.2s-1.3-.08-3.65-.08c-2.5,0-3.6.08-3.85.08s-.2-.05-.2-.17v-.67c0-.1,0-.15.2-.15h1c.5,0,1.05-.05,1.15-.72,0-.35.1-5.75.1-7.1V299c0-.6,0-5.1-.07-5.42-.08-.6-.33-.85-1-.85h-1.3c-.15,0-.2-.05-.2-.18v-.65c0-.12,0-.17.15-.17.3,0,1.6.08,4,.08s3.2-.08,3.55-.08c.15,0,.2.1.2.22v.58a.18.18,0,0,1-.2.2h-1c-.55,0-1,.2-1,.67,0,.25,0,5.75,0,6v2Z"/><path class="cls-1" d="M129.06,294c0-.85-.2-1.25-.85-1.25h-1.15c-.15,0-.2-.05-.2-.23v-.57c0-.15,0-.2.25-.2s1.45.08,3.85.08c2.1,0,3.3-.08,3.6-.08.15,0,.2,0,.2.17v.62c0,.15,0,.2-.2.2h-1.05a1.09,1.09,0,0,0-1.22,1c0,.3-.08,1.8-.08,3.25V300c0,1.25,0,3,.08,3.82a5.82,5.82,0,0,0,.87,3.1,4.13,4.13,0,0,0,3.4,1.55,5.28,5.28,0,0,0,3.35-1.2,5.8,5.8,0,0,0,1.45-4.22v-4.5c0-2-.2-4.2-.27-4.77a1.1,1.1,0,0,0-1-1.1h-.9c-.15,0-.2-.08-.2-.18v-.62c0-.15.05-.2.2-.2s1.4.08,3.05.08,2.35-.08,2.55-.08.25.08.25.2v.57c0,.15,0,.23-.15.23H144a1,1,0,0,0-1.05,1c0,.3,0,3.8,0,4.12s-.05,4.7-.15,5.7a6.61,6.61,0,0,1-2.1,4.8,6.75,6.75,0,0,1-4.55,1.55,10.26,10.26,0,0,1-3.6-.6,5.09,5.09,0,0,1-2.95-3.35c-.35-1.1-.45-2.75-.45-6V294Z"/><path class="cls-1" d="M169.4,300.46c0-.75,0-6.95-.05-7h-.1c-.2.35-3.35,7.65-3.65,8.3-.38.8-2.92,6.7-3,7s-.3.55-.55.55-.3-.15-.4-.45c-.1-.15-3.35-7.95-3.5-8.35-.45-1.15-2.75-6.75-3-7.05-.1.35-.12,6.65-.12,6.95s0,4.55.12,6.17c.1,1.15.4,2.1,1.2,2.1h1.1a.18.18,0,0,1,.2.17v.62c0,.1-.05.2-.25.2s-1-.08-2.85-.08c-2.15,0-3,.08-3.25.08s-.2-.05-.2-.23v-.62c0-.05,0-.15.15-.15h1.15c.85,0,1.12-.9,1.25-1.77.23-1.75.38-7.9.38-8.35v-4.27c0-.9-.12-1.45-1.22-1.45h-1.1a.18.18,0,0,1-.2-.18v-.67c0-.05.05-.15.2-.15s.9.08,3.55.08c1.2,0,1.9-.08,2.2-.08a.56.56,0,0,1,.6.42c.9,2.35,4.4,10.65,5.15,12.7.23-.45,2-4.57,2.65-6.05.45-1.05,2.7-6.2,2.82-6.7.08-.25.38-.3,1-.3,3.65,0,4.5-.08,4.8-.08.1,0,.15.1.15.22v.53c0,.15-.05.25-.2.25h-1.1c-.65,0-.7.45-.73,1s0,5.55,0,6.2v1.75c0,1.5.05,5.15.05,5.57,0,1,.25,1.35.7,1.35h1.35c.15,0,.15.1.15.17v.58c0,.15,0,.25-.2.25s-1.5-.08-3.7-.08c-2.45,0-3.4.08-3.75.08-.15,0-.2-.1-.2-.23v-.57c0-.15.05-.2.2-.2h1.55c.45,0,.65-.15.73-.88,0-.25.07-3.85.07-5.85Z"/><path class="cls-1" d="M193.21,293.64c-.25-.7-.65-.9-1.05-.9h-.7c-.1,0-.15-.08-.15-.18v-.65c0-.12.07-.17.2-.17s1,.08,3.2.08c1.8,0,2.85-.08,3.1-.08s.2.05.2.17v.62c0,.12,0,.2-.22.2h-.47a.6.6,0,0,0-.6.87l3.67,11.55.05,0c.2-.52,3.52-9.72,3.57-10.67a2.44,2.44,0,0,0-.45-1.33,1,1,0,0,0-.85-.45h-.53c-.1,0-.17-.05-.17-.18v-.62a.18.18,0,0,1,.2-.2c.2,0,1.1.08,3.25.08s3-.08,3.27-.08.18.08.18.22v.58c0,.12,0,.2-.18.2h-.88c-.5,0-.67.55-.55,1l3.6,11.55h.1c.75-2.2,3.6-10.45,3.6-11.82,0-.35-.25-.7-.85-.7h-.67c-.15,0-.18-.08-.18-.2v-.6a.18.18,0,0,1,.2-.2c.25,0,1.1.08,2.65.08,1.4,0,2.15-.08,2.35-.08s.15,0,.15.12v.67c0,.12,0,.2-.18.2h-.52a1.24,1.24,0,0,0-1.1.82c-.25.55-5.35,14.55-5.85,15.8-.1.25-.3.65-.65.65s-.52-.25-.62-.55l-4.52-13.15h-.1c-.22.7-4.65,13-4.75,13.22a.73.73,0,0,1-.65.47.5.5,0,0,1-.5-.4Z"/><path class="cls-1" d="M229.93,300.81c-.28,0-.35.1-.35.33v1.08c0,.9,0,3.8.1,5.52,0,.6.3.85.85.85h.9c.2,0,.25.05.25.17v.58c0,.15-.05.25-.25.25-.45,0-1.3-.08-3.35-.08-2.45,0-3.2.08-3.7.08-.2,0-.25-.1-.25-.23v-.57c0-.15.05-.2.25-.2h1.3c.6,0,.7-.6.7-1.17,0-1.2.05-4.05.05-5.65v-3.2c0-.75-.05-3.85-.05-4.22,0-1.25-.15-1.6-.95-1.6h-1.1c-.2,0-.25-.1-.25-.23V292a.23.23,0,0,1,.25-.25c.45,0,1.25.08,3.7.08,2.25,0,3.15-.08,3.6-.08.2,0,.25.1.25.22v.53c0,.15,0,.25-.25.25h-.9c-.9,0-1,.4-1,1.37,0,.35-.12,3.65-.12,4.3v1c0,.25.07.35.3.35h8.25c.4,0,.5-.07.5-.35v-.75c0-.9-.1-4.4-.12-4.67,0-.8-.12-1.25-.67-1.25H236.7c-.18,0-.2-.08-.2-.23V292c0-.12,0-.2.2-.2.45,0,1.55.08,3.55.08s2.9-.08,3.3-.08c.25,0,.3.1.3.22v.53c0,.15,0,.25-.3.25h-.9c-.75,0-.8.4-.8,1.27,0,.35,0,3.75,0,4.55v2.7c0,1.1,0,4.65,0,6.07,0,.9.25,1.25,1,1.25h1c.15,0,.2.08.2.17v.58c0,.15-.05.25-.25.25-.4,0-1.25-.08-3.4-.08-2.35,0-3.15.08-3.85.08-.15,0-.2-.12-.2-.23v-.57c0-.12,0-.2.2-.2h1.35c.6,0,.62-.45.65-1.12,0-1.2.1-5.2.1-5.65v-.7c0-.22-.2-.3-.55-.3h-8.17Z"/><path class="cls-1" d="M257.15,301.41c0,.25.05,6,.05,6.27,0,.8.4.9,1,.9h1.05c.1,0,.2.05.2.17v.62c0,.15-.1.2-.25.2s-1.3-.08-3.65-.08c-2.5,0-3.6.08-3.85.08s-.2-.05-.2-.17v-.67c0-.1.05-.15.2-.15h1c.5,0,1.05-.05,1.15-.72.05-.35.1-5.75.1-7.1V299c0-.6,0-5.1-.08-5.42-.07-.6-.32-.85-1-.85h-1.3c-.15,0-.2-.05-.2-.18v-.65c0-.12.05-.17.15-.17.3,0,1.6.08,4.05.08s3.2-.08,3.55-.08c.15,0,.2.1.2.22v.58a.18.18,0,0,1-.2.2h-1c-.55,0-.95.2-.95.67,0,.25-.05,5.75-.05,6v2Z"/><path class="cls-1" d="M268.4,303.93c.1,0,.15.05.15.2a5.78,5.78,0,0,0,.95,2.85,3.88,3.88,0,0,0,3.3,1.8,3.06,3.06,0,0,0,3.25-2.92c0-2.3-1.05-3.05-3.7-4.05a11.85,11.85,0,0,1-3.65-2.1,4.75,4.75,0,0,1-1.25-3.57,4.24,4.24,0,0,1,1.75-3.5,5.1,5.1,0,0,1,3.55-1.2,7.87,7.87,0,0,1,3.15.6.43.43,0,0,0,.53-.08l.32-.33a.45.45,0,0,1,.35-.15c.15,0,.2.15.2.4s.4,3.9.4,4.15a.16.16,0,0,1-.15.17l-.4.12c-.1,0-.2,0-.25-.15a7.18,7.18,0,0,0-1.55-2.65,3.28,3.28,0,0,0-2.6-1A2.67,2.67,0,0,0,270,295a3,3,0,0,0,.7,2.25,8.37,8.37,0,0,0,3.05,1.55,7.87,7.87,0,0,1,3.6,1.95,4.8,4.8,0,0,1,1.25,3.57,5.21,5.21,0,0,1-5.3,5.55,6.53,6.53,0,0,1-4.25-1.2c-.3-.2-.45-.3-.6-.3s-.25.2-.4.45-.25.3-.45.3-.3-.15-.3-.4.4-4.35.45-4.65c0-.15.05-.2.15-.2Z"/><path class="cls-1" d="M291.45,302.76c0,1.25.05,4.9.07,5.27a.57.57,0,0,0,.58.55h.95c.1,0,.2.05.2.12v.67c0,.1-.05.2-.15.2-.3,0-1.05-.08-3.2-.08s-2.95.08-3.2.08c-.1,0-.15-.05-.15-.17v-.67a.13.13,0,0,1,.15-.15h.9c.45,0,.65-.2.67-.47s.08-4.75.08-7.85v-1.45c0-.45-.05-5.25-.05-5.47s-.15-.6-.75-.6h-.75c-.15,0-.2-.05-.2-.18v-.67c0-.1,0-.15.2-.15s1.05.08,3.2.08c1.95,0,2.75-.08,3.1-.08.15,0,.2.05.2.17v.62c0,.15-.05.2-.2.2h-.8c-.5,0-.75.15-.75.72,0,.4-.1,4.3-.1,5.5v1.1h.45a1.25,1.25,0,0,0,.85-.35c.47-.4,4.82-5.82,5.1-6.2s0-.8-.4-.8h-.38c-.1,0-.12-.05-.12-.17v-.6c0-.15.05-.2.15-.2.3,0,1.3.08,2.95.08,1,0,1.85-.08,2.15-.08s.2,0,.2.17v.62a.18.18,0,0,1-.2.2h-.5a2.71,2.71,0,0,0-1.4.42c-1.18.77-4.7,4.85-5.65,6.1,1,1.25,6.1,7.85,6.85,8.72a1.84,1.84,0,0,0,1.5.6h.55a.18.18,0,0,1,.2.17v.62c0,.15-.05.2-.2.2s-1.15-.08-3.45-.08c-2.1,0-3.05.08-3.4.08-.1,0-.15-.05-.15-.2v-.62a.13.13,0,0,1,.15-.15h.35a.44.44,0,0,0,.4-.65c-.25-.5-4.3-6.3-4.7-6.7a1.17,1.17,0,0,0-.85-.35h-.45v1.88Z"/><path class="cls-1" d="M315.23,302.26c0,1.35.08,3.8.08,4.25,0,1.3.45,1.8,1,1.95a7.92,7.92,0,0,0,1.95.2c.45,0,1.6-.05,2.1-.1a4.27,4.27,0,0,0,2.05-.85c.45-.4,1.85-2,2.32-2.65.1-.12.18-.15.28-.1l.4.25c.07.05.1.12,0,.25l-1.2,3.75a.53.53,0,0,1-.55.38c-.25,0-2.2-.08-10.55-.08-1.85,0-2.75.08-3.2.08-.15,0-.2,0-.2-.2v-.6c0-.15.05-.2.25-.2h.85c1.15,0,1.25-.15,1.25-1.08v-8.4c0-2.05-.05-5.15-.1-5.5-.1-.67-.35-.87-1.1-.87h-1c-.1,0-.15-.05-.15-.18v-.65c0-.12,0-.17.15-.17.55,0,1.45.1,3.5.08h.7l7.95-.05,1,0a.17.17,0,0,1,.2.15c.1.33,1.05,3.72,1.15,4s0,.22-.08.27l-.45.2c-.08,0-.15,0-.22-.12a23.54,23.54,0,0,0-2.75-2.8,4.38,4.38,0,0,0-1.9-.65l-3.8-.1-.05,7.22c.75,0,2.55-.05,2.85-.12a1.4,1.4,0,0,0,1.15-.9,4,4,0,0,0,.4-1.4.18.18,0,0,1,.2-.2l.65.05c.1,0,.17.05.15.2-.05.4-.05,2.05-.05,2.7,0,1,.1,2.2.15,2.75,0,.12,0,.15-.2.18l-.55.1c-.1,0-.15,0-.2-.17a11.57,11.57,0,0,0-.4-1.25,1.52,1.52,0,0,0-1.25-.9c-.9-.1-2.1-.15-2.9-.15Z"/><path class="cls-1" d="M341.53,304.86c0,.95.05,2.6.07,2.87.08.8.48.85,1,.85h.83a.16.16,0,0,1,.17.17v.58c0,.17-.05.25-.17.25-.28,0-1.28-.08-3.53-.08-2.45,0-3.25.08-3.47.08s-.17-.1-.17-.23v-.57c0-.1,0-.2.17-.2h1c.65,0,.85-.25.88-.62s.08-2.3.08-4.65v-1.2c-.4-.75-4.45-7.95-5.15-8.82a1.79,1.79,0,0,0-1.25-.55h-.45c-.15,0-.2-.05-.2-.18v-.67c0-.1.05-.15.2-.15s1.4.08,3.3.08c2.55,0,3.45-.08,3.7-.08s.2.05.2.17v.58c0,.15-.05.25-.2.25h-.65c-.55,0-.75.2-.7.72s3.05,6,3.72,7.4c.85-1.4,4.07-6.6,4.12-7.22.05-.45-.1-.9-.85-.9h-.65a.18.18,0,0,1-.2-.2v-.62c0-.12.05-.17.15-.17s1.3.08,3,.08,2.15-.08,2.4-.08.2.05.2.17v.58c0,.15-.05.25-.2.25h-.55a2,2,0,0,0-1.35.57c-.4.45-4.55,6.85-5.5,8.5v3Z"/></g></g></svg>