<?xml version="1.0" encoding="UTF-8"?> <svg xmlns="http://www.w3.org/2000/svg" width="100" height="80" viewBox="0 0 100 80" fill="none"><path d="M66.7136 30.182C66.8608 30.2311 66.9099 30.6729 66.8608 30.9183C66.7626 31.4582 66.4681 31.8018 66.2718 32.1454C64.6029 33.9615 62.6395 35.4831 59.8417 36.0231C60.4798 35.974 61.1179 35.8758 61.756 35.7286C63.3758 35.3359 64.9465 34.7959 66.2227 33.8633C66.3209 33.8143 66.419 33.667 66.5663 33.667C66.6645 33.7161 66.6154 33.8633 66.6154 33.9124C66.5663 34.5014 66.2718 34.845 65.9282 35.1886C65.83 35.2868 65.6828 35.385 65.5355 35.4831C65.2901 35.6795 64.9956 35.8758 64.7011 36.0721C62.934 37.152 60.7252 37.741 58.2219 37.8392C60.7743 38.1337 63.5721 37.5447 65.3392 36.4648C65.3883 37.4465 64.7502 37.8392 64.1612 38.2319C62.6395 39.2626 60.4307 39.8026 58.1238 39.6062C57.7311 39.5571 57.3875 39.5571 56.9948 39.459C58.9091 40.2934 61.8542 40.5388 63.9157 39.6553C63.9157 40.0971 63.6703 40.4407 63.4249 40.6861C62.4432 41.3242 61.167 41.6187 59.6945 41.5205C58.271 41.4224 57.093 40.9806 56.1113 40.4897C56.8967 41.0788 57.9274 41.6187 59.0073 41.9623C60.1362 42.3059 61.4124 42.404 62.6886 42.2077C62.5905 42.6495 62.2469 42.9931 61.8051 43.1403C60.6762 43.533 59.2527 43.3857 58.1729 43.0421C57.0439 42.6986 56.1113 42.0605 55.326 41.4714C56.6022 42.944 58.271 44.1711 60.578 44.4656C60.4798 44.8092 60.2344 45.0546 59.9399 45.1528C59.7926 45.2019 59.5963 45.3 59.4 45.3C58.7128 45.3 58.0256 45.1037 57.4857 44.8583C56.9457 44.6128 56.4058 44.2693 56.0131 43.9257C55.375 43.3857 54.786 42.7967 54.2461 42.0605C54.1479 41.9623 54.0988 41.8641 54.0007 41.7169C53.9516 41.6187 53.8043 41.3733 53.7062 41.4224C53.5589 41.4714 53.7062 41.8641 53.7062 41.9132C53.7552 42.1095 53.9025 42.3059 54.0007 42.5022C54.6879 43.8766 55.6695 45.0546 56.7985 45.889C57.4857 46.3799 58.2219 46.7726 59.2036 46.9198C60.1853 47.0671 61.2652 46.7726 61.9033 46.2817C62.0014 46.1836 62.2469 45.889 62.5414 45.9872C62.6395 46.0363 62.6886 46.1836 62.6886 46.2817C62.6886 46.5271 62.4923 46.7726 62.3941 46.8707C62.2469 47.018 62.0505 47.1162 61.8542 47.2634C61.3143 47.5579 60.578 47.8033 59.7436 47.8033C58.6637 47.7543 57.8293 47.3616 57.0439 46.8707C55.8659 46.1345 55.0314 45.1528 54.2952 44.0238C54.0988 43.7784 53.9516 43.4348 53.7552 43.1403C53.6571 42.944 53.6571 42.7967 53.4117 42.7967C53.3135 43.0421 53.4117 43.3366 53.5098 43.533C54.0007 45.2509 54.7369 46.6253 55.7677 47.7543C56.6512 48.7359 57.682 49.5213 59.3018 49.6195C59.6454 49.6195 59.989 49.5704 60.3817 49.4722C60.6271 49.4231 61.1179 49.325 61.0688 49.7176C61.0688 50.0121 60.5289 50.1594 60.1362 50.2085C58.4674 50.5521 57.1421 49.8158 56.1604 48.9814C55.4241 48.3433 54.8351 47.5579 54.2952 46.7235C54.1479 46.5271 54.0007 46.3308 53.9025 46.0854C53.4607 45.2019 53.019 44.1711 52.7736 42.9931C52.6263 42.404 52.5772 41.815 52.43 41.226C52.3809 40.9315 52.2827 40.5879 52.2827 40.2934C52.2827 40.0971 52.3809 39.9007 52.3809 39.7044C52.4791 39.2626 52.5772 38.8209 52.5772 38.33C52.7736 38.33 53.019 38.33 53.2153 38.2809C53.8534 38.1337 54.4915 37.5447 54.6879 37.0048C54.786 36.7593 54.8351 36.563 54.8351 36.3176C54.9333 35.2868 54.3933 34.5014 53.9516 34.0106C53.8534 33.9124 53.6571 33.667 53.7062 33.3725C53.7552 33.1762 54.1479 33.078 54.3933 33.0289C56.2586 32.4399 57.9765 31.7527 59.4981 30.8692C61.3143 29.8384 62.7377 28.5131 63.8176 26.7461C64.2593 27.5314 63.6703 28.415 63.3267 28.9058C62.7868 29.7402 62.0996 30.4765 61.4124 31.1146C60.3817 31.9981 59.2036 32.5871 57.9765 33.078C58.4183 33.0289 58.86 32.9307 59.3018 32.7835C61.2652 32.1454 62.7868 30.8201 64.2102 29.4457C64.5048 29.1512 64.7502 28.9058 65.0447 28.6113C65.2901 28.3168 65.5355 28.0223 65.83 27.7769C65.9773 27.9241 65.9773 28.415 65.9282 28.7095C65.7319 29.3967 65.1919 29.9366 64.8483 30.4274C64.7011 30.6729 64.4557 30.8692 64.2102 31.0655C63.5231 31.7036 62.885 32.2926 62.1487 32.8817C61.167 33.6179 59.989 34.2069 58.7619 34.5014C60.5289 34.3542 62.0014 33.667 63.2286 32.8817C64.0139 32.3908 64.7502 31.8509 65.4374 31.2619C65.5846 31.1637 65.7319 31.0655 65.8791 30.9183C66.0755 30.7219 66.2718 30.5256 66.4681 30.3293C66.5663 30.3293 66.6645 30.2802 66.7136 30.182C66.6645 30.2311 66.6645 30.1329 66.7136 30.182ZM66.2227 31.2619C64.7993 32.5381 63.3267 33.667 61.6088 34.4524C60.8725 34.7469 60.1362 35.0414 59.3018 35.1886C58.6146 35.2868 57.7311 35.1886 57.1912 35.5813C59.0073 35.8758 60.8234 35.385 62.1978 34.6487C63.6212 33.9124 64.8974 32.9307 65.9773 31.8509C66.0755 31.6545 66.2227 31.4582 66.2227 31.2619ZM65.5846 34.796C65.5355 34.7469 65.5846 34.7469 65.5846 34.796C65.3392 34.9432 65.1428 35.0905 64.8974 35.1886C64.652 35.2868 64.4066 35.434 64.1612 35.5322C63.1795 35.9249 62.0996 36.3176 61.0688 36.563C60.4798 36.6612 59.8908 36.8084 59.3018 36.8084C59.1055 36.8084 58.9091 36.7593 58.7128 36.7593C58.3692 36.7593 58.0256 36.8575 57.7802 36.9557C57.682 37.0048 57.5838 37.0048 57.5838 37.1029C59.4 37.1029 61.5106 36.9557 63.0322 36.3667C63.9648 35.974 64.9465 35.5322 65.5846 34.796ZM65.241 29.1512C65.1919 29.2494 65.0447 29.3476 64.9465 29.4948C64.652 29.7893 64.3084 30.0838 64.0139 30.3293C63.5721 30.7219 63.1795 31.1146 62.7377 31.4091C61.7069 32.1945 60.6271 33.0289 59.3509 33.4707C58.9582 33.6179 58.6146 33.8143 58.2219 33.9124C57.9274 34.0106 57.6329 34.0597 57.3875 34.2069C57.3384 34.256 57.2402 34.256 57.1912 34.3542C57.9765 34.3051 58.6637 34.1088 59.3509 33.9615C59.6945 33.8633 60.0381 33.667 60.3817 33.5198C61.7069 32.9307 62.7377 31.9981 63.7685 31.0164C64.2593 30.5256 64.9956 29.8875 65.241 29.1512ZM64.3575 37.3974C63.3758 37.8392 62.2469 38.1828 60.9216 38.33C59.9399 38.4282 58.86 38.4282 57.9274 38.33C57.2402 38.2809 56.6512 38.1337 56.1604 38.4773C56.7494 38.5264 57.4366 38.6736 58.1238 38.7718C58.811 38.8209 59.5472 38.87 60.2344 38.8209C61.6579 38.7227 62.934 38.3791 63.9648 37.8392C64.063 37.6428 64.2593 37.5938 64.3575 37.3974ZM63.2776 28.3168C63.2776 28.3168 63.3267 28.2677 63.2776 28.3168C62.4923 29.2985 61.6579 30.1329 60.578 30.8201C59.6945 31.4091 58.7128 31.949 57.682 32.4399C57.5348 32.489 57.3875 32.5381 57.2403 32.6362C57.093 32.7344 56.8967 32.8817 56.7985 33.0289C56.7494 33.078 56.7003 33.1271 56.7003 33.1762C59.1545 32.3417 61.2652 31.1637 62.7377 29.2494C62.934 28.9058 63.1795 28.6604 63.2776 28.3168ZM61.6579 40.8824C62.2469 40.7843 62.8359 40.6861 63.1304 40.2934C61.167 40.9806 58.7128 40.637 56.9457 39.9498C56.5531 39.8026 56.0622 39.5081 55.5714 39.6553C56.504 40.0971 57.5348 40.5879 58.811 40.8333C59.6454 40.9806 60.7743 41.0297 61.6579 40.8824ZM61.8051 42.6495C60.1853 42.7967 58.86 42.5022 57.5838 41.9623C56.9948 41.7169 56.4549 41.3733 55.915 41.0297C55.6205 40.8333 55.326 40.5388 54.8842 40.5388C55.2278 40.8333 55.6205 41.1278 56.0622 41.4224C57.093 42.0605 58.1729 42.6986 59.5963 42.8458C60.3817 42.944 61.3143 43.0421 61.8051 42.6495ZM57.682 44.4165C58.2219 44.711 59.1545 45.0055 59.7436 44.711C58.7128 44.5147 57.8293 44.1711 57.0439 43.6312C56.4549 43.2385 55.9641 42.7476 55.4241 42.2568C55.0805 41.9132 54.786 41.3733 54.2952 41.226C55.1296 42.4531 56.2586 43.6802 57.682 44.4165Z" fill="black"></path><path d="M57.7306 53.9372C57.976 54.7225 57.9269 55.5079 57.6324 56.2442C57.4851 56.5877 57.2397 56.8823 56.9452 57.1277C56.2089 57.913 55.1291 58.453 54.0492 58.8456C53.313 59.1401 52.4294 59.2874 51.595 59.3856C50.7115 59.4837 49.7789 59.4347 48.8954 59.3856C47.1774 59.3365 45.5085 58.8456 44.1832 58.1094C43.5451 57.7658 42.9561 57.324 42.4653 56.735C41.9744 56.1951 41.4345 55.557 41.4345 54.6244C41.3854 53.8881 41.6308 53.2009 41.9254 52.661C42.2199 52.072 42.5635 51.6302 43.0052 51.2866C43.3979 50.8939 43.9378 50.6485 44.4777 50.3049C44.8213 50.0595 45.1649 49.8141 45.5085 49.4705C45.6067 49.3723 45.7539 49.2251 45.7539 49.1269C45.803 48.9306 45.6558 48.6851 45.7049 48.4888C45.7049 48.4397 45.7049 48.4397 45.7539 48.3416C45.9012 47.3599 46.2448 46.6236 46.7356 46.0346C46.932 45.7892 47.1283 45.6419 47.2265 45.3474C47.521 44.7584 47.6192 44.0221 47.7173 43.2368C47.8155 42.4514 47.8155 41.617 47.9627 40.8316C47.9627 41.617 48.0609 42.2551 48.2573 42.8932C48.4536 43.5804 48.699 44.4148 48.3554 45.0529C48.3063 45.1511 48.2082 45.2001 48.11 45.3474C47.9627 45.5437 47.8646 45.7892 47.7173 45.9855C47.5701 46.1818 47.4719 46.3782 47.3246 46.6236C46.8338 47.3599 46.1957 48.4888 46.4411 49.8141C46.4902 50.1086 46.5884 50.354 46.7356 50.5504C46.8829 50.7467 47.0301 50.943 47.1774 51.1394C46.5393 50.8939 46.1466 50.354 45.9012 49.7159C45.6558 50.2559 45.214 50.5994 44.7723 50.943C44.7232 50.943 44.7232 50.943 44.7232 50.9921C44.5759 51.0903 44.4287 51.1885 44.2814 51.2866C43.8396 51.6793 43.447 52.1211 43.1525 52.7101C42.858 53.2991 42.6125 54.2808 42.858 55.1152C43.0052 55.5079 43.2015 55.8515 43.3979 56.146C44.036 57.0295 45.0668 57.6185 46.1957 57.9621C46.0485 57.5694 45.7539 57.324 45.5085 57.0786C45.214 56.735 45.0177 56.2932 45.0177 55.557C45.0668 54.7225 45.5576 54.0354 45.9994 53.5445C46.2448 53.2991 46.4902 53.1027 46.7847 52.8573C47.0792 52.6119 47.3246 52.3665 47.4719 52.072C47.6682 51.6302 47.4719 51.2866 47.3737 50.8449C47.1283 49.6668 47.6192 48.3906 48.0118 47.458C48.1591 47.0654 48.3554 46.7218 48.5518 46.3291C48.6499 46.1328 48.7481 45.9855 48.8463 45.8382C48.9935 45.5928 49.1408 45.3965 49.1899 45.0529C49.2389 44.6111 49.1408 44.2185 48.9935 43.8749C48.8463 43.4822 48.6499 43.0404 48.5027 42.5987C48.2082 41.6661 47.9627 40.439 48.4536 39.4573C48.3063 39.0646 48.1591 38.4756 48.2082 37.9356C48.2082 37.7884 48.2082 37.6411 48.3063 37.543C48.4536 39.0646 49.4353 39.8499 50.0243 40.9789C50.2206 41.3716 50.5151 42.0587 50.3188 42.5987C49.9261 41.4206 49.0917 40.7335 48.6008 39.7027C48.4536 41.2734 49.2389 42.3042 49.5825 43.5313C49.7298 44.0712 49.828 44.6602 49.6807 45.2001C49.5825 45.4456 49.4844 45.6419 49.3371 45.8382C48.9935 46.4273 48.699 47.1144 48.5027 47.8016C48.2573 48.4888 48.0118 49.2742 48.11 50.2559C48.1591 50.7958 48.3554 51.3357 48.1591 51.8756C48.0118 52.3665 47.6192 52.7592 47.3246 53.2009C46.8829 53.8881 46.343 54.968 46.4902 56.2442C46.5393 56.735 46.6865 57.1768 46.932 57.5204C47.2265 57.9621 47.7173 58.2075 48.3063 58.453C48.9444 58.6984 49.9752 58.7966 50.4661 58.4039C50.5642 58.3548 50.6624 58.2566 50.7115 58.1585C50.7606 58.0112 50.7606 57.8149 50.7606 57.7167C50.7115 57.2749 50.417 56.9804 50.2206 56.6859C49.7298 56.2932 49.288 55.8024 48.9444 55.1643C48.6008 54.5753 48.2573 53.839 48.3063 52.9555C48.3063 52.4156 48.5518 52.0229 48.6499 51.5811C48.7972 51.4339 48.8953 51.1885 48.9935 50.9921C49.0917 50.7958 49.1899 50.5994 49.288 50.354C49.4353 49.9123 49.5825 49.3232 49.5825 48.7833C49.5825 48.4397 49.4353 48.1452 49.3862 47.8507C49.6807 48.0961 49.7789 48.5379 49.828 48.9797C49.9261 49.9613 49.5825 50.7958 49.2389 51.4339C49.1408 51.5811 49.0917 51.7775 48.9935 51.9738C48.9444 52.2192 48.8463 52.5628 48.9444 52.8082C49.1408 53.5936 49.7298 54.1826 50.2206 54.7225C50.7115 55.3116 51.3496 55.8024 51.4968 56.5878C51.5459 56.7841 51.595 57.0295 51.5459 57.2749C51.4968 57.7658 51.2514 58.1585 51.006 58.453C51.5459 58.3057 52.1349 58.0603 52.5767 57.7167C53.0675 57.324 53.5584 56.6859 53.5584 55.8515C53.5584 55.4588 53.4602 55.1643 53.313 54.8698C53.0675 54.2808 52.773 53.7899 52.4294 53.3482C51.9877 52.4647 51.4968 51.0412 52.0368 49.9123C52.0368 50.2068 52.0368 50.4522 52.0858 50.6485C52.184 51.3357 52.4785 51.8756 52.8221 52.3174C53.313 52.9064 53.9511 53.3482 54.2946 54.0354C54.3928 54.1826 54.3928 54.3789 54.5401 54.5753C54.7855 55.7042 54.3437 56.5387 53.8038 57.1768C53.4111 57.6676 52.9203 58.0112 52.4294 58.2566C53.2639 58.1585 53.9511 57.8639 54.5892 57.3731C55.1782 56.8823 55.8653 56.2442 55.8163 55.0661C55.7672 54.1826 55.3745 53.5445 54.9818 53.1027C54.7855 52.8573 54.5401 52.6119 54.2946 52.4156C53.8529 52.072 53.5584 51.7775 53.5093 50.9921C53.6075 51.0903 53.6075 51.1885 53.7056 51.3357C53.7547 51.4339 54.1965 51.8756 54.6873 52.1211C54.9327 52.2192 55.1782 52.4156 55.4236 52.6119C56.1599 53.2009 57.0434 54.3789 56.7489 55.7533C56.8961 55.5079 57.0434 54.8698 56.9452 54.3299C56.7979 53.2991 56.258 52.5137 55.669 51.8756C55.4236 51.6302 55.1291 51.4339 54.8346 51.2375C54.3928 50.894 54.0001 50.5013 53.8529 49.8632C53.6075 50.4522 53.1166 50.7958 52.4785 50.943C52.4785 50.894 52.5276 50.8449 52.5767 50.8449C52.6749 50.7467 52.8712 50.5994 52.9203 50.5013C53.1657 50.1577 53.313 49.5687 53.2639 49.0287C53.2148 48.1943 52.773 47.6053 52.3803 46.9672C52.0368 46.4273 51.595 45.7401 51.4477 44.9547C51.3987 44.7093 51.3987 44.4639 51.4477 44.2185C51.4968 44.0712 51.5459 43.973 51.595 43.8749C51.7423 43.4331 51.8404 42.9423 51.9877 42.4514C52.0858 41.9606 52.1349 41.4206 52.0858 40.7825C52.0858 40.6844 52.0858 40.7825 52.1349 40.7825C52.3803 41.5679 52.3313 42.5005 52.3313 43.3349C52.3313 43.6294 52.2822 43.973 52.2822 44.2185C52.3313 44.6111 52.4785 45.0529 52.6749 45.3965C53.0184 46.0837 53.5093 46.6236 53.8038 47.4089C54.0001 47.8998 54.1474 48.4397 54.0983 48.9797C54.0983 49.0778 54.0492 49.2251 54.0492 49.3232C54.0983 49.6178 54.4419 50.0104 54.6382 50.1577C54.9327 50.4031 55.1782 50.5504 55.4236 50.7467C56.4544 51.483 57.2888 52.3665 57.7306 53.9372Z" fill="black"></path><path d="M53.0171 27.5307C52.968 27.5798 52.8208 27.5307 52.6735 27.5798C52.379 27.5798 52.1827 27.6779 52.0354 27.7761C51.7409 27.9724 51.5446 28.4633 51.1519 28.6596C51.3483 28.7578 51.5937 28.856 51.8882 28.8069C52.0354 28.7578 52.1827 28.6105 52.3299 28.6596C52.2809 28.856 52.1336 29.0032 51.9864 29.1505C51.6918 29.3959 51.2501 29.445 50.9065 29.6413C50.9065 29.8867 50.8574 30.034 50.7592 30.2303C50.612 30.7703 50.2684 31.1629 49.7285 31.2611C49.7285 31.1629 49.8266 31.1138 49.8757 31.0157C50.023 30.8193 50.1211 30.5248 50.1211 30.1322C49.9248 30.2794 49.6794 30.5248 49.483 30.7703C49.2376 31.1629 48.9431 31.8501 49.1395 32.5373C49.1885 32.6355 49.2376 32.6846 49.1885 32.7827C48.9431 32.4391 48.5995 31.9974 48.6486 31.4084C48.6977 30.8193 48.9922 30.3776 49.2867 30.0831C49.2867 30.0831 49.2867 30.0831 49.3358 30.0831C48.6977 30.4757 47.9123 31.212 47.9123 32.341C47.9123 32.6846 48.0596 33.0772 48.2068 33.3717C48.6486 34.2553 49.434 34.8443 49.9739 35.5315C50.5138 36.2677 51.1519 37.1022 51.2501 38.3293C51.2501 38.5747 51.2501 38.8201 51.201 39.0164C51.0047 37.5439 50.1211 36.7095 49.2376 35.875C48.9922 35.6787 48.7468 35.4824 48.5504 35.286C48.1578 34.8934 47.8142 34.3534 47.5687 33.7153C47.3233 33.0281 47.2252 32.0465 47.5197 31.3593C47.7651 30.7703 48.1578 30.2303 48.5504 29.8377C47.6178 30.3776 46.7343 31.1138 46.6852 32.5373C46.4398 32.2919 46.2926 31.8501 46.3416 31.4574C46.3907 30.8684 46.7343 30.4758 46.9797 30.1322C46.2435 30.623 45.3599 31.3593 45.4581 32.6355C45.5072 33.0281 45.6545 33.3226 45.8017 33.6662C45.3109 33.4699 45.0164 32.7827 45.0164 32.0955C45.0654 31.3593 45.409 30.8193 45.7526 30.4267C45.4581 30.623 45.1636 30.9175 44.8691 31.1629C44.7709 31.3593 44.6237 31.5065 44.5255 31.7519C44.3783 32.0955 44.2801 32.4882 44.3292 32.8809C44.3783 33.2736 44.5255 33.6662 44.6728 33.9607C44.6237 34.0098 44.5255 33.9117 44.5255 33.8626C44.1328 33.3717 43.8874 32.4391 44.0837 31.6047C44.231 30.9666 44.6728 30.4267 45.1145 30.0831C45.6054 29.6904 46.1944 29.3959 46.7343 29.1996C46.0471 29.3468 45.3599 29.0032 45.1636 28.4633C45.409 28.6596 45.7035 28.8069 46.1453 28.8069C46.7834 28.8069 47.3233 28.5124 47.8633 28.2669C48.4032 28.0215 48.894 27.6779 49.5812 27.727C49.3358 27.5798 48.9922 27.4816 48.5995 27.5307C48.5014 27.5307 48.4523 27.5798 48.3541 27.5307C48.4032 27.4325 48.5014 27.4816 48.5995 27.4325C49.0904 27.3343 49.6794 27.3343 50.1702 27.5307C50.2684 27.5798 50.3175 27.6289 50.4156 27.6289C50.5138 27.6289 50.7102 27.5798 50.8574 27.5798C51.0537 27.5307 51.201 27.4325 51.3973 27.3834C51.9373 27.1871 52.5754 27.2362 53.0171 27.5307ZM51.5446 27.727C51.5446 27.6779 51.5446 27.6779 51.5446 27.727C51.2501 27.7761 51.0047 27.8743 50.7592 27.9724C50.7592 28.1688 50.8083 28.2669 50.7592 28.4142C51.1028 28.2669 51.2992 27.9724 51.5446 27.727ZM50.1702 28.2669C50.1702 28.2669 50.1702 28.316 50.1702 28.2669C50.1702 28.316 50.1702 28.316 50.1702 28.2669C49.6303 28.316 49.0413 28.4633 48.6486 28.7087C48.9922 28.8069 49.434 28.8069 49.7775 28.7087C49.8757 28.5615 50.0721 28.4142 50.1702 28.2669C50.1702 28.316 50.1702 28.2669 50.1702 28.2669Z" fill="black"></path><path d="M52.0868 37.153C52.1849 38.0366 51.9886 39.0673 51.5959 39.8527C51.8904 38.6256 51.645 37.3494 51.2523 36.4168C50.8106 35.4842 50.1725 34.7479 49.4853 34.1589C49.4853 34.1589 49.4853 34.1589 49.4362 34.1589C49.4362 34.1098 49.2399 33.9135 49.0926 33.7662C48.749 33.4226 48.3563 32.9318 48.3073 32.3918C48.2582 32.1464 48.3073 31.6556 48.5036 31.5083C48.4545 32.7354 49.4362 33.2263 50.0252 33.7662C49.8289 33.4226 49.4853 32.8827 49.5344 32.2446C49.5835 31.901 49.7307 31.6556 49.927 31.4102C49.927 31.5574 49.8289 31.8028 49.878 32.0483C50.0252 32.8827 50.6142 33.3735 51.0069 33.9625C51.4487 34.8461 51.9395 35.9259 52.0868 37.153Z" fill="black"></path><path d="M51.5462 54.3317C51.4971 54.2826 51.2026 54.1353 51.1044 54.0862C50.6627 53.7917 50.3191 53.35 50.1227 52.7609C49.8282 51.7302 50.1227 50.5031 50.4663 49.6195C50.5154 49.1778 50.5154 48.5888 50.3682 48.1961C50.27 47.9507 50.1227 47.7052 50.0737 47.3617C49.9755 46.8708 49.9755 46.2818 50.1718 45.791C50.2209 45.6437 50.3191 45.4964 50.4172 45.3983C50.5154 45.251 50.5645 45.1038 50.7118 45.0547C50.27 45.84 50.5154 47.0671 50.859 47.7052C50.9081 47.8034 50.9572 47.8525 51.0063 47.9016C51.3989 48.5397 51.4971 49.6195 51.1535 50.4049C50.9081 50.9448 50.7118 51.5829 50.7118 52.3683C50.7608 53.2518 51.5462 54.3317 51.5462 54.3317Z" fill="black"></path><path d="M51.5461 51.1899C51.5461 51.288 51.5461 51.3371 51.5461 51.4353C51.3988 51.4844 51.1534 51.5334 51.0552 51.5334C51.0062 51.4353 51.1043 51.3862 51.1043 51.2389C51.2025 51.288 51.3988 51.1408 51.5461 51.1899Z" fill="black"></path><path d="M51.154 39.8011C51.4485 40.5864 51.6448 41.7154 51.3994 42.6971C51.2031 43.5806 50.8104 44.3659 50.2214 44.7586C50.565 44.1205 50.7122 43.4333 50.7613 42.5498C50.8104 41.2736 50.2704 40.2428 49.7796 39.4575C49.6323 39.163 49.3869 38.9667 49.2397 38.6721C48.7979 37.9359 48.3071 36.9051 48.6016 35.7271C48.6016 35.6289 48.6507 35.7271 48.6507 35.678V35.6289H48.7488C48.9943 36.4633 49.436 37.1505 49.9269 37.7395C50.4177 38.3286 50.8595 39.0157 51.154 39.8011Z" fill="black"></path><path d="M49.8759 51.3851C49.8759 51.5324 49.8268 51.5324 49.8268 51.6796C49.6796 51.6305 49.4341 51.6305 49.2378 51.6305C49.2869 51.5324 49.385 51.4833 49.385 51.3851C49.5814 51.336 49.6796 51.3851 49.8759 51.3851Z" fill="black"></path><path d="M48.5521 51.2864C48.503 51.3355 48.4539 51.3846 48.4539 51.5318C48.4048 51.5318 48.3557 51.5318 48.3066 51.4827C48.3066 51.2864 48.4048 51.1391 48.5521 51.2864Z" fill="black"></path><path d="M48.3558 35.923C48.2576 36.1193 48.2576 36.3647 48.2576 36.6102C48.1594 36.5611 48.0613 36.4138 48.0122 36.3156C47.9631 36.2175 47.8649 36.1193 47.8158 35.9721C47.5704 35.5794 47.1777 34.9904 47.1777 34.3032C47.1777 33.9596 47.325 33.7633 47.4232 33.4688C47.2268 34.4504 47.914 35.2849 48.3558 35.923Z" fill="black"></path><path d="M47.3737 38.6745C47.4228 38.9199 47.521 39.1653 47.521 39.5089C47.4719 39.8525 47.3246 40.2452 47.2756 40.6378C47.1774 41.0305 47.1774 41.4232 47.1283 41.8649C47.0301 42.6994 46.7356 43.3375 46.4902 43.9756C46.1466 44.9573 45.7539 45.939 45.2631 46.8225C45.1158 47.117 44.9686 47.4606 44.8213 47.706C44.6741 47.9514 44.4287 48.1968 44.2814 48.4423C43.9378 48.9822 43.5451 49.3749 43.1034 49.7675C42.858 49.9639 42.6125 50.1602 42.3671 50.2584C42.2199 50.3075 41.9744 50.4056 41.8272 50.4056C41.6308 50.4056 41.3363 50.3566 41.3363 50.1111C41.3363 49.8166 41.729 49.5712 41.8763 49.473C42.0235 49.3749 42.2199 49.3258 42.3671 49.2767C42.8089 49.0313 43.2016 48.7368 43.5451 48.3932C44.6741 47.2642 45.4104 45.5954 45.6558 43.4847C45.7049 43.1411 45.803 42.3558 45.5576 42.3067C45.3122 42.2576 45.1158 42.6503 45.0177 42.7975C44.9195 43.043 44.8213 43.3866 44.7232 43.632C44.036 45.5463 43.0052 47.3133 41.6799 48.4914C40.8946 49.0313 39.9129 49.8166 38.6858 49.8657C38.0477 49.9148 37.4096 49.8166 36.8697 49.5712C36.3788 49.3749 35.8389 49.1294 35.5444 48.6877C35.4953 48.5895 35.3971 48.4423 35.4462 48.295C35.7407 48.1968 35.888 48.4914 36.0843 48.6386C36.2806 48.7859 36.5751 48.8349 36.8206 48.9331C37.3605 49.1294 37.9495 49.1785 38.5385 49.1294C39.6184 49.0313 40.6001 48.4423 41.3854 47.8533C42.858 46.6752 43.8397 44.9573 44.5759 42.9939C44.6741 42.6994 44.8704 42.2576 44.6741 41.914C44.5759 41.9631 44.5268 42.1594 44.4287 42.3067C43.8887 43.2393 43.1525 44.0737 42.3671 44.7609C41.8763 45.1536 41.3854 45.4972 40.7964 45.7426C40.2074 45.988 39.5202 46.2335 38.833 46.2335C37.655 46.2335 36.3788 45.6444 35.7898 44.7609C35.6916 44.6137 35.5444 44.4173 35.6425 44.221C35.937 44.1228 36.0843 44.3683 36.2316 44.5155C36.3788 44.6628 36.5751 44.81 36.7715 44.9082C37.066 45.0554 37.3605 45.1536 37.655 45.2518C37.9495 45.3499 38.2931 45.4481 38.6367 45.4481C39.2257 45.4972 39.8638 45.3499 40.3547 45.1536C41.3854 44.7609 42.1708 44.221 42.907 43.5338C43.1034 43.3866 43.2506 43.1902 43.447 42.9939C43.7415 42.6503 43.9869 42.454 44.1342 41.9631C44.1832 41.8159 44.2323 41.5214 44.036 41.5214C43.8397 41.4723 43.6433 41.8649 43.5451 42.0122C43.1525 42.503 42.7598 42.9448 42.1708 43.2884C41.4836 43.7302 40.4037 44.0737 39.5202 43.7302C39.3239 43.6811 39.1766 43.5829 39.0294 43.4356C39.1275 43.3866 39.2257 43.4356 39.373 43.3866C40.551 43.3375 41.5327 42.6503 42.1708 41.9631C42.318 41.8159 42.4162 41.6686 42.5635 41.4723C42.7598 41.2268 43.0543 40.736 42.6125 40.5397C42.4653 40.6869 42.318 40.8342 42.1708 40.9814C41.7781 41.4232 41.3363 41.7668 40.7473 42.0613C40.0601 42.4049 39.0294 42.6994 37.9986 42.503C37.655 42.454 37.3114 42.2576 37.0169 42.1104C36.9187 42.0613 36.8206 42.0122 36.7715 41.914C37.9495 42.1104 39.0294 41.5214 39.7656 41.0305C40.1583 40.7851 40.551 40.5397 40.8455 40.2942C41.1891 39.9997 41.5327 39.7052 41.8272 39.3616C41.7781 39.3616 41.6799 39.4107 41.6308 39.4107C41.4345 39.5089 41.2382 39.6561 41.0418 39.7543C40.5019 40.0488 39.9129 40.2942 39.3239 40.5397C39.0294 40.6869 38.6858 40.736 38.3913 40.8342C37.7532 41.0305 36.9678 41.1778 36.2316 41.0796C35.7407 41.0305 35.299 40.8342 34.9063 40.5397C34.8081 40.4415 34.6118 40.3924 34.6118 40.2452C35.8389 40.6869 37.2132 40.147 38.2931 39.7052C39.1275 39.3616 39.8638 38.8217 40.551 38.3799C39.962 38.6254 39.373 38.8708 38.7349 39.1162C37.4587 39.6071 35.5444 39.9997 34.2682 39.2144C33.9737 39.018 33.6792 38.7235 33.581 38.3799C33.9246 38.5272 34.3173 38.5763 34.7099 38.5763C35.1026 38.5763 35.4953 38.4781 35.8389 38.429C36.5751 38.2818 37.3114 38.0854 37.9495 37.8891C36.8206 37.9382 35.4953 38.0364 34.4645 37.7418C33.9737 37.5946 33.5319 37.3492 33.1392 37.0547C32.7956 36.7602 32.4521 36.3184 32.3048 35.7785C32.992 36.3184 34.17 36.4657 35.2008 36.4657C36.2316 36.4657 37.3114 36.5147 38.3913 36.4166C36.9187 36.2202 35.348 36.0239 34.0228 35.5821C33.7282 35.484 33.3847 35.2876 33.0901 35.1404C32.7956 34.9931 32.5011 34.7968 32.3048 34.6004C31.814 34.1587 31.4213 33.6188 31.2249 32.9316C31.2249 32.8825 31.3231 32.9807 31.3722 33.0297C32.1575 33.7169 33.2374 33.9623 34.3173 34.2568C35.4462 34.5514 36.5751 34.6986 37.8023 34.8459C35.4953 34.3059 32.992 33.766 31.5194 32.3426C31.3231 32.1953 31.2249 31.9499 31.0777 31.7045C31.0286 31.5572 30.9795 31.459 30.9795 31.3118C30.9795 31.1645 30.9795 31.0173 30.9304 30.87C31.274 31.1645 31.6667 31.41 32.0594 31.6063C33.2865 32.2444 34.7099 32.6861 36.1825 33.0297C35.6425 32.7843 35.0044 32.4898 34.4154 32.1953C34.2191 32.0971 34.0228 31.999 33.8755 31.9008C33.3356 31.5572 32.7956 31.2627 32.3048 30.87C31.7649 30.4773 31.1268 30.0847 30.9304 29.2993C30.8323 29.0539 30.8813 28.4649 31.0777 28.3176C31.4213 29.2993 32.3539 29.6429 33.2374 30.0847C34.3663 30.6737 35.7898 31.1154 37.0169 31.459C36.3297 31.1154 35.5444 30.8209 34.8081 30.3792C34.0718 29.9374 33.3356 29.5938 32.8447 29.0539C32.5993 28.7594 32.3539 28.3667 32.3048 27.925C32.3048 27.6795 32.3539 27.5323 32.3539 27.3359C32.452 27.4341 32.5011 27.5323 32.5993 27.6795C32.8447 27.974 33.2374 28.2685 33.581 28.514C34.7099 29.1521 35.937 29.692 37.2623 30.1338C38.0968 30.4283 38.9803 30.7228 39.8147 31.0664C40.4037 31.3118 41.0418 31.6063 41.5818 31.9499C41.6799 31.999 41.7781 32.048 41.8272 32.1462C42.0726 32.3426 42.2689 32.5389 42.5144 32.8334C42.6616 33.0297 42.7598 33.3242 42.7107 33.5697C42.6616 33.766 42.5144 33.8642 42.4162 34.0114C42.1708 34.4041 41.8763 35.0422 41.9254 35.7785C41.9744 36.2693 42.0726 36.662 42.318 36.9074C42.6616 37.3001 43.1525 37.5946 43.6924 37.84C44.4777 38.1836 45.4594 38.1836 46.4902 38.1345C46.6375 38.1345 47.2756 38.0364 47.3737 38.1836C47.3737 38.3799 47.3737 38.5763 47.3737 38.6745ZM43.7415 40.6869C43.7906 40.5397 43.9378 40.3924 43.8887 40.1961C43.5451 40.2942 43.3488 40.7851 43.2016 41.1287C43.1525 41.2268 43.1034 41.2759 43.0543 41.325C43.0052 41.4232 42.9561 41.5704 42.907 41.6686C42.7598 41.914 42.6125 42.0613 42.4653 42.3067C42.318 42.4049 42.2199 42.5521 42.1217 42.6994C41.8272 42.9448 41.3854 43.2884 40.9927 43.4356C41.3854 43.3375 41.7781 43.1902 42.0726 42.9448C42.3671 42.7485 42.7107 42.454 42.907 42.1595C43.2506 41.7668 43.4961 41.2268 43.7415 40.6869ZM42.858 39.5089C42.6616 39.5089 42.5144 39.558 42.4162 39.6561C41.4345 40.6869 40.3056 41.6195 38.8821 42.1595C39.6184 42.1104 40.1092 41.914 40.6492 41.6686C40.9437 41.5214 41.2382 41.2759 41.5327 41.0796C41.9744 40.5887 42.4653 40.0979 42.858 39.5089ZM41.7781 38.8217C41.2382 38.8217 40.9437 39.018 40.6001 39.2144C39.6184 39.7543 38.6858 40.2942 37.6059 40.6869C39.2748 40.3924 40.551 39.6561 41.7781 38.8217ZM40.9927 37.7418C40.2565 37.6928 39.8147 37.8891 39.2748 38.0854C38.0477 38.5272 36.7224 39.1653 35.2989 39.1162C36.2316 39.4107 37.4587 39.018 38.2931 38.7726C39.2257 38.4781 40.1583 38.1345 40.9927 37.7418ZM39.9129 32.048C39.962 32.048 39.962 32.048 39.9129 32.048C39.4711 31.7045 38.9312 31.3609 38.3422 31.1645C38.1459 31.1154 37.9004 31.0664 37.7041 30.9682C37.5568 30.9191 37.3605 30.8209 37.2132 30.7719C36.1334 30.4283 35.1026 30.0356 34.17 29.4957C33.7773 29.2993 33.3847 29.103 33.0411 28.8085C32.992 28.7594 32.992 28.7103 32.8938 28.7103C32.9429 28.7594 32.992 28.8085 33.0411 28.9066C33.6792 29.4957 34.4645 29.9374 35.348 30.3301C35.9861 30.5755 36.6733 30.87 37.3114 31.0664C37.5568 31.1645 37.7532 31.2136 37.9986 31.3118C38.1458 31.3609 38.3422 31.3609 38.4894 31.459C38.9803 31.6554 39.4711 31.8517 39.9129 32.048ZM40.551 37.1037C40.2074 37.0056 39.7166 36.9565 39.3239 36.9565C38.4894 37.0056 37.6059 37.1528 36.7715 37.1528C35.7898 37.1528 34.6609 37.2019 33.8264 36.9565C33.7773 36.9565 33.8264 37.0056 33.8264 37.0056C34.1209 37.3001 34.5627 37.3983 35.1026 37.4473C36.8697 37.6437 38.8821 37.3983 40.551 37.1037ZM39.373 33.6678C39.373 33.6678 39.422 33.6678 39.373 33.6678C39.373 33.5697 39.2748 33.5206 39.2257 33.4715C38.9803 33.2261 38.6367 32.9807 38.244 32.7843C37.9495 32.6371 37.655 32.4898 37.3114 32.3916C36.6733 32.1462 35.9861 31.9499 35.348 31.7045C34.3663 31.3609 33.4828 30.9191 32.5993 30.4773C32.3048 30.3301 32.1085 30.0847 31.814 29.9374C32.2557 30.6246 32.992 31.0664 33.7773 31.4099C34.3663 31.7045 34.9554 31.9499 35.5935 32.1953C35.888 32.2935 36.2316 32.4407 36.5261 32.5389C37.6059 32.8334 38.5385 33.1279 39.373 33.6678ZM39.962 35.9748C39.3239 35.533 38.2931 35.6312 37.3605 35.484C36.8206 35.3858 36.2806 35.3367 35.7407 35.2385C34.7099 35.0422 33.7282 34.8459 32.7956 34.5023C33.0411 34.6986 33.2374 34.8459 33.5319 34.944C33.7773 35.0422 34.0228 35.1404 34.3663 35.2385C36.0352 35.6803 38.0477 35.8766 39.962 35.9748ZM39.1766 34.6004C38.7349 34.1096 37.9495 34.0114 37.2132 33.8642C36.6733 33.766 36.0843 33.6188 35.5935 33.4715C34.3663 33.1279 33.0901 32.7843 32.1085 32.1462C32.3539 32.4898 32.7466 32.6861 33.1392 32.8825C33.6792 33.1279 34.2191 33.3733 34.8081 33.5206C36.1825 34.0114 37.7041 34.355 39.1766 34.6004Z" fill="black"></path><path d="M45.9518 50.75C46.05 50.9463 46.0009 51.2899 45.9027 51.4863C45.6573 52.0753 45.1174 52.2716 44.7247 52.7134C44.332 53.1551 43.9884 53.6951 44.0375 54.4804C44.0375 54.8731 44.2339 55.2658 44.3811 55.5112C44.4302 55.6094 44.5284 55.6584 44.5284 55.8057C44.4302 55.8548 44.3811 55.7566 44.332 55.7075C44.0375 55.413 43.743 54.9713 43.5958 54.5295C43.3994 53.8914 43.5958 53.1061 43.8412 52.6643C44.0866 52.2716 44.4302 51.8789 44.7738 51.6335C44.872 51.5844 44.9701 51.5354 45.0683 51.4372C45.3628 51.1918 45.7064 51.0445 45.9518 50.75C45.9518 50.7991 45.9518 50.75 45.9518 50.75Z" fill="black"></path><path d="M27.249 46.1869H18.9047V45.9415H27.2V46.1869H27.249ZM78.0515 46.0888H69.7562V46.3342H78.0515V46.0888ZM18.5611 43.7327C18.8065 43.9781 18.9047 44.0272 19.0519 44.0763V44.1745H18.4629L17.9721 43.4873H17.8739V43.7818C17.8739 44.0272 17.923 44.0763 18.1193 44.0763V44.1745H17.334V44.0763C17.5303 44.0763 17.5794 44.0272 17.5794 43.7818V42.9474C17.5794 42.7019 17.5303 42.6529 17.334 42.6529V42.5547H18.2175C18.5611 42.5547 18.7574 42.751 18.7574 42.9964C18.7574 43.2419 18.5611 43.4382 18.2666 43.4382L18.5611 43.7327ZM18.4138 42.9964C18.4138 42.8001 18.3157 42.6529 18.0703 42.6529H17.923V43.291H18.0703C18.3157 43.34 18.4138 43.1928 18.4138 42.9964ZM19.3464 44.0763C19.5428 44.0763 19.5919 44.0272 19.5919 43.7818V42.9474C19.5919 42.7019 19.5428 42.6529 19.3464 42.6529V42.5547H20.7208V42.9474H20.6226V42.8983C20.5736 42.751 20.5736 42.7019 20.3281 42.7019H19.9355V43.291H20.0827C20.3281 43.291 20.3772 43.2419 20.3772 43.0455H20.4754V43.6836H20.3772C20.3772 43.4382 20.3281 43.4382 20.0827 43.4382H19.9355V43.7818C19.9355 44.0272 19.9845 44.0763 20.1809 44.0763H20.4263C20.6717 44.0763 20.7208 44.0272 20.7208 43.88V43.8309H20.819V44.2236H19.3464V44.0763ZM22.6842 43.7327C22.6842 43.9781 22.4879 44.1745 22.1443 44.1745H21.1626V44.0763C21.3589 44.0763 21.408 44.0272 21.408 43.7818V42.9474C21.408 42.7019 21.3589 42.6529 21.1626 42.6529V42.5547H22.0461C22.3406 42.5547 22.5369 42.751 22.5369 42.9474C22.5369 43.0946 22.4879 43.1928 22.3406 43.291C22.5369 43.34 22.6842 43.5364 22.6842 43.7327ZM21.7516 43.2419H21.8988C22.0952 43.2419 22.1933 43.0946 22.1933 42.9474C22.1933 42.8001 22.0952 42.6529 21.8988 42.6529H21.7516V43.2419ZM22.3406 43.7327C22.3406 43.5364 22.2424 43.3891 21.997 43.3891H21.7516V43.7818C21.7516 44.0272 21.8007 44.0763 21.997 44.0763C22.1933 44.0272 22.3406 43.88 22.3406 43.7327ZM23.9113 44.2236C23.4205 44.2236 23.0278 43.8309 23.0278 43.3891C23.0278 42.9474 23.4205 42.5547 23.9113 42.5547C24.4022 42.5547 24.7948 42.9474 24.7948 43.3891C24.7948 43.8309 24.4022 44.2236 23.9113 44.2236ZM23.9113 42.6529C23.5186 42.6529 23.3714 43.0455 23.3714 43.3891C23.3714 43.7327 23.5186 44.1254 23.9113 44.1254C24.304 44.1254 24.4512 43.7327 24.4512 43.3891C24.4512 43.0455 24.304 42.6529 23.9113 42.6529ZM26.3164 43.7327C26.5619 43.9781 26.66 44.0272 26.8073 44.0763V44.1745H26.2183L25.7274 43.4873H25.6783V43.7818C25.6783 44.0272 25.7274 44.0763 25.9238 44.0763V44.1745H25.0893V44.0763C25.2857 44.0763 25.3348 44.0272 25.3348 43.7818V42.9474C25.3348 42.7019 25.2857 42.6529 25.0893 42.6529V42.5547H25.9729C26.3164 42.5547 26.5128 42.751 26.5128 42.9964C26.5128 43.2419 26.3164 43.4382 26.0219 43.4382L26.3164 43.7327ZM26.1692 42.9964C26.1692 42.8001 26.071 42.6529 25.8256 42.6529H25.6783V43.291H25.8256C26.071 43.34 26.1692 43.1928 26.1692 42.9964ZM28.5252 42.9474C28.5252 42.7019 28.4762 42.6529 28.2798 42.6529V42.5547H28.9179V42.6529C28.6725 42.6529 28.6725 42.7019 28.6725 42.9474V44.1745H28.6234L27.5436 42.8492V43.7327C27.5436 43.9781 27.5926 44.0272 27.789 44.0272V44.1254H27.1509V44.0272C27.3472 44.0272 27.3963 43.9781 27.3963 43.7327V42.9474C27.3963 42.7019 27.3472 42.6529 27.1509 42.6529V42.5547H27.6417L28.5252 43.5855V42.9474ZM70.3943 43.88H71.1306L71.0324 44.3708H70.9833C70.9833 44.1745 70.9342 44.1254 70.6397 44.1254H69.9525V44.0763L70.5416 43.6345C70.6888 43.5364 70.7379 43.4382 70.7379 43.2419C70.7379 43.0946 70.6397 42.9474 70.4434 42.9474C70.2471 42.9474 70.0998 43.0946 70.2471 43.3891L70.0998 43.4873C69.7562 43.291 69.9525 42.8001 70.4925 42.8001C70.8852 42.8001 71.1306 42.9964 71.1306 43.1928C71.1306 43.4382 70.9342 43.5364 70.787 43.6345L70.3943 43.88ZM73.6339 43.4873C73.6339 43.88 73.3394 44.1745 72.9467 44.1745C72.554 44.1745 72.2595 43.88 72.2595 43.4873C72.2595 43.0946 72.554 42.8001 72.9467 42.8001C73.3394 42.8001 73.6339 43.1437 73.6339 43.4873ZM72.5049 43.4873C72.5049 43.7327 72.7013 43.9291 72.9467 43.9291C73.1921 43.9291 73.3885 43.7327 73.3885 43.4873C73.3885 43.2419 73.1921 43.0455 72.9467 43.0455C72.7013 43.0455 72.5049 43.2419 72.5049 43.4873ZM74.6647 44.1745V44.0763C74.9101 44.0763 74.9592 44.0272 74.9592 43.7327V43.291C74.9592 42.9964 74.9101 42.9474 74.6647 42.9474V42.8492H75.5973V42.9474C75.3518 42.9474 75.3028 42.9964 75.3028 43.291V43.7327C75.3028 44.0272 75.3518 44.0763 75.5973 44.0763V44.1745H74.6647ZM77.1189 43.88H77.8551L77.757 44.3708H77.7079C77.7079 44.1745 77.6588 44.1254 77.3643 44.1254H76.6771V44.0763L77.2661 43.6345C77.4134 43.5364 77.4625 43.4382 77.4625 43.2419C77.4625 43.0946 77.3643 42.9474 77.168 42.9474C76.9716 42.9474 76.8244 43.0946 76.9716 43.3891L76.8244 43.4873C76.4808 43.291 76.6771 42.8001 77.217 42.8001C77.6097 42.8001 77.8551 42.9964 77.8551 43.1928C77.8551 43.4382 77.6588 43.5364 77.5116 43.6345L77.1189 43.88Z" fill="black"></path><path d="M30.7822 69.0574C31.2731 68.7138 31.4694 68.5666 31.4694 67.045V60.7131C31.4694 59.7805 31.4694 59.0933 30.7822 58.0625C31.813 58.5533 32.8438 58.9951 33.8745 59.4369C33.1874 59.8786 33.1874 60.5658 33.1874 61.4493V63.4618C34.2181 63.9036 35.298 64.2962 36.3288 64.6398V62.6274C36.3288 61.6947 36.3288 61.0076 35.5925 60.075C36.6724 60.4676 37.7522 60.7621 38.8321 61.0567C38.1449 61.5475 38.1449 62.2347 38.1449 63.1673V69.4992C38.1449 71.0699 38.3412 71.3153 38.8812 72.0516C37.8013 71.7571 36.7214 71.4135 35.6907 71.0699C36.2797 70.6772 36.3288 70.4809 36.3288 68.9593V66.3578C35.2489 66.0142 34.2181 65.6215 33.1874 65.1797V67.7812C33.1874 69.3519 33.3346 69.5974 33.8745 70.4318C32.8438 69.99 31.813 69.5483 30.7822 69.0574Z" fill="black"></path><path d="M40.2046 72.3951C40.9899 71.8551 40.9409 71.5115 40.9409 70.039V63.8544C40.9409 63.0199 40.9409 62.2837 40.2046 61.4492C41.2844 61.6946 42.4134 61.9401 43.5423 62.0873C42.8061 62.6763 42.8061 63.4126 42.8061 64.247V70.4317C42.8061 71.9042 42.8061 72.2478 43.5914 73.0822C42.4625 72.8859 41.3335 72.6896 40.2046 72.3951Z" fill="black"></path><path d="M44.6724 73.5744V69.1568C45.2614 70.1385 46.194 71.8565 47.7647 71.9546C48.5991 72.0037 49.3845 71.5129 49.3845 70.4821C49.3845 68.126 44.9669 68.715 44.9669 64.9846C44.9669 63.3648 46.3412 62.2359 48.1574 62.3341C48.8445 62.3831 49.5317 62.6286 50.2189 62.6286C50.4643 62.6286 50.7098 62.4322 50.9552 62.3341V66.359C50.3171 65.3282 49.7281 64.1502 48.2555 64.052C47.5683 64.0029 46.9303 64.4447 46.9303 65.1319C46.9303 67.2425 51.3479 66.4081 51.3479 70.433C51.3479 72.6418 49.9244 73.7217 47.8629 73.5744C46.9302 73.5253 46.5376 73.1326 45.8504 73.0836C45.3105 73.1326 44.9669 73.3781 44.6724 73.5744Z" fill="black"></path><path d="M52.7222 73.5267C53.4094 72.7414 53.4094 72.0051 53.4094 71.0725V64.6915C53.4094 63.6607 53.4094 63.219 52.7222 62.5809C53.802 62.5318 54.8328 62.4336 55.9127 62.2864C55.3727 63.0717 55.1764 63.5135 55.1764 64.5443V67.2439C56.0599 66.0168 56.8944 64.7897 57.7779 63.5135C58.0233 63.1699 58.3178 62.7772 58.3178 62.4336C58.3178 62.1882 58.2196 62.1391 58.1215 61.9919C59.2013 61.7955 60.3303 61.5501 61.4101 61.3047C60.9193 61.8937 60.4284 62.4827 59.9867 63.0717C59.2995 64.0043 58.6614 64.9369 57.9742 65.8695C58.7105 67.1948 59.4958 68.5201 60.2321 69.7963C61.0665 71.2198 61.6065 71.7106 62.1464 72.1033C60.9684 72.3978 59.8394 72.6923 58.6614 72.8886C58.8086 72.5941 58.9559 72.4469 58.9559 71.956C58.9559 71.4652 58.7105 71.0725 58.4651 70.6798C57.876 69.649 57.287 68.6183 56.7471 67.5384C56.2563 68.1765 55.7654 68.7655 55.2746 69.4036V71.0234C55.2746 71.956 55.2746 72.6923 56.0108 73.3795C54.8328 73.3795 53.802 73.4776 52.7222 73.5267Z" fill="black"></path><path d="M62.8325 71.8089C63.3725 70.9254 63.5197 70.8272 63.5197 69.0111V63.2191C63.5197 61.3048 63.4706 61.5011 62.7344 60.863C64.6978 60.274 66.6611 59.5868 68.5263 58.7524C68.919 58.5561 69.3117 58.4088 69.6553 57.918V61.7956C69.2135 60.9121 68.5754 60.3722 66.8575 61.0594C65.8758 61.4521 65.1395 61.8938 65.1395 62.7282V64.6425C65.5322 64.4953 65.9249 64.348 66.3175 64.2008C67.5937 63.7099 67.8392 63.1209 68.2809 62.4337C68.2809 63.6118 68.2809 64.7898 68.2809 65.9187C67.8392 65.5261 67.6919 65.2316 66.2194 65.8206C65.8758 65.9678 65.4831 66.1151 65.1395 66.2132V68.4711C65.1395 69.2074 65.6794 69.2565 66.7593 68.8638C68.9681 67.9803 69.4099 66.5568 69.9007 64.9371V69.4037C69.5571 69.2565 69.6062 69.1583 68.4282 69.6982C66.6611 70.5327 64.7468 71.2689 62.8325 71.8089Z" fill="black"></path><path d="M17.7251 70.8757C17.7742 70.7284 17.9214 70.4339 17.9214 70.3848C17.9214 70.0903 17.8723 69.7958 17.8233 69.5013L16.2526 60.028C15.7617 57.132 15.5163 56.4448 14.8291 55.4141H18.8049C18.3632 56.0031 18.1178 56.4448 18.1178 57.5247L19.443 67.587L21.3573 56.9848C21.4064 56.6903 21.5046 56.1994 21.5046 56.1012C21.5046 55.8558 21.4064 55.6595 21.3573 55.4141H24.5478C24.4987 55.6595 24.4006 55.8558 24.4006 56.1012C24.4006 56.1994 24.4497 56.6903 24.4987 56.9357L26.364 67.587L27.7874 57.4756C27.7874 56.1503 27.3947 56.0031 27.0511 55.4141H30.8306C30.1925 56.6412 29.898 57.1811 29.4563 59.8317L27.8365 69.4522C27.7874 69.7467 27.6892 70.0412 27.6892 70.3357C27.6892 70.5321 27.7874 70.6793 27.8365 70.8266H24.6951C24.7442 70.6793 24.7933 70.5321 24.7933 70.3357C24.7933 70.0412 24.7442 69.7467 24.646 69.4522L22.7808 58.9481L20.9156 69.4522C20.8665 69.7467 20.7683 70.0412 20.7683 70.3357C20.7683 70.4339 20.8665 70.6793 20.9156 70.8266H17.7251V70.8757Z" fill="black"></path><path d="M73.191 70.6296C73.8782 69.9424 74.2218 69.3043 74.2218 67.4391V65.4266L71.5712 59.4874C70.4913 57.0823 69.8532 56.1497 68.9697 55.168H73.6818C73.4855 55.5116 73.2401 55.8061 73.2401 56.346C73.2401 56.7878 73.4855 57.4749 73.6818 57.9658L75.5471 62.5306L77.6086 57.9658C77.8049 57.4749 78.0013 56.935 78.0013 56.3951C78.0013 55.7079 77.7068 55.5116 77.4613 55.168H82.0753C81.3881 55.9042 80.6028 56.7878 79.4738 59.2911L76.7251 65.4266V67.4391C76.7251 69.3043 77.0196 69.9424 77.8049 70.6296H73.191Z" fill="black"></path><path d="M78.3433 21.446C78.3433 14.0834 81.4356 9.71484 86.6385 9.71484C88.062 9.71484 88.7983 9.91118 89.4854 10.1075C90.0254 10.2548 90.5653 10.402 91.3506 10.402C91.6942 10.402 92.0378 10.3039 92.3323 10.1075V16.194C91.1543 14.2306 89.4364 12.1691 86.6385 12.1691C83.3008 12.1691 81.1411 15.8013 81.1411 21.3969C81.1411 23.5076 81.1411 30.0358 86.0986 30.0358C88.7492 30.0358 90.418 28.1706 90.418 25.2255C90.418 23.1149 89.829 22.035 89.1418 21.2006H93.4122C93.1668 21.7896 93.0195 22.4768 93.0195 23.753V31.9992C92.6268 31.7538 92.1851 31.6065 91.6942 31.6065C91.0071 31.6065 90.369 31.7538 89.6818 31.9501C88.7492 32.1955 87.6693 32.441 86.0004 32.441C80.6993 32.49 78.3433 29.1032 78.3433 21.446Z" fill="black"></path><path d="M21.406 14.5749V8.9302C20.9642 9.07745 20.4243 9.07745 19.7862 9.07745H8.00591H7.80957C6.92605 9.07745 6.38612 9.07745 5.84619 8.83203V14.4277C6.87697 12.6115 8.39858 11.4335 9.87112 11.4335C10.9019 11.4335 11.5891 11.8262 11.9327 12.6115C12.1781 13.2496 12.1781 13.9859 12.1781 14.7713V27.3369C12.1781 29.3003 12.1781 30.2819 11.2946 31.6072H15.9085C14.9759 30.2819 14.9759 29.3003 14.9759 27.3369V14.8203C14.9759 13.446 14.9759 11.3844 17.332 11.3844C19.1972 11.4335 20.5225 12.906 21.406 14.5749Z" fill="black"></path><path d="M53.4587 19.2869C53.3115 19.2869 53.2133 19.2869 53.0661 19.2869C51.6426 19.2379 50.9554 18.5507 50.9554 17.2745V8.53744C50.9554 6.37772 51.3481 5.73962 51.7408 5.24878L51.888 5.05244H51.6426C50.3664 5.00335 49.1393 5.00335 47.8631 5.05244H47.6177L47.7649 5.24878C48.3539 5.93596 48.5012 6.27955 48.5012 8.53744V17.2745C48.5012 19.4833 48.3539 20.3177 47.7649 21.1031V21.2503H48.0104C48.6485 21.2503 49.3356 21.2012 50.0228 21.2012C51.888 21.2012 53.7532 21.2994 55.6184 21.4467C56.8456 21.5448 57.1892 21.643 57.5818 21.9375L57.7782 22.0848V16.8818V16.4891C56.8946 18.158 55.373 19.2869 53.4587 19.2869Z" fill="black"></path><path d="M76.6267 11.3858L76.7248 11.2877L76.5776 11.2386C75.5468 10.7477 74.516 10.306 73.5344 9.91331L73.2398 9.81514L73.3871 10.0606C74.0252 11.2877 74.0252 12.1221 74.0252 13.1038L74.0743 21.5954L74.0252 21.4482C73.0926 18.7485 72.0618 15.9507 71.0801 13.202C70.6875 12.1712 70.3439 11.1404 69.9512 10.1096C69.9021 9.96239 69.853 9.81514 69.8039 9.71697C69.6567 9.42246 69.5585 9.12795 69.5585 8.78436C69.5585 8.63711 69.6076 8.53894 69.6076 8.44077V8.3426L69.5094 8.29352C68.4787 7.94993 67.2025 7.60634 66.1226 7.31183L65.19 7.06641L65.3372 7.31183C65.9263 8.29352 65.9263 9.12795 65.9263 10.895V19.7793C65.9263 21.1537 65.9263 22.2335 65.1409 23.0679L64.9937 23.2152L65.19 23.2643C66.3189 23.5588 67.4479 23.9024 68.5277 24.246L68.7732 24.3441L68.6259 24.0987C67.8896 22.8225 67.8896 21.7427 67.8896 20.4174V10.6005L68.2332 11.5331C69.8039 15.8034 71.2765 20.0247 72.6999 24.0987L72.7981 24.3932C72.9453 24.7859 73.0926 25.1295 73.0926 25.5222C73.0926 25.6203 73.0926 25.6694 73.0435 25.7676L72.9944 25.8658L73.0926 25.9148C74.0252 26.3075 74.9578 26.7002 75.8904 27.0929L76.0867 27.191L76.0377 26.9456C75.9395 26.5529 75.8904 26.2094 75.8904 25.6203V13.9873C75.9886 12.9565 75.9886 12.073 76.6267 11.3858Z" fill="black"></path><path d="M63.0781 6.67089L63.2254 6.52363L63.0291 6.47455C61.802 6.22913 60.5258 5.9837 59.2986 5.78737L59.0532 5.73828L59.2005 5.93462C59.9367 6.96539 59.9367 7.94708 59.9367 9.02694V18.5493C59.9367 20.3164 59.9367 21.0526 59.2005 21.7889L59.0532 21.9362L59.2496 21.9852C60.4767 22.1816 61.7038 22.3779 62.9309 22.6724L63.2254 22.7215L63.0781 22.4761C62.3419 21.4944 62.3419 20.7581 62.3419 18.942V9.56687C62.3419 8.5361 62.3419 7.45624 63.0781 6.67089Z" fill="black"></path><path d="M40.9409 19.7286C40.5482 19.7777 40.2047 19.8267 39.9101 19.8267C38.7812 19.8267 38.2413 19.385 38.2413 18.5015V14.9674L38.3885 14.9183C38.5849 14.8692 38.7812 14.8692 38.9775 14.8201C39.3211 14.771 39.7138 14.6729 40.1065 14.6238C40.5973 14.5747 40.99 14.5256 41.3336 14.5256C42.3153 14.5256 42.757 14.8201 43.0516 15.1146L43.2479 15.311V10.9915L43.0516 11.1879C42.5116 11.826 41.8244 12.2677 40.3028 12.5132C39.7138 12.6113 39.0757 12.7095 38.4867 12.8077L38.2904 12.8568V9.76443C38.2904 8.04647 40.401 7.75197 41.1373 7.6538C43.0516 7.40837 44.3278 7.89922 45.2604 9.27358L45.4567 9.56809V4.75781L45.3094 4.85598C44.8186 5.1014 44.3277 5.15049 43.8369 5.19957C40.9409 5.49408 38.0449 5.98492 35.2471 6.67211L35.0508 6.72119L35.198 6.86845C35.9343 7.55563 36.0325 7.75197 36.0325 10.2553V19.0414C36.0325 21.2993 35.8852 21.7901 35.3453 22.6736L35.198 22.9191L35.4435 22.87C38.1431 22.2319 40.9409 21.7901 43.6896 21.4956C44.3768 21.4465 44.7204 21.3974 45.0149 21.3974C45.3585 21.3974 45.5549 21.4465 45.7512 21.5447L45.8985 21.6429V16.6363V16.3908C45.0149 17.9615 43.7387 19.3359 40.9409 19.7286Z" fill="black"></path><path d="M28.6215 22.7215C27.9344 22.9669 27.4435 23.1142 27.0508 23.1142C26.3636 23.1142 26.0201 22.7215 26.0201 21.9852V18.4511L26.8054 18.1075C27.0999 17.9603 27.4435 17.8621 27.738 17.7149C28.5234 17.4204 29.1124 17.2731 29.6032 17.2731C29.9959 17.2731 30.3395 17.3713 30.5849 17.6167L30.7813 17.7639V13.4936L30.5849 13.7881C30.045 14.4753 29.4069 15.0643 27.9834 15.6042C27.3944 15.8006 26.8054 16.046 26.2655 16.2914L26.0201 16.3896V13.2482C26.0201 11.7266 27.5417 10.9903 28.7197 10.5976C29.4069 10.3522 29.9959 10.254 30.5358 10.254C31.4684 10.254 32.2047 10.5976 32.7446 11.383L32.941 11.6284V6.86719L32.7446 7.01444C32.3029 7.35803 31.8611 7.50529 31.3703 7.65254C28.5234 8.53606 25.7255 9.61592 23.075 10.8921L22.9277 10.9903L23.075 11.0885C23.8113 11.6775 23.8603 11.9229 23.8603 14.328V23.1142C23.8603 25.4211 23.7131 25.912 23.2222 26.7955L23.075 27.09L23.3695 26.9427C25.9219 25.7647 28.5234 24.783 31.1248 23.9486C32.1556 23.6541 32.5483 23.5559 32.8428 23.5559C32.9901 23.5559 33.0882 23.5559 33.1864 23.605L33.3336 23.6541V18.7947V18.6475C32.5974 20.3163 31.3212 21.7889 28.6215 22.7215Z" fill="black"></path></svg> 