<?xml version="1.0" encoding="UTF-8"?> <svg xmlns="http://www.w3.org/2000/svg" height="250" viewBox="0 0 250 250" width="250"><path d="m94.5 65.8c-.2-.5-.4-.7-.6-1.2-.2-.2-1.4-.5-2-.1-1.1.5-2.2 1.1-3.1 1.8-.6.5-1.3 1.1-2.3 1.2-.8 0-1.4.8-2.3 1.2-.8.4-1.8 1-2.6 1.6-.1.1-.4.1-.7.1 0-2.4 0-4.8 0-7.2 1.2-.6 2.5-1.1 3.6-1.9 1.6-1.3 3.5-1.8 5-2.9 1.3-1 2.9-1.8 4.3-2.5 1.4-.6 2.9-1.1 4.4-1.3 1.7-.2 3.3 0 4.5 1.4.1.2.5.2.6.2.6 1.2 1.2 2.4 1.8 3.5.2 1.3.5 2.5.6 3.8.1 1.2-.2 2.5.1 3.6.5 1.6 0 3.1.6 4.5.5 1.4-.1 3 .4 4.4s0 2.9.7 4.2c.2.4 0 1 0 1.4.1 2.9.2 5.7.5 8.6.1.8.5 1.6.4 2.4 0 .8.4 1.6.5 2.4s.1 1.7.4 2.4c.6 2.3 1.3 4.7 2.2 6.8.5 1.2 1.3 2.4 2.3 3.3.7.7 1.8 1.1 2.7 1.6 2.3 1.2 4.4 2.5 6.7 3.7.1.1.4.2.5.4 2 2 4.3 3.7 5.6 6.5.6 1.2 1.4 2.3 2 3.5 1.3 2.5 2.2 5.1 1.9 8-.1.1-.4.4-.7.6-1.9 0-3.9.1-5.9-.1-.8-.1-1.7.4-2.2 0-.8-.6-1.7-.2-2.4-.4-.8-.1-1.6 0-2.4 0s-1.7 0-2.6 0c-1.1.1-2.2.4-3.2.4-.7 0-1.4 0-2-.2-.5-.1-1.1.7-1.6-.1-1 .1-1.9 0-2.9.2-1.4.2-3.1.1-4.5 0-.4 0-.7-.4-1-.2-1.3.8-2.6.5-3.9.4-5.1-.7-10.2-.2-15.3-.4-5.1-.1-10.3 0-15.4 0-.7 0-1.4 0-2.3 0-.1-.5-.5-1-.4-1.3.5-2.2.8-4.3 1.4-6.5 1.2-3.7 3.3-6.6 6.2-9.1 1.3-1.2 2.9-2 4.4-2.9 1.4-.8 2.7-1.6 4.1-2.5 1.3-1 2.9-1.7 4.3-2.5 3.6-2.3 4.3-4.1 5.3-7.1.5-1.4.5-3 1-4.3.6-1.8.4-3.6 1.2-5.3.1-.1 0-.5 0-.6.1-2 .2-4.1.5-6.1.1-.7.4-1.4.4-2.2.1-.7-.1-1.4.5-2 .1-.1 0-.4 0-.6.1-1.9 0-3.8.5-5.6.4-2.6-.1-4.9.2-7zm29.7 50.4c-1.9.7-3.8.6-5.6.4-1.9-.2-1.8-.4-3.8 0-.5.1-1.1.1-1.4-.1-1.1-.6-2.3-.1-3.3-.2-.6.7-1.4.5-2.2.4-2-.1-4.2-.4-6.2-.4-7.4 0-14.9 0-22.4 0-1.4 0-3 .4-4.3-.4-.1-.1-.6-.1-.6 0-.5.8-.8-.4-1.4 0-.5.4-1.1.4-1.8.6-.1.2-.2.7-.5 1.2 2.3-.4 4.2.6 6.2.4 2-.1 4.1 0 6 0h6.2s4.1 0 6 0h6.2 6 6.2s4.1 0 6 0c2 0 4.1.1 6.1-.1.2-1.5-.9-1.2-1.4-1.8zm-33.8-13c-1 .8-1 .8-1 1.7h1.9s1.3 0 1.9 0h1.9 1.9 1.7c.6 0 1.3-.1 1.9 0 .6.2 1.1.1 1.6 0 .5.7 1.1-.2 1.6 0 .6.2 1.2.2 1.8.4 1.3-.8 3.1 0 4.7-.5-.6-.5-1.1-1.1-1.7-1.7-1.1.1-2.3.5-3.5.5-2.6-.1-5.3.2-8-.4-2.2-.3-4.4 0-6.7 0zm4.1-23.7h11.1c0-.4 0-.7 0-1.2-1.1-.2-2.2.1-3.1-.5-.2-.1-.7-.1-.8 0-.5.7-1.2.1-1.7.2-.7.2-1.6.1-2.3.2-1.1 0-2.2 0-3.2 0zm-11.8 39.6c-.5-.1-1-.4-1.4-.6-.4.6-.7 1.2-1.1 1.7.4.5.6 1 1.1 1.7.5-.2 1-.4 1.4-.6 0-.7 0-1.4 0-2.2zm10 1.2c-.6-.6-1.1-1.2-1.6-1.8-.5.2-1 .5-1.3.6v1.6c.5.2 1 .4 1.3.6.5-.4 1-.6 1.6-1zm8.7-1.8c-.5.1-1 .4-1.4.6 0 .8.1 1.4.1 2h2c0-.7 0-1.3 0-1.9-.2-.1-.3-.3-.7-.7zm-27.1 1.6c-.2-.6-.5-1-.7-1.4-.5 0-1 0-1.4 0-.6 1.1-.6 1.8-.4 2 .6.2 1.1.4 1.6.5.1-.3.5-.6.9-1.1zm35.5 1.2h.8c.6-.4.8-.5 1.2-.6-.2-.6-.5-1.1-.7-1.4-.7 0-1.3 0-1.9 0-.2.7-.3 1.4.6 2zm14.3-.7c.6.8 1.3.7 1.7.4.4-.1.7-.1 1.1-.2-.4-.6-.5-1.1-.7-1.6-.6 0-1.3.1-1.9.1-.2.4-.2.9-.2 1.3zm-5.4-1.5c-.4 0-.8 0-1.3-.1-.7 1.1-.8 1.3-.2 1.9.4.4 1.4.5 1.7.2.2-.4.4-.7.5-1.1-.2 0-.4-.3-.7-.9zm-24.2-13c-.5.4-1 .7-1.3 1.1.2.4.4.7.6 1.1h1.4c0-.5 0-1 0-1.6-.1-.1-.4-.2-.7-.6zm8.1-25.7c.2 1.4.5 1.8 1.2 1.7s.8-.5.8-1.7c-.6 0-1.2 0-2 0zm-12.8 28c1-.5.8-1.3.7-2.2-.8-.1-1.4 0-1.7.7-.1.8.2 1.2 1 1.5zm17.6-.1c1.1.5 1.8.1 2-1.1-.6-.7-1.3-.6-2-.5zm-8 0c.4-.1.7-.4 1.1-.5-.1-1.4-.1-1.4-1.6-1.4-.1.7-.4 1.4.5 1.9zm-3.1-28.3c-.7 1-.8 1.4-.1 1.8.4.2.8.1 1.2.2 0-.6 0-1.1 0-1.6-.4 0-.8-.1-1.1-.4zm8.3 28.3c0-.6 0-1.1 0-1.7-.6 0-1.1 0-1.7.1.3 1.6.3 1.6 1.7 1.6zm-5.4-27.9c-.2 1.1 0 1.6 1 1.8.5-.5 1-1 .5-1.7-.5-.1-1-.1-1.5-.1z"></path><path d="m184.2 130.9c-1 .2-1.9.7-2.9.7-7.3.1-14.6 0-21.9 0-.7-4.9-2.3-9.3-5-13.3-3.8-5.4-8.6-8-11-9.3 0-1 .7-1.6 1.3-2.2 2.2-2.3 3.2-5 3.5-8.2.1-1.4.2-2.9.8-4.2.1-.2 0-.6 0-.8 0-.8 0-1.6.4-2.4.4-.7-.4-1.7.5-2.4.1-.1 0-.2 0-.5.1-2 .4-4.1.5-6.1 0-1 .6-1.8.5-2.9-.2-1.7-.2-3.5-.4-5.3-.5-.4-.8-.7-1.3-1.1-.4-.1-.8-.2-1.4-.5-.5.8-1.8-.1-2.4 1-1.8.8-3.5 2-5.1 3.2-.8.6-1.7 1.2-2.5 1.8-.6.4-1.1.8-1.7 1.2-1.2-.6-.6-1.8-1.1-2.7-.5-.8-.4-2-.5-3.1 1.4-1 3-2 4.5-3.1 1.8-1.3 3.6-2.6 5.5-3.8 1.3-1 2.9-1.6 4.1-2.6 1.3-1.1 3.1-1.3 4.5-2 .2-.1.7 0 1 .1.5.1 1.1.2 1.7.5.5.5 1 1.1 1.6 1.6 1.2 1.1 1.7 2.4 1.9 3.9.5 2.5 1 5 1.3 7.7.1 1 .4 1.9.4 2.9 0 1.1.7 2 .8 3.1s-.4 2.3.4 3.3c.1.1.1.2.1.4.1 1.7.2 3.5.5 5.1.2 1.8.6 3.6 1 5.4.5 2 1.2 3.9 1.6 6 .2 1 .6 1.9 1.1 3.1.5.6 1 1.6 1.8 2.3 1.2 1.2 2.6 2.2 4.1 3 1.1.6 2.2 1.2 3 2 .8.7 1.9 1.4 2.6 2.3 1.2 1.3 2.2 2.6 3.2 4.1 1.3 1.8 1.8 3.8 2.4 5.9.1.2.2.4.2.6-.3 1.4.8 3.1.4 5.3zm-27.8-12.7h22.4c-.4-.6-.7-1.1-1.1-1.6-5.6-.2-21.9-.1-22 .1.1.5.5 1 .7 1.5zm8.6-13.5c-.7-.5-2.2-1.1-2.9-1.1-2.2 0-4.3 0-6.5 0-.5 0-1.1.2-1.7.4-.1-.1-.2-.4-.4-.4-1.7 0-3.2 0-4.9 0-.1.2-.4.6-.6 1 .5.2.8.5 1.2.6h15.1c.2 0 .5-.3.7-.5zm-5.5-26.3c-2.6 0-5 0-7.3 0v1.6h7.8c-.3-.7-.4-1.1-.5-1.6zm7.1 40.9c-.6.1-1.1.4-1.7.5v.8.6c1.2.8 1.3.8 2.2-.1 0-.5 0-.8 0-1.3-.2-.2-.4-.4-.5-.5zm-7 2.6c.6-.2 1.3-.5 2.2-.8-.4-.6-.6-1.1-.7-1.4-.6 0-1.1 0-1.4 0 .1.1.2.2.4.4-.4.1-.7.2-1.1.2.1.5.4 1 .6 1.6zm18.2-2.3c-.8 0-1.4 0-2 0v1.4c.2.2.4.4.7.7.5-.1 1-.4 1.3-.5 0-.5 0-1 0-1.6zm-5.6 0c-.8 0-1.4 0-2 0v1.4c.1-.1.2-.2.4-.4.1.4.2.7.2 1.1.6-.4 1.1-.5 1.4-.7 0-.3 0-.8 0-1.4zm-14.6-13.2c-.7 0-1.3 0-2 0v1.4c.2.2.4.4.6.6.5-.4 1-.6 1.6-1-.2-.3-.2-.7-.2-1zm5.6-.2v1.4c0 .2.2.6.4.6h1.3c0-.8 0-1.4 0-2-.6 0-1.1 0-1.7 0zm-9.6.9c-.5-.4-.7-.5-1.1-.7-1.2.2-1.2.2-1.3 1.6.2.2.6.5 1 .8.4-.8.8-1.1 1.4-1.7zm7.2-.9c-1.3.1-1.3.1-1.6 1.6.2.2.6.5 1 .8.5-.5.8-1 1.1-1.2-.1-.5-.2-.8-.5-1.2zm-13.4 1.1.6.6c.7.1 1.3 0 1.6-.8 0-.2 0-.5 0-.8-.6 0-1.1 0-1.6 0-.2.3-.5.6-.6 1zm11.3-24.9c.8.4 1.3 0 1.7-1-.4-.2-.6-.6-.8-.8-1.1.5-1.3 1.1-.9 1.8zm-5.1.2c0-.6 0-1.1 0-1.7-.4 0-.7 0-1.2 0v1.7zm3.6-.6c-.2-.5-.5-.8-.8-1.3-.4.5-.7.8-1 1.3.5.4.7.6 1.1.8.2-.4.4-.6.7-.8z"></path><path d="m123.3 73.5c-.7-.4-1.6-.8-2.3-1.2-.1.1-.2.1-.2.2-2.3.4-3.9 1.8-5.9 2.9-1.8 1-3.3 2.2-5 3.3-.7-1-1.1-1.9-1.1-3.1 0-1.1.2-2.2-.5-3.1 2.5-1.3 4.7-2.9 7.1-4.2 1.3-.7 2.6-1.6 3.9-2.4s2.6-1.4 4.1-2.2c2-1.1 4.1-1.6 6.3-.1 1.3.7 1.6 2 2.3 3 0 1.9 1 3.7.8 5.6 0 1 .2 1.9.4 2.9.1.8-.4 1.8.4 2.6.1.1.1.6 0 .8-.4 2 .4 4.1.5 6.1.1 1.2.1 2.5.4 3.7.5 2.4.5 4.8 1 7.2.2 1.1.1 2.3.4 3.2.5 2.2.4 4.3 1.2 6.3.4.8.8 1.3 1.2 2s1.3 1.2 1.7 2.2c1.1.1 1.4 1.2 2.4 1.6.7.4 1.4 1 2.2 1.4 1.3.8 2.6 1.7 3.8 2.7 1.9 1.8 3.9 3.5 5.3 5.7 1.2 1.9 2.2 4.1 3 6.3.5 1.4.4 2.9.4 4.5-3.5 0-6.8 0-10.3 0-3.3 0-6.7 0-10.2 0-1-1.3-.8-3-1.1-4.4-.6-3.1-2.2-5.7-3.7-8.4-1.2-2-2.7-3.8-4.5-5.4-1.6-1.3-3.1-2.6-4.9-3.6-1.2-.6-2.4-1.2-3.6-1.8-.4-.1-.7-.4-1.1-.6.7-1.4 1.2-2.7 2-3.9.6-1.1.8-2.3 1.1-3.5.4-1.2.2-2.5.8-3.7.1-.1 0-.5 0-.6 0-1 .1-1.9.4-2.9.2-.8-.1-1.9.5-2.9 0 0 0-.1 0-.2.1-2.7.4-5.5.4-8.2 0-1.2.6-2.4.5-3.7-.2-1.1-.1-2.5-.1-4.1zm15.6 44.3c.1.1.2.2.4.2 3.2.1 6.5.1 9.6.1.1 0 .1-.2.2-.5-.4-.4-.8-.8-1.2-1.2-4.8 0-9.4 0-14.1 0-.8 0-1.7-.1-2.7-.2.5.6.8 1.1 1.1 1.3 1 .2 1.9.7 2.5.5.8-.4 1.4.5 2 0 .8-.3 1.8.8 2.2-.2zm-4-14.1c-4.5 0-8.8 0-13.3 0-.4.5-.6 1.1-1 1.6h14.1c.2-.5.2-1 .2-1.6zm-10.3-23.8h7.5c.4-.7 0-1.2-.5-1.7-1.2 0-2.3 0-3.5.4-1.2.5-2.3-.8-3.6-.2.1.5.1.9.1 1.5zm17.6 41.3c1.8.1 2.2.1 2.5-.5.1-.2.1-.6.1-1.1-.2 0-.5 0-.7-.1s-.4-.4-.6-.5c-.2.2-.4.4-.6.5s-.5.1-.7.2zm5.6 0h2c0-.6 0-1.1 0-1.4-.6-.8-1.3-.7-2-.5zm-11.5-.7c.5.4.7.5 1.2.8h1.1c.2-.2.4-.4.6-.6-.2-.5-.5-1-.8-1.3-.1-.1-.4-.2-.6-.2-.5.3-.9.7-1.5 1.3zm-1.3-14.4c-1 .4-1.2.8-1 1.7.4.1.7.4 1.1.5.4-.4.7-.6.8-.8-.3-.4-.6-.9-.9-1.4zm-6.7-23.4c.5-.1 1-.4 1.4-.6-.2-.5-.4-.8-.6-1.2-.4 0-.6 0-1 0-.2.4-.4.7-.5 1.1.2.2.3.3.7.7zm-1.9-.9c-.4-.4-.5-.7-.8-1-.2-.1-.6 0-1 0v1.9c.7-.3 1.2-.5 1.8-.9zm5.1.9c.2-.4.5-.6.7-1-.5-.8-1-1.1-1.7-.7-.1.7.1 1.3 1 1.7zm-11.3 24.6c.5.2 1 .5 1.7.8 0-.7 0-1.3 0-1.9-.9-.1-1.5.2-1.7 1.1zm3.4.5h1.7c0-.5 0-.8 0-1.2-.6 0-1.1.1-1.7.1zm7.9.6c.5-.5.8-.7 1.2-1.1-.2-.2-.5-.5-.6-.6-.5 0-1 0-1.6 0 .4.6.7 1.1 1 1.7zm-4.4-1.6c.8 1.4 1 1.6 2.2.5-.6-.8-1.4-.7-2.2-.5z"></path><path d="m43.7 141.5v1.2c-1.2.5-2.4.8-3.8 1.4.2 1.6-.7 3-.5 4.5.8 5.5.4 11 .4 16.6.1 5.5 0 11 0 16.5.4.4.7.7 1.1 1.1 1 0 1.7.5 2.5.6 0 .1-.1.4-.1.5-.5 0-1.1 0-1.6.1-2.4.2-4.8-.2-7.2-.4-.7 0-1.3.1-2 .2-.6 0-1.2-.2-1.8.1-.2.2-.8 0-1.6 0 .4-.5.6-.7.8-.8.6-.2 1.1-.4 1.8-.5 1.3-.8 1.7-1.9 1.7-3.5-.1-2.6 0-5.1 0-7.8 0-.5-.1-1.1-.2-1.7.7-1.9.1-4.2.4-6.2-1.6-.5-2.5.7-4.3 1.2-1.7.5-3-1-4.1-2.5-.6-.1-1.2-.2-2.2-.4-.4.2-1.1.7-1.7 1.2v7.8c0 1.4-.2 2.9-.4 4.3 0 .4.2.6.2.8-.8 1.8 1 3.5 0 4.9 1 1.8 1 1.8 3.6 2.5v.5c-.2.2-8.7.4-13.9.1.2-.4.2-.6.5-.7.6-.4 1.2-.6 1.8-.8.2-.1.5 0 .6 0l1.1-1.1c0-3.6 0-7.3 0-11s.6-7.3.5-11c-.1-3.6 0-7.3 0-11 0-.8 0-1.7 0-2.6 0-.8-.2-1.6-.4-2.4-.7-.2-1.4-.4-2-.7-.6-.2-1.1-.6-1.9-1.2 1.6-.1 2.7-.1 3.8 0 1.1 0 2.3.2 3.3.2 1.1 0 2.3-.1 3.3-.2h3.2c.2.2.4.4.6.6 0 .1-.1.2-.1.2-1.2.5-2.4.8-3.6 1.3-1 4.1-.4 8.2-.5 12.3 0 1.2.4 2.3.6 3.6 0 0 .2.2.4.4.2.1 1.1-.7 1.7-1.8 1.6-1.1 2.7-.6 4.1.5 1 .8 1.6 1.9 2.6 2.6.4.1.8.2 1.4.4.4-.2.8-.5 1.2-.7.2-.7.5-1.3.6-1.9.1-.2.1-.7 0-.8-.7-.8-.4-1.8-.4-2.6 0-3.2 0-6.5 0-9.7 0-.8-.2-1.6-.2-2.3-1-1-2.7-.1-3.2-2.2 2 .2 3.8-.2 5.7.5.8.4 2 0 3 .1.8.1 1.6-.5 2.4-.1.8-.6 1.8-.1 2.8-.2z"></path><path d="m208.9 144.7c-1.6-.2-2.7-.5-3.8-.7 0-.5 0-.7 0-1 .2-.2 8.5-.4 13.4-.1-.1.4-.2.6-.4 1.1 0 .2.2.5.2.8.1 2.7 1.3 5 3 7.2.7.8 1.7 1.4 2.4 2.4 1.2 1.7 2.4 3.3 3.6 4.9 0 1.3 1.1 2.2 1.6 3.2.5 1.1 1.3 2 2 3.1.2-.2.5-.4.7-.7-.2-.8-1-1.7 0-2.6.1-.1.1-.5 0-.6-1-2.4-.2-4.8-.4-7.2 0-.4.2-.7.2-1.2.1-.4.2-1 .1-1.2-.6-1-.5-1.9-.4-2.9.1-1.3-.5-2.4-.5-3.9-.5-.4-1.2-.8-1.8-1.3-1.3-.1-2.6.2-3.8-.8.2-.4.5-.6.7-1h13c.5.6.1 1.1-.5 1.7-.7 0-1.3 0-2.3 0-.6.7-1.3 1.6-1.9 2.3v22c0 .5.2 1.1.4 1.7-.6 1-.4 2.2-.2 3.3.1.4.2.6.2 1 0 .6-.2 1.1 0 1.8.2.6.1 1.4 0 2.2 0 .6.2 1.3-.4 1.8-.1.1-.1.5 0 .6.8 1.3.2 2.7.5 4.2-.2.2-.5.4-.8.7-.7-.1-1.7-.4-2.6-.5 0-1 0-1.8 0-2.6.1-3.8-1.1-7.3-3.5-10.4-.6-.8-.8-1.8-1.9-2.5-.8-.6-1.4-1.6-2.2-2.5-1-1.2-1.9-2.5-2.9-3.8-1.8-2.7-3.6-5.6-5.1-8.6-.4-.7-.8-1.4-1.3-2-.1-.1-.5-.2-.8-.4v1.7 13.5c0 1.4-.4 2.9-.4 4.3-.1 1.4 0 2.9 0 4.3v4.5 1.7l1.4 1.4h2.3c-.1.1-.1.2-.2.4.4.1.6.4.8.5-.1.2-.1.5-.2.5-.8.2-1.7.4-2.6.5-1.2-1-2.6-.2-3.9-.5-1.8.8-3.7.2-5.7.5 0-.4 0-.7-.1-1.2.5-.2 1-.6 1.4-.6 1.8 0 2.7-1.1 3.3-2.5.1-.2.2-.5.4-.8.4-4.2-.1-8.5.4-12.8s.1-8.7.1-13.2c0-1.8 0-3.6 0-5.4.1-1.8-.5-3.3-1.5-4.3z"></path><path d="m164.5 165.5c3 .6 4.4-1.1 5.6-3.2 1-1.7 1.6-3.5 1.3-5.5-.1-1.1.1-2.2 0-3.2-.1-.7.6-1.3.4-1.9-.6-1.6-.2-3.2-.4-4.8 0-.6-.4-1.2-.6-1.8-.6-.2-1.2-.6-1.9-1-.1.1-.1.1-.4.4-.1-.2-.4-.6-.6-1 0 0 .1-.2.1-.4.4-.6 1.1-.6 1.6-.5 1.6.7 3.2.2 4.8.4.8.1 1.7-.8 2.6-.1-.1.2-.2.6-.5 1v18.5c0 .8-.1 1.8 0 2.5s.6 1.3 1 2c.1 0 .5.1.6.2.5.5.8.8 1.7.7.6-.1 1 .4 1.1 1.2-1.7-.1-3.3.5-4.9-.2-.2-.1-.7 0-1.1-.1-.7-.1-1.4.2-2.2.1-.5 0-1.1.2-1.6.4-.2-1.6-.2-1.6.1-2.4-.2-.2-.4-.5-.6-.7-.2.1-.5 0-.6.1-1.7 1.3-3.2 2.6-5.4 3.1-.5.1-1.1.1-1.6 0-1.2-.4-2.3-.8-3.3-1.2-.6-1.2-1.2-2.4-1.9-3.9.1-.5.5-1.3.2-1.9-.4-.8-.1-1.7-.2-2.5s0-1.6 0-2.4 0-1.7 0-2.6c0-.8 0-1.7 0-2.6 0-1 0-1.7 0-2.6 0-.8 0-1.6 0-2.4s0-1.7 0-2.7c-1-.2-1.9-.5-3.1-.7-.1-.2-.2-.7-.5-1.4h8.2c.4 1.6.6 3.3 1.1 5 .5 1.8.6 3.7.2 5.4-.6 3.2-.1 6.3-.4 9.4.3 1.5.9 2.4 1.2 3.3z"></path><path d="m208 169.1c-1 1.1-1.8.8-2.6.5-.5-.1-1.2-.4-1.6-.1-1.2.6-2.5.2-3.7.4-1.8-3.6-3.7-7.1-5.5-10.6-1-.2-1.9-.2-2.9.6-.7 2.4-.7 5 0 7.8.8.2 1.7.5 2.6.7v1.1c-2 0-3.9 0-6 0-1.8-1.2-3.6.7-5.5-.2 0-.2 0-.6 0-1.2.4.1.7.2 1.1.5.7-.1 1.6-1 2.6-2.6.1-4.7.1-9.1.2-13.6 0-.1.1-.2.4-.4 0-.6-1.1-1.3-.1-2 0-1.4 0-3 0-4.5-1.1-.4-1.7-1.6-3-1.4-.2 0-.5-.4-.8-.6.2-1 1-1.4 1.6-1 .7.5 1.3.4 2 .4h8.8c1.3 0 2.6.1 3.9.5 1.3.5 2.4 1.4 3.2 2.5.6.7.8 1.6.7 2.5-.1.6 0 1.2 0 1.7-.8 1-1 2.4-1.9 3.3-.8 1-1.6 1.8-2.9 2.5 1.1 2.3 2.2 4.4 3.1 6.7.7 1.8 1.9 3.3 2.9 5 .5.8 1.6.7 2.4 1.1.2.1.6.2 1 .4zm-10.4-17.8c-.2-1.6.5-3.3-.6-4.9-.7-.4-1.3-.6-2-1-.8 0-1.8 0-2.6 0-.6.5-1 .8-1.3 1.1 0 1.8-.1 3.5 0 5.1s.4 3.2.5 4.9c1.2.7 1.6-.6 2.4-.8.8-.4 1.7-1.1 2.3-1.8.5-.8.9-1.6 1.3-2.6z"></path><path d="m152.9 159.8v2.5c0 1.8-.7 3.3-2 4.5-1.6 1.6-4.1 2.5-6.2 2.6-1.6 0-3 .1-4.5 0-2.5-.2-4.9.7-7.4.4-.5-.6-.1-1.1.5-1.6.6-.2 1.4.2 1.9-.6 1-3.3.4-6.8.5-10.2.1-1.9 0-3.8 0-5.7.1-1.8.4-3.6.5-5.3-.7-1.7-1.7-2.6-3.5-2.7 0-.4 0-.7 0-1.2.5.1 1 .1 1.7.2.8-.6 1.9-.2 3-.1.5.1 1 .2 1.4.2 2 0 4.1.1 6 0 1.7-.1 3.3.5 4.5 1.4 2.2 1.8 3.3 4.8 1.4 7.9-.6.8-1.1 1.7-2.2 2.2-.4.1-.6.6-.8.8 3.4 1.7 3.4 1.7 5.2 4.7zm-12.5 6.9c.6.2 1.1.5 1.6.6 3.6.5 6.9-2.9 6.2-6.5-.1-.7-.2-1.8-1.2-2.3-.7-.4-1.4-.8-2.3-.7-.6.1-1.3 0-1.8 0-.8.7-1.7 1.3-2.5 1.9.2.8-.8 1.6-.1 2.3-.7.6-.2 1.4-.4 2.3.1.7.4 1.6.5 2.4zm.1-11.1c3.8-.7 6-2.9 6.3-6.6-.4-1-.4-2.3-1.3-2.9-.8-.6-1.9-1-2.6-1.3-.7.2-1.3.5-1.8.6-.2.5-.5.8-.6 1.2-.1 3 0 6 0 9z"></path><path d="m93 166.5c.2-2.3.5-4.2.6-6 0-.4-.1-.7-.2-1.2.1-.2.2-.5.2-.8 0-3.1 0-6.3 0-9.4 0-.2.1-.6 0-.8-.7-.8-.5-1.7.1-2.4-.2-.6-.5-1.1-.7-1.7-.7-.2-1.4-.4-2.4-.6 0-.2 0-.6 0-1.1 1.9.5 2.4.5 3.2.1.7.1 1.3.4 1.6.2 1-.6 1.9-.5 3 0 .2.1.7 0 1 0l1.9-.1c.7.2 1.3.4 1.8-.2.2.1.5.4.7.5.4-.2.5-.4.7-.5.7.2 1.2.7 2 .1.7-.5 1.6.4 2.3.8-.1.7.4 1.6-.4 2.3-.1.1-.1.5 0 .6.8 1.4.2 3 .5 4.5-.7.5-1.2.1-1.7-.5.1-1.4-.5-2.7-1.1-4.3-1.2-.5-2.3-1-3.5-1.6-.1.1-.2.2-.5.5-.2-.1-.6-.4-1-.6-.2.1-.5.4-.8.5-.7-.6-1.4.2-2.3 0 0 1.2.2 2.3 0 3.2-.7 1.9-.1 3.7-.4 5.5 1 .5 1.8 0 2-.5.5-.8 1.1-1.1 1.9-1.1s1.7.2 2.3.8c.5.5.8 1 1.4 1.4.8-.2 1.6-.4 2.3-.8.6-.4 1-1 1.6-1.4-.4 2.9-1.8 5-4.3 6.3-1.9-.5-3.1-2.2-4.8-2.9-.8.4-1.9.5-2.4 1.6v9.6c1.4 0 3 .1 4.4 0 1.3-.1 2.6-.6 3.9-.8.4-1.1 1.3-1.6 1.8-2.4.2-.7.6-1.3.8-2.2 0 0-.1-.1-.2-.4.1-.1.4-.4.5-.6.4.1.7.4 1.2.5-.1.8-.4 1.8-.5 2.6s0 1.7-.4 2.6c-.4.8-.1 1.9-.1 3.1-1.9 0-3.8.2-5.6 0-4.5-.7-9.2-.2-13.7-.4-.1 0-.2-.1-.4-.1 0-.1-.1-.4 0-.4.1-.2.4-.5.6-.6 1.6.6 2.4.3 3.1-.9z"></path><path d="m67.3 167.2c.6.2 1.1.5 1.7.7v1c-1-.1-1.9-.2-2.7-.2-2.5 0-5 0-7.5-.4l2.6-1.3c.1-.2.2-.6.5-1.1-.6-1.8-1.2-3.6-1.8-5.4-1.6-.4-1.8 1.2-2.9 1.7-1.6 0-2.4-1.3-3.9-2.2-.4 0-1 0-1.7 0-.2.2-.6.6-.8.8-.5 1.6-1.1 3.1-1.6 4.7.5 1 1.3 1.6 2.4 1.7.7.1 1.2.4 1.2 1.3-1-.1-1.8.2-2.6-.4-.8.5-1.7.1-2.5.4-.8.1-1.4-.4-2.3-.1-.8.2-1.8 0-2.7 0 0-.4 0-.7 0-1.1.4-.2.8-.6 1.2-.6 2.2.1 3.1-1.4 3.3-2.9.2-1.7 1.4-2.9 1.4-4.7 1.3-1.8 1.3-4.1 2.2-6 1.3-2.9 1.9-6.1 3.3-9 .4-.7.5-1.6.7-2.4 1.3-.7 2.6.5 4.1.2.7 2.4 1.6 4.8 2.3 7.2 1.1 3.1 2.2 6.1 3 9.3.4 1.6 1.3 3 1.8 4.5.2 1.8.8 3 1.3 4.3zm-11.3-18.3c-.5.5-.8.7-1 1-.6 1.6-1 3.3-1.8 4.9-.2.4 0 1 0 1.4v.2s.1.1.1.1c.4-.1.7-.2 1.1-.4.5.4 1 .6 1.3 1s.6.8 1 1.2c.7.1 1.4.2 2-.6.1-3.2-1.9-5.6-2.7-8.8z"></path><path d="m80.2 145.7c-.2-.2-.4-.5-.6-.7-1.8 0-3.7 0-5.6 0-1.4 1.1-2.3 2.6-2.4 4.4 0 .7-.5 1-1.1 1.2-.4-.8-.1-1.7-.1-2.5s.1-1.7 0-2.4c-.2-.8 1.1-1.4.1-2.3.1-.4.4-.7.6-1.2h2.6c1 0 1.9-.2 2.7 0 1 .4 1.8-.2 2.6-.1 1 .1 1.9 0 2.7 0 .8.1 1.9-.5 2.5.5.6-.2 1.1-.4 1.8-.6 0 .5.2.7.1 1-1 1.7-1.1 3.6-2.2 5.1-.7 1-.7 2.3-1.3 3.3-.5 1.1-.8 2.2-1.3 3.3-.1.2 0 .5-.1.6-1.8 3.1-2.9 6.6-3.9 9.9 0 .1-.1.2-.2.2.1.4.2.6.5 1.1.7 0 1.6.1 2.4 0 .7-.1 1.4-.4 2.5-.6 1.3-1.3 3.1-2.6 3.1-5.1.4-.5.8-1 1.7-.5-.5 2.5-.8 5.1-1.3 7.9-.6 0-1.2.6-1.9.2-.8.7-1.6.5-2.2-.1-.5.2-.8.2-1.2.5-1 .5-1.9-1.1-2.9-.1-1.2 0-2.3 0-3.5.1-1.1 0-2.2 0-3.3 0 .2-1.8 1-3.2 1.6-4.8 1-2.4 1.9-4.8 2.9-7.2.4-1.1.8-2.2 1.2-3.1 1.1-2.5 2.3-5.1 3.5-8z"></path><path d="m125.2 166.8c.4-.2.7-.5 1.2-.7.8-.4 1.3-.8 1.7-1.9s1-2 1.2-3.1c.1-.6.8-1 1.7-.6.1 1.4-.8 2.9-.8 4.3 0 1.6-.4 3-.6 4.7-2.5 0-4.9 0-7.4 0-2.4 0-4.8 0-7.1 0-.6 0-1.2.2-1.9.4-.1-.2-.5-.6-.8-1.2 1.7.1 2.9-.4 3.7-1.7-.6-1 1.2-1.9 0-2.9.1-.8.4-1.6.4-2.3 0-5.6 0-11.4 0-17.2-.4-.2-.8-.6-1.4-1.2-.4 0-1.2 0-2.2 0 .2-.5.5-.8.7-1.2 1.9.1 3.8.4 5.6.4 1.9 0 3.8.1 5.9-.1 0 .1.2.5.5 1.1-1.8-.4-2.7.7-3.9 1.9v2.4c-.1 2.6-.7 5.1-.4 7.8 0 .6-.2 1.3.4 1.8-.5.5-.6 1 0 1.3-.8 1.8-.2 3.6-.4 5.4 0 .8.2 1.6.4 2.4 1.1.2 2.3.2 3.5.2z"></path><path d="m142.8 207.7c.2 1 .5 1.9.7 2.7.5 1.7.8 3.3 1.3 5 0 .2.2.4.5.6.4.1.8.1 1.2.2v.6c-1.3.4-2.5.6-4.1 1 .5-.6.7-1.1 1.2-1.8-.8-3.2-1.8-6.7-2.6-10.2-.5 0-.8-.1-1.2-.1 0-.1 0-.2.1-.4.6-.7 1.6-.5 2.2-1 .2-.1.6-.2 1-.4 1.1 1.8 3.2 2.4 4.8 3.8.1.1.4 0 .8 0 .6-1.7 1.3-3.5 2.2-5.6 1.1-.4 2.4-.8 3.8-1.3.5.7.2.8-.5 1-.7 1 .4 1.7.2 2.5-.1 1 .4 1.7.6 2.5.4 1.2.8 2.3 1.1 3.3.6 2.2.6 2.2 1.7 3.1-1 .5-3.7 1.2-4.9 1.1.2-.4.5-.6 1.1-1.2.4-1.3-.6-3-.8-4.7s-1-3.1-1.6-4.9c-.6 1.7-1.2 3.2-1.9 4.9 0 .8 1 1.3 1.4 1.9.7.7.6 1.7 1.1 2.4-1.4 2.3-1 1.9-3.2 3-.5-.2-1.1-.6-1.7-.8-.2-.6-.4-1.2-.6-1.9.2-1.1 1.4-2.3.1-3.7-.8-.6-2-1.1-3.2-2.3-.2.7-.6.7-.8.7zm5.5 4.5v2.3c.6.8 1.3.6 2 .5 0-.7 0-1.3 0-1.9-.6-.6-1-1.4-2-.9zm-.5-3.3v-.1c-.1 0-.2 0-.5 0v.1z"></path><path d="m185.9 177.8c-.6.4-1.6.8-2.5 1.3-.2 1.2.1 2.3 1.1 2.9 1.1.7 1.2 2.4 2.6 2.7.5 1.4 1.8 1.9 2.6 3 .2.2.2.6.5.8.7.7 1.6 1.4 2.4 2.2.7-.4 1.2-.6 2-1-.1.4-.1.7-.2.8-1.6 1.4-3.2 2.9-4.9 4.3-.1.1-.2 0-.5 0-.1-.6.6-.5.7-1 0-.6 0-1.2 0-2-2.9-3.3-5.9-6.7-8.8-10-3.1 2.6-3.2 2.7-1.8 6.1-.4 0-.7 0-1-.1-.8-1-1.7-2-2.6-3.1 3.3-3 6.8-6.1 10-9.2 1 1 1.7 1.8 2.7 2.9 0-.1 0 .1 0 .7-.5-.4-.7-.7-1.1-1 0-.3-.3-.1-1.2-.3z"></path><path d="m57.3 191.4c-1.8-1.2-3.3-2.5-4.2-4.5-.4-.1-.7-.4-1.1-.6 0-.5 2.7-3 3.8-3.5-.4 1.6-1.2 3-.8 4.7.7.6.6 1.9 1.9 2.4 1.2.6 2 .2 3.1-.2 0-.1.1-.2.1-.4 1.3-1.6.8-3.1.1-4.8-.6-1.4-.7-2.7-.6-4.3 0-.5.1-1.2.5-1.6 1.2-1.4 2.4-2.7 4.5-2.4.4.1.8 0 1.2 0 1 1 1.8 1.7 2.6 2.6.7.8 1.3 1.8 1.9 2.5-1 .8-1.9 1.7-2.7 2.5-.1-.1-.2-.2-.5-.5.2-.5.6-1.1.7-1.7s0-1.3 0-1.9c-1.6-2.5-2.6-2.7-4.5-1.9 0 .1-.1.2-.1.4-1.3 1.6-.8 3.2-.1 4.8s.6 3.2.6 4.9c0 1.4-2 3.2-3.5 3.2-1.1.3-2.1.3-2.9.3z"></path><path d="m101.9 206.9c-.2-.6-.4-1.2-.6-1.7-.7-1.9-3.6-3.2-5.4-2.3-1 .5-2.2 1.1-2.2 2.5-1.1 1.2-1.1 2.9-1.6 4.3-.4 1 .1 2 .8 2.9.2.2.4.6.7 1.1.7.6 1.8.5 3 .5 1-.8.7-2.3 1.4-3.3-1-.7-1.9-1.6-2.9-2.3-.5.1-1 .2-1.8.5.6-.7 1-1.2 1.4-1.7.5.1.8.4 1.3.5 1 .4 1.9.6 2.7 1.3s1.9 1.1 3.1 1.6c-.5.2-1 .5-1.6.7-.2.6-.7 1.3-1 2-.2.7-.4 1.6-.6 2.4-1.9.5-3.6-.8-5.4-.8-1.1-.8-2.2-1.8-3-2.5-.4-1.3-.6-2.4-1-3.5.1-.7.2-1.6.5-2.4.2-.6.6-1.2.8-1.8.8-1.8 3.5-3.1 5.1-3.1 2.2 0 4.1.4 5.6 2 .4.4.8.5 1.2.6.2.8-.2 1.5-.5 2.5z"></path><path d="m78.2 197.3c-1.2 1.8-2.4 3.6-3.6 5.4v1.8c.2.2.6.6.8 1-.2 0-.5.2-.6.1-1.1-.7-2.2-1.6-3.6-2.5.6 0 1 0 1.4-.1 2.6-2.4 3.9-5.7 5.9-8.5-.2-.8-.4-1.4-.6-2.4 1 .6 1.6 1.1 2.3 1.6v2.2c.6 1.3 1 2.4 1.3 3.3.4.7.7 1.4 1.1 2.2.5 1 .6 1.9.6 3.2 1.7-1.4 1.9-3.7 3.5-5-.4-.6-.8-1.2-1.3-2 .5.1 1.1 0 1.2.2.6 1.1 2.5.7 2.7 2.4-.4-.2-.7-.4-1.1-.5-1.1 1-2.2 2-2.5 3.6-.1.5-.8.8-1.1 1.3-.5.7-.6 1.8-1.1 2.3-.6.6-1.1 1.3-1.7 1.9-.2.4-.4.8-.7 1.4-.2-.4-.4-.6-.6-1 .1-.7.4-1.6.4-2.4.1-1.9-.5-3.6-1.3-5.3-.4-1.4-.8-2.7-1.4-4.2z"></path><path d="m129.9 206.9c-.2 1.1-.5 2-.7 3-.2 0-.4 0-.7-.1.1-.2.1-.4.1-.2-.4-.4-.7-.7-1.1-1.1-.7-.5-1.8 0-2.9-.6-1.1 1.1-.2 2.5-.6 3.9.7-.1 1.1-.2 1.8-.4.8.4 1.8.7 3 1.2.5-.2 1.1-.6 1.9-1-.2.5-.2.8-.5 1-.4.5-.8.8-1.1 1.1-.5.1-1 .2-1.6.4-1.1 0-2-1.2-3.5-1.1-.4 1.9.2 3.7-.5 5.5h4.1c.5-.6 1-1.3 1.6-2.2.7 1.3-.6 2.3-.1 3.5-3.1 0-6.1 0-9.1 0-.4-1.2 1.2-.6 1.3-1.4 0-2.5 0-5 0-7.4 0-.1.1-.2.2-.4-.8-.7-.1-1.8-.4-2.4-.5-.5-.7-.7-1.2-1.2 3.7-.1 6.6-.1 10-.1z"></path><path d="m160.1 207.5c.6-1.1 1-1.8 1.4-2.6.5-.1.8-.1 1.3-.2-.2-1.3.1-2.5-.4-3.7-.4-.7-.1-1.8-.1-2.9.2-.2.5-.5.8-.7 1.8 1.2 2.7 3.1 4.3 4.5s3 3 4.5 4.5c.4.1.7.1 1.2.2-.1.4-.1.6-.2.6-1.3.6-2.6 1.1-4.2 1.7.1-.5.5-1 .4-1.4 0-.5-.2-.8-.5-1.2-.5-.4-1-.7-1.6-1.1-.8.8-1.8 1.4-3.1 1.2v2.4c.2.4.4.7.6 1.1.4.1 1.1-.4 1.1.7-1.2.4-2.4 1.2-3.8 1.3.4-.2.7-.4.7-.5 0-1.9 0-3.3 0-4.8-.8-.8-1.2.8-2.4.9zm3.8-5.9c-.5 1.2-.2 2.2.5 3.1.6 0 1.3-.1 2-.1-.3-1.7-1.4-2.3-2.5-3z"></path><path d="m203.5 76.7c-.1.4-.2.6-.4.8.2.2.4.4.5.5-1.3 2.4-1.4 3.2-5.4 4.5-.1-.1-.4-.2-.5-.4-.1.1-.2.2-.4.4 0 0-.1.1-.1 0-1-.6-2.3-.8-2.9-1.7-1-1.2-2-2.5-2.5-4.4 1 .7 1.8.5 2.3.6 2-1.4 3.9-2.7 6-4.1 0-.5 0-1.2 0-1.9.8.4 1.2.8 1.4 1.6.4.7.8 1.3 1.2 2.2.4.6.6 1.3.8 1.9zm-1.8-2c-.5.2-1 .4-1.3.6-1.9 1.3-3.8 2.6-5.9 3.9.4.4.5.6.7.7 1 .7 1.9 1.4 3.1.5 1.7 0 2.5-1.3 3.5-2.3.2-.7.4-1.3.6-1.9-.2-.5-.3-.8-.7-1.5z"></path><path d="m109.3 206.1c-.2-.2-.7-.6-1.4-1.2 2 .4 3.6.6 5.5.8.1.1.4.5.6.7-.2.1-.2.4-.4.4-.6.1-1.3-.1-1.7.5-.6 3.2-1.8 6.3-1.9 9.7 3.6.5 3.6.5 5-.7.6 1.2-.7 1.9-.8 2.9-2.9-.6-5.7-1.2-8.8-1.8.5-.4.6-.7.8-.7.8 0 1.1-.5 1.3-1.2.6-1.7.7-3.3 1.2-5 .2-1.1.6-2 .7-3.1-.1-.4-.1-.7-.1-1.3z"></path><path d="m112.9 41.4c.4-.2.7-.5.8-.6 0-1.1 0-2 0-3-.1-.8-.2-1.6-.4-2.4-.1-.7.4-1.6-.5-2.2.2-1.1-.6-1.3-1.3-1.8 1.2.1 2.3-.7 3.5-.6s2.4 0 3.8 0c.6.8 1.3 1.7 1.9 2.5.4.6.5 1.3.6 2-.8.6-.1 1.6-.6 2.4-.6 1.1-1.2 2.2-2.2 3-1-.1-1.8.6-2.7.5-1-.1-1.8.4-2.7.5 0 0-.1-.1-.2-.3zm6.2-3.8c.6-.5.5-1.3.2-1.9-.5-1.4-.8-3-2.3-3.8-.7 0-1.3 0-1.8 0-.2.6-.4 1.1-.6 1.7.6 1.2 1 2.5.8 3.8 0 .8.4 1.7.5 2.5h1.6c.7-.7 1.3-1.2 1.8-1.7 0-.1-.1-.2-.2-.6z"></path><path d="m177.4 203.9c0-.7 0-1.3 0-1.8-.1-.5-.1-1.3-.5-1.4-1.2-.6-1.4-1.9-2-2.9-.7-.8-1.6-1.7-1.9-2.9-.1-.6-1-1.1-1.4-1.6-.5.1-1 .2-1.4.4 0-.2 0-.5 0-.5 1.4-1.1 3-2.2 4.4-3.2 0 0 .1.1.2.1.4.8-.7 1-.8 1.9 1.4 3.1 4.2 5.6 6.1 8.7 1.7-.8 2.6-2 2.9-3.7-.1-.1-.2-.5-.5-.8.4-.1.5-.1.7-.2.5 1 1 1.9 1.6 2.9-2.5 1.7-4.9 3.3-7.4 5z"></path><path d="m61.9 66.2c-.4.4-.5.6-.6.7.4 1.1 1.3 1.4 2.2 1.8.4-.1.7-.4 1.1-.6.1.2.2.6.2.6-1.2.8-1.8 2.3-2.9 3.6 0-.8-.1-1.4-.1-2.4-1.9-1.7-3.9-3.5-6.1-5.3-.2.2-.4.4-.6.6-.1-.4-.1-.7-.2-1.1.5-.5 1.4-1.3 2-2.4.4-.6 1.1-.8 1.6-1.2h1.7c1.6 1.4 1.9 2 1.9 4.1 1.1.7 1.9-.5 3-.2 1 .1 1.8-.6 2.5-1.4.1 1.6-.6 2.4-1.4 3.1-1.4.1-2.8.1-4.3.1zm-1-.5c0-.8 0-1.7 0-2.5-1-.4-1.8-.7-2.9-1.2-.2.5-.6 1-.8 1.4.4 1.7 2 1.8 2.9 3 .3-.3.4-.5.8-.7z"></path><path d="m98.3 43.9c1-.8 2.2-.4 3-1.1.6-.7 1.4-1.3 2.2-1.9-.1 1-.4 1.8-.5 2.9-2.4.1-4.5 1.6-7.1 1.8-.5-1 .4-.7.7-1.1-.5-2.6-1.6-5.1-2.4-7.9-.4 0-1 0-1.4 0 0-.2-.1-.5-.1-.7 2.5-.7 5-1.8 7.5-2.5.2.8.5 1.6.8 2.5-.8-.4-1.4-.7-2-1-.8.2-1.8.6-2.7.8-.5 1 .5 1.8.5 3.2.6-.5 1-.8 1.6-1.2.8.1 1.8.4 2.7.6.5-.5 1-1 1.7-1.7-.2 1-.5 1.6-.7 2.3-1.8.8-2.3.8-4.5.6-.5 1.7.8 2.9.7 4.4z"></path><path d="m187.8 69.8c1 .1 1.8.4 3 .6-.1.2-.2.5-.5.7-.6.5-1.3.5-2 .4-.8-1-1.9-1.7-2.6-3-.2-.6-1.2-.6-1.3-1.3-.1-.4-.1-.7-.2-1.4.4.4.5.5.8.7.5-.2 1.2-.5 1.6-1 1.3-1.3 2.7-2.5 4.3-3.5.2-.2.4-.7.5-.8-.1-.5-.2-1-.4-1.4.2 0 .4-.1.4 0 .8 1.1 1.8 2.2 2.6 3.2.6.7 1.2 1.3 1.4 2.2 0 .1.4.1.7.2-.6.7-1.2 1.4-1.8 2.2-.7-.7-.1-1.2.1-1.9-.6-.8-1.3-1.7-1.9-2.5-.7.6-1.4 1.1-2.2 1.6.1.8 1 1.1 1.3 1.7.4.6.5 1.2.7 1.9.5.2 1 .6 1.7 1.1-.5.1-.8.2-1.1.4.1.1.1.2.2.4-.8-.5-1.8-1-2.7-1.4.1-1.2-.2-2.2-1.2-3.1-1.1.8-2 1.6-3.1 2.4.5.6 1 1.2 1.4 1.7.3-.4.3-.3.3-.1z"></path><path d="m66.7 198.3c.1.7.2 1.2.2 1.7-.4 0-.6 0-.7-.1-.7-.7-1.4-1.4-2.2-2.2-.5-.4-1-.7-1.4-1.2h2.2c2.3-2.6 4.3-5.1 6.6-7.8-.1-.5-.2-1.1-.6-2 1.9 1 2.7 2.7 4.5 3.3-.1.1-.2.2-.2.2-1.1 0-2.2.1-2.6 1.3-1 .2-1.1 1.3-1.8 1.9-.6.5-1 1.3-1.6 1.9-.6.7-1.3 1.3-1.9 2-.5.5-.5.9-.5 1z"></path><path d="m72 48.2c-.4 0-.7-.1-1.3-.2 1.2-1 2.2-2 3.3-2.7.7-.5 1.7-1.2 2.6-.2.2.2.6.1 1.1.1.5.6.8 1.2 1.4 2-.4.7-.5 1.6-.7 2.7-.4.4-1 1-1.7 1.6.4.6.7 1.1 1.2 1.7.5.2 1.1.5 1.9 1-.8.4-1.3.7-2 1.1-.2.1-.1 1.2-1.3 1 .1-.5.2-.8.4-1.4-1.7-2.1-3.2-4.4-4.9-6.7zm1.5-1.4c.8 1.7 1.4 3.2 3 4.2.4-.6.7-1.2.8-1.4-.1-.8-.2-1.4-.2-2-.6-.7-1.4-1.4-2.5-1.4-.3.1-.6.3-1.1.6z"></path><path d="m138.3 32.8c-.1 1.1.2 2 1.2 2.4 1.4.6 2.2 1.9 3.2 2.9-.2.7-.5 1.4-.6 2.2-.4.4-.8.8-1.3 1.4-1.1 0-2 0-3 0 0-.1 0-.1.1-.2-1-.4-1.9-.6-2.9-1 .4-1.1.6-2.2 1.1-3.6.4 1.2.4 2 .7 2.7.4.8 1.4.5 2.2 1.1.6-.2 1.1-.5 1.4-.6.2-.5.4-.7.5-1-.1-.2-.4-.7-.6-1.1s-.6-.7-1-1.3c-.5-.1-1.1-.4-1.9-.6-.4-.7-.7-1.4-1.1-2 .1-.5.2-.8.5-1.6.1-.1.6-.5 1.1-1h1.4c.6 0 1.1 0 1.6.2.6.2 1.1.2 1.6-.2.2.2.4.5.6.7-.2.8-.5 1.8-.8 2.7-.1 0-.2 0-.4 0-.1-.5-.1-1-.2-1.6-1.4-.6-1.4-.6-3.4-.5z"></path><path d="m48.9 77.4c-1.3.1-2.2-.4-2.5-1.6 2-2 3.5-4.5 4.9-7.3.7.5 1.3 1 2 1.4-.2.4-.5.6-.7 1-.2-.2-.5-.4-.6-.5-.6.6-1.2 1.2-1.8 1.8v.6c1.3.6 2.6 1.2 3.6 2.3.5.6 1.3.8 2 1.3 1 .8 1.9.2 3.1-.1-.4 1.1-1.1 1.4-1.4 2.2-.4.7-.8 1.6-1.4 2.5-.4-1.1-.1-1.8-.2-2.6-2.4-1.2-4.3-3.5-7.1-4.2-.8 1.3-.1 2.3.1 3.2z"></path><path d="m148.1 36.3c.4-.8.6-1.6 1.1-2.5 2.7 1 5.4 1.9 8 2.7-.2.8-.4 1.6-.5 2.2-.2 0-.4 0-.6 0-.1-.4-.1-.7-.2-1.2-.5-.4-1.1-.6-1.9-1.1-.1 1.6-1.3 2.5-1.6 3.9-.1 1.3-.7 2.5-1.2 3.8.1 0 .5.1.7.2v1.1l-.1.1c-1.3-.8-3-.6-4.2-1.9 1.3-.2 2-.7 2.4-2.2.4-1.3 1.1-2.4 1.2-3.8 0-.5.6-1.1 1-1.7-.5-.2-1-.5-1.4-.8-.7.5-1.6 1-2.3 1.4-.2 0-.2-.1-.4-.2z"></path><path d="m178.7 60c.7.8 1.6 1.6 2.3 2.4.8.4 1.6-1 2.4-.1-.1 1.1-1.3 1.3-2 1.9-1.2-.5-1.6-1.8-2.7-2.4s-1.8-1.7-3-2.9c.8-.1 1.3-.2 1.9-.4.1-.2.4-.6.6-1 .4-.4 1-.7 1.3-1.2.4-.4.7-.8 1.1-1.3 1-1 1.8-1.9 1.4-3.5 1.3.4 3.2 2 3.5 3.1-.5-.2-1-.4-1.6-.6-1.6 2-3.4 4.1-5.2 6z"></path><path d="m91.6 44.2c.7 1.2.7 1.2.6 3-2 1-4.2 2-6.3 3.1.1-.2.1-.6.2-.8.2-.5.1-.8-.1-1.3-1-2.3-1.9-4.5-2.9-6.7-.6-.1-1.2-.1-1.7-.2 0-.2 0-.4 0-.6 1.3-.6 2.5-1.2 4.1-2-.2.6-.4.8-.6 1-.1.2-.5.4-.7.6 1.3 2.5 2.5 5 3.7 7.5 1.6 0 2.5-.8 2.7-2.4.5-.4.8-.7 1-1.2z"></path><path d="m172.8 45.1c-.1-.4-.2-.8-.5-1.6 1.3.8 2.4 1.6 3.8 2.5-.8.1-1.3.2-2 .4-1.3 2-2.7 4.2-4.2 6.5 1 .6 1.8 1.1 2.7 1.6.7-.1 1.6-.2 2.5-.5 0 .2 0 .6-.1.7-.7.5-1.6 1-2.3 1.3-2.2-1.6-4.1-3-6.3-4.7h1.7c2-1.5 3-3.9 4.7-6.2z"></path><path d="m162.2 48.1c.5.6.7 1.1 1.1 1.4-.2.1-.4.4-.5.2-1.1-.4-2.2-.8-3.1-1.3-.4-.2-.7-.6-1.2-1.1 1-.1 1.4-.1 2-.2 1-2.4 2.7-4.4 2.9-7.2-.1-.2-.5-.6-.7-1.1.4-.1.5-.2.6-.2.5.2 1 .4 1.2.6.5.5 1 .6 1.7.7.4 0 .7.5 1.4 1-1 .1-1.4.2-2.2.4-1 2.2-2.1 4.4-3.2 6.8z"></path><path d="m126 30.2h4.9c.4 1.2-1.2.6-1.2 1.4-.2 2.4-.4 4.9-.6 7.2.5.6 1.6.5 1.3 1.6-1.3 0-2.7 0-4.3 0 .2-.4.2-.6.5-.7.8-.5 1-1.2 1-2 0-2.2 0-4.3 0-6.3-.5-.5-1-.7-1.6-1.2z"></path><path d="m66.2 51.5c.5.5-.1.5-.1.7.7.5.2 1.4 1 1.9.5.4 1.1.6 1.4 1.3.7 1.2 1.8 2.3 2.7 3.5h1.7c0 .2.1.5 0 .6-1 .8-1.9 1.6-2.9 2.4 0-.6 0-1.2 0-1.8-1-1.1-1.8-2-2.6-3.1-.8-1-1.6-1.9-2.4-2.9-.5.1-1 .2-1.7.4.8-1.3 1.8-2.3 2.9-3z"></path><path d="m48.9 77.4c.1.1.2.2.4.4l-.1.1c-.2-.2-.3-.4-.3-.5-.1 0 0 0 0 0z"></path></svg> 