<svg id="Layer_1" data-name="Layer 1" xmlns="http://www.w3.org/2000/svg" viewBox="0 0 50 36"><defs><style>.cls-1{fill:#fff;}</style></defs><title>amex</title><path class="cls-1" d="M5,0A5,5,0,0,0,0,5V31a5,5,0,0,0,5,5H45a5,5,0,0,0,5-5V5a5,5,0,0,0-5-5ZM5,2H45a3,3,0,0,1,3,3V31a3,3,0,0,1-3,3H5a3,3,0,0,1-3-3V5A3,3,0,0,1,5,2ZM8.56,12.91l-3.72,8.5H7.06l.82-1.91h4.18l.82,1.91h4.21V15.09l2.82,6.32h1.9l2.85-6.22v6.22h2.09v-8.5H23.41l-2.57,5.71-2.56-5.71H15v8.18l-3.66-8.18Zm20.94,0v8.53h8L40,18.59l2.47,2.85h2.65l-3.74-4.38,3.74-4.15H42.47l-2.41,2.65-2.31-2.65ZM9.91,14.69l1.31,3H8.66Zm21.65,0,5.1,0,2,2.31-2.28,2.56H31.56V17.94h4.63V16.31H31.56Z"/></svg>