<svg enable-background="new 0 0 500 500" viewBox="0 0 500 500" xmlns="http://www.w3.org/2000/svg"><path d="m50 70c-27.5 0-50 22.5-50 50v260c0 27.5 22.5 50 50 50h400c27.5 0 50-22.5 50-50v-260c0-27.5-22.5-50-50-50zm0 20h400c16.7 0 30 13.3 30 30v260c0 16.7-13.3 30-30 30h-400c-16.7 0-30-13.3-30-30v-260c0-16.7 13.3-30 30-30zm120 40c-66.2 0-120 53.8-120 120s53.8 120 120 120c30.8 0 58.8-11.8 80-30.9 21.2 19.1 49.3 30.9 80 30.9 66.2 0 120-53.8 120-120s-53.8-120-120-120c-30.7 0-58.8 11.8-80 30.9-21.2-19.1-49.2-30.9-80-30.9zm160 20c55.4 0 100 44.6 100 100s-44.6 100-100 100c-25.5 0-48.9-9.3-66.6-25 16.5-20.6 26.6-46.6 26.6-75s-10-54.4-26.6-75c17.7-15.7 41.1-25 66.6-25z" fill="#fff"/></svg>