<svg enable-background="new 0 0 500 500" viewBox="0 0 500 500" xmlns="http://www.w3.org/2000/svg"><path d="m50 70c-27.5 0-50 22.5-50 50v260c0 27.5 22.5 50 50 50h400c27.5 0 50-22.5 50-50v-260c0-27.5-22.5-50-50-50zm0 20h400c16.7 0 30 13.3 30 30v260c0 16.7-13.3 30-30 30h-400c-16.7 0-30-13.3-30-30v-260c0-16.7 13.3-30 30-30zm246.9 104.1c-31 0-46.9 15.3-46.9 34.7 0 35.1 40.6 30.4 40.6 48.4 0 3-2.3 10.3-19.4 10.3s-28.1-6.6-28.1-6.6l-5.3 23.8s11.1 6.2 32.2 6.2 50.3-16.2 50.3-39.7c0-28.3-40.6-30.5-40.6-43.1 0-6.4 5-11.2 19.7-11.2 9.5 0 20.3 7.2 20.3 7.2l5-24.4s-14.2-5.6-27.8-5.6zm-132.2 2.1-26.9 79.4s-1.8-6.8-2.5-10.9c-15.3-34.5-40.3-47.2-40.3-47.2l23.8 90h32.5l45-111.2h-31.6zm43.1 0-17.5 111.2h29.7l17.8-111.2zm160.3 0-48.4 111.2h29.4l5.9-15.9h36.9l3.1 15.9h26.9l-22.8-111.2zm-305.6.4s58 18 71.6 61.6l-10-50.6s-4.3-10.9-15.9-10.9h-45.7zm316.9 31.8 8.1 41.9h-24.4z" fill="#fff"/></svg>