<?xml version="1.0" encoding="UTF-8"?> <svg xmlns="http://www.w3.org/2000/svg" xmlns:xlink="http://www.w3.org/1999/xlink" version="1.1" id="Layer_1" x="0px" y="0px" viewBox="0 0 60.8 43" style="enable-background:new 0 0 60.8 43;" xml:space="preserve"> <style type="text/css"> .st0{fill-rule:evenodd;clip-rule:evenodd;fill:#2D4D58;} </style> <path class="st0" d="M60.8,21.5v-9.1c-0.2-0.5-0.5-0.9-0.8-1.3c-0.7-0.7-1.6-1.1-2.6-1.1h-0.9c-0.3-1.7-1.1-3.3-2.3-4.6 s-2.7-2.2-4.4-2.7c-0.3-0.8-0.9-1.5-1.6-1.9C47.4,0.3,46.6,0,45.7,0c-1.3,0-2.6,0.6-3.4,1.7c-4.1-0.4-8.1-0.6-11.8-0.6 c-3.7,0-7.7,0.2-11.8,0.6C18,0.6,16.7,0,15.4,0c-0.9,0-1.8,0.3-2.5,0.8c-0.7,0.5-1.3,1.2-1.6,2.1C10,3.7,5.8,6.7,4.8,10H3.7 c-1,0-1.9,0.4-2.6,1.1C0.4,11.8,0,12.7,0,13.7v7.8h2.9v-7.8c0-0.2,0.1-0.4,0.2-0.6c0.1-0.1,0.3-0.2,0.6-0.2h0.8l0,8.6h9.5l0-17.3 c0-0.4,0.1-0.8,0.3-1.1c0.3-0.3,0.6-0.4,1-0.4c0.4,0,0.8,0.2,1,0.4c0.3,0.3,0.4,0.7,0.3,1.1v17.3h27.6V4.2c0-0.4,0.1-0.8,0.3-1.1 c0.3-0.3,0.6-0.4,1-0.4c0.4,0,0.8,0.2,1,0.4c0.3,0.3,0.4,0.7,0.3,1.1v17.3h9.5v-8.6h0.8c0.2,0,0.4,0.1,0.6,0.2 c0.1,0.1,0.2,0.3,0.2,0.6v7.8H60.8z M53.6,19.8H50v-6.6c2.2,0.5,3.6,1.8,3.6,2.6V19.8z M53.6,11.5v0.1c-1.1-0.7-2.4-1.1-3.6-1.3V5.8 c1.1,0.5,2,1.3,2.6,2.3C53.2,9.1,53.6,10.3,53.6,11.5z M41.4,19.8H19.6l0-7.4c3.8-0.2,7.5-0.3,10.9-0.3c3.4,0,7.1,0.1,10.9,0.3 L41.4,19.8z M41.4,4.5v5.1C37.6,9.4,34,9.3,30.5,9.3s-7.1,0.1-10.9,0.3l0-5.1C23.4,4.1,27.1,4,30.5,4C34,4,37.6,4.1,41.4,4.5z M11,19.8H7.4v-4.1c0-0.8,1.5-2,3.6-2.6L11,19.8z M11,6.6v3.6c-1.3,0.2-2.5,0.7-3.7,1.3v-0.1C7.4,10.1,9.2,8.2,11,6.6z"></path> <path class="st0" d="M60.8,21.5v9.1c-0.2,0.5-0.5,0.9-0.8,1.3c-0.7,0.7-1.6,1.1-2.6,1.1h-0.9c-0.3,1.7-1.1,3.3-2.3,4.6 s-2.7,2.2-4.4,2.7c-0.3,0.8-0.9,1.5-1.6,1.9c-0.7,0.5-1.5,0.7-2.4,0.8c-1.3,0-2.6-0.6-3.4-1.7c-4.1,0.4-8.1,0.6-11.8,0.6 c-3.7,0-7.7-0.2-11.8-0.6C18,42.4,16.7,43,15.4,43c-0.9,0-1.8-0.3-2.5-0.8c-0.7-0.5-1.3-1.2-1.6-2.1C10,39.3,5.8,36.4,4.8,33H3.7 c-1,0-1.9-0.4-2.6-1.1C0.4,31.3,0,30.3,0,29.4v-7.8h2.9v7.8c0,0.2,0.1,0.4,0.2,0.6c0.1,0.1,0.3,0.2,0.6,0.2h0.8l0-8.6h9.5l0,17.3 c0,0.4,0.1,0.8,0.3,1.1c0.3,0.3,0.6,0.4,1,0.4c0.4,0,0.8-0.2,1-0.4c0.3-0.3,0.4-0.7,0.3-1.1V21.5h27.6v17.3c0,0.4,0.1,0.8,0.3,1.1 c0.3,0.3,0.6,0.4,1,0.4c0.4,0,0.8-0.2,1-0.4c0.3-0.3,0.4-0.7,0.3-1.1V21.5h9.5v8.6h0.8c0.2,0,0.4-0.1,0.6-0.2 c0.1-0.1,0.2-0.3,0.2-0.6v-7.8H60.8z M53.6,23.2H50v6.6c2.2-0.5,3.6-1.8,3.6-2.6L53.6,23.2z M53.6,31.6v-0.1 c-1.1,0.7-2.4,1.1-3.6,1.3v4.4c1.1-0.5,2-1.3,2.6-2.3C53.2,33.9,53.6,32.7,53.6,31.6z M41.4,23.2H19.6l0,7.4 c3.8,0.2,7.5,0.3,10.9,0.3c3.4,0,7.1-0.1,10.9-0.3L41.4,23.2z M41.4,38.5v-5.1c-3.8,0.2-7.4,0.3-10.9,0.3s-7.1-0.1-10.9-0.3l0,5.1 c3.8,0.4,7.5,0.5,10.9,0.5C34,39.1,37.6,38.9,41.4,38.5z M11,23.2H7.4v4.1c0,0.8,1.5,2,3.6,2.6L11,23.2z M11,36.4v-3.6 c-1.3-0.2-2.5-0.7-3.7-1.3v0.1C7.4,33,9.2,34.9,11,36.4z"></path> </svg> 