<?xml version="1.0" encoding="UTF-8"?> <svg xmlns="http://www.w3.org/2000/svg" width="25" height="65" viewBox="0 0 25 65" fill="none"><path d="M18.3667 21.0786L18.5689 20.5175C19.5254 17.8674 19.3929 14.9466 18.2008 12.394L16.4804 8.71401L16.922 8.06097V8.06046C17.1042 7.78785 17.2033 7.46852 17.2074 7.14046V3.13859C17.2074 2.52715 16.9635 1.94033 16.5303 1.50914C16.0969 1.07737 15.5096 0.83608 14.8982 0.838643H10.2982C9.68827 0.838643 9.10299 1.08097 8.67174 1.51221C8.2405 1.94346 7.99817 2.52874 7.99817 3.13864V7.18677C8.00228 7.51432 8.10137 7.83416 8.28362 8.10677L8.7159 8.75982L6.9955 12.4398C5.80341 14.9924 5.67097 17.9136 6.6274 20.5633L6.82968 21.1244L2.47821 24.6391L2.37707 24.731C1.25274 25.8517 0.623293 27.3754 0.628944 28.9628V59.8656C0.631511 61.0475 1.10281 62.18 1.93913 63.0148C2.77545 63.8496 3.90898 64.3183 5.09078 64.3183H20.1052C21.2855 64.3157 22.4165 63.846 23.2508 63.0112C24.0856 62.1769 24.5553 61.046 24.5579 59.8656V28.9628C24.5564 27.3851 23.9274 25.8727 22.8098 24.7587L18.3667 21.0786ZM14.4381 3.59862V6.86488L13.8493 7.78488C13.5263 8.27927 13.4812 8.9051 13.7296 9.44062L15.7078 13.6361C15.9804 14.2496 16.1719 14.8959 16.2782 15.5587H8.91815C9.03315 14.8816 9.23697 14.2224 9.5255 13.5991L11.4943 9.40369V9.4042C11.5338 9.30871 11.5646 9.21013 11.5862 9.10951H12.5981V6.35871H10.7581V3.59871L14.4381 3.59862ZM3.39813 39.4786H21.7981V54.1986H3.39813V39.4786ZM21.7981 59.8658C21.793 60.7987 21.0383 61.5534 20.1055 61.5585H5.09107C4.15823 61.5533 3.40352 60.7987 3.3984 59.8658V56.9585H21.7984L21.7981 59.8658ZM3.39813 36.7186V28.9628C3.40224 28.129 3.73236 27.3301 4.31813 26.7366L9.21227 22.7531L9.31341 22.6612L9.31392 22.6607C9.78111 22.193 9.93513 21.4974 9.70923 20.8762L9.24923 19.6066C9.10189 19.1876 8.991 18.7564 8.9181 18.3185H16.2781C16.2021 18.7569 16.0881 19.1876 15.9377 19.6066L15.4777 20.8762C15.2518 21.4974 15.4058 22.1931 15.8735 22.6607L20.8781 26.7366C21.4639 27.3301 21.794 28.129 21.7981 28.9627V36.7186L3.39813 36.7186Z" fill="#2D4D58"></path><path d="M12.5981 27.5186C11.1339 27.5186 9.73035 28.1002 8.69483 29.1353C7.65983 30.1708 7.07812 31.5744 7.07812 33.0386H9.83813C9.83813 32.0523 10.3644 31.1415 11.2181 30.6481C12.0719 30.1553 13.1244 30.1553 13.9781 30.6481C14.8319 31.1415 15.3581 32.0523 15.3581 33.0386H18.1181C18.1181 31.5743 17.5365 30.1708 16.5014 29.1353C15.4659 28.1003 14.0622 27.5186 12.5981 27.5186Z" fill="#2D4D58"></path></svg> 