<svg width="98" height="41" viewBox="0 0 98 41" fill="none" xmlns="http://www.w3.org/2000/svg">
<path d="M29.1301 24.3085C29.2064 24.3085 29.2469 24.3465 29.3092 24.405C29.3537 24.4469 29.4094 24.4992 29.4973 24.5555C29.5807 24.5555 29.6609 24.5965 29.7553 24.6448C29.9284 24.7334 30.1494 24.8464 30.5253 24.7761L30.553 24.7777C30.7143 24.7871 30.8398 24.7944 31.2085 24.7102C31.5278 24.6378 32.1536 24.4698 32.1312 24.0319C32.1312 24.0319 32.1855 23.7553 32.0003 23.7553C31.9205 23.8639 31.1575 23.8639 30.8957 23.4787C30.7105 23.4787 30.6051 23.3404 30.4231 22.8431C30.1102 22.234 29.6058 21.7137 29.4749 21.6017C29.4749 21.6017 29.1748 21.6215 29.1492 21.3185C28.869 21.152 28.5779 21.0088 28.3488 20.8961C28.1839 20.815 28.051 20.7496 27.9775 20.7028C28.012 20.6774 28.0388 20.6515 28.0709 20.6206C28.1221 20.5714 28.1864 20.5094 28.3159 20.4163C28.3159 20.4163 28.6671 19.9092 29.0918 19.8268C29.3312 19.5206 30.1837 19.0629 30.8414 19.0366C30.8414 19.0366 31.448 19.2012 31.3426 18.5953C31.3426 18.5953 31.3937 18.3187 31.1862 18.2924C31.1862 18.2924 30.9499 18.3187 30.7105 18.2924C30.7105 18.2924 30.2348 18.2726 30.1294 18.3286C30.1294 18.3286 29.6633 18.434 29.4015 18.4043C29.164 18.4201 28.8141 18.3755 28.5196 18.338C28.3231 18.3129 28.1513 18.291 28.0541 18.2924C28.0541 18.2924 27.6072 18.2924 27.3965 18.401C27.318 18.4427 27.3227 18.4734 27.3329 18.5394C27.3364 18.5621 27.3405 18.5888 27.3422 18.6216C27.3442 18.6429 27.3454 18.6633 27.3465 18.6827C27.3506 18.7531 27.3539 18.8101 27.3965 18.8489C27.4788 18.931 27.6069 18.9682 27.7301 19.0039C27.9032 19.0542 28.0666 19.1016 28.0797 19.2671C28.0652 19.3399 28.0298 19.3745 27.9859 19.4172C27.9426 19.4595 27.891 19.5097 27.8434 19.6128C27.7909 19.6458 27.7621 19.6979 27.7333 19.7497C27.6904 19.8271 27.6478 19.9039 27.5273 19.9158C27.3134 19.9791 27.2556 20.039 27.1997 20.097C27.1597 20.1384 27.1207 20.1789 27.0261 20.2187C26.7399 20.4182 26.6411 20.5306 26.5814 20.5986C26.5426 20.6428 26.5203 20.6681 26.4738 20.6863C26.3684 20.8246 25.6564 21.6248 25.7362 20.548C25.6572 20.3598 25.6824 20.2353 25.7089 20.1046C25.7241 20.0295 25.7397 19.9523 25.7362 19.8598C25.7346 19.8235 25.7232 19.7782 25.7102 19.726C25.6735 19.5792 25.6232 19.3781 25.7362 19.1716C25.7362 18.9828 25.7514 18.87 25.7628 18.7854C25.778 18.6722 25.7865 18.6096 25.7426 18.4833C25.763 18.4281 25.761 18.3787 25.7574 18.2879C25.7518 18.1512 25.7426 17.9209 25.8001 17.4362C25.7923 17.2609 25.7974 17.1618 25.8048 17.0211C25.8124 16.8738 25.8224 16.6806 25.8224 16.3067C25.8224 16.295 25.8225 16.2835 25.8226 16.2721C25.8239 16.1042 25.8249 15.976 25.5319 16.0038C25.4653 15.9955 25.3802 16.0144 25.2659 16.0399C25.0186 16.0951 24.6347 16.1807 24.0058 16.0861L23.2683 16.0598C23.2683 16.0598 23.032 16.1026 22.8756 16.0762C22.8756 16.0762 22.6904 16.1421 22.6649 16.3627C22.6649 16.3627 22.5723 16.748 22.9554 16.6953C23.0183 16.7004 23.0777 16.6834 23.1359 16.6668C23.1901 16.6513 23.2432 16.6361 23.297 16.6393C23.3185 16.645 23.3389 16.6493 23.3583 16.6534C23.529 16.6891 23.6212 16.7084 23.6929 17.5482C23.6929 17.5482 23.661 17.8314 23.8238 17.8807C23.8238 17.8807 24.1335 17.9466 24.2452 18.0454C24.1564 18.1519 24.0314 18.2116 23.9206 18.2645C23.8601 18.2934 23.8039 18.3203 23.76 18.3516C23.7025 18.4372 23.6674 18.6513 23.6929 18.9542C23.662 19.2211 23.6778 19.4482 23.6895 19.6159C23.6971 19.7255 23.703 19.8097 23.6929 19.8631C23.6784 19.9881 23.7203 20.0401 23.7541 20.0822C23.78 20.1143 23.8011 20.1405 23.7887 20.1891C23.7776 20.2293 23.7559 20.249 23.7336 20.2695C23.6918 20.3076 23.6475 20.3481 23.6642 20.5282C23.6523 20.6608 23.6906 20.7138 23.7246 20.7607C23.7454 20.7896 23.7647 20.8161 23.7695 20.8575C23.7695 20.8575 23.7216 21.0353 23.6386 21.2165C23.6386 21.2165 23.6099 21.4107 23.6131 21.6017C23.6054 21.9013 23.6384 22.0651 23.6601 22.1728C23.6835 22.2887 23.6937 22.3396 23.6259 22.425C23.6588 22.5429 23.6541 22.5917 23.6475 22.6604C23.6432 22.7049 23.6381 22.7578 23.6418 22.8431C23.6332 23.0332 23.6312 23.1875 23.6296 23.3138C23.626 23.5929 23.6241 23.7355 23.5567 23.8261C23.4864 23.9208 23.3446 23.9589 23.0548 24.0368C23.0013 24.0512 22.9428 24.0669 22.8788 24.0846C22.8572 24.0846 22.8312 24.0829 22.8028 24.0811C22.6921 24.0741 22.5437 24.0646 22.4701 24.1406C22.4254 24.1899 22.4126 24.2854 22.435 24.4172C22.435 24.4172 22.4254 24.5719 22.4382 24.7102C22.5435 24.7925 22.8373 24.809 23.4056 24.7728C23.8488 24.7536 23.963 24.7141 24.0936 24.6689C24.2095 24.6288 24.3382 24.5843 24.721 24.5456C25.0054 24.5456 25.163 24.6126 25.2999 24.6708C25.4412 24.7309 25.5606 24.7817 25.7746 24.7399C25.9278 24.7497 26.1258 24.7432 26.2982 24.6971C26.5983 24.6246 26.7164 24.5884 26.6972 24.1932C26.6972 24.1932 26.7228 23.8903 26.461 23.8903C26.461 23.8903 25.8671 24.0418 25.6181 23.6861C25.5716 23.5601 25.578 23.3903 25.5892 23.0971C25.5903 23.0685 25.5914 23.0388 25.5926 23.0078C25.5926 23.0078 25.5606 22.6159 25.6915 22.2932C25.7841 22.1516 26.0332 22.0035 26.2375 21.9211C26.5216 21.6017 26.9527 21.4206 27.1857 21.8915C27.2592 21.9639 27.6806 22.4447 27.8849 22.8135C27.9055 22.856 27.933 22.88 27.9665 22.9092C28.0213 22.9571 28.0923 23.019 28.1755 23.1988C28.1588 23.3258 28.5461 23.6992 28.8385 23.9811C28.9934 24.1304 29.1216 24.254 29.1492 24.3019L29.1301 24.3085Z" fill="#AF323B"/>
<path d="M1.20756 24.665C1.07432 24.7184 0.977859 24.7571 0.564927 24.7168L0.558542 24.7069C-0.0991561 24.7893 0.0062033 24.404 0.0062033 24.404C-0.015784 23.976 0.175164 23.9994 0.295945 24.0142C0.315465 24.0165 0.333164 24.0187 0.347823 24.0187C0.558542 24.0451 0.87462 24.0187 0.87462 24.0187C1.56161 23.8775 1.62957 23.5202 1.67305 23.2915C1.68535 23.2269 1.69568 23.1725 1.7175 23.1362C1.80268 23.0331 1.79549 22.951 1.78627 22.8456C1.77959 22.7693 1.77184 22.6808 1.79731 22.5633C1.83225 22.4088 1.82471 22.2946 1.81624 22.1666C1.80847 22.0489 1.79992 21.9196 1.82285 21.7367C1.88374 21.3621 1.87698 21.11 1.87247 20.9419C1.87012 20.8544 1.86838 20.7896 1.87713 20.7423C1.98575 20.5144 1.94827 20.487 1.90967 20.4588C1.88246 20.4389 1.85469 20.4186 1.87713 20.3274C1.98054 20.217 1.9489 20.1512 1.91695 20.0848C1.89267 20.0344 1.86821 19.9836 1.90267 19.9125C1.96229 19.5713 1.95124 19.4201 1.94141 19.2854C1.93491 19.1965 1.92894 19.1148 1.94418 18.9905C1.89309 18.8225 1.92502 18.3813 1.99207 18.1606C1.92399 18.028 1.92424 17.8446 1.92448 17.6664C1.92464 17.5437 1.9248 17.4236 1.90267 17.3242C2.00803 16.7447 1.48443 16.636 1.48443 16.636C1.2769 16.6755 1.16516 16.6624 1.16516 16.6624C1.06806 16.6624 1.0017 16.6946 0.939043 16.7251C0.849235 16.7687 0.767028 16.8087 0.612818 16.7447C0.478724 16.4417 0.663901 16.1651 0.663901 16.1651C0.849078 16.0301 1.08534 16.0565 1.08534 16.0565C1.42696 16.0005 1.82285 16.0861 1.82285 16.0861C2.35153 16.177 2.62145 16.1409 2.81383 16.1152C2.92817 16.0999 3.01511 16.0883 3.11271 16.1092C3.24361 16.0532 3.74486 16.1092 3.74486 16.1092C3.84039 16.1662 3.88401 16.2405 3.93161 16.3215C3.97469 16.3949 4.02102 16.4738 4.11203 16.5504C4.18153 16.7928 4.37286 17.0953 4.5477 17.3718C4.71017 17.6287 4.8584 17.8631 4.88147 18.0059C4.94532 18.3879 5.59983 19.5305 5.79778 19.7149C5.79778 19.9322 5.98295 20.1561 5.98295 20.1561C5.99791 20.502 6.11003 20.6077 6.21417 20.7058C6.26568 20.7543 6.31524 20.801 6.35012 20.874C6.50337 21.2626 6.79071 21.5227 6.79071 21.5227C7.00781 21.3943 7.16426 21.0683 7.16426 21.0683C7.20962 21.0098 7.22786 20.9615 7.24858 20.9065C7.2687 20.8532 7.29116 20.7937 7.34305 20.7126C7.52503 20.5184 7.55696 20.4591 7.61123 20.1858C7.79322 19.8894 8.21785 19.0003 8.21785 19.0003C8.29156 18.8312 8.36528 18.7542 8.4283 18.6884C8.49904 18.6145 8.55631 18.5546 8.58501 18.3944C8.58501 18.3003 8.64418 18.2397 8.71519 18.167C8.74851 18.1329 8.78443 18.0961 8.81808 18.052C8.81808 17.884 8.96813 17.3901 8.96813 17.3901C9.00749 17.2985 9.06188 17.204 9.12199 17.0997C9.23255 16.9076 9.36242 16.6821 9.45343 16.3792C9.71523 15.9939 10.1622 16.0762 10.1622 16.0762C10.3167 16.0643 10.4176 16.0861 10.5208 16.1083C10.6458 16.1352 10.7742 16.1629 11.0051 16.1322C11.2104 16.1924 11.4304 16.1556 11.6711 16.1152C11.8646 16.0827 12.0715 16.048 12.2949 16.0598C12.5823 16.0334 12.7675 16.1157 12.7675 16.1157C13.0293 16.1355 12.9782 16.3989 12.9782 16.3989C13.0835 16.8402 12.7164 16.7019 12.7164 16.7019C12.0447 16.6342 12.0156 16.9446 11.9964 17.1488C11.9922 17.1931 11.9885 17.2323 11.9789 17.2617C12.0176 17.5695 11.9626 17.6528 11.9155 17.7241C11.8695 17.7939 11.8311 17.8521 11.8958 18.0981C11.848 18.6612 11.848 19.7709 11.848 19.7709C11.848 20.1179 11.8051 20.191 11.7792 20.2352C11.7577 20.2719 11.7479 20.2886 11.7841 20.4262C11.7685 20.5767 11.785 20.6171 11.8067 20.6705C11.8207 20.7047 11.8367 20.7442 11.848 20.8213C11.7957 21.039 11.8091 21.1255 11.8264 21.2369C11.8356 21.2957 11.8458 21.3613 11.848 21.4568C11.853 21.7038 11.8062 21.7569 11.7758 21.7915C11.7482 21.8229 11.734 21.839 11.7841 21.9705C11.733 22.2208 11.848 22.3657 11.848 22.3657C11.911 22.6996 11.8972 22.8732 11.8856 23.02C11.876 23.141 11.8679 23.2437 11.9054 23.4029C11.8001 24.0088 12.5599 23.8442 12.5599 23.8442C12.8441 23.831 12.9558 23.8639 13.0325 23.8903C13.058 23.999 13.0325 24.1504 13.0325 24.1504C13.0835 24.7234 12.4514 24.73 12.1896 24.73C11.7358 24.73 11.5697 24.6994 11.3907 24.6665C11.227 24.6364 11.0526 24.6043 10.6379 24.5917C10.2408 24.5751 10.0821 24.616 9.89136 24.6651C9.74016 24.704 9.56886 24.748 9.24271 24.7728C8.95537 24.8024 8.61055 24.6378 8.66483 24.3052C8.66483 24.0187 8.77019 23.9759 8.95537 24.0023C9.69064 24.0023 9.7138 23.7028 9.72685 23.534C9.73154 23.4734 9.73492 23.4297 9.76951 23.4227C9.82059 23.3371 9.90041 23.1593 9.90041 23.1593C9.92548 23.0832 9.90012 23.0563 9.87062 23.0251C9.83627 22.9887 9.7963 22.9464 9.82378 22.8135C9.82378 22.7814 9.82258 22.7136 9.82101 22.6252L9.821 22.6245L9.82099 22.6243C9.8158 22.3315 9.80664 21.815 9.82378 21.6281C9.82378 21.4338 9.85252 21.2132 9.85252 21.2132C9.82865 20.9301 9.84938 20.6787 9.87304 20.3917L9.87806 20.3307C9.96745 20.2418 10.009 19.975 9.9036 19.8631C9.85252 19.5041 9.9036 19.0366 9.9036 19.0366C9.95468 18.8818 9.91956 18.7303 9.91956 18.7303C9.9451 18.5953 9.86529 18.1639 9.86529 18.1639C9.82059 17.8248 9.53325 18.1277 9.40234 18.4866C9.35361 18.6283 9.29942 18.7206 9.23439 18.8314C9.15882 18.9601 9.06862 19.1138 8.95537 19.3988C8.8947 19.5502 8.69356 19.9487 8.69356 19.9487C8.54351 20.0606 8.33598 20.4295 8.3264 20.7225C8.17315 20.9168 8.09014 21.2461 8.09014 21.2461C8.03586 21.4404 7.58889 22.2405 7.58889 22.2405C7.55591 22.3657 7.50713 22.4408 7.45132 22.5268C7.37206 22.6489 7.27862 22.7928 7.19618 23.1329C7.01739 23.5347 6.53848 24.5258 6.19367 25C5.95422 24.7794 5.71796 24.5061 5.69242 24.3118C5.71796 24.1768 5.56152 24.0648 5.56152 24.0648C5.54493 23.9451 5.35343 23.6298 5.16965 23.3273C4.99966 23.0474 4.83627 22.7784 4.824 22.6851C4.83265 22.528 4.76252 22.4435 4.69646 22.3639C4.64064 22.2967 4.58774 22.2329 4.58774 22.1319C4.53 21.9713 4.4483 21.8631 4.38203 21.7753C4.32737 21.703 4.28321 21.6445 4.27166 21.582C4.33705 21.3245 4.23028 21.2166 4.13375 21.1191C4.07474 21.0595 4.01955 21.0038 4.00986 20.9201C3.83745 20.5151 3.32981 19.5601 3.17656 19.4515C3.12229 19.1485 3.03608 19.0168 3.03608 19.0168C2.87645 18.7402 2.72001 18.9345 2.74555 19.0991V19.3461C2.64019 19.8697 2.69446 22.5929 2.74555 22.9518C2.81577 23.8268 3.17022 23.8886 3.50446 23.9469C3.55011 23.9548 3.59538 23.9627 3.63951 23.9726C3.80872 23.966 3.89173 23.9792 3.92685 24.0352C3.95239 24.134 3.93004 24.2756 3.93004 24.2756C4.06414 24.8815 3.35216 24.7168 3.35216 24.7168C3.02442 24.7513 2.77584 24.6815 2.53324 24.6135C2.40482 24.5775 2.27805 24.5419 2.14213 24.5225C1.5249 24.5376 1.34629 24.6093 1.20756 24.665Z" fill="#AF323B"/>
<path fill-rule="evenodd" clip-rule="evenodd" d="M32.5048 22.6884C33.0134 23.0455 32.8847 23.1923 32.8316 23.2528C32.8221 23.2637 32.815 23.2718 32.8145 23.2778C32.8113 23.3173 32.923 23.5017 33.0092 23.5676C33.1899 23.6576 33.2312 23.7344 33.2685 23.8037C33.2898 23.8434 33.3099 23.8807 33.354 23.9166C33.354 23.9166 33.9926 24.348 34.414 24.5851C34.414 24.5851 34.7333 24.6411 34.9185 24.7794C34.9185 24.7794 35.6049 24.8913 35.8188 24.9737C36.8532 24.9737 37.4439 24.8222 37.8845 24.6938C38.0186 24.5818 38.0984 24.5555 38.3091 24.5818C38.3257 24.4727 38.4097 24.4484 38.5032 24.4213C38.5537 24.4066 38.6069 24.3912 38.6539 24.3612C38.7984 24.2293 38.9005 24.1812 39.0097 24.1297C39.1105 24.0822 39.2174 24.0318 39.3691 23.91C39.3691 23.91 39.6852 23.6038 39.6086 23.3239C39.6323 23.1953 39.5483 23.1207 39.4028 22.9917C39.3919 22.982 39.3807 22.972 39.3691 22.9617C39.1877 22.9318 39.1603 22.9886 39.1303 23.0505C39.1107 23.091 39.09 23.1338 39.0243 23.156C38.8104 23.4622 37.4088 24.2426 36.3233 23.7981C36.2348 23.8291 36.163 23.7742 36.0851 23.7146C36.0224 23.6666 35.9557 23.6156 35.8731 23.6038C35.8146 23.5646 35.7499 23.5319 35.6829 23.4981C35.4574 23.3843 35.2061 23.2575 35.0781 22.8234C35.0781 22.8234 34.7333 22.3788 34.7588 21.9574C34.7588 21.9574 34.5737 21.3712 35.1036 21.4272H35.739C35.9017 21.4501 35.9559 21.4219 36.0325 21.3821C36.055 21.3704 36.0796 21.3576 36.1094 21.3449C36.3878 21.4425 36.5303 21.4266 36.6578 21.4124C36.7497 21.4021 36.8338 21.3927 36.9554 21.4272C37.0622 21.317 37.7223 21.3657 38.0525 21.39C38.1367 21.3962 38.1995 21.4009 38.2261 21.4009C38.5167 21.3185 39.5766 21.3449 39.5766 21.3449C39.6522 21.3214 39.7176 21.3255 39.7712 21.3289C39.9059 21.3373 39.9666 21.3411 39.9278 20.8938C39.8925 20.7999 39.8757 20.6974 39.8571 20.5827C39.8049 20.2629 39.7375 19.8488 39.2063 19.2671C39.1233 19.1178 39.0023 19.056 38.8696 18.9884C38.7624 18.9337 38.6475 18.8751 38.539 18.7632C38.5095 18.7448 38.4803 18.7262 38.4512 18.7077C38.2883 18.6041 38.1267 18.5013 37.91 18.4175C37.3926 18.2057 36.9272 18.172 36.5948 18.1479C36.4 18.1338 36.2509 18.123 36.1636 18.0816L36.1231 18.0881C35.962 18.1141 35.8572 18.131 35.6624 18.131C35.5023 18.1861 35.3992 18.191 35.2321 18.1991C35.1493 18.2031 35.0507 18.2079 34.9217 18.2199C34.8717 18.2248 34.8298 18.2571 34.7816 18.2942C34.7004 18.3567 34.6016 18.4328 34.4172 18.4142C34.2065 18.4142 33.6542 18.7929 33.3062 19.1123C33.2185 19.1919 33.182 19.2573 33.1494 19.3158C33.1119 19.383 33.0795 19.441 32.9805 19.5009C32.9014 19.7962 32.8145 19.8817 32.7421 19.953C32.6918 20.0024 32.6485 20.045 32.6197 20.1463C32.6016 20.2085 32.5838 20.2677 32.5666 20.3251L32.5664 20.3257C32.4379 20.7538 32.3405 21.0781 32.3771 21.7631C32.3118 21.9158 32.345 21.9923 32.3946 22.107C32.4445 22.2224 32.5112 22.3763 32.5112 22.6851L32.5048 22.6884ZM35.2053 19.55C35.4371 19.1805 35.605 18.9128 36.2115 18.8653C36.6106 18.8917 36.767 19.0596 36.767 19.0596C37.4024 19.3099 37.6418 20.3998 37.6418 20.3998C37.6961 20.6501 37.2715 20.6501 37.2715 20.6501C36.9011 20.5941 36.6106 20.6501 36.6106 20.6501C36.5169 20.6514 36.3091 20.646 36.0795 20.64C35.7304 20.6308 35.331 20.6204 35.2058 20.6303C34.861 20.6632 34.8514 20.492 34.8514 20.492C34.8993 20.1989 34.9408 19.952 35.0717 19.7577C35.12 19.686 35.1634 19.6168 35.2048 19.5509L35.2049 19.5507L35.2053 19.55Z" fill="#AF323B"/>
<path fill-rule="evenodd" clip-rule="evenodd" d="M17.4456 24.598C17.1811 24.6888 16.8025 24.8188 16.1422 24.7596L16.1453 24.7497C15.5483 24.9078 14.9225 24.5588 14.632 24.3908C14.512 24.1874 14.3959 24.0634 14.2923 23.9528C14.0874 23.734 13.9316 23.5675 13.8913 22.9419C13.8762 22.4757 13.9657 22.2579 14.0422 22.0717C14.0791 21.9817 14.1131 21.8991 14.1307 21.7993C14.2211 21.7565 14.2269 21.73 14.2381 21.6794C14.2561 21.5977 14.2879 21.4531 14.7118 21.0749C14.8449 20.9761 14.9657 20.9275 15.0799 20.8816C15.1903 20.8372 15.2947 20.7952 15.3983 20.7126C15.6402 20.7126 15.7475 20.6582 15.8739 20.594C16.0093 20.5253 16.1665 20.4455 16.5349 20.4097C16.8537 20.394 17.0192 20.3361 17.1515 20.2898C17.2696 20.2484 17.3612 20.2163 17.5118 20.2319C17.697 20.2319 18.3324 20.1759 18.3324 20.1759C18.8023 20.1417 18.8023 20.1411 18.8015 19.9636C18.8013 19.9192 18.801 19.8637 18.8081 19.7939C18.7913 19.7445 18.7778 19.6837 18.7628 19.6162C18.6839 19.2605 18.5637 18.7181 17.697 18.671C17.4831 18.671 16.6115 18.8686 16.5061 19.0629C16.4195 19.0768 16.3328 19.2456 16.2298 19.4464C16.1127 19.6747 15.9744 19.9442 15.791 20.0738C15.3631 20.3735 15.0758 20.3241 15.0758 20.3241C14.5745 20.4657 14.5203 19.7116 14.5203 19.7116C14.4947 19.4613 14.8108 19.0991 14.8108 19.0991L15.312 18.7073C15.7111 18.513 15.8069 18.4801 16.107 18.4043C16.4815 18.2522 16.8156 18.2352 17.6269 18.194C17.7286 18.1889 17.8379 18.1833 17.9556 18.1771C18.1787 18.1339 18.2943 18.1624 18.4241 18.1945C18.5414 18.2235 18.6703 18.2553 18.9007 18.2397C19.1656 18.4076 19.5168 18.3714 19.5168 18.3714C19.7755 18.5591 20.0724 18.6513 20.0724 18.6513C20.6822 19.0135 20.8386 19.5996 20.8929 19.9619C20.9274 20.1182 20.888 20.25 20.8512 20.3735C20.8028 20.536 20.7586 20.6839 20.8929 20.8542C20.9368 20.9132 20.9192 20.9826 20.8941 21.0812C20.8589 21.2193 20.8091 21.4149 20.8929 21.7203C20.8154 21.9867 20.8139 22.2922 20.8122 22.6422C20.8116 22.7681 20.8109 22.8999 20.8067 23.0374C20.8003 23.2613 20.8131 23.347 20.8929 23.4853C20.9408 23.7783 21.209 23.8211 21.209 23.8211C21.3658 23.8514 21.4687 23.7684 21.5552 23.6985C21.6291 23.639 21.691 23.589 21.7645 23.6269C21.9178 23.7717 21.9497 23.8771 21.9497 23.8771C22.1093 24.46 20.7365 24.9078 20.3118 24.9078C20.2648 24.9078 20.2236 24.9017 20.1846 24.896C20.1125 24.8853 20.0478 24.8757 19.967 24.9078C19.8664 24.9078 19.7734 24.867 19.6884 24.8297C19.6169 24.7984 19.5511 24.7695 19.4913 24.7695C19.4218 24.7405 19.348 24.6761 19.2699 24.6079C19.1973 24.5446 19.1211 24.478 19.0411 24.4336C18.9182 24.3754 18.8791 24.3109 18.8348 24.2379C18.794 24.1705 18.7488 24.0959 18.6293 24.0121C18.3983 24.1923 18.1783 24.2824 17.9818 24.3629C17.8442 24.4193 17.718 24.471 17.6076 24.5456C17.5581 24.5594 17.5047 24.5777 17.4456 24.598ZM16.4997 21.3712C16.3401 21.4535 16.0559 21.717 16.0943 21.9178C16.1185 22.0195 16.0866 22.0822 16.0536 22.1471C16.0128 22.2272 15.9704 22.3106 16.0304 22.4743C16.0304 22.83 16.1517 23.1988 16.2571 23.2548C16.2731 23.5577 17.0968 23.7685 17.3298 23.7125C17.3693 23.7092 17.4245 23.7122 17.4884 23.7156C17.6834 23.7261 17.9598 23.741 18.1184 23.5972C18.4154 23.5643 18.7793 23.4095 18.7634 22.4118C18.7634 22.2036 18.7883 22.1028 18.809 22.0193C18.839 21.8981 18.86 21.8134 18.7825 21.4898C18.7953 21.2263 18.8049 20.9168 18.7282 20.8213C18.6357 20.7967 18.5104 20.8023 18.3937 20.8075C18.2608 20.8134 18.139 20.8188 18.0897 20.7785C17.9843 20.9135 17.6363 20.8608 17.6363 20.8608C17.1894 20.9201 16.5764 21.2527 16.4997 21.3712Z" fill="#AF323B"/>
<path fill-rule="evenodd" clip-rule="evenodd" d="M97.5243 21.7236C97.5243 21.5227 97.4093 21.4338 97.1731 21.4338H96.7963V22.4546H96.9464V22.0133H97.1188L97.3806 22.4546H97.5498L97.2689 22.0035C97.4126 21.9837 97.5243 21.9047 97.5243 21.7236ZM96.9464 21.8816V21.5655H97.1507C97.2561 21.5655 97.3678 21.5886 97.3678 21.7137C97.3678 21.8717 97.2561 21.8783 97.1284 21.8783H96.9496L96.9464 21.8816Z" fill="#AF323B"/>
<path fill-rule="evenodd" clip-rule="evenodd" d="M97.1316 21.0584C96.6591 21.0584 96.26 21.4338 96.26 21.9409C96.26 22.448 96.6591 22.8267 97.1316 22.8267C97.6041 22.8267 98 22.4513 98 21.9409C98 21.4305 97.6009 21.0584 97.1316 21.0584ZM97.1316 22.6818C96.7389 22.6818 96.4324 22.369 96.4324 21.9409C96.4324 21.5128 96.7389 21.2066 97.1316 21.2066C97.5243 21.2066 97.8276 21.5227 97.8276 21.9409C97.8276 22.3591 97.5211 22.6818 97.1316 22.6818Z" fill="#AF323B"/>
<path d="M41.2273 18.8818C41.2273 18.8818 40.9878 18.9114 40.8282 18.9378L40.8314 18.9411C40.8074 18.9164 40.7838 18.8991 40.7631 18.8839C40.7148 18.8487 40.6826 18.8251 40.7005 18.7468C40.7708 18.3556 40.9946 18.3619 41.2221 18.3682C41.3355 18.3714 41.4499 18.3746 41.5465 18.3286C42.1308 18.4405 42.5267 18.4405 42.5267 18.4405C43.0393 18.4077 43.2252 18.3534 43.3395 18.3201C43.4202 18.2965 43.4652 18.2834 43.5643 18.2957C43.8644 18.2594 43.9091 18.4372 43.9315 18.7204C43.9059 19.0036 43.9155 19.2242 43.9602 19.3C44.0784 19.3527 44.4615 18.9707 44.4615 18.9707C44.5956 18.9444 44.7009 18.7764 44.7009 18.7764C44.8189 18.7043 44.9268 18.6306 45.028 18.5615C45.3567 18.3369 45.6146 18.1607 45.9174 18.2463C46.6836 18.1903 47.2934 18.8028 47.2136 19.2506C47.2423 19.84 46.84 20.0606 46.6261 20.0014C46.4691 20.1139 46.3612 20.0849 46.2821 20.0637C46.2455 20.0539 46.215 20.0457 46.1887 20.0541C46.0095 20.0419 45.8479 19.9357 45.687 19.83C45.4982 19.7059 45.3106 19.5826 45.0968 19.6128C44.305 19.7511 43.7495 20.1133 43.8006 21.0617V21.5622C43.7974 21.875 43.277 21.9837 43.277 21.9837C43.3249 22.1813 43.5611 22.2043 43.5611 22.2043C43.775 22.2603 43.8357 22.425 43.8357 22.425C43.8313 22.5201 43.8267 22.6037 43.8227 22.6779L43.8226 22.6787L43.8225 22.6803L43.8225 22.681C43.803 23.0358 43.7955 23.1727 43.8772 23.314C43.9066 24.0355 44.2641 24.0799 44.4887 24.1079C44.5327 24.1134 44.5716 24.1182 44.602 24.1274C44.7871 24.0714 44.9627 24.0945 44.9627 24.0945C45.199 24.0549 45.1734 24.3184 45.1734 24.3184C45.2245 25.0428 44.6179 24.8485 44.6179 24.8485C44.5315 24.8795 44.4275 24.8591 44.3028 24.8347C44.2017 24.815 44.0871 24.7925 43.957 24.7925C43.6378 24.6872 43.2961 24.6477 42.9513 24.6477C42.5093 24.6623 42.2232 24.7207 41.9833 24.7697C41.7918 24.8088 41.6297 24.8419 41.4412 24.8419C41.4255 24.8419 41.4079 24.8422 41.3888 24.8425C41.1514 24.8459 40.6828 24.8527 40.7803 24.4139C40.7547 24.1899 40.8058 24.134 40.9399 24.134C41.0314 24.1324 41.0901 24.1451 41.1435 24.1566C41.2019 24.1693 41.254 24.1805 41.3358 24.1702C41.5529 24.1406 41.5753 23.9199 41.5753 23.9199C41.6838 23.8442 41.7732 23.3964 41.786 23.1988C41.7482 23.0903 41.772 22.9959 41.7979 22.8932C41.8332 22.7529 41.8724 22.5972 41.7636 22.369C41.7541 21.7632 41.789 21.2538 41.8132 20.9004L41.8132 20.8999C41.8295 20.6618 41.841 20.4945 41.8307 20.4163C41.8819 20.2803 41.8667 20.2702 41.8376 20.2509C41.8069 20.2304 41.7604 20.1995 41.7604 19.9981C41.7456 19.8796 41.7519 19.8113 41.758 19.7445C41.7664 19.6533 41.7746 19.5649 41.7285 19.356C41.8881 19.244 41.8594 19.2144 41.7285 19.188C41.62 18.8818 41.2273 18.8818 41.2273 18.8818Z" fill="#AF323B"/>
<path d="M48.0756 17.8478C48.0756 17.8478 48.2321 17.782 48.2863 17.9301C48.4715 17.9565 48.5769 18.0388 48.6088 18.3154C48.5803 18.3542 48.5681 18.4113 48.5535 18.4799C48.527 18.6037 48.4926 18.7645 48.3406 18.9213C48.3406 18.9213 48.2608 19.0596 48.2353 19.1979C48.2353 19.1979 48.2608 19.3066 48.3662 19.2802C48.3662 19.2802 48.5194 19.2506 48.6982 18.9575C48.6982 18.9575 48.7621 18.7962 48.9472 18.6579C48.9472 18.6579 49.0749 18.3977 49.1803 18.3154C49.1803 18.3154 49.5698 17.5152 49.4644 17.2123C49.4644 17.2123 49.4549 17.0081 49.4166 16.827C49.2601 16.4977 49.142 16.2573 48.6024 16.1915C48.4172 16.1651 48.3406 16.1651 48.0756 16.2738C47.867 16.3788 47.8511 16.4604 47.8387 16.5237C47.827 16.5835 47.8185 16.6271 47.6542 16.6591C47.6542 16.6591 47.5807 16.8237 47.6063 16.9357C47.5807 17.4329 47.7819 17.6832 48.0756 17.8445V17.8478Z" fill="#AF323B"/>
<path d="M49.5283 21.0419C49.4261 20.8312 49.3591 20.683 49.3846 20.3801L49.3878 20.3932C49.3687 20.1349 49.4328 20.0265 49.493 19.9248C49.5233 19.8735 49.5527 19.8239 49.5698 19.7577C49.4802 19.6176 49.7141 19.3774 50.0297 19.0533C50.0851 18.9965 50.1429 18.9371 50.202 18.8752C51.0873 18.2863 51.3688 18.2913 51.7181 18.2976C51.7946 18.299 51.8743 18.3004 51.9643 18.2957C52.4703 18.249 52.7542 18.3374 52.9567 18.4006C52.997 18.4131 53.034 18.4247 53.069 18.434C53.4585 18.5788 53.6245 18.5723 53.7299 18.4932C53.7656 18.4656 53.7757 18.437 53.7859 18.4085C53.8083 18.3452 53.8307 18.282 54.1322 18.2298C54.4993 18.1244 54.6462 18.7369 54.726 19.1781C54.7572 19.3288 54.8137 19.4576 54.8673 19.5799C54.918 19.6956 54.9661 19.8055 54.9878 19.9223C55.0421 20.1133 54.6047 20.301 54.5249 20.245C54.4285 20.2879 54.2802 20.146 54.1155 19.9885C53.9639 19.8435 53.7984 19.6852 53.6469 19.6457C53.5415 19.4811 53.3308 19.3724 53.0946 19.3165C52.7529 19.0135 52.0154 19.0398 52.0154 19.0398C51.3034 18.9872 51.0416 19.2901 50.9618 19.6754C50.9818 20.043 51.2119 20.1016 51.3605 20.1393C51.4022 20.1499 51.4375 20.1589 51.4599 20.1726C51.6975 20.3187 51.9083 20.3441 52.1563 20.3741C52.4281 20.4069 52.7446 20.445 53.1903 20.6534C53.3105 20.6534 53.3769 20.6831 53.4457 20.7139C53.5322 20.7527 53.6226 20.7932 53.8289 20.7785L53.8572 20.7952C54.0211 20.8916 54.0863 20.93 54.2375 20.93C54.247 20.935 54.2598 20.9414 54.2755 20.9492C54.4354 21.0291 54.8949 21.2586 55.1187 21.6873C55.2528 21.8553 55.4891 22.2109 55.4093 22.5435C55.4426 22.7239 55.3876 22.9507 55.3453 23.1249C55.3228 23.2177 55.3039 23.2956 55.3039 23.3437C55.1698 23.5116 55.1187 23.7586 55.1187 23.7586C54.9878 23.8113 54.9878 24.0055 54.9878 24.0055C54.8656 24.038 54.8057 24.1159 54.7513 24.1866C54.712 24.2377 54.6756 24.285 54.6207 24.3085C54.0428 24.6378 53.6309 24.8452 52.9477 24.8452C52.5007 24.865 52.0457 24.7671 51.6678 24.6858C51.4167 24.6318 51.1997 24.5851 51.0416 24.5851C50.8793 24.5699 50.7658 24.6572 50.6652 24.7346C50.57 24.8078 50.4864 24.8721 50.3839 24.8321C49.9625 24.9144 49.8572 24.4172 49.8572 24.4172C49.724 23.9816 49.5544 23.708 49.4153 23.4835C49.2811 23.2668 49.1752 23.096 49.1579 22.8695C49.241 22.7081 49.5858 22.5995 49.5858 22.5995C49.8461 22.623 50.0228 22.8227 50.2343 23.0618C50.378 23.2243 50.5379 23.4051 50.7511 23.561C50.8588 23.6046 50.9057 23.6488 50.9471 23.6877C51.0088 23.7458 51.0582 23.7922 51.2779 23.808C51.6043 24.0893 51.9664 24.1213 52.3071 24.1514C52.433 24.1626 52.556 24.1734 52.6731 24.1965C52.8328 24.2229 52.9637 24.1373 52.9637 24.1373C53.0539 24.0896 53.1194 24.065 53.172 24.0453C53.272 24.0078 53.3248 23.988 53.4106 23.8607C53.6724 23.6697 53.6469 23.3371 53.6469 23.3371C53.5415 22.7016 52.9381 22.5633 52.9381 22.5633C52.8583 22.4546 52.5965 22.4809 52.5965 22.4809C52.5697 22.5215 52.5049 22.5013 52.3642 22.4573C52.2195 22.412 51.9946 22.3417 51.6483 22.2866C51.4813 22.2545 51.4229 22.2723 51.3665 22.2896C51.3248 22.3024 51.2841 22.3148 51.2013 22.3064C51.0785 22.2799 50.9812 22.2178 50.8901 22.1596C50.7775 22.0877 50.6742 22.0218 50.5436 22.0364C50.4878 22.0076 50.4366 21.9918 50.3871 21.9766C50.2895 21.9465 50.1983 21.9184 50.0902 21.796C50.0366 21.7286 49.9767 21.6769 49.9153 21.6239C49.7756 21.5033 49.6281 21.3759 49.5283 21.0419Z" fill="#AF323B"/>
<path fill-rule="evenodd" clip-rule="evenodd" d="M79.5206 23.7717C79.5206 23.7717 79.2907 23.9035 79.1119 23.9035C79.102 23.9035 79.0916 23.9036 79.0808 23.9037C78.9245 23.9053 78.6874 23.9079 78.7352 23.5906C78.7352 23.5906 78.7288 23.4853 78.7033 23.4095C78.7927 23.2712 78.7639 22.7806 78.7384 22.7279C78.735 22.5423 78.5781 22.5317 78.4181 22.5209C78.2771 22.5115 78.1336 22.5018 78.0903 22.3723C78.2148 22.2856 78.3173 22.238 78.4185 22.1911C78.5249 22.1417 78.6299 22.093 78.7576 22.0002C78.7576 22.0002 78.8054 21.7203 78.7033 21.5918C78.7033 21.5918 78.8118 21.4107 78.7863 21.2527C78.7863 21.2259 78.7849 21.1842 78.7831 21.1322V21.1319C78.7766 20.9345 78.765 20.5886 78.8054 20.3438C78.7564 20.1447 78.7603 20.0169 78.7635 19.9119C78.767 19.7982 78.7697 19.7113 78.7033 19.5898C78.6878 19.5478 78.6754 19.51 78.6643 19.476C78.6204 19.3418 78.5957 19.2663 78.4734 19.2242C78.3712 18.9641 78.2244 18.8983 78.1414 18.8851C78.1084 18.8644 78.0689 18.8376 78.0243 18.8073C77.7922 18.6497 77.4237 18.3996 77.1452 18.4438C77.0378 18.428 76.9469 18.395 76.8465 18.3585C76.6128 18.2736 76.3282 18.1702 75.667 18.2232C75.4371 18.1969 74.0738 18.3846 73.7418 18.5657C73.6141 18.592 73.1831 18.8357 72.8989 19.2144C72.8989 19.2144 72.7042 19.3922 72.7201 19.682C72.7201 19.682 72.6691 20.3043 73.3331 20.3307C73.8695 20.3043 74.1696 20.0969 74.2718 19.7083C74.374 19.3955 74.5144 19.2341 74.8465 19.0333C74.8465 19.0333 75.2583 18.8653 75.5138 18.8917C76.2083 18.8917 76.3729 19.216 76.4805 19.428C76.5163 19.4987 76.5458 19.5569 76.5865 19.5865C76.5865 19.5865 76.6376 19.6918 76.6121 19.8203C76.6121 19.8203 76.6567 20.1232 76.6504 20.278C76.6504 20.278 76.6887 20.4525 75.7181 20.469C75.6006 20.411 75.4487 20.4448 75.286 20.481C75.1435 20.5127 74.9928 20.5462 74.8497 20.5217C73.4608 20.6797 72.4328 21.1901 72.452 21.5787C72.2317 21.6347 71.6857 22.369 71.7623 22.965C71.7277 23.2638 71.7722 23.3074 71.8224 23.3566C71.8463 23.38 71.8715 23.4047 71.89 23.4589C71.9119 23.5219 71.9098 23.56 71.9079 23.5963C71.9041 23.6661 71.9007 23.7296 72.0688 23.9529C72.0688 23.9529 72.3753 24.3414 72.6052 24.5522C73.049 24.8354 73.7833 25.0263 74.3644 24.865C74.485 24.8926 74.5423 24.8559 74.5954 24.8219C74.6435 24.7911 74.6881 24.7625 74.773 24.786C75.6065 24.6388 75.9484 24.4088 76.1792 24.2534C76.2738 24.1898 76.3498 24.1387 76.4333 24.1109C76.5274 24.0988 76.5456 24.1251 76.5979 24.2005C76.659 24.2887 76.7668 24.4442 77.0973 24.6839C77.2886 24.7182 77.4166 24.7452 77.5184 24.7666C77.7293 24.8111 77.8281 24.8319 78.1446 24.8452C78.3941 24.8557 78.4774 24.8342 78.586 24.8062C78.6483 24.7901 78.719 24.7719 78.8342 24.7563C79.4057 24.6345 79.6643 24.4896 79.7792 24.269C79.7792 24.269 79.7792 23.8277 79.5238 23.775L79.5206 23.7717ZM76.5258 23.3733C76.4642 23.5412 76.2131 23.6122 75.9543 23.6853C75.8375 23.7183 75.7192 23.7518 75.6159 23.7948C75.0644 23.8885 74.5868 23.6682 74.4002 23.5822L74.3899 23.5775C74.2291 23.4438 74.2027 23.3844 74.1696 23.31C74.1554 23.278 74.14 23.2433 74.1122 23.1988C73.9389 23.0086 73.9805 22.7961 74.0132 22.6289C74.0275 22.5559 74.0401 22.4915 74.0323 22.4414C74.0859 22.1233 74.2127 21.9979 74.3357 21.8762C74.396 21.8165 74.4555 21.7577 74.5049 21.6775C74.6102 21.4272 74.7283 21.3548 75.1274 21.3185C75.3829 21.0979 75.8937 21.1539 75.8937 21.1539C75.9646 21.1539 76.0366 21.1489 76.1063 21.1442C76.2973 21.131 76.4712 21.1191 76.5578 21.2132C76.6376 21.3877 76.6344 21.6873 76.6089 21.8421C76.561 22.0825 76.628 22.8333 76.628 22.8333C76.5927 22.9206 76.593 23.0202 76.5933 23.1113C76.5936 23.2261 76.5939 23.3274 76.5227 23.3733H76.5258Z" fill="#AF323B"/>
<path d="M70.3384 16.1125C70.4278 16.0729 70.6704 16.1125 70.6704 16.1125H70.6736C71.1844 16.0334 71.1334 16.5702 71.1334 16.5702C71.1461 16.8698 70.9035 16.8797 70.9035 16.8797H70.4948C70.1822 16.9306 70.124 17.1004 70.0675 17.2649C70.0363 17.3558 70.0056 17.4451 69.9329 17.5119C70.0272 17.5119 70.0175 17.6329 70.0021 17.8258C69.9924 17.9463 69.9805 18.0949 69.9904 18.2594C70.0157 18.3558 69.9963 18.4311 69.9765 18.5078C69.9564 18.5858 69.9359 18.6652 69.9616 18.7698C69.993 18.869 69.9822 18.8911 69.9521 18.9522C69.9333 18.9906 69.9069 19.0443 69.8786 19.1419C69.9106 19.2478 69.9364 19.3036 69.9561 19.3463C69.9915 19.423 70.0072 19.4569 70.0031 19.6622C69.9605 19.8672 69.9032 19.9593 69.8474 20.0487C69.8029 20.1201 69.7594 20.1899 69.7254 20.3142C69.7254 20.3994 69.7702 20.4487 69.8131 20.4959C69.8646 20.5526 69.9135 20.6063 69.8786 20.7159C69.9137 21.1275 69.8786 21.8092 69.8786 21.8092C69.9049 21.9058 69.8906 22.0758 69.8775 22.2314C69.8651 22.3781 69.8538 22.512 69.8786 22.56C69.9265 22.6587 69.9361 23.2811 69.9361 23.2811C69.885 23.7092 70.415 23.8146 70.415 23.8146C70.5682 23.8672 70.8237 23.8146 70.8237 23.8146C71.0535 23.7059 71.0791 24.134 71.0791 24.134C71.028 24.7991 70.5427 24.6905 70.5427 24.6905C70.3503 24.707 70.3101 24.7054 70.2239 24.7019C70.1728 24.6998 70.1055 24.6971 69.9808 24.6971C69.715 24.6971 69.6318 24.6841 69.3562 24.6414C69.1915 24.6158 68.9581 24.5796 68.576 24.5291C68.4901 24.5291 68.3318 24.5681 68.1564 24.6114C67.9148 24.671 67.6405 24.7387 67.4777 24.7234C66.3794 24.6707 66.6221 24.213 66.6221 24.213C66.6093 23.8639 66.9158 23.9496 66.9158 23.9496C67.682 23.9759 67.7331 23.6302 67.7331 23.6302C67.8385 23.3898 67.8385 23.123 67.8385 23.123C67.864 22.909 67.8576 22.797 67.8576 22.797C67.8034 22.718 67.8512 22.3163 67.8512 22.3163C67.8652 22.2111 67.8596 22.0834 67.8542 21.9585C67.8484 21.8254 67.8427 21.6952 67.8608 21.5984C67.9215 21.4503 67.9885 21.3317 67.9885 21.3317C67.9728 21.3119 67.9576 21.2943 67.9433 21.2776C67.8646 21.1861 67.8097 21.1224 67.8097 20.8773C67.8097 20.7994 67.8285 20.722 67.8467 20.6466C67.8724 20.5405 67.8971 20.4382 67.8672 20.3438C67.7906 20.1298 67.8608 19.8631 67.8608 19.8631C67.8757 19.6201 67.8743 19.4885 67.8731 19.3651C67.8719 19.2493 67.8708 19.1406 67.8832 18.9542C67.8832 18.6284 67.9091 18.4989 67.9258 18.4158C67.9378 18.3561 67.9449 18.3203 67.9343 18.2528C67.9005 17.5913 67.6809 17.9247 67.4995 18.2001L67.4777 18.2331C67.461 18.2636 67.4445 18.2934 67.4284 18.3227C67.2481 18.6501 67.1054 18.9092 66.9413 19.3263C66.6859 19.4844 66.456 20.4196 66.456 20.4196C66.2262 20.6336 66.2262 20.9003 66.2262 20.9003C66.1196 21.0562 65.8592 21.6458 65.6308 22.1628L65.6307 22.1631L65.6305 22.1635C65.4826 22.4984 65.3482 22.8027 65.2779 22.9386C65.25 22.9827 65.2184 23.0245 65.187 23.0659C65.1036 23.176 65.0225 23.283 65.0225 23.4194C65.0225 23.5565 64.9722 23.5949 64.916 23.6377C64.8521 23.6864 64.7807 23.7409 64.7671 23.9529C64.5628 24.2196 64.3584 24.7267 64.3584 24.7267C64.2307 24.753 63.9881 24.2393 63.7965 23.6334C63.7187 23.314 63.6195 23.1543 63.5262 23.0039C63.4318 22.852 63.3434 22.7096 63.2889 22.4217C63.3144 22.1966 63.2354 22.0917 63.143 21.9692C63.0623 21.8622 62.9715 21.7417 62.9313 21.5161C62.8323 21.1704 62.446 20.4229 62.446 20.4229C62.3424 20.2537 62.2803 20.063 62.2176 19.8706C62.1412 19.6361 62.0639 19.399 61.9096 19.1946C61.5808 18.1541 61.2966 18.2594 61.2966 18.6875C61.1689 19.0596 61.22 19.3527 61.22 19.3527L61.1913 20.3142C61.1171 21.7109 61.1389 22.0324 61.1563 22.2904C61.1629 22.3877 61.1689 22.476 61.1689 22.6094C61.128 24.0195 61.5126 24.0182 61.7857 24.0172C61.8537 24.017 61.9148 24.0168 61.9607 24.0385C62.2736 24.0154 62.3183 24.0846 62.3183 24.2525C62.3502 24.8354 61.8362 24.7135 61.8362 24.7135L61.1561 24.674C61.0884 24.6781 61.035 24.6617 60.9681 24.6411C60.8743 24.6122 60.754 24.5752 60.5304 24.5752C60.326 24.562 60.1919 24.6057 60.0578 24.6493C59.9238 24.6929 59.7897 24.7366 59.5853 24.7234C59.3555 24.6971 58.9468 24.7234 58.9468 24.7234C58.4104 24.7761 58.5637 24.3184 58.5637 24.3184C58.555 24.09 58.6241 24.0914 58.7499 24.0939C58.7638 24.0942 58.7783 24.0945 58.7935 24.0945C58.9468 24.1208 59.3555 24.0945 59.3555 24.0945C60.126 23.9423 60.1701 23.6497 60.2154 23.3491C60.217 23.3387 60.2186 23.3284 60.2202 23.318C60.2214 23.3101 60.2226 23.3022 60.2239 23.2943C60.176 23.1626 60.243 23.0539 60.243 23.0539C60.2406 23.0474 60.2382 23.0416 60.236 23.0361C60.2329 23.0288 60.2301 23.0223 60.2274 23.0163C60.223 23.0061 60.2191 22.9972 60.2159 22.9881C60.1949 22.9277 60.2054 22.8555 60.2855 22.3054L60.2855 22.3051L60.3069 22.1582C60.259 21.9277 60.275 21.4239 60.2941 21.3317C60.2959 21.162 60.3277 21.0739 60.3661 20.9679C60.3962 20.8847 60.4303 20.7904 60.4569 20.6369C60.4027 20.4986 60.3005 20.1496 60.3771 19.9882C60.3791 19.8687 60.3759 19.7505 60.3728 19.6347C60.3658 19.3741 60.3592 19.126 60.4122 18.9048C60.4122 18.4801 60.4346 17.8116 60.4346 17.8116C60.4633 16.827 60.0227 16.7743 59.8695 16.7743H59.4097C59.1288 16.8797 59.1799 16.5339 59.1799 16.5339C59.2054 16.0532 59.7929 16.0532 60.0227 16.0532C60.7124 16.1619 61.3764 16.1882 61.3764 16.1882L62.4205 16.1454C62.7088 16.1277 62.7521 16.2644 62.8238 16.4903C62.8458 16.5597 62.8705 16.6374 62.9057 16.7216C62.9375 16.8649 62.9806 16.9022 63.0325 16.9469C63.0903 16.9967 63.1589 17.0559 63.2346 17.2814C63.2545 17.4564 63.2962 17.5063 63.3495 17.5702C63.3986 17.629 63.4576 17.6997 63.5187 17.8906C63.6975 18.4504 64.004 18.9048 64.004 18.9048C64.0252 19.0155 64.1212 19.2044 64.2171 19.3932C64.3523 19.6594 64.4874 19.9255 64.4127 19.9717C64.409 20.0931 64.4688 20.1446 64.53 20.1972C64.5751 20.236 64.6209 20.2754 64.6426 20.3438C64.9343 20.9013 65.0819 20.6294 65.2248 20.366C65.2837 20.2575 65.3418 20.1505 65.4088 20.1035C65.4379 19.9219 65.6403 19.5849 65.8095 19.3031C65.938 19.0892 66.0474 18.9071 66.0474 18.8489C66.3283 18.4471 66.8902 17.3539 66.8902 17.3539C66.9901 17.2859 67.0899 17.0803 67.1942 16.8655C67.2766 16.6957 67.3619 16.52 67.4522 16.4022C67.4777 16.1388 67.7331 16.1388 67.7331 16.1388C67.9119 16.1125 68.2184 16.1915 68.2184 16.1915C68.4754 16.2246 68.6238 16.2174 68.7605 16.2107C68.8411 16.2068 68.9178 16.2031 69.0102 16.208C69.2115 16.2191 69.4655 16.1916 69.7288 16.1631C69.9331 16.1409 70.143 16.1182 70.3384 16.1125Z" fill="#AF323B"/>
<path d="M86.5893 18.9081C86.5893 18.9081 86.5286 18.7501 86.4775 18.6974C86.4775 18.6974 86.3817 18.5755 86.2125 18.5064C86.0816 18.4241 85.7687 18.2528 85.2643 18.2792C85.0536 18.2792 84.5747 18.4768 84.3639 18.6118C84.232 18.6865 84.1652 18.7627 84.1143 18.8207C84.0531 18.8905 84.0149 18.9342 83.9138 18.918C83.9138 18.918 83.703 18.918 83.703 18.671C83.703 18.5327 83.6775 18.2594 83.4381 18.3154C83.4381 18.3154 82.675 18.4866 82.0844 18.4537C81.9342 18.4448 81.7971 18.4242 81.6749 18.4058C81.4359 18.3699 81.2534 18.3424 81.1393 18.4274C81.1393 18.4274 80.852 18.3352 80.5582 18.4274C80.2517 18.4537 80.2932 18.6151 80.2932 18.6151C80.29 18.8653 80.3858 19.1386 80.7051 19.109C80.7993 19.1245 80.8935 19.1023 80.9817 19.0814C81.0431 19.0669 81.1016 19.053 81.1553 19.053C81.1687 19.053 81.1844 19.0516 81.2018 19.05C81.3545 19.036 81.633 19.0104 81.5384 19.8499C81.5331 20.1143 81.5978 20.1486 81.6547 20.1787C81.6665 20.1849 81.678 20.191 81.6885 20.1989C81.6607 20.2276 81.6361 20.248 81.6152 20.2655C81.5517 20.3184 81.5216 20.3435 81.5384 20.4821C81.5097 20.6995 81.5545 20.7449 81.6088 20.7999C81.6449 20.8365 81.6853 20.8773 81.7108 20.9761C81.6886 21.0771 81.6578 21.1231 81.6312 21.1628C81.5928 21.2202 81.5629 21.2647 81.5799 21.4437C81.5799 21.5058 81.5791 21.583 81.5783 21.6691L81.5783 21.6703V21.6705C81.5742 22.0867 81.5681 22.712 81.6342 22.8728C81.6342 22.8728 81.6661 23.0111 81.6948 23.0111C81.6948 23.0111 81.615 23.1494 81.5895 23.2317C81.5895 23.5873 81.5831 23.8244 81.1297 23.8804C81.1051 23.9058 81.0249 23.9061 80.928 23.9065C80.711 23.9074 80.4105 23.9086 80.4656 24.1932C80.4656 24.1932 80.3316 24.7168 81.0499 24.7432C81.2698 24.7432 81.4044 24.7007 81.5615 24.6512C81.7261 24.5993 81.9155 24.5396 82.2536 24.5127C82.4298 24.5576 82.4891 24.5457 82.5742 24.5286C82.6325 24.5169 82.703 24.5028 82.8314 24.5028C83.0855 24.5271 83.2417 24.5739 83.3879 24.6176C83.5778 24.6744 83.7507 24.7261 84.099 24.7168C84.6609 24.7036 84.9865 24.6608 84.9738 24.1603C84.9738 24.1603 85.0184 23.8146 84.6034 23.8804C84.5415 23.9177 84.4608 23.9248 84.3277 23.9366C84.296 23.9394 84.2615 23.9425 84.2235 23.9463C84.1845 23.9265 84.1397 23.9139 84.0924 23.9006C83.8797 23.8408 83.6148 23.7664 83.5913 22.9584C83.6281 22.8647 83.6179 22.8223 83.6076 22.7792C83.6027 22.7587 83.5977 22.738 83.5977 22.7114C83.5977 22.7114 83.6392 22.1187 83.5051 21.9738C83.5945 21.8882 83.62 21.7828 83.5945 21.2066C83.5046 21.1281 83.5392 21.0266 83.5695 20.9373C83.5953 20.8617 83.618 20.795 83.5594 20.7587C83.5594 20.7587 83.6264 20.5974 83.5977 20.5151C83.6066 20.472 83.6142 20.4282 83.6219 20.3842C83.6827 20.0346 83.7466 19.6672 84.498 19.4712C84.7567 19.4482 85.0823 19.7445 85.2132 19.9125C85.3441 19.9948 85.5899 20.1397 85.7783 20.1496C85.9699 20.1594 86.0912 20.1561 86.2604 20.1364C86.2604 20.1364 86.4711 20.0936 86.5925 19.9158C86.5925 19.9158 86.7521 19.6951 86.7776 19.3922C86.7776 19.3922 86.7234 19.0036 86.5925 18.9213L86.5893 18.9081Z" fill="#AF323B"/>
<path d="M96.4186 23.5513C96.5786 23.5436 96.7491 23.5355 96.9719 23.449L96.9751 23.4523C97.1507 23.3865 97.1922 23.673 97.1922 23.673C97.2912 24.0714 96.9241 24.3052 96.5026 24.4896C96.0046 24.8321 95.1106 24.8584 94.9605 24.8584C94.2343 24.8413 94.0002 24.668 93.7898 24.5123C93.6755 24.4277 93.5682 24.3483 93.3929 24.3019C93.1439 24.1175 92.3489 23.0901 92.3489 23.0901C92.0105 22.8596 91.8061 22.448 91.8061 22.448C91.6515 22.3187 91.5558 22.1825 91.4661 22.0547C91.3501 21.8896 91.2441 21.7386 91.0335 21.6347C90.9048 21.6347 90.8179 21.6994 90.7461 21.7529C90.7057 21.783 90.67 21.8096 90.6344 21.8191C90.4365 21.8454 90.1874 22.1648 90.1619 22.3492C90.1364 22.4546 90.1204 22.6192 90.1204 22.6192V23.2482C90.0693 23.6993 90.462 23.8211 90.66 23.8211C90.7749 23.8475 90.9824 23.9002 90.9824 23.9002C91.2315 23.8211 91.2059 24.1735 91.2059 24.1735C91.2059 24.651 90.9281 24.6312 90.9281 24.6312C90.7589 24.6872 90.6217 24.7168 90.213 24.6839C89.9078 24.6712 89.7641 24.6078 89.6298 24.5486C89.4861 24.4852 89.3532 24.4266 89.0445 24.4402C88.8973 24.4229 88.6519 24.4883 88.445 24.5435C88.3376 24.5721 88.2405 24.598 88.1728 24.6081C87.8919 24.651 87.4289 24.6246 87.4289 24.6246C86.7808 24.6773 86.9053 24.1735 86.9053 24.1735C86.8843 23.7875 87.0264 23.7964 87.2921 23.8131C87.3483 23.8167 87.41 23.8206 87.4768 23.8211C88.0483 23.9265 88.0228 23.1395 88.0228 23.1395C88.0228 22.7063 88.0791 22.6585 88.1413 22.6056C88.168 22.5829 88.1958 22.5593 88.2207 22.504C88.2007 22.4769 88.1823 22.4558 88.1658 22.4369C88.106 22.3684 88.0707 22.328 88.0707 22.1319C88.0647 22.0878 88.072 22.0214 88.0814 21.9361C88.0973 21.792 88.1191 21.5939 88.093 21.3581C88.1054 21.1667 88.15 21.1155 88.1961 21.0628C88.2333 21.0202 88.2714 20.9766 88.2942 20.8575C88.0292 20.6764 88.1569 20.2483 88.1569 20.2483C88.1064 20.1737 88.1268 19.9916 88.1445 19.8338C88.1526 19.762 88.1601 19.6952 88.1601 19.6457C88.1525 19.6025 88.1443 19.5754 88.1366 19.5499C88.115 19.4784 88.0972 19.4197 88.109 19.053C88.1409 18.6513 88.1409 17.8215 88.1409 17.8215C88.0898 17.6634 88.2335 17.6107 88.2335 17.6107C88.2632 17.5561 88.2527 17.55 88.2279 17.5357C88.1914 17.5146 88.1242 17.4758 88.109 17.2386C88.1313 16.8534 87.7227 16.8665 87.7227 16.8665C87.5151 16.8863 87.3747 16.9192 87.3747 16.9192C87.0969 16.9653 87.0267 16.8797 87.0267 16.7348C87.0522 16.0696 87.2118 16.1651 87.2118 16.1651C87.2349 16.161 87.2559 16.1566 87.2766 16.1522C87.3878 16.1287 87.4878 16.1075 87.8216 16.152C87.9792 16.1418 88.1404 16.1542 88.3637 16.1714C88.5024 16.1821 88.6651 16.1946 88.8657 16.2047C89.3013 16.2218 89.528 16.161 89.6947 16.1164C89.7845 16.0923 89.8569 16.0729 89.9352 16.0729C90.3088 16.1256 90.3567 16.2606 90.3311 16.4187C90.2289 16.7118 90.2641 16.7776 90.2641 16.7776C90.2561 16.8483 90.2307 16.9074 90.2071 16.9621C90.1835 17.017 90.1619 17.0673 90.1619 17.1201C90.2648 17.1676 90.2207 17.3406 90.1933 17.4483C90.1883 17.4676 90.184 17.4848 90.1811 17.4988C90.2254 17.6266 90.2236 17.6372 90.2125 17.701C90.2004 17.7703 90.1773 17.9023 90.1906 18.3154C90.1556 18.4615 90.1753 18.6174 90.1956 18.7777C90.216 18.9392 90.237 19.1052 90.2034 19.2703C90.195 19.4293 90.1807 19.5376 90.1698 19.6194C90.152 19.7546 90.1437 19.8173 90.1874 19.9158C90.2689 20.0494 90.2451 20.1133 90.2108 20.2057C90.1859 20.2726 90.1555 20.3545 90.1555 20.4887C90.1076 21.0189 90.5801 20.7258 90.6536 20.5941C90.7749 20.6204 90.826 20.4624 90.826 20.4624C91.3815 20.1825 92.1669 19.5338 92.1669 19.5338C92.6905 19.244 92.4159 19.0761 92.1669 19.0761C92.1039 19.0816 92.0235 19.0993 91.9386 19.118C91.8213 19.1438 91.6954 19.1716 91.5954 19.1716C91.3464 19.1979 91.3975 18.8456 91.3975 18.8456C91.3786 18.3088 91.6011 18.3193 91.9439 18.3356C92.007 18.3386 92.0741 18.3418 92.1446 18.3418C92.4369 18.3677 92.688 18.3728 92.8932 18.3769C93.0533 18.3802 93.1854 18.3829 93.2876 18.3944C93.5206 18.4208 94.5614 18.3516 94.5614 18.3516C95.184 18.3253 95.382 18.5097 95.382 18.9345C95.3794 19.2438 95.2683 19.2647 95.065 19.303C95.0216 19.3112 94.9739 19.3202 94.9222 19.3329C94.3603 19.4679 94.0698 19.5931 94.0698 19.5931C93.8431 19.5733 92.9619 20.1166 92.9619 20.1166C92.6905 20.1792 92.566 20.3834 92.566 20.3834C92.3936 20.4393 92.2691 20.7291 92.2691 20.7291C92.2691 20.9925 92.7256 21.0814 92.7256 21.0814C92.8041 21.2235 92.974 21.3204 93.1671 21.4306C93.3277 21.5221 93.5043 21.6229 93.6579 21.7664C93.7601 21.9574 93.8431 22.066 94.1336 22.1977C94.4561 22.3459 94.7371 22.6522 95.0659 23.0111C95.2155 23.0133 95.2578 23.0878 95.2991 23.1605C95.3195 23.1964 95.3397 23.2319 95.3724 23.2581C95.4969 23.4194 95.9247 23.5511 96.1514 23.5775C96.2421 23.5597 96.3287 23.5556 96.4186 23.5513Z" fill="#AF323B"/>
</svg>
