<?xml version="1.0" encoding="utf-8"?>
<!-- Generator: Adobe Illustrator 28.0.0, SVG Export Plug-In . SVG Version: 6.00 Build 0)  -->
<svg version="1.0" id="Layer_1" xmlns="http://www.w3.org/2000/svg" xmlns:xlink="http://www.w3.org/1999/xlink" x="0px" y="0px"
	 width="92px" height="28px" viewBox="0 0 92 28" enable-background="new 0 0 92 28" xml:space="preserve">
<g>
	<path d="M90.7,17.7c-0.7,0-1.3,0.6-1.3,1.3c0,0.7,0.6,1.3,1.3,1.3s1.3-0.6,1.3-1.3C91.9,18.3,91.4,17.7,90.7,17.7z M90.7,20
		c-0.5,0-1-0.4-1-1s0.4-1,1-1s1,0.4,1,1S91.2,20,90.7,20z"/>
	<g>
		<path d="M90.6,18.6h-0.1V19h0.1c0.1,0,0.2-0.1,0.2-0.2C90.8,18.7,90.7,18.6,90.6,18.6L90.6,18.6z"/>
		<path d="M90.7,18.2c-0.4,0-0.8,0.3-0.8,0.8c0,0.4,0.3,0.8,0.8,0.8s0.8-0.3,0.8-0.8C91.5,18.6,91.1,18.2,90.7,18.2z M90.9,19.5
			l-0.3-0.4h-0.1v0.4h-0.2v-1.1h0.3c0.2,0,0.4,0.1,0.4,0.3c0,0.1-0.1,0.2-0.2,0.3l0.3,0.4H90.9z"/>
	</g>
	<g>
		<path d="M7.6,16.8c-1.9,2.2-2.5,2.6-3.5,2.6H3.3C3,19.3,3,19,3,18.8v-8.5c0-1,0-2,0.6-2.3l0.1,0V7.8H0.1V8l0.1,0
			c0.6,0.2,0.7,1.1,0.7,2.4v6.7c0,1.1-0.1,2.4-0.7,2.7l-0.1,0v0.2h6.8l1.2-3.4L7.6,16.8C7.7,16.7,7.6,16.8,7.6,16.8z"/>
		<path d="M17.3,17.9L14.1,7.6h-0.9c0,0-2.7,7.7-3.3,9.4c-0.6,1.7-0.8,2.4-1.5,2.9l-0.1,0v0.2h2.8v-0.2l-0.1,0
			c-0.9-0.4-0.8-1-0.2-2.8h3.9c0,0,0.1,0.4,0.4,1.3c0.3,0.9,0.1,1.3-0.4,1.5l-0.1,0v0.2h3.9v-0.2l-0.1,0
			C17.9,19.6,17.8,19.3,17.3,17.9L17.3,17.9z M14.5,16.1h-3.2l1.7-5L14.5,16.1z"/>
		<path d="M71.4,17.9L68.1,7.6h-0.9l-3.2,9.1c-0.7,1.9-1,2.8-1.6,3.2l-0.1,0v0.2h2.8v-0.2l-0.1,0c-0.6-0.4-0.8-0.8-0.4-2.2H69
			l0.2,0.7c0.3,0.9,0.1,1.2-0.6,1.5l-0.1,0v0.2h4.1v-0.2l-0.1,0C71.9,19.5,71.8,19.2,71.4,17.9L71.4,17.9z M68.7,16.7h-3.6l1.9-5.6
			L68.7,16.7L68.7,16.7z"/>
		<path d="M24.2,7.8H20V8l0.1,0c0.6,0.4,0.7,1.1,0.7,2.4v7.2c0,1.2,0,2-0.6,2.3l-0.1,0v0.2h3.7V20l-0.1,0c-0.7-0.4-0.7-1.2-0.7-2.3
			v-2h0.5c3.3,0,4.8-1.4,4.8-4.3C28.3,9.2,26.7,7.8,24.2,7.8L24.2,7.8z M26,11.4c0,2.5-0.6,3.4-2.6,3.4h-0.5V8.9
			c0-0.4,0.1-0.4,0.2-0.4h0.8C25.3,8.5,26,9.5,26,11.4L26,11.4z"/>
		<path d="M35.6,8L35.6,8c0.7,0.3,0.7,1.1,0.7,2.4V12h-3.6v-1.6c0-1.3,0-2.1,0.6-2.3l0.1,0V7.8h-3.6V8l0.1,0
			c0.6,0.3,0.6,1.1,0.6,2.3v7.3c0,1.2,0,1.6-0.7,2.2l0,0v0.2h3.6V20l0,0c-0.7-0.6-0.7-1-0.7-2.2V13h3.6v4.6c0,1.2,0,1.8-0.7,2.2
			l-0.1,0v0.2h3.6v-0.2l-0.1,0c-0.6-0.4-0.6-1-0.6-2.2v-7.3c0-1.3,0.1-2,0.7-2.4l0.1,0V7.8h-3.6L35.6,8L35.6,8z"/>
		<path d="M48.5,16.2c-0.5-1.3-0.8-1.6-1.7-1.6c1.3-0.2,3.1-1.6,3.1-3.5c0-2.1-1.5-3.3-4-3.3h-4.2V8l0.1,0c0.7,0.4,0.7,1.1,0.7,2.4
			v7.2c0,1.2,0,1.7-0.7,2.3l0,0v0.2h3.6V20l-0.1,0c-0.6-0.4-0.7-1.1-0.7-2.3v-2.8h0.1c0.9,0,1.3,0.9,1.5,1.6
			c0.1,0.1,0.1,0.2,0.1,0.3c0.8,2,1.2,3.3,1.2,3.3l0,0.1h3.2V20l-0.1,0C49.8,19.5,49.1,18.1,48.5,16.2L48.5,16.2z M47.6,11.2
			c0,1.3-0.4,2.9-2,2.9c-0.4,0-0.8,0-1,0V8.7c0-0.1,0-0.1,0-0.2c0,0,0,0,0.2,0h0.7C47,8.5,47.6,9.3,47.6,11.2L47.6,11.2z"/>
		<path d="M57,7.6c-3,0-5.1,2.6-5.1,6.4s2,6.3,5,6.3S62,17.8,62,14S60.1,7.6,57,7.6z M59.5,14c0,3.9-0.8,5.7-2.5,5.7
			c-1.7,0-2.6-1.9-2.6-5.7s0.8-5.7,2.5-5.7S59.5,10.2,59.5,14z"/>
		<path d="M73.8,8L73.8,8c0.9,0.5,0.9,1.2,0.9,2.4v7.2c0,1.3-0.1,2-0.8,2.3l-0.1,0v0.2h4.1v-0.2l-0.1,0c-0.9-0.5-0.9-1.1-0.9-2.3
			v-7.2c0-1.3,0-2,0.8-2.3l0.1,0V7.8h-4.1L73.8,8L73.8,8z"/>
		<path d="M85.5,12.7v0.2l0.1,0c0.8,0.3,0.9,1,0.9,2.2v3c0,1-0.6,1.5-1.7,1.5c-2.6,0-3-3.5-3-5.6c0-3.6,1.1-5.7,2.9-5.7
			c0.8,0,1.4,0.3,1.8,0.7c0.4,0.5,0.6,1.2,0.4,2l0,0.1l0.3,0.1L88.6,9l-0.1-0.1c-0.8-0.9-2-1.3-3.7-1.3c-3.1,0-5.5,2.8-5.5,6.4
			s2.2,6.3,5.4,6.3c1,0,1.8-0.3,2.4-0.6c0.6-0.2,1-0.4,1.6-0.4h0.2l-0.1-0.2c0,0-0.3-0.7-0.3-1.3v-2.8c0-1.3,0.1-1.9,0.4-2.3l0,0
			v-0.2C89.1,12.7,85.5,12.7,85.5,12.7z"/>
	</g>
</g>
</svg>
