<?xml version="1.0" encoding="utf-8"?>
<!-- Generator: Adobe Illustrator 26.2.1, SVG Export Plug-In . SVG Version: 6.00 Build 0)  -->
<svg version="1.1" id="Layer_1" xmlns="http://www.w3.org/2000/svg" xmlns:xlink="http://www.w3.org/1999/xlink" x="0px" y="0px"
	 viewBox="0 0 200 200" style="enable-background:new 0 0 200 200;" xml:space="preserve">
<style type="text/css">
	.st0{fill:#154734;}
</style>
<path id="Path_10" class="st0" d="M146.01,181.59c6.78,0,7.51-4.11,8.62-7.86c2.48-8.04,5.51-15.9,9.07-23.53
	c1.9-4.11-0.12-6.85-2.26-7.44c-2.52-0.69-4.63,0.94-6.92,4.4c-12.38,18.65-29.81,23.18-44.75,23.18c-8.47,0-9.59-3.11-9.59-11.57
	V33.84c0-8.53,1.84-10.45,9.35-12.99c2.46-0.69,3.94-3.2,3.35-5.68c-0.42-2.28-1.99-3.57-4.87-3.28c-4.85,0.44-13.25,0.6-23,0.6
	c-9.75,0-18.08-0.16-22.92-0.6c-2.77-0.27-4.34,0.94-4.74,3.28c-0.44,2.49,0.44,4.71,3.22,5.68c7.51,2.53,9.32,4.46,9.32,12.99
	V159.8c0,8.53-1.81,10.45-9.32,12.99c-2.52,0.88-3.74,2.74-3.22,5.68c0.44,2.5,2.02,3.44,4.74,3.31c6.67-0.35,42.43-0.82,52.18-0.82
	C126.93,180.96,130.26,181.34,146.01,181.59L146.01,181.59z"/>
</svg>
