<svg width="257" height="23" viewBox="0 0 257 23" fill="none" xmlns="http://www.w3.org/2000/svg">
<path d="M20.5442 19.4379H7.68298V3.40405H11.4541V0.0285034H0V3.40405H3.82742V19.4379H0V22.8135H24.2872V16.0342H20.5442V19.4379Z" fill="white"/>
<path d="M87.8899 3.40369H91.3797L86.1451 17.6372L80.601 3.40369H83.8374V0.0281372H72.721L71.9893 0.0562685V3.40369H75.2538L70.0474 17.6091L64.6721 3.40369H67.7678V0.0281372H56.7077V3.40369H60.7603L68.4433 22.785H71.3701L77.7585 5.20398L84.6535 22.785H87.4397L94.8694 3.40369H98.9782V0.0281372H87.8899V3.40369Z" fill="white"/>
<path d="M118.791 12.0676C120.733 11.6456 122.224 10.9143 123.265 9.87349C124.279 8.86083 124.813 7.56686 124.813 6.01974C124.813 5.34463 124.673 4.64139 124.363 3.91002C124.053 3.20678 123.575 2.5598 122.9 1.96908C122.224 1.40649 121.352 0.928286 120.226 0.562602C119.128 0.196917 117.778 0.0281372 116.202 0.0281372H101.764V3.43182H105.564V19.3813H101.764V22.785H113.19V19.3813H109.419V12.4052H114.766L121.127 22.7568H128.247V19.3531H123.294L118.791 12.0676ZM117.046 8.91708C116.652 8.97334 116.202 9.0296 115.667 9.0296H109.419V3.43182H115.667H115.695H115.864C116.061 3.43182 116.483 3.45994 117.074 3.48807C117.665 3.5162 118.284 3.65685 118.903 3.85376C119.41 4.02254 119.804 4.21944 120.057 4.41635C120.339 4.64139 120.536 4.8383 120.676 5.06333C120.789 5.26024 120.873 5.45715 120.901 5.62592C120.93 5.7947 120.93 5.93535 120.93 6.01974C120.93 6.52607 120.789 6.91988 120.536 7.25743C120.282 7.59499 119.945 7.87629 119.579 8.10132C119.185 8.32636 118.763 8.49514 118.312 8.60766C117.862 8.77644 117.44 8.86082 117.046 8.91708Z" fill="white"/>
<path d="M131.455 3.40369H135.339V9.47967H133.031V12.8552H135.339V19.4375H131.455V22.8131H157.318V16.0901H153.772V19.4375H139.363V12.8552H149.72V9.47967H139.363V3.40369H153.772V6.69485H157.318V0.0281372H131.455V3.40369Z" fill="white"/>
<path d="M179.973 3.43182H183.941V17.6654L168.378 0.0562744H160.498V3.43182H164.354V19.4094H160.498V22.785H171.896V19.4094H167.815V4.61327L184.138 22.785H187.403V3.43182H191.371V0.0562744H179.973V3.43182Z" fill="white"/>
<path d="M213.745 3.43182H217.685V17.6654L202.122 0.0562744H194.242V3.43182H198.097V19.4094H194.242V22.785H205.639V19.4094H201.559V4.61327L217.882 22.785H221.146V3.43182H225.114V0.0562744H213.745V3.43182Z" fill="white"/>
<path d="M245.574 0.0562744V3.43182H248.163L242.703 9.81723L237.272 3.43182H239.777V0.787641L239.72 0.0562744H228.351V3.43182H232.544L240.536 12.7708V19.4376H236.709V22.8131H248.135V19.4376H244.392V12.7708L252.413 3.43182H257V0.0562744H245.574Z" fill="white"/>
<path d="M47.3643 3.40368H51.248V0H36.5294V3.40368H40.4412L31.8014 19.4375H27.8332V22.8412H39.1185V19.4375H35.8258L37.2892 16.7371H50.5445L52.0642 19.4375H48.9966V22.8412H60.0567V19.4375H56.173L47.3643 3.40368ZM39.0903 13.3334L43.7339 4.69764L48.6026 13.3334H39.0903Z" fill="white"/>
</svg>
