<?xml version="1.0" encoding="UTF-8"?><svg id="Port_Charlotte" xmlns="http://www.w3.org/2000/svg" viewBox="0 0 449.17 56.8"><g id="charlotte"><path d="M264.4,56.1h12.29v-23.12c7.29-.08,8.44-.08,8.44,5.92,0,1.53-.15,8.06-.15,9.37,0,4.45,.92,6.07,1.84,7.83h12.06c-1.15-1.31-1.84-2.38-1.84-6v-11.51c0-6.61-.54-9.3-7-10.83,4.15-2.23,6.83-4,6.83-12,0-3.82-.22-7.58-2.61-10.35-3.07-3.37-8-3.53-11.44-3.53h-18.42V56.1Zm16.2-44.78c3.92,0,4.61,.84,4.61,5.5,0,4.12-.23,6.1-2.84,6.64-1.89,.2-3.79,.25-5.68,.15V11.32h3.91Z" fill="#fff"/><polygon points="299.88 56.11 326.61 56.11 326.61 46.5 313.1 46.5 313.1 1.88 299.88 1.88 299.88 56.11" fill="#fff"/><path d="M323.47,39.59c0,6.3,.31,17.2,17.59,17.2,3.92,0,9.83-.23,13.67-4.15,4-4,4-9.21,4-13.52V18.39c0-5.92,0-17.59-17.28-17.59-3.92,0-10,.15-14.14,4.45-3.3,3.46-3.84,7.61-3.84,11.91v22.43Zm13.13-24.74c0-3.22,1.07-4.37,4.3-4.37,3.53,0,4.76,.92,4.76,4.45v27.73c0,3.15-1,4.61-4.53,4.61-4.53,0-4.53-2.15-4.53-4.61V14.85Z" fill="#fff"/><polygon points="355.35 11.4 366.11 11.4 366.11 56.11 379.4 56.11 379.4 11.4 390.23 11.4 390.23 1.88 355.35 1.88 355.35 11.4" fill="#fff"/><polygon points="387.59 11.4 398.34 11.4 398.34 56.11 411.63 56.11 411.63 11.4 422.46 11.4 422.46 1.88 387.59 1.88 387.59 11.4" fill="#fff"/><polygon points="421.14 1.88 421.14 56.11 449.17 56.11 449.17 46.5 434.28 46.5 434.28 33.45 448.33 33.45 448.33 23.84 434.28 23.84 434.28 11.48 449.17 11.48 449.17 1.88 421.14 1.88" fill="#fff"/><path d="M188.6,15.47c0-3.38-.23-7.84-4.14-11-3.54-2.92-8.3-3.61-13-3.61-3.84,0-10.67,.31-14.75,5.3-2.3,2.84-2.69,6.07-2.69,9.91v26.73c0,8.53,2.69,14,17.14,14,15.36,0,17.74-6.22,17.74-16.51v-4.84h-13.21v6.76c0,2.69,0,5.37-4.23,5.37-3.91,0-4.37-1.91-4.37-5.37V15.21c0-2.61,.38-4.92,4.07-4.92,4.07,0,4.53,1.84,4.53,4.84v6.76h12.91v-6.42Z" fill="#fff"/><polygon points="190.28 56.11 203.42 56.11 203.42 33.37 212.56 33.37 212.56 56.11 225.69 56.11 225.69 1.88 212.56 1.88 212.56 23.77 203.42 23.77 203.42 1.88 190.28 1.88 190.28 56.11" fill="#fff"/><path d="M225.37,56.1h12.83l1.92-12.36h10.06l1.84,12.36h12.83L253.85,1.87h-17.5l-10.98,54.23Zm23.5-21.5h-7.27l3.7-24.12,3.57,24.12Z" fill="#fff"/></g><g id="Port"><path d="M0,56.11H13.14v-19.74h9.45c7.83,0,12.06-1.92,12.06-12.28V13.01c0-8-3.23-11.13-12.75-11.13H0V56.11ZM13.14,26.77V11.17c1.61,0,6.68,0,7.6,.39,1.61,.76,1.61,1.83,1.61,7,0,6.88,0,8.34-4.83,8.26l-4.38-.05Z" fill="#fff"/><path d="M34.72,39.6c0,6.3,.31,17.2,17.6,17.2,3.91,0,9.83-.23,13.67-4.14,4-4,4-9.22,4-13.52V18.4c0-5.92,0-17.59-17.28-17.59-3.92,0-10,.15-14.14,4.45-3.31,3.46-3.85,7.61-3.85,11.91v22.43Zm13.14-24.74c0-3.22,1.08-4.37,4.31-4.37,3.53,0,4.75,.92,4.75,4.45v27.73c0,3.15-1,4.61-4.53,4.61-4.53,0-4.53-2.15-4.53-4.61V14.86Z" fill="#fff"/><path d="M72.6,56.11h12.29v-23.12c7.29-.08,8.45-.08,8.45,5.91,0,1.54-.15,8.07-.15,9.38,0,4.45,.92,6.06,1.84,7.83h12.06c-1.15-1.3-1.85-2.38-1.85-6v-11.51c0-6.61-.53-9.29-7-10.83,4.14-2.23,6.83-4,6.83-12,0-3.82-.23-7.58-2.61-10.35-3.07-3.37-8-3.53-11.45-3.53h-18.41V56.11ZM88.81,11.33c3.91,0,4.6,.84,4.6,5.5,0,4.12-.22,6.1-2.84,6.64-1.89,.2-3.79,.25-5.68,.15V11.33h3.92Z" fill="#fff"/><polygon points="102.1 11.41 112.85 11.41 112.85 56.11 126.14 56.11 126.14 11.41 136.97 11.41 136.97 1.89 102.1 1.89 102.1 11.41" fill="#fff"/></g></svg>