<svg viewBox="0 177.38896 455.57629931972787 131.65104" xmlns="http://www.w3.org/2000/svg" id="Layer_3" style="max-height: 500px" width="455.57629931972787" height="131.65104"><defs><style>.cls-1{fill:#bf9661;}</style></defs><g id="Layer_1"><path d="M243.76,80.91h-7.11v-9.48h-20.06v38.48h-7.84v-56.36h7.84v10.03h20.06v-28.18c.02-1.65-1.74-2.52-3.49-2.49-.93.01-12.39-.09-14.39.12-1.27.13-2.12.89-2.19,2.37v2.83h-7.75l-.27-.27v-3.1c0-7.05,2.81-8.1,6.2-9.3,3.26-1.15,12.55-.96,16.33-.83,4.04.14,12.67-.1,12.67,6.3v49.88Z" class="cls-1"/><path d="M232.63,42.24v7.84h-35.57v34.56l7.83.17c.21,0,.24.01.37.2,0,0-.06,7.75-.09,7.75h-15.41v-50.52h42.86Z" class="cls-1"/><path d="M220.05,92.76v-7.84h33.65c4.18-.27,3.39-5.47,3.38-7.2-.02-6.12-.02-23.15-.02-23.15,0-2.73-1.27-3.6-2.49-4.03-2.11-.76-4.46-.4-6.62-.46v-7.84h8.85c.23,0,7.45,0,7.7,9.36.17,6.39-.03,18.63-.13,25.02-.13,8.11,1.2,16.14-9.21,16.14h-35.11Z" class="cls-1"/><rect height="13.68" width="7.11" y="96.23" x="236.65" class="cls-1"/><path d="M196.55,127.65h61.24l24.47-24.47V31.35l-24.47-24.47h-61.24l-24.47,24.47v71.83l24.47,24.47ZM260.64,134.54h-66.94l-28.5-28.5V28.5L193.7,0h66.94l28.5,28.5v77.54l-28.5,28.5Z" class="cls-1"/><path d="M17.67,298.48h4.62c2.98,0,5.41-.62,7.29-1.87,1.88-1.25,3.26-3.14,4.14-5.68.88-2.54,1.32-5.84,1.32-9.9s-.49-7.32-1.47-9.93c-.98-2.61-2.46-4.56-4.44-5.83s-4.46-1.91-7.44-1.91h-8.8v35.12h4.77ZM0,254.06h20.16c6.6,0,11.97.98,16.13,2.93,4.15,1.96,7.22,4.91,9.2,8.87,1.98,3.96,2.97,8.99,2.97,15.1s-.9,11.35-2.71,15.29c-1.81,3.93-4.66,6.87-8.54,8.8-3.89,1.93-8.96,2.9-15.21,2.9H0v-53.89Z"/><rect height="53.89" width="13.86" y="254.06" x="54.99"/><path d="M91.68,307.91c-3.47-.76-6.56-1.75-9.27-2.97-2.71-1.22-4.8-2.54-6.27-3.96l6.01-8.94c.54.34,1.22.76,2.05,1.25,1.86,1.07,3.67,2,5.42,2.79,1.76.78,3.74,1.44,5.94,1.98,2.2.54,4.52.81,6.96.81,3.03,0,5.41-.27,7.15-.81,1.73-.54,2.96-1.27,3.67-2.2.71-.93,1.06-2.03,1.06-3.3,0-1.66-.48-2.96-1.43-3.89-.95-.93-2.15-1.6-3.59-2.02-1.44-.42-3.31-.74-5.61-.99-5.28-.44-9.8-1.14-13.56-2.09-3.76-.95-6.87-2.59-9.31-4.91-2.44-2.32-3.67-5.54-3.67-9.64,0-3.18.83-5.97,2.49-8.39,1.66-2.42,4.18-4.31,7.55-5.68,3.37-1.37,7.48-2.05,12.32-2.05,4.5,0,8.83.39,13.01,1.17,4.18.78,7.78,1.76,10.81,2.93l-4.47,9.24c-2.25-.83-4.14-1.47-5.68-1.91-1.54-.44-3.46-.86-5.75-1.25-2.3-.39-4.74-.59-7.33-.59-3.52,0-6.06.51-7.62,1.54-1.57,1.03-2.35,2.49-2.35,4.4,0,1.07.27,2.04.81,2.9.54.85,1.47,1.53,2.79,2.02,1.27.44,2.69.81,4.25,1.1,1.56.29,3.4.56,5.5.81,4.89.59,8.93,1.37,12.13,2.35,3.2.98,5.8,2.55,7.81,4.73,2,2.18,3.01,5.12,3.01,8.83,0,3.91-1.03,7.2-3.08,9.86-2.05,2.66-4.91,4.67-8.58,6.01-3.67,1.34-7.92,2.02-12.76,2.02-3.47,0-6.94-.38-10.41-1.14"/><path d="M137.46,263.62c-1.96.12-4.86.26-8.72.4v-9.97h49.05v9.97c-4.01-.2-6.99-.34-8.94-.44-1.96-.1-4.86-.22-8.72-.37v44.72h-13.71v-44.72c-4.01.15-6.99.28-8.94.4"/><rect height="53.89" width="13.86" y="254.06" x="182.89"/><path d="M230.83,297.97c3.42-.1,8.55-.2,15.4-.29v10.26h-40.03l8.94-9.68c7.04-.1,12.27-.2,15.69-.29M204.37,254.06h13.86v53.89h-13.86v-53.89Z"/><path d="M278.25,297.97c3.42-.1,8.55-.2,15.4-.29v10.26h-40.03l8.94-9.68c7.04-.1,12.27-.2,15.69-.29M251.79,254.06h13.86v53.89h-13.86v-53.89Z"/><polygon points="299.21 254.06 342.24 254.06 342.24 264.17 311.23 263.44 311.23 278.4 337.26 277.42 337.26 284.88 311.23 283.9 311.23 298.56 343.27 297.83 343.27 307.94 299.21 307.94 299.21 254.06"/><path d="M382.94,300.94c-.71-1.54-1.77-3.82-3.19-6.85-.83-1.81-2.42-5.28-4.77-10.41l11.73-.22,3.3,5.13,11.95,19.43h-15.76c-1.47-3.18-2.55-5.54-3.26-7.08M390.35,255.71c3.25,1.1,5.58,2.81,7,5.13,1.42,2.32,2.13,5.39,2.13,9.2s-.72,7.01-2.16,9.6c-1.44,2.59-3.8,4.57-7.07,5.94-3.28,1.37-7.6,2.05-12.98,2.05h-14.44l-.88-5.86h13.93c3.96,0,6.79-.77,8.5-2.31,1.71-1.54,2.57-4.12,2.57-7.73,0-1.91-.38-3.46-1.14-4.65-.76-1.2-1.9-2.1-3.41-2.71-1.52-.61-3.49-.92-5.94-.92h-14.52l.88-9.38h14.52c5.43,0,9.76.55,13.01,1.65M351.38,254.06h13.86v53.89h-13.86v-53.89Z"/><path d="M420.54,289.83l-20.31-35.78h16.06l14.19,30.92c1.71-6.7,6.63-24.37,8.24-30.92h15.62l-20.75,34.9v18.99h-13.05v-18.11Z"/><path d="M62.4,210.12c-.78-2.64-1.71-5.91-2.79-9.82-1.57-6.35-2.49-10.63-2.79-12.83h-1.54c-.59,3.13-1.27,6.4-2.05,9.82-1.37,4.74-2.52,8.59-3.45,11.55-.93,2.96-1.93,5.93-3.01,8.91h18.18c-.93-2.44-1.78-4.99-2.57-7.62M47.07,182.48h19.79l17.74,53.89h-15.1c-.34-.98-.64-1.89-.88-2.75-.24-.86-.51-1.77-.81-2.75-.73-2.54-1.37-4.64-1.91-6.3l-20.09-.07-3.59,11.88h-13.34l18.18-53.89Z"/><path d="M107.39,226.91h4.62c2.98,0,5.41-.62,7.29-1.87,1.88-1.25,3.26-3.14,4.14-5.68.88-2.54,1.32-5.84,1.32-9.9s-.49-7.32-1.47-9.93c-.98-2.61-2.46-4.56-4.44-5.83-1.98-1.27-4.46-1.91-7.44-1.91h-8.8v35.12h4.77ZM89.73,182.48h20.16c6.6,0,11.97.98,16.13,2.93,4.15,1.95,7.22,4.91,9.2,8.87,1.98,3.96,2.97,8.99,2.97,15.1s-.9,11.35-2.71,15.29c-1.81,3.93-4.65,6.87-8.54,8.8-3.89,1.93-8.96,2.9-15.21,2.9h-21.99v-53.89Z"/><path d="M222.49,226.4c3.42-.1,8.55-.19,15.4-.29v10.26h-40.03l8.95-9.68c7.04-.1,12.27-.2,15.69-.29M196.02,182.48h13.86v53.89h-13.86v-53.89Z"/><path d="M276.53,210.12c-.78-2.64-1.71-5.91-2.78-9.82-1.57-6.35-2.49-10.63-2.79-12.83h-1.54c-.59,3.13-1.27,6.4-2.05,9.82-1.37,4.74-2.52,8.59-3.45,11.55-.93,2.96-1.93,5.93-3.01,8.91h18.18c-.93-2.44-1.78-4.99-2.57-7.62M261.21,182.48h19.79l17.74,53.89h-15.1c-.34-.98-.64-1.89-.88-2.75-.24-.86-.51-1.77-.81-2.75-.73-2.54-1.37-4.64-1.91-6.3l-20.09-.07-3.59,11.88h-13.34l18.18-53.89Z"/><rect height="53.89" width="13.86" y="182.48" x="303.74"/><path d="M343.9,226.91h4.62c2.98,0,5.41-.62,7.29-1.87,1.88-1.25,3.26-3.14,4.14-5.68.88-2.54,1.32-5.84,1.32-9.9s-.49-7.32-1.47-9.93c-.98-2.61-2.46-4.56-4.44-5.83s-4.46-1.91-7.44-1.91h-8.8v35.12h4.77ZM326.23,182.48h20.16c6.6,0,11.97.98,16.13,2.93,4.15,1.95,7.22,4.91,9.2,8.87,1.98,3.96,2.97,8.99,2.97,15.1s-.91,11.35-2.71,15.29c-1.81,3.93-4.66,6.87-8.54,8.8-3.89,1.93-8.96,2.9-15.21,2.9h-21.99v-53.89Z"/><polygon points="381.38 182.46 424.42 182.46 424.42 192.58 393.41 191.85 393.41 206.8 419.44 205.82 419.44 213.28 393.41 212.3 393.41 226.96 425.45 226.23 425.45 236.35 381.38 236.35 381.38 182.46"/><polygon points="143.76 182.53 186.8 182.53 186.8 192.65 155.79 191.92 155.79 206.87 181.82 205.89 181.82 213.35 155.79 212.37 155.79 227.04 187.82 226.3 187.82 236.42 143.76 236.42 143.76 182.53"/></g></svg>