<?xml version="1.0" encoding="UTF-8"?> <svg xmlns="http://www.w3.org/2000/svg" height="250" viewBox="0 0 250 250" width="250"><path d="m118.1 232.3c-.8.6-1.7 1.1-2.5 1.7-.2.2-.5.2-.7-.1-.4-.7-.8-1.4-1.3-2.1-.8-1.2-1.2-2.5-1.2-3.9 0-1 .1-2 .1-3 0-2.8 0-5.6 0-8.4 0-.1-.1-.3-.1-.4-.7-.9-1.5-1.8-2.3-2.7-.2-.2-.4-.2-.6-.1s-.3.2-.5.3c-.8.7-1.6 1.4-2.5 2-.5.4-.7.9-.7 1.6.1 1.7.1 3.5.1 5.2v5.5c0 1 0 1.9.1 2.8.1.8-.1 1.4-.7 1.9-1.1.7-2.2 1.4-3.4 2.2 0-.3-.1-.5-.1-.7.1-1.9.1-3.8.1-5.8 0-1.6-.1-3.1 0-4.7 0-.8.1-1.7.1-2.6 0-2-.1-4.1-.1-6.2.1-1.1-.2-2-.8-2.9-.2-.4-.5-.8-.7-1.3.4-.1.8-.1 1.2-.2h2.2c.3 0 .5.1.7.4.5.8 1 1.6 1.5 2.4.2.3.4.3.7.1 1.2-1 2.4-2.1 3.6-3.1.6-.5 1.4-.7 2.1-.1.4.3.8.7 1.1 1.1.9 1.1 1.8 2.1 2.6 3.2.2.3.2.8.2 1.3 0 1.4-.1 2.8-.1 4.1 0 2.5.1 5.1.1 7.6 0 .4-.1.7-.1 1-.1.8.3 1.4.7 2.1.5.6.9 1.2 1.2 1.8z"></path><path d="m168.2 210.1c1.1-.1 2.2-.1 3.3-.1.1 0 .4.1.4.2.7 1 1.5 2 1.9 3.3.4-.4.8-.7 1.1-1 1.1-.9 2.1-1.9 3.2-2.7.9-.7 1.4-.7 2.2.2 1.1 1.2 2.2 2.5 3.3 3.7.2.2.3.5.3.8v6.3c0 2.4-.1 4.8-.1 7.1 0 .6.3 1.3.5 1.9.2.5.6 1 1 1.5.2.3.2.5-.1.7-.7.4-1.3.8-2 1.3-.4.2-.6.2-.8-.2-.7-1.1-1.4-2.1-2-3.2-.3-.6-.4-1.3-.4-2-.1-3.1 0-6.2 0-9.3 0-.7 0-1.3.1-1.9.1-.8-.1-1.6-.7-2.2-.5-.6-1-1.2-1.4-1.7-.4-.4-.7-.4-1.1-.1-1 .8-2 1.7-2.9 2.6-.2.2-.4.5-.4.8-.1 2.3-.1 4.7-.1 7.1s.1 4.7.1 6.9v1.3c0 .1-.1.4-.2.4-1 .7-2 1.3-3.1 1.9-.3.2-.5 0-.5-.4 0-.5-.1-1.1-.1-1.7 0-2.7 0-5.3.1-8 0-2.2.1-4.5.1-6.7 0-1 .1-2 0-3.1 0-.8-.4-1.5-.8-2.2-.1-.4-.5-1-.9-1.5 0 .1 0 .1 0 0z"></path><path d="m184.8 210h3.5c.1 0 .2.1.3.2.3.4.5.8.8 1.1.9 1.1.9 2.5.8 3.8-.1 1.4 0 2.9 0 4.3 0 .7.2.8.8 1 .9.2 1.7.1 2.6-.2 1-.4 1.7-1 1.8-2.2.1-1.1.1-2.2.1-3.2.1-1.3.1-2.6.1-3.9 0-.7.1-.8.8-.9 1-.1 1.9 0 2.8 0v1.1c0 1.8 0 3.5-.1 5.3-.1 1.9-1 3.5-2.6 4.4-.3.2-.5.3-.8.5s-.3.4 0 .6c.5.4 1.1.8 1.6 1.2.7.6 1 1.4 1.1 2.3.2 1.8.4 3.7.6 5.5.1.7.3 1.4.5 2 .2.5.5.9.8 1.4-.5-.1-.9-.1-1.3-.2-2.6-.6-3.8-2.8-4.1-4.9-.1-1.1-.1-2.3-.2-3.5-.1-1.1-.5-2-1-3-.1-.2-.4-.5-.6-.7-.7-.5-1.4-.8-2.2-.8-.3 0-.4.1-.5.4 0 .6-.1 1.1-.1 1.7 0 2.3 0 4.6.1 6.9.1.9-.2 1.4-1 1.9-.7.4-1.4.8-2 1.2-.4.3-.7.2-.7-.3-.1-.5-.1-.9-.1-1.4 0-1.6.1-3.1.1-4.7 0-4.4 0-8.9 0-13.4 0-1-.5-1.7-.9-2.5-.4-.1-.7-.5-1-1z"></path><path d="m127.2 221.4h5.3c.8 0 1.4.7 1.5 1.5s-.1 1.4-.4 2.1c-.7 1.4-1.4 2.8-2.2 4.1-.7 1.3-1.3 2.5-1.9 3.8 0 .1-.1.1-.1.1-.7 1.6-2 1.9-3.5 1.1-.7-.4-1.4-1-2-1.6-1.3-1.4-2.5-2.9-3.3-4.7-.7-1.4-1.2-2.9-1.7-4.4-.7-1.9-1.2-3.8-1.3-5.8 0-.8 0-1.7.1-2.5.3-1.6 1.3-2.8 2.7-3.7 1.4-.8 2.9-1.2 4.6-1.1 1.3.1 2.6 0 4 0 1.2 0 2.4-.1 3.7-.1.7 0 .8.3.5.9-.4.7-.7 1.4-1 2.2-.2.5-.5.7-1 .7-3.3 0-6.6-.1-9.9-.1-1 0-1.5.7-1.3 1.6.2 1 .5 1.9.9 2.9.3.9.7 1.9 1 2.8.5 1.4 1.1 2.7 1.7 4 .9 1.8 1.9 3.6 2.8 5.4.2.4.5.8.9 1.1s.7.2 1-.2c.5-.8 1-1.6 1.4-2.3.5-1 1-2 1.5-3.1.3-.6.2-.8-.4-.9-.2-.1-.5-.1-.8-.1-.8 0-1.7 0-2.5 0-.5 0-.7-.1-.7-.7 0-1 .1-1.9.1-2.9.3 0 .3-.1.3-.1z"></path><path d="m60.4 217.3c-.4-.8-.7-1.7-1.1-2.5-.5-1-1.1-1.9-1.9-2.6-.7-.5-1.4-.8-2.2-.8-1.1 0-1.9.5-2.4 1.4-.4.8-.4 1.5.1 2.2.4.6.8 1.2 1.3 1.7 2 2.1 4 4.1 5.9 6.2 1.1 1.3 2.3 2.5 3.2 3.9.4.7.7 1.4.6 2.2-.1 1.3-.4 2.6-1.2 3.7-.8 1-1.9 1.6-3.1 2-1.7.6-3.4.7-5.2.1-2.2-.8-3.6-2.4-4.8-4.3-.1-.1-.1-.3 0-.4.1-.2.2-.4.3-.5.8-.7 1.5-1.4 2.3-2.1.5-.4.6-.3.9.2 1 1.9 2 3.7 3.7 5.1 1.1 1 3 .8 4-.2.7-.7.9-1.6.4-2.5-.5-.8-1-1.6-1.7-2.3-1.6-1.7-3.2-3.4-4.7-5-1.4-1.6-2.8-3.1-4.1-4.7-.8-1.1-1.1-2.3-.7-3.7.5-1.8 1.6-3.1 3.2-3.9.5-.2 1.1-.4 1.6-.4 1.6-.2 3.1-.1 4.6.5 1.7.8 2.9 2.1 3.7 3.7.1.1.1.4 0 .5-.8.8-1.6 1.5-2.5 2.3 0 .1-.1.2-.2.2z"></path><path d="m96 234.5c-.1-.4-.1-.8-.2-1.2 0-.8.1-1.5.1-2.3 0-1.4-.1-2.7-.1-4.1 0-1.8.1-3.7.1-5.5 0-2.5-.1-4.9 0-7.3 0-.6-.2-1-.4-1.5-.3-.5-.7-1.1-1-1.6-.1-.2-.1-.5.2-.5.8-.1 1.7 0 2.5-.1.9-.1 1.3.3 1.8 1 .9 1.4 1 2.9 1 4.6.1 2.7.1 5.3.1 8v6.7c0 1-.4 1.7-1.3 2.2-.8.4-1.6.9-2.5 1.4-.1.2-.2.2-.3.2z"></path><path d="m148.4 222.5c-1.1-1-2.5-1.3-4-1.5-.2 0-.4-.2-.5-.2.1-.2.2-.4.3-.5.8-.8 1.7-1.5 2.6-2.3 1-1 1.9-2.1 2.4-3.4s.2-2.4-.5-3.4c-.3-.4-.6-.7-1-1-.9-.7-1.9-.9-2.9-.4-.5.2-1 .6-1.4 1-1 .9-2 1.9-3.1 2.8-.1.1-.2.2-.3.2s-.3-.1-.3-.1c-.2-1.1-1-1.9-1.4-2.9-.1-.2-.4-.4-.6-.4-.8-.1-1.6-.1-2.5 0-.8 0-1 .4-.5 1.1.3.5.7 1 1 1.6.2.3.3.7.3 1 .1 1.1.1 2.1.1 3.2 0 .4-.1.8 0 1.2 0 1.1.1 2.3.1 3.5 0 2 0 4-.1 6.1v1.6c0 1-.1 2-.1 3v1.9h3.7c0-.7 0-1.4 0-2.2.2.2.4.2.5.4 1 .7 2 1.3 3.2 1.6 1.7.4 3.4.2 4.9-.8 1.9-1.3 2.5-3.2 2.6-5.4.1-2.6-.8-4.3-2.5-5.7zm-8.3-6.8c.8-.8 1.6-1.5 2.4-2.2.5-.4 1-.7 1.6-.6.5.1 1 .4 1.2.9.5.9.7 1.9.1 2.8-.4.7-1 1.4-1.6 2-1 1-2.2 1.9-3.2 2.9-.1.1-.3.2-.4.3-.4.2-.5.2-.5-.2 0-.9 0-1.8 0-2.7 0-.5 0-1 0-1.4 0-.2 0-.3 0-.5-.1-.7.1-1 .4-1.3zm6.1 14.2c-.4 1.1-1.3 1.8-2.5 1.9-1.3.1-2.5-.2-3.5-1.1-.5-.4-.5-1-.5-1.6 0-.7 0-1.3 0-2 0-.7 0-1.4 0-2.2 0-.4.1-.8.4-1.1.7-.6 1.4-1.2 2.2-1.9.4-.3.7-.2 1.1-.1 1 .4 1.8 1 2.3 1.9 1.2 2 1.3 4.1.5 6.2z"></path><path d="m94.6 234.5c-.1-.1-.1-.2-.2-.3-.7-1.1-1-2.2-1.2-3.5-.1-.9-.1-1.8-.2-2.7-.1-1.4-.7-2.5-1.9-3.2-.3-.2-.6-.4-.8-.7-.1-.1-.1-.4.1-.5.3-.4.7-.7 1-.9 1.4-1.1 2.1-2.5 2.5-4.1s.2-3.2-.2-4.7c-.5-1.7-1.6-2.9-3.2-3.5-1.1-.4-2.2-.2-3 .5-1 .9-2 1.8-3.1 2.7-.2.2-.5.2-.6-.1-.4-.7-.9-1.4-1.3-2.1-.2-.4-.4-.7-1-.7-.9.1-1.9 0-2.8.1-.5 0-.6.3-.4.7.3.5.6 1.1 1 1.6.3.5.4 1 .5 1.6 0 1.9 0 3.7.1 5.6 0 1.6.1 3.1.1 4.7s0 3.2-.1 4.8c0 1.3-.1 2.6-.1 3.8 0 .5.1 1 .1 1.6l.6-.3c.8-.5 1.7-1.1 2.6-1.6.6-.3.7-.8.7-1.4 0-.4-.1-.8-.1-1.2 0-1.4.1-2.8.1-4.2 0-.8 0-1.6.1-2.3 0-.1.2-.4.3-.4 1.1-.1 2.3.1 3.2.8 1 .8 1.3 1.9 1.6 3 .3 1.3.4 2.5.7 3.8s.9 2.3 2.1 2.9c.8.4 1.7.5 2.7.6.1 0 .2-.1.4-.1-.2-.2-.2-.3-.3-.3zm-5.3-14.3c-.4.7-.8 1.3-1.5 1.7-.1.1-.2.1-.3.1-.5.2-.9.3-2.2.3-.4 0-.7 0-1.1 0s-.5-.2-.5-.5c0-.7-.1-1.4-.1-2.2 0-.9.1-1.9.1-2.8 0-.5.2-1 .6-1.4 1-.9 2-1.8 3.1-2.7.5-.5.8-.4 1.3.1 2.3 2.2 1.9 5.3.6 7.4z"></path><path d="m168.9 230.8c-.4-.8-.9-1.7-1.3-2.5-1.3-2.6-2.6-5.3-4-8-1.3-2.5-2.5-5-3.7-7.5-.5-.9-1.1-1.7-1.9-2.4-1.2-.9-2.6-1.2-4-1-1.7.2-3.1.8-3.9 2.3-.3.5-.2 1 .1 1.4.4.7.8 1.3 1.2 2 .2.4.5.7.8 1.2.2-.9.5-1.7.7-2.5s.5-1.6 1-2.2c.3-.5.8-.5 1.2-.1.2.2.5.5.7.8.7 1.1 1.3 2.3 1.9 3.5.7 1.4 1.3 2.8 1.9 4.3.1.3.1.4-.2.4s-.6-.1-.9-.1c-1.4-.2-2.9-.4-4.3-.5-1.3-.1-2.2.4-2.5 1.4-.4 1-.5 1.9-.3 2.9.4 1.9 1.1 3.7 2 5.3.5 1 1.1 1.9 1.7 2.8.6.8 1.3 1.5 2.2 1.8 1.4.5 2.4.1 3.1-1.1.8-1.4 1.7-2.9 2.6-4.3.3-.5.5-.5.7 0 .5 1 1.1 2.1 1.6 3.1.4.7.7 1.4 1.1 2.3.4-.3.7-.6 1-.8.4-.4.8-.8 1.3-1.2.4-.6.5-.9.2-1.3zm-6.6-4.2c-.4.8-1 1.6-1.4 2.4-.3.5-.5 1-1 1.3-.3.1-.6.2-.9.4-.5-.1-.8-.2-1-.6-.3-.5-.6-1-.8-1.4-.7-1.5-1.4-3-2-4.5-.1-.4-.2-.7-.4-1-.3-1 .2-1.7 1.2-1.7 1.4.1 2.9.2 4.3.8.2.1.3.2.4.3.7 1.1 1.3 2.3 1.7 3.5.1.1 0 .3-.1.5z"></path><path d="m76.3 211.4c-.4-.4-.7-.7-1.1-.9-1.1-.7-2.2-.5-3.1.4-.7.7-1.4 1.4-2.2 2-.3.2-.5.5-.8.8-.2.2-.4.2-.6-.1-.2-.4-.5-.7-.8-1.1-.3-.5-.5-1-.9-1.4-.1-.1-.4-.2-.5-.2-1 0-2 0-3 0-.2 0-.5.1-.5.2-.1.2.1.4.2.5.4.6.8 1.1 1.2 1.7.1.1.2.3.2.5.1.5.1.9.1 1.4v4.3c0 3.2.1 6.4.1 9.6v5c0 .5.2.6.7.4.1-.1.1-.1.2-.1.8-.5 1.7-1 2.5-1.6.2-.2.5-.6.5-1 .1-.5.1-1.1.1-1.7 0-1.4-.1-2.8-.1-4.3 0-.8.1-1.5.1-2.3.4.2.5.3.8.4.8.5 1.7 1 2.8 1.3 1 .3 1.9.4 2.8.1 2.2-.8 3.6-2.5 4.1-4.9.5-3.4-.4-6.4-2.8-9zm-3.3 11.2c-.8.7-1.8.8-2.8.5-.5-.2-1.1-.5-1.6-.8-.3-.1-.4-.4-.4-.7 0-.8 0-1.6 0-2.5h.1c0-.9 0-1.8 0-2.7 0-.1.1-.2.1-.4.8-.8 1.6-1.6 2.5-2.3.7-.6 1.8-.5 2.6.2 1 .9 1.6 2 1.6 3.4.1 2.2-.5 3.9-2.1 5.3z"></path><path d="m53.2 14.7h141.4v176.7h-141.4z" fill="none" stroke="#000" stroke-miterlimit="10" stroke-width="6.2781"></path><path d="m177.6 106.3c-12.4-19.8-32.6-18.9-32.6-18.9s3.1-4.9 3.2-5.4-2.5-2.4-3.9-.5-14.1 22.9-14.1 22.9-16.8-3.8-22.5-16.5c-5.6-12.8-6.9-31.9 16.3-41.4 6.3 3.7 11.8 8.9 15.7 15 11.6 18.5 8.9 19.2 12.2 13.9 3.2-5.3 18.5-31.2 18.6-31.6s-3-2.5-3.4-2.2c-.4.4-5.9 9.3-5.9 9.3s-21.8-21.8-44.9-21.8-45.6 7.5-51.6 38.1h3.6s1.3-16.3 17.5-24.6c9.3-4.8 21.9-4 33.1 1.1-2.6 1-23.5 10.5-26.1 34.4-2.8 25.5 8.2 37.7 24.7 48l-1.7 3.1 2.9 2s11.6-20.7 12.5-21.6 26.3.9 34.2 16.3 6 37.1-7.5 40.3c-13.5 3.1-21.6-4.6-21.6-4.6s8.7-4.3 20.9-6.9l-.8-4.3s-13.8 3.5-23.5 8.3c0 0-14.6-13.4-29.6-22.2s-32.8-5.5-37.3 8.4c-4.4 13.9 6.6 26.1 24.7 27.9 18.5 1.9 28.2-4.5 28.2-4.5s18.7 9.4 41 1c22.6-8 30.1-43.1 17.7-63zm-48.8-62.9c.1.1 4.1 3.1 8.7 7.8 4.3 4.3 9.9 10.9 12.5 17.7l-1.1.4c-4.9-12.8-20.7-24.9-20.8-25zm-16.5-6.1.3-1.1c.3.1 6.6 1.8 10.5 4.3l-.6 1c-3.8-2.4-10.2-4.2-10.2-4.2zm6.6 85.2c-13.9-8.6-19.6-18.4-22-25-1.4-3.8-1.8-7-1.9-9-.1-2.2.1-3.5.1-3.6l1.1.2-.7-.1.5.1c0 .1-.7 5.1 1.8 12.1 2.3 6.5 8 15.9 21.6 24.4zm-27.2 46.4c-12.2-2.3-22.5-8.1-21.8-17s8.2-8.4 16.8-4.6c9.6 4.2 16.1 14.4 27.7 19.2.1 0-10.5 4.8-22.7 2.4zm25.3-3.6c-.1-.1-8.7-3.8-19.5-14-5.6-5.4-11.3-7.5-15-8.3-4-.8-6.7-.4-6.7-.4l-.2-1.1c.1 0 2.9-.5 7.1.4 3.9.8 9.7 2.9 15.5 8.6 10.5 10.1 19 13.8 19.1 13.8zm13.3 4.8c-3.4-.8-8.3-2.5-8.3-2.6l.4-1.1c.1 0 4.9 1.7 8.2 2.5zm42-33.4c-1-7.3-3.7-13.5-7.7-18.4-3.2-3.9-7.4-7-12.5-9.2-8.6-3.7-16.8-3.5-16.8-3.5l-.1-1.1c.4 0 8.4-.2 17.3 3.6 5.2 2.3 9.5 5.5 12.9 9.5 4.2 5 6.9 11.4 8 19z"></path></svg> 