<svg xmlns="http://www.w3.org/2000/svg" fill="none" viewBox="0 0 343 309" height="309" width="343">
<path fill="white" d="M17.0785 80L19.8019 76.7987L31.4125 52.0965L28.7846 48.2741H33.9926L47.8966 77.3721L50.1422 80H41.3507L43.5964 77.4199L41.5896 73.1675H23.911L22.2387 76.7987L24.4366 80H17.0785ZM24.8666 71.1607H40.6818L32.7503 54.4377L24.8666 71.1607ZM80.2935 80.4778C75.9455 80.4778 71.1675 79.4744 67.8229 77.7066V69.4406C70.1641 76.2254 76.0889 78.4233 80.8191 78.4233C85.4537 78.4233 88.7506 76.4643 88.7506 72.2119C88.7506 69.5362 87.5083 67.5294 82.8736 66.2871L76.2322 64.5193C71.072 63.1337 68.3007 60.6013 68.3007 56.3011C68.3007 50.7586 73.0787 47.7963 79.6724 47.7963C83.5425 47.7963 86.8871 48.6563 89.8017 50.0419V57.639C88.0816 52.6698 84.4981 49.8508 79.2901 49.8508C73.9865 49.8508 71.5498 52.1443 71.5498 55.25C71.5498 58.069 73.5087 59.7413 77.7134 60.8402L84.0203 62.5125C89.8017 64.0415 92.1907 66.6216 92.1907 70.9218C92.1907 77.4677 86.9349 80.4778 80.2935 80.4778ZM107.242 80L110.395 77.0376V50.4242H101.604L97.7335 57.1612V48.2741H126.927V57.1612L123.057 50.4242H114.265V77.0376L117.419 80H107.242ZM148.424 80.4778C139.298 80.4778 132.226 73.263 132.226 64.1848C132.226 55.0111 139.202 47.7963 148.424 47.7963C157.932 47.7963 164.621 55.0111 164.621 64.1848C164.621 73.3586 158.027 80.4778 148.424 80.4778ZM148.424 78.3277C156.307 78.3277 160.082 73.0241 160.082 64.1848C160.082 55.2022 156.259 49.9464 148.424 49.9464C140.826 49.9464 136.813 55.2977 136.813 64.1848C136.813 73.1197 140.874 78.3277 148.424 78.3277ZM172.111 80L174.309 77.0376V51.2364L172.111 48.2741H185.298C193.325 48.2741 198.151 50.5675 198.151 56.97C198.151 63.1337 193.134 65.2838 190.076 65.7616L198.247 76.3209L202.069 80H193.803L194.281 77.4199L185.633 66.2394H178.227V77.0376L180.425 80H172.111ZM185.298 64.2326C191.032 64.2326 193.803 62.3692 193.803 57.3523C193.803 52.192 191.032 50.4242 185.298 50.4242H178.227V64.2326H185.298ZM214.493 80L217.646 77.0376V69.7273L205.654 50.8064L203.265 48.2741H211.674L210.288 50.8064L220.561 67.0994L229.687 51.8576L228.493 48.2741H235.946L232.219 51.8576L221.517 69.7273V77.0376L224.67 80H214.493ZM269.502 80.4778C260.376 80.4778 253.305 73.263 253.305 64.1848C253.305 55.0111 260.281 47.7963 269.502 47.7963C279.01 47.7963 285.7 55.0111 285.7 64.1848C285.7 73.3586 279.106 80.4778 269.502 80.4778ZM269.502 78.3277C277.386 78.3277 281.16 73.0241 281.16 64.1848C281.16 55.2022 277.338 49.9464 269.502 49.9464C261.905 49.9464 257.892 55.2977 257.892 64.1848C257.892 73.1197 261.953 78.3277 269.502 78.3277ZM293.19 80L295.388 77.0376V51.2364L293.19 48.2741H316.698V56.3011L313.114 50.4242H299.306V62.9903H309.626L312.445 59.5024V68.5806L309.626 65.1404H299.306V76.9899L302.937 80H293.19Z"></path>
<path fill="white" d="M10.6071 149L13.7605 146.038V119.424H4.96903L1.09885 126.161V117.274H30.2924V126.161L26.4222 119.424H17.6307V146.038L20.7842 149H10.6071ZM36.9479 149L39.1458 146.038V120.236L36.9479 117.274H50.1352C58.1623 117.274 62.988 119.568 62.988 125.97C62.988 132.134 57.9711 134.284 54.9132 134.762L63.0836 145.321L66.906 149H58.6401L59.1179 146.42L50.4697 135.239H43.0638V146.038L45.2617 149H36.9479ZM50.1352 133.233C55.8688 133.233 58.6401 131.369 58.6401 126.352C58.6401 121.192 55.8688 119.424 50.1352 119.424H43.0638V133.233H50.1352ZM86.2766 149.478C78.2973 149.478 72.9938 145.99 72.946 135.956L72.8982 120.236L70.7003 117.274H79.014L76.8162 120.236L76.8639 135.956C76.8639 143.458 81.6897 146.468 87.3278 146.468C94.017 146.468 96.7882 141.785 96.7882 135.048V120.236L94.5903 117.274H101.184L98.9861 120.236V135.048C98.9861 143.362 95.4026 149.478 86.2766 149.478ZM133.301 149H108.312L110.51 146.038V120.236L108.312 117.274H131.82V125.301L128.237 119.424H114.428V131.99H124.749L127.568 128.502V137.581L124.749 134.14H114.428V146.85H129.718L133.301 140.925V149ZM154.48 149L156.678 146.038V120.236L154.48 117.274H167.668C175.695 117.274 180.521 119.568 180.521 125.97C180.521 132.134 175.504 134.284 172.446 134.762L180.616 145.321L184.439 149H176.173L176.65 146.42L168.002 135.239H160.596V146.038L162.794 149H154.48ZM167.668 133.233C173.401 133.233 176.173 131.369 176.173 126.352C176.173 121.192 173.401 119.424 167.668 119.424H160.596V133.233H167.668ZM187.505 149L190.228 145.799L201.839 121.096L199.211 117.274H204.419L218.323 146.372L220.569 149H211.777L214.023 146.42L212.016 142.167H194.337L192.665 145.799L194.863 149H187.505ZM195.293 140.161H211.108L203.177 123.438L195.293 140.161ZM225.892 149L228.089 146.038V120.236L225.892 117.274H239.079C247.106 117.274 251.932 119.568 251.932 125.97C251.932 132.134 246.915 134.284 243.857 134.762L252.027 145.321L255.85 149H247.584L248.062 146.42L239.413 135.239H232.007V146.038L234.205 149H225.892ZM239.079 133.233C244.812 133.233 247.584 131.369 247.584 126.352C247.584 121.192 244.812 119.424 239.079 119.424H232.007V133.233H239.079ZM260.827 149L263.025 146.038V120.236L260.827 117.274H269.141L266.943 120.236V146.038L269.141 149H260.827ZM285.32 149L288.474 146.038V119.424H279.682L275.812 126.161V117.274H305.006V126.161L301.136 119.424H292.344V146.038L295.498 149H285.32ZM320.787 149L323.941 146.038V138.727L311.948 119.806L309.559 117.274H317.968L316.583 119.806L326.855 136.099L335.981 120.858L334.787 117.274H342.241L338.514 120.858L327.811 138.727V146.038L330.964 149H320.787Z"></path>
<path fill-opacity="0.7" fill="white" d="M138.092 199.509C138.092 191.975 146.107 187.147 152.767 190.669L218.623 225.498C225.723 229.253 225.723 239.423 218.623 243.178L152.767 278.007C146.107 281.529 138.092 276.701 138.092 269.167L138.092 234.338L138.092 199.509Z"></path>
<path fill="white" d="M115.275 11.4C115.369 9.17812 113.981 7.73437 112.087 7.73437C110.362 7.73437 109.256 8.87812 109.256 10.3031C109.256 11.8031 110.437 12.4875 111.497 13.05L112.847 13.7437C113.812 14.2312 115.519 15.15 115.519 17.325C115.519 19.4437 113.897 21.3469 111.169 21.3469C109.481 21.3469 107.775 20.5875 106.678 19.6687L107.344 16.5375H107.878C107.85 16.7625 107.841 16.9781 107.841 17.1844C107.841 19.3687 109.219 20.8312 111.216 20.8312C113.109 20.8312 114.272 19.5469 114.272 17.9719C114.272 16.2375 112.884 15.4875 112.125 15.0937L110.662 14.3344C109.359 13.6594 107.944 12.8062 107.944 10.8281C107.944 8.85 109.397 7.22812 112.059 7.22812C113.616 7.22812 115.209 7.80937 116.4 8.57812L115.809 11.4H115.275ZM125.841 11.3812H127.144L125.541 18.8062C125.475 19.1062 125.419 19.4531 125.419 19.7625C125.419 20.1844 125.541 20.5312 125.953 20.5312C126.656 20.5312 127.237 19.5 127.612 18.4125L128.025 18.6187C127.566 19.9031 126.816 21.2156 125.475 21.2156C124.556 21.2156 124.191 20.5781 124.191 19.6875C124.191 19.3687 124.237 19.0312 124.322 18.6656L124.894 16.0687C123.806 18.9562 122.278 21.2156 120.15 21.2156C118.912 21.2156 118.416 20.4281 118.416 19.2C118.416 18.7781 118.472 18.3 118.584 17.7844L119.494 13.575C119.531 13.3875 119.55 13.2375 119.55 13.1156C119.55 12.7312 119.362 12.5812 118.894 12.5062L118.097 12.4031L118.191 11.9531L121.312 11.175L119.916 17.7656C119.831 18.1781 119.747 18.6469 119.747 19.0687C119.747 19.7625 119.972 20.3344 120.787 20.3344C122.925 20.3344 124.791 16.275 125.597 12.525L125.841 11.3812ZM131.231 18.9C131.175 19.1906 131.119 19.5094 131.119 19.7906C131.119 20.2031 131.241 20.5312 131.653 20.5312C132.347 20.5312 132.956 19.5094 133.331 18.4219L133.744 18.6187C133.284 19.9031 132.497 21.2156 131.166 21.2156C130.219 21.2156 129.844 20.55 129.844 19.6312C129.844 19.3312 129.881 19.0125 129.956 18.675L132.15 8.4375C132.187 8.27812 132.206 8.1375 132.206 8.01562C132.206 7.66875 132.028 7.50937 131.522 7.41562L130.753 7.3125L130.847 6.87187L133.959 6.09375L131.231 18.9ZM136.95 18.9C136.894 19.1906 136.837 19.5094 136.837 19.7906C136.837 20.2031 136.959 20.5312 137.372 20.5312C138.066 20.5312 138.675 19.5094 139.05 18.4219L139.462 18.6187C139.003 19.9031 138.216 21.2156 136.884 21.2156C135.937 21.2156 135.562 20.55 135.562 19.6312C135.562 19.3312 135.6 19.0125 135.675 18.675L137.869 8.4375C137.906 8.27812 137.925 8.1375 137.925 8.01562C137.925 7.66875 137.747 7.50937 137.241 7.41562L136.472 7.3125L136.566 6.87187L139.678 6.09375L136.95 18.9ZM144.15 6.42187C144.844 6.42187 145.256 6.83437 145.256 7.47187C145.256 8.12812 144.834 8.53125 144.15 8.53125C143.437 8.53125 142.987 8.09062 142.987 7.48125C142.987 6.8625 143.437 6.42187 144.15 6.42187ZM141.103 12.3937L141.197 11.9625L144.319 11.175L142.678 18.8344C142.612 19.1531 142.556 19.4719 142.556 19.7531C142.556 20.2031 142.697 20.5312 143.119 20.5312C143.822 20.5312 144.384 19.4906 144.75 18.4031L145.172 18.6187C144.722 19.9031 143.953 21.2156 142.603 21.2156C141.656 21.2156 141.281 20.5594 141.281 19.6406C141.281 19.3406 141.319 19.0125 141.394 18.675L142.509 13.5187C142.547 13.3594 142.566 13.2187 142.566 13.1062C142.566 12.7219 142.359 12.5812 141.881 12.4969L141.103 12.3937ZM149.297 11.175L150.009 19.9875L151.481 18.4031C152.259 17.5594 153.787 15.7969 153.787 14.3812C153.787 13.5094 153.187 12.9094 153.187 12.1219C153.187 11.5781 153.478 11.175 154.041 11.175C154.772 11.175 155.053 11.8406 155.053 12.6937C155.053 15.1312 152.878 17.5687 151.669 18.8344L149.606 21H148.828L148.153 13.4906C148.087 12.7687 147.994 12.4594 147.141 12.375L146.362 12.3187L146.456 11.8781L149.297 11.175ZM164.062 18.7969C164.006 19.0781 163.95 19.4062 163.95 19.7062C163.95 20.1562 164.072 20.5312 164.494 20.5312C165.131 20.5312 165.703 19.6219 166.125 18.4125L166.547 18.6187C166.087 19.875 165.337 21.2156 163.987 21.2156C163.069 21.2156 162.656 20.5875 162.656 19.6781C162.656 19.5187 162.666 19.3594 162.694 19.1812C161.878 20.3719 160.669 21.2156 159.291 21.2156C157.331 21.2156 156.337 19.5187 156.337 17.4937C156.337 14.6344 158.353 11.175 161.512 11.175C162.694 11.175 163.566 11.6812 164.053 12.6375L164.316 11.3812H165.637L164.062 18.7969ZM157.809 17.2219C157.809 18.9469 158.559 20.2969 160.041 20.2969C161.166 20.2969 162.047 19.5187 162.797 18.5344L163.537 15.0375C163.603 14.7281 163.631 14.4281 163.631 14.1375C163.631 12.7312 162.881 11.6344 161.578 11.6344C159.403 11.6344 157.809 14.6906 157.809 17.2219ZM168.272 11.9531L171.366 11.175L170.222 16.4719C171.562 13.3781 173.334 11.175 175.303 11.175C176.409 11.175 176.916 11.85 176.916 12.9844C176.916 13.4062 176.841 13.8937 176.709 14.4375L175.622 18.7219C175.537 19.0312 175.472 19.4062 175.472 19.7344C175.472 20.175 175.603 20.5312 176.025 20.5312C176.719 20.5312 177.291 19.5094 177.675 18.4125L178.087 18.6187C177.628 19.9031 176.869 21.2156 175.519 21.2156C174.572 21.2156 174.141 20.5594 174.141 19.6406C174.141 19.3406 174.187 19.0125 174.272 18.675L175.275 14.8031C175.406 14.2875 175.528 13.7156 175.528 13.2281C175.528 12.5625 175.312 12.0562 174.637 12.0562C172.762 12.0562 170.409 15.9187 169.566 19.8656L169.331 21H167.991L169.584 13.5094C169.622 13.35 169.641 13.2094 169.641 13.0969C169.641 12.7125 169.434 12.5719 168.956 12.4969L168.178 12.3937L168.272 11.9531ZM183.131 11.175C184.762 11.175 186.562 12.0562 186.562 13.3219C186.562 13.7812 186.319 14.1656 185.831 14.1656C184.566 14.1656 185.269 11.6156 183.075 11.6156C181.884 11.6156 181.2 12.2906 181.2 13.2281C181.2 15.6937 185.916 15.3187 185.916 18.375C185.916 20.0156 184.566 21.2156 182.653 21.2156C180.994 21.2156 179.147 20.2875 179.147 18.9562C179.147 18.4781 179.4 18.1031 179.887 18.1031C181.191 18.1031 180.431 20.775 182.737 20.775C184.022 20.775 184.847 20.0344 184.847 18.975C184.847 16.4344 180.066 16.7531 180.066 13.7812C180.066 12.2812 181.294 11.175 183.131 11.175ZM203.634 20.1656C202.434 20.8594 200.709 21.3469 199.181 21.3469C195.469 21.3469 193.584 18.4781 193.584 15.2437C193.584 11.1187 196.622 7.22812 201.253 7.22812C203.128 7.22812 204.6 7.875 205.894 8.79375L205.294 11.625H204.759C204.544 9.68437 203.747 7.77187 201.131 7.77187C197.316 7.77187 195.206 11.8594 195.206 15.4031C195.206 18.3 196.631 20.8031 199.275 20.8031C201.506 20.8031 202.969 18.975 203.85 16.5937H204.403L203.634 20.1656ZM212.034 11.175C214.294 11.175 215.794 12.8062 215.794 15.3844C215.794 17.1937 215.062 18.9469 213.806 20.0531C212.953 20.8125 211.912 21.2156 210.787 21.2156C208.528 21.2156 207.028 19.5844 207.028 17.0062C207.028 15.2062 207.75 13.4437 209.016 12.3375C209.869 11.5781 210.909 11.175 212.034 11.175ZM208.528 17.2594C208.528 19.7156 209.559 20.7562 210.853 20.7562C211.697 20.7562 212.456 20.3062 213.056 19.4812C213.834 18.4219 214.294 16.7906 214.294 15.1312C214.294 12.6937 213.272 11.6344 211.969 11.6344C211.125 11.6344 210.366 12.0844 209.766 12.9094C208.987 13.9687 208.528 15.6 208.528 17.2594ZM219.909 11.175L220.622 19.9875L222.094 18.4031C222.872 17.5594 224.4 15.7969 224.4 14.3812C224.4 13.5094 223.8 12.9094 223.8 12.1219C223.8 11.5781 224.091 11.175 224.653 11.175C225.384 11.175 225.666 11.8406 225.666 12.6937C225.666 15.1312 223.491 17.5687 222.281 18.8344L220.219 21H219.441L218.766 13.4906C218.7 12.7687 218.606 12.4594 217.753 12.375L216.975 12.3187L217.069 11.8781L219.909 11.175ZM227.025 17.1187C227.025 14.2594 228.966 11.175 232.434 11.175C234.263 11.175 235.378 12.0281 235.378 13.3219C235.378 15.2437 232.884 16.2937 228.45 16.7156V16.8281C228.45 18.9281 229.481 20.1656 231.3 20.1656C232.753 20.1656 233.7 19.3687 234.253 18.1406L234.647 18.3094C234 20.0531 232.631 21.2156 230.784 21.2156C228.731 21.2156 227.025 19.8187 227.025 17.1187ZM228.469 16.3219C232.275 15.9187 233.878 14.9812 233.878 13.3031C233.878 12.2531 233.241 11.6437 232.191 11.6437C230.1 11.6437 228.656 13.9781 228.469 16.3219Z"></path>
</svg>
