<?xml version="1.0" encoding="utf-8"?>
<!-- Generator: Adobe Illustrator 21.1.0, SVG Export Plug-In . SVG Version: 6.00 Build 0)  -->
<svg version="1.1" id="Layer_1" xmlns="http://www.w3.org/2000/svg" xmlns:xlink="http://www.w3.org/1999/xlink" x="0px" y="0px"
	 viewBox="0 0 100 100" style="enable-background:new 0 0 100 100;" xml:space="preserve" width="100" height="100">
<style type="text/css">
	.st0{fill:#ffffff;}
</style>
<g id="twitter">
	<path class="st0" d="M0.6,80.9c8.9,5.7,19.4,9,30.8,9c37.3,0,58.3-31.5,57.1-59.7c3.9-2.8,7.3-6.4,10-10.4C94.9,21.4,91,22.5,87,23
		c4.1-2.5,7.3-6.4,8.8-11.1c-3.9,2.3-8.2,4-12.7,4.9c-3.7-3.9-8.9-6.3-14.7-6.3c-13,0-22.5,12.1-19.6,24.7
		c-16.7-0.8-31.5-8.8-41.4-21C2.1,23.2,4.7,35,13.6,41c-3.3-0.1-6.4-1-9.1-2.5c-0.2,9.3,6.4,18,16.1,19.9c-2.8,0.8-5.9,0.9-9.1,0.3
		c2.6,8,10,13.8,18.8,13.9C21.8,79.2,11.2,82.2,0.6,80.9z"/>
</g>
</svg>
