<svg xmlns="http://www.w3.org/2000/svg" viewBox="0 0 68.79 70.24"><defs><style>.cls-1{fill:#fff;}</style></defs><title>stamp</title><g id="Layer_2" data-name="Layer 2"><g id="Layer_1-2" data-name="Layer 1"><path class="cls-1" d="M3.27,49.61c-.9.46-.79.74-.55,1.21l-.1.05-1-2,.1,0c.19.36.45.39,1.16,0l3.47-1.76c.52-.26.65-.46.46-.84l.1-.05.69,1.36c.76,1.49,1.08,2.57-.26,3.25s-2-.23-2.76-1.72L4.51,49Zm1.4-.54c.46.92.87,1.66,2.25,1s1-1.51.58-2.38l-.07-.14L4.6,48.93Z"/><path class="cls-1" d="M9.84,58.17,8.5,59.31,5.77,56.08,5.85,56c.23.27.53.15,1-.22l3.08-2.61c.4-.34.55-.58.31-.86l.08-.07,2.66,3.15-1.15,1-.07-.08c1-1,.06-2.1-.37-2.62l-.29-.35L8.94,55.12l.35.41c.15.18.73.86,1.4.34l.07.08L9.39,57.12,9.32,57c.61-.58,0-1.27-.11-1.43l-.36-.42L6.71,57l.25.3c.48.57,1.42,1.73,2.81.78Z"/><path class="cls-1" d="M15.72,65.21l-.51-.38c-.87-.63-.77-.56-.09-2.32A1.24,1.24,0,0,0,14.57,61l-.32-.23-1.08,1.5c-.33.47-.29.73,0,.93l-.06.09-1.53-1.1.06-.1c.3.21.53.17.94-.4L15,58.32c.3-.42.25-.6-.05-.82l.06-.09,1.31.94c1.36,1,2,1.68,1.18,2.82a1.4,1.4,0,0,1-2.17.34c.43.35.88.73.15,2.48a.93.93,0,0,0,.3,1.12Zm.55-6.77-.22-.15-1.74,2.42.21.15c.77.56,1.35,1,2.23-.23S17,59,16.27,58.44Z"/><path class="cls-1" d="M25.13,63l-.57,1.4-.1,0c.41-1.4-1-1.91-1.59-2.16l-.41-.17-1,2.57.5.2c.21.08,1,.43,1.43-.34l.1,0-.68,1.68-.11,0c.26-.83-.59-1.15-.79-1.23l-.5-.2-.72,1.77c-.31.77-.1.94.25,1.08l0,.1L19,67l0-.1c.33.14.53-.11.75-.64l1.51-3.74c.2-.49.22-.77-.13-.91l0-.1Z"/><path class="cls-1" d="M31,68.48l-.28,1.73-4.18-.66,0-.11c.35.05.5-.23.59-.79l.63-4c.07-.52,0-.8-.33-.85l0-.11,4.07.64-.24,1.49h-.1c.12-1.39-1.32-1.63-2-1.74L28.8,64l-.44,2.74.54.08c.22,0,1.1.18,1.28-.66l.11,0L30,68l-.11,0c.09-.84-.81-1-1-1l-.54-.08-.44,2.79.38.06c.74.12,2.2.39,2.64-1.24Z"/><path class="cls-1" d="M39.76,68.24,40,69.52a3.23,3.23,0,0,1-2,.71,3,3,0,0,1-.55-6,3,3,0,0,1,2.07.32l0,1.31h-.11a1.78,1.78,0,0,0-2-1.53c-.87.08-1.8.55-1.56,3.08s1.25,2.83,2.1,2.75a1.79,1.79,0,0,0,1.65-1.87Z"/><path class="cls-1" d="M46.78,61.77l.5,1.39-.1,0a1.45,1.45,0,0,0-1.93-.76l-.47.17,1.71,4.7c.19.53.48.58.81.46l0,.1-1.94.7,0-.1c.34-.12.52-.35.33-.87L44,62.9l-.47.17a1.38,1.38,0,0,0-1,1.82l-.11,0-.5-1.39Z"/><path class="cls-1" d="M50.9,59.34l.06.09c-.31.19-.42.43-.14.87l2.25,3.6c.3.48.62.55.92.36l.06.09-1.73,1.09-.06-.09c.31-.19.39-.5.08-1l-2.26-3.6c-.28-.44-.54-.44-.85-.25l-.07-.09Z"/><path class="cls-1" d="M59.42,60.05c-1.32,1.31-2.88,1-4.06-.2s-1.54-2.81-.22-4.11,2.93-.92,4.11.26S60.73,58.75,59.42,60.05Zm-4.21-4.23c-.71.71-.78,1.72.84,3.35s2.58,1.51,3.29.8.84-1.65-.79-3.28S55.91,55.12,55.21,55.82Z"/><path class="cls-1" d="M61.78,46.3l.09.05c-.59,1.07.48,1.63,1.17,2l3.36,1.85-.13.24-5.77.91,2.2,1.21c.65.36,1.75,1,2.28,0l.1.05-1.17,2.13-.1-.05c.59-1.07-.5-1.67-1.16-2l-2.31-1.27-.56.09c-.85.15-.92.38-1,.57l-.09,0,.75-1.36,5.87-.92L63,48.46c-.68-.37-1.74-1-2.28,0l-.08-.05Z"/><path class="cls-1" d="M1.46,25.07l.1,0c-.09.35,0,.61.49.74l4.12,1.07c.55.15.82,0,.91-.37l.11,0-.51,2-.1,0c.09-.35-.07-.63-.62-.77L1.84,26.68c-.51-.13-.7,0-.79.4l-.11,0Z"/><path class="cls-1" d="M5.71,15.56l.09,0c-.57,1.08.5,1.62,1.19,2l3.37,1.81-.13.24-5.75,1L6.7,21.8c.66.35,1.76.95,2.28,0l.1.05L7.93,24l-.1-.05c.58-1.08-.51-1.66-1.18-2L4.33,20.66l-.55.09c-.85.16-.92.4-1,.58l-.09,0,.73-1.37,5.85-1L6.94,17.7c-.69-.37-1.76-.95-2.28,0l-.09,0Z"/><path class="cls-1" d="M17.21,12.08a3.54,3.54,0,0,1-1.87.85l-1-1.28.08-.06c.7.75,1.58,1.28,2.72.4s.28-2-.93-2l-1.65.15c-1,.07-2-.07-2.12-1.25a1.84,1.84,0,0,1,.85-1.49,4.3,4.3,0,0,1,1.77-.87l.86,1.12-.1.07a1.63,1.63,0,0,0-2.47-.24c-.72.56-.55,1.9,1,1.78L16,9.19c1.35-.11,2.06.52,2.14,1.34C18.11,10.52,18.24,11.29,17.21,12.08Z"/><path class="cls-1" d="M24.21,6.06l.71,1.6L21.05,9.39l0-.1c.32-.15.29-.46.06-1L19.43,4.61c-.22-.48-.4-.69-.74-.54l0-.1L22.41,2.3,23,3.68l-.1,0c-.66-1.23-2-.65-2.62-.37l-.41.18L21,6.06l.5-.22c.21-.09,1-.46.72-1.25l.09,0,.74,1.65-.1,0c-.38-.75-1.21-.39-1.41-.31l-.5.22,1.15,2.58.35-.15c.69-.31,2.06-.87,1.54-2.48Z"/><path class="cls-1" d="M32.93,5.92,31,6.22V6.12c.44-.08.29-.54,0-1l-.4-.67-2.15.35c-.11.69-.32,1.79.83,1.57l0,.11-1.85.3,0-.11c.32-.06.52-.13.93-2.16l.78-4h.09c1.41,2.28,2.86,4.74,2.86,4.74.38.62.56.58.79.56ZM30.59,4.37,29.06,1.78,28.5,4.71Z"/><path class="cls-1" d="M40.46,6.43l-.64-.07c-1.07-.11-.94-.11-1.22-2a1.25,1.25,0,0,0-1.21-1l-.39,0-.2,1.83c-.06.58.1.78.46.82v.11l-1.87-.2V5.78c.36,0,.54-.11.61-.82L36.44.8C36.5.28,36.36.15,36,.11V0l1.6.17C39.27.34,40.16.65,40,2c-.12,1.14-.81,1.4-1.72,1.37.55.08,1.12.2,1.36,2.08a.94.94,0,0,0,.81.83ZM37.59.28l-.25,0-.32,3,.26,0c1,.1,1.66.19,1.83-1.3S38.48.37,37.59.28Z"/><path class="cls-1" d="M48,7.12,47.6,8.37a3.17,3.17,0,0,1-2.08-.24,2.79,2.79,0,0,1-1.64-3.88A2.79,2.79,0,0,1,47.7,2.46a3,3,0,0,1,1.71,1.21l-.56,1.18-.1,0a1.78,1.78,0,0,0-1.09-2.25c-.82-.31-1.86-.3-2.77,2.08s-.12,3.09.68,3.39a1.79,1.79,0,0,0,2.31-.95Z"/><path class="cls-1" d="M53.95,11.67c-.41.56-.56.73-.27,1.08l-.07.09L52.4,12l.07-.09c.23.07.37-.09.8-.7l.95-1.32L52.34,8.51,51.4,9.83c-.5.69-.55.77-.41,1l-.06.09L49.71,10l.06-.09c.43.17.48.06,1-.6l2.1-2.93c.44-.62.56-.81.28-1.11l.07-.09,1.22.88-.07.09c-.24-.08-.34.06-.82.72L52.43,8.4,54.3,9.74l1.08-1.49c.47-.67.56-.81.42-1l.07-.1L57.07,8,57,8.12c-.36-.17-.48,0-1,.62Z"/><path class="cls-1" d="M59.52,20.17c-.94-1.59-.25-3,1.2-3.87s3.11-.8,4,.79.17,3.08-1.26,3.92S60.46,21.77,59.52,20.17Zm5.14-3c-.5-.87-1.46-1.18-3.45,0s-2.1,2.13-1.59,3,1.39,1.22,3.38,0S65.17,18,64.66,17.14Z"/><path class="cls-1" d="M68.79,27.38l-1.46.41,0-.1c1.36-.54.91-1.94.74-2.58l-.13-.43-2.67.76.15.52c.06.22.3,1.09,1.15.92l0,.11-1.74.49,0-.1c.81-.31.54-1.18.48-1.39l-.15-.52L63.29,26c-.79.23-.8.5-.7.87l-.11,0L61.95,25l.11,0c.1.35.42.36,1,.2l3.89-1.1c.5-.14.74-.3.64-.65l.1,0Z"/><path class="cls-1" d="M3.19,38.2a1.6,1.6,0,1,1-1.59-1.6A1.6,1.6,0,0,1,3.19,38.2Z"/><circle class="cls-1" cx="66.6" cy="38.2" r="1.6"/></g></g></svg>